<?xml version="1.0" encoding="utf-8"?>
<!-- Generator: Adobe Illustrator 16.0.0, SVG Export Plug-In . SVG Version: 6.00 Build 0)  -->
<!DOCTYPE svg PUBLIC "-//W3C//DTD SVG 1.1//EN" "http://www.w3.org/Graphics/SVG/1.1/DTD/svg11.dtd">
<svg version="1.1" id="Layer_1" xmlns="http://www.w3.org/2000/svg" xmlns:xlink="http://www.w3.org/1999/xlink" x="0px" y="0px"
	 width="70px" height="70px" viewBox="0 0 70 70" enable-background="new 0 0 70 70" xml:space="preserve">
<g>
	<path d="M34.512,6.99c0.51,0.757,1.02,1.514,1.529,2.273c0.146,0.219,0.543,0.115,0.787,0.118c0.463,0.005,0.926,0.011,1.389,0.018
		c-0.662-0.878-1.324-1.758-1.988-2.637c1.313-0.364,1.711-2.188,0.767-3.133c-1.004-1-2.867-0.671-4.146-0.686
		c-0.024,2.128-0.048,4.256-0.071,6.386c0.256,0.002,1.707,0.117,1.709-0.069C34.494,8.502,34.503,7.745,34.512,6.99z M34.556,4.378
		c0.37,0.012,0.856-0.062,1.129,0.254c0.248,0.288,0.197,0.703-0.031,0.982c-0.141,0.174-0.923,0.429-1.116,0.228
		C34.38,5.677,34.553,4.632,34.556,4.378z"/>
	<path d="M40.941,8.6c0.969,2.554,5.216,3.536,6.461,0.622c0.531-1.244,0.511-2.782-0.563-3.759
		c-1.044-0.952-2.483-1.409-3.866-0.97C41.24,5.042,40.539,6.959,40.941,8.6z M42.563,7.506c0.346-2.28,3.74-1.924,3.4,0.385
		C45.637,10.114,42.234,9.727,42.563,7.506z"/>
	<path d="M18.563,15.302c-0.09-0.301-0.503-1.072-0.229-1.272c0.578-0.42,1.156-0.84,1.733-1.261
		c0.262-0.19,0.925,0.753,1.116,0.616c0.485-0.352,0.973-0.702,1.461-1.052c-1.156-0.742-2.313-1.484-3.469-2.226
		c-0.653-0.42-1.307-0.839-1.959-1.259c-0.494-0.316-0.552-0.071-1.049,0.291c-0.389,0.282-0.99,0.444-0.848,0.945
		c0.203,0.711,0.406,1.422,0.608,2.133c0.394,1.379,0.786,2.758,1.181,4.136C17.594,16.002,18.077,15.652,18.563,15.302z
		 M18.947,11.885c0.023,0.018,0.047,0.036,0.07,0.054c-0.404,0.299-0.817,0.59-1.227,0.884c-0.244-0.762-0.49-1.524-0.734-2.286
		C17.687,10.985,18.316,11.436,18.947,11.885z"/>
	<path d="M3.12,31.849c2.006,1.062,4.013,2.125,6.019,3.188c0.047-0.357,0.425-1.671,0.107-1.835
		c-0.102-0.053-0.959-0.427-0.949-0.505c0.053-0.389,0.105-0.778,0.156-1.167c0.051-0.379,0.103-0.759,0.153-1.138
		c0.019-0.13,0.824-0.232,0.961-0.265c0.508-0.119,0.423-1.379,0.49-1.86c-1.592,0.385-3.183,0.77-4.774,1.155
		c-0.626,0.15-1.252,0.302-1.877,0.453C3.26,29.909,3.152,31.615,3.12,31.849z M7.254,30.623c-0.064,0.5-0.127,0.999-0.191,1.498
		c-0.725-0.351-1.449-0.701-2.174-1.052C5.678,30.92,6.466,30.772,7.254,30.623z"/>
	<path d="M69.529,28.923c-0.666-2.955-1.357-6.009-2.762-8.723c-1.39-2.682-2.861-5.48-4.924-7.725
		c-2.068-2.253-4.211-4.523-6.8-6.199c-2.548-1.649-5.229-3.316-8.151-4.229c-2.927-0.914-5.929-1.81-9.015-1.952
		c-3.049-0.141-6.204-0.217-9.207,0.462c-2.996,0.678-6.021,1.44-8.769,2.862C17.18,4.83,14.444,6.376,12.176,8.47
		c-2.279,2.102-4.453,4.305-6.146,6.922c-1.673,2.585-3.215,5.313-4.138,8.269c-1.849,5.92-2.546,12.216-1.176,18.331
		c1.361,6.076,4.018,11.794,8.268,16.404c4.237,4.594,9.453,8.106,15.443,9.978c5.974,1.866,12.257,2.134,18.365,0.765
		c6.121-1.373,11.612-4.422,16.22-8.65c4.621-4.242,7.747-9.707,9.604-15.653c0.76-2.433,1.223-5.026,1.341-7.573
		C70.09,34.431,69.895,31.73,69.529,28.923z M68.575,37.945c-0.397,2.928-0.817,5.949-1.958,8.701
		c-1.164,2.812-2.432,5.612-4.295,8.043c-1.862,2.429-3.85,4.748-6.295,6.613c-2.494,1.903-5.101,3.547-8.008,4.743
		c-5.781,2.379-11.867,3.075-18.047,2.237c-3.086-0.418-5.98-1.424-8.844-2.607c-2.799-1.154-5.271-2.965-7.652-4.799
		c-2.362-1.82-4.238-4.193-6.033-6.544c-0.912-1.194-1.641-2.584-2.332-3.913c-0.66-1.27-1.328-2.6-1.76-3.968
		c-0.905-2.872-1.775-5.834-1.902-8.867c-0.129-3.1-0.086-6.164,0.582-9.21c0.672-3.061,1.627-5.992,3.08-8.777
		c1.458-2.795,3.266-5.287,5.381-7.62c2.076-2.287,4.527-4.111,7.119-5.769c2.58-1.651,5.453-2.706,8.358-3.623
		c2.9-0.916,5.97-1.127,8.986-1.253c2.902-0.121,5.988,0.41,8.788,1.145c2.799,0.734,5.771,1.869,8.217,3.432
		c2.522,1.614,5.085,3.317,7.117,5.55c2.082,2.285,4.041,4.671,5.479,7.426c1.448,2.776,2.605,5.636,3.278,8.702
		c0.349,1.587,0.687,3.219,0.755,4.847C68.668,34.291,68.652,36.088,68.575,37.945z"/>
	<path d="M12.65,22.363c-0.453-0.219-0.91-0.43-1.358-0.657c-0.089,0.185-0.82,1.762-0.858,1.743
		c-0.665-0.316-1.329-0.63-1.994-0.945c-0.758-0.36-1.516-0.72-2.274-1.079c-0.245-0.116-0.743,1.256-0.873,1.524
		c1.925,0.917,3.849,1.834,5.772,2.751C11.594,24.587,12.121,23.475,12.65,22.363z"/>
	<path d="M66.963,30.481c-0.361-1.337-1.264-2.581-2.764-2.71c-1.352-0.115-2.648,0.389-3.326,1.62
		c-1.344,2.438,0.66,6.047,3.635,5.25C66.441,34.124,67.275,32.38,66.963,30.481z M65.492,31.472
		c-0.389,2.14-3.855,1.755-3.508-0.464C62.325,28.825,65.83,29.245,65.492,31.472z"/>
	<path d="M15.242,18.718c-0.602-0.505-1.203-1.011-1.805-1.516c-0.244-0.206-0.091-0.23,0.113-0.474
		c0.266-0.318,0.531-0.637,0.798-0.955c-0.114-0.095-1.086-0.922-1.104-0.9c-0.361,0.431-0.723,0.862-1.084,1.294
		c-0.084-0.07-0.789-0.647-0.773-0.667c0.271-0.323,0.541-0.646,0.811-0.969c0.148-0.178,0.576-0.474,0.361-0.656
		c-0.313-0.264-0.628-0.528-0.941-0.792c-0.803,0.964-1.607,1.927-2.41,2.891c1.639,1.363,3.276,2.728,4.914,4.091
		C14.495,19.618,14.869,19.168,15.242,18.718z"/>
	<path d="M53.396,11.684c-0.287,0.739-0.571,1.478-0.857,2.217c-0.18,0.464-0.357,0.928-0.537,1.393
		c-0.139,0.361-0.121,0.315,0.188,0.587c0.242,0.212,0.308,0.416,0.584,0.258c0.404-0.23,0.811-0.461,1.215-0.691
		c0.742-0.422,1.484-0.844,2.228-1.268c-0.591,0.9-1.183,1.802-1.772,2.704c-0.112,0.171-0.51,0.551-0.328,0.713
		c0.412,0.365,0.822,0.729,1.234,1.095c1.123-1.813,2.244-3.626,3.365-5.438c0.12-0.193-0.564-0.628-0.71-0.757
		c-0.284-0.251-0.501-0.67-0.86-0.476c-0.985,0.536-1.974,1.072-2.959,1.608c0.404-1.026,0.812-2.052,1.217-3.079
		c0.172-0.431-0.096-0.473-0.444-0.785c-0.151-0.136-0.756-0.856-0.935-0.711c-1.642,1.35-3.285,2.699-4.928,4.049
		c0.375,0.335,0.748,0.67,1.123,1.005c0.316,0.284,0.383,0.033,0.691-0.238C51.738,13.141,52.566,12.412,53.396,11.684z"/>
	<path d="M59.508,31.192c-0.631-2.939-1.502-5.817-3.113-8.389c-1.729-2.761-3.785-5.089-6.345-7.109
		C45.436,12.05,39,10.152,33.147,10.756c-3.238,0.336-6.213,1.151-9.151,2.56c-2.801,1.343-5.14,3.331-7.293,5.536
		c-0.97,0.992-1.927,2.273-2.612,3.479c-0.73,1.286-1.522,2.589-2.017,3.991c-1.058,3-1.718,5.988-1.718,9.182
		c0,5.941,2.232,12.307,6.434,16.605c2.209,2.261,4.598,4.172,7.447,5.572c2.893,1.42,5.912,2.112,9.098,2.469
		c1.459,0.162,2.959,0.019,4.416-0.078c1.375-0.09,2.985-0.404,4.291-0.846c2.974-1.008,5.717-2.27,8.205-4.211
		c4.728-3.693,8.468-9.34,9.271-15.381C59.895,36.766,59.891,34.062,59.508,31.192z M12.317,30.185
		c0.369-1.35,0.778-2.622,1.278-3.929c0.474-1.24,1.209-2.389,1.897-3.516c1.349-2.209,3.229-4.099,5.241-5.704
		c0,3.434,0,6.868,0,10.301c0,1.308,0,2.618,0,3.927c0,0.033-4.082,0.016-4.379,0.016c-1.412,0-2.826,0-4.239,0
		C12.184,30.914,12.25,30.549,12.317,30.185z M20.734,53.854c-2.607-1.853-4.51-4.356-6.157-7.063
		c-1.565-2.574-2.282-5.586-2.782-8.519c-0.013-0.074-0.025-0.146-0.038-0.221c0.859,0,8.978-0.015,8.978,0.016
		c0,3.453,0,6.904,0,10.358C20.734,50.234,20.734,52.044,20.734,53.854z M33.434,58.863c-1.447-0.162-2.939-0.285-4.34-0.715
		c-0.233-0.071-1.869-0.437-1.869-0.619c0-0.371,0-0.742,0-1.114c0-4.078,0-8.157,0-12.235c0-1.725,0-3.447,0-5.172
		c0-0.314,0-0.63,0-0.945c0-0.026,1.466-0.012,1.568-0.012c0.375,0,4.641-0.033,4.641,0.03c0,1.049,0,2.095,0,3.144
		C33.434,47.104,33.434,52.982,33.434,58.863z M33.434,31.28c-1.738,0-3.475,0-5.213,0c-0.17,0-0.996,0.122-0.996-0.09
		c0-0.438,0-0.875,0-1.311c0-4.146,0-8.291,0-12.437c0-1.021,0-2.042,0-3.063c0-0.413-0.178-0.907,0.246-1.035
		c1.984-0.599,3.904-0.981,5.963-1.213c0,6.373,0,12.744,0,19.115C33.434,31.257,33.434,31.269,33.434,31.28z M58.346,37.622
		c-0.43,3.024-1.087,5.955-2.572,8.657c-1.568,2.855-3.521,5.228-5.996,7.34c-2.182,1.861-5.073,3.482-7.865,4.195
		c-1.451,0.371-2.907,0.765-4.407,0.875c-0.845,0.063-1.677,0.146-2.523,0.117c-0.367-0.012-0.398,0.075-0.398-0.231
		c0-6.322,0-12.644,0-18.966c0-8.091,0-16.183,0-24.274c0-0.894,0-1.787,0-2.681c0-0.147,0-0.296,0-0.444
		c0-0.068,1.591,0.018,1.779,0.03c3.246,0.215,6.211,1.043,9.158,2.403c5.422,2.504,9.828,7.725,11.662,13.37
		C58.212,31.185,58.495,34.303,58.346,37.622z"/>
	<path d="M61.096,23.781c0.342-0.173,0.684-0.347,1.024-0.521c0.358-0.182,0.083-0.38-0.083-0.71
		c-0.072-0.144-0.538-0.817-0.486-0.968c0.055-0.159,0.764-0.396,0.928-0.481c0.313,0.627,0.625,1.255,0.938,1.883
		c0.399-0.205,0.8-0.41,1.2-0.614c0.035-0.017-0.344-0.729-0.375-0.791c-0.442-0.884-0.883-1.768-1.326-2.651
		c-1.904,0.958-3.813,1.915-5.719,2.874c0.447,0.888,0.893,1.775,1.339,2.663c0.03,0.062,0.377,0.797,0.409,0.78
		c0.436-0.216,0.871-0.433,1.309-0.649c-0.318-0.627-0.638-1.256-0.955-1.883c0.211-0.107,0.928-0.621,1.044-0.395
		C60.594,22.806,60.846,23.293,61.096,23.781z"/>
	<path d="M54.631,28.169c-0.588-2.354-1.908-4.026-3.591-5.711c-0.45,0.51-0.876,1.394-1.593,1.394c-1.23,0-2.463,0-3.695,0
		c-0.342,0-0.684,0-1.025,0c-0.271,0-0.41,0.878-0.58,0.989c-0.242,0.157-1.104,0-1.388,0c-0.463,0-0.927,0-1.39,0
		c0.137-0.364-0.438-0.458-0.688-0.575c-0.289-0.135-0.553-0.329-0.811-0.512c-0.574-0.408-1.066-0.724-1.796-0.602
		c-0.654,0.109-1.274,0.707-1.234,1.399c0.048,0.802,0.572,1.154,1.253,1.455c-1.355-0.419-2.417,0.801-2.562,2.012
		c-0.142,1.174,1.321,2.485,2.473,2.079c-1.114,0.82-1.425,2.283,0.115,2.821c-1.019,1.526-1.237,3.007-0.778,4.777
		c0.42,1.611,2.036,2.803,3.555,3.22c-1.682,0.149-2.933,2.571-2.461,4.077c0.604,1.938,2.029,2.765,4.004,2.765
		c-1.285,0.55-1.319,2.687-0.388,3.537c1.032,0.942,2.505,0.677,3.804,0.677c-0.25,0.659-0.615,1.297-0.922,1.936
		c0.766-0.578,1.586-1.115,2.321-1.727c0.688-0.572,1.113-1.408,0.597-2.242c1.056-0.297,2.055-1.006,2.193-2.193
		c0.15-1.271-0.388-2.211-1.425-2.922c2.372-0.029,4.022-1.413,4.618-3.684c0.578-2.215-1.174-4.31-3.12-5.005
		C53.917,35.458,55.166,31.56,54.631,28.169z M37.938,32.339c-0.668-0.412-0.396-1.055-0.029-1.549
		c0.345-0.463,1.191-0.454,1.363-1.009c0.084-0.271,0.07-0.6,0.082-0.882c0.015-0.363-0.563,0.276-0.578,0.289
		c-0.481,0.396-0.985,0.556-1.6,0.385c-1.004-0.279-1.631-1.844-0.732-2.611c0.418-0.358,0.916-0.61,1.482-0.49
		c0.303,0.065,0.539,0.188,0.782,0.38c0.261,0.208,0.252,0.451,0.647,0.389c-0.01-0.212-0.012-1.295-0.228-1.369
		c-0.479-0.166-1.101-0.314-1.479-0.663c-0.795-0.727,0.148-1.937,1.08-1.563c0.467,0.187,0.813,0.508,1.231,0.774
		c0.215,0.138,0.438,0.255,0.67,0.363c0.345,0.163,0.238,0.298,0.216,0.673c-0.063,1.05,0.645,1.929,1.407,2.538
		c-1.021,0.809-1.421,1.742-1.332,3.039c0-0.001-1.313,0.602-1.457,0.717C39.036,32.095,38.535,32.636,37.938,32.339z
		 M54.298,30.447c-0.228,1.562-0.657,2.885-1.833,3.992c-1.07,1.006-2.283,1.264-3.711,1.264c-1.887,0-3.775,0-5.665,0
		c-0.299,0-1.21-0.04-0.874,0.542c0.215,0.368,1.162,0.192,1.498,0.192c1.719,0,3.443-0.041,5.161,0.006
		c1.628,0.047,2.958,0.963,3.621,2.443c0.667,1.489,0.196,3.116-0.845,4.287c-0.952,1.072-2.342,1.156-3.666,1.156
		c-1.771,0-3.543,0-5.313,0c-0.57,0-0.465,0.701,0.077,0.701c0.917,0,1.833,0,2.751,0c1.451,0,2.93-0.232,3.822,1.152
		c0.793,1.227-0.105,2.935-1.443,3.254c-0.971,0.23-2.13,0.053-3.115,0.053c-0.141,0-0.617-0.088-0.617,0.183
		c0,0.3,0.549,0.193,0.703,0.193c0.743,0,2.33-0.337,2.699,0.55c0.361,0.865-0.756,1.471-1.3,1.876
		c0.56-0.726-0.565-0.815-0.981-0.815c-0.621,0-1.703,0.188-2.281-0.135c-0.6-0.334-1.196-0.953-1.103-1.714
		c0.083-0.659,0.452-1.479,1.187-1.646c0.691-0.16,4.15,0.217,4.16-0.412c0.008-0.508-1.246-0.305-1.518-0.305
		c-1.051,0-2.102,0-3.15,0c-1.414,0-2.6-0.303-3.344-1.615c-0.775-1.371-0.222-2.953,0.954-3.866
		c1.054-0.818,2.839-0.538,4.071-0.538c1.055,0,2.109,0,3.164,0c0.218,0,1.506,0.074,1.013-0.518c-0.274-0.33-1.29-0.14-1.646-0.14
		c-1.102,0-2.2,0-3.299,0c-1.289,0-2.676,0.078-3.783-0.716c-1.328-0.951-1.986-2.145-2.133-3.768
		c-0.121-1.333,0.651-2.916,1.734-3.676c1.79-1.258,3.801-1.003,5.891-1.003c0.27,0,1.041-0.132,0.739-0.614
		c-0.139-0.222-0.797-0.122-1.021-0.122c-1.164,0-2.327,0-3.491,0c0.022-0.783,0.151-1.402,0.752-1.944
		c0.603-0.542,1.246-0.58,2.017-0.58c0.5,0,0.735,0.172,0.735-0.357c0-0.262-0.896-0.124-1.131-0.124
		c-0.772,0-1.304-0.167-1.901-0.663c-0.193-0.162-0.839-1.695-0.445-1.695c0.938,0,1.877,0,2.813,0c0.574,0,0.279-0.989,0.875-0.989
		c0.947,0,1.896,0,2.845,0c0.657,0,1.315,0,1.975,0c0.326,0,0.902-0.917,1.127-1.165C53.094,25.194,54.402,27.53,54.298,30.447z"/>
	<path d="M40.66,23.125c1.576,0,3.152,0,4.729,0c0.975,0,1.947,0,2.922,0c0.215,0,0.433,0,0.648,0c0.07,0,0.114-0.767,0.049-0.833
		c-0.156-0.155-1.254,0-1.465,0c-1.088,0-2.176,0-3.266,0c-0.973,0-1.945,0-2.92,0c-0.217,0-0.433,0-0.648,0
		C40.598,22.292,40.66,22.993,40.66,23.125z"/>
	<path d="M49.008,21.337c-1.576,0-3.152,0-4.729,0c-0.973,0-1.946,0-2.922,0c-0.215,0-0.432,0-0.647,0
		c-0.071,0-0.112,0.749-0.049,0.814c0.151,0.154,1.258,0,1.465,0c1.088,0,2.176,0,3.265,0c0.973,0,1.946,0,2.922,0
		c0.215,0,0.432,0,0.647,0C49.072,22.152,49.008,21.466,49.008,21.337z"/>
	<path d="M48.98,20.348c-1.578,0-3.158,0-4.737,0c-0.976,0-1.951,0-2.927,0c-0.217,0-0.435,0-0.651,0
		c-0.071,0-0.112,0.749-0.048,0.814c0.152,0.155,1.26,0,1.468,0c1.089,0,2.181,0,3.271,0c0.977,0,1.951,0,2.928,0
		c0.218,0,0.435,0,0.65,0C49.046,21.162,48.98,20.477,48.98,20.348z"/>
	<path d="M47.641,19.532c0.58,0.751,1.801-0.018,1.248-0.823C48.331,17.893,47.215,18.683,47.641,19.532z"/>
	<path d="M45.916,19.532c0.564,0.67,1.717,0.104,1.305-0.752C46.775,17.851,45.314,18.704,45.916,19.532z"/>
	<path d="M44.189,19.532c0.619,0.729,1.729,0.03,1.248-0.823C44.967,17.871,43.634,18.729,44.189,19.532z"/>
	<path d="M42.465,19.532c0.613,0.716,1.799-0.017,1.238-0.823C43.15,17.913,41.979,18.704,42.465,19.532z"/>
	<path d="M40.73,19.532c0.565,0.663,1.73,0.101,1.305-0.752C41.582,17.868,40.27,18.626,40.73,19.532z"/>
</g>
</svg>
