<?xml version="1.0" encoding="utf-8"?>
<!-- Generator: Adobe Illustrator 16.0.0, SVG Export Plug-In . SVG Version: 6.00 Build 0)  -->
<!DOCTYPE svg PUBLIC "-//W3C//DTD SVG 1.1//EN" "http://www.w3.org/Graphics/SVG/1.1/DTD/svg11.dtd">
<svg version="1.1" id="Layer_1" xmlns="http://www.w3.org/2000/svg" xmlns:xlink="http://www.w3.org/1999/xlink" x="0px" y="0px"
	 width="162px" height="35px" viewBox="0 0 162 35" enable-background="new 0 0 162 35" xml:space="preserve">
<g>
	<g>
		<g>
			<path fill="#454545" d="M160.165,0H95.363c-6.971,0-6.592,5.358-6.592,5.358H73.231c0,0,0.377-5.358-6.595-5.358h-64.8
				c0,0-3.016,0-1.319,2.727l1.507,2.537c0,0,0.754,1.41,2.355,1.41H4.85l2.354,3.666c0,0,0.66,1.034,1.696,0.845l0.849-0.094
				l1.318,2.726c0,0,0.564,0.94,1.318,1.129l29.387,8.27l1.695,3.195c0,0,0.753,1.503,2.166,1.786l26.373,6.768
				c0,0,0.564,0.188,1.225-0.281l7.394-6.396c0.109,0.001,0.41,0.009,0.563,0.012l7.583,6.383c0.66,0.471,1.224,0.282,1.224,0.282
				l26.374-6.769c1.412-0.281,2.166-1.785,2.166-1.785l1.695-3.195l29.383-8.27c0.755-0.189,1.32-1.129,1.32-1.129l1.317-2.726
				l0.847,0.094c1.038,0.189,1.696-0.845,1.696-0.845l2.354-3.666h0.473c1.6,0,2.355-1.41,2.355-1.41l1.504-2.537
				C163.18,0,160.165,0,160.165,0z M95.605,1.127h25.523c0,0-0.637,1.69-2.105,4.21L89.859,5.358
				C89.859,5.358,89.296,1.127,95.605,1.127z M112.757,10.668l0.013-1.48l3.602,0.174c-0.355,0.483-0.736,0.976-1.137,1.473
				L112.757,10.668z M114.331,11.922c-0.504,0.589-1.039,1.184-1.608,1.78l0.021-1.874L114.331,11.922z M112.781,7.988l0.016-1.356
				h5.441c-0.297,0.465-0.614,0.953-0.961,1.457L112.781,7.988z M66.26,1.127c6.312,0,5.747,4.23,5.747,4.23l-29.165-0.02
				c-1.469-2.52-2.105-4.21-2.105-4.21H66.26z M49.098,9.188l0.014,1.48l-2.478,0.167c-0.401-0.497-0.78-0.99-1.137-1.473
				L49.098,9.188z M44.589,8.089c-0.346-0.504-0.664-0.991-0.96-1.457h5.442l0.014,1.356L44.589,8.089z M49.125,11.828l0.019,1.874
				c-0.568-0.596-1.104-1.191-1.607-1.78L49.125,11.828z M4.474,5.358c0,0-1.083,0.14-1.507-0.847L1.459,1.974
				c0,0-0.564-0.847,0.283-0.847l37.77,0.094c0,0,0.64,1.65,2.078,4.133L4.474,5.358z M8.901,9.869
				C8.241,9.963,8.054,9.68,8.054,9.68L6.169,6.674l36.193-0.036c0.309,0.495,0.643,1.01,1.004,1.544L8.901,9.869z M12.056,13.064
				l-0.988-2.068L44.263,9.46c0.354,0.488,0.73,0.987,1.128,1.493l-32.393,3.003C12.998,13.956,12.386,13.91,12.056,13.064z
				 M16.578,14.943l29.701-2.893c0.258,0.311,0.525,0.623,0.802,0.938L26.455,17.66L16.578,14.943z M28.955,18.35l18.997-4.396
				c0.214,0.232,0.436,0.466,0.659,0.699L35.63,20.186L28.955,18.35z M37.524,20.708l12.048-5.09
				c0.367,0.359,0.745,0.716,1.135,1.071l-8.511,5.304L37.524,20.708z M42.997,22.979l8.661-5.444
				c0.563,0.485,1.146,0.966,1.755,1.438l-8.87,6.688L42.997,22.979z M65.845,24.54c-1.089-0.386-2.136-0.802-3.144-1.249
				l3.395-7.898h2.896L65.845,24.54z M70.299,15.393h2.402l-2.125,10.521c-1.266-0.294-2.483-0.633-3.654-1.012L70.299,15.393z
				 M61.681,22.721c-0.745-0.346-1.483-0.73-2.204-1.144l3.158-6.185h2.188L61.681,22.721z M58.416,20.949
				c-0.707-0.434-1.388-0.885-2.033-1.332l2.861-4.225h2.013L58.416,20.949z M55.435,18.943c-0.61-0.443-1.177-0.875-1.686-1.275
				l1.786-2.275h2.225L55.435,18.943z M52.831,16.93c-1.111-0.915-1.781-1.537-1.781-1.537h2.932L52.831,16.93z M45.681,26.926
				c0,0-0.129-0.035-0.306-0.158c-0.035-0.024-0.072-0.053-0.11-0.084l9.116-6.976c0.597,0.44,1.215,0.871,1.854,1.293l-6.333,7.013
				L45.681,26.926z M51.145,28.333l6.123-6.672c0.701,0.433,1.426,0.854,2.175,1.259l-4.307,6.439L51.145,28.333z M56.364,29.678
				l4.214-6.164c0.843,0.426,1.715,0.832,2.618,1.211l-2.64,6.032L56.364,29.678z M66.252,32.223l-4.566-1.175l2.605-5.88
				c0.982,0.385,1.999,0.74,3.052,1.063L66.252,32.223z M71.959,33.693l-4.58-1.18l1.093-5.951c1.138,0.315,2.312,0.596,3.526,0.832
				L71.959,33.693z M71.716,26.163l2.222-10.77h2.295l-0.938,11.363C74.063,26.6,72.87,26.4,71.716,26.163z M73.138,33.129
				l0.006-5.527c1.839,0.311,3.767,0.524,5.786,0.627L73.138,33.129z M76.42,26.887l1.013-11.495h2.933l0.023,11.754
				C79.023,27.109,77.701,27.021,76.42,26.887z M50.202,14.192V6.579h61.246v7.613H50.202z M92.939,15.393h2.719l3.505,7.895
				c-1.062,0.481-2.106,0.903-3.128,1.276L92.939,15.393z M94.938,24.934c-1.222,0.403-2.402,0.732-3.523,1.002L89.23,15.393h2.401
				L94.938,24.934z M96.896,15.393h2.4l3.251,6.173c-0.789,0.445-1.575,0.856-2.351,1.234L96.896,15.393z M100.711,15.393h2.014
				l2.844,4.294c-0.668,0.455-1.334,0.881-2,1.283L100.711,15.393z M104.207,15.393h2.295l1.714,2.33
				c-0.565,0.457-1.138,0.89-1.707,1.302L104.207,15.393z M107.984,15.393h2.9c-0.572,0.542-1.15,1.06-1.73,1.554L107.984,15.393z
				 M81.613,27.184L81.6,15.393h2.934l0.943,11.601C83.702,27.173,82.359,27.193,81.613,27.184z M82.936,28.229
				c2.021-0.103,3.949-0.316,5.787-0.627l0.008,5.527L82.936,28.229z M86.605,26.861l-0.869-11.469h2.26l2.156,10.86
				C88.868,26.527,87.678,26.725,86.605,26.861z M89.908,33.693l-0.04-6.299c1.214-0.236,2.39-0.516,3.526-0.832l1.09,5.951
				L89.908,33.693z M95.613,32.223l-1.09-5.992c1.051-0.322,2.069-0.678,3.052-1.063l2.604,5.88L95.613,32.223z M101.311,30.758
				l-2.641-6.031c0.9-0.381,1.775-0.787,2.618-1.211l4.213,6.164L101.311,30.758z M106.73,29.361l-4.307-6.44
				c0.747-0.405,1.475-0.825,2.174-1.259l6.125,6.672L106.73,29.361z M116.492,26.768c-0.178,0.123-0.307,0.158-0.307,0.158
				l-4.222,1.088L105.632,21c0.64-0.422,1.257-0.854,1.854-1.293l9.117,6.977C116.564,26.715,116.527,26.743,116.492,26.768z
				 M117.323,25.662l-8.87-6.688c0.607-0.475,1.193-0.955,1.755-1.439l8.661,5.445L117.323,25.662z M119.671,21.993l-8.511-5.304
				c0.39-0.355,0.768-0.712,1.133-1.071l12.049,5.09L119.671,21.993z M126.236,20.186l-12.979-5.535
				c0.224-0.233,0.444-0.466,0.659-0.699l18.995,4.396L126.236,20.186z M135.412,17.66l-20.626-4.672
				c0.276-0.314,0.543-0.626,0.802-0.938l29.701,2.893L135.412,17.66z M149.811,13.064c-0.33,0.846-0.942,0.892-0.942,0.892
				l-32.392-3.003c0.397-0.506,0.773-1.005,1.127-1.493l33.195,1.536L149.811,13.064z M153.813,9.68c0,0-0.188,0.283-0.849,0.189
				L118.5,8.182c0.359-0.534,0.695-1.049,1.004-1.544l36.191,0.036L153.813,9.68z M160.404,1.974l-1.506,2.537
				c-0.424,0.987-1.506,0.847-1.506,0.847l-37.117-0.003c1.439-2.483,2.078-4.133,2.078-4.133l37.771-0.094
				C160.973,1.127,160.404,1.974,160.404,1.974z"/>
		</g>
	</g>
	<g>
		<g>
			<g>
				<path fill="#454545" d="M53.9,7.635h-0.219l-2.492,5.739h0.542l0.867-2.166h2.061l0.866,2.166h0.868L53.9,7.635z M52.708,10.775
					l0.867-2.057l0.976,2.057H52.708z"/>
			</g>
		</g>
		<path fill="#454545" d="M59.646,12.942c-0.326,0.324-0.868,0.541-1.41,0.541l-0.759-0.108l-0.541-0.432l0.107-0.651h0.108
			c0.325,0.541,0.759,0.866,1.301,0.866c0.325,0,0.543-0.109,0.759-0.433c0.217-0.216,0.325-0.542,0.325-0.867
			c0-0.324-0.108-0.541-0.325-0.757l-0.867-0.432c-0.434-0.108-0.759-0.326-0.867-0.434c-0.325-0.323-0.434-0.648-0.434-0.974
			c0-0.542,0.216-0.866,0.542-1.191c0.325-0.324,0.65-0.433,1.192-0.433s0.868,0.109,1.192,0.433l-0.217,0.649l0,0
			c-0.215-0.542-0.54-0.759-1.082-0.759c-0.325,0-0.542,0.108-0.651,0.326c-0.215,0.108-0.324,0.325-0.324,0.649
			c0,0.325,0.109,0.651,0.324,0.868l0.978,0.324c0.324,0.216,0.65,0.434,0.866,0.542c0.218,0.215,0.326,0.54,0.326,0.974
			C60.188,12.182,59.971,12.616,59.646,12.942L59.646,12.942z"/>
		<polygon fill="#454545" points="64.957,7.96 65.066,8.286 63.332,8.177 63.332,13.374 62.572,13.374 62.572,8.177 60.73,8.286 
			60.838,7.96 60.73,7.745 65.066,7.745 		"/>
		<g>
			<g>
				<path fill="#454545" d="M70.377,8.286c-0.541-0.434-1.299-0.65-2.167-0.65c-0.867,0-1.626,0.216-2.168,0.759
					c-0.542,0.541-0.867,1.299-0.867,2.166c0,0.865,0.325,1.623,0.867,2.165c0.542,0.541,1.301,0.758,2.168,0.758
					c0.977,0,1.733-0.325,2.276-0.866c0.542-0.542,0.867-1.191,0.867-2.166S71.028,8.827,70.377,8.286z M70.053,12.182
					c-0.434,0.649-1.085,0.975-1.843,0.975c-0.542,0-1.084-0.215-1.518-0.649s-0.65-1.083-0.65-1.84s0.217-1.408,0.542-1.95
					c0.434-0.541,0.976-0.866,1.733-0.866c0.761,0,1.302,0.326,1.735,0.866c0.324,0.434,0.434,1.084,0.434,1.842
					C70.596,11.1,70.377,11.642,70.053,12.182z"/>
			</g>
		</g>
		<polygon fill="#454545" points="77.315,13.374 76.99,13.374 73.089,8.935 72.98,8.935 72.98,13.374 72.546,13.374 72.546,7.745 
			72.872,7.745 76.774,11.966 76.774,7.745 77.315,7.745 		"/>
		<path fill="#454545" d="M81.652,7.745c0.977,1.841,1.734,3.247,2.386,4.33l2.386-4.33h0.107l0.65,5.629h-0.759L85.99,9.152
			c-0.977,1.84-1.734,3.247-2.061,4.114H83.82l-0.541-0.867l-1.627-3.247l-0.325,4.222h-0.65l0.867-5.629H81.652L81.652,7.745z"/>
		<g>
			<g>
				<path fill="#454545" d="M90.542,7.635h-0.216l-2.602,5.739h0.648l0.76-2.166H91.3l0.868,2.166h0.76L90.542,7.635z
					 M89.352,10.775l0.864-2.057l0.868,2.057H89.352z"/>
			</g>
		</g>
		<g>
			<g>
				<path fill="#454545" d="M95.746,10.56c0.434-0.109,0.759-0.217,1.082-0.434c0.326-0.324,0.545-0.649,0.545-1.083
					c0-0.865-0.545-1.298-1.736-1.298h-1.734v5.629h0.65v-2.706h0.325l2.17,2.706h0.866L95.746,10.56z M94.553,10.342V8.068h1.193
					c0.648,0.109,0.977,0.434,0.977,1.083L96.396,9.91c-0.217,0.106-0.435,0.215-0.76,0.323L94.553,10.342z"/>
			</g>
		</g>
		<polygon fill="#454545" points="99.758,13.374 99.758,8.177 98.021,8.286 98.021,7.745 102.143,7.745 102.143,8.286 
			100.516,8.177 100.516,13.374 		"/>
		<polygon fill="#454545" points="103.877,7.745 103.877,13.374 103.441,13.374 103.117,13.374 103.117,7.745 		"/>
		<polygon fill="#454545" points="110.273,13.374 109.947,13.374 106.046,8.935 105.936,8.935 105.936,13.374 105.503,13.374 
			105.503,7.745 105.718,7.745 109.73,11.966 109.73,7.745 110.273,7.745 		"/>
	</g>
</g>
</svg>
