<?xml version="1.0" encoding="utf-8"?>
<!-- Generator: Adobe Illustrator 16.0.0, SVG Export Plug-In . SVG Version: 6.00 Build 0)  -->
<!DOCTYPE svg PUBLIC "-//W3C//DTD SVG 1.1//EN" "http://www.w3.org/Graphics/SVG/1.1/DTD/svg11.dtd">
<svg version="1.1" id="Layer_1" xmlns="http://www.w3.org/2000/svg" xmlns:xlink="http://www.w3.org/1999/xlink" x="0px" y="0px"
	 width="107px" height="60px" viewBox="0 0 107 60" enable-background="new 0 0 107 60" xml:space="preserve">
<g>
	<path fill="#E21D38" d="M75.104,41.467h-6.106l4.083,4.617c-7.262-0.943-11.305,2.288-11.305,6.402c0,4.136,4.504,7.49,10,7.49
		c5.494,0,10.188-3.377,9.998-7.49c-0.063-1.322-0.482-2.645-1.031-3.42L75.104,41.467z M71.775,56.451
		c-2.717,0-4.947-1.658-4.947-3.694s2.232-3.692,4.947-3.692c2.716,0,4.927,1.656,4.927,3.692S74.491,56.451,71.775,56.451z"/>
	<rect x="82.848" y="46.084" fill="#E21D38" width="5.01" height="13.559"/>
	<path fill="#E21D38" d="M55.966,53.684c0,1.741-1.874,2.77-3.284,2.77c-1.39,0-3.116-0.945-3.116-2.77h-0.001v-7.6h-4.989v7.6
		c0,5.267,4.778,6.316,8.105,6.316c3.346,0,8.021-1.049,8.021-6.316v-7.6h-4.736V53.684z"/>
	<path fill="#E21D38" d="M28.284,41.467l1.62,1.742L19.19,59.643h5.873l2.106-3.189h11.114l2.021,3.189h5.748L34.558,41.467H28.284z
		 M29.273,53.18l3.537-5.395l3.431,5.395H29.273z"/>
</g>
<path fill="#6D6F71" d="M103.521,28.266c-6.65,6.044-16.168,6.927-24.48,0.735c-9.748,7.112-18.506,4.323-24.609,0.23
	c-9.833,6.486-16.884,5.289-24.631,0.126C12.032,41.971-8.64,23.691,3.78,3.564l0.59,0.398
	C-6.304,19.851,14.812,40.587,31.904,26.965c7.01,5.352,16.23,6.717,24.524-0.209c10.59,8.122,20.549,3.713,24.398-0.19
	c6.379,5.142,15.408,6.571,22.146,1.491C103.372,28.35,103.121,28.016,103.521,28.266L103.521,28.266z M103.059,23.817
	C115.71,7.865,94.911-7.393,82.827,3.901l0.38,0.396c9.281-6.378,28.335,2.666,19.346,19.226L103.059,23.817L103.059,23.817z
	 M81.163,20.123l-0.968-1.175c1.031-3.044,0.189-6.401-1.094-8.103l1.431-3.335C83.628,12.063,82.469,17.479,81.163,20.123
	L81.163,20.123z M56.744,20.206l-0.969-1.176c1.031-3.062,0.19-6.422-1.094-8.121l1.452-3.337
	C59.209,12.148,58.07,17.542,56.744,20.206L56.744,20.206z M32.348,20.27l-0.97-1.175c1.054-3.064,0.21-6.401-1.095-8.101
	l1.453-3.339C34.81,12.21,33.673,17.625,32.348,20.27L32.348,20.27z M78.363,23.586c-5.156-6.485-4.021-14.566-0.547-19.833
	c-6.924-5.438-14.756-3.338-19.113-0.065c0.125,0.274,0.23,0.526,0.314,0.778c5.769-2.561,12.188-2.792,16.336,1.532
	c-4.168,7.43-3.264,13.116,0.547,19.204C76.766,24.656,77.564,24.11,78.363,23.586L78.363,23.586z M53.944,23.671
	c-5.135-6.507-3.999-14.587-0.546-19.834C46.514-1.62,38.683,0.479,34.326,3.753c0.126,0.272,0.21,0.544,0.295,0.797
	c5.768-2.582,12.188-2.813,16.335,1.532c-4.169,7.408-3.242,13.096,0.548,19.184C52.346,24.74,53.166,24.175,53.944,23.671
	L53.944,23.671z M29.547,23.732c-5.157-6.506-4.021-14.565-0.548-19.831c-6.904-5.438-14.735-3.36-19.093-0.064l0.4,0.671
	c5.79-2.581,12.104-2.707,16.251,1.638c-4.189,7.43-3.262,13.097,0.548,19.204C27.947,24.803,28.769,24.257,29.547,23.732
	L29.547,23.732z"/>
</svg>
