<?xml version="1.0" encoding="utf-8"?>
<!-- Generator: Adobe Illustrator 17.0.0, SVG Export Plug-In . SVG Version: 6.00 Build 0)  -->
<!DOCTYPE svg PUBLIC "-//W3C//DTD SVG 1.1//EN" "http://www.w3.org/Graphics/SVG/1.1/DTD/svg11.dtd">
<svg version="1.1" id="Layer_1" xmlns="http://www.w3.org/2000/svg" xmlns:xlink="http://www.w3.org/1999/xlink" x="0px" y="0px"
	 width="200px" height="99.708px" viewBox="0 0 200 99.708" enable-background="new 0 0 200 99.708" xml:space="preserve">
<g>
	<path fill-rule="evenodd" clip-rule="evenodd" d="M29.707,83.03c1.728,0.109,2.517,0.986,2.517,2.281
		c0,1.139-0.625,2.189-2.237,2.277c-1.627,0.086-5.419,0.096-7.114,0c-0.063-1.501-0.063-3.02,0-4.559
		C24.788,82.965,28.102,82.932,29.707,83.03 M30.009,91.067c2.391,0.071,3.585,1.083,3.585,2.644c0,1.625-1.059,2.487-3.491,2.604
		c-2.243,0.105-4.788,0.105-7.21,0c-0.091-1.782-0.091-3.424,0-5.248C25.219,91.005,27.903,91.005,30.009,91.067 M18.945,99.701
		c0.136-6.57,0.136-13.214,0-19.94c3.385,0.089,7.258,0.089,10.817,0c4.084,0,6.208,2.485,6.208,4.983
		c0,1.846-0.868,3.534-2.202,4.298c2.291,0.679,3.61,2.669,3.61,5.027c0,3.807-2.772,5.632-6.231,5.632H18.945z"/>
	<path fill-rule="evenodd" clip-rule="evenodd" d="M130.938,96.221c-0.046,1.145-0.046,2.304,0,3.48
		c-5.487-0.096-10.974-0.096-16.458,0c0.114-6.648,0.111-13.292-0.002-19.94c1.269,0.046,2.533,0.046,3.799,0
		c-0.109,5.487-0.109,10.974,0,16.46C122.495,96.302,126.718,96.302,130.938,96.221"/>
	<path fill-rule="evenodd" clip-rule="evenodd" d="M69.986,79.754c3.734,4.452,7.596,8.91,11.584,13.362
		c0.096-4.45,0.093-8.9-0.002-13.349c1.118,0.049,2.253,0.049,3.4,0c-0.098,6.568-0.098,13.213,0,19.936
		c-0.969-0.043-1.935-0.043-2.901,0.005c-3.89-4.657-7.946-9.369-12.169-14.132c-0.086,4.71-0.088,9.417-0.002,14.128
		c-1.092-0.043-2.225-0.043-3.398,0c0.086-6.643,0.086-13.29,0-19.934C67.66,79.811,68.823,79.807,69.986,79.754"/>
	<path fill-rule="evenodd" clip-rule="evenodd" d="M60.289,83.24c-4.329-0.099-8.703-0.099-13.133,0
		c-0.099,1.501-0.099,3.004,0,4.51c2.962,0.086,5.959,0.086,8.988,0c-0.045,1.155-0.045,2.316,0,3.473
		c-2.959-0.09-5.956-0.09-8.988,0c-0.088,1.665-0.088,3.33,0,4.995c4.452,0.088,8.908,0.088,13.357,0
		c-0.043,1.161-0.043,2.321,0,3.478c-5.716-0.095-11.435-0.095-17.152,0c0.103-6.644,0.103-13.291,0-19.936
		c5.709,0.094,11.349,0.094,16.927,0C60.241,80.922,60.241,82.079,60.289,83.24"/>
	<path fill-rule="evenodd" clip-rule="evenodd" d="M168.024,99.692c0.093-2.82,0.093-5.679,0-8.57
		c-2.928-3.783-5.984-7.57-9.165-11.356c1.559,0.047,3.118,0.047,4.677,0c2.005,2.575,4.132,5.148,6.382,7.721
		c2.24-2.573,4.369-5.146,6.383-7.721c1.559,0.047,3.118,0.047,4.674,0c-3.166,3.786-6.223,7.573-9.165,11.356
		c-0.093,2.856-0.093,5.715,0,8.57C170.549,99.65,169.288,99.65,168.024,99.692"/>
	<path fill-rule="evenodd" clip-rule="evenodd" d="M153.249,83.24c-4.326-0.099-8.703-0.099-13.131,0
		c-0.096,1.501-0.096,3.004,0,4.51c2.962,0.086,5.959,0.086,8.989,0c-0.048,1.155-0.048,2.316,0,3.473
		c-2.959-0.09-5.959-0.09-8.989,0c-0.088,1.665-0.088,3.33,0,4.995c4.452,0.088,8.905,0.088,13.358,0
		c-0.046,1.161-0.046,2.321,0,3.478c-5.717-0.095-11.438-0.095-17.154,0c0.104-6.644,0.104-13.291,0-19.936
		c5.709,0.094,11.352,0.094,16.927,0C153.203,80.922,153.203,82.079,153.249,83.24"/>
	<path fill-rule="evenodd" clip-rule="evenodd" d="M98.126,99.697c0.096-5.421,0.096-10.907,0-16.457
		c-2.364-0.104-4.755-0.104-7.174,0c0.043-1.148,0.043-2.309,0-3.479c6.047,0.099,12.096,0.099,18.145,0
		c-0.045,1.145-0.045,2.306,0,3.479c-2.391-0.092-4.783-0.092-7.177,0c-0.093,5.487-0.093,10.974,0,16.457
		C100.672,99.652,99.405,99.652,98.126,99.697"/>
	<path fill-rule="evenodd" clip-rule="evenodd" d="M0,5.787c0,0,1.483-1.738,1.909-2.222c0.429-0.484,0.742-0.858,1.027-1.14
		c0.285-0.285,0.613-0.356,0.883-0.328c0.272,0.028,3.179,0.341,3.96,0.429C8.564,2.608,12,2.767,13.365,2.767
		c1.37,0,4.97,0.008,5.729,0.008c0.759,0,6.478-0.323,7.75-0.419c1.274-0.096,8.577-0.189,10.343-0.217
		c1.768-0.028,9.947,0.285,11.97,0.399c2.023,0.114,7.58,0.399,9.432,0.343c1.852-0.058,10.6-0.429,12.338-0.429
		c1.738,0,7.21,0.343,8.433,0.54c1.226,0.202,2.651,0.656,2.651,0.656s2.336-0.941,3.534-1.337c1.196-0.401,4.331-1.284,6.725-1.652
		C94.662,0.285,97.228,0,99.763,0c2.538,0,6.155,0.285,8.635,0.83c2.477,0.54,5.328,1.392,6.412,1.821
		c1.083,0.429,3.391,1.481,3.391,1.481s1.682-0.512,3.105-0.825c1.426-0.315,3.618-0.656,4.871-0.739
		c1.256-0.088,2.253-0.202,3.792-0.172c1.539,0.028,5.217,0.398,6.241,0.512c1.024,0.113,3.449,0.398,5.953,0.371
		c1.682-0.017,7.099-0.257,8.665-0.343c1.567-0.086,10.968-0.512,12.906-0.54c1.94-0.03,10.431,0.484,12.142,0.568
		c1.71,0.088,5.298,0.257,6.41,0.23c1.112-0.03,4.846-0.202,6.726-0.399c1.879-0.199,5.913-0.532,6.597-0.573
		c0.757-0.04,1.082-0.04,1.211,0.045c0.128,0.086,1.312,1.223,1.796,1.766c0.485,0.543,0.969,1.211,1.153,1.425
		c0.186,0.215,0.269,0.3,0.214,0.411c-0.055,0.116-0.399,0.714-0.527,0.87c-0.129,0.159-0.242,0.23-0.399,0.313
		c-0.156,0.088-1.824,0.926-2.366,1.155c-0.54,0.227-1.965,0.825-1.965,0.825s0.414,0.969,0.568,1.398
		c0.159,0.426,0.386,1.297,0.386,1.569c0,0.27,0.028,0.88-0.043,0.923c-0.07,0.045-0.911,0.53-1.239,0.671
		c-0.328,0.141-1.567,0.656-2.109,0.8c-0.54,0.139-1.552,0.411-1.552,0.411s0.071,0.767,0.043,1.238
		c-0.03,0.469-0.03,1.014-0.144,1.499c-0.099,0.421-0.427,0.981-0.626,1.238c-0.202,0.257-0.643,0.499-0.956,0.653
		c-0.262,0.131-1.327,0.457-1.852,0.557c-0.527,0.099-1.254,0.215-1.567,0.242c-0.315,0.028-0.573,0.028-0.573,0.028
		s-0.028,0.928-0.07,1.34c-0.04,0.414-0.184,1.14-0.282,1.453c-0.104,0.315-0.386,0.87-0.687,1.125
		c-0.298,0.257-0.512,0.414-1.024,0.527c-0.512,0.116-1.183,0.27-1.826,0.343c-0.638,0.071-1.865,0.212-2.278,0.242
		c-0.414,0.028-0.843,0.043-0.843,0.043s-0.313,1.153-0.439,1.511c-0.129,0.353-0.515,1.125-0.785,1.509
		c-0.269,0.386-0.741,0.926-0.984,1.14c-0.242,0.215-0.626,0.485-0.81,0.54c-0.187,0.058-1.082,0.101-1.511,0.101
		c-0.429,0-1.723,0-2.366-0.043c-0.641-0.043-1.339-0.113-1.778-0.156c-0.374-0.035-0.671-0.113-0.671-0.113
		s-0.144,0.883-0.187,1.113c-0.043,0.227-0.199,0.782-0.368,1.196c-0.172,0.411-0.386,0.726-0.573,0.911
		c-0.172,0.171-0.348,0.373-0.881,0.484c-0.542,0.116-1.057,0.144-1.382,0.156c-0.328,0.015-2.409,0.071-2.964,0.071
		c-0.558,0-1.625-0.013-2.01-0.028c-0.383-0.013-0.981,0-0.981,0s-0.157,0.656-0.272,1.027c-0.111,0.371-0.356,0.984-0.497,1.254
		c-0.142,0.272-0.336,0.618-0.57,0.84c-0.257,0.242-0.358,0.401-0.828,0.457c-0.471,0.055-1.054,0.099-1.622,0.086
		c-0.573-0.015-1.826-0.086-2.409-0.172c-0.585-0.086-1.781-0.315-2.124-0.414c-0.343-0.098-0.699-0.255-0.699-0.255
		s-0.212,0.656-0.383,0.954c-0.172,0.3-0.54,0.888-0.784,1.082c-0.298,0.242-0.626,0.656-1.183,0.726
		c-0.555,0.073-1.11-0.028-1.579-0.098c-0.471-0.071-1.496-0.298-1.937-0.414c-0.444-0.114-1.556-0.442-1.808-0.512
		c-0.26-0.071-0.573-0.202-0.573-0.202s-0.303,0.603-0.512,0.87c-0.199,0.257-0.555,0.671-0.825,0.883
		c-0.272,0.214-0.757,0.53-0.984,0.557c-0.227,0.028-0.598,0-1.085-0.071c-0.484-0.073-1.067-0.245-1.564-0.401
		c-0.5-0.156-0.913-0.343-0.913-0.343s-0.54,1.569-0.684,1.925c-0.144,0.356-0.84,1.811-1.1,2.295
		c-0.214,0.411-1.37,2.291-1.723,2.805c-0.426,0.628-2.134,2.78-2.548,3.191c-0.414,0.414-0.999,1.042-1.37,1.425
		c-0.368,0.383-1.937,1.781-2.777,2.452c-0.843,0.668-2.367,1.781-3.547,2.508c-1.186,0.726-3.335,1.88-4.276,2.308
		c-0.939,0.427-2.023,0.868-2.023,0.868s-0.429,0.813-0.653,1.327c-0.227,0.511-0.643,1.294-0.745,1.435
		c-0.098,0.145-0.285,0.187-0.497,0.116c-0.215-0.07-1.241-0.456-1.625-0.597c-0.383-0.145-1.239-0.5-1.239-0.5
		s-0.57,0.84-0.772,1.154c-0.199,0.315-0.754,1.155-0.852,1.253c-0.101,0.101-0.315,0.061-0.441,0.016
		c-0.127-0.043-1.239-0.653-1.468-0.785c-0.227-0.125-1.183-0.684-1.183-0.684s-0.54,0.656-0.825,1.042
		c-0.23,0.311-1.014,1.212-1.084,1.282c-0.071,0.071-0.184,0.058-0.353-0.012c-0.172-0.071-0.5-0.346-0.87-0.616
		c-0.371-0.27-0.999-0.769-1.198-0.895c-0.199-0.129-0.383-0.3-0.383-0.3s-0.711,0.698-0.969,0.94
		c-0.257,0.242-0.883,0.855-0.969,0.94c-0.086,0.083-0.242,0.228-0.242,0.228s-0.129,0.098-0.3,0.015
		c-0.169-0.086-0.895-0.769-1.211-1.069c-0.257-0.245-0.999-0.981-0.999-0.981s-0.895,0.653-1.196,0.868
		c-0.3,0.212-1.097,0.84-1.238,0.91c-0.141,0.071-0.343,0.043-0.457-0.111c-0.114-0.159-0.969-1.143-1.125-1.342
		c-0.156-0.199-0.699-0.84-0.699-0.84s-1.055,0.57-1.481,0.785c-0.429,0.215-1.07,0.638-1.183,0.684
		c-0.116,0.043-0.371,0.043-0.456-0.101c-0.084-0.144-0.638-0.938-0.855-1.253c-0.242-0.357-0.741-1.126-0.741-1.126
		s-0.969,0.356-1.309,0.5c-0.341,0.141-1.367,0.541-1.552,0.582c-0.187,0.043-0.456-0.005-0.53-0.141
		c-0.099-0.187-0.797-1.526-0.941-1.852c-0.141-0.33-0.368-0.815-0.368-0.815s-1.148-0.455-1.894-0.797
		c-0.813-0.371-2.55-1.224-3.277-1.625c-0.727-0.395-1.937-1.122-2.664-1.624c-0.726-0.499-2.394-1.723-3.05-2.293
		c-0.656-0.568-2.878-2.777-3.405-3.375c-0.527-0.598-1.367-1.612-2.081-2.578c-0.712-0.971-1.226-1.867-1.723-2.808
		c-0.499-0.941-0.883-1.723-1.339-2.85c-0.457-1.125-0.84-2.167-0.954-2.548c-0.116-0.386-0.144-0.545-0.144-0.545
		s-1.297,0.429-2.207,0.643c-0.913,0.212-1.94,0.512-2.866,0.457c-0.923-0.058-1.095-0.202-1.324-0.386
		c-0.227-0.184-0.512-0.515-0.827-0.956c-0.313-0.439-0.611-1.024-0.611-1.024s-1.425,0.356-1.98,0.484
		c-0.555,0.129-1.867,0.386-2.651,0.484c-0.782,0.101-1.695,0.199-2.152,0.144c-0.454-0.061-0.777-0.237-1.183-0.585
		c-0.426-0.371-0.568-0.598-0.782-0.898c-0.167-0.232-0.583-1.042-0.671-1.239c-0.083-0.199-0.141-0.457-0.141-0.457
		s-1.637,0.028-2.066,0.028c-0.429,0-2.679-0.012-3.136-0.028c-0.454-0.012-1.68-0.101-2.18-0.199
		c-0.497-0.101-0.81-0.187-1.281-0.815c-0.469-0.623-0.598-0.923-0.782-1.42c-0.187-0.499-0.33-1.057-0.33-1.057
		s-1.438-0.015-2.208-0.098c-0.769-0.088-2.366-0.27-3.234-0.414c-0.87-0.141-2.192-0.371-2.55-0.499
		c-0.356-0.126-0.555-0.429-0.868-0.769c-0.315-0.343-0.628-0.797-0.913-1.223c-0.285-0.429-0.87-1.299-0.926-1.425
		c-0.055-0.129-0.141-0.27-0.141-0.27s-1.484-0.144-2.137-0.229c-0.659-0.083-1.612-0.242-2.054-0.326
		c-0.442-0.088-1.594-0.303-1.852-0.429c-0.255-0.128-0.469-0.229-0.699-0.684c-0.227-0.457-0.381-1.362-0.57-2.139
		c-0.197-0.81-0.328-1.466-0.328-1.466s-1.196-0.313-2.152-0.57c-0.953-0.257-1.223-0.343-1.882-0.54
		c-0.653-0.202-1.282-0.444-1.65-0.686c-0.371-0.242-0.358-0.699-0.398-0.954c-0.043-0.257-0.144-1.342-0.171-1.655
		c-0.03-0.313-0.015-0.996-0.015-0.996s-2.379-1.097-2.992-1.367c-0.613-0.272-2.066-0.969-2.366-1.11
		c-0.298-0.144-0.255-0.457-0.212-0.699c0.04-0.242,0.242-1.211,0.343-1.683c0.098-0.469,0.255-1.238,0.285-1.339
		c0.028-0.099,0.04-0.197,0.04-0.197S3.504,8.622,2.936,8.322c-0.57-0.3-2.18-1.11-2.394-1.241C0.328,6.955,0.245,6.698,0.144,6.342
		C0.043,5.986,0,5.787,0,5.787"/>
	<path fill-rule="evenodd" clip-rule="evenodd" fill="#FFFFFF" d="M75.712,20.133c0.23-2.631,3.537-5.575,3.057-8.252
		c-0.378-2.119-2.997-3.915-5.628-4.326c-1.514-0.237-6.488-0.608-7.573-0.643c-1.337-0.043-4.942-0.113-6.069-0.129
		c-1.125-0.012-4.104-0.03-4.985-0.058c-0.886-0.028-1.98-0.043-3.393-0.285c-1.428-0.245-2.44-0.542-3.847-0.969
		c-1.41-0.426-2.533-0.77-3.645-1.012c-1.112-0.242-2.522-0.469-3.491-0.555c-0.971-0.086-2.878-0.227-4.316-0.255
		c-1.44-0.028-4.987,0-6.13,0.013c-1.138,0.015-4.672,0.141-5.598,0.141c-0.926,0-1.925-0.013-2.364,0.015
		c-0.442,0.028-0.343,0.242-0.542,0.27c-0.202,0.03-1.282,0-1.895,0c-0.613,0-1.07-0.028-1.284-0.043
		c-0.215-0.013-0.527-0.013-0.527-0.013s-0.04,0.2,0.174,0.255c0.212,0.058,0.754,0.101,0.939,0.116
		c0.184,0.015,1.637,0.114,2.149,0.141c0.517,0.028,1.398,0.028,1.955,0.073c0.555,0.043,1.551,0.043,2.207,0.055
		c0.656,0.015,3.305,0,4.273,0.028c0.969,0.03,2.795,0.03,3.691,0.058c0.898,0.028,3.022,0.114,4.69,0.315
		c1.667,0.197,3.02,0.396,4.7,0.797c1.605,0.381,3.507,0.981,4.432,1.266c0.926,0.285,2.21,0.628,2.876,0.769
		c0.671,0.144,1.271,0.187,1.44,0.331c0.171,0.139,0.171,0.297,0.073,0.512c-0.101,0.214-0.187,0.285-0.257,0.484
		C50.75,9.435,50.68,9.591,50.68,9.591h-0.598c0,0,0.114-0.114,0.129-0.242c0.013-0.129-0.34-0.343-0.714-0.414
		c-0.368-0.073-2.064-0.227-2.505-0.285c-0.444-0.058-2.124-0.215-3.037-0.202c-0.911,0.018-4.473-0.028-5.386,0
		c-0.911,0.033-4.243-0.04-5.086-0.013c-0.84,0.03-3.774,0-4.574-0.015c-0.797-0.013-2.651-0.013-3.391-0.013
		c-0.741,0-3.249,0-4.132-0.015c-0.883-0.015-3.905-0.086-4.488-0.07c-0.585,0.015-2.237-0.043-3.062-0.055
		c-0.827-0.015-3.663-0.101-4.432-0.101c-0.767,0-1.736-0.058-2.038-0.141C7.068,7.936,5.444,7.096,4.79,6.771
		C4.132,6.44,2.894,5.802,2.55,5.63C2.21,5.459,1.882,5.229,1.781,5.187C1.682,5.146,1.226,5.588,1.1,5.757
		c-0.129,0.171-0.358,0-0.358,0S2.308,4.018,2.623,3.65c0.313-0.371,0.699-0.87,0.868-0.926C3.663,2.666,4.346,2.666,4.76,2.709
		c0.414,0.043,3.047,0.27,3.562,0.313c0.512,0.043,2.75,0.114,3.347,0.144c0.6,0.028,3.433,0.043,4.374,0.071
		c0.941,0.028,3.89,0.098,4.773,0.055c0.883-0.043,3.332-0.27,4.089-0.313c0.757-0.043,3.136-0.214,4.246-0.242
		c1.112-0.028,3.391-0.013,4.117-0.056c0.727-0.045,3.605-0.073,4.604-0.073c0.996,0,3.804,0.116,4.758,0.144
		c0.956,0.028,5.045,0.242,6.112,0.297c1.067,0.058,6.37,0.242,7.538,0.27c1.168,0.028,2.906,0.088,3.832,0.028
		c0.928-0.055,5.371-0.255,6.725-0.298c1.352-0.043,4.901-0.098,6.342-0.055c1.438,0.04,4.899,0.386,6.069,0.527
		c1.168,0.141,2.321,0.441,2.649,0.454c0.328,0.015,0.855,0.043,1.04,0.215c0.187,0.171,0.358,0.555,0.714,0.769
		c0.353,0.215,0.853,0.298,1.024,0.527c0.172,0.227,0.187,0.699,0.285,0.898c0.101,0.199,0.515,0.853,0.57,1.297
		c0.058,0.442,0,1.211-0.283,1.695c-0.288,0.484-0.759,1.07-1.284,1.61c-0.527,0.542-1.324,1.128-2.023,1.726
		c-0.699,0.598-1.882,1.524-2.493,2.364c-0.615,0.84-0.996,1.413-1.128,2.25c-0.126,0.842-0.055,1.342-0.098,1.483
		c-0.045,0.144-0.171,0.497-0.371,0.711c-0.2,0.215-1.067,1.226-1.383,1.64c-0.313,0.414-0.84,1.183-0.969,1.382
		c-0.129,0.197-0.242,0.411-0.242,0.411l-0.199-0.341c0,0,0.436-0.524,0.479-0.653C75.702,21.765,75.624,21.157,75.712,20.133"/>
	<path fill-rule="evenodd" clip-rule="evenodd" fill="#FFFFFF" d="M6.556,10.26l0.098-0.527c0,0,1.453-0.012,1.895,0.015
		c0.442,0.028,3.093,0.113,4.019,0.113c0.926,0,3.804,0.086,4.5,0.058c0.699-0.03,4.589,0.055,5.431,0.055
		c0.84,0,4.914,0.015,5.754,0.03c0.842,0.013,5.499,0.04,6.226,0.04c0.726,0,4.561,0,5.459,0.015
		c0.896,0.013,4.743-0.028,5.613-0.028c0.868,0,3.093,0.04,3.577,0.028c0.484-0.015,0.868-0.055,0.969-0.086
		c0.098-0.028,0.411-0.156,0.598-0.071c0.187,0.086,0.27,0.3,0.356,0.411c0.086,0.116,0.257,0.245,0.356,0.315
		c0.099,0.071,0.3,0.171,0.429,0.343c0.126,0.171,0.126,0.171,0.328,0.325c0.2,0.159,0.242,0.229,0.171,0.315
		c-0.07,0.086-0.373,0.469-0.499,0.669c-0.129,0.199-0.171,0.414-0.242,0.469c-0.073,0.061-0.499,0.101-0.499,0.101
		s0.257-0.184,0.214-0.356c-0.045-0.169-0.343-0.555-0.954-0.598c-0.615-0.043-2.139,0.098-2.823,0.169
		c-0.684,0.073-5.217,0.469-6.014,0.542c-0.797,0.071-7.079,0.515-8.148,0.598c-1.069,0.086-6.039,0.386-6.995,0.457
		c-0.953,0.071-4.674,0.257-5.827,0.325c-1.156,0.073-3.819,0.187-4.831,0.23c-1.009,0.046-3.02,0.086-3.391,0.058
		c-0.371-0.028-0.87-0.242-1.125-0.356c-0.257-0.113-1.867-0.84-2.321-1.042c-0.456-0.2-1.256-0.525-1.397-0.712
		c-0.144-0.187-0.071-0.484-0.071-0.711c0-0.23-0.017-0.527-0.272-0.741C6.882,10.502,6.556,10.26,6.556,10.26"/>
	<path fill-rule="evenodd" clip-rule="evenodd" fill="#FFFFFF" d="M11.556,16.415v-0.398c0,0,0.671,0,1.024-0.058
		c0.358-0.056,1.768-0.056,2.707-0.099c0.941-0.045,4.617-0.202,5.772-0.27c1.183-0.073,6.428-0.358,7.409-0.429
		c0.984-0.071,7.906-0.543,8.875-0.628c0.969-0.084,6.685-0.54,7.583-0.611c0.895-0.073,3.89-0.386,4.957-0.472
		c1.07-0.086,1.226-0.227,1.398-0.242c0.172-0.013,0.298-0.114,0.469,0.086c0.169,0.199,0.527,0.6,0.741,0.742
		c0.215,0.144,0.883,0.57,0.898,0.782c0.013,0.215-0.187,0.484-0.288,0.684c-0.099,0.202-0.099,0.6-0.099,0.6l-0.684,0.126
		c0,0,0.055-0.154,0.073-0.255c0.01-0.099-0.103-0.371-0.386-0.484c-0.285-0.114-0.757-0.199-1.226-0.099
		c-0.469,0.099-2.608,0.469-3.479,0.611c-0.868,0.144-5.911,0.984-7.136,1.183c-1.226,0.199-6.07,0.941-7.225,1.097
		c-1.153,0.156-5.625,0.741-7.192,0.895c-1.569,0.159-3.451,0.343-4.503,0.401c-1.054,0.055-2.124,0.156-2.894,0.071
		c-0.769-0.086-2.465-0.613-3.206-0.797c-0.739-0.187-1.852-0.512-2.038-0.699c-0.184-0.187-0.285-0.383-0.341-0.61
		c-0.055-0.23-0.414-0.714-0.6-0.8C11.985,16.657,11.556,16.415,11.556,16.415"/>
	<path fill-rule="evenodd" clip-rule="evenodd" fill="#FFFFFF" d="M17.868,21.445c0,0,0.285,0.043,0.598,0
		c0.315-0.043,0.585-0.187,0.956-0.199c0.368-0.015,1.481-0.058,2.094-0.086c0.613-0.028,2.406-0.2,3.035-0.257
		c0.626-0.058,3.605-0.356,4.574-0.484c0.969-0.129,6.281-0.883,7.167-1.009c0.883-0.131,5.328-0.8,6.539-1.014
		c1.211-0.212,5.272-0.926,6.312-1.125c1.039-0.2,2.293-0.399,2.765-0.497c0.469-0.103,0.785-0.315,1.042-0.242
		c0.255,0.068,0.525,0.27,0.853,0.424c0.328,0.159,0.827,0.315,1.097,0.414c0.27,0.101,0.527,0.242,0.555,0.343
		c0.028,0.101,0,0.5-0.113,0.696c-0.114,0.202-0.184,0.358-0.227,0.585c-0.045,0.23-0.058,0.416-0.058,0.416l-0.641,0.227
		c0,0,0.099-0.288,0-0.429c-0.101-0.144-0.457-0.399-0.641-0.371c-0.187,0.028-0.472,0.043-0.77,0.144
		c-0.297,0.099-4.147,1.254-4.76,1.425l-4.589,1.266c-0.568,0.159-4.188,1.067-5.212,1.282c-1.027,0.215-4.816,0.984-5.757,1.156
		c-0.941,0.171-4.503,0.628-5.414,0.684c-0.913,0.058-1.07,0.086-1.796,0.043c-0.727-0.043-2.094-0.215-2.964-0.341
		c-0.868-0.129-1.809-0.315-2.137-0.386c-0.328-0.071-0.64-0.129-0.784-0.512c-0.141-0.386-0.126-0.671-0.368-0.941
		c-0.242-0.27-0.543-0.543-0.742-0.628c-0.199-0.086-0.515-0.084-0.558-0.184C17.853,21.672,17.868,21.445,17.868,21.445"/>
	<path fill-rule="evenodd" clip-rule="evenodd" fill="#FFFFFF" d="M25.534,26.644c0,0,2.593-0.27,3.176-0.356
		c0.585-0.086,4.574-0.656,5.53-0.855c0.953-0.2,5.07-1.095,5.812-1.267c0.742-0.171,5.245-1.342,6.14-1.584
		c0.898-0.242,3.918-1.095,4.73-1.352c0.812-0.255,3.221-0.981,3.491-1.097c0.27-0.114,0.54-0.313,0.812-0.285
		s1.054,0.27,1.339,0.356c0.285,0.086,1.024,0.215,1.156,0.343c0.126,0.126,0.181,0.242,0.154,0.441
		c-0.028,0.202-0.015,1.254,0,1.367c0.015,0.116,0.288,0.343,0.288,0.343l-0.684,0.27c-0.144,0.058-0.457,0.172-0.457,0.172
		s0.071-0.3,0.028-0.386c-0.043-0.083-0.431-0.315-0.542-0.341c-0.129-0.03-0.242,0-0.543,0.099
		c-0.297,0.101-1.067,0.444-1.45,0.615c-0.386,0.169-2.664,1.067-3.348,1.337c-0.686,0.27-3.448,1.324-4.334,1.64
		c-0.883,0.313-4.899,1.695-5.641,1.922c-0.741,0.229-3.378,0.968-4.003,1.125c-0.628,0.156-0.928,0.288-1.44,0.315
		c-0.512,0.028-2.508-0.144-3.335-0.257c-0.825-0.114-3.148-0.457-3.461-0.558c-0.313-0.098-0.512-0.227-0.699-0.439
		c-0.184-0.215-0.341-0.371-0.653-0.543c-0.315-0.169-0.684-0.356-0.941-0.457c-0.255-0.098-0.371-0.141-0.542-0.212
		c-0.169-0.073-0.356-0.088-0.457-0.159C25.562,26.775,25.534,26.644,25.534,26.644"/>
	<path fill-rule="evenodd" clip-rule="evenodd" fill="#FFFFFF" d="M36.263,31.132c0,0,0.838-0.199,1.082-0.313
		c0.24-0.113,1.594-0.524,2.023-0.64c0.429-0.114,1.952-0.527,2.591-0.742c0.644-0.214,3.633-1.238,4.221-1.438
		c0.583-0.199,4.145-1.539,4.843-1.809c0.699-0.27,4.66-1.894,5.227-2.124c0.573-0.227,1.14-0.469,1.339-0.6
		c0.202-0.126,0.84-0.439,1.143-0.512c0.297-0.071,0.895-0.169,1.165-0.154c0.272,0.013,0.472-0.015,0.585,0.111
		c0.114,0.131,0.159,0.3,0.141,0.514c-0.015,0.212,0.058,0.754,0.3,0.939c0.242,0.187,0.613,0.358,1.027,0.457
		c0.414,0.098,0.81,0.159,0.954,0.171c0.141,0.015,0.242,0,0.242,0s-0.81,0.482-1.012,0.585l-1.054,0.525
		c0,0-0.071-0.212-0.169-0.255c-0.101-0.043-0.484-0.043-0.8-0.015c-0.313,0.028-0.626,0.144-0.911,0.313
		c-0.288,0.171-3.022,1.625-3.562,1.91c-0.543,0.285-4.733,2.467-5.3,2.724c-0.57,0.255-3.262,1.579-3.706,1.778
		c-0.441,0.202-0.699,0.373-1.113,0.414c-0.414,0.043-1.352,0.058-2.192,0.071c-0.84,0.015-2.492-0.028-3.007-0.055
		c-0.512-0.028-1.254-0.045-1.652-0.199c-0.399-0.159-0.457-0.373-0.699-0.656c-0.242-0.285-0.711-0.555-0.926-0.626
		c-0.215-0.073-0.545-0.096-0.684-0.061C36.303,31.46,36.263,31.132,36.263,31.132"/>
	<path fill-rule="evenodd" clip-rule="evenodd" fill="#FFFFFF" d="M46.008,34.581c0,0,3.262-1.64,3.759-1.852
		c0.502-0.214,5.373-2.707,5.999-3.05c0.628-0.343,4.19-2.293,4.96-2.72c0.769-0.429,1.836-0.999,2.008-1.112
		c0.172-0.113,0.3-0.285,0.515-0.358c0.212-0.071,0.356-0.099,0.356-0.099s0.3,0.401,0.469,0.613
		c0.171,0.212,0.558,0.598,0.984,0.656c0.426,0.058,0.641,0.071,0.911,0.04c0.27-0.028,0.741-0.126,0.741-0.126
		s-1.181,1.14-1.395,1.309c-0.215,0.172-2.808,2.296-3.32,2.752c-0.512,0.456-2.394,1.922-2.823,2.265
		c-0.426,0.341-1.794,1.355-2.091,1.509c-0.303,0.159-1.057,0.442-1.529,0.573c-0.469,0.126-2.636,0.583-3.418,0.739
		c-0.782,0.156-2.465,0.444-2.79,0.457c-0.33,0.015-0.8,0.015-1.085-0.288c-0.285-0.297-0.441-0.739-0.812-0.923
		c-0.371-0.187-0.625-0.305-0.883-0.272C46.049,34.764,46.008,34.581,46.008,34.581"/>
	<path fill-rule="evenodd" clip-rule="evenodd" fill="#FFFFFF" d="M55.48,36.49c0,0,1.768-1.297,2.155-1.612
		c0.381-0.313,1.978-1.564,2.407-1.907c0.429-0.343,2.305-1.867,2.878-2.336c0.57-0.472,2.278-1.925,2.722-2.324
		c0.442-0.398,1.322-1.254,1.322-1.254s0.06,0.343,0.214,0.469c0.159,0.131,0.373,0.401,0.742,0.555
		c0.371,0.159,0.883,0.187,1.256,0.171c0.368-0.013,0.724-0.055,0.868-0.055c0.144,0,0.371,0.07,0.386,0.313
		c0.013,0.242,0.028,0.414,0.028,0.527c0,0.116,0.055,0.214,0.055,0.214l-2.621,2.906c-0.512,0.57-1.996,2.164-2.465,2.649
		c-0.472,0.484-1.667,1.781-1.808,1.897c-0.144,0.113-0.563,0.023-0.815-0.129c-0.326-0.199-0.626-0.043-1.024,0.058
		c-0.401,0.099-1.112,0.313-1.582,0.426c-0.408,0.098-1.554,0.356-1.852,0.356c-0.297,0-0.628-0.028-0.812-0.227
		c-0.184-0.2-0.598-0.643-0.812-0.742c-0.214-0.101-0.472-0.172-0.583-0.101C56.023,36.419,55.566,36.689,55.48,36.49"/>
	<path fill-rule="evenodd" clip-rule="evenodd" fill="#FFFFFF" d="M64.103,37.06c0,0,1.708-1.809,2.094-2.207
		c0.383-0.401,2.452-2.636,2.894-3.121c0.439-0.484,1.196-1.385,1.38-1.612c0.187-0.227,0.328-0.383,0.414-0.383
		c0.086,0,0.57-0.028,0.954-0.101c0.386-0.071,0.971-0.197,1.11-0.156c0.144,0.043,0.144,0.156,0.159,0.272
		c0.015,0.111,0.028,1.352,0.043,1.751c0.013,0.401,0.013,1.269-0.071,1.584c-0.086,0.313-1.027,2.149-1.241,2.649
		c-0.212,0.499-0.828,1.61-0.911,1.824c-0.086,0.212-0.141,0.27-0.214,0.341c-0.071,0.073-0.232-0.182-0.457-0.454
		c-0.313-0.386-0.638-0.33-0.969-0.242c-0.326,0.083-2.164,0.568-2.492,0.638c-0.328,0.073-0.898,0.23-1.198,0.171
		c-0.297-0.055-0.441-0.255-0.583-0.497c-0.144-0.242-0.323-0.401-0.527-0.401C64.259,37.116,64.103,37.06,64.103,37.06"/>
	<path fill-rule="evenodd" clip-rule="evenodd" fill="#FFFFFF" d="M72.438,35.779c0,0,0.426-1.011,0.524-1.198
		c0.104-0.187,0.242-0.484,0.242-0.484s0.116,0.527,0.214,0.769c0.101,0.242,0.348,0.505,0.429,0.782
		c0.061,0.209,0.484,1.299,0.555,1.468c0.071,0.171,0.2,0.442,0.156,0.6c-0.04,0.156-0.028,0.285,0.03,0.426
		c0.055,0.141,0.109,0.275,0.013,0.313c-0.144,0.058-0.442,0.272-0.54,0.313c-0.101,0.043-0.343,0.03-0.484-0.182
		c-0.088-0.131-0.444-0.159-0.727-0.386c-0.285-0.23-0.257-0.371-0.242-0.6c0.012-0.225,0.141-1.082,0.071-1.266
		C72.609,36.149,72.438,35.779,72.438,35.779"/>
	<path fill-rule="evenodd" clip-rule="evenodd" fill="#FFFFFF" d="M63.775,39.255c0,0,0.527,0.669,0.87,0.656
		c0.341-0.015,0.454-0.101,0.595-0.144c0.144-0.043,0.457-0.055,0.585,0.013c0.129,0.071,0.315,0.3,0.3,0.515
		c-0.015,0.214,0.116,0.666,0.27,1.011c0.187,0.414,0.913,1.894,1.34,2.593c0.426,0.699,1.665,2.465,2.192,3.105
		c0.53,0.643,2.283,2.553,2.737,2.949c0.454,0.401,2.765,2.324,3.592,2.878c0.825,0.555,2.79,1.827,3.988,2.422
		c1.196,0.6,2.679,1.296,3.063,1.441c0.383,0.144,0.641,0.183,0.711,0.297c0.073,0.117,0.199,0.23,0.199,0.23l-0.439,0.726
		l-0.386,0.614l-0.325-0.157c0,0,0.24-0.201,0.154-0.37c-0.086-0.172-0.187-0.344-0.457-0.487c-0.27-0.141-1.438-0.639-1.953-0.881
		c-0.512-0.241-2.762-1.467-3.559-1.98c-0.8-0.515-2.765-1.866-3.693-2.623c-0.923-0.755-2.934-2.72-3.602-3.461
		c-0.669-0.742-2.066-2.578-2.495-3.237c-0.426-0.653-1.637-2.848-1.895-3.433c-0.257-0.583-0.398-0.969-0.641-1.196
		c-0.242-0.227-0.313-0.27-0.414-0.285c-0.099-0.013-0.353-0.043-0.353-0.043s-0.073-0.172-0.202-0.557
		C63.858,39.55,63.775,39.255,63.775,39.255"/>
	<path fill-rule="evenodd" clip-rule="evenodd" fill="#FFFFFF" d="M66.252,39.681c0,0,0.484-0.028,0.87-0.184
		c0.383-0.156,1.44-0.457,1.867-0.57c0.426-0.116,0.926-0.328,1.14-0.386c0.215-0.055,0.371-0.126,0.497-0.099
		c0.131,0.028,0.202,0.099,0.341,0.298c0.144,0.202,0.318,0.623,0.499,0.77c0.215,0.171,0.502,0.429,0.898,0.386
		c0.401-0.043,0.8-0.086,1.128-0.227c0.326-0.144,0.941-0.542,1.082-0.615c0.141-0.071,0.343-0.227,0.414-0.154
		c0.071,0.071,0.171,0.2,0.27,0.227c0.101,0.028,0.242,0.156,0.297,0.257c0.058,0.099,0.941,1.41,1.425,1.993
		c0.484,0.583,1.183,1.355,1.667,1.824c0.484,0.472,1.895,1.695,2.45,2.094c0.558,0.401,2.182,1.483,2.909,1.867
		c0.727,0.386,1.61,0.855,2.324,1.156c0.711,0.3,1.465,0.598,1.667,0.696c0.197,0.101,0.27,0.199,0.411,0.315
		c0.144,0.114,0.227,0.257,0.171,0.399c-0.058,0.141-0.812,1.325-1.14,1.925c-0.328,0.598-0.926,1.552-1.168,1.98
		c-0.242,0.427-0.883,1.468-1.069,1.81c-0.187,0.342-0.671,1.125-0.699,1.21c-0.028,0.083-0.154,0.071-0.199,0
		c-0.043-0.071,0.172-0.3,0.172-0.582c0-0.286-0.172-0.687-0.328-0.843c-0.156-0.157-0.626-0.383-0.883-0.5
		c-0.257-0.113-1.509-0.711-2.137-1.039c-0.626-0.328-1.895-1.054-2.722-1.596c-0.825-0.54-1.937-1.282-2.651-1.864
		c-0.712-0.585-1.723-1.453-2.349-2.066c-0.628-0.613-1.668-1.766-2.324-2.624c-0.656-0.852-1.496-2.008-1.953-2.82
		c-0.454-0.812-0.926-1.824-1.08-1.995c-0.159-0.169-0.386-0.439-0.714-0.54c-0.328-0.098-0.515-0.171-0.656-0.187
		c-0.144-0.013-0.398-0.013-0.429-0.126C66.224,39.752,66.252,39.681,66.252,39.681"/>
	<path fill-rule="evenodd" clip-rule="evenodd" fill="#FFFFFF" d="M51.777,8.393c0,0,2.664-0.013,3.448,0
		c0.782,0.015,3.05,0.015,3.292,0.015c0.242,0,0.555,0.099,0.684,0.114l0.242,0.03c0,0,0.114,0.255,0.028,0.341
		c-0.086,0.083-0.184,0.371-0.255,0.54c-0.073,0.171-0.015,0.358-0.116,0.386c-0.099,0.028-0.555,0.086-0.555,0.086
		s0.071-0.214-0.055-0.3c-0.131-0.083-0.457-0.199-0.726-0.184c-0.275,0.012-1.627,0.144-2.053,0.184
		c-0.429,0.043-1.64,0.202-1.882,0.242c-0.242,0.043-0.512,0-0.696-0.07c-0.187-0.073-0.842-0.343-1.027-0.484
		c-0.184-0.144-0.272-0.199-0.341-0.215l-0.272-0.055l0.129-0.343C51.664,8.564,51.777,8.393,51.777,8.393"/>
	<path fill-rule="evenodd" clip-rule="evenodd" fill="#FFFFFF" d="M52.562,12.169c0,0,0.255-0.401,0.341-0.456
		c0.086-0.056,0.726-0.257,0.984-0.325c0.257-0.073,1.468-0.358,2.01-0.484c0.54-0.131,1.579-0.315,2.064-0.444
		s0.941-0.285,1.085-0.285c0.141,0,0.383,0.07,0.54,0.187c0.159,0.114,0.472,0.341,0.628,0.469c0.156,0.129,0.313,0.343,0.27,0.454
		c-0.04,0.116-0.113,0.202-0.199,0.315c-0.083,0.114-0.055,0.169-0.083,0.3c-0.033,0.126-0.033,0.341-0.033,0.341
		s-0.424,0.129-0.497,0.144c-0.071,0.013-0.184,0.043-0.184,0.043s0.114-0.3,0.028-0.356c-0.086-0.058-0.398-0.288-0.711-0.315
		c-0.315-0.028-1.211,0.242-1.514,0.343c-0.297,0.098-1.423,0.398-1.849,0.527c-0.429,0.126-0.813,0.313-1.156,0.285
		c-0.341-0.03-0.641-0.171-0.941-0.313c-0.297-0.144-0.368-0.202-0.469-0.257C52.776,12.283,52.562,12.169,52.562,12.169"/>
	<path fill-rule="evenodd" clip-rule="evenodd" fill="#FFFFFF" d="M53.715,15.189c0,0,0.028-0.242,0.159-0.341
		c0.126-0.101,0.469-0.184,0.638-0.272c0.171-0.086,0.699-0.257,1.254-0.454c0.558-0.199,1.597-0.515,2.038-0.641
		c0.444-0.131,1.397-0.429,1.64-0.527c0.242-0.101,0.542-0.285,0.785-0.27c0.242,0.013,0.696,0.111,0.954,0.212
		c0.257,0.101,0.527,0.212,0.57,0.383c0.04,0.172-0.058,0.429-0.156,0.57c-0.101,0.144-0.129,0.272-0.156,0.386
		c-0.03,0.114-0.03,0.325-0.03,0.325s-0.156,0.131-0.343,0.174l-0.298,0.068c0,0,0.028-0.199-0.098-0.341
		c-0.129-0.144-0.484-0.282-0.727-0.214c-0.242,0.07-1.17,0.444-1.526,0.6c-0.356,0.156-1.367,0.625-1.71,0.77
		c-0.341,0.141-0.583,0.27-0.941,0.214c-0.356-0.058-0.653-0.088-0.923-0.214c-0.27-0.129-0.628-0.316-0.754-0.358
		C53.957,15.219,53.715,15.189,53.715,15.189"/>
	<path fill-rule="evenodd" clip-rule="evenodd" fill="#FFFFFF" d="M55.937,17.653l1.211-0.583c0.414-0.199,1.98-0.911,2.465-1.14
		c0.484-0.227,1.269-0.613,1.44-0.684c0.171-0.07,0.356-0.199,0.555-0.214c0.199-0.015,0.656,0.086,0.911,0.144
		c0.257,0.055,0.616,0.098,0.699,0.255c0.086,0.156,0.131,0.487,0.086,0.585c-0.043,0.101-0.141,0.426-0.126,0.555
		c0.013,0.129,0.055,0.442,0.055,0.442l-0.368,0.199c-0.187,0.101-0.429,0.214-0.429,0.214s-0.055-0.214-0.214-0.356
		c-0.156-0.144-0.457-0.214-0.684-0.144c-0.154,0.048-1.082,0.585-1.425,0.797c-0.341,0.215-1.211,0.757-1.352,0.843
		c-0.144,0.086-0.27,0.298-0.699,0.242c-0.429-0.055-0.628-0.101-0.842-0.199c-0.214-0.098-0.653-0.414-0.769-0.499
		c-0.111-0.084-0.54-0.199-0.54-0.313C55.909,17.684,55.937,17.653,55.937,17.653"/>
	<path fill-rule="evenodd" clip-rule="evenodd" fill="#FFFFFF" d="M58.175,20.618c0,0,1.226-0.81,1.753-1.125
		c0.525-0.313,1.809-1.054,2.308-1.324c0.499-0.27,0.984-0.628,1.238-0.671c0.257-0.043,0.896-0.028,1.226-0.028
		c0.326,0,0.555,0,0.583,0.171c0.028,0.169-0.028,0.313-0.043,0.457c-0.013,0.141,0,0.54,0,0.54l-2.465,1.937
		c-0.398,0.313-1.34,1.155-1.395,1.17c-0.058,0.013-0.371-0.242-0.757-0.386c-0.383-0.141-0.595-0.172-0.754-0.199
		c-0.156-0.03-0.398-0.141-0.641-0.257c-0.242-0.114-0.313-0.156-0.484-0.187c-0.169-0.028-0.527,0.101-0.527,0.101L58.175,20.618z"
		/>
	<path fill-rule="evenodd" clip-rule="evenodd" fill="#FFFFFF" d="M61.151,22.754c0,0,0.613-0.555,1.042-0.926
		c0.426-0.368,1.735-1.425,2.081-1.71c0.341-0.282,1.211-0.954,1.337-1.052c0.128-0.101,0.27-0.116,0.429-0.116
		c0.156,0,0.54-0.114,0.711-0.114c0.172,0,0.469-0.013,0.5,0.214c0.028,0.23,0.144,0.671,0.129,0.84
		c-0.015,0.172,0,0.371,0.055,0.469c0.058,0.101,0.113,0.159,0.113,0.159s-0.141,0.187-0.383,0.414
		c-0.242,0.225-0.984,0.924-1.312,1.239c-0.328,0.313-0.996,0.956-1.238,1.211c-0.242,0.257-0.626,0.613-0.626,0.613
		s-0.101-0.371-0.315-0.555c-0.212-0.187-0.742-0.285-1.055-0.3c-0.313-0.013-0.711-0.316-0.87-0.356
		c-0.154-0.043-0.341,0.055-0.341,0.055S61.21,22.898,61.151,22.754"/>
	<path fill-rule="evenodd" clip-rule="evenodd" fill="#FFFFFF" d="M64.259,24.578l1.68-1.68c0.328-0.328,1.425-1.352,1.682-1.612
		c0.255-0.255,0.469-0.512,0.754-0.638c0.285-0.131,0.628-0.3,0.782-0.242c0.159,0.055,0.272,0.27,0.346,0.497
		c0.07,0.229,0.282,0.542,0.681,0.671c0.398,0.126,0.64,0.169,0.827,0.156c0.187-0.015,0.285-0.03,0.285-0.03
		s-0.401,0.414-0.613,0.628c-0.212,0.214-0.84,0.825-1.213,1.168c-0.368,0.343-1.322,1.297-1.595,1.554
		c-0.27,0.255-0.656,0.583-0.656,0.583s-0.002-0.267-0.199-0.454c-0.27-0.26-0.61-0.214-0.923-0.199
		c-0.315,0.013-0.515-0.073-0.699-0.23c-0.187-0.156-0.33-0.315-0.429-0.328c-0.101-0.015-0.325,0.101-0.386,0.129
		C64.529,24.578,64.259,24.578,64.259,24.578"/>
	<path fill-rule="evenodd" clip-rule="evenodd" fill="#FFFFFF" d="M67.622,26.089c0,0,0.926-0.87,1.383-1.324
		c0.457-0.457,1.337-1.312,1.723-1.695c0.383-0.386,1.082-1.042,1.082-1.042s0.144,0.214,0.469,0.242
		c0.331,0.028,0.643,0.088,0.886,0.101c0.242,0.015,0.656,0.015,0.782-0.116c0.129-0.126,0.3-0.169,0.3-0.169
		s-0.202,0.285-0.441,0.598c-0.245,0.313-0.926,1.269-1.312,1.854c-0.383,0.583-1.254,1.849-1.398,2.091
		c-0.141,0.242-0.469,0.757-0.568,0.898c-0.099,0.144-0.23,0.313-0.23,0.313s0.03-0.27-0.199-0.666
		c-0.227-0.401-0.356-0.414-0.555-0.474c-0.2-0.055-0.27,0.03-0.568-0.126c-0.303-0.156-0.456-0.457-0.643-0.5
		c-0.187-0.04-0.177-0.071-0.328,0C67.766,26.188,67.622,26.089,67.622,26.089"/>
	<path fill-rule="evenodd" clip-rule="evenodd" fill="#FFFFFF" d="M74.489,22.769c0,0,0.114,0.187,0.227,0.328
		c0.114,0.141,0.272,0.3,0.242,0.414c-0.028,0.113-0.54,1.14-0.656,1.41c-0.111,0.27-0.484,1.481-0.568,1.839
		c-0.086,0.356-0.215,0.883-0.331,1.153c-0.114,0.27-0.225,0.414-0.24,0.527l-0.046,0.343c0,0-0.212,0.141-0.313,0.172l-0.313,0.083
		v-0.27c0-0.116-0.172-0.328-0.283-0.527c-0.116-0.199-0.214-0.426-0.088-0.812c0.129-0.383,0.285-0.84,0.429-1.155
		c0.141-0.313,0.242-0.653,0.469-1.181c0.229-0.527,0.414-0.941,0.684-1.34c0.272-0.398,0.399-0.613,0.515-0.769
		C74.332,22.825,74.489,22.769,74.489,22.769"/>
	<path fill-rule="evenodd" clip-rule="evenodd" fill="#FFFFFF" d="M60.057,8.564c0,0,1.11-0.055,1.922-0.07
		c0.812-0.015,1.839,0,2.379,0.086c0.542,0.083,1.44,0.129,1.781,0.114c0.341-0.015,0.855-0.058,1.682-0.03
		c0.825,0.03,2.308,0.073,3.292,0.214c0.981,0.144,1.879,0.343,2.676,0.613c0.797,0.27,2.265,0.898,2.737,1.453
		c0.469,0.555,0.81,1.012,0.754,1.726c-0.055,0.711-0.341,1.465-0.57,1.909c-0.227,0.442-0.785,1.395-0.883,1.564
		c-0.098,0.174-0.956,0.971-1.297,1.355c-0.343,0.383-1.453,1.582-1.894,2.111c-0.442,0.525-0.782,0.949-0.928,1.095
		c-0.199,0.199-0.341,0.414-0.341,0.414h-0.144c0,0,0.174-0.227,0.131-0.469c-0.045-0.242-0.242-0.615-0.444-0.726
		c-0.199-0.116-0.255-0.144-0.399-0.103c-0.141,0.045-0.257,0.103-0.356,0.131c-0.101,0.028-0.185,0.043-0.185,0.043
		s0.497-0.555,0.727-0.797c0.227-0.245,0.855-0.815,1.067-1.027c0.215-0.214,0.414-0.343,0.499-0.343
		c0.086,0,0.454,0.129,0.696,0.028c0.242-0.098,0.686-0.555,0.714-0.868c0.028-0.313-0.129-0.628-0.341-0.782
		c-0.214-0.159-0.527-0.288-0.726-0.273c-0.202,0.015-0.472,0.058-0.671,0.172c-0.134,0.076-0.285,0.101-0.285,0.101
		s0.015-0.159,0.043-0.401c0.028-0.242-0.099-0.484-0.23-0.684c-0.126-0.199-0.383-0.356-0.696-0.398
		c-0.313-0.043-0.457,0.043-0.57-0.043c-0.116-0.086-0.028-0.27-0.129-0.5c-0.099-0.227-0.257-0.555-0.555-0.671
		c-0.3-0.111-0.555-0.181-0.699-0.181c-0.141,0-0.141-0.086-0.141-0.27c0-0.242-0.058-0.744-0.199-0.87
		c-0.144-0.131-0.472-0.373-0.671-0.414c-0.199-0.043-0.341-0.071-0.341-0.172c0-0.101,0.126-0.343,0.126-0.57
		c0-0.227-0.043-0.57-0.313-0.754c-0.27-0.187-0.57-0.285-0.684-0.472c-0.116-0.184-0.313-0.383-0.368-0.399
		c-0.061-0.015-0.303-0.015-0.472,0c-0.171,0.015-0.585,0.101-0.883,0.144c-0.3,0.04-0.457,0.114-0.615,0.071
		c-0.154-0.043-0.484-0.171-0.711-0.171c-0.23,0-0.782,0.03-1.153,0.071c-0.371,0.043-0.754,0.086-1.054,0.07
		c-0.3-0.013-0.515-0.111-0.757-0.212c-0.242-0.101-0.313-0.141-0.454-0.227c-0.141-0.086-0.214-0.156-0.214-0.156
		s0.015-0.131,0.043-0.214C59.986,8.693,60.057,8.564,60.057,8.564"/>
	<path fill-rule="evenodd" clip-rule="evenodd" fill="#FFFFFF" d="M60.783,11.185c0,0,0.802-0.338,1.355-0.512
		c0.583-0.187,1.622-0.442,2.091-0.54c0.472-0.103,0.815-0.242,0.996-0.187c0.187,0.055,0.414,0.055,0.545,0.043l0.255-0.028
		c0,0,0.114,0.139,0.043,0.184c-0.073,0.043-0.083,0.098-0.242,0.27c-0.156,0.172-0.285,0.356-0.469,0.429
		c-0.187,0.071-0.615,0.169-1.1,0.298c-0.484,0.129-1.254,0.371-1.524,0.444c-0.27,0.071-0.341,0.141-0.767,0.071
		c-0.429-0.071-0.558-0.113-0.742-0.159c-0.187-0.043-0.199,0-0.3,0.045c-0.101,0.043-0.156,0-0.156,0v-0.199
		C60.768,11.271,60.783,11.185,60.783,11.185"/>
	<path fill-rule="evenodd" clip-rule="evenodd" fill="#FFFFFF" d="M62.178,13.224c0,0,0.77-0.414,1.41-0.684
		c0.643-0.272,1.94-0.742,2.21-0.812c0.27-0.073,0.568-0.156,0.726-0.073c0.154,0.088,0.285,0.187,0.242,0.315
		c-0.043,0.126-0.257,0.442-0.414,0.527c-0.156,0.084-1.067,0.583-1.413,0.727c-0.341,0.144-1.095,0.54-1.322,0.555
		c-0.23,0.015-0.472-0.043-0.699-0.113c-0.229-0.071-0.313-0.114-0.429-0.129c-0.113-0.015-0.356,0-0.356,0s0.03-0.071,0.03-0.141
		C62.166,13.322,62.178,13.224,62.178,13.224"/>
	<path fill-rule="evenodd" clip-rule="evenodd" fill="#FFFFFF" d="M63.619,15.375c0,0,0.855-0.499,1.14-0.671
		c0.282-0.169,1.211-0.611,1.607-0.825c0.401-0.214,0.827-0.401,1.057-0.386c0.227,0.015,0.426,0.116,0.457,0.227
		c0.028,0.116,0,0.358-0.101,0.542c-0.101,0.187-0.164,0.338-0.484,0.641c-0.353,0.335-0.613,0.499-0.827,0.686
		c-0.212,0.184-0.54,0.454-0.711,0.484c-0.171,0.028-0.442-0.131-0.585-0.159c-0.141-0.028-0.57-0.199-0.669-0.255
		c-0.101-0.058-0.272-0.129-0.399-0.114c-0.131,0.013-0.499,0.099-0.499,0.099L63.619,15.375z"/>
	<path fill-rule="evenodd" clip-rule="evenodd" fill="#FFFFFF" d="M65.884,17.227c0,0,0.512-0.469,0.87-0.754
		c0.353-0.285,1.009-0.727,1.322-0.956c0.313-0.227,0.555-0.399,0.656-0.414c0.101-0.013,0.202,0.028,0.272,0.101
		c0.071,0.07,0.27,0.07,0.325,0.242c0.061,0.169,0,0.313,0.061,0.411c0.055,0.103,0.197,0.073,0.225,0.159
		c0.03,0.083,0,0.257,0,0.257s-0.711,0.555-0.969,0.797c-0.257,0.242-0.669,0.641-0.77,0.696c-0.098,0.061-0.469-0.154-0.699-0.255
		c-0.227-0.098-0.754-0.257-0.954-0.27C66.025,17.227,65.884,17.227,65.884,17.227"/>
	<path fill-rule="evenodd" clip-rule="evenodd" fill="#FFFFFF" d="M67.892,18.567c0,0,0.61-0.57,0.913-0.84
		c0.298-0.272,0.611-0.557,0.838-0.772c0.23-0.212,0.714-0.555,0.714-0.555s0.214,0.015,0.187,0.144
		c-0.03,0.129,0.126,0.156,0.227,0.156c0.099,0,0.341-0.058,0.414-0.028c0.07,0.028,0.184,0.071,0.184,0.227
		s0.013,0.298,0.073,0.313c0.055,0.015,0.196-0.015,0.212,0.045c0.015,0.055,0.03,0.154,0.03,0.154s-0.8,0.797-1.14,1.112
		c-0.343,0.313-0.87,0.868-0.941,0.956c-0.071,0.084-0.113,0.141-0.113,0.141s-0.116-0.313-0.401-0.57
		c-0.283-0.257-0.399-0.34-0.669-0.414C68.149,18.567,67.892,18.567,67.892,18.567"/>
	<path fill-rule="evenodd" clip-rule="evenodd" fill="#FFFFFF" d="M72.564,20.562c0,0,0.472-0.585,0.886-1.027l0.996-1.07
		c0.172-0.184,0.285-0.356,0.285-0.356s-0.27,0.643-0.328,0.928c-0.058,0.282-0.128,0.825-0.128,1.067s-0.099,0.512-0.156,0.81
		c-0.058,0.303-0.058,0.573-0.058,0.573s-0.199,0.113-0.341,0.184c-0.144,0.073-0.315,0.184-0.315,0.184s-0.028-0.424-0.197-0.653
		c-0.171-0.227-0.242-0.288-0.386-0.371c-0.144-0.086-0.368-0.114-0.368-0.114L72.564,20.562z"/>
	<path fill-rule="evenodd" clip-rule="evenodd" fill="#FFFFFF" d="M82.967,3.905c0,0,0.81-0.298,1.322-0.512
		c0.517-0.215,3.13-1.115,3.935-1.327c0.984-0.255,3.275-0.81,4.66-1.024c1.382-0.214,4.16-0.515,6.836-0.515
		c2.293,0,4.402,0.187,5.515,0.313c1.113,0.131,3.35,0.53,4.263,0.757c0.908,0.227,2.432,0.613,3.29,0.898
		c0.855,0.285,2.192,0.739,2.707,0.969c0.512,0.227,0.84,0.298,0.925,0.386c0.083,0.083,0.099,0.214,0.368,0.341
		c0.272,0.128,0.672,0.27,0.672,0.27s-0.142,0.129-0.356,0.214c-0.214,0.086-0.484,0.227-0.699,0.316
		c-0.212,0.083-0.426,0.212-0.426,0.212s0-0.3-0.113-0.399c-0.116-0.101-0.77-0.441-1.453-0.699
		c-0.633-0.237-1.612-0.585-2.553-0.855c-0.941-0.27-2.621-0.754-3.746-0.954c-1.125-0.199-2.336-0.414-3.434-0.527
		c-1.097-0.114-3.617-0.313-4.929-0.3c-1.312,0.015-3.804,0.156-5.058,0.313c-1.241,0.159-3.292,0.472-4.488,0.77
		c-1.198,0.303-2.795,0.699-3.421,0.913c-0.628,0.214-1.382,0.527-1.625,0.54c-0.242,0.015-0.754-0.055-0.926-0.055
		c-0.169,0-0.341,0-0.442,0.028c-0.099,0.028-0.371,0.172-0.484,0.116C83.194,4.031,82.967,3.905,82.967,3.905"/>
	<path fill-rule="evenodd" clip-rule="evenodd" fill="#FFFFFF" d="M122.076,20.247c0,0-0.298-0.313-0.457-0.484
		c-0.154-0.172-0.227-0.954-0.414-1.383c-0.184-0.429-0.853-1.324-1.254-1.738c-0.396-0.411-1.128-1.158-2.646-2.137
		c-1.397-0.896-2.851-1.695-4.404-2.278c-1.554-0.588-2.636-1.027-4.503-1.44c-1.867-0.414-4.288-0.843-6.925-0.926
		c-2.636-0.086-4.912,0.126-6.453,0.328c-1.526,0.2-3.706,0.598-5.701,1.269c-1.993,0.669-2.492,0.911-3.118,1.211
		c-0.628,0.297-2.139,1.052-2.694,1.425c-0.555,0.368-1.438,0.981-1.98,1.324c-0.54,0.341-0.643,0.621-0.969,0.54
		c-0.469-0.114-0.6-0.54-0.6-0.54s0.401-0.484,0.787-0.87c0.384-0.383,1.294-1.153,1.865-1.625c0.573-0.469,1.682-1.423,1.867-1.595
		c0.187-0.174,0.684-0.769,0.684-0.769s0.156,0.34,0.444,0.255c0.285-0.083,0.739-0.426,1.012-0.853
		c0.27-0.429,0.739-1.425,0.626-2.253c-0.113-0.825-0.227-1.425-0.454-1.582c-0.23-0.156-0.616-0.426-0.898-0.454
		c-0.285-0.03-0.386,0.013-0.527-0.043c-0.144-0.058-0.343-0.229-0.343-0.229S85.702,5.146,86,5.018
		c0.303-0.129,1.64-0.613,2.538-0.855c0.898-0.242,1.852-0.484,2.992-0.711c1.14-0.229,2.821-0.499,4.16-0.628
		c1.339-0.129,3.078-0.257,4.104-0.242c1.024,0.013,3.403,0.144,4.372,0.255c0.971,0.116,2.851,0.358,3.978,0.615
		c1.122,0.255,3.234,0.767,4.16,1.095c0.926,0.33,2.036,0.671,2.151,0.782c0.114,0.116,0.242,0.245,0.412,0.315
		c0.171,0.071,0.343,0.187,0.343,0.187s-0.459,0.505-0.77,1.039c-0.913,1.556,0.177,3.522,1.628,4.599
		c1.879,1.395,5.31,3.524,5.905,6.705C122.111,18.917,122.076,20.247,122.076,20.247"/>
	<path fill-rule="evenodd" clip-rule="evenodd" fill="#FFFFFF" d="M123.348,18.539c-0.116-1.103-0.779-2.22-1.282-2.952
		c-0.507-0.732-0.825-1.486-1.395-2.447c-0.57-0.964-2.159-1.91-3.181-2.631c-0.782-0.55-1.789-1.761-1.789-2.724
		c0-0.457-0.23-1.148-0.779-0.838c0.096-0.235,0.315-0.464,0.588-0.691c0.527-0.441,1.48-1.042,2.376-1.367
		c0.898-0.328,3.05-0.913,3.933-1.112c0.883-0.197,3.378-0.611,4.404-0.699c1.025-0.083,2.821-0.169,3.676-0.169
		c0.926,0,2.707,0.091,4.031,0.227c1.395,0.141,3.305,0.429,4.559,0.499c1.256,0.07,3.405,0.126,4.346,0.099
		c0.941-0.028,2.664-0.099,3.605-0.114c0.941-0.013,4.375-0.129,5.515-0.199c1.138-0.071,4.231-0.255,5.386-0.313
		c1.155-0.058,4.687-0.129,5.698-0.129c1.012,0,5.386,0.199,6.496,0.257c1.112,0.055,3.847,0.212,4.859,0.27
		c1.014,0.058,2.464,0.114,3.307,0.156c0.837,0.043,3.332-0.028,3.875-0.028c0.54,0,2.437-0.015,3.476-0.055
		c1.042-0.045,3.804-0.257,4.815-0.343c1.011-0.086,3.605-0.356,4.43-0.416c0.827-0.055,1.652-0.182,2.01-0.126
		c0.356,0.058,0.769,0.328,0.883,0.457c0.113,0.126,0.597,0.656,0.954,1.04c0.358,0.386,0.714,0.812,0.769,0.956
		c0.058,0.141,0.288,0.454,0.242,0.568c-0.043,0.116-0.086,0.33-0.215,0.401c-0.126,0.07-0.709,0.325-0.709,0.325
		s-0.03-0.27-0.23-0.356c-0.199-0.086-0.543-0.199-0.799-0.111c-0.255,0.083-1.083,0.439-1.567,0.653
		c-0.485,0.215-1.282,0.585-1.652,0.628c-0.368,0.04-1.822,0.099-2.79,0.111c-0.972,0.015-3.807,0.03-5.031,0.073
		c-1.226,0.043-5.37,0.07-6.241,0.086c-0.87,0.013-4.674,0.055-5.885,0.055s-4.601,0.07-5.699,0.058
		c-1.097-0.015-5.956,0.073-7.025,0.055c-1.067-0.015-4.105,0.017-4.914,0.03c-0.813,0.015-1.91,0.055-2.964,0.126
		c-1.055,0.073-2.538,0.229-2.962,0.257c-0.429,0.028-0.999-0.043-1.198-0.113c-0.2-0.071-0.215-0.101-0.343-0.114
		c-0.126-0.015-0.485-0.07-0.485-0.07l-0.083-0.187c0,0,0.47-0.086,0.853-0.169c0.386-0.088,0.711-0.26,1.397-0.401
		c0.684-0.141,2.406-0.469,3.264-0.613c0.853-0.141,4.715-0.825,5.827-0.969c1.11-0.141,4.001-0.469,5.012-0.54
		c1.014-0.071,3.892-0.3,4.904-0.356c1.009-0.058,3.29-0.159,3.86-0.144c0.57,0.015,2.52,0.055,3.29,0.098
		c0.769,0.045,1.183,0.045,1.183,0.045l0.143-0.499c0,0-0.812-0.043-1.499-0.086c-0.681-0.043-2.449-0.071-3.047-0.071
		c-0.597,0-2.765,0.013-3.59,0.055c-0.789,0.043-1.953-0.091-2.894-0.126c-1.14-0.043-3.718-0.015-4.772,0.071
		c-1.054,0.083-4.031,0.368-4.972,0.484c-0.941,0.114-4.173,0.583-5.656,0.855c-1.483,0.27-3.789,0.724-4.874,0.926
		c-1.082,0.199-2.464,0.484-3.703,0.613c-1.241,0.126-3.746,0.171-4.659,0.156c-0.913-0.015-3.605-0.073-4.959-0.058
		c-1.353,0.015-3.63,0.015-4.958,0.171c-1.324,0.156-2.452,0.414-3.135,0.643c-0.684,0.227-1.382,0.484-1.849,0.825
		c-0.471,0.341-0.686,0.711-0.671,0.84c0.015,0.129,0.055,0.212,0.055,0.212l0.356,0.116c0,0-0.341,0.27-0.54,0.442
		c-0.2,0.169-0.414,0.57-0.485,0.911c-0.07,0.343-0.186,1.168-0.199,1.511c-0.015,0.343-0.059,0.484,0.058,0.757
		c0.111,0.27,0.653,1.238,0.867,1.652c0.215,0.411,0.782,1.324,0.941,1.594c0.157,0.27,0.455,0.656,0.669,0.984
		c0.215,0.328,0.583,1.112,0.626,1.367c0.046,0.257,0.046,0.625,0.046,0.996v1.854c0,0.298-0.028,0.54-0.089,0.611
		c-0.055,0.071-0.227,0.214-0.242,0.373c-0.013,0.154-0.111,0.512-0.154,0.699c-0.043,0.181-0.187,0.568-0.187,0.568
		s-0.227-0.457-0.242-0.512c-0.013-0.055,0.098-0.429,0.058-0.969C124.357,22,123.532,20.279,123.348,18.539"/>
	<path fill-rule="evenodd" clip-rule="evenodd" fill="#FFFFFF" d="M122.83,10.916c0,0,0.219-0.361,0.812-0.754
		c0.515-0.343,1.355-0.714,1.867-0.87c0.512-0.156,2.394-0.583,3.249-0.653c0.855-0.073,3.151-0.088,3.903-0.101
		c0.757-0.015,2.197,0.028,2.681,0.013c0.485-0.013,1.166,0,1.681,0c0.512,0,1.496-0.013,1.808-0.013
		c0.313,0,0.913-0.03,1.085,0.013c0.169,0.043,0.485,0.101,0.527,0.23c0.04,0.128,0.083,0.242,0,0.383
		c-0.088,0.141-0.073,0.328-0.073,0.383v0.131c0,0-0.101,0.055-0.202,0.126c-0.098,0.073-0.568,0.343-0.568,0.343
		s0-0.101-0.086-0.285c-0.083-0.184-0.356-0.343-0.555-0.386c-0.199-0.04-0.925-0.083-1.241-0.099
		c-0.312-0.013-1.067-0.028-1.367-0.058c-0.297-0.028-0.441-0.071-0.585-0.071c-0.142,0-0.255,0.015-0.369,0.101
		c-0.116,0.086-0.156,0.169-0.227,0.184c-0.07,0.013-0.215-0.015-0.272-0.015c-0.055,0-0.154,0.083,0.03,0.257
		c0.27,0.255,0.669,0.3,1.024,0.356c0.358,0.058,0.855,0.141,1.226,0.214c0.371,0.071,0.87,0.156,1.196,0.23
		c0.328,0.07,0.643,0.083,0.754,0.098c0.116,0.013,0.315,0.099,0.303,0.215c-0.015,0.111-0.045,0.214-0.088,0.313
		c-0.043,0.101-0.043,0.285-0.028,0.371c0.015,0.086-0.016,0.169-0.099,0.227c-0.088,0.058-0.441,0.184-0.53,0.23
		c-0.083,0.043-0.239,0.028-0.239,0.028s0.043-0.227,0-0.285c-0.045-0.058-0.172-0.184-0.441-0.27
		c-0.272-0.086-0.984-0.272-1.327-0.343c-0.341-0.07-0.925-0.227-1.309-0.297c-0.386-0.071-0.643-0.187-0.754-0.088
		c-0.116,0.101-0.143,0.187-0.214,0.199c-0.071,0.015-0.187-0.04-0.257,0.028c-0.074,0.073-0.172,0.159-0.101,0.242
		c0.074,0.088,0.331,0.245,0.585,0.331c0.257,0.086,1.098,0.328,1.468,0.442c0.368,0.113,1.012,0.371,1.352,0.441
		c0.343,0.071,0.699,0.184,0.772,0.371c0.07,0.187,0.055,0.368-0.073,0.484c-0.129,0.114-0.157,0.27-0.187,0.341
		c-0.028,0.073-0.071,0.257-0.071,0.257s-0.328,0.212-0.396,0.242l-0.315,0.129c0,0,0.113-0.144,0.013-0.386
		c-0.098-0.242-0.383-0.383-0.754-0.57c-0.368-0.184-1.125-0.454-1.411-0.555c-0.285-0.101-1.208-0.469-1.423-0.543
		c-0.215-0.07-0.456-0.154-0.656-0.113c-0.202,0.043-0.303,0.159-0.242,0.257c0.055,0.098,0.212,0.144,0.212,0.257
		c0,0.114,0,0.212-0.058,0.242c-0.055,0.028-0.071,0.04-0.071,0.04s0.485,0.33,0.815,0.484c0.326,0.159,1.137,0.588,1.352,0.699
		c0.215,0.116,0.883,0.429,1.039,0.543c0.157,0.113,0.485,0.3,0.427,0.456c-0.055,0.156-0.112,0.414-0.142,0.497
		c-0.03,0.088,0.03,0.159-0.113,0.214c-0.144,0.056-0.671,0.2-0.671,0.2s-0.013-0.129-0.043-0.2
		c-0.028-0.07-0.127-0.199-0.412-0.368c-0.285-0.172-1.296-0.772-1.553-0.898c-0.257-0.131-0.898-0.472-1.04-0.6
		c-0.143-0.126-0.499-0.426-0.628-0.499c-0.126-0.07-0.386-0.197-0.555-0.028c-0.136,0.139-0.2,0.414-0.116,0.512
		c0.089,0.101,0.275,0.272,0.275,0.272s-0.172,0.129-0.144,0.199c0.028,0.073,0.484,0.398,0.825,0.641
		c0.343,0.242,1.239,0.858,1.468,1.011c0.227,0.156,0.711,0.457,0.87,0.6c0.156,0.141,0.199,0.27,0.083,0.396
		c-0.114,0.131-0.154,0.257-0.154,0.257s0.012,0.171,0.012,0.242c0,0.073-0.028,0.156-0.028,0.156s-0.073,0.07-0.26,0.101
		c-0.181,0.028-0.451,0.043-0.451,0.043s-0.06-0.086-0.043-0.214c0.013-0.129-0.109-0.215-0.303-0.383
		c-0.242-0.215-0.926-0.686-1.266-0.928c-0.341-0.242-1.012-0.684-1.168-0.853c-0.157-0.172-0.444-0.585-0.598-0.714
		c-0.159-0.129-0.371-0.27-0.555-0.199c-0.187,0.07-0.386,0.214-0.414,0.386c-0.028,0.169-0.058,0.298,0.055,0.384
		c0.113,0.086,0.27,0.187,0.27,0.242c0,0.055-0.184,0.101-0.142,0.199c0.043,0.099,0.641,0.543,0.911,0.77
		c0.27,0.227,1.198,0.956,1.425,1.155c0.23,0.2,0.656,0.598,0.714,0.77c0.055,0.171,0.028,0.525-0.043,0.626
		c-0.071,0.101-0.27,0.141-0.457,0.172c-0.187,0.03-0.429,0.058-0.429,0.058s0.088-0.214,0.043-0.3
		c-0.043-0.086-0.439-0.343-0.741-0.585c-0.298-0.242-1.194-0.996-1.537-1.281c-0.343-0.283-0.684-0.628-0.797-0.87
		c-0.116-0.242-0.315-0.568-0.6-0.568c-0.285,0-0.57,0.043-0.742,0.27c-0.171,0.227-0.171,0.472-0.04,0.57
		c0.129,0.101,0.353,0.242,0.283,0.283l-0.255,0.159c0,0,0.27,0.162,0.613,0.457c0.399,0.341,1.083,0.898,1.339,1.14
		c0.255,0.242,0.782,0.741,0.883,0.825c0.098,0.086,0.242,0.34,0.227,0.527c-0.013,0.187-0.04,0.429-0.101,0.527
		c-0.055,0.101,0.018,0.171-0.126,0.242c-0.144,0.073-0.414,0.073-0.512,0.073c-0.101,0-0.187-0.03-0.187-0.03
		s0.242-0.184,0.23-0.272c-0.015-0.083-0.313-0.383-0.515-0.555c-0.2-0.172-1.168-0.996-1.526-1.324
		c-0.353-0.328-0.867-0.84-0.981-1.153c-0.113-0.313-0.113-0.714-0.3-0.969c-0.184-0.257-0.595-0.57-0.782-0.843
		c-0.187-0.27-0.797-1.211-1.082-1.793c-0.288-0.583-0.585-1.027-0.656-1.524c-0.07-0.5-0.015-0.797-0.101-0.956
		c-0.086-0.156-0.285-0.398-0.383-0.398C123.158,10.958,122.83,10.916,122.83,10.916"/>
	<path fill-rule="evenodd" clip-rule="evenodd" fill="#FFFFFF" d="M125.126,18.012c0,0,0.782,0.898,0.981,1.067
		c0.202,0.172,0.615,0.426,0.741,0.499c0.129,0.071,0.613,0.555,0.742,0.711c0.128,0.156,0.441,0.457,0.426,0.641
		c-0.013,0.187-0.157,0.686-0.27,0.797c-0.116,0.116-0.285,0.257-0.429,0.275c-0.139,0.01-0.396-0.033-0.396-0.033
		s0.313-0.083,0.313-0.212s-0.056-0.242-0.285-0.469c-0.227-0.227-0.315-0.315-0.558-0.641c-0.242-0.328-0.439-0.671-0.439-0.671
		l-0.172,0.055l-0.171,0.015c0,0-0.059-0.542-0.129-0.84c-0.073-0.298-0.171-0.56-0.212-0.699
		C125.209,18.324,125.126,18.012,125.126,18.012"/>
	<path fill-rule="evenodd" clip-rule="evenodd" fill="#FFFFFF" d="M125.04,24.48c0,0,0.199-0.472,0.227-0.656
		c0.028-0.184,0.129-0.515,0.144-0.598l0.043-0.227c0,0,0.368,0.484,0.485,0.623c0.113,0.144,0.499,0.444,0.64,0.643
		c0.142,0.2,0.785,1.024,1.055,1.398c0.27,0.368,1.039,1.395,1.18,1.595c0.144,0.199,0.573,0.812,0.543,0.984
		c-0.028,0.169-0.058,0.383-0.141,0.555c-0.086,0.172-0.172,0.356-0.257,0.371c-0.086,0.013-0.5,0.028-0.5,0.028
		s0.113-0.156,0.113-0.257c0-0.099-0.184-0.396-0.439-0.54c-0.257-0.141-0.757-0.414-0.87-0.543
		c-0.114-0.128-0.464-1.054-0.626-1.382c-0.2-0.396-0.543-1.052-0.757-1.352c-0.214-0.3-0.356-0.613-0.441-0.641
		c-0.086-0.028-0.043,0.043-0.172,0.055C125.139,24.55,125.04,24.48,125.04,24.48"/>
	<path fill-rule="evenodd" clip-rule="evenodd" fill="#FFFFFF" d="M125.696,22.343c0,0,0.524,0.184,0.825,0.184
		c0.3,0,0.53,0.015,0.6-0.013c0.071-0.03,0.2-0.257,0.497-0.33c0.3-0.071,0.582-0.028,0.87,0.187
		c0.285,0.214,1.711,1.64,1.922,1.839c0.215,0.2,1.141,1.095,1.426,1.365c0.285,0.272,0.741,0.727,0.827,0.913
		c0.083,0.187,0.126,0.343,0.055,0.442c-0.071,0.098-0.171,0.171-0.214,0.3c-0.04,0.129-0.071,0.414-0.144,0.497
		c-0.071,0.088-0.169,0.187-0.368,0.187c-0.2,0-0.398-0.028-0.398-0.028s0.227-0.129,0.227-0.27c0-0.144-0.071-0.33-0.269-0.444
		c-0.2-0.113-0.411-0.227-0.714-0.386c-0.297-0.154-0.54-0.368-0.754-0.611c-0.214-0.242-0.711-0.913-0.954-1.183
		c-0.242-0.27-0.827-1.024-1.097-1.282c-0.27-0.255-0.543-0.497-0.883-0.57c-0.341-0.071-0.429-0.086-0.499-0.086
		c-0.071,0-0.215,0.23-0.187,0.285c0.03,0.055-0.139-0.086-0.283-0.27C126.037,22.883,125.696,22.343,125.696,22.343"/>
	<path fill-rule="evenodd" clip-rule="evenodd" fill="#FFFFFF" d="M128.403,21.687c0,0,0.04-0.099,0.055-0.242
		c0.015-0.144,0.043-0.328,0.116-0.313c0.071,0.013,0.426,0.182,0.669,0.182c0.242,0,0.272-0.04,0.272-0.04s0.126-0.214,0.424-0.272
		c0.303-0.055,0.401-0.068,0.499-0.068c0.101,0,0.242-0.03,0.558,0.099c0.313,0.129,1.183,0.84,1.509,1.097
		c0.328,0.257,1.655,1.297,2.023,1.594c0.371,0.3,0.799,0.585,0.913,0.699c0.113,0.116,0.484,0.469,0.398,0.628
		c-0.086,0.154-0.27,0.341-0.315,0.512c-0.04,0.172-0.055,0.414-0.083,0.512c-0.028,0.101-0.23,0.144-0.328,0.129
		c-0.101-0.013-0.386-0.028-0.386-0.028s0.159-0.113,0.202-0.227c0.04-0.116-0.043-0.245-0.202-0.358
		c-0.156-0.113-0.411-0.285-0.711-0.426c-0.3-0.141-0.754-0.527-1.125-0.827c-0.371-0.298-1.339-1.196-1.554-1.395
		c-0.215-0.202-0.883-0.769-1.054-0.84c-0.172-0.073-0.669-0.159-0.855-0.199c-0.184-0.043-0.456-0.103-0.456-0.103
		s-0.124,0.187-0.182,0.187c-0.116,0-0.101-0.013-0.101-0.013s0.013,0-0.086-0.086C128.501,21.798,128.403,21.687,128.403,21.687"/>
	<path fill-rule="evenodd" clip-rule="evenodd" fill="#FFFFFF" d="M130.782,20.247l0.016-0.255c0,0,0.184-0.07,0.426-0.07
		c0.242,0,0.471,0.013,0.741-0.088c0.27-0.098,0.27-0.07,0.456-0.184c0.182-0.113,0.27-0.141,0.457-0.257
		c0.181-0.113,0.141-0.27,0.255-0.285c0.113-0.013,0.456-0.056,0.555,0c0.098,0.058,0.825,0.643,1.254,0.898
		c0.429,0.257,1.723,1.055,2.207,1.355c0.484,0.3,1.21,0.696,1.453,0.911c0.242,0.215,0.401,0.33,0.386,0.53
		c-0.012,0.196-0.171,0.341-0.254,0.497c-0.089,0.156-0.07,0.3-0.131,0.426c-0.055,0.129-0.098,0.257-0.098,0.257l-0.598,0.129
		c0,0,0.157-0.144,0.129-0.298c-0.028-0.159-0.129-0.315-0.386-0.457c-0.257-0.144-0.597-0.159-0.883-0.257
		c-0.283-0.101-0.785-0.441-1.083-0.671c-0.3-0.227-1.054-0.81-1.412-1.052c-0.353-0.242-0.868-0.656-1.122-0.772
		c-0.257-0.114-0.727-0.212-0.999-0.227c-0.272-0.015-0.597,0.015-0.653,0c-0.058-0.015-0.144,0.3-0.257,0.199
		c-0.116-0.099-0.159-0.114-0.3-0.199C130.797,20.29,130.782,20.247,130.782,20.247"/>
	<path fill-rule="evenodd" clip-rule="evenodd" fill="#FFFFFF" d="M134.359,18.282c0,0,0.383-0.028,0.47-0.199
		c0.083-0.172,0.055-0.543,0.083-0.714c0.03-0.171,0.015-0.27,0.088-0.285c0.071-0.013,0.257,0.114,0.439,0.131
		c0.186,0.012,0.416,0,0.714,0.154c0.3,0.159,1.582,0.827,2.253,1.113c0.669,0.285,2.008,0.984,2.421,1.14
		c0.411,0.156,1.095,0.411,1.198,0.598c0.098,0.187,0.154,0.386,0.04,0.57c-0.113,0.184-0.2,0.285-0.157,0.414
		c0.043,0.129,0.157,0.282,0.056,0.356c-0.099,0.071-0.341,0.086-0.497,0.141c-0.156,0.058-0.328,0.058-0.328,0.058
		s0.144-0.098,0.113-0.257c-0.028-0.154-0.169-0.368-0.469-0.441c-0.3-0.071-0.641-0.086-0.913-0.156
		c-0.27-0.07-0.512-0.184-0.926-0.426c-0.414-0.242-1.254-0.741-1.695-0.969c-0.441-0.229-1.254-0.656-1.539-0.84
		c-0.285-0.187-0.383-0.272-0.527-0.315c-0.142-0.043-0.328-0.055-0.426-0.028C134.656,18.352,134.359,18.282,134.359,18.282"/>
	<path fill-rule="evenodd" clip-rule="evenodd" fill="#FFFFFF" d="M136.753,15.973c0,0,0.071-0.227,0.111-0.484
		c0.045-0.257-0.013-0.386,0.073-0.414c0.086-0.028,0.23,0.043,0.411,0.028c0.187-0.015,0.374-0.028,0.5,0.045
		c0.128,0.071,0.757,0.313,1.069,0.424c0.313,0.116,1.937,0.699,2.48,0.901c0.54,0.199,1.524,0.555,1.95,0.711
		c0.429,0.159,0.714,0.199,0.87,0.341c0.157,0.144,0.3,0.343,0.285,0.628c-0.013,0.285,0.043,0.371-0.071,0.512
		c-0.116,0.144-0.143,0.172-0.156,0.257c-0.015,0.083,0.098,0.242,0.028,0.328c-0.071,0.086-0.187,0.101-0.442,0.141
		c-0.257,0.043-0.383,0.071-0.383,0.071s0.212-0.227,0.013-0.411c-0.199-0.184-0.269-0.3-0.726-0.469
		c-0.456-0.172-1.183-0.472-1.511-0.6c-0.328-0.126-1.738-0.77-2.136-0.911c-0.398-0.144-1.211-0.456-1.496-0.613
		c-0.285-0.156-0.398-0.215-0.484-0.328C137.051,16.016,136.753,15.973,136.753,15.973"/>
	<path fill-rule="evenodd" clip-rule="evenodd" fill="#FFFFFF" d="M138.519,13.607c0,0-0.028-0.696,0.07-0.726
		c0.101-0.028,0.386,0.058,0.512,0.043c0.128-0.013,0.484-0.013,0.814,0.073c0.326,0.086,2.137,0.542,2.848,0.696
		c0.711,0.156,1.665,0.386,2.265,0.484c0.598,0.101,0.996,0.101,1.125,0.316c0.129,0.214,0.114,0.669,0.101,0.913
		c-0.015,0.24,0.055,0.754,0.013,0.825c-0.04,0.071-0.341,0.2-0.555,0.285c-0.212,0.083-0.3,0.126-0.3,0.126
		s0.101-0.257-0.043-0.439c-0.141-0.187-0.699-0.414-1.067-0.515c-0.371-0.101-1.438-0.454-2.023-0.626
		c-0.585-0.171-1.554-0.499-1.88-0.585c-0.33-0.086-0.714-0.184-0.941-0.328c-0.23-0.141-0.472-0.398-0.57-0.456
		C138.789,13.638,138.519,13.607,138.519,13.607"/>
	<path fill-rule="evenodd" clip-rule="evenodd" fill="#FFFFFF" d="M139.828,11.029l-0.013-0.27c0,0,0.326-0.313,0.414-0.313
		c0.083,0,0.313-0.046,0.669-0.015c0.356,0.03,1.88,0.212,2.48,0.313c0.598,0.098,2.195,0.313,2.649,0.371
		c0.459,0.058,1.158,0.013,1.382,0.073c0.386,0.098,0.328,0.441,0.358,0.681c0.028,0.245,0.071,0.613,0.04,0.712
		c-0.028,0.101-0.242,0.303-0.469,0.472c-0.23,0.172-0.456,0.3-0.583,0.371c-0.131,0.071,0.04-0.298-0.101-0.442
		c-0.088-0.088-0.313-0.199-0.671-0.27c-0.356-0.071-0.926-0.202-1.269-0.272c-0.341-0.071-1.652-0.326-2.18-0.426
		c-0.525-0.099-1.125-0.159-1.481-0.328c-0.356-0.171-0.583-0.457-0.782-0.542C140.07,11.057,139.828,11.029,139.828,11.029"/>
	<path fill-rule="evenodd" clip-rule="evenodd" fill="#FFFFFF" d="M140.87,9.15c0,0-0.098-0.285-0.098-0.358
		c0-0.056,0.028-0.141,0.028-0.141s0.583,0.028,0.981-0.043c0.398-0.073,1.582-0.255,2.336-0.371
		c0.754-0.113,2.18-0.368,2.651-0.457c0.47-0.083,1.042-0.184,1.239-0.098c0.2,0.086,0.343,0.285,0.371,0.484
		c0.03,0.199,0.187,0.641,0.242,0.825c0.058,0.187,0.202,0.472,0.172,0.557c-0.028,0.086-0.272,0.384-0.442,0.543
		c-0.171,0.156-0.585,0.555-0.585,0.555s0.059-0.328-0.07-0.527c-0.126-0.202-0.386-0.444-0.711-0.543
		c-0.328-0.101-1.667-0.199-2.139-0.184c-0.469,0.012-1.622,0.028-2.164,0.012c-0.543-0.012-1.039-0.111-1.269-0.214
		c-0.227-0.098-0.162-0.068-0.255-0.098C140.984,9.036,140.87,9.15,140.87,9.15"/>
	<path fill-rule="evenodd" clip-rule="evenodd" fill="#FFFFFF" d="M148.564,10.689c0,0,0.555-0.6,0.699-0.769
		c0.141-0.172,0.283-0.386,0.381-0.414c0.104-0.028,0.469,0.02,0.699-0.058c0.303-0.101,2.225-0.083,2.737-0.101
		c0.514-0.013,4.059-0.013,4.828-0.013c0.772,0,5.785-0.07,6.615-0.058c0.825,0.015,4.457,0,5.383-0.028
		c0.928-0.028,5.401,0,6.471-0.043c1.067-0.04,6.637-0.07,7.565-0.101c0.926-0.028,5.227-0.098,6.012-0.113
		c0.782-0.013,2.336-0.04,2.82-0.068c0.485-0.033,0.926-0.088,1.113-0.061c0.184,0.028,0.214,0.214,0.269,0.33
		c0.055,0.111,0.328,0.981,0.457,1.365c0.126,0.386,0.227,0.898,0.242,1.14c0.012,0.242,0.098,0.543,0.043,0.6
		c-0.059,0.058-0.57,0.356-0.671,0.383c-0.099,0.028-0.227,0.056-0.227,0.056s0.101-0.169,0.028-0.313
		c-0.07-0.139-0.371-0.353-0.555-0.381c-0.186-0.033-0.456,0.028-0.825,0.169c-0.373,0.144-1.456,0.454-2.069,0.585
		c-0.61,0.126-0.88,0.215-1.922,0.242c-1.04,0.028-3.449,0.013-4.473-0.028c-1.027-0.045-4.077-0.131-5.515-0.202
		c-1.44-0.073-5-0.255-6.243-0.315c-1.239-0.055-5.058-0.282-5.966-0.341c-0.913-0.055-5.371-0.326-6.299-0.398
		c-0.926-0.071-5.585-0.356-6.339-0.427c-0.757-0.073-2.379-0.187-2.878-0.214c-0.499-0.028-1.195-0.086-1.453-0.156
		c-0.257-0.071-0.257-0.172-0.457-0.214C148.834,10.701,148.564,10.689,148.564,10.689"/>
	<path fill-rule="evenodd" clip-rule="evenodd" fill="#FFFFFF" d="M146.667,14.235c0,0,0.658-0.401,0.941-0.628
		c0.285-0.227,0.613-0.439,0.686-0.641c0.071-0.199,0.071-0.313,0.071-0.313s2.008,0.058,2.465,0.101
		c0.454,0.04,2.664,0.184,3.249,0.227c0.583,0.043,4.129,0.298,5.242,0.368c1.112,0.073,6.097,0.414,7.093,0.472
		c1,0.058,4.975,0.3,5.956,0.358c0.984,0.055,4.788,0.242,6.029,0.297c1.239,0.056,5.57,0.172,6.312,0.187
		c0.739,0.013,3.161,0.04,3.59,0.013c0.426-0.028,0.953-0.071,1.238-0.071s0.611,0.028,0.626,0.328
		c0.017,0.298-0.043,1.552-0.169,1.965c-0.129,0.414-0.414,1.097-0.628,1.282c-0.215,0.187-0.54,0.358-0.54,0.358
		s0.126-0.27,0.043-0.429c-0.086-0.156-0.386-0.386-0.597-0.371c-0.215,0.013-1.484,0.328-2.109,0.399
		c-0.628,0.071-1.667,0.187-2.452,0.171c-0.782-0.013-2.593-0.086-3.506-0.156c-0.908-0.07-3.391-0.257-4.629-0.383
		c-1.239-0.129-4.617-0.502-6.183-0.684c-1.569-0.187-4.733-0.585-5.84-0.727c-1.113-0.144-4.733-0.628-5.701-0.769
		c-0.969-0.144-3.562-0.485-4.273-0.6c-0.714-0.114-2.951-0.442-3.59-0.527c-0.643-0.083-1.042-0.171-1.327-0.171
		c-0.285,0-0.499-0.028-0.868,0c-0.371,0.028-0.312,0.028-0.484,0.028c-0.159,0-0.215-0.013-0.386-0.028
		C146.753,14.278,146.667,14.235,146.667,14.235"/>
	<path fill-rule="evenodd" clip-rule="evenodd" fill="#FFFFFF" d="M144.959,17.454c0,0,0.54-0.171,0.84-0.313
		c0.3-0.144,0.785-0.27,0.926-0.512c0.144-0.242,0.172-0.3,0.157-0.457c-0.013-0.156-0.055-0.3-0.055-0.3s0.94,0.058,1.309,0.086
		c0.371,0.03,2.152,0.3,2.707,0.371c0.558,0.073,3.277,0.497,4.018,0.6c0.741,0.098,5.772,0.797,6.753,0.926
		c0.984,0.126,5.287,0.684,6.084,0.77c0.798,0.083,5.641,0.628,6.398,0.696c0.754,0.071,3.476,0.328,4.414,0.398
		c0.941,0.073,2.952,0.187,3.819,0.2c0.87,0.015,1.496-0.013,1.723,0.058c0.23,0.073,0.401,0.227,0.359,0.386
		c-0.043,0.156-0.227,1.524-0.313,1.794c-0.086,0.272-0.227,0.8-0.359,0.984c-0.126,0.184-0.227,0.398-0.441,0.515
		c-0.215,0.111-0.298,0.141-0.298,0.141s0.157-0.3,0.071-0.472c-0.086-0.169-0.398-0.469-0.585-0.484
		c-0.184-0.015-0.898,0.116-1.368,0.187c-0.469,0.071-1.336,0.172-1.925,0.214c-0.582,0.04-1.321,0.099-1.695,0.084
		c-0.368-0.015-1.067-0.084-1.68-0.169c-0.613-0.088-2.863-0.399-3.663-0.53c-0.797-0.126-3.418-0.583-4.513-0.782
		c-1.1-0.2-4.99-0.984-5.744-1.156c-0.755-0.169-3.648-0.797-4.375-0.969c-0.726-0.169-3.89-0.911-4.616-1.095
		c-0.726-0.187-2.747-0.656-3.292-0.785c-0.54-0.129-1.65-0.398-1.95-0.457c-0.3-0.055-0.641-0.141-0.898-0.073
		c-0.257,0.073-0.784,0.229-0.953,0.288c-0.172,0.058-0.199,0.086-0.457,0.043C145.103,17.598,144.959,17.454,144.959,17.454"/>
	<path fill-rule="evenodd" clip-rule="evenodd" fill="#FFFFFF" d="M142.507,20.204c0,0,0.527-0.028,0.77-0.083
		c0.242-0.058,0.855-0.187,1.127-0.27c0.27-0.088,0.368-0.131,0.398-0.272c0.028-0.141-0.03-0.527,0.015-0.684
		c0.04-0.156,0.112-0.343,0.112-0.343s0.585,0.129,0.827,0.144c0.242,0.015,1.07,0.187,1.41,0.27
		c0.344,0.086,4.246,1.067,4.859,1.226c0.613,0.156,5.073,1.238,5.84,1.397c0.772,0.154,4.402,0.954,5.217,1.123
		c0.813,0.171,6.211,1.168,7.109,1.312c0.898,0.141,3.973,0.626,4.702,0.699c0.727,0.071,1.781,0.184,1.996,0.242
		c0.214,0.058,0.411,0.141,0.368,0.398c-0.056,0.356-0.356,1.07-0.527,1.41c-0.169,0.341-0.441,0.956-0.739,1.299
		c-0.3,0.341-0.5,0.611-0.699,0.739c-0.2,0.129-0.27,0.169-0.27,0.169s0.171-0.255,0.128-0.426c-0.045-0.169-0.3-0.399-0.558-0.442
		c-0.257-0.04-0.812-0.013-1.367-0.013c-0.552,0-2.179-0.073-3.605-0.288c-1.423-0.212-3.605-0.568-5.07-0.911
		c-1.468-0.343-3.564-0.84-5.061-1.269c-1.493-0.426-3.958-1.125-5.515-1.65c-1.551-0.53-3.544-1.183-4.414-1.498
		c-0.87-0.313-3.421-1.211-3.819-1.367c-0.398-0.156-0.669-0.214-0.969-0.242c-0.298-0.028-0.669,0.043-0.984,0
		c-0.313-0.043-0.699-0.144-0.867-0.2c-0.172-0.055-0.298-0.098-0.371-0.229C142.479,20.317,142.507,20.204,142.507,20.204"/>
	<path fill-rule="evenodd" clip-rule="evenodd" fill="#FFFFFF" d="M139.543,22.711c0,0,0.956-0.227,1.441-0.414
		c0.409-0.154,0.941-0.383,1.397-0.341c0.454,0.043,1.438,0.371,1.993,0.583c0.555,0.214,2.535,0.913,3.065,1.112
		c0.527,0.202,5.056,1.725,5.782,1.953c0.726,0.227,4.662,1.397,5.487,1.625c0.825,0.229,4.616,1.198,5.515,1.38
		c0.895,0.187,2.376,0.457,2.836,0.545c0.454,0.083,0.883,0.197,0.923,0.411c0.043,0.214,0.015,0.557-0.071,0.726
		c-0.083,0.171-0.227,0.727-0.356,1.07c-0.129,0.341-0.3,0.782-0.482,0.984c-0.187,0.199-0.6,0.285-0.6,0.285
		s0.214-0.144,0.186-0.358c-0.03-0.212-0.101-0.313-0.272-0.426c-0.171-0.116-0.269-0.214-0.512-0.227
		c-0.242-0.015-0.87,0.055-1.355,0.083c-0.485,0.028-2.152,0.028-2.806,0.028c-0.656,0-1.312,0.043-1.796-0.013
		c-0.485-0.058-1.083-0.159-1.837-0.371c-0.757-0.212-2.621-0.898-3.451-1.224c-0.825-0.33-3.29-1.425-3.945-1.723
		c-0.656-0.303-3.105-1.514-3.918-1.925c-0.81-0.414-1.965-0.986-2.593-1.327c-0.625-0.341-1.98-1.082-2.336-1.254
		c-0.356-0.171-0.741-0.298-1.042-0.356c-0.298-0.058-0.726-0.227-0.852-0.285c-0.129-0.058-0.442-0.141-0.442-0.141L139.543,22.711
		z"/>
	<path fill-rule="evenodd" clip-rule="evenodd" fill="#FFFFFF" d="M136.395,24.863c0,0,1.011-0.227,1.268-0.325
		c0.255-0.101,0.813-0.229,1.027-0.187c0.212,0.043,0.954,0.399,1.395,0.641c0.441,0.245,2.394,1.284,3.022,1.61
		c0.626,0.33,3.204,1.652,3.789,1.937c0.585,0.285,2.479,1.226,3.161,1.526c0.686,0.3,3.05,1.352,3.721,1.622
		c0.618,0.252,1.609,0.615,2.179,0.815c0.57,0.197,1.297,0.411,1.637,0.512c0.344,0.098,0.941,0.257,0.984,0.411
		c0.043,0.159,0.043,0.386-0.071,0.628c-0.113,0.242-0.383,0.996-0.514,1.239c-0.127,0.242-0.341,0.714-0.525,0.885
		c-0.186,0.169-0.272,0.257-0.386,0.285c-0.113,0.028-0.126,0.013-0.126,0.013s0.212-0.255,0.212-0.356
		c0-0.098-0.128-0.442-0.3-0.555c-0.169-0.114-0.399-0.23-0.583-0.23c-0.186,0-0.769,0-1.324-0.055
		c-0.558-0.055-1.468-0.172-2.137-0.313c-0.671-0.144-1.128-0.214-1.682-0.457c-0.555-0.242-1.781-0.883-2.422-1.254
		c-0.643-0.371-2.679-1.625-3.32-2.053c-0.608-0.404-3.532-2.492-3.976-2.805c-0.441-0.315-1.496-1.082-1.922-1.41
		c-0.429-0.328-1.039-0.815-1.282-0.926c-0.242-0.114-0.956-0.373-1.201-0.472c-0.239-0.098-0.512-0.184-0.582-0.341
		C136.367,25.093,136.395,24.863,136.395,24.863"/>
	<path fill-rule="evenodd" clip-rule="evenodd" fill="#FFFFFF" d="M133.289,26.745c0,0,0.555,0.028,0.797-0.028
		c0.242-0.058,0.755-0.202,0.913-0.202c0.157,0,0.454-0.055,0.739,0.071c0.285,0.131,1.012,0.545,1.385,0.843
		c0.368,0.3,1.922,1.496,2.406,1.852c0.485,0.356,2.821,2.011,3.29,2.336c0.472,0.328,2.593,1.738,3.164,2.081
		c0.573,0.343,1.625,0.984,2.136,1.282c0.515,0.3,1.085,0.585,1.241,0.742c0.157,0.159,0.356,0.313,0.2,0.671
		c-0.159,0.353-0.611,1.082-0.726,1.254c-0.114,0.171-0.429,0.484-0.583,0.595c-0.159,0.116-0.23,0.144-0.23,0.144
		s0.242-0.27,0.197-0.457c-0.04-0.184-0.154-0.454-0.44-0.611c-0.285-0.156-0.855-0.214-1.281-0.315
		c-0.427-0.098-2.011-0.484-2.621-0.653c-0.616-0.172-1.128-0.316-1.511-0.6c-0.386-0.285-1.395-1.224-1.88-1.668
		c-0.484-0.439-1.514-1.41-2.096-1.937c-0.583-0.527-1.781-1.652-2.208-2.063c-0.429-0.414-1.597-1.44-1.799-1.667
		c-0.196-0.23-0.681-0.684-0.825-0.827c-0.144-0.141-0.255-0.129-0.341-0.272c-0.086-0.139-0.043-0.353-0.015-0.411
		C133.234,26.843,133.289,26.745,133.289,26.745"/>
	<path fill-rule="evenodd" clip-rule="evenodd" fill="#FFFFFF" d="M129.712,29.124l0.128-0.429c0.043-0.141,0.043-0.227,0.043-0.227
		s0.499,0.028,0.898-0.028c0.399-0.058,0.613-0.156,0.954-0.129c0.343,0.03,0.5,0.101,0.671,0.442
		c0.172,0.343,0.684,0.898,1.04,1.241c0.356,0.341,2.081,1.935,2.608,2.437c0.524,0.497,2.192,2.079,2.78,2.606
		c0.581,0.527,1.377,1.224,1.592,1.438c0.214,0.214,0.714,0.699,0.83,0.842c0.111,0.141,0.083,0.426-0.046,0.638
		c-0.126,0.215-0.398,0.656-0.598,0.843c-0.199,0.187-0.628,0.484-0.628,0.484s0.159-0.313,0.116-0.456
		c-0.043-0.144-0.358-0.427-0.585-0.512c-0.23-0.083-1.208-0.343-1.637-0.469c-0.429-0.131-1.37-0.499-1.625-0.699
		c-0.257-0.199-1.382-1.551-1.64-1.867c-0.257-0.313-1.239-1.594-1.579-2.038c-0.343-0.441-1.1-1.496-1.514-2.021
		c-0.411-0.53-1.052-1.37-1.223-1.541c-0.172-0.169-0.2-0.257-0.356-0.368C129.783,29.194,129.712,29.124,129.712,29.124"/>
	<path fill-rule="evenodd" clip-rule="evenodd" fill="#FFFFFF" d="M126.223,29.581c0,0,0.626,0.083,0.981,0.083
		c0.359,0,0.687-0.04,0.843-0.013c0.154,0.028,0.356,0.013,0.512,0.2c0.156,0.187,0.242,0.512,0.312,0.699
		c0.071,0.187,1.211,1.794,1.398,2.051c0.184,0.255,0.996,1.339,1.355,1.811c0.356,0.469,1.324,1.708,1.607,2.081
		c0.285,0.368,0.858,0.951,0.999,1.165c0.144,0.215,0.512,0.742,0.568,0.855c0.06,0.113-0.084,0.27-0.169,0.383
		c-0.086,0.116-0.254,0.315-0.429,0.484c-0.172,0.171-0.426,0.358-0.497,0.386c-0.07,0.028,0.028-0.199,0.043-0.328
		c0.012-0.129-0.069-0.29-0.285-0.454c-0.298-0.23-0.727-0.401-1.055-0.527c-0.328-0.129-1.016-0.336-1.48-0.53
		c-0.441-0.184-0.681-0.315-0.855-0.512c-0.23-0.257-0.699-1.125-0.969-1.61c-0.272-0.484-1.069-1.983-1.269-2.379
		c-0.199-0.401-0.3-0.643-0.328-0.885c-0.03-0.242-0.043-1.123-0.128-1.352c-0.086-0.227-0.343-0.628-0.497-0.754
		c-0.159-0.128-0.214-0.144-0.285-0.187c-0.074-0.04-0.315-0.114-0.315-0.114s-0.028-0.313-0.028-0.383
		C126.251,29.679,126.223,29.581,126.223,29.581"/>
	<path fill-rule="evenodd" clip-rule="evenodd" fill="#FFFFFF" d="M126.009,34.268c0,0,0.398,0.671,0.54,0.898
		c0.144,0.227,0.515,0.714,0.699,1.082c0.186,0.371,0.757,1.312,0.913,1.625c0.154,0.313,0.356,0.598,0.328,0.926
		c-0.03,0.328-0.3,0.714-0.383,0.868c-0.088,0.159-0.101,0.33-0.303,0.484c-0.199,0.159-0.512,0.214-0.512,0.214
		s0.199-0.199,0.214-0.383c0.013-0.184-0.141-0.457-0.242-0.585c-0.099-0.126-0.328-0.356-0.583-0.484
		c-0.257-0.126-0.772-0.398-0.828-0.555c-0.058-0.156-0.073-0.328,0.055-0.641c0.172-0.416,0.144-0.827,0.074-1.153
		c-0.074-0.33-0.129-0.429-0.187-0.545c-0.055-0.111-0.184-0.184-0.184-0.184s0.199-0.726,0.242-0.911L126.009,34.268z"/>
	<path fill-rule="evenodd" clip-rule="evenodd" fill="#FFFFFF" d="M110.85,49.426c0,0,0.954-0.353,1.396-0.555
		c0.444-0.199,1.297-0.568,1.851-0.827c0.585-0.27,2.109-1.11,2.765-1.524c0.653-0.414,1.496-0.996,2.179-1.567
		c0.687-0.57,1.781-1.581,2.223-2.01c0.442-0.424,1.484-1.652,1.796-2.107c0.313-0.457,0.855-1.312,0.855-1.312l1.196,0.6
		c0.515,0.255,1.069,0.497,1.44,0.555c0.368,0.055,0.611,0.099,0.981,0.071c0.371-0.03,0.515-0.101,0.714-0.328
		c0.199-0.227,0.426-0.628,0.512-0.843c0.086-0.212,0.215-0.497,0.215-0.497s0.456,0.212,0.741,0.315l1.38,0.484
		c0.371,0.126,0.911,0.227,1.125,0.383c0.214,0.157,0.272,0.27,0.257,0.426c-0.016,0.159-0.172,0.542-0.313,0.825
		c-0.144,0.288-0.684,1.425-0.898,1.811c-0.215,0.386-1.082,1.794-1.524,2.422c-0.441,0.626-1.854,2.394-2.381,2.894
		c-0.525,0.499-1.168,1.153-1.552,1.352c-0.386,0.199-0.996,0.315-1.41,0.57l-2.167,1.353c-0.567,0.358-1.382,0.842-1.965,1.142
		c-0.585,0.298-2.038,1.025-2.479,1.239c-0.442,0.215-1.042,0.469-1.324,0.6c-0.285,0.125-0.515,0.242-0.742,0.227
		c-0.227-0.015-0.383-0.171-0.484-0.358c-0.098-0.184-0.798-1.383-1.055-1.852c-0.254-0.471-1.233-2.139-1.423-2.437
		c-0.201-0.313-0.285-0.469-0.729-0.641c-0.29-0.111-0.386-0.156-0.525-0.156c-0.143,0-0.234,0.02-0.444-0.043
		C110.918,49.598,110.85,49.426,110.85,49.426"/>
	<path fill-rule="evenodd" clip-rule="evenodd" fill="#FFFFFF" d="M107.586,50.352c0,0,0.782-0.199,1.168-0.325
		c0.383-0.128,0.812-0.285,1.082-0.343c0.27-0.058,0.386-0.07,0.527,0.073c0.143,0.141,0.272,0.411,0.343,0.61
		c0.071,0.199,0.87,1.582,1.138,2.054c0.272,0.467,1.03,1.781,1.256,2.192c0.23,0.414,1.039,1.725,1.211,2.011
		c0.171,0.282,0.371,0.668,0.512,0.898c0.142,0.227,0.371,0.754,0.472,0.968c0.098,0.212,0.187,0.383,0.113,0.568
		c-0.07,0.187-0.542,1.027-0.641,1.242c-0.101,0.213-0.542,0.996-0.542,0.996s-0.043-0.644-0.157-0.956
		c-0.116-0.312-0.242-0.512-0.469-0.668c-0.23-0.157-0.671-0.258-0.843-0.385c-0.169-0.128-0.328-0.241-0.54-0.67
		c-0.215-0.427-0.79-1.972-0.984-2.464c-0.214-0.54-0.925-2.336-1.168-2.935c-0.242-0.6-0.641-1.624-0.828-1.866
		c-0.184-0.242-0.669-0.598-0.825-0.613c-0.157-0.013-0.371-0.058-0.426-0.043c-0.061,0.012-0.242,0.03-0.242,0.03L107.586,50.352z"
		/>
	<path fill-rule="evenodd" clip-rule="evenodd" fill="#FFFFFF" d="M133.105,40.552c0,0,0.353,0.028,0.524-0.058
		c0.172-0.086,0.588-0.399,0.858-0.656c0.27-0.255,0.582-0.598,0.684-0.77c0.098-0.171,0.141-0.212,0.141-0.212
		s0.144,0.04,0.144,0.141s-0.285,1.039-0.374,1.281c-0.083,0.245-0.38,1.042-0.582,1.468c-0.199,0.429-0.84,1.667-1.07,2.079
		c-0.227,0.414-1.266,2.053-1.695,2.636c-0.426,0.585-1.723,2.18-2.121,2.623c-0.398,0.442-1.983,1.98-2.366,2.351
		c-0.386,0.368-3.176,2.207-3.716,2.535c-0.545,0.328-2.323,1.367-2.739,1.596c-0.412,0.228-1.665,0.826-2.092,1.039
		c-0.429,0.215-1.541,0.739-1.811,0.798c-0.27,0.058-0.583,0-0.825-0.028c-0.242-0.031-0.358-0.031-0.441-0.031
		c-0.088,0-0.401,0.043-0.401,0.043l-0.127-0.212c0,0,1.04-0.414,1.567-0.668c0.527-0.258,2.793-1.314,3.434-1.683
		c0.641-0.37,1.98-1.125,2.664-1.582c0.684-0.457,2.323-1.652,2.921-2.18c0.598-0.527,2.308-2.194,2.606-2.565
		c0.3-0.371,1.667-1.637,1.98-1.965c0.315-0.328,0.88-0.845,1.256-1.398c0.418-0.618,1.319-2.084,1.511-2.52
		c0.182-0.429,0.396-0.772,0.353-0.954c-0.04-0.187-0.055-0.358-0.111-0.386c-0.06-0.028-0.373-0.116-0.373-0.116l0.131-0.383
		C133.075,40.65,133.105,40.552,133.105,40.552"/>
	<path fill-rule="evenodd" clip-rule="evenodd" fill="#FFFFFF" d="M104.493,50.938c0,0,0.33,0.014,0.628-0.086
		c0.3-0.101,0.984-0.383,1.269-0.414c0.285-0.028,0.711-0.028,0.782,0.086c0.071,0.116,0.172,0.398,0.3,0.754
		c0.128,0.358,0.969,2.496,1.168,3.065c0.199,0.57,1.14,2.836,1.312,3.305c0.169,0.473,0.61,1.512,0.669,1.726
		c0.058,0.213,0.254,0.781,0.214,0.954c-0.043,0.169-0.383,0.698-0.585,0.996c-0.199,0.3-0.898,1.242-0.898,1.242
		s-0.04-0.374,0.03-0.485c0.071-0.116,0.141-0.356,0.101-0.485c-0.043-0.131-0.201-0.527-0.414-0.699
		c-0.215-0.171-0.615-0.312-0.83-0.511c-0.209-0.203-0.313-0.258-0.467-0.886c-0.159-0.626-0.558-2.305-0.684-2.804
		c-0.131-0.5-0.643-2.863-0.769-3.336c-0.129-0.469-0.242-1.095-0.429-1.337c-0.184-0.245-0.567-0.585-0.726-0.615
		c-0.157-0.028-0.341-0.013-0.398-0.013c-0.058,0-0.159,0.013-0.159,0.013L104.493,50.938z"/>
	<path fill-rule="evenodd" clip-rule="evenodd" fill="#FFFFFF" d="M101.532,51.208c0,0,0.555-0.055,0.769-0.111
		c0.212-0.061,0.798-0.187,1.141-0.187c0.341,0,0.669,0.086,0.726,0.298c0.055,0.213,0.141,0.827,0.184,1.1
		c0.043,0.27,0.656,2.891,0.727,3.275c0.071,0.386,0.784,3.206,0.855,3.619c0.071,0.415,0.313,1.399,0.298,1.625
		c-0.013,0.227,0.015,0.426-0.028,0.499c-0.043,0.071-0.469,0.626-0.684,0.838c-0.215,0.215-0.969,1.171-0.969,1.171
		s-0.07-0.27,0.03-0.401c0.098-0.127,0.313-0.312,0.285-0.527c-0.03-0.212-0.23-0.611-0.414-0.782
		c-0.187-0.171-0.598-0.386-0.785-0.585c-0.184-0.198-0.285-0.356-0.328-0.826c-0.043-0.471-0.229-2.949-0.285-3.76
		c-0.058-0.813-0.229-3.078-0.285-3.419c-0.056-0.342-0.114-0.67-0.341-0.897c-0.23-0.23-0.457-0.344-0.6-0.387
		c-0.142-0.042-0.285-0.058-0.285-0.058L101.532,51.208z"/>
	<path fill-rule="evenodd" clip-rule="evenodd" fill="#FFFFFF" d="M98.454,51.238c0,0,0.568,0.012,0.699-0.03
		c0.126-0.041,0.684-0.115,1.08-0.099c0.401,0.016,0.83,0.113,0.858,0.328c0.028,0.215,0.043,0.91,0.055,1.337
		c0.015,0.429,0.186,2.635,0.199,2.995c0.015,0.356,0.202,2.82,0.242,3.418c0.043,0.598,0.128,1.753,0.113,1.98
		c-0.013,0.23-0.013,0.515-0.013,0.515s-0.656,0.684-0.867,0.868c-0.215,0.187-0.984,0.84-0.984,0.84s0.114-0.325,0.227-0.469
		c0.113-0.142,0.214-0.371,0.129-0.512c-0.086-0.143-0.671-0.757-0.855-0.901c-0.184-0.139-0.426-0.455-0.457-0.755
		c-0.028-0.298,0.114-2.277,0.202-3.106c0.083-0.825,0.197-2.693,0.255-3.332c0.058-0.643,0.141-1.409,0.03-1.682
		c-0.116-0.27-0.328-0.598-0.5-0.684c-0.171-0.083-0.429-0.129-0.429-0.129L98.454,51.238z"/>
	<path fill-rule="evenodd" clip-rule="evenodd" fill="#FFFFFF" d="M95.404,51.051c0,0,0.414,0,0.613-0.013
		c0.199-0.015,0.383-0.058,0.711-0.042c0.33,0.012,0.585,0,0.827,0.083c0.242,0.086,0.429,0.215,0.401,0.615
		c-0.03,0.397-0.131,1.81-0.171,2.207C97.743,54.3,97.5,57.178,97.5,57.448s-0.088,1.526-0.116,1.937
		c-0.02,0.318-0.141,1.097-0.171,1.397c-0.028,0.298-0.184,0.797-0.184,0.856c0,0.055-0.043,0.153-0.043,0.153
		s-0.527,0.429-0.711,0.515c-0.187,0.086-0.187-0.099-0.3-0.212c-0.114-0.116-0.27-0.128-0.543-0.259
		c-0.27-0.127-0.684-0.528-0.868-0.81c-0.184-0.285-0.245-0.57-0.129-1.039c0.114-0.471,0.512-2.097,0.643-2.679
		c0.126-0.585,0.512-2.208,0.638-2.78c0.129-0.57,0.358-1.468,0.358-1.781c0-0.313-0.101-0.61-0.27-0.769
		c-0.171-0.157-0.202-0.185-0.315-0.228c-0.114-0.042-0.23-0.072-0.23-0.072L95.404,51.051z"/>
	<path fill-rule="evenodd" clip-rule="evenodd" fill="#FFFFFF" d="M92.311,50.539c0,0,0.416,0.043,0.613,0.043
		c0.199,0,0.542-0.043,0.926,0.04c0.386,0.088,0.843,0.159,0.898,0.33c0.058,0.169,0.144,0.356,0.043,0.727
		c-0.098,0.368-0.769,3.148-0.88,3.619c-0.116,0.47-0.628,2.677-0.714,3.048c-0.086,0.371-0.371,1.64-0.457,1.922
		c-0.086,0.286-0.255,0.828-0.285,0.886c-0.028,0.055-0.442,0.27-0.543,0.312c-0.098,0.043-0.242,0.113-0.242,0.113
		s0.156-0.227,0.101-0.37c-0.055-0.143-0.215-0.298-0.429-0.298c-0.212,0-0.454,0.171-0.626,0.113
		c-0.171-0.058-0.441-0.171-0.64-0.643c-0.2-0.468-0.215-0.54-0.144-0.896c0.073-0.358,0.956-2.464,1.141-2.965
		c0.187-0.497,0.984-2.566,1.183-3.062c0.199-0.499,0.472-1.155,0.457-1.352c-0.015-0.203-0.171-0.53-0.27-0.628
		c-0.101-0.101-0.242-0.159-0.303-0.145c-0.055,0.016-0.126-0.042-0.126-0.042L92.311,50.539z"/>
	<path fill-rule="evenodd" clip-rule="evenodd" fill="#FFFFFF" d="M89.276,49.711c0,0,0.3,0.099,0.6,0.099s0.613-0.013,0.954,0.088
		c0.343,0.098,0.8,0.368,0.87,0.555c0.07,0.187-0.101,0.54-0.3,0.984c-0.2,0.441-1.125,2.906-1.34,3.434
		c-0.214,0.524-1.155,2.891-1.281,3.221c-0.129,0.325-0.543,1.324-0.671,1.579c-0.126,0.257-0.227,0.511-0.227,0.511l-0.527,0.159
		c0,0,0.144-0.215,0.055-0.342c-0.083-0.129-0.353-0.399-0.512-0.412c-0.154-0.015-0.368,0.029-0.555,0.099
		c-0.227,0.086-0.499,0.086-0.598-0.099c-0.101-0.186-0.386-0.714-0.414-0.842c-0.028-0.127-0.128-0.313,0.015-0.584
		c0.141-0.27,1.067-1.98,1.266-2.296c0.199-0.312,1.282-2.136,1.524-2.578c0.242-0.441,0.843-1.453,0.956-1.681
		c0.114-0.229,0.184-0.414,0.101-0.585c-0.088-0.172-0.088-0.257-0.187-0.3c-0.101-0.043-0.27-0.071-0.27-0.071L89.276,49.711z"/>
	<path fill-rule="evenodd" clip-rule="evenodd" d="M100.265,43.473h-0.24c-3.118,0-6.65-0.873-6.65-5.895
		c0-5.043,3.471-6.037,6.766-6.067c3.145,0.028,6.486,1.181,6.486,6.067C106.627,41.995,103.535,43.473,100.265,43.473"/>
	<path fill-rule="evenodd" clip-rule="evenodd" fill="#FFFFFF" d="M99.632,50.66c-14.876,0-26.125-9.17-26.125-19.578
		c0-10.414,11.249-19.581,26.125-19.581s26.125,9.167,26.125,19.581C125.757,41.49,114.508,50.66,99.632,50.66"/>
	<path fill-rule="evenodd" clip-rule="evenodd" d="M99.594,18.531c3.597,0.03,6.022,1.488,6.022,5.472
		c0,4.162-2.535,5.502-6.022,5.525c-3.33-0.02-6.027-1.211-6.027-5.525C93.568,20.176,96.302,18.559,99.594,18.531"/>
	<path fill-rule="evenodd" clip-rule="evenodd" d="M109.77,30.085c3.583-2.033,4.319-4.089,4.047-6.501
		c-0.49-4.354-6.453-7.465-14.349-7.369c-9.508,0.108-15.262,4.874-15.262,6.117c0,1.244,1.884,1.562,1.884,2.233l0.002,13.098
		c0.02,0.815-1.771,1.718-1.771,2.621c0,0.936,6.125,5.452,16.254,5.393c8.902-0.05,14.015-3.781,14.064-8.249
		c0.028-2.417-1.38-5.671-4.869-7.288V30.085z"/>
	<path fill-rule="evenodd" clip-rule="evenodd" d="M99.639,12.409c15.038,0,25.267,9.382,25.267,18.728
		c0,9.349-10.229,18.731-25.267,18.731c-15.037,0-25.262-9.382-25.262-18.731C74.378,21.791,84.602,12.409,99.639,12.409"/>
	<path fill-rule="evenodd" clip-rule="evenodd" fill="#FFFFFF" d="M99.594,18.531c3.597,0.03,6.019,1.488,6.019,5.472
		c0,4.162-2.533,5.502-6.019,5.525c-3.33-0.02-6.027-1.211-6.027-5.525C93.568,20.176,96.302,18.559,99.594,18.531 M109.77,30.085
		c3.583-2.031,4.319-4.089,4.047-6.501c-0.49-4.354-6.456-7.462-14.352-7.371c-9.505,0.113-15.259,4.876-15.259,6.12
		c0,1.244,1.884,1.564,1.884,2.233l0.002,13.1c0.02,0.812-1.771,1.718-1.771,2.618c0,0.939,6.125,5.452,16.254,5.393
		c8.902-0.048,14.015-3.781,14.064-8.249c0.025-2.414-1.38-5.671-4.869-7.288V30.085z M100.265,43.473h-0.24
		c-3.118,0-6.65-0.873-6.65-5.895c0-5.043,3.471-6.037,6.766-6.067c3.145,0.028,6.486,1.181,6.486,6.067
		C106.627,41.995,103.535,43.473,100.265,43.473"/>
</g>
</svg>
