<?xml version="1.0" encoding="utf-8"?>
<!-- Generator: Adobe Illustrator 16.0.0, SVG Export Plug-In . SVG Version: 6.00 Build 0)  -->
<!DOCTYPE svg PUBLIC "-//W3C//DTD SVG 1.1//EN" "http://www.w3.org/Graphics/SVG/1.1/DTD/svg11.dtd">
<svg version="1.1" id="Layer_1" xmlns="http://www.w3.org/2000/svg" xmlns:xlink="http://www.w3.org/1999/xlink" x="0px" y="0px"
	 width="70px" height="70px" viewBox="0 0 70 70" enable-background="new 0 0 70 70" xml:space="preserve">
<g>
	<path fill="#010101" d="M35,0C15.702,0,0,15.701,0,35s15.702,35,35,35c19.299,0,35-15.701,35-35S54.299,0,35,0z M35,69.419
		C16.021,69.419,0.581,53.979,0.581,35C0.581,16.021,16.021,0.581,35,0.581c18.979,0,34.419,15.44,34.419,34.419
		C69.419,53.979,53.979,69.419,35,69.419z"/>
	<path fill="#010101" d="M14.784,21.073c0.036,0.03,0.07,0.057,0.106,0.085c0.005,0.005,0.024-0.026,0.026-0.028
		c0.691-0.865,1.386-1.729,2.077-2.593c0.251-0.314,0.502-0.629,0.754-0.943c0.256-0.318,0.307-0.731,0.152-1.106
		c-0.187-0.386-0.565-0.642-1.002-0.627c-0.362,0.012-0.641,0.205-0.859,0.48c-0.305,0.38-0.61,0.763-0.916,1.145
		c-0.627,0.785-1.255,1.567-1.882,2.353c0.326,0.26,0.651,0.522,0.978,0.784C14.408,20.772,14.595,20.922,14.784,21.073z"/>
	<path fill="#010101" d="M14.71,15.028c0.076-0.345-0.003-0.706-0.243-0.972c-0.297-0.327-0.779-0.435-1.189-0.267
		c-0.301,0.125-0.476,0.386-0.672,0.63c-0.74,0.926-1.483,1.854-2.225,2.78c-0.012,0.014-0.173,0.209-0.168,0.213
		c0.151,0.122,0.303,0.244,0.456,0.366c0.398,0.318,0.796,0.638,1.193,0.957c0.393-0.489,0.784-0.978,1.174-1.467
		c0.391-0.486,0.781-0.975,1.173-1.463C14.403,15.561,14.622,15.334,14.71,15.028z"/>
	<path fill="#010101" d="M35,1.128C16.293,1.128,1.128,16.292,1.128,35S16.293,68.872,35,68.872
		c18.708,0,33.872-15.165,33.872-33.872S53.708,1.128,35,1.128z M29.531,3.243l3.174-0.352L35,9.595l2.293-6.705l3.176,0.352
		l0.354,9.527l-2.472-0.353l-0.233-6.351l-2.235,6.351h-1.764l-2.234-6.351l-0.234,6.351l-2.472,0.353L29.531,3.243z M8.148,18.924
		c-0.255-0.205-0.511-0.409-0.766-0.614c-0.007-0.004-0.096-0.072-0.091-0.074c0.043-0.055,0.086-0.109,0.13-0.163
		c0.658-0.824,1.316-1.646,1.977-2.469c0.767-0.959,1.533-1.917,2.301-2.875c0.147-0.185,0.295-0.368,0.441-0.551
		c0.259-0.323,0.603-0.571,0.99-0.714c0.821-0.308,1.773-0.107,2.4,0.506c0.308,0.299,0.528,0.686,0.629,1.103
		c0.104,0.43,0.068,0.854-0.055,1.271c0.057-0.047,0.113-0.097,0.173-0.141c0.739-0.523,1.714-0.667,2.554-0.285
		c0.835,0.379,1.381,1.14,1.51,2.045c0.031,0.338,0.016,0.68-0.084,1.007c-0.193,0.637-0.643,1.116-1.049,1.624
		c-0.787,0.984-1.574,1.967-2.361,2.951c-0.658,0.82-1.315,1.641-1.973,2.462c-0.048,0.061-0.096,0.12-0.144,0.181
		c-0.012,0.013-0.068-0.044-0.077-0.054c-0.245-0.195-0.489-0.391-0.732-0.584c-0.959-0.768-1.916-1.535-2.873-2.301
		C10.083,20.473,9.115,19.699,8.148,18.924z M35,56.171c-11.691,0-21.171-9.479-21.171-21.171c0-11.692,9.48-21.171,21.171-21.171
		c11.691,0,21.171,9.479,21.171,21.171C56.171,46.691,46.691,56.171,35,56.171z M55.165,24.055l-1.214-2.082l4.188-5.499
		l-6.283,2.881l-1.764-1.638l5.727-7.524l1.767,1.64l-3.306,4.341l5.289-2.427l1.545,1.928l-3.526,4.63l4.961-2.275l1.212,2.081
		L55.165,24.055z"/>
	<path fill="#1676C3" d="M14.902,35H35V14.902C24.028,15.187,15.188,24.028,14.902,35z"/>
	<path fill="#1676C3" d="M35,55.098C45.973,54.813,54.813,45.973,55.098,35H35V55.098z"/>
</g>
</svg>
