<?xml version="1.0" encoding="utf-8"?>
<!-- Generator: Adobe Illustrator 17.0.0, SVG Export Plug-In . SVG Version: 6.00 Build 0)  -->
<!DOCTYPE svg PUBLIC "-//W3C//DTD SVG 1.1//EN" "http://www.w3.org/Graphics/SVG/1.1/DTD/svg11.dtd">
<svg version="1.1" id="Layer_1" xmlns="http://www.w3.org/2000/svg" xmlns:xlink="http://www.w3.org/1999/xlink" x="0px" y="0px"
	 width="150px" height="142.458px" viewBox="0 0 150 142.458" enable-background="new 0 0 150 142.458" xml:space="preserve">
<g>
	<path fill-rule="evenodd" clip-rule="evenodd" d="M110.325,43.061l0.008-5.12l0,0c0.217-0.171,0.429-0.349,0.619-0.556
		c0.924-1.011,1.399-2.32,1.339-3.688c-0.061-1.367-0.65-2.629-1.661-3.553c-2.085-1.908-5.333-1.764-7.241,0.321
		c-0.262,0.287-0.476,0.597-0.661,0.921c-0.223-0.075-0.449-0.146-0.673-0.221c0.043-0.447,0.049-0.9-0.028-1.355
		c-0.229-1.349-0.969-2.529-2.086-3.322c-2.304-1.635-5.51-1.091-7.146,1.213c-0.23,0.324-0.406,0.672-0.553,1.029
		c-0.228-0.049-0.456-0.092-0.684-0.138c-0.01-0.46-0.059-0.92-0.195-1.372c-0.394-1.311-1.275-2.391-2.481-3.039
		c-1.206-0.649-2.591-0.789-3.902-0.395c-1.312,0.394-2.391,1.275-3.039,2.481c-0.186,0.346-0.319,0.709-0.42,1.08
		c-0.234-0.019-0.468-0.034-0.702-0.05c-0.262-1.765-1.415-3.351-3.195-4.041c-2.635-1.021-5.61,0.291-6.632,2.926
		c-0.143,0.371-0.229,0.752-0.285,1.135c-0.232,0.013-0.465,0.028-0.697,0.042c-0.473-1.727-1.816-3.167-3.674-3.633
		c-2.741-0.689-5.531,0.981-6.22,3.722c-0.096,0.382-0.134,0.766-0.143,1.151c-0.231,0.038-0.461,0.081-0.692,0.121
		c-0.687-1.647-2.193-2.901-4.088-3.134c-2.805-0.345-5.368,1.657-5.713,4.462c-0.048,0.392-0.04,0.777-0.001,1.153
		c-0.223,0.067-0.446,0.138-0.67,0.208c-0.227-0.396-0.486-0.774-0.818-1.104c-0.969-0.967-2.257-1.499-3.626-1.497
		c-1.369,0.002-2.655,0.537-3.623,1.505c-0.966,0.97-1.499,2.257-1.497,3.627c0.002,1.564,0.723,2.947,1.83,3.886l0,0v5.273H28.154
		l12.564,13.688v24.613l0,0c-0.072,8.07,1.67,13.354,10.564,14.752c2.08,0.327,4.24,0.573,6.33,0.81
		c7.066,0.804,13.739,1.563,17.895,5.23l0,0l0.305,0.269l0.305-0.269l0,0c4.169-3.68,10.894-4.453,18.013-5.27
		c2.071-0.239,4.214-0.484,6.272-0.808c8.894-1.397,10.636-6.682,10.564-14.756c0,0.004,0-22.471,0-24.609l0,0l12.564-13.688
		H110.325L110.325,43.061L110.325,43.061z"/>
	<path fill-rule="evenodd" clip-rule="evenodd" fill="#FFFFFF" d="M104.068,31.086c0.758-0.828,1.793-1.312,2.916-1.362
		c1.122-0.049,2.196,0.341,3.024,1.099c0.829,0.759,1.313,1.794,1.362,2.916c0.05,1.122-0.34,2.196-1.099,3.025
		c-0.758,0.828-1.793,1.312-2.915,1.362c-1.123,0.05-2.196-0.341-3.025-1.099C102.622,35.462,102.503,32.797,104.068,31.086
		L104.068,31.086L104.068,31.086L104.068,31.086z"/>
	<path fill-rule="evenodd" clip-rule="evenodd" fill="#FFFFFF" d="M102.753,36.476c0.256,0.444,0.56,0.867,0.957,1.23
		c1.009,0.924,2.319,1.4,3.687,1.339c0.454-0.02,0.889-0.118,1.312-0.252c0.002,0.001,0.005,0.002,0.008,0.003l0,0l-4.773,2.926l0,0
		c-0.153-0.06-0.307-0.119-0.461-0.177l0,0l-1.52-5.354l0,0C102.228,36.279,102.49,36.381,102.753,36.476L102.753,36.476
		L102.753,36.476L102.753,36.476z"/>
	<path fill-rule="evenodd" clip-rule="evenodd" fill="#FFFFFF" d="M76.441,84.554v-4.668h30.465v2.487l0,0
		c-0.011,0.693-0.046,1.431-0.129,2.181l0,0H76.441L76.441,84.554L76.441,84.554z"/>
	<path fill-rule="evenodd" clip-rule="evenodd" fill="#FFFFFF" d="M106.571,85.869c-0.56,2.797-2.022,5.462-5.779,6.136
		c-1.076,0.154-2.431,0.319-3.865,0.494c-6.836,0.835-15.985,1.958-20.486,4.602l0,0V85.869H106.571L106.571,85.869L106.571,85.869z
		"/>
	<polygon fill-rule="evenodd" clip-rule="evenodd" fill="#FFFFFF" points="76.441,78.571 76.441,70.757 106.906,70.757 
		106.906,78.571 76.441,78.571 76.441,78.571 	"/>
	<polygon fill-rule="evenodd" clip-rule="evenodd" fill="#FFFFFF" points="91.389,58.944 91.389,61.617 76.441,61.617 
		76.441,58.944 91.389,58.944 91.389,58.944 	"/>
	<polygon fill-rule="evenodd" clip-rule="evenodd" fill="#FFFFFF" points="76.441,57.629 76.441,46.827 91.389,46.827 
		91.389,57.629 76.441,57.629 76.441,57.629 	"/>
	<polygon fill-rule="evenodd" clip-rule="evenodd" fill="#FFFFFF" points="91.389,62.932 91.389,65.606 76.441,65.606 
		76.441,62.932 91.389,62.932 91.389,62.932 	"/>
	<polygon fill-rule="evenodd" clip-rule="evenodd" fill="#FFFFFF" points="91.389,66.922 91.389,69.442 76.441,69.442 
		76.441,66.922 91.389,66.922 91.389,66.922 	"/>
	<polygon fill-rule="evenodd" clip-rule="evenodd" fill="#FFFFFF" points="92.704,69.442 92.704,58.944 106.906,58.944 
		106.906,69.442 92.704,69.442 92.704,69.442 	"/>
	<polygon fill-rule="evenodd" clip-rule="evenodd" fill="#FFFFFF" points="92.704,57.629 92.704,54.954 106.906,54.954 
		106.906,55.073 106.906,57.629 92.704,57.629 92.704,57.629 	"/>
	<polygon fill-rule="evenodd" clip-rule="evenodd" fill="#FFFFFF" points="92.704,53.639 92.704,50.965 110.549,50.965 
		108.015,53.639 92.704,53.639 92.704,53.639 	"/>
	<polygon fill-rule="evenodd" clip-rule="evenodd" fill="#FFFFFF" points="92.704,49.65 92.704,46.827 114.471,46.827 
		111.796,49.65 92.704,49.65 92.704,49.65 	"/>
	<path fill-rule="evenodd" clip-rule="evenodd" fill="#FFFFFF" d="M42.263,45.512c10.381-5.039,21.902-7.722,33.521-7.722
		c11.617,0,23.139,2.684,33.52,7.722l0,0H42.263L42.263,45.512L42.263,45.512z"/>
	<polygon fill-rule="evenodd" clip-rule="evenodd" fill="#FFFFFF" points="60.792,81.563 60.792,78.889 75.127,78.889 
		75.127,81.563 60.792,81.563 60.792,81.563 	"/>
	<path fill-rule="evenodd" clip-rule="evenodd" fill="#FFFFFF" d="M75.127,82.877v14.225l0,0c-3.236-1.899-8.872-3.014-14.335-3.8
		l0,0V82.877H75.127L75.127,82.877L75.127,82.877z"/>
	<polygon fill-rule="evenodd" clip-rule="evenodd" fill="#FFFFFF" points="60.792,77.574 60.792,74.899 75.127,74.899 
		75.127,77.574 60.792,77.574 60.792,77.574 	"/>
	<polygon fill-rule="evenodd" clip-rule="evenodd" fill="#FFFFFF" points="60.792,73.584 60.792,70.766 75.127,70.766 
		75.127,73.584 60.792,73.584 60.792,73.584 	"/>
	<path fill-rule="evenodd" clip-rule="evenodd" fill="#FFFFFF" d="M44.625,69.45c0-2.681,0-5.395,0-7.736l0,0h30.502v7.736H44.625
		L44.625,69.45L44.625,69.45z"/>
	<path fill-rule="evenodd" clip-rule="evenodd" fill="#FFFFFF" d="M46.556,89.541v0.073l0,0c-0.634-0.811-1.067-1.754-1.355-2.748
		l0,0h14.276v2.674H46.556L46.556,89.541L46.556,89.541z"/>
	<path fill-rule="evenodd" clip-rule="evenodd" fill="#FFFFFF" d="M59.477,90.856v2.262l0,0c-1.683-0.229-3.329-0.431-4.857-0.618
		c-1.441-0.175-2.803-0.342-3.904-0.499c-1.156-0.207-2.082-0.613-2.844-1.146l0,0H59.477L59.477,90.856L59.477,90.856z"/>
	<path fill-rule="evenodd" clip-rule="evenodd" fill="#FFFFFF" d="M44.902,85.551c-0.159-0.906-0.234-1.815-0.262-2.674l0,0h14.837
		v2.674H44.902L44.902,85.551L44.902,85.551z"/>
	<path fill-rule="evenodd" clip-rule="evenodd" fill="#FFFFFF" d="M44.625,81.563c0-1.735,0-6.095,0-10.797l0,0h14.852v10.797
		H44.625L44.625,81.563L44.625,81.563z"/>
	<path fill-rule="evenodd" clip-rule="evenodd" fill="#FFFFFF" d="M44.625,60.399c0-2.114,0-3.796,0-4.669l0,0h30.502v4.669H44.625
		L44.625,60.399L44.625,60.399z"/>
	<polygon fill-rule="evenodd" clip-rule="evenodd" fill="#FFFFFF" points="44.274,54.415 44.274,54.441 37.059,46.827 
		75.127,46.827 75.127,54.415 44.274,54.415 44.274,54.415 	"/>
	<path fill-rule="evenodd" clip-rule="evenodd" fill="#FFFFFF" d="M92.902,33.744c0.313,0.414,0.672,0.795,1.107,1.104
		c1.116,0.792,2.474,1.103,3.824,0.873c0.441-0.075,0.855-0.223,1.252-0.403c0.251,0.07,0.502,0.135,0.752,0.211l0,0l-4.412,3.472
		l0,0c-0.271-0.07-0.536-0.158-0.808-0.226l0,0l-2.13-5.129l0,0C92.625,33.676,92.763,33.712,92.902,33.744L92.902,33.744
		L92.902,33.744L92.902,33.744z"/>
	<path fill-rule="evenodd" clip-rule="evenodd" fill="#FFFFFF" d="M100.91,35.854l1.512,5.321l0,0
		c-1.941-0.702-3.909-1.32-5.901-1.866l0,0L100.91,35.854L100.91,35.854L100.91,35.854z"/>
	<path fill-rule="evenodd" clip-rule="evenodd" fill="#FFFFFF" d="M93.521,38.54c-2.087-0.484-4.194-0.876-6.316-1.19l0,0
		l3.961-3.948l0,0c0.079,0.015,0.159,0.029,0.239,0.045l0,0L93.521,38.54L93.521,38.54L93.521,38.54z"/>
	<path fill-rule="evenodd" clip-rule="evenodd" fill="#FFFFFF" d="M86.076,37.177c-0.282-0.038-0.56-0.091-0.843-0.126l0,0
		l-2.69-4.801l0,0c0.094,0.007,0.186,0.019,0.28,0.028c0.356,0.359,0.748,0.684,1.205,0.93c1.206,0.648,2.592,0.789,3.903,0.395
		c0.425-0.128,0.814-0.324,1.184-0.548c0.318,0.047,0.638,0.087,0.954,0.142l0,0L86.076,37.177L86.076,37.177L86.076,37.177z"/>
	<path fill-rule="evenodd" clip-rule="evenodd" fill="#FFFFFF" d="M84.12,36.949c-2.171-0.234-4.353-0.368-6.541-0.419l0,0
		l3.398-4.402l0,0c0.155,0.009,0.309,0.025,0.463,0.036l0,0L84.12,36.949L84.12,36.949L84.12,36.949z"/>
	<path fill-rule="evenodd" clip-rule="evenodd" fill="#FFFFFF" d="M76.442,36.495c-0.219-0.001-0.438-0.02-0.658-0.02
		c-0.081,0-0.16,0.007-0.242,0.008l0,0l-3.307-4.438l0,0c0.122-0.005,0.246-0.007,0.368-0.01c0.398,0.315,0.83,0.59,1.316,0.779
		c1.276,0.494,2.669,0.463,3.921-0.09c0.407-0.178,0.768-0.421,1.108-0.69c0.307,0.007,0.614,0.009,0.919,0.024l0,0L76.442,36.495
		L76.442,36.495L76.442,36.495z"/>
	<path fill-rule="evenodd" clip-rule="evenodd" fill="#FFFFFF" d="M74.421,36.517c-2.228,0.039-4.45,0.175-6.662,0.404l0,0
		l2.878-4.798l0,0c0.161-0.01,0.321-0.029,0.482-0.038l0,0L74.421,36.517L74.421,36.517L74.421,36.517z"/>
	<path fill-rule="evenodd" clip-rule="evenodd" fill="#FFFFFF" d="M66.623,37.025c-0.201,0.024-0.403,0.045-0.603,0.07l0,0
		l-3.812-4.032l0,0c0.065-0.011,0.131-0.018,0.195-0.028c0.444,0.275,0.919,0.501,1.439,0.633c1.327,0.333,2.705,0.13,3.88-0.573
		c0.376-0.225,0.702-0.505,1.002-0.809c0.262-0.025,0.523-0.055,0.786-0.074l0,0L66.623,37.025L66.623,37.025L66.623,37.025z"/>
	<path fill-rule="evenodd" clip-rule="evenodd" fill="#FFFFFF" d="M64.913,37.266c-2.21,0.311-4.403,0.716-6.575,1.212l0,0
		l2.307-5.121l0,0c0.162-0.03,0.325-0.062,0.487-0.091l0,0L64.913,37.266L64.913,37.266L64.913,37.266z"/>
	<path fill-rule="evenodd" clip-rule="evenodd" fill="#FFFFFF" d="M57.218,38.72c-0.334,0.081-0.666,0.173-0.999,0.26l0,0
		l-4.22-3.53l0,0c0.155-0.046,0.313-0.086,0.469-0.129c0.462,0.21,0.949,0.375,1.478,0.44c1.868,0.231,3.614-0.594,4.683-1.992
		c0.304-0.069,0.606-0.144,0.913-0.204l0,0L57.218,38.72L57.218,38.72L57.218,38.72z"/>
	<path fill-rule="evenodd" clip-rule="evenodd" fill="#FFFFFF" d="M55.145,39.282c-2.158,0.589-4.291,1.26-6.388,2.031l0,0
		l1.708-5.4l0,0c0.159-0.051,0.32-0.094,0.479-0.144l0,0L55.145,39.282L55.145,39.282L55.145,39.282z"/>
	<path fill-rule="evenodd" clip-rule="evenodd" fill="#FFFFFF" d="M47.668,41.702c-0.138,0.053-0.273,0.117-0.411,0.171l0,0
		l-4.582-2.999l0,0c0.059-0.025,0.119-0.048,0.178-0.073c0.486,0.152,0.993,0.258,1.53,0.257c1.893-0.002,3.529-1.048,4.415-2.579
		c0.196-0.072,0.392-0.148,0.589-0.215l0,0L47.668,41.702L47.668,41.702L47.668,41.702z"/>
	<path fill-rule="evenodd" clip-rule="evenodd" fill="#FFFFFF" d="M102.335,32.231c-0.355,1.018-0.362,2.119-0.06,3.144
		c-0.711-0.243-1.425-0.475-2.141-0.699c0.379-0.3,0.733-0.637,1.02-1.041c0.339-0.478,0.57-1.005,0.728-1.553
		C102.033,32.133,102.184,32.181,102.335,32.231L102.335,32.231L102.335,32.231L102.335,32.231z"/>
	<path fill-rule="evenodd" clip-rule="evenodd" fill="#FFFFFF" d="M93.546,28.234c1.342-1.89,3.971-2.338,5.862-0.995
		c0.916,0.651,1.524,1.618,1.712,2.725c0.188,1.108-0.067,2.221-0.717,3.137c-0.651,0.916-1.618,1.523-2.725,1.711
		c-1.108,0.189-2.221-0.066-3.137-0.716c-0.916-0.651-1.524-1.619-1.711-2.725C92.641,30.264,92.896,29.15,93.546,28.234
		L93.546,28.234L93.546,28.234L93.546,28.234z"/>
	<path fill-rule="evenodd" clip-rule="evenodd" fill="#FFFFFF" d="M91.964,29.611c-0.131,0.622-0.152,1.269-0.043,1.914
		c0.072,0.423,0.21,0.819,0.377,1.202c-0.74-0.153-1.483-0.297-2.228-0.43c0.346-0.348,0.66-0.731,0.899-1.175
		c0.274-0.508,0.436-1.052,0.526-1.607C91.652,29.549,91.808,29.578,91.964,29.611L91.964,29.611L91.964,29.611L91.964,29.611z"/>
	<path fill-rule="evenodd" clip-rule="evenodd" fill="#FFFFFF" d="M82.753,26.703c0.531-0.989,1.417-1.712,2.493-2.035
		c1.075-0.324,2.212-0.208,3.201,0.324c0.989,0.532,1.712,1.417,2.035,2.493c0.324,1.075,0.208,2.213-0.324,3.201
		c-0.532,0.989-1.418,1.712-2.493,2.035c-1.075,0.324-2.213,0.208-3.203-0.324c-0.988-0.532-1.711-1.417-2.035-2.493
		C82.105,28.829,82.22,27.691,82.753,26.703L82.753,26.703L82.753,26.703L82.753,26.703z"/>
	<path fill-rule="evenodd" clip-rule="evenodd" fill="#FFFFFF" d="M81.547,30.169c0.121,0.405,0.304,0.778,0.514,1.133
		c-0.751-0.056-1.504-0.101-2.258-0.137c0.302-0.389,0.566-0.807,0.749-1.278c0.213-0.547,0.302-1.109,0.321-1.666
		c0.16,0.012,0.321,0.022,0.48,0.035C81.298,28.892,81.357,29.539,81.547,30.169L81.547,30.169L81.547,30.169L81.547,30.169z"/>
	<path fill-rule="evenodd" clip-rule="evenodd" fill="#FFFFFF" d="M71.852,26.514c0.838-2.162,3.279-3.239,5.44-2.401
		c2.162,0.838,3.24,3.279,2.402,5.441c-0.406,1.046-1.196,1.873-2.223,2.327c-1.028,0.453-2.17,0.479-3.218,0.073
		c-1.048-0.406-1.873-1.195-2.327-2.223C71.472,28.704,71.446,27.562,71.852,26.514L71.852,26.514L71.852,26.514L71.852,26.514z"/>
	<path fill-rule="evenodd" clip-rule="evenodd" fill="#FFFFFF" d="M70.657,28.243c0.026,0.633,0.162,1.263,0.426,1.86
		c0.171,0.389,0.4,0.737,0.652,1.064c-0.756,0.039-1.51,0.087-2.262,0.144c0.252-0.424,0.464-0.873,0.587-1.365
		c0.142-0.563,0.161-1.126,0.114-1.674C70.335,28.262,70.496,28.251,70.657,28.243L70.657,28.243L70.657,28.243L70.657,28.243z"/>
	<path fill-rule="evenodd" clip-rule="evenodd" fill="#FFFFFF" d="M61.013,27.673c0.564-2.249,2.854-3.619,5.102-3.054
		c2.248,0.565,3.619,2.854,3.054,5.103c-0.274,1.088-0.955,2.007-1.92,2.583c-0.963,0.577-2.094,0.744-3.184,0.47
		c-1.089-0.274-2.007-0.955-2.583-1.919C60.905,29.893,60.739,28.763,61.013,27.673L61.013,27.673L61.013,27.673L61.013,27.673z"/>
	<path fill-rule="evenodd" clip-rule="evenodd" fill="#FFFFFF" d="M60.037,29.525c0.103,0.629,0.318,1.241,0.656,1.803
		c0.215,0.36,0.479,0.674,0.766,0.963c-0.738,0.127-1.473,0.265-2.207,0.412c0.191-0.441,0.345-0.904,0.407-1.404
		c0.071-0.582,0.02-1.148-0.096-1.692C59.72,29.581,59.879,29.552,60.037,29.525L60.037,29.525L60.037,29.525L60.037,29.525z"/>
	<path fill-rule="evenodd" clip-rule="evenodd" fill="#FFFFFF" d="M50.399,30.16c0.283-2.301,2.385-3.942,4.686-3.66
		c2.301,0.284,3.943,2.386,3.66,4.686c-0.283,2.301-2.385,3.943-4.686,3.661C51.757,34.563,50.115,32.461,50.399,30.16L50.399,30.16
		L50.399,30.16L50.399,30.16z"/>
	<path fill-rule="evenodd" clip-rule="evenodd" fill="#FFFFFF" d="M49.663,32.113c0.307,1.025,0.929,1.928,1.766,2.583
		c-0.724,0.219-1.444,0.449-2.162,0.688c0.139-0.466,0.236-0.949,0.236-1.459c-0.001-0.579-0.117-1.137-0.302-1.669
		C49.355,32.21,49.508,32.161,49.663,32.113L49.663,32.113L49.663,32.113L49.663,32.113z"/>
	<path fill-rule="evenodd" clip-rule="evenodd" fill="#FFFFFF" d="M40.172,33.939c-0.002-1.124,0.434-2.18,1.227-2.975
		c0.794-0.795,1.848-1.234,2.972-1.235c1.123-0.002,2.179,0.434,2.975,1.227c0.795,0.793,1.234,1.848,1.235,2.972
		c0.003,2.318-1.88,4.207-4.199,4.21C42.064,38.141,40.175,36.257,40.172,33.939L40.172,33.939L40.172,33.939L40.172,33.939z"/>
	<path fill-rule="evenodd" clip-rule="evenodd" fill="#FFFFFF" d="M110.045,56.391v0.179v24.793l0,0
		c0.071,7.971-1.467,12.535-9.787,13.843c-2.039,0.321-4.171,0.565-6.234,0.802c-7.11,0.818-13.818,1.61-18.213,5.267
		c-4.381-3.646-11.039-4.424-18.097-5.226c-2.079-0.236-4.23-0.481-6.291-0.805c-8.319-1.307-9.857-5.872-9.786-13.839
		c0-0.004,0-24.975,0-24.975l0,0l-0.121-0.132L30.248,44.021h11.295l0.46-0.46v-4.026l4.229,2.768l0,0
		c-2.364,0.964-4.689,2.017-6.945,3.211l0,0h-5.284l9.308,9.823v27.038l0,0c0.039,2.399,0.157,9.664,7.196,10.927
		c1.139,0.163,2.506,0.33,3.954,0.506c6.868,0.838,17.248,2.105,20.913,5.037l0,0l0.411,0.329l0.41-0.329l0,0
		c3.668-2.934,14.033-4.2,20.892-5.038c1.441-0.176,2.804-0.343,3.915-0.501c7.062-1.267,7.18-8.532,7.219-10.92
		c0-0.01,0-24.307,0-27.049l0,0l9.308-9.823h-5.243l0,0c-2.366-1.253-4.808-2.354-7.293-3.353l0,0l4.417-2.707l-0.006,4.069
		l0.461,0.461h11.57L110.045,56.391L110.045,56.391L110.045,56.391z"/>
	<path fill-rule="evenodd" clip-rule="evenodd" d="M81.69,74.242c0,0.806-0.503,1.644,0.039,2.187
		c0.613,0.613,3.299,1.303,4.679,0.46c1.489-0.91,2.505-2.901,0.575-2.992c-1.611-0.077-2.75-0.072-3.068,0.498
		c-0.384,0.691-1.189,0.768-1.035-0.575c0.122-1.07-0.269-1.687-0.806-1.687c-0.307,0-0.713,0.237-0.844,0.498
		c-0.076,0.153-0.383,0.134-0.652,0.345c0.191,0.153,0.288,0.192,0.632,0.231C81.442,73.379,81.671,73.551,81.69,74.242
		L81.69,74.242L81.69,74.242L81.69,74.242z"/>
	<path fill-rule="evenodd" clip-rule="evenodd" d="M88.901,88.817c0,0.806-0.503,1.644,0.039,2.186
		c0.613,0.613,3.299,1.304,4.679,0.46c1.489-0.909,2.505-2.9,0.575-2.992c-1.611-0.076-2.752-0.072-3.068,0.499
		c-0.384,0.691-1.189,0.767-1.036-0.575c0.122-1.07-0.269-1.688-0.806-1.688c-0.307,0-0.713,0.238-0.844,0.499
		c-0.076,0.153-0.383,0.134-0.652,0.345c0.191,0.153,0.288,0.191,0.632,0.23C88.653,87.954,88.882,88.127,88.901,88.817
		L88.901,88.817L88.901,88.817L88.901,88.817z"/>
	<path fill-rule="evenodd" clip-rule="evenodd" d="M98.107,74.242c0,0.806-0.504,1.644,0.039,2.187
		c0.613,0.613,3.298,1.303,4.679,0.46c1.488-0.91,2.505-2.901,0.575-2.992c-1.611-0.077-2.751-0.072-3.068,0.498
		c-0.384,0.691-1.189,0.768-1.035-0.575c0.122-1.07-0.269-1.687-0.806-1.687c-0.307,0-0.713,0.237-0.844,0.498
		c-0.076,0.153-0.383,0.134-0.652,0.345c0.191,0.153,0.287,0.192,0.632,0.231C97.858,73.379,98.088,73.551,98.107,74.242
		L98.107,74.242L98.107,74.242L98.107,74.242z"/>
	<path fill-rule="evenodd" clip-rule="evenodd" d="M56.376,65.191c0,0.805-0.504,1.643,0.038,2.186
		c0.613,0.613,3.299,1.304,4.68,0.46c1.488-0.91,2.505-2.9,0.575-2.992c-1.611-0.076-2.751-0.072-3.068,0.498
		c-0.384,0.691-1.19,0.768-1.036-0.574c0.122-1.071-0.268-1.688-0.805-1.688c-0.307,0-0.713,0.236-0.844,0.498
		c-0.077,0.153-0.384,0.134-0.652,0.346c0.191,0.153,0.287,0.191,0.632,0.23C56.126,64.327,56.357,64.5,56.376,65.191L56.376,65.191
		L56.376,65.191L56.376,65.191z"/>
	<path fill-rule="evenodd" clip-rule="evenodd" d="M64.814,50.154c0,0.806-0.504,1.644,0.038,2.187
		c0.613,0.613,3.299,1.303,4.679,0.46c1.489-0.91,2.505-2.9,0.575-2.992c-1.611-0.076-2.75-0.072-3.068,0.498
		c-0.384,0.691-1.189,0.768-1.035-0.574c0.122-1.07-0.269-1.688-0.806-1.688c-0.307,0-0.713,0.236-0.844,0.498
		c-0.076,0.153-0.383,0.134-0.652,0.346c0.191,0.153,0.288,0.191,0.633,0.23C64.565,49.291,64.795,49.464,64.814,50.154
		L64.814,50.154L64.814,50.154L64.814,50.154z"/>
	<path fill-rule="evenodd" clip-rule="evenodd" d="M48.398,50.154c0,0.806-0.504,1.644,0.038,2.187
		c0.614,0.613,3.299,1.303,4.679,0.46c1.489-0.91,2.505-2.9,0.576-2.992c-1.612-0.076-2.751-0.072-3.069,0.498
		c-0.383,0.691-1.189,0.768-1.035-0.574c0.122-1.07-0.269-1.688-0.805-1.688c-0.307,0-0.714,0.236-0.844,0.498
		c-0.077,0.153-0.384,0.134-0.653,0.346c0.192,0.153,0.288,0.191,0.634,0.23C48.148,49.291,48.379,49.464,48.398,50.154
		L48.398,50.154L48.398,50.154L48.398,50.154z"/>
	<path fill-rule="evenodd" clip-rule="evenodd" d="M145.383,81.083c4.794-6.904,5.561-20.136,3.644-20.904
		c0.384-18.219-2.877-22.246-4.219-22.822c-1.294-6.329-7.288-14.192-8.246-13.616C128.794,9.98,124.67,8.59,122.081,8.542
		c-4.602-4.41-9.685-7.048-12.561-8.198c-2.878-1.151-2.878,0.767-1.918,3.068c0.959,2.301,4.794,8.246,6.904,10.356
		c0.384,4.028,8.63,9.78,11.891,12.466c-1.343,1.726,5.945,11.795,7.671,14.288c-0.959,4.41,2.109,17.164,2.684,19.274
		c-2.109,0.767-2.877,10.931-2.684,17.643c-5.371,5.561-7.097,13.041-8.055,15.534c-4.219,1.726-10.165,10.739-12.274,13.616
		c-4.794,0.575-11.315,6.138-14.192,8.247c-3.835-1.151-7.87-0.646-14.574,3.356c-4.387,2.618-5.803,5.446-8.553,8.443
		c-3.314-3.181-6.042-6.361-11.2-8.731c-7.096-3.261-10.932-4.219-14.768-3.068c-2.876-2.11-9.397-7.672-14.191-8.247
		c-2.11-2.877-8.054-11.89-12.274-13.616C23.028,90.48,21.302,83,15.932,77.439c0.191-6.713-0.575-16.877-2.685-17.643
		c0.575-2.11,3.644-14.864,2.685-19.274c1.726-2.493,9.013-12.562,7.67-14.288c3.261-2.685,11.507-8.438,11.891-12.466
		c2.11-2.11,5.945-8.055,6.904-10.356c0.958-2.301,0.958-4.219-1.918-3.068c-2.876,1.151-7.959,3.788-12.561,8.198
		c-2.59,0.048-6.713,1.438-14.48,15.199c-0.958-0.575-6.951,7.287-8.246,13.616C3.85,37.932,0.589,41.96,0.973,60.179
		c-1.917,0.768-1.151,14,3.644,20.904c-1.726-0.575-3.164,3.74,5.37,17.26c0.193,3.644-0.191,5.754,13.425,19.178
		c0.959,3.261,13.425,9.397,18.987,10.74c0.941,0.941,4.111,4.835,22.543,5.523c-5.243,1.858-11.072,2.915-14.681,2.915
		c-4.027,0.575-3.26,5.082-1.054,5.37c6.712,1.631,15.822-2.205,21.48-5.082c2.174-1.106,3.967-1.91,5.619-2.503
		c1.529,0.347,3.161,0.85,5.024,1.64c6.329,2.685,16.398,6.233,23.302,5.082c2.589-0.192,3.547-4.123-0.48-4.698
		c-2.706,0-11.226-1.167-17.792-3.494c18.253-0.672,20.306-3.814,21.244-4.752c5.562-1.343,18.027-7.48,18.987-10.74
		c13.616-13.425,13.233-15.535,13.425-19.178C148.548,84.823,147.109,80.508,145.383,81.083L145.383,81.083L145.383,81.083
		L145.383,81.083z"/>
	<path fill-rule="evenodd" clip-rule="evenodd" fill="#FFFFFF" d="M68.599,133.808c-1.566,0.535-2.912,0.996-3.668,1.261
		c-5.923,2.591-11.704,2.627-14.192,2.877c-1.918,0.191-2.397,2.876,0.48,3.068c5.657,0.288,11.798-1.632,14.863-3.164
		c2.112-1.057,4.895-2.513,8.084-3.756C72.267,133.835,70.476,133.797,68.599,133.808L68.599,133.808L68.599,133.808L68.599,133.808
		z"/>
	<path fill-rule="evenodd" clip-rule="evenodd" fill="#FFFFFF" d="M148.884,66.508c0.479-5.657-2.685-2.157-3.069-1.63
		c-0.383,0.527-0.719-0.096-0.431-0.624c0.479-0.671,1.821-1.199,2.493-3.931c0.704-2.867-0.191-14.527-1.295-17.213
		c-1.294-3.164-3.02,0.191-3.403,0.863c-0.384,0.67-1.055,0-0.768-0.479c0.336-0.528,0.863-1.918,1.247-3.164
		c0.815-3.213-1.966-8.727-4.171-12.083c-2.206-3.356-3.213-0.863-3.5-0.384c-0.288,0.48-0.575,0.096-0.48-0.288
		c0.192-0.863,0.48-2.684-0.047-4.027c-2.206-4.362-5.993-9.109-7.049-10.164c-2.781-2.973-4.603-2.493-4.794-1.63
		c-0.767-0.959-6.617-5.85-7.863-6.808c-1.247-0.863-1.631-0.096-0.959,0.479c1.342,0.959,11.986,9.206,20.904,25.411
		c9.636,17.51,11.794,43.535-1.63,63.287c-13.425,19.754-27.329,28.959-43.151,33.082c-2.291,0.539-6.852,1.694-10.628,2.765
		c0.092,0.069,0.177,0.138,0.272,0.208c0.769,0.563,1.696,1.087,2.72,1.575c1.14-0.12,2.295-0.177,3.464-0.136
		c7.724,0.268,12.37-0.384,15.247-1.295c2.877-0.911,2.062-1.773,1.342-2.493c-0.719-0.72-3.308-1.39-3.979-1.438
		c-0.672-0.048-0.527-0.527-0.144-0.624c1.104-0.095,5.035,1.151,5.802,1.151c4.794-0.048,14.048-5.034,16.877-6.664
		c2.829-1.631,2.253-2.349,0.911-2.782c-1.342-0.431-4.986-0.288-5.945-0.191c-0.959,0.096-0.863-0.479-0.096-0.719
		c1.247-0.336,7.335-0.336,8.007-0.48c0.672-0.143,3.884-1.246,10.117-8.726c6.233-7.48,1.582-6.617,0.815-6.329
		c-0.767,0.288-4.842,2.014-5.802,2.349c-0.958,0.335-1.006-0.48-0.336-0.815c1.631-0.864,6.904-2.733,8.439-3.74
		c1.534-1.007,4.603-6.713,6.712-12.082c2.11-5.37-0.815-4.123-1.342-4.075c-0.527,0.047-0.815-0.336-0.191-0.768
		C146.534,79.309,148.403,72.165,148.884,66.508L148.884,66.508L148.884,66.508L148.884,66.508z"/>
	<path fill-rule="evenodd" clip-rule="evenodd" fill="#FFFFFF" d="M141.931,55.672c-2.994-30.24-26.562-48.52-28.911-50.103
		c-0.74-0.498-3.213-1.966-3.74-1.437c-0.527,0.527,1.343,3.164,3.788,6.28c2.446,3.116,5.082,3.212,5.993,3.5
		c0.911,0.288,0.479,0.767-0.095,0.767c-3.117-0.191-3.213,0.672-1.87,2.302c1.342,1.63,9.013,9.253,13.137,9.971
		c1.306,0.229,0.719,0.816,0.143,0.816c-2.781-0.239-2.876,0.288-1.966,2.301c0.911,2.014,8.295,11.89,9.014,12.369
		c0.719,0.48,0.479,1.151,0.095,1.103c-2.397-0.288-2.301,1.389-2.301,2.684c0.192,4.363,1.726,11.555,2.301,13.664
		c1.151,0.384,2.59,3.261,2.877,4.315c0.403,0.531-0.191,0.863-0.527,0.527c-2.061-3.404-3.883-1.917-4.314,0.048
		c-0.432,1.966-1.583,13.521-0.432,16.493c0.264,0.682-0.288,0.816-0.527,0.527c-1.103-1.534-1.822-1.485-3.069,0.336
		c-1.246,1.822-5.705,13.616-5.561,16.589c0.032,0.671-0.384,0.527-0.432,0.288c-0.863-4.603-2.876-2.205-6.617,2.205
		c-3.739,4.411-5.944,9.685-6.328,10.74c-0.384,1.055-0.863,1.151-0.863,0.671c0.095-0.576,0.288-1.151,0.288-1.821
		c0.095-1.631,0.383-2.685-4.411,0c-4.794,2.684-11.986,10.739-12.562,11.315c-0.575,0.575-1.054,0.191-0.671-0.191
		c0.767-0.575,1.726-1.918,2.493-2.877c2.11-2.493-0.384-3.261-2.493-3.068c-9.201,1.78-14.37,7.855-16.954,11.584
		c0.517,0.474,1.058,0.946,1.625,1.414c2.747-0.926,5.84-1.935,7.369-2.068c10.74-2.109,22.343-8.438,26.179-11.507
		C128.123,102.466,144.808,84.727,141.931,55.672L141.931,55.672L141.931,55.672L141.931,55.672z"/>
	<path fill-rule="evenodd" clip-rule="evenodd" fill="#FFFFFF" d="M14.781,46.227c0-1.294,0.096-2.972-2.3-2.684
		c-0.384,0.047-0.623-0.623,0.095-1.103c0.72-0.479,8.103-10.355,9.014-12.369c0.91-2.014,0.815-2.541-1.967-2.301
		c-0.575,0-1.162-0.587,0.144-0.816c4.124-0.718,11.795-8.341,13.137-9.971c1.342-1.631,1.246-2.494-1.87-2.302
		c-0.574,0-1.006-0.479-0.095-0.767c0.911-0.288,3.547-0.384,5.993-3.5c2.445-3.115,4.315-5.753,3.788-6.28
		c-0.528-0.528-3,0.939-3.74,1.437C34.63,7.152,11.063,25.432,8.069,55.672c-2.877,29.055,13.808,46.794,29.342,59.739
		c3.836,3.069,15.438,9.398,26.178,11.507c2.206,0.192,10.548,1.726,13.521,2.685c-1.534-2.301-9.589-11.315-21.48-13.616
		c-2.109-0.193-4.603,0.575-2.493,3.068c0.767,0.958,1.726,2.301,2.493,2.877c0.384,0.383-0.095,0.767-0.671,0.191
		c-0.575-0.575-7.767-8.63-12.562-11.315c-4.794-2.685-4.507-1.631-4.411,0c0,0.671,0.192,1.246,0.288,1.821
		c0,0.48-0.479,0.384-0.863-0.671c-0.383-1.056-2.589-6.329-6.329-10.74c-3.74-4.41-5.754-6.808-6.616-2.205
		c-0.048,0.24-0.464,0.383-0.432-0.288c0.144-2.973-4.315-14.767-5.561-16.589c-1.247-1.821-1.967-1.869-3.069-0.336
		c-0.24,0.289-0.791,0.154-0.527-0.527c1.151-2.972,0-14.527-0.431-16.493c-0.432-1.966-2.254-3.452-4.315-0.048
		c-0.336,0.336-0.93,0.004-0.527-0.527c0.288-1.055,1.726-3.931,2.877-4.315C13.055,57.782,14.589,50.59,14.781,46.227
		L14.781,46.227L14.781,46.227L14.781,46.227z"/>
	<path fill-rule="evenodd" clip-rule="evenodd" fill="#FFFFFF" d="M85.836,134.11c5.922,2.591,15.342,3.548,17.835,3.74
		c2.493,0.191,1.151,2.301-0.191,2.589c-5.657,0.288-13.329-2.205-16.589-3.261c-3.261-1.055-9.014-4.794-15.295-4.507
		c-7.72,0.354-20.712-1.438-23.589-2.35c-2.877-0.911-2.062-1.773-1.342-2.493c0.719-0.72,3.308-1.39,3.979-1.438
		c0.671-0.048,0.527-0.527,0.143-0.624c-1.103-0.095-5.034,1.151-5.801,1.151c-4.795-0.048-14.048-5.034-16.877-6.664
		c-2.829-1.631-2.253-2.349-0.911-2.782c1.342-0.431,4.987-0.288,5.945-0.191c0.959,0.096,0.863-0.479,0.096-0.719
		c-1.247-0.336-7.335-0.336-8.007-0.48c-0.672-0.143-3.884-1.246-10.117-8.726c-6.233-7.48-1.582-6.617-0.815-6.329
		c0.767,0.288,4.842,2.014,5.802,2.349c0.958,0.335,1.006-0.48,0.336-0.815c-1.631-0.863-6.904-2.733-8.439-3.74
		c-1.534-1.007-4.603-6.713-6.712-12.082c-2.11-5.37,0.815-4.123,1.342-4.075c0.527,0.047,0.815-0.336,0.191-0.768
		c-3.356-2.589-5.225-9.733-5.705-15.39c-0.479-5.657,2.685-2.157,3.069-1.63c0.383,0.527,0.719-0.096,0.431-0.624
		c-0.479-0.671-1.822-1.199-2.493-3.931C1.42,57.456,2.315,45.796,3.418,43.11c1.295-3.164,3.021,0.191,3.404,0.863
		c0.384,0.67,1.056,0,0.768-0.479c-0.336-0.528-0.863-1.918-1.247-3.164c-0.815-3.213,1.966-8.727,4.171-12.083
		c2.206-3.356,3.213-0.863,3.5-0.384c0.288,0.48,0.575,0.096,0.48-0.288c-0.192-0.863-0.48-2.684,0.047-4.027
		c2.206-4.362,5.993-9.109,7.049-10.164c2.781-2.973,4.602-2.493,4.794-1.63c0.767-0.959,6.617-5.85,7.863-6.808
		c1.247-0.863,1.631-0.096,0.959,0.479c-1.342,0.959-11.986,9.206-20.904,25.411c-9.636,17.51-11.794,43.535,1.631,63.287
		c13.424,19.754,27.328,28.959,43.15,33.082c3.261,0.768,13.617,2.205,17.261,3.452C79.986,131.905,83.917,133.439,85.836,134.11
		L85.836,134.11L85.836,134.11L85.836,134.11z"/>
	<path fill-rule="evenodd" clip-rule="evenodd" d="M81.69,74.242c0,0.806-0.503,1.644,0.039,2.187
		c0.613,0.613,3.299,1.303,4.679,0.46c1.489-0.91,2.505-2.901,0.575-2.992c-1.611-0.077-2.75-0.072-3.068,0.498
		c-0.384,0.691-1.189,0.768-1.035-0.575c0.122-1.07-0.269-1.687-0.806-1.687c-0.307,0-0.713,0.237-0.844,0.498
		c-0.076,0.153-0.383,0.134-0.652,0.345c0.191,0.153,0.288,0.192,0.632,0.231C81.442,73.379,81.671,73.551,81.69,74.242
		L81.69,74.242L81.69,74.242L81.69,74.242z"/>
	<path fill-rule="evenodd" clip-rule="evenodd" d="M88.901,88.817c0,0.806-0.503,1.644,0.039,2.186
		c0.613,0.613,3.299,1.304,4.679,0.46c1.489-0.909,2.505-2.9,0.575-2.992c-1.611-0.076-2.752-0.072-3.068,0.499
		c-0.384,0.691-1.189,0.767-1.036-0.575c0.122-1.07-0.269-1.688-0.806-1.688c-0.307,0-0.713,0.238-0.844,0.499
		c-0.076,0.153-0.383,0.134-0.652,0.345c0.191,0.153,0.288,0.191,0.632,0.23C88.653,87.954,88.882,88.127,88.901,88.817
		L88.901,88.817L88.901,88.817L88.901,88.817z"/>
	<path fill-rule="evenodd" clip-rule="evenodd" d="M98.107,74.242c0,0.806-0.504,1.644,0.039,2.187
		c0.613,0.613,3.298,1.303,4.679,0.46c1.488-0.91,2.505-2.901,0.575-2.992c-1.611-0.077-2.751-0.072-3.068,0.498
		c-0.384,0.691-1.189,0.768-1.035-0.575c0.122-1.07-0.269-1.687-0.806-1.687c-0.307,0-0.713,0.237-0.844,0.498
		c-0.076,0.153-0.383,0.134-0.652,0.345c0.191,0.153,0.287,0.192,0.632,0.231C97.858,73.379,98.088,73.551,98.107,74.242
		L98.107,74.242L98.107,74.242L98.107,74.242z"/>
	<path fill-rule="evenodd" clip-rule="evenodd" d="M56.376,65.191c0,0.805-0.504,1.643,0.038,2.186
		c0.613,0.613,3.299,1.304,4.68,0.46c1.488-0.91,2.505-2.9,0.575-2.992c-1.611-0.076-2.751-0.072-3.068,0.498
		c-0.384,0.691-1.19,0.768-1.036-0.574c0.122-1.071-0.268-1.688-0.805-1.688c-0.307,0-0.713,0.236-0.844,0.498
		c-0.077,0.153-0.384,0.134-0.652,0.346c0.191,0.153,0.287,0.191,0.632,0.23C56.126,64.327,56.357,64.5,56.376,65.191L56.376,65.191
		L56.376,65.191L56.376,65.191z"/>
	<path fill-rule="evenodd" clip-rule="evenodd" d="M64.814,50.154c0,0.806-0.504,1.644,0.038,2.187
		c0.613,0.613,3.299,1.303,4.679,0.46c1.489-0.91,2.505-2.9,0.575-2.992c-1.611-0.076-2.75-0.072-3.068,0.498
		c-0.384,0.691-1.189,0.768-1.035-0.574c0.122-1.07-0.269-1.688-0.806-1.688c-0.307,0-0.713,0.236-0.844,0.498
		c-0.076,0.153-0.383,0.134-0.652,0.346c0.191,0.153,0.288,0.191,0.633,0.23C64.565,49.291,64.795,49.464,64.814,50.154
		L64.814,50.154L64.814,50.154L64.814,50.154z"/>
	<path fill-rule="evenodd" clip-rule="evenodd" d="M48.398,50.154c0,0.806-0.504,1.644,0.038,2.187
		c0.614,0.613,3.299,1.303,4.679,0.46c1.489-0.91,2.505-2.9,0.576-2.992c-1.612-0.076-2.751-0.072-3.069,0.498
		c-0.383,0.691-1.189,0.768-1.035-0.574c0.122-1.07-0.269-1.688-0.805-1.688c-0.307,0-0.714,0.236-0.844,0.498
		c-0.077,0.153-0.384,0.134-0.653,0.346c0.192,0.153,0.288,0.191,0.634,0.23C48.148,49.291,48.379,49.464,48.398,50.154
		L48.398,50.154L48.398,50.154L48.398,50.154z"/>
</g>
</svg>
