<?xml version="1.0" encoding="utf-8"?>
<!-- Generator: Adobe Illustrator 16.0.0, SVG Export Plug-In . SVG Version: 6.00 Build 0)  -->
<!DOCTYPE svg PUBLIC "-//W3C//DTD SVG 1.1//EN" "http://www.w3.org/Graphics/SVG/1.1/DTD/svg11.dtd">
<svg version="1.1" id="Layer_1" xmlns="http://www.w3.org/2000/svg" xmlns:xlink="http://www.w3.org/1999/xlink" x="0px" y="0px"
	 width="116px" height="50px" viewBox="0 0 116 50" enable-background="new 0 0 116 50" xml:space="preserve">
<g>
	<g>
		<path d="M85.941,4.594L67.949,4.596c-0.459,0-0.76-0.136-0.76-0.766V1.172C67.189,0.405,66.773,0,66.021,0L45.426,0.001
			c-0.77,0-1.166,0.432-1.166,1.165v2.658c0,0.562-0.266,0.765-0.76,0.765L31.709,4.592c-0.902,0-1.432,0.43-1.703,0.993
			l-5.74,11.177c-0.072,0.14-0.117,0.307-0.117,0.474c0,0.443,0.291,1.015,1.096,1.015l18.254-0.002
			c0.563,0,0.762,0.255,0.762,0.765l-0.002,2.658c0,0.801,0.467,1.165,1.168,1.165h10.299h10.297c0.701,0,1.17-0.339,1.17-1.157
			l-0.002-2.659c0-0.544,0.229-0.765,0.76-0.765l11.447-0.003c0.789,0,1.356-0.208,1.754-0.94l5.676-11.045
			c0.123-0.239,0.213-0.375,0.213-0.659C87.039,4.858,86.387,4.594,85.941,4.594L85.941,4.594L85.941,4.594z M81.408,9.046
			l-2.736,5.332C78.5,14.687,78.195,14.7,77.982,14.7H64.398c-0.563,0-0.769,0.255-0.769,0.765l-0.004,3.066
			c0,0.511-0.226,0.754-0.771,0.754h-7.132h-7.135c-0.477,0-0.77-0.167-0.77-0.762l-0.002-3.066c0-0.561-0.256-0.761-0.768-0.761
			h-16.65c-0.408,0-0.691-0.257-0.691-0.613c0-0.104,0.025-0.201,0.07-0.286l2.736-5.331c0.105-0.189,0.275-0.319,0.689-0.319
			L47.05,8.148c0.477,0,0.773-0.191,0.773-0.77V4.313c0-0.543,0.238-0.762,0.768-0.762L62.857,3.55c0.514,0,0.77,0.226,0.77,0.77
			l-0.004,3.067c0,0.526,0.246,0.76,0.775,0.76h16.389c0.521,0,0.693,0.342,0.693,0.614C81.48,8.863,81.455,8.96,81.408,9.046
			L81.408,9.046z"/>
	</g>
	<g>
		<path d="M69.957,2.267c0-0.271-0.223-0.334-0.451-0.334h-0.551v1.262h0.178V2.642h0.244l0.363,0.553h0.197l-0.377-0.571
			C69.787,2.618,69.957,2.515,69.957,2.267L69.957,2.267L69.957,2.267z M69.463,2.491h-0.33V2.083h0.338
			c0.133,0,0.309,0.015,0.309,0.181C69.779,2.388,69.721,2.491,69.463,2.491L69.463,2.491z"/>
	</g>
	<g>
		<path d="M69.375,1.437c-0.629,0-1.135,0.505-1.135,1.125c0,0.621,0.502,1.125,1.135,1.125l0,0c0.625,0,1.129-0.5,1.129-1.125
			C70.504,1.942,70,1.437,69.375,1.437L69.375,1.437L69.375,1.437z M69.375,3.51L69.375,3.51c-0.533,0-0.951-0.43-0.951-0.954
			c0-0.517,0.424-0.942,0.951-0.942c0.525,0,0.945,0.425,0.945,0.942C70.32,3.084,69.9,3.51,69.375,3.51L69.375,3.51z"/>
	</g>
	<g>
		<polygon points="19.594,40.324 14.75,40.324 14.75,33.875 11.373,33.875 11.373,49.997 14.75,49.997 14.752,42.786 19.592,42.786 
			19.592,49.997 22.971,49.997 22.971,33.875 19.594,33.875 		"/>
	</g>
	<g>
		<polygon points="100.199,36.336 104.789,36.336 104.789,49.997 108.166,49.997 108.166,36.336 112.754,36.336 112.754,33.875 
			100.199,33.875 		"/>
	</g>
	<g>
		<polygon points="82.361,33.875 78.984,33.875 78.984,49.997 88.646,49.997 88.646,47.536 82.361,47.536 		"/>
	</g>
	<g>
		<path d="M43.705,47.316c-0.049,0.168-0.174,0.213-0.352,0.213c-0.172,0-0.303-0.066-0.355-0.221l-3.559-13.435H35.5l4.086,14.708
			C39.785,49.553,40.432,50,41.35,50h3.115c0.918,0,1.512-0.469,1.74-1.393l3.99-14.732h-2.984L43.705,47.316L43.705,47.316z"/>
	</g>
	<g>
		<path d="M0.002,36.393L0,47.479C0,49.273,0.924,50,2.523,50l7.555-0.003v-2.466H4.615c-0.938,0-1.238-0.227-1.238-1.231
			l0.004-8.733c0-0.969,0.225-1.23,1.236-1.23l5.461,0.001v-2.461H2.529C0.803,33.875,0.002,34.764,0.002,36.393L0.002,36.393z"/>
	</g>
	<g>
		<path d="M28.379,46.299v-3.514h6.715v-2.461h-6.711v-2.758c0-0.935,0.207-1.231,1.234-1.231l5.545,0.001v-2.461l-7.633,0.001
			c-1.746,0-2.525,0.869-2.525,2.517l-0.002,11.086c0,1.703,0.832,2.521,2.523,2.521l8.342-0.003v-2.466h-6.252
			C28.678,47.531,28.379,47.324,28.379,46.299L28.379,46.299z"/>
	</g>
	<g>
		<path d="M60.053,43.186c1.563,0,2.523-0.709,2.523-2.521l-0.002-4.272c0-1.684-0.799-2.518-2.525-2.518h-9.416v16.122h3.379
			V36.336l3.947-0.001c1.047,0,1.236,0.297,1.236,1.231l0.004,1.963c0,0.951-0.264,1.232-1.236,1.232l-1.846,0.004
			c-0.717,0-1.121,0.428-1.121,1.123c0,0.35,0.18,0.602,0.318,0.854l4.266,7.255h4.182l-4.469-6.808L60.053,43.186L60.053,43.186z"
			/>
	</g>
	<g>
		<path d="M74.41,33.876h-7.441c-1.783,0-2.527,0.905-2.527,2.517l-0.002,11.086c0,1.83,0.98,2.521,2.525,2.521l3.742-0.001h3.707
			c1.617,0,2.525-0.763,2.525-2.521l-0.002-11.086C76.938,34.745,76.156,33.876,74.41,33.876L74.41,33.876L74.41,33.876z
			 M72.324,47.531h-1.617h-1.652c-0.973,0-1.236-0.262-1.236-1.231v-8.733c0-0.842,0.115-1.23,1.236-1.23l3.271,0.001
			c0.881,0,1.234,0.149,1.234,1.229l0.002,8.733C73.563,47.342,73.242,47.531,72.324,47.531L72.324,47.531z"/>
	</g>
	<g>
		<path d="M92.68,46.299v-3.514h6.715v-2.461h-6.709l-0.002-2.758c0-0.935,0.207-1.231,1.236-1.231l5.545,0.001v-2.461l-7.635,0.001
			c-1.744,0-2.525,0.869-2.525,2.517l-0.002,11.086c0,1.703,0.832,2.521,2.523,2.521l8.342-0.003v-2.466h-6.252
			C92.979,47.531,92.68,47.324,92.68,46.299L92.68,46.299z"/>
	</g>
	<g>
		<path d="M115.453,34.754c0-0.271-0.225-0.334-0.453-0.334h-0.549v1.262h0.178v-0.554h0.244l0.361,0.554h0.199l-0.377-0.572
			C115.283,35.105,115.453,35.003,115.453,34.754L115.453,34.754L115.453,34.754z M114.961,34.979h-0.332v-0.41h0.338
			c0.133,0,0.307,0.017,0.307,0.183C115.273,34.874,115.215,34.979,114.961,34.979L114.961,34.979z"/>
	</g>
	<g>
		<path d="M114.871,33.925c-0.629,0-1.135,0.505-1.135,1.124c0,0.621,0.5,1.125,1.135,1.125l0,0c0.625,0,1.129-0.498,1.129-1.125
			C116,34.43,115.496,33.925,114.871,33.925L114.871,33.925L114.871,33.925z M114.871,35.997L114.871,35.997
			c-0.533,0-0.951-0.433-0.951-0.954c0-0.516,0.422-0.941,0.951-0.941c0.525,0,0.945,0.426,0.945,0.941
			C115.816,35.572,115.396,35.997,114.871,35.997L114.871,35.997z"/>
	</g>
</g>
</svg>
