<?xml version="1.0" encoding="utf-8"?>
<!-- Generator: Adobe Illustrator 16.0.0, SVG Export Plug-In . SVG Version: 6.00 Build 0)  -->
<!DOCTYPE svg PUBLIC "-//W3C//DTD SVG 1.1//EN" "http://www.w3.org/Graphics/SVG/1.1/DTD/svg11.dtd">
<svg version="1.1" id="Layer_1" xmlns="http://www.w3.org/2000/svg" xmlns:xlink="http://www.w3.org/1999/xlink" x="0px" y="0px"
	 width="161px" height="37px" viewBox="0 0 161 37" enable-background="new 0 0 161 37" xml:space="preserve">
<g>
	<g>
		<path d="M14.873,7.44c-1.458,0.214-2.972,0.386-5.001,0.386c-3.464,0-5.938-1.188-5.938-3.21c0-2.02,2.474-3.2,5.938-3.2
			c2.057,0,3.463,0.176,4.789,0.375l-0.284-1.539C12.892,0.105,11.355,0,9.872,0C4.532,0,0,1.417,0,4.617
			c0,3.198,4.532,4.631,9.872,4.631c1.64,0,3.15-0.107,4.662-0.244L14.873,7.44z"/>
	</g>
	<g>
		<polygon points="25.441,5.114 33.869,5.114 33.869,9.085 37.682,9.085 37.682,0.161 33.869,0.161 33.869,3.694 25.441,3.694 
			25.441,0.161 21.631,0.161 21.631,9.085 25.441,9.085 		"/>
	</g>
	<g>
		<path d="M48.813,1.471h3.747c2.297,0,2.911,0.603,2.911,1.244c0,1.058-1.873,1.515-3.973,1.515c-0.391,0-1.117-0.054-1.647-0.082
			l5.228,4.938h4.446l-4.95-4.082c2.993-0.349,4.895-0.948,4.895-2.582c0-1.47-2.488-2.261-6.126-2.261h-8.528v8.925h3.998
			L48.813,1.471L48.813,1.471z"/>
	</g>
	<g>
		<polygon points="70.453,9.085 74.675,9.085 74.675,5.459 81.609,0.161 77.023,0.161 72.718,3.786 68.579,0.161 63.964,0.161 
			70.453,5.312 		"/>
	</g>
	<g>
		<path d="M91.223,7.827c-1.883,0-3.765-0.241-5.492-0.573l0.494,1.643c1.942,0.188,3.885,0.351,5.856,0.351
			c5.367,0,7.062-1.285,7.062-2.331c0-2.166-8.42-3.131-8.42-4.547c0-0.403,0.93-0.953,3.273-0.953c1.479,0,2.958,0.176,4.316,0.388
			l-0.461-1.563C96.246,0.094,94.582,0,92.945,0c-4.993,0-6.875,1.083-6.875,2.235c0,2.115,8.42,3.319,8.42,4.604
			C94.49,7.586,92.671,7.827,91.223,7.827z"/>
	</g>
	<g>
		<polygon points="118.727,7.667 109.941,7.667 109.941,0.161 105.721,0.161 105.721,9.085 118.727,9.085 		"/>
	</g>
	<g>
		<polygon points="139.637,7.667 129.768,7.667 129.768,5.221 138.373,5.221 138.373,3.906 129.768,3.906 129.768,1.58 
			139.637,1.58 139.637,0.161 125.331,0.161 125.331,9.085 139.637,9.085 		"/>
	</g>
	<g>
		<path d="M156.052,5.003c2.993-0.349,4.892-0.948,4.892-2.582c0-1.47-2.485-2.261-6.12-2.261h-8.532v8.925h3.998V1.471h3.749
			c2.293,0,2.907,0.603,2.907,1.244c0,1.058-1.871,1.515-3.969,1.515c-0.395,0-1.121-0.054-1.652-0.082l5.229,4.938H161
			L156.052,5.003z"/>
	</g>
	<g>
		<path d="M96.667,22.188c-1.304-0.051-2.394-0.401-2.394-0.401s0.278,0.323,0.597,0.969c0.317,0.646,0.521,1.366,0.521,1.366
			s0-0.564,0.717-0.564c0.719,0,18.433,0,29.441-0.484c4.885-0.213,9.122-0.475,12.493-0.741c-0.3,0.155-1.181,0.581-2.522,0.903
			c-1.676,0.404-4.237,0.888-18.75,1.291c-14.508,0.4-17.711,0.318-19.465,0.318c-1.699,0-1.83-0.227-1.836-0.24
			c0.004,0.006,0.15,0.363,0.203,1.078c0.061,0.824-0.042,1.469-0.042,1.469s0.412-1.19,1.755-1.205
			c1.514-0.018,9.944-0.133,24.465-0.695c0.625-0.027,1.225-0.055,1.805-0.085c-0.772,0.317-3.008,1.124-6.563,1.379
			c-4.467,0.325-9.651,0.338-13.641,0.338s-5.718,0.228-8.14,1.772c-2.719,1.734-3.895,3.924-8.059,5.582
			c-3.546,1.408-6.772,1.229-6.772,1.229v0.102l-0.004-0.102c0,0-3.229,0.18-6.774-1.229c-4.167-1.658-5.339-3.848-8.058-5.582
			c-2.422-1.545-4.149-1.772-8.14-1.772c-3.988,0-9.173-0.014-13.643-0.338c-3.55-0.256-5.791-1.062-6.562-1.379
			c0.58,0.03,1.179,0.058,1.804,0.085c14.521,0.563,22.95,0.678,24.466,0.695c1.342,0.015,1.756,1.205,1.756,1.205
			s-0.106-0.646-0.044-1.469c0.055-0.722,0.202-1.078,0.202-1.078s-0.079,0.24-1.835,0.24c-1.755,0-4.957,0.082-19.466-0.318
			c-14.511-0.402-17.074-0.887-18.749-1.291c-1.344-0.322-2.225-0.748-2.52-0.903c3.365,0.267,7.605,0.528,12.492,0.741
			c11.011,0.484,28.722,0.484,29.438,0.484c0.719,0,0.719,0.564,0.719,0.564s0.201-0.721,0.521-1.366
			c0.315-0.646,0.596-0.969,0.596-0.969s-1.091,0.351-2.394,0.401c-0.801,0.035-4.628,0.162-11.811,0.162
			c-7.179,0-18.825-0.481-26.725-0.645c-7.898-0.159-13.643-1.287-13.643-1.287s0.879,0.484,2.713,0.965
			c1.016,0.27,3.844,0.609,8.029,0.944c0.357,0.346,2.779,2.2,14.295,2.831c0.617,0.476,3.396,2.177,11.817,2.357
			c10.073,0.217,12.197,0.045,14.146,0.758c3.733,1.369,5.176,4.027,8.852,5.736c3.397,1.575,5.803,1.944,8.511,1.946
			c0.004,0,0.004,0,0.008,0c0.002,0,0.002,0,0.002,0c2.708-0.002,5.115-0.372,8.51-1.946c3.677-1.709,5.116-4.367,8.852-5.736
			c1.948-0.713,4.073-0.541,14.148-0.758c8.419-0.182,11.198-1.882,11.815-2.357c11.514-0.631,13.936-2.484,14.293-2.831
			c4.188-0.335,7.014-0.677,8.033-0.944c1.832-0.48,2.713-0.965,2.713-0.965s-5.746,1.128-13.645,1.287
			c-7.898,0.163-19.549,0.645-26.729,0.645C101.299,22.35,97.467,22.223,96.667,22.188z"/>
	</g>
	<g>
		<path d="M95.548,20.15c-2.958-0.639-5.815-2.345-8.56-3.025c-2.997-0.741-5.565-0.844-6.693-0.854
			c-1.125-0.007-3.558,0.171-6.306,0.812c-2.748,0.642-5.622,2.429-8.58,3.067c-2.964,0.639-10.713,0.365-23.819,0.213
			c-12.192-0.143-31.643-0.926-31.643-0.926s0.986,1.776,5.002,2.705c3.087,0.707,7.472,0.777,7.472,0.777s2.127,1.625,5.003,2.205
			c3.525,0.71,8.949,0.71,8.949,0.71s0.987,1.42,5.497,1.99c5.116,0.644,8.459,0.925,13.603,0.993
			c5.145,0.072,6.763,0.642,7.892,1.141c2.962,1.307,5.215,3.693,9.021,5.473c3.704,1.729,7.876,1.569,8.096,1.563
			c0.214,0.007,4.385,0.166,8.09-1.563c3.807-1.779,6.059-4.166,9.021-5.473c1.124-0.499,2.745-1.068,7.893-1.141
			c5.146-0.067,8.484-0.35,13.6-0.993c4.51-0.569,5.499-1.99,5.499-1.99s5.423,0,8.946-0.71c2.877-0.58,5.005-2.205,5.005-2.205
			s4.387-0.07,7.473-0.777c4.015-0.928,5.003-2.705,5.003-2.705s-19.451,0.783-31.645,0.926
			C106.262,20.516,98.508,20.789,95.548,20.15z M145.794,21.785c-3.808,0.852-7.399,0.779-7.399,0.779s-0.776,1.209-4.793,2.135
			c-2.816,0.646-9.162,0.781-9.162,0.781s-0.562,1.35-5.354,1.988c-5.917,0.793-10.587,0.555-15.235,0.698
			c-4.652,0.14-5.918,0.704-8.16,2.146c-2.326,1.494-4.641,3.381-7.433,4.643c-1.58,0.716-4.334,1.375-6.661,1.468
			c-0.761,0.031-1.034,0.009-1.104,0.002v-0.002c0,0-0.006,0-0.01,0c-0.012,0-0.012,0-0.012,0v0.002
			c-0.073,0.007-0.348,0.029-1.109-0.002c-2.326-0.093-5.084-0.752-6.659-1.468c-2.794-1.262-5.109-3.148-7.433-4.643
			c-2.245-1.441-3.508-2.006-8.159-2.146c-4.65-0.144-9.32,0.093-15.238-0.698c-4.792-0.64-5.356-1.988-5.356-1.988
			s-6.343-0.135-9.159-0.781c-4.02-0.926-4.791-2.135-4.791-2.135s-3.596,0.072-7.399-0.779c-4.523-1.016-4.442-2.133-4.442-2.133
			s20.791,0.869,31.362,1.066c11.413,0.213,12.683,0.141,18.602,0.141c5.496,0,6.612-0.569,10.079-2.131
			c4.242-1.911,8.378-1.984,9.442-1.984c2.929,0,6.006,0.296,9.983,1.984c3.498,1.483,4.582,2.131,10.078,2.131
			c5.92,0,7.188,0.072,18.604-0.141c10.566-0.197,31.361-1.066,31.361-1.066S150.318,20.77,145.794,21.785z"/>
	</g>
	<g>
		<path d="M87.43,31.878c0.998-0.512,1.877-1.138,2.59-1.856c0.806-0.811,1.758-2.129,1.758-3.83c0-1.698-0.952-3.019-1.758-3.828
			c-0.709-0.715-1.584-1.338-2.58-1.846c1.295,1.693,1.914,3.522,1.914,5.67C89.354,28.346,88.73,30.178,87.43,31.878z"/>
	</g>
	<g>
		<path d="M82.863,31.832c0.033-0.014,0.062-0.025,0.095-0.038c0.104-0.048,0.204-0.087,0.299-0.123
			c0.211-0.077,0.394-0.135,0.563-0.188c0.438-0.133,0.791-0.248,1.223-0.643c0.035-0.035,0.075-0.066,0.111-0.105
			c0.379-0.383,0.521-0.801,0.63-1.242c0.018-0.08,0.04-0.158,0.058-0.235c0.03-0.147,0.069-0.294,0.108-0.446
			c0.036-0.115,0.069-0.234,0.112-0.351c0.02-0.038,0.029-0.073,0.047-0.108l0.686,0.317l-0.365,1.792
			c0.873-1.227,1.391-2.73,1.391-4.357c0-4.127-3.322-7.478-7.417-7.478c-4.095,0-7.416,3.351-7.416,7.478
			c0,4.131,3.321,7.48,7.416,7.48c1.151,0,2.241-0.266,3.213-0.738l-0.77-1.009C82.854,31.837,82.855,31.834,82.863,31.832z
			 M80.195,32.684c-0.622-0.092-0.95-0.281-1.296-0.477c-0.224-0.124-0.452-0.255-0.78-0.375c-0.255-0.096-0.471-0.154-0.68-0.213
			c-0.492-0.137-0.913-0.256-1.523-0.739c-0.549-0.44-0.635-0.762-0.755-1.21c-0.072-0.27-0.16-0.598-0.379-1.047
			c-0.158-0.328-0.305-0.585-0.438-0.814c-0.354-0.621-0.591-1.031-0.497-1.849c0.076-0.668,0.279-1.021,0.495-1.392
			c0.121-0.209,0.246-0.426,0.35-0.707c0.107-0.295,0.177-0.563,0.244-0.816c0.154-0.59,0.287-1.102,0.827-1.619
			c0.431-0.414,0.826-0.511,1.243-0.613c0.269-0.065,0.544-0.131,0.872-0.287c0.26-0.121,0.479-0.256,0.69-0.392
			c0.478-0.297,0.925-0.581,1.7-0.581c0.726,0,1.248,0.284,1.707,0.53c0.241,0.13,0.469,0.253,0.698,0.321l0.33,0.094
			c0.615,0.169,1.245,0.344,1.851,0.8c0.494,0.374,0.668,0.933,0.853,1.522c0.088,0.285,0.179,0.576,0.313,0.855
			c0.121,0.266,0.258,0.487,0.39,0.702c0.292,0.474,0.565,0.917,0.548,1.661c-0.023,0.73-0.229,1.096-0.507,1.604l-0.231,0.43
			c-0.203,0.4-0.294,0.783-0.378,1.154c-0.124,0.531-0.237,1.027-0.687,1.477c-0.484,0.484-0.861,0.6-1.336,0.75
			c-0.266,0.082-0.566,0.174-0.955,0.35c-0.291,0.131-0.547,0.268-0.772,0.387C81.458,32.523,80.952,32.793,80.195,32.684z"/>
	</g>
	<g>
		<path d="M73.243,31.878c-1.302-1.7-1.926-3.532-1.926-5.69c0-2.147,0.621-3.978,1.914-5.67c-0.997,0.508-1.872,1.131-2.582,1.846
			c-0.802,0.811-1.757,2.13-1.757,3.828c0,1.701,0.955,3.021,1.757,3.83C71.362,30.741,72.242,31.366,73.243,31.878z"/>
	</g>
	<g>
		<path d="M80.336,34.922c7.117,0,12.889-3.906,12.889-8.729c0-4.813-5.771-8.721-12.889-8.721c-7.115,0-12.884,3.907-12.884,8.721
			C67.452,31.016,73.221,34.922,80.336,34.922z M70.019,21.729c2.302-2.318,6.158-3.704,10.316-3.704
			c4.156,0,8.015,1.385,10.313,3.704c1.324,1.332,2.021,2.875,2.021,4.463c0,3.453-3.254,6.41-7.836,7.604
			c-0.068,0.279-0.124,0.491-0.124,0.491l-0.295-0.389c-1.278,0.299-2.651,0.463-4.081,0.463c-4.158,0-8.015-1.383-10.316-3.707
			C68.699,29.325,68,27.777,68,26.191C68.001,24.604,68.699,23.063,70.019,21.729z"/>
	</g>
	<g>
		<path d="M85.904,33.02l0.522-2.558l0.366-1.792l-0.686-0.318c-0.018,0.037-0.027,0.071-0.047,0.109l0.599,0.28l-0.833,4.075
			L85.1,32.289l-0.445,1.732l-1.697-2.228c-0.033,0.013-0.063,0.024-0.096,0.038c-0.006,0.002-0.01,0.005-0.016,0.007l0.768,1.009
			l0.802,1.053l0.295,0.388c0,0,0.056-0.212,0.124-0.491c0.121-0.473,0.292-1.141,0.336-1.313
			C85.354,32.619,85.904,33.02,85.904,33.02z"/>
	</g>
	<g>
		<path d="M85.042,30.84c-0.433,0.395-0.785,0.51-1.224,0.643c-0.168,0.055-0.352,0.111-0.563,0.188l1.157,1.603L85.042,30.84z"/>
	</g>
	<g>
		<path d="M85.232,31.87l0.377,0.272l0.711-3.158l-0.371-0.172c-0.039,0.151-0.078,0.297-0.108,0.445
			c-0.018,0.077-0.04,0.155-0.058,0.235l0.057,0.034L85.232,31.87z"/>
	</g>
	<g>
		<path d="M84.74,30.236c0.313-0.312,0.396-0.668,0.511-1.159c0.086-0.39,0.188-0.831,0.437-1.308l0.238-0.447
			c0.271-0.488,0.406-0.734,0.424-1.307c0.014-0.512-0.149-0.808-0.402-1.219l-9.679,5.488c0.031,0.025,0.062,0.052,0.096,0.078
			c0.504,0.404,0.835,0.498,1.29,0.623c0.213,0.059,0.453,0.127,0.733,0.229c0.377,0.142,0.641,0.289,0.873,0.423
			c0.331,0.187,0.571,0.318,1.073,0.393c0.548,0.082,0.907-0.106,1.498-0.42c0.233-0.129,0.499-0.27,0.812-0.41
			c0.424-0.191,0.76-0.295,1.028-0.381C84.121,30.684,84.369,30.605,84.74,30.236z M84.029,26.203l0.543-0.424
			c0.02-0.014,0.035-0.002,0.035,0.027l0.016,0.26c0,0.029-0.014,0.063-0.03,0.078l-0.546,0.422
			c-0.016,0.017-0.029,0.004-0.031-0.025l-0.017-0.26C83.999,26.251,84.012,26.217,84.029,26.203z M83.968,26.932
			c0.003-0.029,0.019-0.062,0.036-0.074l0.584-0.369c0.018-0.012,0.03,0,0.028,0.029l-0.011,0.258c0,0.029-0.017,0.064-0.035,0.078
			l-0.582,0.367c-0.02,0.012-0.036,0-0.033-0.027L83.968,26.932z M79.385,29.781c-0.01-0.02,0.002-0.034,0.033-0.032l0.256,0.019
			c0.029,0.002,0.061,0.021,0.073,0.041l0.342,0.602c0.015,0.018-0.002,0.029-0.03,0.029l-0.257-0.021
			c-0.028-0.002-0.063-0.02-0.073-0.039L79.385,29.781z M79.358,30.318l-0.249-0.063c-0.029-0.006-0.059-0.029-0.065-0.051
			L78.8,29.559c-0.009-0.021,0.006-0.033,0.034-0.027l0.25,0.063c0.027,0.006,0.059,0.031,0.067,0.053l0.243,0.646
			C79.404,30.313,79.385,30.325,79.358,30.318z M80.045,29.908c-0.018-0.018-0.005-0.033,0.021-0.037l0.258-0.023
			c0.029,0,0.063,0.01,0.08,0.027l0.439,0.531c0.015,0.017,0.004,0.033-0.024,0.033l-0.257,0.027
			c-0.027,0.004-0.064-0.009-0.08-0.029L80.045,29.908z M80.675,29.898c-0.019-0.016-0.008-0.03,0.02-0.035l0.25-0.063
			c0.028-0.006,0.063,0,0.083,0.015l0.512,0.461c0.016,0.016,0.009,0.035-0.02,0.041l-0.25,0.061c-0.028,0.01-0.067,0-0.084-0.02
			L80.675,29.898z M81.311,29.813c-0.021-0.013-0.016-0.031,0.01-0.043l0.229-0.117c0.025-0.012,0.065-0.016,0.084-0.004
			l0.601,0.336c0.021,0.013,0.016,0.033-0.012,0.045l-0.229,0.113c-0.025,0.017-0.064,0.017-0.086,0.006L81.311,29.813z
			 M81.908,29.611c-0.021-0.008-0.021-0.025,0.001-0.047l0.208-0.153c0.021-0.021,0.057-0.032,0.076-0.026l0.654,0.215
			c0.022,0.006,0.021,0.025-0.002,0.043l-0.203,0.158c-0.021,0.02-0.058,0.027-0.082,0.02L81.908,29.611z M82.477,29.311
			c-0.025-0.002-0.029-0.024-0.014-0.045l0.166-0.199c0.021-0.021,0.055-0.041,0.076-0.039l0.684,0.068
			c0.022,0,0.027,0.016,0.006,0.043l-0.164,0.194c-0.019,0.024-0.051,0.04-0.073,0.037L82.477,29.311z M82.999,28.869
			c-0.022,0-0.03-0.021-0.015-0.047l0.144-0.213c0.017-0.028,0.047-0.049,0.071-0.049l0.686-0.013c0.022,0,0.026,0.021,0.014,0.046
			l-0.143,0.215c-0.018,0.025-0.051,0.045-0.072,0.045L82.999,28.869z M83.391,28.373c-0.021,0.002-0.029-0.018-0.019-0.039
			l0.112-0.234c0.013-0.025,0.041-0.054,0.064-0.06l0.682-0.097c0.021-0.004,0.029,0.015,0.018,0.041l-0.114,0.234
			c-0.013,0.024-0.041,0.049-0.063,0.053L83.391,28.373z M83.698,27.837c-0.021,0.007-0.031-0.006-0.023-0.034l0.063-0.253
			c0.009-0.026,0.031-0.058,0.057-0.063l0.645-0.231c0.021-0.009,0.033,0.007,0.024,0.035l-0.067,0.251
			c-0.004,0.025-0.027,0.057-0.051,0.066L83.698,27.837z M81.049,28.018c0.006,0-0.021,0.301-0.021,0.301l1.024-0.84
			c0.007,0-0.067,0.435-0.049,0.435c0.019,0.006,0.679-0.638,0.679-0.638l-0.818,1.16c-0.012-0.197,0.01-0.289-0.002-0.451
			c-0.002-0.006-1.05,0.854-1.05,0.854l0.003-0.363c-0.255,0.121-0.486,0.219-0.725,0.313C80.395,28.534,80.799,28.21,81.049,28.018
			z M78.983,28.896c0.412,0.213,0.881,0.336,1.377,0.336c1.594,0,2.897-1.248,3.01-2.824c0.164-0.094,0.323-0.184,0.479-0.271
			c0,0.018,0,0.037,0,0.053c0,1.918-1.541,3.474-3.439,3.474c-0.68,0-1.293-0.199-1.826-0.54
			C78.714,29.049,78.846,28.973,78.983,28.896z M78.372,29.232l0.181,0.104c0.024,0.017,0.048,0.042,0.05,0.069l0.068,0.688
			c0.001,0.023-0.016,0.029-0.04,0.018l-0.226-0.125c-0.025-0.018-0.049-0.047-0.052-0.072l-0.053-0.65L78.372,29.232z
			 M78.088,29.413l0.008,0.276c0,0.024-0.019,0.031-0.043,0.018l-0.215-0.146c-0.004-0.002-0.006-0.006-0.012-0.008L78.088,29.413z
			 M77.733,29.605l-0.058,0.035c0.753,0.611,1.688,0.965,2.733,0.965c2.418,0,4.373-1.979,4.373-4.416
			c0-0.189-0.01-0.377-0.033-0.561l-0.081,0.046l-0.502,0.282c0.333-0.189,0.632-0.357,0.886-0.501l-0.068,0.039
			c0.033,0.233,0.051,0.409,0.051,0.692c0,2.562-2.061,4.638-4.599,4.638c-1.171,0-2.264-0.486-2.953-1.079l-0.003,0.002
			C77.56,29.703,77.644,29.654,77.733,29.605z M82.59,31.081c-0.316,0.142-0.582,0.286-0.818,0.41
			c-0.021,0.012-0.041,0.022-0.062,0.034c0-0.008-0.004-0.016-0.01-0.016c-0.011-0.003-0.019,0.004-0.021,0.018
			c-0.003,0.004-0.002,0.01,0,0.014c-0.119,0.064-0.23,0.122-0.332,0.172c0-0.011-0.002-0.021-0.012-0.027
			c-0.018-0.014-0.042-0.006-0.061,0.014c-0.012,0.016-0.012,0.033-0.006,0.047c-0.314,0.146-0.577,0.211-0.922,0.158
			c-0.475-0.07-0.697-0.193-1.025-0.379c-0.147-0.086-0.307-0.178-0.502-0.269c0.005-0.001,0.008-0.003,0.011-0.007
			c0.009-0.008,0.009-0.021,0.002-0.027s-0.018-0.002-0.024,0.006c-0.006,0.006-0.006,0.016-0.002,0.021
			c-0.112-0.053-0.236-0.105-0.377-0.156c-0.165-0.063-0.316-0.109-0.456-0.15c0.013-0.004,0.025-0.01,0.034-0.021
			c0.021-0.022,0.024-0.058,0.006-0.077c-0.021-0.014-0.053-0.011-0.074,0.014c-0.018,0.023-0.022,0.054-0.009,0.07
			c-0.084-0.025-0.166-0.049-0.241-0.07c-0.44-0.121-0.74-0.207-1.191-0.555c0.057-0.033,0.394-0.224,0.907-0.515
			c0.572,0.517,1.331,0.896,2.188,1.048c-0.009,0.002-0.017,0.006-0.023,0.016c-0.018,0.014-0.02,0.039-0.007,0.049
			c0.014,0.013,0.036,0.01,0.05-0.008c0.014-0.014,0.019-0.039,0.008-0.051c0.264,0.045,0.535,0.068,0.813,0.068
			c2.583,0,4.684-2.12,4.684-4.725c0-0.299-0.018-0.539-0.055-0.74c0.488-0.276,0.803-0.455,0.84-0.477
			c0.063,0.109,0.121,0.209,0.166,0.309c-0.016-0.01-0.032-0.016-0.047-0.006c-0.014,0.014-0.014,0.041,0,0.063
			c0.016,0.021,0.041,0.027,0.062,0.014c0.006-0.004,0.008-0.013,0.009-0.021c0.081,0.188,0.127,0.378,0.127,0.625
			c0,0.017,0,0.036,0,0.056c-0.016,0.523-0.13,0.75-0.382,1.204c-0.003-0.004-0.007-0.007-0.011-0.008
			c-0.016-0.006-0.032-0.002-0.038,0.007c-0.004,0.012,0.006,0.023,0.021,0.03c0.004,0.002,0.008,0.001,0.012,0.001
			c-0.002,0.004-0.004,0.008-0.008,0.011c0,0-0.041,0.079-0.09,0.17c-0.013-0.014-0.027-0.022-0.043-0.019
			c-0.021,0.007-0.033,0.033-0.027,0.061c0.006,0.016,0.016,0.028,0.027,0.036c-0.059,0.104-0.111,0.203-0.111,0.205
			c-0.162,0.319-0.266,0.625-0.34,0.908c-0.004-0.005-0.01-0.007-0.016-0.009c-0.021-0.006-0.05,0.013-0.057,0.043
			c-0.012,0.029,0.002,0.06,0.025,0.064c0.006,0.002,0.014,0.001,0.02-0.001c-0.02,0.084-0.04,0.166-0.059,0.246
			c-0.004,0.001-0.008,0-0.012,0.003c-0.012,0.01-0.009,0.029,0.001,0.044c-0.002,0.013-0.006,0.024-0.008,0.037
			c-0.117,0.489-0.188,0.812-0.476,1.097c-0.039,0.037-0.072,0.069-0.107,0.101c0.009-0.009,0.007-0.022,0-0.032
			c-0.011-0.005-0.023-0.002-0.034,0.012c-0.008,0.01-0.008,0.026,0,0.03c0.009,0.009,0.021,0.004,0.028-0.003
			c-0.29,0.258-0.508,0.326-0.902,0.447C83.359,30.779,83.021,30.887,82.59,31.081z"/>
	</g>
	<g>
		<polygon points="78.965,26.663 79.204,26.54 79.207,25.842 78.967,25.979 		"/>
	</g>
	<g>
		<path d="M85.43,23.909c-0.15-0.322-0.246-0.636-0.342-0.937c-0.115-0.361-0.207-0.666-0.361-0.906l-9.69,5.586
			c0.102,0.185,0.214,0.392,0.332,0.634c0.246,0.505,0.343,0.87,0.422,1.163c0.081,0.303,0.125,0.464,0.292,0.652l9.729-5.512
			C85.684,24.393,85.555,24.173,85.43,23.909z M77.281,27.415c-0.081,0.047-0.217,0.11-0.302,0.163v-0.496
			c0,0-0.215,0.124-0.263,0.15c0,0-0.008,1.736-0.008,1.81c0.013,0.047,0.038,0.021,0.038,0.017c0.127-0.063,0.238-0.09,0.238-0.197
			c0.002-0.102,0.002-0.192,0.002-0.289l0.29-0.145c-0.002,0.166-0.002,0.479-0.002,0.625c-0.009,0.057-0.04,0.109-0.083,0.145
			l-0.614,0.35c-0.094,0.031-0.177-0.021-0.184-0.129l0.011-2.225c-0.013-0.067,0.02-0.116,0.09-0.174
			c0.202-0.121,0.46-0.27,0.68-0.386c0.085-0.013,0.099,0.035,0.111,0.124L77.281,27.415z M78.403,28.493
			c0,0.006-0.32,0.183-0.32,0.183l0.003-1.111l-0.28,0.154c0,0-0.01,1.125-0.006,1.125l-0.302,0.176
			c0,0.006,0.006-2.537,0.006-2.537l0.289-0.164l-0.005,1.016c0.014-0.006,0.31-0.171,0.31-0.171l0.005-1.036l0.312-0.178
			C78.414,25.949,78.403,28.484,78.403,28.493z M79.725,27.743c-0.075,0.048-0.182,0.114-0.256,0.159h-0.031l-0.402-0.901
			l-0.098,0.048l-0.007,1.157l-0.275,0.14l0.002-2.505c0.196-0.108,0.374-0.218,0.594-0.347c0.089-0.035,0.107-0.038,0.173-0.018
			c0.069,0.053,0.065,0.115,0.065,0.115s0,0.954,0,1.02c0,0.062-0.021,0.13-0.045,0.158c-0.033,0.033-0.062,0.06-0.153,0.111
			l0.304,0.604c0,0,0.109-0.063,0.13-0.072C79.725,27.475,79.725,27.743,79.725,27.743z M80.318,26.182l-0.004,1.228l-0.304,0.167
			l0.006-1.344c-0.11-0.198-0.496-0.883-0.496-0.883l0.302-0.16c0,0,0.293,0.541,0.303,0.539l0.127-0.809
			c0.103-0.057,0.311-0.176,0.311-0.176L80.318,26.182z M81.55,26.686c-0.032,0.028-0.611,0.365-0.617,0.365
			c-0.002-0.002-0.073,0.04-0.147,0.08c-0.036,0.016-0.032-0.055-0.032-0.055l0.003-0.674c0,0,0.271-0.146,0.275-0.146
			c0.004-0.003-0.005,0.404-0.005,0.404l0.3-0.177v-0.049l0.004-0.604c0,0,0.007-0.043-0.021-0.063l-0.047,0.017l-0.421,0.25
			c-0.054,0.015-0.078,0.026-0.104-0.025l0.007-1.276c-0.007-0.073,0.026-0.11,0.026-0.11s0.611-0.354,0.683-0.392
			c0.098-0.035,0.109,0.018,0.113,0.113c0,0.088-0.006,0.522-0.006,0.522l-0.256,0.144v-0.337l-0.299,0.171
			c-0.004,0.211-0.002,0.415-0.004,0.635c0.004,0.045,0.049,0.062,0.064,0.045c0.162-0.082,0.287-0.149,0.445-0.244
			c0.049-0.01,0.057,0.021,0.067,0.052l-0.006,1.198C81.576,26.531,81.586,26.652,81.55,26.686z M82.555,26.111l-0.693,0.402
			l0.012-2.502l0.298-0.172l-0.011,2.193c0,0,0.396-0.221,0.396-0.217S82.555,26.111,82.555,26.111z M83.533,25.57
			c0,0-0.828,0.468-0.829,0.474c-0.002,0.004,0.009-2.522,0.009-2.522l0.805-0.459c0,0-0.006,0.354-0.004,0.369
			c0,0-0.277,0.164-0.463,0.271l-0.003,0.723c0,0,0.341-0.219,0.343-0.217c0.002,0.003-0.002,0.409-0.002,0.409l-0.33,0.188v0.729
			c0,0.012,0.478-0.294,0.479-0.29C83.535,25.249,83.533,25.57,83.533,25.57z M84.71,24.918c-0.073,0.048-0.181,0.111-0.255,0.159
			l-0.032-0.002l-0.403-0.901l-0.098,0.051l-0.003,1.154l-0.276,0.141l0.002-2.502c0.193-0.108,0.373-0.222,0.594-0.352
			c0.087-0.033,0.104-0.036,0.173-0.016c0.067,0.055,0.063,0.115,0.063,0.115s0,0.959,0,1.02c0,0.063-0.019,0.132-0.045,0.16
			c-0.031,0.029-0.061,0.06-0.15,0.111l0.302,0.604c0,0,0.112-0.061,0.131-0.074C84.71,24.646,84.71,24.918,84.71,24.918z"/>
	</g>
	<g>
		<polygon points="83.947,23.836 84.189,23.712 84.193,23.016 83.951,23.15 		"/>
	</g>
	<g>
		<path d="M83.324,22.587l0.005-0.002l1.241-0.711c-0.021-0.021-0.043-0.036-0.064-0.054c-0.504-0.381-1.049-0.532-1.627-0.692
			l-0.346-0.099c-0.295-0.086-0.561-0.229-0.82-0.369c-0.431-0.232-0.839-0.454-1.398-0.454c-0.59,0-0.91,0.2-1.358,0.481
			c-0.218,0.139-0.465,0.291-0.76,0.431c-0.386,0.181-0.708,0.26-0.996,0.327c-0.386,0.094-0.641,0.158-0.942,0.449
			c-0.41,0.393-0.504,0.758-0.65,1.313c-0.067,0.26-0.141,0.553-0.262,0.878c-0.124,0.334-0.269,0.586-0.398,0.81
			c-0.197,0.338-0.352,0.605-0.411,1.137c-0.064,0.578,0.072,0.848,0.378,1.38L83.324,22.587L83.324,22.587z M76.778,26.092
			l-0.54,0.418c-0.018,0.016-0.033,0.004-0.035-0.025l-0.014-0.256c0-0.029,0.011-0.064,0.029-0.08l0.537-0.418
			c0.019-0.015,0.034-0.004,0.036,0.025l0.015,0.256C76.807,26.043,76.794,26.075,76.778,26.092z M76.876,25.395
			c0,0.028-0.017,0.063-0.036,0.074l-0.575,0.363c-0.02,0.014-0.034,0-0.032-0.027l0.011-0.257c0.002-0.028,0.018-0.063,0.038-0.077
			l0.573-0.363c0.02-0.012,0.034,0.002,0.034,0.033L76.876,25.395z M81.316,22.6c0.014,0.02-0.002,0.029-0.029,0.029l-0.254-0.02
			c-0.027-0.002-0.061-0.02-0.073-0.041l-0.34-0.592c-0.011-0.021,0-0.035,0.032-0.033l0.254,0.021
			c0.027,0.001,0.06,0.02,0.074,0.038L81.316,22.6z M81.355,22.055l0.248,0.061c0.026,0.007,0.056,0.029,0.063,0.051l0.24,0.641
			c0.008,0.021-0.007,0.034-0.033,0.029l-0.247-0.063c-0.027-0.01-0.061-0.032-0.066-0.053l-0.24-0.641
			C81.311,22.061,81.326,22.048,81.355,22.055z M80.688,22.484c0.015,0.016,0.005,0.031-0.024,0.035l-0.253,0.023
			c-0.028,0.001-0.065-0.012-0.08-0.027l-0.435-0.524c-0.015-0.019-0.004-0.034,0.024-0.038l0.254-0.023
			c0.028-0.005,0.063,0.008,0.078,0.027L80.688,22.484z M80.063,22.502c0.016,0.014,0.008,0.032-0.018,0.039L79.796,22.6
			c-0.028,0.008-0.065,0-0.082-0.015l-0.507-0.454c-0.016-0.02-0.008-0.035,0.021-0.044l0.245-0.06c0.031-0.006,0.066,0,0.082,0.016
			L80.063,22.502z M79.434,22.59c0.021,0.01,0.015,0.029-0.01,0.039l-0.229,0.119c-0.025,0.009-0.062,0.012-0.082,0.001l-0.593-0.33
			c-0.021-0.013-0.016-0.032,0.008-0.044l0.229-0.115c0.025-0.012,0.063-0.014,0.084-0.001L79.434,22.59z M78.859,22.797
			c0.025,0.006,0.023,0.025-0.001,0.044l-0.201,0.155c-0.023,0.02-0.058,0.029-0.08,0.023l-0.646-0.213
			c-0.021-0.006-0.021-0.023,0.002-0.043l0.2-0.154c0.024-0.02,0.059-0.028,0.082-0.02L78.859,22.797z M78.313,23.096
			c0.023,0.002,0.025,0.023,0.009,0.043l-0.164,0.198c-0.016,0.021-0.05,0.038-0.074,0.038l-0.676-0.064
			c-0.022-0.004-0.026-0.021-0.006-0.045l0.161-0.195c0.02-0.02,0.053-0.037,0.074-0.037L78.313,23.096z M77.837,23.523
			c0.021-0.002,0.027,0.017,0.011,0.043l-0.141,0.211c-0.016,0.025-0.046,0.045-0.069,0.045l-0.679,0.013
			c-0.024,0-0.027-0.017-0.014-0.042l0.143-0.213c0.017-0.023,0.048-0.045,0.068-0.046L77.837,23.523z M77.426,24.014
			c0.024-0.002,0.033,0.014,0.019,0.041l-0.113,0.23c-0.012,0.025-0.039,0.051-0.063,0.052l-0.671,0.104
			c-0.023,0.002-0.031-0.017-0.018-0.041l0.11-0.231c0.013-0.026,0.041-0.051,0.063-0.054L77.426,24.014z M77.1,24.545
			c0.021-0.011,0.032,0.005,0.025,0.032l-0.065,0.25c-0.009,0.026-0.032,0.057-0.053,0.065l-0.64,0.229
			c-0.021,0.005-0.033-0.009-0.024-0.036l0.064-0.25c0.007-0.027,0.032-0.057,0.052-0.064L77.1,24.545z M79.765,24.203
			c-0.009,0.002-0.018,0.012-0.03,0.006c-0.002-0.094,0.048-0.355,0.033-0.367l-0.993,0.939c-0.013,0.012-0.034-0.35-0.04-0.342
			c-0.199,0.172-0.581,0.52-0.789,0.686l0.882-1.143c0.028,0.006,0.041,0.367,0.041,0.367c0.006,0.014,1.14-0.978,1.14-0.978
			l0.008,0.001c-0.008,0.165-0.008,0.291-0.021,0.457c0.005,0.02,0.541-0.266,0.744-0.357L79.765,24.203z M81.591,23.432
			c-0.362-0.154-0.761-0.242-1.182-0.242c-1.531,0-2.795,1.149-2.992,2.638c-0.153,0.088-0.303,0.173-0.447,0.255
			c0.057-1.867,1.572-3.361,3.439-3.361c0.604,0,1.17,0.158,1.664,0.434C81.917,23.243,81.756,23.337,81.591,23.432z M82.227,23.077
			l-0.072-0.04c-0.023-0.016-0.047-0.047-0.051-0.068l-0.064-0.681c-0.004-0.024,0.014-0.029,0.039-0.017l0.225,0.127
			c0.023,0.012,0.047,0.041,0.049,0.063l0.049,0.517L82.227,23.077z M82.598,22.865l-0.008-0.277c0-0.023,0.02-0.029,0.04-0.013
			l0.214,0.142c0.004,0,0.01,0.004,0.01,0.006L82.598,22.865z M82.993,22.626c-0.726-0.534-1.618-0.849-2.584-0.849
			c-2.42,0-4.379,1.976-4.379,4.412c0,0.143,0.009,0.283,0.021,0.42c-0.061,0.035-0.121,0.07-0.179,0.104
			c-0.018-0.173-0.031-0.346-0.031-0.523c0-2.557,2.056-4.635,4.594-4.635c1.047,0,2.004,0.354,2.776,0.945
			C83.143,22.541,83.066,22.582,82.993,22.626z M80.435,21.471c-2.581,0-4.681,2.116-4.681,4.719c0,0.192,0.016,0.383,0.037,0.569
			c-0.482,0.277-0.79,0.454-0.828,0.476c-0.206-0.367-0.313-0.598-0.313-0.939c0-0.074,0.004-0.158,0.015-0.247
			c0.058-0.504,0.198-0.747,0.394-1.086c0.131-0.228,0.279-0.483,0.409-0.831c0.117-0.32,0.191-0.605,0.259-0.861
			c0.002,0.006,0.005,0.014,0.009,0.02c0.015,0.016,0.039,0.018,0.052,0.008c0.012-0.009,0.01-0.039-0.002-0.053
			c-0.018-0.016-0.036-0.02-0.048-0.01c0.143-0.545,0.229-0.877,0.608-1.242c0.277-0.27,0.507-0.324,0.888-0.416
			c0.289-0.069,0.619-0.15,1.019-0.338c0.303-0.145,0.552-0.301,0.771-0.438c0.444-0.281,0.739-0.464,1.292-0.464
			c0.529,0,0.92,0.214,1.336,0.438c0.145,0.078,0.293,0.156,0.447,0.228c-0.004,0.001-0.01,0.003-0.012,0.006
			c-0.01,0.009-0.01,0.019-0.004,0.024c0.012,0.006,0.02,0.004,0.027-0.006c0.006-0.006,0.005-0.014,0.002-0.019
			c0.123,0.058,0.253,0.109,0.39,0.15c0,0,0.34,0.095,0.341,0.095c0.219,0.061,0.434,0.121,0.639,0.191
			c-0.008,0.006-0.012,0.018-0.01,0.031s0.014,0.023,0.025,0.021c0.014-0.003,0.021-0.016,0.018-0.033
			c0-0.004-0.004-0.007-0.006-0.01c0.285,0.1,0.561,0.221,0.822,0.4c-0.063,0.037-0.452,0.26-1.037,0.597
			C82.503,21.837,81.514,21.471,80.435,21.471z"/>
	</g>
</g>
</svg>
