<?xml version="1.0" encoding="utf-8"?>
<!-- Generator: Adobe Illustrator 16.0.0, SVG Export Plug-In . SVG Version: 6.00 Build 0)  -->
<!DOCTYPE svg PUBLIC "-//W3C//DTD SVG 1.1//EN" "http://www.w3.org/Graphics/SVG/1.1/DTD/svg11.dtd">
<svg version="1.1" id="Layer_1" xmlns="http://www.w3.org/2000/svg" xmlns:xlink="http://www.w3.org/1999/xlink" x="0px" y="0px"
	 width="139px" height="25px" viewBox="0 0 139 25" enable-background="new 0 0 139 25" xml:space="preserve">
<g>
	<g>
		<path d="M42.807,15.434c-0.968,1.518-2.669,2.522-4.606,2.522c-3.016,0-5.459-2.437-5.459-5.441c0-3.004,2.443-5.439,5.459-5.439
			c1.959,0,3.678,1.028,4.64,2.574l3.322-2.058c-1.652-2.65-4.601-4.414-7.962-4.414c-5.175,0-9.369,4.181-9.369,9.337
			c0,5.158,4.194,9.338,9.369,9.338c3.361,0,6.308-1.765,7.961-4.414L42.807,15.434L42.807,15.434z"/>
	</g>
	<g>
		<polygon points="47.836,3.76 52.015,3.76 52.015,21.359 47.836,21.359 		"/>
	</g>
	<g>
		<polygon points="68.909,3.76 53.543,3.76 53.543,7.521 59.115,7.521 59.115,21.359 63.293,21.359 63.293,7.521 68.909,7.521 		"/>
	</g>
	<g>
		<polygon points="107.415,3.76 107.415,21.359 120.49,21.359 120.49,17.729 111.323,17.729 111.323,14.24 120.04,14.24 
			120.04,10.624 111.457,10.624 111.457,7.388 120.669,7.388 120.669,3.76 		"/>
	</g>
	<g>
		<polygon points="123.096,21.359 123.096,3.76 127.993,3.76 135.182,15.416 135.182,3.76 139,3.76 139,21.359 134.193,21.359 
			127.004,10.298 127.004,21.359 		"/>
	</g>
	<g>
		<path d="M109.391,1.61c0-0.865,0.705-1.567,1.572-1.567c0.869,0,1.574,0.702,1.574,1.567c0,0.866-0.705,1.567-1.574,1.567
			C110.096,3.177,109.391,2.476,109.391,1.61L109.391,1.61z"/>
	</g>
	<g>
		<path d="M115.473,1.61c0-0.865,0.704-1.567,1.572-1.567c0.869,0,1.573,0.702,1.573,1.567c0,0.866-0.704,1.567-1.573,1.567
			C116.177,3.177,115.473,2.476,115.473,1.61L115.473,1.61z"/>
	</g>
	<path d="M85.488,9.537c0-3.19-2.594-5.777-5.797-5.777H70.48v17.599h3.773v-6.135h2.922l4.135,6.135h4.852l-4.489-6.391
		C83.898,14.161,85.488,12.034,85.488,9.537z M79.477,11.776l-5.222-0.016V7.298h5.222c1.24,0,2.246,1.003,2.246,2.239
		S80.717,11.776,79.477,11.776z"/>
	<path d="M96.184,3.178c-5.188,0-9.393,4.19-9.393,9.36c0,5.169,4.204,9.358,9.393,9.36c5.187,0,9.391-4.191,9.391-9.36
		C105.574,7.368,101.37,3.178,96.184,3.178z M96.182,18c-3.027,0-5.479-2.445-5.479-5.462c0-3.017,2.452-5.462,5.479-5.462
		c3.026,0,5.479,2.446,5.479,5.462C101.661,15.555,99.208,18,96.182,18z"/>
	<g>
		<path fill="#FE000D" d="M0,0v25h25.088V0H0z M12.544,14.167L0.836,24.001L12.544,8.834l11.708,15.167L12.544,14.167z
			 M12.544,6.167L0.836,16.169L12.544,0.833l11.708,15.336L12.544,6.167z"/>
	</g>
</g>
</svg>
