<?xml version="1.0" encoding="utf-8"?>
<!-- Generator: Adobe Illustrator 16.0.0, SVG Export Plug-In . SVG Version: 6.00 Build 0)  -->
<!DOCTYPE svg PUBLIC "-//W3C//DTD SVG 1.1//EN" "http://www.w3.org/Graphics/SVG/1.1/DTD/svg11.dtd">
<svg version="1.1" id="Layer_1" xmlns="http://www.w3.org/2000/svg" xmlns:xlink="http://www.w3.org/1999/xlink" x="0px" y="0px"
	 width="70px" height="61px" viewBox="0 0 70 61" enable-background="new 0 0 70 61" xml:space="preserve">
<g>
	<g>
		<line x1="68.543" y1="1.158" x2="68.543" y2="1.158"/>
	</g>
	<g>
		<path d="M68.543,1.158L68.543,1.158l-0.02-0.005C68.523,1.153,68.54,1.157,68.543,1.158c-0.014-0.002-0.581-0.1-0.581-0.1
			c0-0.001-1.396-0.157-1.396-0.157C61.816,0.485,46.993,0,35.003,0C23.009,0,8.183,0.485,3.432,0.901L2.034,1.057
			c0,0.001-0.579,0.101-0.579,0.101c-0.939,0.25-1.56,1.166-1.441,2.133c0,0.002,0.259,1.466,0.259,1.466
			c0.455,2.497,0.96,5.006,1.501,7.464c0.527,2.402,1.118,4.877,1.755,7.355c0,0.001,1.185,4.436,1.185,4.436l1.784,6.13
			l1.934,6.105c0.727,2.207,2.998,8.649,3.421,9.711c1.868,4.688,3.852,8.388,7.449,11.207C22.966,60.031,26.93,61,35.005,61
			c8.065,0,12.027-0.969,15.692-3.835c3.598-2.817,5.58-6.519,7.449-11.207c0.422-1.054,2.689-7.498,3.42-9.711l1.936-6.105
			l1.784-6.13l1.185-4.436c0.631-2.46,1.223-4.935,1.754-7.355c0.543-2.467,1.049-4.979,1.502-7.464l0.26-1.469
			C69.994,3.21,70,3.131,70,3.054C70,2.18,69.407,1.387,68.543,1.158z M69.55,3.24c-0.005,0.04-0.192,1.096-0.256,1.439
			c-0.454,2.491-0.954,4.975-1.498,7.448c-0.54,2.458-1.126,4.905-1.751,7.342c-0.379,1.479-0.775,2.956-1.184,4.427
			c-0.301,1.086-1.223,4.292-1.779,6.121c-0.62,2.04-1.266,4.072-1.932,6.094c-0.729,2.209-3.002,8.658-3.412,9.687
			c-1.866,4.685-3.85,8.313-7.313,11.026c-3.354,2.623-6.907,3.742-15.42,3.742c-8.514,0-12.077-1.119-15.432-3.742
			c-3.464-2.713-5.446-6.342-7.313-11.026c-0.411-1.028-2.684-7.479-3.412-9.687c-0.667-2.022-1.311-4.055-1.931-6.094
			c-0.557-1.828-1.48-5.035-1.781-6.121c-0.408-1.472-0.803-2.948-1.183-4.427c-0.625-2.438-1.211-4.885-1.75-7.342
			C1.658,9.654,1.158,7.17,0.705,4.679c-0.063-0.343-0.25-1.4-0.256-1.439C0.361,2.52,0.804,1.782,1.568,1.578
			C1.68,1.548,1.914,1.515,2.096,1.49c0.417-0.059,0.87-0.11,1.374-0.155C3.5,1.332,3.533,1.329,3.566,1.326V1.323
			c0.088-0.007,0.18-0.015,0.275-0.021c0,0,0,0.002,0,0.003c2.238-0.18,6.328-0.372,11.236-0.53c5.618-0.2,11.238-0.301,16.86-0.329
			c1.033-0.006,2.057-0.01,3.064-0.01s2.03,0.003,3.063,0.01c5.629,0.028,11.259,0.129,16.884,0.33
			c4.901,0.158,8.981,0.352,11.213,0.529c0.001,0,0.001-0.001,0.001-0.001c0.102,0.007,0.197,0.015,0.292,0.022v0.003
			c0.022,0.002,0.049,0.004,0.071,0.006c0.504,0.044,0.959,0.096,1.373,0.155c0.184,0.026,0.418,0.059,0.529,0.088
			C69.193,1.782,69.637,2.52,69.55,3.24z"/>
	</g>
	<g>
		<path d="M19.39,32.43c0.017,0.045,0.031,0.088,0.046,0.129c0.754,1.994,2.807,6.965,3.195,7.86
			c0.311,0.724,0.628,1.437,0.967,2.116c0.058,0.115,0.115,0.23,0.175,0.345c0.021,0.04,0.041,0.077,0.062,0.115
			c0.056,0.106,0.113,0.212,0.17,0.317c0.029,0.053,0.06,0.105,0.088,0.158c0.045,0.078,0.091,0.156,0.136,0.235
			c0.035,0.06,0.07,0.116,0.104,0.175c0.044,0.073,0.09,0.146,0.135,0.219c0.035,0.057,0.073,0.114,0.109,0.172
			c0.049,0.076,0.1,0.15,0.15,0.225c0.034,0.051,0.069,0.104,0.104,0.152c0.068,0.1,0.14,0.195,0.21,0.289
			c0.02,0.025,0.037,0.051,0.057,0.076c0.092,0.121,0.187,0.238,0.284,0.354c0.023,0.028,0.049,0.055,0.072,0.083
			c0.075,0.086,0.15,0.173,0.229,0.256c0.034,0.038,0.069,0.074,0.105,0.109c0.069,0.072,0.141,0.143,0.212,0.213
			c0.042,0.041,0.083,0.078,0.126,0.119c0.101,0.092,0.201,0.185,0.307,0.271c0.752,0.621,1.616,1.065,2.538,1.362
			c0.97,0.305,2.206,0.518,3.839,0.578c0.729,0.027,1.67,0.027,2.193,0.027c0.522,0,1.461,0,2.19-0.027
			c1.635-0.062,2.871-0.273,3.842-0.578c0.921-0.297,1.785-0.742,2.537-1.362c0.109-0.09,0.212-0.185,0.316-0.28
			c0.035-0.033,0.07-0.066,0.107-0.102c0.076-0.076,0.154-0.152,0.229-0.23c0.03-0.031,0.062-0.063,0.09-0.094
			c0.086-0.089,0.166-0.182,0.246-0.275c0.021-0.021,0.039-0.043,0.058-0.065c0.1-0.119,0.196-0.237,0.29-0.358
			c0.015-0.021,0.029-0.043,0.046-0.063c0.075-0.1,0.147-0.199,0.22-0.301c0.035-0.051,0.069-0.103,0.105-0.153
			c0.048-0.075,0.098-0.147,0.146-0.224c0.037-0.059,0.074-0.117,0.113-0.178c0.043-0.068,0.087-0.14,0.129-0.209
			c0.037-0.061,0.073-0.121,0.107-0.183c0.045-0.077,0.088-0.151,0.132-0.229c0.03-0.054,0.063-0.108,0.093-0.164
			c0.055-0.099,0.107-0.199,0.16-0.299c0.023-0.047,0.048-0.091,0.072-0.137c0.039-0.074,0.076-0.148,0.115-0.225
			c0.359-0.715,0.695-1.467,1.023-2.23c0.388-0.896,2.441-5.867,3.195-7.861c0.012-0.033,0.022-0.07,0.037-0.105v0.001
			c0,0,0.129-0.356,0.174-0.479c0.002-0.004,0.004-0.011,0.007-0.016c-0.375,0.016-0.931,0.045-1.306,0.063
			c-1.01,0.049-2.018,0.092-3.026,0.131c-1.986,0.08-3.974,0.146-5.96,0.188c-1.241,0.026-2.482,0.039-3.725,0.047
			c-0.602,0.004-1.192,0.008-1.769,0.008s-1.168-0.004-1.771-0.008c-1.24-0.009-2.481-0.021-3.721-0.047
			c-1.987-0.042-3.976-0.107-5.961-0.188c-1.009-0.039-2.018-0.082-3.026-0.131c-0.374-0.017-0.931-0.045-1.305-0.063
			C19.27,32.096,19.39,32.43,19.39,32.43L19.39,32.43z M35.003,32.827c4.201,0,9.562-0.147,15.151-0.411
			c-0.748,1.979-2.801,6.947-3.186,7.833v0.001c-0.898,2.092-1.906,4.251-3.459,5.645c-1.08,0.974-2.598,1.891-6.332,2.03
			l-2.176,0.029l-2.176-0.029c-3.748-0.14-5.304-1.104-6.333-2.03c-1.553-1.394-2.561-3.553-3.46-5.645
			c-0.383-0.887-2.436-5.855-3.183-7.833C25.441,32.68,30.799,32.827,35.003,32.827z"/>
	</g>
	<g>
		<path d="M44.955,44.949c-0.016,0.02-0.031,0.042-0.046,0.063C44.924,44.991,44.939,44.969,44.955,44.949z"/>
	</g>
	<g>
		<path d="M44.955,44.949c-0.016,0.02-0.031,0.042-0.046,0.063C44.924,44.991,44.939,44.969,44.955,44.949z"/>
	</g>
	<g>
		<path d="M44.619,45.37c-0.018,0.022-0.037,0.043-0.057,0.065C44.582,45.414,44.602,45.393,44.619,45.37z"/>
	</g>
	<g>
		<path d="M44.619,45.37c-0.018,0.022-0.037,0.043-0.057,0.065C44.582,45.414,44.602,45.393,44.619,45.37z"/>
	</g>
	<g>
		<path d="M45.279,44.495c-0.035,0.051-0.069,0.103-0.104,0.153C45.21,44.598,45.244,44.546,45.279,44.495z"/>
	</g>
	<g>
		<path d="M45.279,44.495c-0.035,0.051-0.069,0.103-0.104,0.153C45.21,44.598,45.244,44.546,45.279,44.495z"/>
	</g>
	<g>
		<path d="M44.316,45.711c-0.029,0.031-0.061,0.063-0.09,0.094C44.257,45.775,44.287,45.743,44.316,45.711z"/>
	</g>
	<g>
		<path d="M44.316,45.711c-0.029,0.031-0.061,0.063-0.09,0.094C44.257,45.775,44.287,45.743,44.316,45.711z"/>
	</g>
	<g>
		<path d="M45.541,44.096c-0.039,0.059-0.076,0.118-0.113,0.178C45.465,44.214,45.502,44.154,45.541,44.096z"/>
	</g>
	<g>
		<path d="M45.541,44.096c-0.039,0.059-0.076,0.118-0.113,0.178C45.465,44.214,45.502,44.154,45.541,44.096z"/>
	</g>
	<g>
		<path d="M26.126,46.146c-0.043-0.041-0.084-0.08-0.126-0.119C26.042,46.068,26.083,46.105,26.126,46.146z"/>
	</g>
	<g>
		<path d="M26.126,46.146c-0.043-0.041-0.084-0.08-0.126-0.119C26.042,46.068,26.083,46.105,26.126,46.146z"/>
	</g>
	<g>
		<path d="M35.003,32.393c0.575,0,1.167-0.002,1.769-0.008C36.182,32.389,35.592,32.393,35.003,32.393z"/>
	</g>
	<g>
		<path d="M35.003,32.393c0.575,0,1.167-0.002,1.769-0.008C36.182,32.389,35.592,32.393,35.003,32.393z"/>
	</g>
	<g>
		<path d="M25.788,45.814c-0.036-0.037-0.071-0.072-0.105-0.109C25.717,45.743,25.752,45.779,25.788,45.814z"/>
	</g>
	<g>
		<path d="M25.788,45.814c-0.036-0.037-0.071-0.072-0.105-0.109C25.717,45.743,25.752,45.779,25.788,45.814z"/>
	</g>
	<g>
		<path d="M45.777,43.703c-0.034,0.061-0.07,0.122-0.107,0.182C45.707,43.824,45.743,43.764,45.777,43.703z"/>
	</g>
	<g>
		<path d="M45.777,43.703c-0.034,0.061-0.07,0.122-0.107,0.182C45.707,43.824,45.743,43.764,45.777,43.703z"/>
	</g>
	<g>
		<path d="M33.231,32.384c0.604,0.005,1.195,0.009,1.771,0.009C34.412,32.393,33.822,32.389,33.231,32.384z"/>
	</g>
	<g>
		<path d="M33.231,32.384c0.604,0.005,1.195,0.009,1.771,0.009C34.412,32.393,33.822,32.389,33.231,32.384z"/>
	</g>
	<g>
		<path d="M45.973,43.366c0.01-0.019,0.02-0.038,0.029-0.058c-0.029,0.057-0.063,0.11-0.093,0.166
			C45.932,43.438,45.951,43.402,45.973,43.366z"/>
	</g>
	<g>
		<path d="M45.973,43.366c0.01-0.019,0.02-0.038,0.029-0.058c-0.029,0.057-0.063,0.11-0.093,0.166
			C45.932,43.438,45.951,43.402,45.973,43.366z"/>
	</g>
	<g>
		<path d="M46.234,42.875c-0.024,0.046-0.049,0.09-0.072,0.137C46.186,42.965,46.211,42.92,46.234,42.875z"/>
	</g>
	<g>
		<path d="M46.234,42.875c-0.024,0.046-0.049,0.09-0.072,0.137C46.186,42.965,46.211,42.92,46.234,42.875z"/>
	</g>
	<g>
		<path d="M43.997,46.036c-0.037,0.034-0.072,0.069-0.108,0.103C43.925,46.104,43.96,46.07,43.997,46.036z"/>
	</g>
	<g>
		<path d="M43.997,46.036c-0.037,0.034-0.072,0.069-0.108,0.103C43.925,46.104,43.96,46.07,43.997,46.036z"/>
	</g>
	<g>
		<path d="M35.003,48.387c-0.523,0-1.464,0-2.193-0.027c-1.633-0.062-2.869-0.273-3.839-0.578c0.333,0.109,0.672,0.201,1.017,0.271
			c1.368,0.285,2.777,0.325,4.172,0.334c0.28,0,0.562,0.004,0.844,0.004c0.281,0,0.563-0.004,0.844-0.004
			c1.395-0.009,2.803-0.049,4.172-0.334c0.344-0.072,0.686-0.162,1.018-0.271c-0.971,0.305-2.207,0.518-3.842,0.578
			C36.464,48.387,35.525,48.387,35.003,48.387z"/>
	</g>
	<g>
		<path d="M35.003,48.387c-0.523,0-1.464,0-2.193-0.027c-1.633-0.062-2.869-0.273-3.839-0.578c0.333,0.109,0.672,0.201,1.017,0.271
			c1.368,0.285,2.777,0.325,4.172,0.334c0.28,0,0.562,0.004,0.844,0.004c0.281,0,0.563-0.004,0.844-0.004
			c1.395-0.009,2.803-0.049,4.172-0.334c0.344-0.072,0.686-0.162,1.018-0.271c-0.971,0.305-2.207,0.518-3.842,0.578
			C36.464,48.387,35.525,48.387,35.003,48.387z"/>
	</g>
	<g>
		<path d="M19.436,32.561c0.031,0.084,0.058,0.153,0.07,0.188c0.12,0.313,0.242,0.629,0.364,0.944
			c0.254,0.658,0.514,1.312,0.774,1.965c0.524,1.308,1.063,2.609,1.616,3.906c0.429,0.998,0.853,2,1.337,2.972
			c-0.339-0.681-0.656-1.392-0.967-2.116C22.242,39.523,20.189,34.555,19.436,32.561z"/>
	</g>
	<g>
		<path d="M19.436,32.561c0.031,0.084,0.058,0.153,0.07,0.188c0.12,0.313,0.242,0.629,0.364,0.944
			c0.254,0.658,0.514,1.312,0.774,1.965c0.524,1.308,1.063,2.609,1.616,3.906c0.429,0.998,0.853,2,1.337,2.972
			c-0.339-0.681-0.656-1.392-0.967-2.116C22.242,39.523,20.189,34.555,19.436,32.561z"/>
	</g>
	<g>
		<path d="M23.834,42.995c-0.021-0.038-0.041-0.076-0.062-0.115C23.793,42.919,23.813,42.957,23.834,42.995z"/>
	</g>
	<g>
		<path d="M23.834,42.995c-0.021-0.038-0.041-0.076-0.062-0.115C23.793,42.919,23.813,42.957,23.834,42.995z"/>
	</g>
	<g>
		<path d="M50.782,31.971c0.002-0.006,0.006-0.013,0.007-0.014c0,0-0.001,0-0.002,0c-0.003,0.005-0.004,0.012-0.006,0.016
			L50.782,31.971z"/>
	</g>
	<g>
		<path d="M50.782,31.971c0.002-0.006,0.006-0.013,0.007-0.014c0,0-0.001,0-0.002,0c-0.003,0.005-0.004,0.012-0.006,0.016
			L50.782,31.971z"/>
	</g>
	<g>
		<path d="M24.033,43.366c0.019,0.034,0.041,0.069,0.059,0.104c-0.028-0.054-0.059-0.105-0.088-0.16
			C24.014,43.329,24.023,43.348,24.033,43.366z"/>
	</g>
	<g>
		<path d="M24.033,43.366c0.019,0.034,0.041,0.069,0.059,0.104c-0.028-0.054-0.059-0.105-0.088-0.16
			C24.014,43.329,24.023,43.348,24.033,43.366z"/>
	</g>
	<g>
		<path d="M46.35,42.65c0.51-1.006,0.95-2.049,1.394-3.086c0.555-1.295,1.093-2.599,1.618-3.906c0.262-0.653,0.52-1.307,0.773-1.965
			c0.122-0.314,0.244-0.629,0.365-0.944c0.014-0.035,0.038-0.104,0.07-0.19c-0.754,1.994-2.809,6.965-3.196,7.861
			C47.046,41.184,46.71,41.936,46.35,42.65z"/>
	</g>
	<g>
		<path d="M46.35,42.65c0.51-1.006,0.95-2.049,1.394-3.086c0.555-1.295,1.093-2.599,1.618-3.906c0.262-0.653,0.52-1.307,0.773-1.965
			c0.122-0.314,0.244-0.629,0.365-0.944c0.014-0.035,0.038-0.104,0.07-0.19c-0.754,1.994-2.809,6.965-3.196,7.861
			C47.046,41.184,46.71,41.936,46.35,42.65z"/>
	</g>
	<g>
		<path d="M24.332,43.881c-0.034-0.059-0.069-0.115-0.104-0.175C24.263,43.766,24.298,43.822,24.332,43.881z"/>
	</g>
	<g>
		<path d="M24.332,43.881c-0.034-0.059-0.069-0.115-0.104-0.175C24.263,43.766,24.298,43.822,24.332,43.881z"/>
	</g>
	<g>
		<path d="M25.098,45.014c-0.02-0.025-0.037-0.052-0.057-0.076C25.061,44.962,25.078,44.986,25.098,45.014z"/>
	</g>
	<g>
		<path d="M25.098,45.014c-0.02-0.025-0.037-0.052-0.057-0.076C25.061,44.962,25.078,44.986,25.098,45.014z"/>
	</g>
	<g>
		<path d="M24.831,44.648c-0.035-0.051-0.07-0.103-0.104-0.153C24.761,44.546,24.796,44.598,24.831,44.648z"/>
	</g>
	<g>
		<path d="M24.831,44.648c-0.035-0.051-0.07-0.103-0.104-0.153C24.761,44.546,24.796,44.598,24.831,44.648z"/>
	</g>
	<g>
		<path d="M24.576,44.271c-0.036-0.059-0.074-0.115-0.109-0.174C24.502,44.156,24.539,44.214,24.576,44.271z"/>
	</g>
	<g>
		<path d="M24.576,44.271c-0.036-0.059-0.074-0.115-0.109-0.174C24.502,44.156,24.539,44.214,24.576,44.271z"/>
	</g>
	<g>
		<path d="M25.454,45.449c-0.023-0.028-0.049-0.055-0.072-0.083C25.405,45.395,25.431,45.421,25.454,45.449z"/>
	</g>
	<g>
		<path d="M25.454,45.449c-0.023-0.028-0.049-0.055-0.072-0.083C25.405,45.395,25.431,45.421,25.454,45.449z"/>
	</g>
	<g>
		<path d="M50.977,32.178c0,0-0.058,0.045-0.059,0.047l-0.311,0.229c-0.016,0.037-0.026,0.072-0.037,0.105
			c-0.032,0.086-0.059,0.155-0.07,0.19c-0.121,0.313-0.243,0.629-0.365,0.944c-0.255,0.658-0.513,1.312-0.773,1.965
			c-0.525,1.308-1.063,2.609-1.618,3.906c-0.442,1.037-0.884,2.08-1.394,3.086c-0.039,0.076-0.076,0.149-0.115,0.225
			c-0.022,0.046-0.049,0.09-0.071,0.137c-0.054,0.1-0.104,0.2-0.16,0.299c-0.011,0.019-0.021,0.039-0.03,0.057
			c-0.021,0.037-0.041,0.072-0.063,0.107c-0.043,0.078-0.086,0.152-0.131,0.229c-0.035,0.062-0.071,0.122-0.108,0.183
			c-0.042,0.07-0.086,0.141-0.129,0.209c-0.039,0.061-0.076,0.119-0.112,0.178c-0.051,0.074-0.101,0.148-0.147,0.224
			c-0.036,0.051-0.07,0.103-0.105,0.153c-0.071,0.102-0.145,0.201-0.22,0.301c-0.016,0.02-0.031,0.042-0.046,0.063
			c-0.093,0.121-0.19,0.24-0.29,0.358c-0.018,0.022-0.037,0.043-0.057,0.065c-0.08,0.094-0.162,0.187-0.246,0.275
			c-0.029,0.031-0.061,0.063-0.09,0.094c-0.076,0.08-0.152,0.155-0.229,0.23c-0.037,0.035-0.072,0.068-0.108,0.102
			c-0.104,0.096-0.207,0.189-0.315,0.28c-0.752,0.621-1.616,1.065-2.537,1.362c-0.332,0.109-0.673,0.201-1.019,0.271
			c-1.367,0.285-2.776,0.325-4.172,0.334c-0.279,0-0.562,0.004-0.843,0.004c-0.282,0-0.563-0.004-0.844-0.004
			c-1.395-0.009-2.804-0.049-4.172-0.334c-0.345-0.072-0.684-0.162-1.017-0.271c-0.922-0.297-1.786-0.742-2.538-1.362
			c-0.105-0.087-0.206-0.179-0.307-0.271c-0.043-0.041-0.084-0.08-0.126-0.119c-0.071-0.07-0.143-0.141-0.212-0.213
			c-0.036-0.037-0.071-0.072-0.105-0.109c-0.078-0.083-0.153-0.17-0.229-0.256c-0.023-0.028-0.049-0.055-0.072-0.083
			c-0.098-0.116-0.192-0.234-0.284-0.354c-0.02-0.025-0.037-0.051-0.057-0.076c-0.07-0.094-0.142-0.189-0.21-0.289
			c-0.035-0.049-0.07-0.102-0.104-0.152c-0.051-0.074-0.102-0.148-0.15-0.225c-0.037-0.058-0.074-0.115-0.109-0.172
			c-0.045-0.072-0.091-0.146-0.135-0.219c-0.034-0.059-0.069-0.115-0.104-0.175c-0.045-0.079-0.091-0.157-0.136-0.235
			c-0.018-0.035-0.04-0.07-0.059-0.104c-0.01-0.018-0.02-0.037-0.029-0.055c-0.057-0.104-0.114-0.211-0.17-0.316
			c-0.021-0.038-0.041-0.076-0.062-0.115c-0.06-0.113-0.117-0.23-0.175-0.345c-0.484-0.972-0.908-1.974-1.337-2.972
			c-0.553-1.295-1.092-2.599-1.616-3.906c-0.261-0.653-0.521-1.307-0.774-1.965c-0.122-0.314-0.244-0.629-0.364-0.944
			c-0.013-0.035-0.039-0.104-0.07-0.188c-0.015-0.041-0.029-0.086-0.046-0.131c-0.083-0.061-0.314-0.229-0.315-0.229l-0.057-0.045
			c-1.584-1.264-7.167-7.282-10.291-14.45c-2.368-5.427-4.082-11.9-4.796-14.819c0.363,1.686,0.87,3.468,1.37,5.211
			C5.45,8.619,5.592,9.11,5.729,9.602c0.778,2.773,1.61,5.602,2.472,8.41c1.679,5.474,3.411,11.052,5.552,16.608
			c1.135,2.944,2.193,5.539,3.237,7.935c0.922,2.116,2.095,4.553,3.802,6.547c1.737,2.026,3.658,3.326,6.048,4.088
			c2.076,0.66,4.519,0.943,8.163,0.943c3.644,0,6.085-0.283,8.162-0.943c2.39-0.762,4.312-2.062,6.048-4.088
			c1.706-1.994,2.879-4.431,3.803-6.549c1.043-2.394,2.102-4.988,3.236-7.933c2.143-5.559,3.873-11.137,5.553-16.608
			c0.861-2.81,1.692-5.639,2.471-8.41c0.119-0.424,0.244-0.864,0.365-1.288c0.401-1.415,0.811-2.856,1.153-4.275
			c-0.84,3.26-2.433,8.888-4.515,13.667C58.154,24.872,52.563,30.913,50.977,32.178z"/>
	</g>
	<g>
		<path d="M3.842,1.301C3.746,1.309,3.654,1.316,3.566,1.323v0.002c0.089-0.007,0.18-0.014,0.275-0.021
			C3.842,1.303,3.842,1.301,3.842,1.301z"/>
	</g>
	<g>
		<path d="M3.842,1.301C3.746,1.309,3.654,1.316,3.566,1.323v0.002c0.089-0.007,0.18-0.014,0.275-0.021
			C3.842,1.303,3.842,1.301,3.842,1.301z"/>
	</g>
	<g>
		<path d="M66.455,1.325c-0.094-0.008-0.191-0.016-0.292-0.023c0,0,0,0.002-0.001,0.002c0.102,0.009,0.199,0.017,0.293,0.024V1.325z
			"/>
	</g>
	<g>
		<path d="M66.455,1.325c-0.094-0.008-0.191-0.016-0.292-0.023c0,0,0,0.002-0.001,0.002c0.102,0.009,0.199,0.017,0.293,0.024V1.325z
			"/>
	</g>
	<g>
		<path d="M3.933,2.887c-0.079-0.372-0.156-0.74-0.22-1.1c0.196,0.689,0.629,2.159,1.235,4.056c0.676,2.467,1.629,5.645,2.799,8.763
			c0.001,0.003,0.005,0.005,0.005,0.009l-0.005-0.001c0.382,1.014,0.785,2.022,1.21,2.998c1.798,4.125,4.378,7.779,6.543,10.397
			c1.338,1.773,2.501,3.091,3.192,3.759l-0.094-0.281l0.102,0.006c0.206,0.193,0.379,0.352,0.516,0.466c0.001,0,0.001,0,0.001,0
			h0.002c-0.002-0.002-0.002-0.004-0.003-0.005c-1.266-1.074-6.997-6.958-10.223-14.361C5.887,10.465,3.879,1.465,3.842,1.304
			C3.746,1.312,3.655,1.318,3.566,1.325l0.001,0.008C3.587,1.422,3.712,1.984,3.933,2.887z"/>
	</g>
	<g>
		<path d="M3.933,2.887c-0.079-0.372-0.156-0.74-0.22-1.1c0.196,0.689,0.629,2.159,1.235,4.056c0.676,2.467,1.629,5.645,2.799,8.763
			c0.001,0.003,0.005,0.005,0.005,0.009l-0.005-0.001c0.382,1.014,0.785,2.022,1.21,2.998c1.798,4.125,4.378,7.779,6.543,10.397
			c1.338,1.773,2.501,3.091,3.192,3.759l-0.094-0.281l0.102,0.006c0.206,0.193,0.379,0.352,0.516,0.466c0.001,0,0.001,0,0.001,0
			h0.002c-0.002-0.002-0.002-0.004-0.003-0.005c-1.266-1.074-6.997-6.958-10.223-14.361C5.887,10.465,3.879,1.465,3.842,1.304
			C3.746,1.312,3.655,1.318,3.566,1.325l0.001,0.008C3.587,1.422,3.712,1.984,3.933,2.887z"/>
	</g>
	<g>
		<path d="M50.607,32.453L50.607,32.453c0.016-0.045,0.031-0.092,0.05-0.137l0.003-0.004c0.049-0.133,0.09-0.25,0.121-0.338
			C50.736,32.096,50.607,32.453,50.607,32.453z"/>
	</g>
	<g>
		<path d="M50.607,32.453L50.607,32.453c0.016-0.045,0.031-0.092,0.05-0.137l0.003-0.004c0.049-0.133,0.09-0.25,0.121-0.338
			C50.736,32.096,50.607,32.453,50.607,32.453z"/>
	</g>
	<g>
		<path d="M19.349,32.316c0.013,0.037,0.027,0.076,0.041,0.113l0,0c0,0-0.12-0.334-0.171-0.473l0,0
			c0.03,0.093,0.073,0.213,0.126,0.355L19.349,32.316z"/>
	</g>
	<g>
		<path d="M19.349,32.316c0.013,0.037,0.027,0.076,0.041,0.113l0,0c0,0-0.12-0.334-0.171-0.473l0,0
			c0.03,0.093,0.073,0.213,0.126,0.355L19.349,32.316z"/>
	</g>
	<g>
		<path d="M50.781,31.975c-0.031,0.09-0.072,0.205-0.121,0.338l0.211-0.153l0.059-0.046c0.103-0.082,0.231-0.197,0.383-0.34
			l0.095-0.285l-0.103,0.005c-0.205,0.192-0.38,0.351-0.516,0.466c-0.001,0.001-0.005,0.008-0.007,0.014L50.781,31.975z"/>
	</g>
	<g>
		<path d="M50.781,31.975c-0.031,0.09-0.072,0.205-0.121,0.338l0.211-0.153l0.059-0.046c0.103-0.082,0.231-0.197,0.383-0.34
			l0.095-0.285l-0.103,0.005c-0.205,0.192-0.38,0.351-0.516,0.466c-0.001,0.001-0.005,0.008-0.007,0.014L50.781,31.975z"/>
	</g>
	<g>
		<path d="M50.781,31.975c-0.031,0.09-0.072,0.205-0.121,0.338l0.211-0.153l0.059-0.046c0.103-0.082,0.231-0.197,0.383-0.34
			l0.095-0.285l-0.103,0.005c-0.205,0.192-0.38,0.351-0.516,0.466c-0.001,0.001-0.005,0.008-0.007,0.014L50.781,31.975z"/>
	</g>
	<g>
		<path d="M19.134,32.159l0.211,0.153c-0.053-0.142-0.096-0.262-0.126-0.354c0,0-0.002,0-0.003,0
			c-0.137-0.114-0.31-0.272-0.516-0.466l-0.102-0.006l0.094,0.281c0.151,0.146,0.282,0.264,0.385,0.346L19.134,32.159z"/>
	</g>
	<g>
		<path d="M19.134,32.159l0.211,0.153c-0.053-0.142-0.096-0.262-0.126-0.354c0,0-0.002,0-0.003,0
			c-0.137-0.114-0.31-0.272-0.516-0.466l-0.102-0.006l0.094,0.281c0.151,0.146,0.282,0.264,0.385,0.346L19.134,32.159z"/>
	</g>
	<g>
		<path d="M19.134,32.159l0.211,0.153c-0.053-0.142-0.096-0.262-0.126-0.354c0,0-0.002,0-0.003,0
			c-0.137-0.114-0.31-0.272-0.516-0.466l-0.102-0.006l0.094,0.281c0.151,0.146,0.282,0.264,0.385,0.346L19.134,32.159z"/>
	</g>
	<g>
		<path d="M19.018,32.154l0.057,0.046c0.001,0.001,0.232,0.169,0.315,0.229c-0.014-0.039-0.028-0.076-0.041-0.113l-0.004-0.004
			l-0.211-0.153l-0.057-0.046c-0.103-0.082-0.233-0.2-0.385-0.346c-0.691-0.668-1.854-1.984-3.192-3.757
			c-2.165-2.618-4.745-6.271-6.543-10.397c-0.425-0.976-0.828-1.984-1.21-2.998l0.005,0.001c0-0.004-0.004-0.006-0.005-0.009
			c-1.17-3.118-2.123-6.295-2.799-8.763C4.342,3.946,3.909,2.476,3.713,1.787c0.063,0.36,0.141,0.729,0.22,1.1
			c0.715,2.919,2.429,9.392,4.794,14.818C11.851,24.873,17.434,30.891,19.018,32.154z"/>
	</g>
	<g>
		<path d="M19.018,32.154l0.057,0.046c0.001,0.001,0.232,0.169,0.315,0.229c-0.014-0.039-0.028-0.076-0.041-0.113l-0.004-0.004
			l-0.211-0.153l-0.057-0.046c-0.103-0.082-0.233-0.2-0.385-0.346c-0.691-0.668-1.854-1.984-3.192-3.757
			c-2.165-2.618-4.745-6.271-6.543-10.397c-0.425-0.976-0.828-1.984-1.21-2.998l0.005,0.001c0-0.004-0.004-0.006-0.005-0.009
			c-1.17-3.118-2.123-6.295-2.799-8.763C4.342,3.946,3.909,2.476,3.713,1.787c0.063,0.36,0.141,0.729,0.22,1.1
			c0.715,2.919,2.429,9.392,4.794,14.818C11.851,24.873,17.434,30.891,19.018,32.154z"/>
	</g>
	<g>
		<path d="M65.109,5.65c-0.035,0.129-0.071,0.257-0.107,0.39c-0.003,0.004-0.007,0.009-0.01,0.013
			c0.003-0.002,0.007-0.003,0.01-0.004c-0.895,3.252-2.258,7.67-3.954,11.564c-1.651,3.786-3.958,7.173-6,9.729
			c-1.563,2.124-2.95,3.682-3.735,4.432c-0.15,0.143-0.28,0.258-0.383,0.34l-0.059,0.046l-0.211,0.153l-0.003,0.004
			c-0.019,0.045-0.034,0.092-0.05,0.136l0.311-0.229c0.001-0.002,0.059-0.047,0.059-0.047c1.586-1.264,7.18-7.305,10.303-14.472
			c2.084-4.779,3.676-10.407,4.516-13.667c0.18-0.736,0.342-1.467,0.479-2.185C66.072,2.545,65.667,3.907,65.109,5.65z"/>
	</g>
	<g>
		<path d="M65.109,5.65c-0.035,0.129-0.071,0.257-0.107,0.39c-0.003,0.004-0.007,0.009-0.01,0.013
			c0.003-0.002,0.007-0.003,0.01-0.004c-0.895,3.252-2.258,7.67-3.954,11.564c-1.651,3.786-3.958,7.173-6,9.729
			c-1.563,2.124-2.95,3.682-3.735,4.432c-0.15,0.143-0.28,0.258-0.383,0.34l-0.059,0.046l-0.211,0.153l-0.003,0.004
			c-0.019,0.045-0.034,0.092-0.05,0.136l0.311-0.229c0.001-0.002,0.059-0.047,0.059-0.047c1.586-1.264,7.18-7.305,10.303-14.472
			c2.084-4.779,3.676-10.407,4.516-13.667c0.18-0.736,0.342-1.467,0.479-2.185C66.072,2.545,65.667,3.907,65.109,5.65z"/>
	</g>
	<g>
		<path d="M61.014,17.592c-3.226,7.4-8.971,13.309-10.225,14.366c0.136-0.114,0.311-0.272,0.516-0.466l0.103-0.006l-0.095,0.285
			c0.785-0.75,2.172-2.307,3.735-4.431c2.042-2.556,4.349-5.943,6-9.729c1.696-3.894,3.06-8.312,3.954-11.564
			c-0.003,0.001-0.007,0.002-0.01,0.004c0.003-0.003,0.007-0.009,0.01-0.013c0.036-0.132,0.072-0.26,0.107-0.39
			c0.558-1.743,0.963-3.105,1.162-3.796c-0.137,0.718-0.299,1.449-0.479,2.185c0.402-1.563,0.633-2.583,0.659-2.705l0.002-0.005
			c-0.095-0.008-0.19-0.016-0.293-0.024C66.126,1.47,64.118,10.468,61.014,17.592z"/>
	</g>
	<g>
		<path d="M61.014,17.592c-3.226,7.4-8.971,13.309-10.225,14.366c0.136-0.114,0.311-0.272,0.516-0.466l0.103-0.006l-0.095,0.285
			c0.785-0.75,2.172-2.307,3.735-4.431c2.042-2.556,4.349-5.943,6-9.729c1.696-3.894,3.06-8.312,3.954-11.564
			c-0.003,0.001-0.007,0.002-0.01,0.004c0.003-0.003,0.007-0.009,0.01-0.013c0.036-0.132,0.072-0.26,0.107-0.39
			c0.558-1.743,0.963-3.105,1.162-3.796c-0.137,0.718-0.299,1.449-0.479,2.185c0.402-1.563,0.633-2.583,0.659-2.705l0.002-0.005
			c-0.095-0.008-0.19-0.016-0.293-0.024C66.126,1.47,64.118,10.468,61.014,17.592z"/>
	</g>
	<g>
		<g>
			<path d="M21.922,13.502c-0.017-0.093-0.037-0.183-0.062-0.273c-0.005-0.024-0.013-0.047-0.021-0.072
				c-0.022-0.079-0.049-0.159-0.077-0.235c-0.011-0.028-0.02-0.055-0.03-0.081c-0.029-0.075-0.063-0.147-0.097-0.219
				c-0.012-0.027-0.025-0.054-0.037-0.08c-0.039-0.074-0.081-0.148-0.124-0.22c-0.014-0.021-0.024-0.042-0.036-0.061
				c-0.058-0.09-0.119-0.179-0.186-0.264c-0.001-0.002-0.002-0.003-0.003-0.004c-0.005-0.006-0.009-0.011-0.014-0.018
				c-0.067-0.084-0.137-0.168-0.211-0.249c-0.714-0.762-1.686-1.147-2.888-1.147c0,0-5.119,0-5.36,0c0,0.156,0,3.119,0,5.198
				c0,1.083,0,1.927,0,2.008c0.241,0,5.36,0,5.36,0c1.229,0,2.208-0.372,2.912-1.104c0.357-0.373,0.61-0.8,0.765-1.279
				c0.004-0.012,0.009-0.025,0.012-0.037c0.022-0.07,0.042-0.142,0.059-0.214c0.004-0.012,0.006-0.024,0.009-0.035
				c0.063-0.275,0.099-0.565,0.099-0.871c0-0.241-0.021-0.474-0.061-0.698C21.929,13.532,21.926,13.517,21.922,13.502z M19.21,15.68
				c-0.011,0.015-0.023,0.028-0.035,0.043c-0.089,0.111-0.183,0.209-0.283,0.294c-0.017,0.013-0.032,0.023-0.048,0.036
				c-0.035,0.028-0.07,0.056-0.108,0.081c-0.286,0.188-0.617,0.283-0.992,0.283h-2.827V15.79c0.001,0,0.001,0,0.001,0v-3.883h2.826
				c0.034,0,0.067,0.003,0.101,0.004c0.039,0.002,0.081,0.003,0.119,0.006c0.021,0.001,0.042,0.005,0.063,0.008
				c0.049,0.006,0.098,0.013,0.144,0.022c0.026,0.005,0.052,0.012,0.079,0.019c0.038,0.009,0.077,0.019,0.114,0.031
				c0.03,0.009,0.058,0.02,0.086,0.029c0.033,0.012,0.064,0.025,0.097,0.039c0.03,0.013,0.059,0.027,0.088,0.042
				c0.028,0.014,0.056,0.029,0.084,0.045c0.028,0.017,0.058,0.035,0.086,0.054c0.024,0.017,0.05,0.035,0.074,0.054
				c0.026,0.021,0.056,0.042,0.082,0.063c0.023,0.021,0.046,0.043,0.07,0.065c0.023,0.023,0.049,0.045,0.071,0.07
				c0.006,0.004,0.009,0.01,0.013,0.014c0.039,0.042,0.077,0.083,0.112,0.129c0.312,0.405,0.472,0.912,0.472,1.507
				C19.697,14.722,19.533,15.25,19.21,15.68z"/>
		</g>
		<g>
			<path d="M30.779,12.854c-0.647-1.334-0.857-1.636-0.929-1.702c-0.113-0.115-0.268-0.213-0.452-0.297
				c-0.007-0.004-0.015-0.007-0.021-0.009c-0.119-0.053-0.247-0.101-0.392-0.14c-0.297-0.08-0.614-0.129-0.947-0.149
				c-0.023-0.001-0.047-0.001-0.069-0.002c-0.086-0.004-0.172-0.008-0.261-0.008c-0.002,0-0.006,0-0.009,0c0,0,0,0-0.001,0h-0.001
				l0,0h-0.001c-0.462,0-0.894,0.054-1.288,0.16c-0.381,0.104-0.677,0.255-0.874,0.442c-0.073,0.08-0.292,0.441-0.914,1.712
				l-1.07,2.26l-0.188,0.399l0,0l-0.154,0.326c0,0-0.736,1.647-0.867,1.94h0.002c0.32,0,2.163,0,2.306,0h0.001
				c0.063-0.128,0.634-1.32,0.634-1.32h4.848l0.001,0.003c0.013,0.027,0.586,1.192,0.646,1.317h0.002c0.138,0,1.945,0,2.273,0
				c0,0,0.001,0,0.002,0c-0.135-0.296-0.882-1.945-0.882-1.945C31.604,14.585,31.133,13.581,30.779,12.854z M25.813,15.365
				l1.566-3.258c0.059-0.091,0.162-0.141,0.307-0.145c0.006-0.001,0.013-0.002,0.021-0.002c0,0,0.002,0,0.004,0
				c0.201,0.002,0.271,0.096,0.294,0.164l0.007,0.014l0.001,0.002l-0.001-0.001l0.963,1.964l0.455,0.93l0,0l0.163,0.333h-3.78
				V15.365z"/>
		</g>
		<g>
			<path d="M41.607,10.58c-0.274,0-4.426,0-4.426,0c-0.002,0-0.004,0-0.004,0h-0.001c-1.2,0-2.172,0.385-2.884,1.147
				c-0.56,0.602-0.88,1.325-0.95,2.156c-0.011,0.118-0.016,0.239-0.016,0.363c0,0.113,0.007,0.225,0.016,0.335
				c0.017,0.172,0.041,0.34,0.076,0.503c0.003,0.011,0.006,0.022,0.009,0.033c0.028,0.126,0.064,0.25,0.107,0.372
				c0.001,0.004,0.002,0.008,0.003,0.011c0.071,0.195,0.159,0.382,0.265,0.558c0.008,0.011,0.013,0.023,0.02,0.034
				c0.036,0.058,0.072,0.113,0.111,0.168c0.016,0.024,0.033,0.046,0.05,0.07c0.037,0.051,0.076,0.102,0.116,0.151
				c0.022,0.027,0.046,0.053,0.07,0.08c0.035,0.041,0.068,0.083,0.107,0.122c0.7,0.732,1.677,1.104,2.9,1.104h0.003
				c0,0,4.151,0,4.428,0h0.004v-1.37h-0.004c-0.272,0-4.031,0-4.031,0c-0.612,0-1.105-0.247-1.467-0.737
				c-0.297-0.398-0.457-0.878-0.481-1.427c-0.001-0.047-0.004-0.095-0.004-0.144c0-0.145,0.009-0.285,0.028-0.419
				c0-0.005,0-0.009,0.002-0.014c0.009-0.06,0.021-0.119,0.033-0.178c0.002-0.014,0.006-0.028,0.008-0.042
				c0.015-0.054,0.029-0.107,0.043-0.159c0.006-0.015,0.013-0.029,0.018-0.044c0.016-0.05,0.034-0.101,0.055-0.15
				c0.028-0.069,0.063-0.138,0.099-0.203c0.018-0.034,0.036-0.066,0.056-0.097c0.031-0.05,0.063-0.098,0.098-0.144
				c0.015-0.02,0.025-0.04,0.041-0.059c0.045-0.057,0.09-0.11,0.139-0.16c0.003-0.003,0.007-0.007,0.01-0.008
				c0.042-0.043,0.085-0.082,0.129-0.119c0.014-0.012,0.028-0.023,0.042-0.034c0.034-0.027,0.068-0.052,0.104-0.074
				c0.021-0.015,0.041-0.029,0.063-0.042c0.028-0.017,0.058-0.032,0.087-0.048c0.028-0.014,0.057-0.031,0.086-0.043
				c0.002-0.001,0.006-0.002,0.008-0.003c0.102-0.045,0.205-0.081,0.313-0.106c0.002,0,0.003,0,0.003,0
				c0.053-0.013,0.105-0.023,0.163-0.031c0.006-0.001,0.015-0.002,0.021-0.003c0.043-0.006,0.084-0.011,0.127-0.015
				c0.059-0.004,0.119-0.008,0.181-0.008c0,0,3.759,0,4.03,0c0,0,0,0,0.002,0h0.002V10.58H41.607L41.607,10.58z"/>
		</g>
		<g>
			<path d="M43.229,10.58L43.229,10.58c0,0.293,0,7.023,0,7.206h0.004c0.213,0,1.908,0,2.135,0c0-0.123,0-3.226,0-5.321
				c0-1.011,0-1.789,0-1.885c-0.227,0-1.922,0-2.135,0H43.229z"/>
		</g>
		<path d="M56.523,15.841c-0.573-1.255-1.041-2.259-1.396-2.987c-0.647-1.334-0.856-1.635-0.93-1.702
			c-0.188-0.191-0.48-0.341-0.865-0.446c-0.114-0.03-0.233-0.057-0.354-0.078c-0.011-0.002-0.021-0.003-0.031-0.005
			c-0.116-0.02-0.234-0.036-0.356-0.047c-0.001-0.001-0.001-0.001-0.001-0.001h-0.002c-0.002,0-0.006,0-0.008,0
			c-0.083-0.008-0.166-0.015-0.25-0.02c-0.09-0.004-0.18-0.008-0.271-0.008c-0.002,0-0.004,0-0.01,0
			c-0.088,0-0.174,0.004-0.259,0.007c-0.248,0.012-0.485,0.038-0.712,0.081c-0.107,0.021-0.215,0.045-0.316,0.072
			c-0.097,0.026-0.187,0.055-0.271,0.087c-0.087,0.031-0.165,0.066-0.237,0.103c-0.146,0.074-0.27,0.159-0.365,0.252
			c-0.027,0.029-0.074,0.098-0.152,0.229c0.019-0.033-0.004,0.001-0.086,0.149c-0.112,0.21-0.334,0.628-0.678,1.333l-1.414,2.985
			c0,0-0.733,1.647-0.865,1.94h0.006c0.316,0,2.146,0,2.302,0c0.062-0.128,0.633-1.32,0.633-1.32h0.007h4.844
			c0,0,0.002,0.003,0.002,0.005c0.022,0.045,0.586,1.191,0.645,1.315h0.006c0.137,0,1.938,0,2.271,0
			C57.271,17.49,56.523,15.841,56.523,15.841z M50.165,15.365h-0.002l1.565-3.258c0.063-0.098,0.172-0.147,0.328-0.147h0.002
			c0.205,0,0.273,0.096,0.297,0.164l0.006,0.007v0.002l1.584,3.233h-3.78V15.365z"/>
	</g>
</g>
</svg>
