<?xml version="1.0" encoding="utf-8"?>
<!-- Generator: Adobe Illustrator 17.0.0, SVG Export Plug-In . SVG Version: 6.00 Build 0)  -->
<!DOCTYPE svg PUBLIC "-//W3C//DTD SVG 1.1//EN" "http://www.w3.org/Graphics/SVG/1.1/DTD/svg11.dtd">
<svg version="1.1" id="Layer_1" xmlns="http://www.w3.org/2000/svg" xmlns:xlink="http://www.w3.org/1999/xlink" x="0px" y="0px"
	 width="120px" height="86.859px" viewBox="0 0 120 86.859" enable-background="new 0 0 120 86.859" xml:space="preserve">
<g>
	<path fill-rule="evenodd" clip-rule="evenodd" fill="#009FE3" d="M0,71.887h11.953c4.117,0,7.486,3.369,7.486,7.486l0,0
		c0,0.614-0.076,1.212-0.217,1.784l4.926-9.27h7.969l7.231,12.754V72.008h19.575l3.621,7.969l3.108-5.383l-1.587-2.749h6.813
		l-1.089,2.578l2.656,5.795l3.864-8.693h5.192l-1.207,2.535l-0.024,0.055c1.826-2.448,5.23-4.101,9.114-4.101
		c4.698,0,8.694,2.418,10.043,5.739c1.35-3.321,5.346-5.739,10.044-5.739c5.801,0,10.532,3.687,10.532,8.207
		c0,4.52-4.731,8.207-10.532,8.207c-4.698,0-8.694-2.418-10.044-5.739c-1.35,3.321-5.345,5.739-10.043,5.739
		c-5.801,0-10.532-3.687-10.532-8.207c0-0.363,0.031-0.721,0.09-1.071l-3.775,8.622h-4.296l-3.235-5.683L64.347,85.7h-4.34
		l-5.07-10.553h-9.78v2.294h8.714v3.282h-8.779v2.151h9.844v2.995H26.435l-2.028-3.199h7.854l-3.767-7.403l-6.037,10.866h-5.881
		l0.938-1.766c-1.372,1.527-3.36,2.491-5.562,2.491H8.573v-3.452h0.989c2.378,0,4.324-1.815,4.324-4.033l0,0
		c0-2.218-1.946-4.033-4.324-4.033H5.434v6.327v1.739v3.452H0V71.887L0,71.887z M109.466,73.041c-2.851,0-5.179,2.328-5.179,5.183
		c0,2.85,2.328,5.179,5.179,5.179c2.854,0,5.183-2.329,5.183-5.179C114.649,75.369,112.321,73.041,109.466,73.041L109.466,73.041z
		 M89.379,73.041c-2.851,0-5.179,2.328-5.179,5.183c0,2.85,2.328,5.179,5.179,5.179c2.854,0,5.183-2.329,5.183-5.179
		C94.562,75.369,92.233,73.041,89.379,73.041L89.379,73.041z"/>
	<path fill-rule="evenodd" clip-rule="evenodd" fill="#009FE3" d="M48.556,64.257c2.222-11.239-4.017-23.126-13.358-32.273
		C30.329,27.217,24,23.511,16.98,22.793c-1.371,3.116-2.114,6.432-2.114,9.869C14.866,47.793,29.208,60.575,48.556,64.257
		L48.556,64.257z M60,0c1.438,0,2.859,0.051,4.264,0.147c-1.858,22.164-3.359,44.274-3.333,65.169
		c-0.31,0.005-0.62,0.009-0.931,0.009c-0.311,0-0.621-0.004-0.931-0.009c0.025-20.895-1.475-43.005-3.333-65.169
		C57.14,0.052,58.562,0,60,0L60,0z M74.706,1.787c3.147,0.789,6.137,1.824,8.928,3.071c-14.774,22.495-17.87,41.279-18.679,60.268
		c-0.76,0.061-1.526,0.108-2.297,0.14C63.225,47.063,63.695,28.943,74.706,1.787L74.706,1.787z M91.571,9.361
		c2.472,1.754,4.668,3.711,6.535,5.834C77.956,25.924,68.346,42.402,69.274,64.628c-0.744,0.113-1.494,0.213-2.251,0.299
		C66.812,46.965,69.572,28.804,91.571,9.361L91.571,9.361z M103.019,22.793c1.371,3.116,2.114,6.432,2.114,9.869
		c0,15.13-14.342,27.913-33.69,31.594c-2.222-11.239,4.017-23.126,13.359-32.273C89.67,27.217,96,23.511,103.019,22.793
		L103.019,22.793z M57.342,65.266c-0.771-0.033-1.537-0.079-2.298-0.14C54.236,46.138,51.14,27.354,36.366,4.858
		c2.79-1.248,5.781-2.283,8.928-3.071C56.305,28.943,56.775,47.063,57.342,65.266L57.342,65.266z M52.976,64.927
		c-0.757-0.086-1.507-0.186-2.251-0.299c0.928-22.226-8.683-38.704-28.832-49.433c1.866-2.123,4.063-4.08,6.535-5.834
		C50.427,28.804,53.187,46.964,52.976,64.927L52.976,64.927z"/>
</g>
</svg>
