<?xml version="1.0" encoding="utf-8"?>
<!-- Generator: Adobe Illustrator 17.0.0, SVG Export Plug-In . SVG Version: 6.00 Build 0)  -->
<!DOCTYPE svg PUBLIC "-//W3C//DTD SVG 1.1//EN" "http://www.w3.org/Graphics/SVG/1.1/DTD/svg11.dtd">
<svg version="1.1" id="Layer_1" xmlns="http://www.w3.org/2000/svg" xmlns:xlink="http://www.w3.org/1999/xlink" x="0px" y="0px"
	 width="175px" height="115.044px" viewBox="0 0 175 115.044" enable-background="new 0 0 175 115.044" xml:space="preserve">
<g>
	<path fill-rule="evenodd" clip-rule="evenodd" d="M0,0.703l8.892-0.63l46.004,45.978c0,0,115.113-10.497,115.463-22.814
		C170.709,8.611,46.003,5.462,46.003,5.462l32.419,34.221l-21.286,2.239L14.634,0.073c0,0,144.242-2.519,159.786,21.904
		C185.483,39.263,34.59,65.296,34.59,65.296l11.413-17.005L0,0.703L0,0.703z"/>
	<path fill="none" stroke="#000000" stroke-width="0.9765" stroke-miterlimit="2.6131" d="M0,0.703l8.892-0.63l46.004,45.978
		 M54.896,46.051c0,0,115.113-10.497,115.463-22.814C170.709,8.611,46.003,5.462,46.003,5.462 M46.003,5.462l32.419,34.221
		l-21.286,2.239L14.634,0.073 M14.634,0.073c0,0,144.242-2.519,159.786,21.904C185.483,39.263,34.59,65.296,34.59,65.296
		 M34.59,65.296l11.413-17.005L0,0.703"/>
	<path fill-rule="evenodd" clip-rule="evenodd" d="M0,0.703l8.892-0.63l46.004,45.978c0,0,115.113-10.497,115.463-22.814
		C170.709,8.611,46.003,5.462,46.003,5.462l32.419,34.221l-21.286,2.239L14.634,0.073c0,0,144.242-2.519,159.786,21.904
		C185.483,39.263,34.59,65.296,34.59,65.296l11.413-17.005L0,0.703L0,0.703z"/>
	<path fill="none" stroke="#000000" stroke-width="0.9765" stroke-miterlimit="2.6131" d="M0,0.703l8.892-0.63l46.004,45.978
		 M54.896,46.051c0,0,115.113-10.497,115.463-22.814C170.709,8.611,46.003,5.462,46.003,5.462 M46.003,5.462l32.419,34.221
		l-21.286,2.239L14.634,0.073 M14.634,0.073c0,0,144.242-2.519,159.786,21.904C185.483,39.263,34.59,65.296,34.59,65.296
		 M34.59,65.296l11.413-17.005L0,0.703"/>
	<path fill-rule="evenodd" clip-rule="evenodd" d="M147.532,98.537c1.54,0.49,2.17,1.89,2.1,3.779v0.84h-4.901
		c-0.07-0.56-0.28-1.19-0.84-1.4c-0.84-0.42-7.562-0.21-8.472,0.07c-0.35,0.14-0.77,0.49-0.84,0.77c-0.14,0.7,0.21,1.4,0.77,1.61
		c1.4,0.28,7.562,0.14,11.203,0.42c1.47,0.14,3.081,0.91,3.571,2.519c0.35,2.03,0.7,4.829-0.98,6.368
		c-2.731,1.68-6.372,1.12-9.663,1.33c-3.081-0.07-6.652,0.49-8.822-1.05c-1.191-1.12-1.191-2.729-1.12-4.339h5.041
		c-0.14,0.7,0.35,1.4,0.981,1.609c2.731,0.35,5.741,0.14,8.542,0.07c0.49-0.07,0.98-0.49,1.12-0.91c0.14-0.56-0.07-1.26-0.42-1.54
		c-0.35-0.35-0.77-0.35-0.77-0.35l-10.713-0.28c-1.19-0.07-2.171-0.35-3.011-1.33c-1.19-1.89-1.19-4.969-0.14-6.858
		c1.471-2.029,4.411-1.819,6.722-1.959C140.32,97.767,144.242,97.557,147.532,98.537L147.532,98.537z"/>
	<path fill-rule="evenodd" clip-rule="evenodd" d="M17.225,98.047c1.891,0,3.711,0.49,4.901,2.099c1.61,2.659,1.26,6.508,0.98,9.517
		c-0.07,1.82-1.12,3.569-2.661,4.409c-1.19,0.63-1.751,0.63-1.751,0.63c-6.092,0.14-12.253,0-18.415,0.07V98.047H17.225
		L17.225,98.047z"/>
	<polygon fill-rule="evenodd" clip-rule="evenodd" points="49.504,114.773 43.833,114.773 42.362,111.764 31.579,111.764 
		29.899,114.773 24.227,114.773 33.54,98.047 40.402,98.047 49.504,114.773 	"/>
	<polygon fill-rule="evenodd" clip-rule="evenodd" points="52.515,98.047 57.557,98.047 57.557,114.773 52.515,114.773 
		52.515,98.047 	"/>
	<polygon fill-rule="evenodd" clip-rule="evenodd" points="65.889,104.136 77.442,104.206 77.442,98.047 82.554,98.047 
		82.554,114.773 77.442,114.773 77.442,108.335 65.889,108.335 65.889,114.773 60.778,114.773 60.778,98.047 65.889,98.047 
		65.889,104.136 	"/>
	<polygon fill-rule="evenodd" clip-rule="evenodd" points="110.632,114.703 110.632,114.773 105.03,114.773 103.42,111.764 
		92.776,111.764 91.026,114.703 85.425,114.703 94.667,98.047 101.599,98.047 110.632,114.703 	"/>
	<polygon fill-rule="evenodd" clip-rule="evenodd" points="127.227,102.246 119.804,102.246 119.734,114.703 114.693,114.703 
		114.693,102.246 107.271,102.246 107.271,98.047 127.227,98.047 127.227,102.246 	"/>
	<path fill-rule="evenodd" clip-rule="evenodd" d="M157.965,108.055c0.14,0.91,0.21,1.889,1.12,2.379
		c1.68,0.7,5.181,0.42,7.702,0.35c0.84-0.07,1.471-0.14,2.031-0.84c0.42-0.63,0.35-1.749,0.35-1.749V98.047h5.111v11.897
		c-0.07,1.54-1.05,3.429-2.731,4.199c-3.851,1.4-10.433,0.77-13.024,0.7c-1.891-0.14-3.851-0.63-4.901-2.449
		c-0.56-1.26-0.84-2.659-0.77-4.199V98.047h5.111V108.055L157.965,108.055z"/>
	<polygon fill-rule="evenodd" clip-rule="evenodd" fill="#FFFFFF" points="33.4,108.195 36.901,101.756 40.402,108.195 
		33.4,108.195 	"/>
	<polygon fill-rule="evenodd" clip-rule="evenodd" fill="#FFFFFF" points="94.527,108.195 98.028,101.826 101.599,108.195 
		94.527,108.195 	"/>
	<path fill-rule="evenodd" clip-rule="evenodd" fill="#FFFFFF" d="M15.544,102.246c0.77,0.07,1.471,0.21,1.961,0.84
		c0.91,1.33,0.7,4.759,0.35,6.018c-0.42,1.19-1.68,1.4-2.731,1.54H5.461v-8.468L15.544,102.246L15.544,102.246z"/>
</g>
</svg>
