<?xml version="1.0" encoding="utf-8"?>
<!-- Generator: Adobe Illustrator 16.0.0, SVG Export Plug-In . SVG Version: 6.00 Build 0)  -->
<!DOCTYPE svg PUBLIC "-//W3C//DTD SVG 1.1//EN" "http://www.w3.org/Graphics/SVG/1.1/DTD/svg11.dtd">
<svg version="1.1" id="Layer_1" xmlns="http://www.w3.org/2000/svg" xmlns:xlink="http://www.w3.org/1999/xlink" x="0px" y="0px"
	 width="100px" height="114px" viewBox="0 0 100 114" enable-background="new 0 0 100 114" xml:space="preserve">
<g>
	<g>
		<path d="M78.795,30.987l-0.326-0.15v0.499l-0.26,0.293l-0.467,0.696L77.48,32.5l-0.73,0.878l-0.291,0.467l-0.35,0.784
			l-0.379,0.063l-0.351-0.206l-0.205-0.935l0.056-1.076l0.237-0.997l0.578-0.935l1.172-1.749l0.697-1.425l0.086-0.999l-0.11-0.316
			l-0.205,0.206l-0.349,0.871l-0.53,0.879l-0.783,0.642l-0.902,0.87l-1.348,1.575l-0.26-0.024l-0.089-0.268l-0.03-0.642l0.088-1.195
			l0.41-1.338l0.729-1.489l0.967-1.195l1.195-1.021l0.109-0.237l-0.144-0.111l-0.608,0.316l-0.498,0.324l-0.849,0.729l-1.053,0.935
			l-0.753,1.021l-0.735,1.338l-0.403,1.085L71.732,30.4l-0.058,1.458l0.349,1.52l0.35,1.314l0.674,2.066l0.436,2.479l0.261,1.891
			v1.021l-0.111,1.078l-0.174,0.878l-0.324,0.988l-1.229,1.545l-1.25,1.14l-1.606,0.902l-1.543,0.088l-0.207-0.752l-0.553-1.085
			l-0.763-1.045l-0.5-0.618l-0.664-0.901l-1.434-1.37L61.928,41.8l-0.641-0.498l-2.012-1.361l-2.892-2.423l-1.573-1.955
			l-1.728-2.827l-0.47-1.694l0.119-1.052l0.238-0.206l0.609,0.412l0.967,0.467l0.783-0.032l0.902,0.411l0.967,0.587l0.498,0.403
			l0.641,0.443l0.666,0.088l0.15-0.294l-0.174-0.031l-0.207,0.087l-0.324-0.206l-0.285-0.435l-0.41-0.674l-0.793-0.729L56.18,29.99
			l-0.436-0.088l0.086-0.229h0.609l0.707,0.229l1.02,0.673l0.469,0.206l0.174-0.237l-0.293-0.403l-0.791-0.706l-1.229-0.64
			l-1.48-0.579l-0.293-0.237l0.293-0.205l0.664,0.323l1.228,0.207l1.315,0.522l0.695,0.348l1.229,0.175l0.879-0.118L61.518,29
			l0.672-0.411l0.293-0.285l0.031-0.207l-0.27,0.024l-0.26,0.27l-0.871,0.285l-0.762,0.119l-0.642-0.088l-0.617-0.491l-0.555-0.648
			l-0.666-0.49l-0.996-0.207l-0.959-0.324l-0.41-0.262l0.031-0.229l0.379,0.056h0.849l0.848-0.056h0.869l0.467-0.087l0.383,0.316
			l0.609,0.15h0.498l0.229-0.174l-0.402-0.119l-0.5-0.324l-0.521-0.49l-0.849-0.443L57.7,24.797l-0.642-0.087l-0.238-0.143
			l0.47-0.262h0.758l0.589,0.175l0.575,0.293l0.937,0.404l0.936,0.031l0.498-0.237l0.143-0.316l-0.379-0.175l-0.785-0.031
			l-0.674-0.229l-0.586-0.498l-0.641-0.325l-0.848-0.143l-0.729-0.261l-0.315-0.412l0.055-0.205l0.469,0.096l0.584,0.174l0.35,0.261
			l0.498,0.055l0.055-0.261l-0.521-0.412l-0.149-0.372l0.705,0.111l0.664,0.349l0.848,0.096l0.326,0.608l0.871,0.522l0.047-0.008
			l0.188-0.079l0.229-0.143l-0.11-0.174l-0.323,0.024l-0.296-0.404l-0.586-0.903l-1.021-0.91l-1.047-0.467l-0.293-0.348
			l-0.641-0.761l-0.586-0.316l-0.088-0.294l0.264-0.174l0.615,0.143l1.221,0.349l0.586,0.205l0.379,0.531l0.609,0.317h0.469
			l0.617,0.174l0.674-0.119l0.262-0.229l-0.383-0.324l-0.553-0.144l-0.641-0.087l-0.381-0.324l-0.5-0.729l-0.117-0.467l-0.643-0.578
			l-0.697-0.443l-0.791-0.49l-0.871-0.815l-0.055-0.238h0.198l1.14,0.902l1.164,0.674l0.617,0.467l0.782,0.729l0.705,0.379
			l0.403,0.119l0.207-0.324l-0.293-0.111l-0.608-0.554L61.2,17.041l-0.642-0.698l-0.531-0.442l-0.262-0.665l-0.901-1.346
			l-1.228-1.076l-0.057-0.349l0.438,0.056l0.617,0.316l0.99,0.412l1.021,0.055l0.76,0.356l0.814,0.143l0.696-0.206L62.863,13.3
			l-0.793-0.174l-0.695-0.316l-1.402-0.673l-0.762-0.412l-0.402-0.491l0.142-0.174l0.207,0.143l0.315,0.119l0.412,0.031h0.674
			l0.578-0.063l0.879-0.056l0.674,0.261l0.695,0.5l0.293,0.086l0.031-0.261l-0.236-0.237l-0.697-0.642l-1.084-0.554L60.908,10.3
			l-1.49-0.087L59.07,9.801l-0.762-0.76l-0.847-0.578L57.146,8.17l0.26-0.206l0.404,0.175l0.729,0.38l0.824,0.292l1.109,0.262h0.957
			l0.791,0.879l0.643,0.38l0.229-0.237l-0.871-1.283l-1.369-0.989l-1.141-0.269L58.744,6.54l-0.846-0.498l-1.166-0.293l0.643-0.555
			l1.141-0.381l0.848-0.261l0.197-0.262l-0.11-0.205l-0.468-0.119L58.54,3.879l-3.293,0.063l-0.588-0.649l-0.664-0.436l-0.578-0.259
			h0.994l-0.08-0.853l-1.215-1.476l-0.371-0.11L52.482,0.53l0.041,0.441l-0.41,0.371l-0.041,0.512l0.482,0.261l0.479,0.344
			l-0.996-0.156H51.08l-0.262-0.349l-0.902-0.965L48.832,0l-0.666,1.108l-0.031,0.348l0.316,0.412l0.031,0.348l-0.229,0.207
			l-0.736,0.055l-1.34-0.38l-1.313-0.285l-0.611,0.024l-0.996,0.205l0.117,0.349l0.555-0.023l0.229,0.039l-0.006,0.309l-0.324,0.072
			l-0.422-0.056l-0.633,0.135l-0.475,0.15l-0.38,0.023l-0.119,0.167l0.135,0.229L42.219,3.5l0.27-0.079l0.309-0.135l0.316-0.016
			l0.674,0.031l0.516,0.159l0.609,0.15l0.895,0.402l0.078,0.19l-0.094,0.151l-0.42,0.15l-0.254,0.118l-0.451,0.301l-0.689,0.364
			l-0.84,0.595L42.18,6.318l-0.76,0.499l-0.69,0.301l-0.648,0.157l-0.57,0.017l-0.785,0.016l-0.301,0.08L38.252,7.75l-0.135,0.396
			l-0.15,0.27l-0.379,0.57l-0.365,0.633l-0.246,0.31l-0.023,0.356l0.023,0.499v0.529l0.324,0.293l0.287,0.15l0.34-0.024l0.555-0.149
			l0.625-0.19l0.848-0.34l0.34,0.016l0.08,0.214l-0.08,0.206l-0.285,0.15l-0.863,0.324l-0.648,0.19l-0.127,0.213l-0.023,0.23
			l0.213,0.189l0.451,0.056h0.365l0.459-0.016l0.5-0.119l0.719-0.379l0.477-0.096l0.402-0.079l0.309,0.103l0.451-0.023l0.443,0.055
			l0.365,0.215l0.57,0.055l0.744,0.229l0.404,0.056l0.625-0.111l0.801,0.056l0.348,0.135l0.189,0.325l-0.039,0.419l-0.096,0.515
			l-0.189,0.594l-0.27,0.744l-0.268,0.815l-0.287,0.744l-0.189,0.516l-0.648,1.013l-0.785,0.989l-0.703,0.975l-0.896,0.894
			L41.99,22.16l-0.523,0.555l-0.277,0.909l-0.387,0.459l-0.492,0.35l-0.594,0.49l-0.91,0.554l-0.768,0.389l-0.492,0.562
			l-0.348,0.451l-0.35,0.214l-0.49,0.246l-0.316-0.071l-0.625-0.285l-0.697-0.451L33.7,26.081l-1.148-0.603l-0.594-0.45
			l-0.736-0.594l-0.809-0.666l-0.871-0.316l-0.768-0.134l-0.982,0.205l-0.697,0.389l-0.602,0.419L26.186,25.1l-0.215,0.593
			l-0.244,0.911l-0.279,0.555l-0.275,0.846l-0.041,1.015l-0.246,0.593l-0.277,0.941l-0.244,0.942l-0.451,0.88l-0.246,0.87
			l-0.143,1.085l-0.389,0.91l-0.244,0.522l-0.031,0.522l-0.033,0.879V38.7l-0.174,0.634l0.104,0.554l-0.039,0.911l0.316,0.728
			l0.246,0.175l0.449-0.144l0.422-0.38l0.602-0.729l0.521-0.838l0.207-0.697l-0.135-0.563l-0.174-0.697l-0.215-0.838l-0.205-0.879
			l-0.111-0.665v-0.625l0.143-0.705l0.348-1.077l0.35-0.562l0.316-0.285l0.244-0.38l0.451-0.04l0.215-0.135l0.316-0.285l0.348-0.309
			l0.318-0.42l0.135-0.49l0.109-0.42l0.033-0.562l0.102-0.491l0.246-0.309l0.246-0.071l0.316,0.103l0.451,0.246l0.49,0.563
			l0.523,0.768l0.594,0.696l0.633,0.562l0.563,0.451l0.555,0.246l0.174,0.349l-0.174,0.175l-0.594-0.135l-0.84-0.071l-1.084-0.214
			l-1.045-0.206l-1.26-0.04l-0.736,0.04l-0.563,0.349l-0.594,0.522l-0.49,0.838l-0.381,0.95l-0.039,0.697l0.213,1.259l0.49,1.607
			l0.246,1.259l0.311,1.227l0.213,0.863l0.104,0.808l0.275,0.909l0.215,1.394l0.205,0.491l0.531,0.42l0.49,0.49l0.555,0.84
			l0.389,0.981l0.594,0.871l0.871,0.839l0.633,0.39l0.42,0.031l0.348-0.104l0.215-0.49l0.236-0.42l0.145-0.595v-0.808v-0.555
			l-0.176-0.388c-0.031,0-0.031-0.244-0.031-0.276l-0.072-0.245l-0.285-0.42l-0.521-0.523L30.7,44.432l-0.355-0.112l-0.064-0.592
			l0.033-0.382l-0.666-0.768l-0.42-0.981l-0.348-1.394l-0.285-1.29l-0.482-1.014l-0.176-1.227l0.277-0.736l0.492-0.277h0.379
			l0.563,0.49l0.809,0.492l0.84,0.309l2.025,0.981l0.982,0.562v0.523l0.902,0.522l1.156,0.388h1.33h1.086l-0.174,0.451L38.5,40.622
			l0.309,0.586l0.594,0.88l0.949,0.94l1.148,1.26l0.982,0.869l1.836,1.411l1.49,0.799l1.115,0.594l1.434,0.973l1.322,0.943
			l1.141,0.966l1.188,1.607l0.057,0.673l0.269,0.697l0.729,0.521l0.664,0.262l0.412-0.057l0.324-0.315l0.469-0.499l0.111-0.673
			l0.553-0.959l0.119-0.736l0.086-0.814l0.057-0.642l0.183-0.403l0.371-0.183h0.356l0.023,0.269l-0.262,0.286l-0.23,0.616
			l-0.174,0.381v0.468l-0.063,0.988l-0.144,0.499l-0.437,0.752l-0.586,0.966L54.311,55.6l-0.348,1.37l-0.176,1.432l0.176,1.6
			l0.229,0.936l0.556,1.228l0.705,1.456l0.555,1.141l0.761,1.195l0.901,1.107l0.174,0.379v0.263l-0.116,0.325l-0.318,0.521
			l-0.5,0.697l-1.02,1.313l-1.021,1.108l-0.934,1.022l-0.404,0.238l-0.824,0.313l-0.492,0.469l-0.26,0.529l-0.586,0.729
			l-0.666,0.729l-0.814,0.848l-0.5,0.869l-0.293,0.881l-0.174,0.729l0.031,0.584l0.35,0.373h0.641h0.643l0.554-0.057l0.577-0.348
			l0.761-0.348l0.121-0.293h0.26l0.404-0.176l0.379-0.354l0.207-1.394l-0.119-0.293l-0.056-0.293l0.205,0.055l0.229,0.063
			l0.236-0.174l0.381-0.239l0.404-0.521l0.498-0.704l0.262-0.642l0.055-0.522l0.324-0.238l0.467-0.262l0.382-0.229l0.315-0.641
			l0.674-0.705l1.261-1.163l0.957-0.642l0.967-0.53l0.229-0.229l0.086-0.239l0.205-0.259l-0.143-0.35l-0.031-0.643l-0.127-0.6
			l-0.148-0.351l-0.334-0.569l-0.53-0.666l-0.263-0.498L60.18,64.41v-0.705l0.119-0.402l0.316-1.086l0.326-0.521l0.348-0.207
			l0.641-0.403l0.762-0.647l1.021-0.871l0.697-0.729l0.704-0.813l0.729-0.825l0.521-0.926l0.437-0.792l0.414-0.902l0.293-0.998
			l0.086-0.926l0.058-0.704l0.236-0.229l0.262-0.063l0.229,0.15l0.207,0.49l0.055,0.673l0.096,0.641l-0.063,0.437l-0.055,0.672
			v1.436l0.174,1.13l0.207,0.294l0.174-0.023l0.088-0.206l-0.118-0.467V56.09l0.235-0.664l0.11-0.966l0.119-0.672l0.15-0.318h0.174
			l0.144,0.142l0.143,0.555l0.119,0.531l-0.058,0.839l-0.178,1.14l-0.529,1.108l-0.489,1.052l-0.295,0.901l-0.056,0.556l0.056,0.642
			l0.207,0.617h0.379l0.198-0.269l-0.11-0.294l-0.088-0.521l0.351-0.468l0.401-0.556l0.271-0.521l0.642-1.021l0.521-0.935
			l0.23-1.022l0.205-1.345v-1.339l-0.26-0.935l-0.523-0.727l-0.064-0.35l0.238-0.119l0.293,0.145l0.381,0.466l0.467,0.847
			l0.197,0.989l0.117,1.314l0.295,0.91l0.031,0.025l0.404,0.901l0.262,0.095l0.119-0.237l-0.031-0.143l-0.199-0.672l-0.031-0.674
			l0.031-0.99L73.893,53v-0.55l-0.063-0.467l-0.467-0.935l-0.404-0.673l0.143-0.262l0.556-0.119l0.758-0.349l0.815-0.435l0.73-0.642
			l0.932-1.26l0.531-1.045l0.436-0.997l0.144-1.599l0.033-1.434l-0.229-1.773l-0.269-1.282l-0.229-1.314l-0.144-1.369l0.108-0.871
			l0.238-1.084l0.49-1.076l0.705-1.109l0.262-0.704l0.055-0.349L78.795,30.987z M39.115,9.873l-0.23,0.229l-0.324,0.183
			l-0.436,0.095l-0.15-0.095l-0.055-0.31l0.127-0.436l0.309-0.428l0.254-0.126l0.229,0.023l0.277,0.229l0.127,0.206L39.115,9.873z
			 M40.256,9.587l-0.08,0.04l-0.158,0.008l-0.127-0.063l-0.102-0.119l0.016-0.143l0.119-0.189l0.094-0.063h0.127l0.111,0.023
			L40.295,9.2l0.016,0.206L40.256,9.587z M41.666,10.886l-0.119,0.055h-0.15l-0.088-0.047l-0.047-0.127l0.016-0.158l0.088-0.095
			l0.109-0.008l0.119,0.031l0.057,0.087l0.039,0.143L41.666,10.886z M44.365,6.8l-0.182,0.048L43.96,6.904L43.717,7.11L43.17,7.442
			l-0.752,0.206l-0.469,0.119l-0.451,0.031L41.27,7.775l0.363-0.31l0.674-0.324l0.672-0.301l0.643-0.301l0.293-0.143l0.221-0.032
			l0.182,0.04l0.145,0.229L44.365,6.8z M23.975,39.616l-0.236-0.055l-0.119-0.229l0.238-0.119l0.205,0.024l0.055,0.205
			L23.975,39.616z M27.039,27.377l-0.166,0.616l-0.215,0.697l-0.379,0.586l-0.205,0.056l-0.072-0.159v-0.309l0.039-0.42l0.15-0.791
			l0.334-0.577l0.174-0.207l0.254-0.071l0.096,0.143L27.039,27.377z M28.727,25.057L28.346,25.2l-0.363,0.04l-0.223-0.088
			l-0.055-0.158l0.063-0.213l0.191-0.136l0.395-0.047l0.207-0.016l0.143,0.039l0.125,0.119l0.01,0.135L28.727,25.057z M31.822,29.23
			l-0.078,0.007l-0.191-0.119l-0.27-0.149l-0.229-0.19l-0.215-0.214l-0.094-0.119l-0.023-0.174l0.047-0.087l0.08,0.008l0.133,0.023
			l0.15,0.135l0.174,0.158l0.279,0.167l0.166,0.197l0.104,0.15l0.006,0.135L31.822,29.23z M26.619,33.385l-0.143,0.198l-0.141,0.056
			L26.24,33.56l0.008-0.285l0.236-0.412l0.072-0.119l0.119-0.055l0.111,0.07v0.237l-0.072,0.167L26.619,33.385z M27.609,40.74
			l-0.047,0.071h-0.055l-0.104-0.087l-0.08-0.151l-0.127-0.275l-0.182-0.364l-0.182-0.57l-0.096-0.538L26.72,38.2l0.088-0.617
			l0.047-0.071h0.088l0.086,0.079l0.088,0.372l0.008,0.38l0.15,0.483l0.182,0.515l0.08,0.451l0.109,0.735L27.609,40.74z
			 M31.141,47.477l0.096-0.024l0.23,0.049l0.102,0.111l0.025,0.133l-0.025,0.158l-0.133,0.104l-0.166-0.031l-0.121-0.111
			l-0.047-0.245L31.141,47.477z M33.43,36.814l-0.238,0.016l-0.309-0.048l-0.213-0.095l-0.498-0.31l-0.492-0.364l-0.555-0.332
			l-0.189-0.143l0.254-0.008l0.277,0.103l0.475,0.119l0.436,0.213l0.506,0.223l0.365,0.166l0.189,0.175l0.031,0.158L33.43,36.814z
			 M36.066,29.99l-0.332,0.934l-0.293,0.896l-0.516,0.641l-0.26,0.197l-0.277,0.103l-0.16-0.109l-0.016-0.206l0.223-0.238l0.23-0.38
			l0.291-0.641l0.176-0.61l0.158-0.601l0.309-0.579l0.205-0.293l0.174-0.047l0.158,0.063l0.049,0.191L36.066,29.99z M48.768,11.471
			l0.262-0.332l0.301-0.285l0.27-0.182l0.197-0.016l0.135,0.087v0.245l-0.07,0.27l-0.303,0.285l-0.355,0.222L48.84,11.86
			l-0.176-0.056l-0.023-0.142L48.768,11.471z M47.707,5.329l0.254-0.087l0.174-0.079l0.221,0.079L48.428,5.4l-0.166,0.189
			l-0.23,0.087l-0.277,0.017l-0.102-0.19L47.707,5.329z M45.506,7.378l-0.104-0.276l0.15-0.31l0.332-0.277l0.531-0.023l0.389,0.071
			l0.301,0.206l0.15,0.356l0.125,0.38l-0.023,0.333l-0.332,0.126H46.67L46.242,7.79l-0.381-0.205L45.506,7.378z M46.805,11.44
			l-0.451,0.104H45.95l-0.072-0.136l0.104-0.142l0.119-0.071l0.791-0.563l0.482-0.301l0.295-0.182h0.102l0.016,0.214l-0.197,0.158
			l-0.096,0.325l-0.244,0.379L46.805,11.44z M41.531,25.912l-0.057-0.087l0.016-0.214l0.143-0.157l0.5-0.206l1.037-0.325
			l1.037-0.127h0.633l0.523,0.111l0.49,0.245l0.389,0.38l0.023,0.213l-0.047,0.151l-0.168,0.032l-0.252-0.032l-0.389-0.11
			l-0.363-0.111l-0.451-0.048h-0.563l-0.477-0.007l-0.42,0.039l-0.467,0.079l-0.371,0.104l-0.365,0.079l-0.236,0.016L41.531,25.912z
			 M48.102,47.398l-0.529-0.331l-0.895-0.595l-1.387-0.934l-0.563-0.382l-0.594-0.465l-0.648-0.596l-0.475-0.37l-0.57-0.556
			l-0.373-0.389l-0.229-0.355l-0.088-0.428l0.016-0.396l0.15-0.149l0.262,0.017l0.412,0.246l0.443,0.426l0.324,0.396l0.35,0.35
			l0.34,0.42l0.428,0.465l0.404,0.452l1.33,1.156l0.736,0.657l0.656,0.594l0.531,0.499l0.102,0.165l0.072,0.119L48.102,47.398z
			 M48.459,29.3l-0.166,0.095l-0.404,0.009l-0.27-0.063l-0.15-0.198l-0.127-0.158V28.73l0.199-0.253l0.301-0.237l0.285-0.04
			l0.262,0.071l0.078,0.143l0.031,0.316l0.039,0.333L48.459,29.3z M49.26,16.253l-0.168,0.609l-0.371,0.975l-0.5,0.823l-0.553,1.029
			l-0.889,1.243l-0.672,0.704l-0.467,0.182l-0.15-0.008l-0.023-0.119l0.141-0.332l0.57-0.878l0.469-0.967l0.418-0.831l0.746-1.441
			l0.703-1.124l0.365-0.348l0.277-0.048l0.119,0.189L49.26,16.253z M50.881,12.026l-0.086,0.214l-0.309,0.364l-0.428,0.206
			l-0.428,0.174l-0.443,0.008H48.91l-0.096-0.127l0.104-0.182l0.246-0.111l0.428-0.206l0.49-0.3l0.23-0.166l0.348-0.168l0.221,0.057
			V12.026z M53.203,25.381l-0.158,0.048l-0.207-0.016l-0.135-0.135l0.031-0.119l0.135-0.094l0.207-0.017l0.174,0.142l0.008,0.119
			L53.203,25.381z M53.439,24.606h-0.236l-0.127-0.071V24.36l0.055-0.118l0.127-0.04h0.166l0.158,0.103l0.016,0.128L53.439,24.606z
			 M53.875,23.41l-0.158,0.079l-0.166,0.024l-0.174-0.04l-0.057-0.118v-0.143l0.145-0.104l0.172-0.031h0.166l0.104,0.087
			l0.024,0.135L53.875,23.41z M54.096,22.405l-0.213,0.064l-0.238-0.009l-0.127-0.087l-0.006-0.095l0.039-0.144l0.189-0.086
			l0.207-0.032l0.174,0.087l0.063,0.166L54.096,22.405z M54.611,20.996l-0.119,0.158l-0.111,0.143l-0.221,0.047h-0.221l-0.191-0.094
			l-0.016-0.151l0.135-0.143l0.104-0.119l0.15-0.055l0.244-0.071h0.191l0.086,0.103L54.611,20.996z M54.93,19.816l-0.104,0.166
			l-0.184,0.032l-0.189,0.048l-0.236-0.008l-0.105-0.119l0.017-0.174l0.08-0.119l0.158-0.111l0.245-0.031l0.222,0.047l0.099,0.136
			v0.133H54.93z M55.262,18.945l-0.246,0.104l-0.188,0.063h-0.238l-0.096-0.017l-0.117-0.039l-0.063-0.119l0.03-0.15l0.158-0.143
			l0.136-0.071l0.149-0.063l0.213-0.008l0.207,0.071l0.088,0.167L55.262,18.945z M55.293,17.592l-0.088,0.142l-0.148,0.127
			l-0.225,0.079l-0.26,0.023l-0.215-0.031l-0.056-0.127l0.031-0.103l0.088-0.063l0.379-0.198l0.185-0.039l0.221,0.023l0.088,0.079
			V17.592z M54.689,14.385l0.072-0.048l0.03-0.143l0.033-0.111l0.063-0.079l0.118-0.007l0.144,0.039l0.127,0.071l0.016,0.15
			l-0.016,0.245l-0.189,0.166l-0.246,0.12l-0.104-0.017l-0.104-0.04l-0.102-0.126l-0.019-0.143l0.041-0.079h0.135V14.385z
			 M54.557,13.372v-0.119l0.103-0.102l0.168-0.064l0.196-0.008l0.117,0.04l0.033,0.104l-0.064,0.103l-0.102,0.11l-0.166,0.039
			h-0.174L54.557,13.372z M54.564,16.578l0.143-0.087l0.166-0.039l0.168-0.017l0.117,0.009l0.047,0.07v0.119L55.15,16.76
			l-0.109,0.126l-0.279,0.119l-0.135-0.016L54.5,16.951l-0.031-0.135l0.023-0.151L54.564,16.578z M55.277,15.605l-0.041,0.103
			l-0.174,0.118l-0.236,0.087l-0.137-0.031l-0.125-0.071l-0.023-0.126l0.016-0.158l0.096-0.096l0.134-0.095l0.198-0.039l0.166-0.009
			l0.111,0.032l0.037,0.11L55.277,15.605z M55.34,12.255l-0.023,0.135l-0.088,0.119l-0.141,0.055l-0.137,0.032l-0.119,0.016
			l-0.158-0.016l-0.039-0.095l0.039-0.127l0.096-0.088l0.104-0.055l0.174-0.119l0.183,0.008L55.34,12.255z M55.094,11.091
			l0.096,0.056l0.017,0.135l-0.008,0.126l-0.15,0.136l-0.144,0.055l-0.094-0.016l-0.072-0.039v-0.127l0.009-0.135l0.104-0.111
			l0.094-0.056L55.094,11.091z M54.914,10.434l-0.041,0.144l-0.104,0.079l-0.097,0.056l-0.125,0.015l-0.104-0.063l-0.022-0.11
			l0.047-0.096l0.097-0.127l0.094-0.047l0.127-0.009l0.104,0.064L54.914,10.434z M53.613,7.877l0.229-0.016l0.324-0.127l0.293-0.063
			l0.246-0.016l0.125,0.119l-0.174,0.262l-0.175,0.047l-0.293,0.103L53.813,8.4l-0.364,0.19l-0.421,0.174L52.887,8.78l-0.121-0.039
			l0.019-0.175L52.719,8.4V8.099l0.135-0.34l0.191-0.206l0.117-0.158l0.129-0.159h0.189l0.133,0.136l-0.031,0.332L53.613,7.877z
			 M53.566,4.782L53.535,4.87l-0.127,0.149l-0.174,0.017l-0.207-0.032l-0.119-0.055L52.82,4.845l0.104-0.087l0.152-0.063
			l0.229-0.008l0.176,0.04L53.566,4.782z M52.387,3.5l0.396-0.039l0.213,0.071l0.166,0.087L53.17,3.76l-0.143,0.063l-0.221,0.016
			l-0.214-0.016l-0.168-0.031l-0.143-0.104L52.387,3.5z M55.451,44.611l-0.189,0.176l-0.174,0.196l-0.174,0.363l-0.057,0.255
			l-0.119,0.095l-0.229-0.031l-0.112-0.135l0.041-0.483l0.127-0.601l0.063-0.334l0.15-0.419l0.111-0.127l0.168-0.031h0.221
			l0.094,0.087l0.168,0.246l0.031,0.468L55.451,44.611z M54.832,38.366l-0.521-0.5l-0.871-0.869l-0.793-0.999l-0.694-1.132
			l-0.556-1.4L51.168,32.5l0.109-0.555l0.318-0.087l0.323,0.15l0.205,0.578l0.174,0.847l0.315,0.879l0.824,1.282l1.109,1.632
			l1.281,1.662L54.832,38.366z M55.902,55.917l-0.223,0.618l-0.109,0.301l-0.207,0.467l-0.158,0.546l-0.047,0.158l-0.055,0.104
			h-0.152l-0.119-0.355l-0.006-0.404l0.088-0.556l0.195-0.76l0.326-0.466l0.293-0.365l0.262-0.032l0.07,0.239L55.902,55.917z
			 M57.059,64.197l-0.057,0.008L56.9,64.158l-0.189-0.276l-0.287-0.468l-0.133-0.309l-0.08-0.428v-0.396l0.016-0.236l0.056-0.072
			h0.127l0.135,0.057l0.174,0.205l0.128,0.355l0.088,0.475l0.008,0.381l0.008,0.136l0.072,0.183l0.069,0.364L57.059,64.197z
			 M51.207,77.887l-0.119,0.229l-0.143,0.215l-0.23,0.15l-0.221,0.049h-0.096l-0.104-0.08l-0.029-0.168l0.037-0.205l0.121-0.238
			l0.324-0.322l0.244-0.152l0.176-0.008l0.086,0.07l0.022,0.166L51.207,77.887z M53.377,74.387l-0.119,0.166l-0.15,0.086
			l-0.184,0.065l-0.133-0.041l-0.08-0.144l0.016-0.143l0.135-0.166l0.271-0.167l0.197-0.03l0.096,0.055l0.022,0.144L53.377,74.387z
			 M58.223,69.557l-0.35,0.516l-0.467,0.547l-0.529,0.515l-0.564,0.585l-0.521,0.477l-0.412,0.371l-0.229,0.15l-0.151-0.008
			l-0.067-0.119l0.03-0.197l0.642-0.713l0.901-0.975l1.095-1.1l0.205-0.224l0.309-0.196l0.111,0.022l0.096,0.119L58.223,69.557z
			 M60.242,67.998l0.135-0.048l0.174,0.009l0.078,0.039l0.008,0.088l-0.07,0.109l-0.157,0.143l-0.144,0.16H60.17l-0.111-0.063
			l-0.022-0.137l0.049-0.135L60.242,67.998z M66.086,52.061l-0.031,0.262l-0.08,0.246l-0.049,0.221l-0.164,0.095l-0.152-0.04
			l-0.077-0.142l-0.05-0.499l-0.33-0.459l-0.032-0.381l0.19-0.236l0.197-0.063l0.189,0.016l0.158,0.143l0.182,0.229l0.049,0.262
			V52.061z M75.943,42.252v0.76l-0.017,0.373L75.777,44.2l-0.205,0.695l-0.238,0.61l-0.355,0.664l-0.403,0.57l-0.609,0.712
			l-0.696,0.666l-0.357,0.087l-0.189-0.087l-0.031-0.254l0.148-0.34l0.209-0.372l0.371-0.49l0.404-0.547l0.381-0.594l0.371-0.609
			l0.285-0.595l0.166-0.609l0.143-0.696l0.031-0.776l0.031-0.697l-0.047-0.609l-0.072-0.704l-0.063-0.664l-0.038-0.372l0.204-0.206
			l0.136,0.071l0.104,0.324l0.205,0.641l0.168,0.769l0.117,0.736v0.728H75.943z"/>
		<path d="M50.367,65.044l1.156,0.396l1.021,0.467l0.396,0.285l1.054,0.047l0.563-0.141l0.301-0.611l0.324-0.743l-0.095-0.603
			l-0.397-0.752l-0.529-1.093l-0.42-1.14l-0.311-1.283l-0.134-1.102v-1.066l0.111-1.26l0.143-0.633l-0.166-0.539l-0.35-0.277
			l-0.695-0.515l-0.491-0.347l-0.095-0.674l-0.229-0.721l-0.437-0.705l-0.467-0.601l-0.586-0.563l-0.744-0.562l-0.84-0.626
			l-0.443-0.214l-0.443-0.135l-0.373,0.063l-0.324,0.214l-0.143,0.349l0.096,0.634l0.324,1.417l0.563,1.868l0.467,1.115l0.625,1.427
			l0.443,0.838l0.682,1.236l0.816,1.376l0.641,0.888l0.539,0.721l0.023,0.395l-0.072,0.326l-0.301,0.119l-0.902,0.047l-1.584-0.094
			l-1.307-0.168l-1.148-0.205l-1.393-0.396l-0.705-0.309l-0.467-0.207l-0.531-0.094l-0.609,0.022L42.6,61.063h-0.443l-1.053-0.166
			L40.5,60.691l-0.656-0.049l-1.045-0.022l-0.793-0.071h-0.727l-0.723,0.047l-0.49,0.205l-0.348,0.096L35.6,61.063l0.023,0.324
			l0.332,0.538l0.627,0.863l0.371,0.157l0.586,0.42l0.674,0.371l0.729,0.238L39.986,64l0.934-0.096l0.793-0.182l0.672-0.214
			l0.285,0.144l0.135,0.277L43.043,64l0.578-0.023l0.729,0.047l0.371,0.119l0.443-0.119l1.443,0.183l0.98,0.144l1.607,0.35
			L50.367,65.044z M52.6,62.732l0.215-0.157l0.158-0.04h0.174l0.058,0.07v0.127l-0.088,0.158l-0.158,0.127l-0.229,0.057L52.6,63.018
			l-0.039-0.134L52.6,62.732z M38.625,61.75l-0.072,0.167l-0.127,0.149L38.324,62.1l-0.215,0.008L37.92,62.05l-0.088-0.069
			l-0.125-0.156l0.006-0.143l0.072-0.104l0.246-0.08l0.283-0.056l0.215-0.008l0.104,0.063l0.023,0.116L38.625,61.75z M48.736,63.175
			l-0.428-0.022l-0.412-0.031l-0.941-0.236l-0.744-0.23L45.68,62.48l-0.08-0.15l0.025-0.166l0.102-0.041l0.697,0.223l0.309,0.127
			l0.326,0.07l0.395,0.055l0.658,0.072l0.568,0.088l0.539,0.039l0.436,0.096l0.246,0.063l0.07,0.094v0.152l-0.086,0.109l-0.27,0.017
			l-0.467-0.079L48.736,63.175z"/>
	</g>
	<path fill="#E10101" d="M0,113.712v-2.086h1.16c0.578,0,1.738-0.117,1.738-1.508V97.598c0-0.754-0.059-2.551-1.508-2.551H0.059
		l1.508-2.666h89.182v2.666H8.695c-0.754,0-1.738,0.172-1.738,1.68v3.943c0.174,0.463,0.869,0.637,1.217,0.637
		c0.348,0,1.564-0.057,1.564-1.969h1.74v6.434h-1.74c0-0.582-0.641-1.551-1.506-1.625c-0.695-0.059-1.275,0.174-1.275,1.104v4.867
		c0,0.521,0.637,1.508,2.145,1.508h1.043v2.086H0L0,113.712z"/>
	<path fill="#E10101" d="M51.467,98.064c0,0.463,0.58,0.926,0.926,1.041c0.408-0.289,2.553-1.506,4.234-1.506
		c1.68,0,2.549,0.869,2.549,2.2v6.378h-4.057v-4.927c0-0.64-0.174-1.104-0.752-1.16c-0.58-0.06-2.088,1.16-2.494,1.738v8.812
		c0,0.813,0.811,1.391,1.506,1.391v1.682h-7.072v-1.74c0.697,0,1.451-0.231,1.508-1.272v-9.796c0-0.291-0.463-1.104-1.508-1.104
		v-1.736H51.467L51.467,98.064z"/>
	<path fill="#E10101" d="M100,98.064h-7.072V99.8c1.043,0,1.508,0.813,1.508,1.104v9.795c-0.059,1.041-0.813,1.273-1.508,1.273
		v1.739H100v-1.683c-0.695,0-1.508-0.577-1.508-1.391v-9.621c0-0.697,0.754-1.219,1.508-1.219V98.064L100,98.064z"/>
	<path fill="#E10101" d="M35.814,98.064c0,0.463,0.58,0.926,0.928,1.041c0.406-0.289,2.551-1.506,4.232-1.506
		c1.681,0,2.551,0.869,2.551,2.2v6.378h-4.059v-4.927c0-0.64-0.174-1.104-0.754-1.16c-0.58-0.06-2.086,1.16-2.492,1.738v8.812
		c0,0.813,0.811,1.391,1.506,1.391v1.682h-7.07v-1.74c0.695,0,1.447-0.231,1.506-1.272v-9.796c0-0.291-0.463-1.104-1.506-1.104
		v-1.736H35.814L35.814,98.064z"/>
	<path fill="#E10101" d="M82.842,98.064c0,0.463,0.578,0.926,0.926,1.041C84.174,98.816,86.32,97.6,88,97.6
		c1.682,0,2.551,0.869,2.551,2.2v6.378h-4.057v-4.927c0-0.64-0.174-1.104-0.754-1.16c-0.58-0.06-2.086,1.16-2.494,1.738v8.812
		c0,0.813,0.813,1.391,1.508,1.391v1.682h-7.072v-1.74c0.695,0,1.449-0.231,1.508-1.272v-9.796c0-0.291-0.467-1.104-1.508-1.104
		v-1.736H82.842L82.842,98.064z"/>
	<path fill="#E10101" d="M27.594,108.844h-4.059v1.563c0,0.639-0.115,1.973-2.027,1.973c-1.914,0-2.494-1.276-2.494-2.202v-3.306
		c0-0.289,0.232-0.694,0.639-0.694h7.941v-4.23c0-1.914-0.406-2.492-1.217-3.303c-0.811-0.813-3.652-1.045-4.928-1.045
		c-3.246,0-4.291,0.465-5.217,1.217c-0.928,0.752-1.275,2.317-1.275,3.479v6.549c0,1.738,0.348,2.955,1.449,4.057
		c1.102,1.101,4.463,1.101,5.158,1.101c0.697,0,3.016,0.06,4.697-1.155C27.941,111.626,27.594,108.844,27.594,108.844
		L27.594,108.844z M19.014,101.656c0-0.926,0.291-2.316,2.32-2.316c2.027,0,2.201,1.508,2.201,2.316v2.088
		c0,0.346-0.289,0.695-0.695,0.695h-3.129c-0.348,0-0.697-0.291-0.697-0.637V101.656L19.014,101.656z"/>
	<path fill="#E10101" d="M74.088,110.641v-8.693c0-1.334-0.059-2.725-1.449-3.711c-1.393-0.984-3.652-0.928-4.522-0.928
		c-0.869,0-3.769,0-5.103,1.508c-1.332,1.506-1.1,2.955-1.1,3.537h3.797c0,0,0.26-1.974,0.781-2.494
		c0.525-0.525,1.914-1.103,2.986-0.174c0.395,0.342,0.549,0.785,0.549,1.276v2.492c0,0.231-0.23,0.575-0.521,0.575
		c0,0-5.276,0.117-6.202,0.813c-0.929,0.697-1.74,1.158-1.74,3.712c0,2.549,0.639,3.532,1.393,4.055
		c0.752,0.524,1.102,1.104,4.521,1.104h8.117v-1.682C74.898,112.031,74.088,111.453,74.088,110.641L74.088,110.641z M70.027,111.626
		c0,0.146-0.23,0.347-0.404,0.347h-2c-1.42,0-1.826-1.218-1.826-1.97v-2.231c0-2.174,2.262-2.115,3.158-2.115
		c0.9,0,1.072,0.752,1.072,1.246V111.626L70.027,111.626z"/>
	<path fill="#E10101" d="M96.197,95.02c2.031,0,3.676-0.615,3.676-1.377c0-0.761-1.645-1.375-3.676-1.375
		c-2.029,0-3.674,0.614-3.674,1.375C92.523,94.404,94.168,95.02,96.197,95.02L96.197,95.02z"/>
</g>
</svg>
