<?xml version="1.0" encoding="utf-8"?>
<!-- Generator: Adobe Illustrator 16.0.0, SVG Export Plug-In . SVG Version: 6.00 Build 0)  -->
<!DOCTYPE svg PUBLIC "-//W3C//DTD SVG 1.1//EN" "http://www.w3.org/Graphics/SVG/1.1/DTD/svg11.dtd">
<svg version="1.1" id="Layer_1" xmlns="http://www.w3.org/2000/svg" xmlns:xlink="http://www.w3.org/1999/xlink" x="0px" y="0px"
	 width="65px" height="40px" viewBox="0 0 65 40" enable-background="new 0 0 65 40" xml:space="preserve">
<g id="Warstwa_x0020_1">
	<g id="_217956912">
		<polygon id="_217961256" fill="#A80230" points="0,0 1.295,40 7.59,40 7.452,23.412 12.732,23.412 12.732,18.242 7.452,18.242 
			7.473,5.227 14.364,5.227 14.328,0 		"/>
		<polygon id="_217958256" fill="#A80230" points="16.816,0 17.613,40 24.114,40 24.246,0 		"/>
		<polygon id="_217960584" fill="#A80230" points="47.293,0 47.293,5.045 52.43,5.045 52.281,40 58.57,40 59.908,5.039 65,5.039 
			64.962,0 		"/>
		<path id="_217960752" fill="#A80230" d="M34.051,18.512l0.07-13.586h3.631c1.645,3.025,2.703,7.027,3.531,13.586H34.051z
			 M28.25,39.998h0.638h4.692h0.689l0.066-16.54h7.21c0.567,2.918,0.707,11.931,0.739,16.54h0.598h4.71h0.532
			C48.677,19.578,46.965,8.035,42.238,0H27.699L28.25,39.998L28.25,39.998z"/>
	</g>
</g>
</svg>
