<?xml version="1.0" encoding="utf-8"?>
<!-- Generator: Adobe Illustrator 16.0.0, SVG Export Plug-In . SVG Version: 6.00 Build 0)  -->
<!DOCTYPE svg PUBLIC "-//W3C//DTD SVG 1.1//EN" "http://www.w3.org/Graphics/SVG/1.1/DTD/svg11.dtd">
<svg version="1.1" id="Layer_1" xmlns="http://www.w3.org/2000/svg" xmlns:xlink="http://www.w3.org/1999/xlink" x="0px" y="0px"
	 width="117px" height="45px" viewBox="0 0 117 45" enable-background="new 0 0 117 45" xml:space="preserve">
<g>
	<path fill="#38418E" d="M99.866,6.634c-11.429-4.462-25.257-6.68-41.44-6.633C42.209,0.045,28.409,2.375,17.028,7.018
		C5.643,11.644-0.049,16.956,0,22.997c0.026,6.01,5.769,11.222,17.204,15.556C28.637,42.863,42.463,45.021,58.602,45
		c16.134-0.044,29.91-2.32,41.291-6.826C111.282,33.648,117,28.379,117,22.366C117.021,16.332,111.309,11.066,99.866,6.634z
		 M97.043,37.514c-10.598,4.318-23.43,6.492-38.441,6.539C43.568,44.074,30.7,42.01,20.048,37.872
		c-10.65-4.151-16-9.144-16.022-14.908C3.983,17.188,9.28,12.093,19.876,7.669c10.607-4.451,23.461-6.677,38.552-6.718
		c15.071-0.05,27.942,2.083,38.595,6.354c10.646,4.227,15.978,9.287,15.949,15.06C112.973,28.13,107.648,33.182,97.043,37.514z"/>
	<path fill="#38418E" d="M111.375,20.086c-0.334-1.423-0.993-2.699-1.896-3.84c-1.156-1.361-2.437-2.549-3.871-3.541
		c-1.84-1.247-3.775-2.326-5.813-3.227c-2.291-0.991-4.674-1.898-7.124-2.681c-2.815-0.868-5.675-1.654-8.579-2.286
		c-1.857-0.41-3.703-0.789-5.584-1.111C75.49,3.083,72.49,2.822,69.45,2.617c-3.539-0.199-7.144-0.349-10.762-0.402
		c-1.726,0-3.472,0.023-5.19,0.085c-1.858,0.118-3.686,0.288-5.535,0.466c-3.312,0.373-6.653,0.777-9.987,1.335
		C34.95,4.623,31.95,5.26,28.951,6.014c-2.659,0.736-5.272,1.537-7.879,2.535c-2.246,0.865-4.412,1.921-6.469,3.109
		c-1.753,0.995-3.363,2.162-4.904,3.523c-1.148,1.036-2.191,2.206-3.105,3.546C6.181,19.361,5.891,20,5.681,20.699
		c-0.152,0.677-0.205,1.367-0.205,2.03c0,0.669,0.079,1.311,0.226,1.955c0.189,0.721,0.506,1.394,0.919,1.941
		c0.938,1.37,2.013,2.566,3.185,3.579c1.544,1.366,3.182,2.497,4.928,3.47c2.065,1.191,4.252,2.145,6.497,2.928
		c2.611,0.992,5.242,1.83,7.883,2.5c3.017,0.756,6.042,1.357,9.045,1.83c3.357,0.547,6.708,0.959,10.021,1.282
		c1.845,0.138,3.67,0.261,5.496,0.323c5.379,0.143,10.702-0.045,15.991-0.534c3.004-0.25,6.026-0.578,9.03-1.009
		c1.871-0.301,3.755-0.669,5.576-1.137c2.899-0.642,5.746-1.424,8.555-2.354c2.428-0.76,4.795-1.685,7.098-2.79
		c2.03-0.953,3.967-2.121,5.797-3.429c1.404-0.989,2.678-2.188,3.805-3.604c0.914-1.08,1.541-2.359,1.908-3.791
		C111.738,22.65,111.716,21.377,111.375,20.086z M38.939,31.195c-0.913,0.988-1.93,1.789-3.002,2.438
		c-1.017,0.581-1.957,0.994-2.868,1.25c-0.94,0.291-1.933,0.205-2.979-0.17c-1.06-0.404-1.848-0.82-2.265-1.229
		c-0.447-0.424-0.863-0.978-1.277-1.709c-0.415-0.729-0.627-1.713-0.574-2.965c0.077-1.242,0.373-2.535,0.912-3.752
		c0.31-0.664,0.712-1.306,1.229-1.887c0.601-0.619,1.201-1.25,1.82-1.889l0.504-0.291l0.697,0.053l0.417,0.238l0.266,0.378
		c0.102,0.199,0.049,0.493-0.139,0.892c-0.544,0.619-1.086,1.228-1.639,1.806c-0.263,0.291-0.494,0.576-0.705,0.934
		c-0.201,0.288-0.386,0.604-0.518,0.957l-0.156,0.906l0.104,0.867c0.141,0.611,0.313,1.113,0.57,1.515
		c0.264,0.378,0.525,0.666,0.814,0.864c0.855,0.408,1.77,0.467,2.742,0.146c0.955-0.287,1.933-0.811,2.886-1.508
		c0.972-0.727,1.933-1.715,2.93-2.965c0.729-0.934,1.45-1.887,2.111-2.904c0.694-1.018,1.368-2.042,2.033-3.06
		c-0.316,0.156-0.628,0.302-0.996,0.417l-0.858,0.346L40.11,21.13l-0.837,0.264h-0.461l-0.245-0.264l0.399-0.83
		c0.854-0.422,1.694-0.816,2.523-1.197c0.445-0.206,0.861-0.361,1.286-0.464c0.491-0.124,0.983-0.237,1.465-0.349
		c1.216-1.517,2.413-2.916,3.646-4.277c1.356-1.49,2.742-2.934,4.171-4.395c-1.429-0.311-2.868-0.643-4.303-0.895
		C46.479,8.52,45.196,8.44,43.939,8.52c-1.162,0.059-2.312,0.261-3.438,0.678c-1.063,0.452-2.083,1.065-3.049,1.819
		c-0.601,0.501-1.069,1.167-1.436,1.983c-0.155,0.314-0.18,0.722-0.129,1.162c0.05,0.381,0.188,0.724,0.444,0.933
		c0.362,0.349,0.785,0.519,1.228,0.519c0.493,0,0.965-0.149,1.38-0.431c1.07-0.757,2.115-1.546,3.132-2.391h0.598
		c0.161,0.261,0.108,0.584-0.079,0.992c-0.495,0.962-1.099,1.892-1.748,2.737c-0.561,0.749-1.229,1.361-1.955,1.884
		c-0.729,0.496-1.487,0.701-2.293,0.724c-0.814,0.062-1.601-0.164-2.307-0.692c-0.567-0.463-0.983-1.076-1.25-1.862
		c-0.182-0.868-0.182-1.716,0-2.558c0.224-1.015,0.612-1.98,1.207-2.816c0.805-1.056,1.758-1.919,2.812-2.649
		c1.02-0.572,2.097-1.042,3.226-1.394c1.259-0.296,2.549-0.472,3.873-0.522c1.54-0.083,3.055-0.039,4.625,0.202
		c1.562,0.235,3.143,0.49,4.739,0.842c1.939,0.322,3.87,0.56,5.827,0.718c3.256,0.214,6.487,0.244,9.698,0.123
		c1.718-0.079,3.447-0.179,5.19-0.317l0.779,0.176l0.314,0.346c0.079,0.176,0,0.472-0.314,0.839
		c-0.701,0.753-1.516,1.311-2.373,1.719c-1.166,0.631-2.398,1.018-3.656,1.132c-1.609,0.185-3.28,0.185-4.979-0.029
		c-2.04-0.293-4.09-0.664-6.205-1.159c-1.152-0.352-2.332-0.701-3.53-1.085l-0.721,0.583c-0.971,0.962-1.938,1.98-2.845,2.996
		c-1.077,1.373-2.111,2.766-3.104,4.192c0.66-0.065,1.336-0.124,1.978-0.179c0.342,0,0.676,0,0.995,0.056
		c0.358,0,0.674,0.029,0.994,0.091c0.044-0.669,0.126-1.361,0.237-2.085l0.23-0.701c0.18-0.379,0.387-0.669,0.592-0.933l0.658-0.44
		l0.232-0.024l0.547,0.024l0.601,0.231l0.575,0.525l0.19,0.496l-0.059,0.701c-0.256,0.781-0.604,1.446-1.043,2.06
		c-0.186,0.352-0.475,0.613-0.831,0.813l0.075,0.378l0.208,0.179l0.133,0.352l-0.133,0.225l-0.208,0.265l-0.415,0.021l-0.28-0.105
		l-0.299-0.268l-0.236-0.431l-0.226-0.349c-0.444,0-0.917,0-1.361,0.018c-0.472,0.067-0.965,0.132-1.462,0.132
		c-0.439,0.047-0.853,0.111-1.298,0.164c-0.478,0.062-0.945,0.088-1.392,0.088c-1.637,3.033-3.363,5.99-5.246,8.912
		C40.636,29.277,39.848,30.295,38.939,31.195z M88.186,30.964c-0.908,1.067-1.955,2.021-3.104,2.843
		c-0.757,0.502-1.591,0.76-2.445,0.707c-0.656,0-1.279-0.232-1.832-0.676c-0.283-0.236-0.498-0.548-0.701-0.962l-1.438,1.054
		c-0.6,0.229-1.225,0.352-1.82,0.352c-0.938,0.08-1.753-0.215-2.48-0.76c-0.684-0.385-1.098-0.985-1.299-1.83
		c-0.215-0.881-0.299-1.775-0.215-2.768c-0.808,0.354-1.566,0.635-2.322,0.868c-0.596,0.185-1.25,0.185-1.904,0
		c-0.626-0.069-1.2-0.313-1.747-0.657l-0.474-0.352l-0.434-0.643l-0.189-0.789l-0.469,0.879c-1.125,2.147-2.271,4.328-3.5,6.517
		l-3.095,0.022c1.509-2.824,2.911-5.635,4.304-8.494c0.309-0.575,0.51-1.219,0.598-1.881v-0.703l-0.549-0.17
		c-0.42,0.289-0.815,0.613-1.223,0.953c-0.769,0.754-1.466,1.549-2.123,2.414c-0.957,1.191-1.923,2.389-2.893,3.514
		c-0.862,1.142-1.764,2.188-2.742,3.143c-0.516,0.473-1.087,0.814-1.641,1.082c-0.601,0.238-1.145,0.37-1.717,0.408
		c-0.579,0-1.153-0.094-1.716-0.323l-0.891-0.499L47.519,33.6l-0.554-0.838l-0.36-0.843l-0.466,0.349l-0.445,0.494l-0.542,0.375
		l-0.482,0.176l-0.516,0.149l-0.747-0.401c-0.165-0.418-0.108-0.767,0.203-1.115c0.544-0.584,1.06-1.159,1.586-1.801
		c0.498-0.699,0.943-1.455,1.283-2.242c0.311-0.577,0.586-1.155,0.858-1.674c0.346-0.705,0.762-1.309,1.225-1.801
		c0.554-0.646,1.178-1.189,1.885-1.661c0.754-0.496,1.536-0.971,2.369-1.373l0.778-0.264h0.261c0.311,0.123,0.554,0.323,0.639,0.666
		l0.023,0.451l-0.164,0.402l-0.244,0.378l-0.368,0.261l-0.146,0.08c-0.967,0.905-1.877,1.901-2.732,2.971
		c-0.577,0.702-0.941,1.509-1.122,2.409c-0.161,0.583-0.133,1.141,0.073,1.713c0.14,0.445,0.34,0.822,0.634,1.109
		c0.485,0.205,0.933,0.267,1.401,0.144c0.631-0.284,1.131-0.552,1.438-0.845l0.569-0.545c0.21-0.346,0.475-0.729,0.662-1.112
		c0.252-0.401,0.44-0.839,0.551-1.276c0.173-0.496,0.305-1.047,0.363-1.631c0.07-0.578,0.176-1.123,0.258-1.684
		c0.023-0.76,0.07-1.473,0.182-2.2l0.237-0.452l0.387-0.367H56.8h0.288l0.409,0.194l0.306,0.326l0.132,0.501l0.076,0.697
		l0.017,0.869v0.73v0.807c1.32-1.332,2.689-2.578,4.107-3.781c0.516-0.408,1.033-0.692,1.614-0.815
		c0.519-0.053,0.993,0.062,1.461,0.264c0.306,0.238,0.522,0.493,0.681,0.854c0.205,0.376,0.383,0.78,0.491,1.188
		c0.392-0.474,0.835-0.883,1.286-1.283l0.672-0.522c0.368-0.179,0.676-0.255,0.989-0.238c0.577-0.018,1.101,0.059,1.621,0.208
		c0.411,0.173,0.729,0.464,1.018,0.872c0.203,0.349,0.288,0.724,0.288,1.191c0,0.525-0.136,0.956-0.391,1.363l-0.735,0.849
		c-0.231,0.05-0.553,0.05-0.887-0.034l-0.817-0.455l-0.302-0.852v-0.432l-0.446-0.094h-0.313c-0.262,0.35-0.439,0.698-0.596,1.047
		c-0.16,0.379-0.209,0.783-0.16,1.17c0.16,0.644,0.467,1.068,0.914,1.273c0.601,0.402,1.278,0.475,2.006,0.236
		c0.779-0.17,1.516-0.5,2.191-1.02c0.475-0.294,0.879-0.644,1.303-1.019c0.395-0.349,0.789-0.728,1.145-1.111
		c0.768-0.702,1.561-1.351,2.457-1.966l0.621-0.446c0.164-0.111,0.471-0.231,0.882-0.381c0.427-0.194,0.944-0.258,1.497-0.194
		c0.576,0,1.039,0.111,1.355,0.258c0.34,0.235,0.625,0.5,0.84,0.79c0.31,0.284,0.539,0.59,0.744,0.93l5.244-8.639l3.498-0.015
		L83.23,30.402l-0.155,0.761v0.528l0.1,0.34l0.287,0.504c0.343,0.08,0.631,0.08,0.925,0c0.521-0.352,0.979-0.73,1.454-1.135
		c0.337-0.238,0.671-0.531,0.995-0.877l0.751-0.851l0.599-0.827c0.244-0.359,0.502-0.676,0.791-0.941l0.412-0.426l0.313,0.09
		l0.265,0.207l0.229,0.365C89.628,29.163,88.945,30.081,88.186,30.964z"/>
	<path fill="#38418E" d="M80.475,24.537c-0.223-0.114-0.511-0.141-0.902-0.098c-0.362-0.018-0.727,0.15-1.115,0.504l-0.508,0.449
		l-0.102,0.098l-0.24,0.311c-0.627,0.797-1.107,1.66-1.482,2.563c-0.234,0.591-0.404,1.207-0.505,1.816l0.171,0.678
		c0.217,0.338,0.514,0.562,0.844,0.664c0.346,0.078,0.688,0.078,1.004,0l0.771-0.385c0.6-0.701,1.162-1.463,1.672-2.258
		c0.438-0.664,0.747-1.361,0.911-2.048c0.206-0.701,0.176-1.291,0-1.772L80.475,24.537z"/>
	<path fill="#38418E" d="M54.463,15.842c0.25-1.191-2.386-2.095-1.611,1.619C52.852,17.461,54.206,17.03,54.463,15.842z"/>
</g>
</svg>
