<?xml version="1.0" encoding="utf-8"?>
<!-- Generator: Adobe Illustrator 16.0.0, SVG Export Plug-In . SVG Version: 6.00 Build 0)  -->
<!DOCTYPE svg PUBLIC "-//W3C//DTD SVG 1.1//EN" "http://www.w3.org/Graphics/SVG/1.1/DTD/svg11.dtd">
<svg version="1.1" id="Layer_1" xmlns="http://www.w3.org/2000/svg" xmlns:xlink="http://www.w3.org/1999/xlink" x="0px" y="0px"
	 width="134px" height="59px" viewBox="0 0 134 59" enable-background="new 0 0 134 59" xml:space="preserve">
<g>
	<path fill="#E11428" d="M91.738,55.374c0,0,1.984,0,4.291,0c2.529,0,3.916-1.949,3.916-4.604c0-2.301-1.209-4.605-3.87-4.605
		c-1.563,0-4.337,0-4.337,0V55.374z M82.591,43.086c0,0,12.429,0.004,15.789,0c3.688,0,8.032,1.48,8.032,7.348
		c0,6.367-3.971,8.021-8.032,8.021c-4.057,0-15.789,0-15.789,0v-3.075h3.015v-9.211h-3.015V43.086z"/>
	<path fill="#E11428" d="M35.558,50.773c0,3.795,2.322,5.145,5.135,5.145c2.855,0,5.133-1.393,5.133-5.145
		c0-3.797-2.322-5.144-5.133-5.144C37.834,45.631,35.558,47.066,35.558,50.773z M40.692,42.57c2.887,0,11.889,0.369,11.889,8.203
		c0,7.836-8.959,8.227-11.889,8.227c-2.932,0-11.932-0.348-11.932-8.227C28.761,43.01,37.804,42.57,40.692,42.57z"/>
	<polygon fill="#E11428" points="0,55.382 3.023,55.382 3.023,46.178 0,46.178 0,43.076 12.147,43.076 12.147,46.178 9.13,46.178 
		9.13,49.215 18.39,49.215 18.39,46.178 15.374,46.178 15.374,43.076 27.511,43.076 27.511,46.178 24.486,46.178 24.486,55.382 
		27.511,55.382 27.511,58.46 15.374,58.46 15.374,55.382 18.39,55.382 18.39,52.251 9.13,52.251 9.13,55.382 12.147,55.382 
		12.147,58.46 0,58.46 	"/>
	<polygon fill="#E11428" points="63.446,58.451 53.823,58.451 53.823,55.393 56.81,55.393 56.813,46.163 53.825,46.163 
		53.825,43.082 65.944,43.082 74.529,54.611 74.529,46.163 71.529,46.163 71.529,43.082 81.212,43.082 81.21,46.163 78.227,46.163 
		78.227,58.451 69.082,58.451 60.476,46.9 60.476,55.393 63.446,55.393 	"/>
	<path fill="#E11428" d="M121.208,50.33l-2.515-4.713l-2.508,4.713H121.208z M134,55.393v3.06h-13.128v-3.06h3.053l-1.174-2.186
		h-8.094l-1.157,2.186h3.025v3.06h-9.979v-3.06h3.013l5.264-9.229h-3.654v-3.081h12.707l7.141,12.311H134z"/>
	<path fill="#E11428" d="M65.129,22.125c-0.438,0-0.875,0.023-1.222,0.071c-1.646,0.219-2.263,0.649-2.84,1.741
		c-0.375,0.703-1.129,2.839-1.73,5.561c-1.264-0.046-2.483-0.105-3.537-0.175c-0.41-3.822-1.356-19.727-1.381-25.187
		c0.665-0.044,1.372-0.1,2.152-0.136c0.472,2.523,2.044,11.312,3.328,14.075c0.57,1.233,1.566,1.652,2.785,1.746
		c1.217,0.084,3.67,0.084,4.893,0c1.215-0.094,2.209-0.513,2.78-1.746C71.643,15.311,73.213,6.523,73.686,4
		c0.779,0.036,1.489,0.092,2.154,0.136c-0.025,5.46-0.969,21.364-1.385,25.187c-1.053,0.069-2.271,0.129-3.535,0.175
		c-0.604-2.722-1.355-4.857-1.73-5.561c-0.576-1.092-1.192-1.522-2.838-1.741C66.001,22.148,65.566,22.125,65.129,22.125z"/>
	<path fill="#E11428" d="M77.995,30.962c2.015-0.379,3.271-1.869,3.718-3.145c0.467-1.331,1.107-4.335,1.512-11.101
		c0.207-3.429,0.205-6.493-0.009-9.107c-0.25-3.131-1.827-4.715-5.146-5.09C75.174,2.191,68.637,2.04,65.13,2.04
		c-3.506,0-10.046,0.151-12.942,0.48c-3.318,0.375-4.895,1.959-5.148,5.09c-0.21,2.614-0.211,5.679-0.008,9.107
		c0.404,6.766,1.047,9.77,1.514,11.101c0.449,1.275,1.701,2.766,3.714,3.145c2.077,0.389,8.894,0.631,12.869,0.631
		C69.104,31.594,75.921,31.35,77.995,30.962z M65.129,33.629c-3.28,0-10.774-0.201-13.243-0.664
		c-2.622-0.494-4.392-1.999-5.26-4.473c-0.742-2.111-1.289-6.035-1.625-11.654c-0.211-3.521-0.207-6.684,0.009-9.392
		c0.372-4.609,2.5-6.447,6.949-6.953C54.933,0.159,61.576,0,65.129,0s10.198,0.159,13.167,0.493c4.45,0.506,6.579,2.344,6.949,6.953
		c0.219,2.708,0.221,5.871,0.012,9.392c-0.336,5.619-0.881,9.543-1.623,11.654c-0.87,2.474-2.638,3.979-5.264,4.473
		C75.906,33.428,68.408,33.629,65.129,33.629z"/>
</g>
</svg>
