<?xml version="1.0" encoding="utf-8"?>
<!-- Generator: Adobe Illustrator 16.0.0, SVG Export Plug-In . SVG Version: 6.00 Build 0)  -->
<!DOCTYPE svg PUBLIC "-//W3C//DTD SVG 1.1//EN" "http://www.w3.org/Graphics/SVG/1.1/DTD/svg11.dtd">
<svg version="1.1" id="Layer_1" xmlns="http://www.w3.org/2000/svg" xmlns:xlink="http://www.w3.org/1999/xlink" x="0px" y="0px"
	 width="128px" height="60px" viewBox="0 0 128 60" enable-background="new 0 0 128 60" xml:space="preserve">
<g>
	<polygon fill="#085195" points="0,44.252 4.954,44.252 4.954,49.697 13.806,49.697 13.806,44.252 18.698,44.252 18.698,59.536 
		13.806,59.536 13.806,53.102 4.891,53.102 4.891,59.475 0,59.475 	"/>
	<polygon fill="#085195" points="19.255,44.252 24.083,44.252 29.16,50.131 34.175,44.252 38.941,44.252 31.574,53.596 
		31.574,59.536 26.684,59.536 26.684,53.163 	"/>
	<path fill="#085195" d="M39.562,44.252h4.891V56.07h7.862c1.239,0,2.043-1.235,2.043-2.536v-9.282h4.891v12.191
		c0,1.916-2.167,3.031-3.404,3.031H39.562V44.252L39.562,44.252z"/>
	<path fill="#085195" d="M60.301,44.252h16.283c1.919,0,3.467,1.174,3.467,3.559v11.694l-4.891,0.031v-9.282
		c0-1.297-0.434-2.07-2.104-2.07h-7.367V59.57h-5.389V44.252L60.301,44.252z"/>
	<path fill="#085195" d="M81.537,44.252h14.236c2.851,0,5.047,2.289,5.047,4.053v7.023c-0.03,1.236-1.764,4.208-3.93,4.208H81.537
		V44.252L81.537,44.252z M86.521,56.134h7.515c1.082,0,1.919-0.806,1.919-1.796v-4.455c0-1.084-0.891-1.73-2.034-1.73h-7.399V56.134
		L86.521,56.134z"/>
	<path fill="#085195" d="M106.859,44.188h15.261v15.35h-5.45v-3.959h-9.38v3.959h-5.509v-9.965
		C101.657,46.23,104.63,44.188,106.859,44.188L106.859,44.188z M107.229,49.639v2.473h9.412v-3.9h-7.927
		C107.786,48.21,107.229,48.77,107.229,49.639L107.229,49.639z"/>
	<polygon fill="#085195" points="123.107,44.223 128,44.223 128,60 123.107,60 	"/>
	<path fill="#085195" d="M64.298,0C44.002,0,27.55,8.121,27.55,18.135c0,10.015,16.452,18.136,36.748,18.136
		c20.293,0,36.748-8.122,36.748-18.136C101.046,8.121,84.591,0,64.298,0L64.298,0z M60.812,4.036c4.194-1.481,16.655,0,21.497,2.323
		c1.549,1.486-6.91,6.257-16.978,8.325C50.936,17.587,57.777,6.488,60.812,4.036L60.812,4.036z M36.088,25.524
		c-3.163-2.255-9.361-8.711,0.904-15.421c5.423-3.161,8.457-3.874,12.198-4.647c1.81-0.388,3.1,0.065,1.486,1.421
		c-3.421,3.549-10.521,15.292-11.168,17.874C38.992,26.494,37.961,26.943,36.088,25.524L36.088,25.524z M65.652,33.012
		c-6.067,0.643-19.558-1.357-19.816-3.097c0.259-4.197,21.432-11.166,25.239-7.294C72.688,25.654,69.591,32.816,65.652,33.012
		L65.652,33.012z M96.51,20.813c-1.552,3.55-6.779,7.552-17.752,10.264c-1.681,0.384-2.261-0.647-1.164-1.616
		c1.809-1.096,10.523-15.678,11.621-18.583c0.646-1.486,1.872-0.903,2.646-0.324C95.348,12.811,97.994,16.489,96.51,20.813
		L96.51,20.813z"/>
</g>
</svg>
