<?xml version="1.0" encoding="utf-8"?>
<!-- Generator: Adobe Illustrator 17.0.0, SVG Export Plug-In . SVG Version: 6.00 Build 0)  -->
<!DOCTYPE svg PUBLIC "-//W3C//DTD SVG 1.1//EN" "http://www.w3.org/Graphics/SVG/1.1/DTD/svg11.dtd">
<svg version="1.1" id="Layer_1" xmlns="http://www.w3.org/2000/svg" xmlns:xlink="http://www.w3.org/1999/xlink" x="0px" y="0px"
	 width="175px" height="87.631px" viewBox="0 0 175 87.631" enable-background="new 0 0 175 87.631" xml:space="preserve">
<g>
	<polygon fill-rule="evenodd" clip-rule="evenodd" points="49.722,87.557 49.722,78.384 54.579,78.384 54.579,79.729 51.435,79.729 
		51.435,82.053 54.383,82.053 54.383,83.4 51.435,83.4 51.435,87.557 49.722,87.557 49.722,87.557 49.722,87.557 	"/>
	<polygon fill-rule="evenodd" clip-rule="evenodd" points="125.25,87.631 125.25,78.457 126.962,78.457 126.962,87.631 
		125.25,87.631 125.25,87.631 125.25,87.631 	"/>
	<polygon fill-rule="evenodd" clip-rule="evenodd" points="147.488,78.41 153.201,78.41 153.201,79.756 151.208,79.756 
		151.208,87.584 149.494,87.584 149.494,79.756 147.488,79.756 147.488,78.41 147.488,78.41 147.488,78.41 	"/>
	<polygon fill-rule="evenodd" clip-rule="evenodd" points="0,87.631 0,78.457 1.713,78.457 1.713,87.631 0,87.631 0,87.631 
		0,87.631 	"/>
	<polygon fill-rule="evenodd" clip-rule="evenodd" points="102.519,78.375 103.988,78.375 103.988,87.549 101.997,87.549 
		99.609,80.638 99.609,87.549 98.179,87.549 98.179,78.375 100.186,78.375 102.534,85.36 102.508,85.36 102.519,78.375 
		102.519,78.375 102.519,78.375 	"/>
	<polygon fill-rule="evenodd" clip-rule="evenodd" points="173.288,87.631 173.288,78.457 175,78.457 175,87.631 173.288,87.631 
		173.288,87.631 173.288,87.631 	"/>
	<polygon fill-rule="evenodd" clip-rule="evenodd" points="75.108,87.631 75.108,78.457 76.82,78.457 76.82,87.631 75.108,87.631 
		75.108,87.631 75.108,87.631 	"/>
	<polygon fill-rule="evenodd" clip-rule="evenodd" points="27.124,78.375 28.593,78.375 28.593,87.549 26.6,87.549 24.213,80.638 
		24.213,87.549 22.782,87.549 22.782,78.375 24.79,78.375 27.138,85.36 27.113,85.36 27.124,78.375 27.124,78.375 27.124,78.375 	
		"/>
	<path fill-rule="evenodd" clip-rule="evenodd" d="M87.485,0C50.562,0,20.629,15.092,20.629,33.705
		c0,15.071,19.627,27.833,46.697,32.145l0,0l20.159-48.151l20.158,48.151l0,0c27.073-4.312,46.698-17.074,46.698-32.145
		C154.341,15.092,124.41,0,87.485,0L87.485,0L87.485,0L87.485,0L87.485,0z M118.185,50.622l-30.7-35.652L56.9,50.522l0,0
		c-15.061-4.205-24.988-11.565-24.988-20.612c0-14.35,24.692-27.806,55.516-27.806c30.824,0,56.107,13.456,56.107,27.806
		C143.534,39.028,133.449,46.434,118.185,50.622L118.185,50.622L118.185,50.622L118.185,50.622L118.185,50.622z"/>
</g>
</svg>
