<?xml version="1.0" encoding="utf-8"?>
<!-- Generator: Adobe Illustrator 17.0.0, SVG Export Plug-In . SVG Version: 6.00 Build 0)  -->
<!DOCTYPE svg PUBLIC "-//W3C//DTD SVG 1.1//EN" "http://www.w3.org/Graphics/SVG/1.1/DTD/svg11.dtd">
<svg version="1.1" id="Layer_1" xmlns="http://www.w3.org/2000/svg" xmlns:xlink="http://www.w3.org/1999/xlink" x="0px" y="0px"
	 width="150px" height="25.058px" viewBox="0 0 150 25.058" enable-background="new 0 0 150 25.058" xml:space="preserve">
<g>
	<path fill-rule="evenodd" clip-rule="evenodd" fill="#E30613" d="M7.529,23.685c0,0.864-0.406,1.322-1.312,1.322l-4.895-0.002
		C0.44,25.005,0,24.573,0,23.696V1.32c0-0.877,0.418-1.316,1.322-1.316h4.885c0.884,0,1.322,0.418,1.322,1.316V23.685L7.529,23.685z
		"/>
	<path fill-rule="evenodd" clip-rule="evenodd" fill="#E30613" d="M14.396,23.685l-0.001-2.979c0-0.895,0.433-1.316,1.324-1.316
		c0,0,20.689,0,21.263,0c0.386,0,0.576-0.139,0.662-0.398c0.078-0.234,0.017-0.616-0.475-0.774
		c-0.494-0.162-17.209-5.47-17.921-5.709c-3.486-1.176-4.799-3.397-4.799-6.115c0-3.439,2.312-6.388,7.685-6.388
		c5.509,0,19.393,0,19.393,0c0.913,0,1.31,0.439,1.31,1.319l-0.001,3.075c0,0.908-0.418,1.312-1.295,1.312
		c0,0-18.688-0.009-19.155-0.009c-0.423,0-0.631,0.109-0.695,0.349c-0.068,0.247-0.054,0.596,0.456,0.753
		c0.642,0.196,14.641,4.626,17.219,5.462c3.974,1.286,5.466,3.13,5.466,6.59c0,4.132-2.846,6.084-7.731,6.151
		c-1.842,0.025-21.371,0.003-21.371,0.003C14.795,25.008,14.396,24.65,14.396,23.685L14.396,23.685z"/>
	<path fill-rule="evenodd" clip-rule="evenodd" fill="#E30613" d="M56.956,0.004c0.881,0,1.315,0.406,1.315,1.306
		c0,0,0.001,11.832,0.001,14.183c0,2.352,0.574,3.74,3.792,3.845c0.744,0.026,1.895,0.038,2.886,0.038
		c0.99,0,2.364-0.012,3.108-0.038c3.218-0.105,3.57-1.493,3.571-3.845c0-2.351,0.002-14.183,0.002-14.183
		c0-0.888,0.383-1.31,1.318-1.31l4.962,0.004c0.908,0,1.306,0.428,1.306,1.316c0,0,0,12.518,0,15.365
		c0,4.125-0.686,8.165-8.545,8.298c-2.702,0.045-5.721,0.075-5.721,0.075s-3.212-0.044-5.914-0.075
		c-7.415-0.089-8.307-4.352-8.307-8.298c0-2.847-0.004-15.375-0.004-15.375c0-0.878,0.395-1.306,1.301-1.306H56.956L56.956,0.004z"
		/>
	<path fill-rule="evenodd" clip-rule="evenodd" fill="#E30613" d="M127.741,0.004c0.88,0,1.313,0.406,1.313,1.306
		c0,0,0.001,11.832,0.001,14.183c0,2.352,0.574,3.74,3.792,3.845c0.745,0.026,1.896,0.038,2.886,0.038s2.364-0.012,3.109-0.038
		c3.217-0.105,3.569-1.493,3.569-3.845c0-2.351,0.003-14.183,0.003-14.183c0-0.888,0.383-1.31,1.317-1.31l4.963,0.004
		c0.909,0,1.306,0.428,1.306,1.316c0,0-0.001,12.518-0.001,15.365c0,4.125-0.685,8.165-8.545,8.298
		c-2.702,0.045-5.721,0.075-5.721,0.075s-3.212-0.044-5.914-0.075c-7.416-0.089-8.308-4.352-8.308-8.298
		c0-2.847-0.004-15.375-0.004-15.375c0-0.878,0.395-1.306,1.302-1.306H127.741L127.741,0.004z"/>
	<path fill-rule="evenodd" clip-rule="evenodd" fill="#E30613" d="M115.539,23.684c0,0.966-0.399,1.324-1.331,1.324
		c0,0-19.529,0.022-21.371-0.003c-4.885-0.067-7.732-2.019-7.732-6.151c0-3.46,1.492-5.303,5.466-6.59
		c2.578-0.835,16.577-5.266,17.218-5.462c0.51-0.157,0.525-0.506,0.456-0.753c-0.065-0.24-0.272-0.349-0.695-0.349
		c-0.468,0-19.155,0.009-19.155,0.009c-0.878,0-1.295-0.405-1.295-1.312l-0.002-3.075c0-0.879,0.398-1.319,1.31-1.319
		c0,0,13.884,0,19.393,0c5.373,0,7.685,2.95,7.685,6.388c0,2.718-1.313,4.94-4.8,6.115c-0.711,0.239-17.426,5.547-17.92,5.709
		c-0.492,0.159-0.554,0.541-0.476,0.774c0.087,0.259,0.277,0.398,0.662,0.398c0.574,0,21.264,0,21.264,0
		c0.889,0,1.324,0.421,1.324,1.316L115.539,23.684L115.539,23.684z"/>
</g>
</svg>
