<?xml version="1.0" encoding="utf-8"?>
<!-- Generator: Adobe Illustrator 17.0.0, SVG Export Plug-In . SVG Version: 6.00 Build 0)  -->
<!DOCTYPE svg PUBLIC "-//W3C//DTD SVG 1.1//EN" "http://www.w3.org/Graphics/SVG/1.1/DTD/svg11.dtd">
<svg version="1.1" id="Layer_1" xmlns="http://www.w3.org/2000/svg" xmlns:xlink="http://www.w3.org/1999/xlink" x="0px" y="0px"
	 width="175px" height="38.554px" viewBox="0 0 175 38.554" enable-background="new 0 0 175 38.554" xml:space="preserve">
<g>
	<path fill-rule="evenodd" clip-rule="evenodd" fill="#103578" d="M154.692,9.202c2.856,0.159,4.918,2.221,5.236,4.918
		c0.159,1.428,0.159,3.649,0.159,5.077c0,1.745,0,3.173-0.159,4.601c-0.476,3.332-2.856,5.236-5.236,5.236h-1.904h-2.221
		c-2.221,0-4.76-1.904-5.236-5.236c-0.159-1.427-0.159-2.856-0.159-4.442c0-1.587,0-3.808,0.159-5.236
		c0.317-2.697,2.538-4.76,5.394-4.918c0.635-0.159,1.111-0.159,1.904-0.159L154.692,9.202L154.692,9.202z M153.105,0
		c3.014,0,5.87,0.159,8.25,0.476c6.664,0.793,12.058,6.029,13.169,12.534c0.159,1.111,0.476,3.649,0.476,6.188
		c0,2.697-0.317,5.236-0.476,6.188c-1.111,6.664-6.505,11.741-13.169,12.693c-2.38,0.159-5.236,0.476-8.25,0.476h-0.952
		c-3.173,0-5.87-0.317-8.409-0.476c-6.664-0.952-11.899-6.029-13.01-12.693c-0.159-0.952-0.476-3.49-0.476-6.188
		c0-2.538,0.317-5.077,0.476-6.188c1.111-6.505,6.346-11.741,13.01-12.534C146.283,0.159,148.98,0,151.994,0H153.105L153.105,0z"/>
	<path fill-rule="evenodd" clip-rule="evenodd" fill="#103578" d="M95.829,19.198c0-2.063,0.159-4.125,0.635-6.188
		c1.111-6.505,6.346-11.741,13.01-12.534C111.854,0.159,114.71,0,117.724,0c3.332,0,6.346,0.159,8.885,0.476
		c0.952,0.159,1.587,0.952,1.587,1.904v5.711c0,1.111-0.793,1.904-1.745,1.904c0,0-3.015-0.159-4.601-0.159
		c-1.903,0-3.49,0-5.236,0.159c-2.856,0.159-4.918,2.221-5.236,4.918c-0.159,1.428-0.318,2.856-0.318,4.284v0.159
		c0,1.428,0.159,2.856,0.318,4.283c0.317,2.697,2.221,4.76,5.236,5.077c1.587,0.159,3.491,0.317,5.236,0.317
		c1.587,0,4.601-0.159,4.601-0.159c0.952,0,1.745,0.793,1.745,1.904v5.712c0,0.952-0.635,1.745-1.587,1.904
		c-2.538,0-5.553,0.159-8.885,0.159c-3.014,0-5.87-0.317-8.25-0.476c-6.664-0.952-11.899-6.029-13.01-12.693
		c-0.476-1.904-0.635-3.966-0.635-6.029C95.829,12.851,95.829,25.703,95.829,19.198L95.829,19.198z"/>
	<path fill-rule="evenodd" clip-rule="evenodd" fill="#103578" d="M91.546,28.559c1.11,0,1.904,0.952,1.904,1.904v5.712
		c0,1.111-0.794,1.904-1.904,1.904H68.858c-4.125,0-7.457-3.332-7.457-7.457V8.092c0-4.125,3.332-7.457,7.457-7.457h22.688
		c1.11,0,1.904,0.793,1.904,1.746v5.553c0,1.111-0.794,1.904-1.904,1.904H77.584c-1.111,0-1.904,0.635-1.904,1.746v3.49
		l11.899-0.159c0.952,0,1.904,0.952,1.904,1.904v4.76c0,1.11-0.952,1.903-1.904,1.903H75.68v3.173c0,1.111,0.793,1.904,1.904,1.904
		H91.546L91.546,28.559z"/>
	<path fill-rule="evenodd" clip-rule="evenodd" fill="#103578" d="M33.794,38.078c-3.332,0-6.188-2.221-7.14-5.236L18.88,2.856
		c0-0.159,0-0.317,0-0.476c0-0.952,0.793-1.746,1.904-1.746h11.582c0.952,0,1.745,0.635,1.903,1.428l6.029,25.068
		c0,0.317,0.317,0.635,0.794,0.635c0.317,0,0.634-0.317,0.634-0.635l6.188-25.068c0.159-0.793,0.952-1.428,1.745-1.428h6.505
		c1.111,0,1.904,0.793,1.904,1.746c0,0.159,0,0.317,0,0.476l-7.457,29.352c-0.793,3.332-3.49,5.87-7.298,5.87H33.794L33.794,38.078z
		"/>
	<path fill-rule="evenodd" clip-rule="evenodd" fill="#103578" d="M1.904,0.635h11.265c1.111,0,1.904,0.793,1.904,1.746v33.794
		c0,1.111-0.793,1.904-1.904,1.904H1.904C0.952,38.078,0,37.285,0,36.174V2.38C0,1.428,0.952,0.635,1.904,0.635L1.904,0.635z"/>
</g>
</svg>
