<?xml version="1.0" encoding="utf-8"?>
<!-- Generator: Adobe Illustrator 16.0.0, SVG Export Plug-In . SVG Version: 6.00 Build 0)  -->
<!DOCTYPE svg PUBLIC "-//W3C//DTD SVG 1.1//EN" "http://www.w3.org/Graphics/SVG/1.1/DTD/svg11.dtd">
<svg version="1.1" id="Layer_1" xmlns="http://www.w3.org/2000/svg" xmlns:xlink="http://www.w3.org/1999/xlink" x="0px" y="0px"
	 width="156px" height="70px" viewBox="0 0 156 70" enable-background="new 0 0 156 70" xml:space="preserve">
<g>
	<path fill="#231F20" d="M29.426,3.824c0.133,0.004,0.283,0.008,0.46,0.012c0.721,0.012,1.531-0.285,2.07-0.537
		c0.385-0.18,0.635-0.336,0.602-0.336c-0.499-0.006-1.299-0.012-1.598-0.012c-1.299,0-1.98,0.734-1.986,0.801
		C28.969,3.797,29.148,3.813,29.426,3.824z M150.152,38.471c-0.738-1.641-2.772-1.107-2.772-1.107
		c-0.961,0.201-2.056,1.302-3.687,1.781c-3.5,1.035-6.293-0.168-6.293-0.168c-5.389-2.326-22.709-12.227-31.517-16.553
		c0,0-10.103-5.059-24.952-10.928c0,0-28.727-12.605-48.782-11.416c0,0-10.396,0.459-13.648,5.178c0,0-0.556,0.629-0.24,1.311
		c0,0,0.062,0.195-0.068,0.326c0,0-1.747,1.564-2.638,2.955c-0.313,0.504-0.659,1.354-0.019,1.947c0,0,0.289,0.225,0.41,0.422
		c0.254,0.412,0.489,1.029,0.804,1.396c0.453,0.541,1.371,1.477,2.665,1.252c0.477-0.082,0.58-0.262,0.58-0.262
		c0.646,0.643,1.698,0.621,1.698,0.621c-0.134-0.41-0.582-1.217-0.647-1.703c-0.069-0.537,0.088-1.051,0.088-1.051
		c0.182-0.607,0.544-1.375,0.944-1.762c0.351-0.348,1.246-0.744,1.969-0.244c0.577,0.406,1.265,1.734,0.69,3.633
		c-0.024,0.143-0.655,1.488-1.331,1.691c0,0-0.064,0.02-0.193,0.02c-0.455,0-1.303-0.475-1.303-0.475s-0.022,0.121,0.099,0.613
		c0.075,0.281,0.175,0.586,0.255,0.826c0,0-0.164,0.293-0.27,0.465c-0.164,0.293-0.302,0.854,0.048,1.107
		c0,0,1.499,1.018,2.956,1.107c1.003,0.061,1.383-0.615,1.383-0.615c0.737-1.016,1.295-1.881,2.073-2.588
		c2.127-1.947,5.115-2.469,5.115-2.469c0.198-0.027,3.462-0.934,9.008,3.496c-1.585,0.127-3.47,0.506-4.909,0.76
		c-4.11,0.732-6.746,4.604-7.514,6.178c-1.997,4.109,2.085,5.527,2.085,5.527c0.038-0.039,3.892-0.342,5.753-4.432
		c0,0,0.682-1.813,2.491-1.225c1.181,0.381,11.636,4.031,13.989,4.648c0,0,6.999,1.82,9.636-1.395
		c4.214,1.381,8.167,2.049,18.526,0.713c1.799-0.232,3.213-0.18,3.213-0.18c2.42,0.182,4.629,1.807,5.299,2.875
		c2.724,4.354,6.18,13.002,18.176,11.949l5.427-0.492c3.312-0.197,6.007-0.326,8.739,1.113c1.191,0.623,1.854,0.852,3.873,2.777
		c2.765,2.625,5.309,5.467,8.689,3.915c1.2-0.553,2.549-2.692,2.549-2.692c-0.131-0.978-0.565-1.918-1.643-2.721
		c3.072,0.729,10.005,1.202,12.688-3.48C150.339,40.029,150.415,39.057,150.152,38.471z M32.204,0.959
		c19.61-1.16,48.089,11.217,48.366,11.344l0.02,0.004l0.016,0.004c2.387,0.947,4.653,1.875,6.777,2.76
		c-0.501-0.197-3.087-1.225-3.091-1.225c-4.163-1.65-11.817-4.164-11.882-4.186C62.374,6.203,57.987,5.592,57.675,5.553
		c-1.188-0.193-1.642-0.244-1.66-0.246L54.206,5.1c0,0,0.992,1.604,0.999,1.613C48.121,1.709,39.64,1.457,39.224,1.447h-0.019
		c-1.708,0-3.2,0.484-4.357,1.041c0.133-0.244,0.577-1.074,0.577-1.074l-1.403-0.063c-2.511-0.113-4.451-0.025-5.855,0.113
		C30.41,1.049,32.157,0.959,32.204,0.959z M15.932,10.254c1.151-1.693,2.652-2.969,2.668-2.982c0.021-0.018,0.044-0.035,0.057-0.055
		c0.021-0.021,0.039-0.045,0.063-0.066c0.09,0.105,0.208,0.213,0.365,0.301C18.211,7.822,15.932,10.254,15.932,10.254z M24.55,9.742
		c-0.526-0.367-1.115-0.439-1.648-0.354c0.236-0.174,0.609-0.197,0.609-0.197c0.246-0.027,1.413-0.074,1.953,1.75
		C25.234,10.42,24.919,10,24.55,9.742z M149.059,40.678c-0.263,0.91-1.562,2.123-3.139,2.82c-1.656,0.74-5.113,0.936-7.111,0.609
		c-0.004,0-3.871-0.392-7.259-3.928c-1.067-1.113-2.382-2.38-3.596-3.63c-0.534-0.56-1.849-1.869-4.032-2.16
		c-2.275-0.307-7.831-0.459-9.92-1.15c-1.396-0.465-3.081-1.41-5.32-4.723c-1.08-1.586-1.846-2.021-3.313-2.953
		c0,0,1.126,0.895,1.764,2.021c0.919,1.637,1.384,2.828,1.884,3.699c0.502,0.877,1.068,1.654,1.922,2.34
		c1.063,0.852,1.727,1.012,2.877,1.201c1.102,0.184,4.82,0.15,8.011,0.104c3.139-0.051,4.54,0.961,5.569,1.83
		c0.957,0.802,2.592,3.097,3.598,4.104c1.199,1.189,2.078,2.408,4.449,3.603c0.822,0.421,2.168,1.44,2.101,2.429
		c-1.065,1.065-2.39,1.346-5.563,0.5c0.226,0.219,1.888,1.961,4.729,1.137c-0.858,0.715-1.698,1.021-2.576,0.975
		c-2.975-0.166-5.889-3.826-7.522-5.178c-1.241-1.025-1.385-1.283-3.493-2.74c-3.203-2.215-10.39-1.59-10.39-1.59l-5.273,0.273
		C97.182,41.046,92.867,31.96,91.73,30.064c-0.396-0.658-0.754-1.188-1.095-1.619c-0.522-0.697-3.331-4.334-6.168-5.527
		c0,0,2.789,2.396,2.623,3.98c0,0-1.155-0.535-4.299-0.086c-13.531,1.926-18.136-1.457-18.136-1.457
		c0.628-2.707-1.266-5.486-1.266-5.486c1.044,0.33,7.696,2.576,14.015,1.295c0,0-10.282,0.055-17.49-5.688
		c0,0,4.486,5.613,3.421,9.287c0,0-0.735,3.918-8.557,2.338c-0.835-0.164-1.817-0.443-13.522-3.688
		c-2.752-0.822-3.702,0.49-4.197,1.279c-0.022,1.156-1.386,2.504-2.073,2.926c-3.622-0.65-2.179-4.008-2.179-4.008
		c-2.279,3.258,0.107,4.693,0.864,4.797c-0.452,0.221-0.881,0.379-1.243,0.512c0,0-2.96-1.76-1.307-4.646
		c2.308-4.02,4.657-5.309,8.966-5.703c1.885-0.18,3.455-0.313,4.651-0.15c3.126,0.432,5.084,2.193,9.765,2.648
		c-9.936-2.922-9.957-8.668-9.99-8.777l-0.005-0.01c-0.55,1.896-0.247,3.492,0.238,4.842c-0.139-0.049-2.31-1.475-3.138-1.979
		c-3.567-2.174-6.383-2.553-6.383-2.553c-1.183-0.15-1.734-1.586-1.734-1.586c-0.04-0.074-0.084-0.141-0.125-0.211
		c-1.645-2.805-3.271-2.859-3.271-2.859c0.581,0.789,0.801,1.793,0.884,2.418c0.048,0.361,0.093,1.02,0.092,1.219
		c-0.029,2.996-3.505,3.939-3.505,3.939c-2.423,3.07-2.296,3.133-2.836,3.213c-0.542,0.076-1.722-0.525-1.722-0.525
		c-0.092-0.049-0.117-0.182-0.102-0.271c0.03-0.184,0.182-0.303,0.182-0.303c0.453-0.359,0.824-0.717,0.824-0.717
		c2.561-2.613,2.868-3.891,2.552-5.586c-0.647-3.398-3.081-3.004-3.081-3.004c-1.185,0.113-1.66,1.088-1.66,1.088
		c-0.407,0.627-1.269,2.545-1.269,2.545c-0.528,1.143-1.067,1.4-1.348,1.451c-0.122,0.021-0.347,0.018-0.421,0.016
		c-0.823-0.027-1.449-0.787-1.449-0.787c-0.038-0.039-0.074-0.08-0.102-0.113c-0.754-0.807-0.208-1.861-0.208-1.861
		c1.015-2.361,2.984-2.703,3.251-2.736c0.276-0.035,1.183-0.166,1.183-0.166c2.503-0.422,3.685-3.023,3.685-3.023
		c-1.688-0.021-2.512,0.09-2.512,0.09c-1.66,0.291-2.225,2.242-2.225,2.24c-1.406,0.32-1.37-0.885-1.123-1.254
		c0.221-0.34,1.047-1.787,6.444-3.035c0,0,2.662-0.799,8.352-0.541c0,0,0,0-0.234,0.434c-0.503,0.951-2.499,2.91-5.796,2.184
		c0,0,0.029,1.463,3.604,1.986c0,0,3.235,0.578,8.721,4.979c0,0-2.624-5.203-7.075-6.549c0,0-0.556-0.119-0.285-0.467
		c0,0,2.633-2.469,6.288-2.467c0,0,11.405,0.244,18.647,7.811c0,0-0.317-1.316-1.458-3.182c0,0,0,0-0.479-0.775
		c0,0,0.435,0.049,1.625,0.244c0,0,4.354,0.541,14.579,4.068c0,0,7.66,2.512,11.854,4.172c6.301,2.506,22.09,8.613,32.153,14.094
		c1.799,0.977,20.003,10.455,20.003,10.455c5.041,2.262,8.53,0.885,8.53,0.885c1.136-0.428,3.192-2.008,4.093-1.115
		C149.219,39.449,149.279,40.07,149.059,40.678z M20.851,7.018c0,0,0.108-0.313,0.137-0.389c0.031-0.076,0.329-0.893,1.072-0.971
		c0,0,0.431-0.027,1.094-0.027c0,0-0.324,1.043-1.601,1.268C21.553,6.898,21.052,7.012,20.851,7.018z M32.95,6.111
		c1.061,0.32,2.01,0.895,2.84,1.566c-2.528-1.414-3.983-1.699-4.077-1.715L31.687,5.96c-0.399-0.06-0.727-0.13-1.026-0.204
		c0.489-0.102,0.944-0.254,1.357-0.443c0.001,0.01,0.001,0.018,0.001,0.025C32.212,5.863,32.724,6.049,32.95,6.111z"/>
</g>
<path id="FS_Master_Logo" fill="#084634" d="M28.216,65.354h10.919l-5.468-6.338L28.216,65.354z M40.515,66.955H26.841l-2.267,2.635
	h-2.675l10.754-12.379H37.2L47.964,69.59h-5.175L40.515,66.955z M108.939,65.354h10.918l-5.467-6.338L108.939,65.354z
	 M121.238,66.955h-13.676l-2.266,2.635h-2.676l10.754-12.379h4.549l10.762,12.379h-5.176L121.238,66.955z M19.793,57.211v6.037
	c0,1.953-0.449,3.139-1.378,4.088c-1.623,1.656-4.732,2.254-9.135,2.254H0v-1.66h8.544c2.621,0,4.393-0.434,5.461-1.488
	c0.809-0.797,1.173-1.91,1.173-3.563v-5.668H19.793z M68.052,67.936v-4.029h4.594v5.685H59.289c-2.504,0-4.477-0.291-5.966-0.889
	c-2.481-1-3.616-2.828-3.616-5.322c0-2.356,1.235-3.991,2.809-4.873c1.672-0.937,3.556-1.295,6.693-1.295h12.966v1.651H60.646
	c-2.471,0-3.816,0.375-4.842,1.207c-0.912,0.74-1.397,1.849-1.397,3.33c0,1.533,0.51,2.664,1.485,3.406
	c1.027,0.781,2.413,1.129,4.792,1.129H68.052z M148.736,65.219c1.734-0.059,3.205-0.318,4.338-0.928
	c1.175-0.633,1.734-1.826,1.734-3.063c0-1.654-0.74-2.713-2.088-3.308c-1.199-0.526-2.681-0.709-5.629-0.709h-14.31v12.379h4.616
	v-4.288h6.063l6.915,4.288H156L148.736,65.219z M146.491,58.773c1.729,0,2.495,0.16,3.022,0.553c0.5,0.375,0.678,0.945,0.678,1.834
	v0.232c0,0.803-0.19,1.453-0.779,1.86c-0.578,0.399-1.391,0.487-2.864,0.487H137.4v-4.969h9.091V58.773z M100.589,57.211v6.17
	c0,1.598-0.176,2.859-0.981,3.914C98.296,69.014,95.893,70,89.186,70h-0.069c-6.671,0-9.089-0.988-10.396-2.703
	c-0.808-1.057-0.98-2.318-0.98-3.916v-6.168h4.613v5.992c0,1.607,0.203,2.555,0.795,3.385c0.996,1.404,2.722,1.908,5.818,1.908
	h0.393c3.242,0,4.822-0.504,5.822-1.91c0.59-0.832,0.793-1.818,0.793-3.379v-5.998H100.589z"/>
</svg>
