<?xml version="1.0" encoding="utf-8"?>
<!-- Generator: Adobe Illustrator 16.0.0, SVG Export Plug-In . SVG Version: 6.00 Build 0)  -->
<!DOCTYPE svg PUBLIC "-//W3C//DTD SVG 1.1//EN" "http://www.w3.org/Graphics/SVG/1.1/DTD/svg11.dtd">
<svg version="1.1" id="Layer_1" xmlns="http://www.w3.org/2000/svg" xmlns:xlink="http://www.w3.org/1999/xlink" x="0px" y="0px"
	 width="100px" height="40px" viewBox="0 0 100 40" enable-background="new 0 0 100 40" xml:space="preserve">
<g>
	<path fill="#485F2B" d="M17.313,21.531c0,2.801-1.847,4.464-4.834,4.464s-4.57-2.188-4.57-4.552c0-2.364,0-3.853,0-3.853H0v3.94
		c0,4.025,1.23,11.203,12.567,11.203c11.334,0,12.917-7.703,12.917-11.381c0-3.674,0-21.354,0-21.354h-8.172
		C17.313,0,17.313,18.73,17.313,21.531z"/>
	<path fill="#485F2B" d="M97.646,35.154c-0.988,0-1.791,0.801-1.791,1.781c0,0.479,0.186,0.926,0.522,1.262
		c0.339,0.338,0.788,0.521,1.269,0.521c0.475,0,0.926-0.185,1.265-0.521c0.336-0.336,0.524-0.783,0.524-1.262
		c0-0.474-0.188-0.922-0.524-1.26C98.572,35.342,98.121,35.154,97.646,35.154z M97.646,38.443c-0.405,0-0.783-0.156-1.071-0.44
		c-0.285-0.286-0.441-0.664-0.441-1.065c0-0.402,0.156-0.781,0.441-1.063c0.288-0.285,0.666-0.442,1.071-0.442
		c0.399,0,0.783,0.157,1.066,0.442c0.287,0.282,0.444,0.661,0.444,1.063C99.158,37.768,98.479,38.443,97.646,38.443z"/>
	<path fill="#485F2B" d="M98.4,37.227c-0.006-0.242-0.025-0.281-0.217-0.377c0.184-0.108,0.256-0.176,0.243-0.369
		c-0.022-0.334-0.3-0.377-0.584-0.377H97.02v1.477h0.236v-0.635h0.604c0.387,0,0.281,0.273,0.303,0.447
		c0.007,0.058,0.016,0.117,0.051,0.188h0.285v-0.049C98.415,37.48,98.404,37.412,98.4,37.227z M97.852,36.777h-0.596v-0.506h0.592
		c0.146,0,0.373,0.031,0.342,0.279C98.163,36.744,98.005,36.777,97.852,36.777z"/>
	<path fill="#485F2B" d="M38.137,8.927c-7.468,0-10.807,6.829-10.807,12.692s3.777,11.555,11.511,11.555
		c6.766,0.086,11.247-4.29,11.247-7.527h-7.47c0,0-0.878,2.102-3.515,2.102c-2.635,0-4.129-1.489-4.129-5.077h15.201
		C50.176,11.377,44.553,8.927,38.137,8.927z M34.975,18.118c0-2.362,0.966-4.29,3.689-4.29c2.814,0,4.043,2.1,4.043,4.29H34.975z"/>
	<path fill="#485F2B" d="M62.564,8.927c-7.467,0-10.808,6.829-10.808,12.692s3.777,11.555,11.513,11.555
		c6.767,0.086,11.248-4.29,11.248-7.527h-7.471c0,0-0.878,2.102-3.516,2.102c-2.637,0-4.131-1.489-4.131-5.077h15.203
		C74.604,11.377,68.98,8.927,62.564,8.927z M59.4,18.118c0-2.362,0.97-4.29,3.69-4.29c2.815,0,4.043,2.1,4.043,4.29H59.4z"/>
	<path fill="#485F2B" d="M100,21.096c0-9.281-5.889-11.906-9.666-11.906s-5.624,2.102-5.712,2.364
		c-0.088,0.261-1.054,1.313-1.054-0.525c0-0.788,0-1.226,0-1.226h-7.56V40h7.646c0,0,0-7.701,0-8.314s0.615-0.525,1.056,0
		c0.438,0.526,2.373,1.84,5.711,1.84C96.486,33.523,100,28.271,100,21.096z M88.047,28.186c-3.689,0-4.654-2.365-4.568-6.83
		c0.092-4.462,1.849-6.301,4.221-6.301c3.865,0,4.566,2.976,4.566,6.042C92.266,24.156,91.738,28.186,88.047,28.186z"/>
</g>
</svg>
