<?xml version="1.0" encoding="utf-8"?>
<!-- Generator: Adobe Illustrator 16.0.0, SVG Export Plug-In . SVG Version: 6.00 Build 0)  -->
<!DOCTYPE svg PUBLIC "-//W3C//DTD SVG 1.1//EN" "http://www.w3.org/Graphics/SVG/1.1/DTD/svg11.dtd">
<svg version="1.1" id="Layer_1" xmlns="http://www.w3.org/2000/svg" xmlns:xlink="http://www.w3.org/1999/xlink" x="0px" y="0px"
	 width="100px" height="50px" viewBox="0 0 100 50" enable-background="new 0 0 100 50" xml:space="preserve">
<g>
	<path fill="#C41230" d="M50,0C22.387,0,0,11.193,0,25c0,13.807,22.387,25,50,25c27.615,0,50-11.193,50-25C100,11.193,77.615,0,50,0
		z M50,46.852c-24.34,0-44.143-9.804-44.143-21.853C5.857,12.951,25.66,3.151,50,3.151s44.143,9.8,44.143,21.848
		C94.143,37.048,74.34,46.852,50,46.852z"/>
	<path fill="#C41230" d="M45.137,13.789h0.809c0.281,0,0.502,0.22,0.502,0.5v22.854c0,0.303,0.236,0.535,0.539,0.535h6.006
		c0.303,0,0.539-0.232,0.539-0.535v-24.35c0-0.295-0.24-0.537-0.539-0.537h-7.855c-0.076,0-0.076,0.073-0.076,0.132v1.271
		C45.061,13.713,45.061,13.789,45.137,13.789z"/>
	<path fill="#C41230" d="M58.68,37.68h5.898c0.285,0,0.59-0.227,0.707-0.529l5.031-15.774c0-0.004,0.057-0.221,0.244-0.221
		c0.18,0,0.239,0.219,0.241,0.221l5.085,15.774c0.12,0.309,0.42,0.529,0.711,0.529h5.895c0.207,0,0.326-0.102,0.391-0.188
		c0.111-0.154,0.125-0.352,0.088-0.469L74.764,12.61c-0.127-0.314-0.447-0.354-0.713-0.354h-9.414c-0.068,0-0.135,0.063-0.135,0.132
		v1.271c0,0.064,0.066,0.13,0.135,0.13h0.693c0.301,0,0.502,0.174,0.502,0.438c0,0.085-0.02,0.176-0.059,0.288l-7.57,22.51
		c-0.045,0.16-0.01,0.334,0.09,0.466C58.387,37.613,58.525,37.68,58.68,37.68z"/>
	<path fill="#C41230" d="M18.555,13.789c0.283,0,0.506,0.22,0.506,0.5v22.854c0,0.303,0.234,0.535,0.535,0.535h5.84
		c0.293,0,0.533-0.238,0.533-0.535v-9.611c0-0.209,0.096-0.328,0.268-0.328c0.201,0,0.295,0.136,0.369,0.242
		c0.008,0.014,0.014,0.025,0.023,0.035l6.877,9.615c0.223,0.332,0.625,0.582,0.938,0.582h6.934c0.164,0,0.342-0.115,0.428-0.277
		c0.09-0.172,0.066-0.371-0.064-0.555c-0.021-0.031-8.693-12.251-8.781-12.375c-0.025-0.037-0.037-0.062-0.053-0.089
		c-0.02-0.034-0.037-0.074-0.045-0.11c-0.006-0.025-0.016-0.048-0.016-0.082c0-0.104,0.053-0.208,0.105-0.319l0.008-0.015
		l7.338-10.825c0.094-0.151,0.094-0.351,0.002-0.516c-0.092-0.161-0.25-0.259-0.424-0.259h-6.582c-0.313,0-0.717,0.251-0.943,0.584
		L26.627,20.9c-0.178,0.265-0.352,0.278-0.387,0.278h-0.004c-0.16,0-0.268-0.106-0.268-0.269v-8.117c0-0.295-0.24-0.537-0.533-0.537
		h-7.688c-0.07,0-0.135,0.063-0.135,0.132v1.271c0,0.066,0.066,0.13,0.135,0.13L18.555,13.789L18.555,13.789z"/>
</g>
</svg>
