<?xml version="1.0" encoding="utf-8"?>
<!-- Generator: Adobe Illustrator 16.0.0, SVG Export Plug-In . SVG Version: 6.00 Build 0)  -->
<!DOCTYPE svg PUBLIC "-//W3C//DTD SVG 1.1//EN" "http://www.w3.org/Graphics/SVG/1.1/DTD/svg11.dtd">
<svg version="1.1" id="Layer_1" xmlns="http://www.w3.org/2000/svg" xmlns:xlink="http://www.w3.org/1999/xlink" x="0px" y="0px"
	 width="85px" height="60px" viewBox="0 0 85 60" enable-background="new 0 0 85 60" xml:space="preserve">
<g>
	<path fill="#005AA1" d="M3.732,14.999C3.732,6.716,20.443,0,41.058,0c20.615,0,37.324,6.716,37.324,14.999
		c0,8.283-16.71,14.998-37.324,14.998C20.444,29.997,3.732,23.282,3.732,14.999L3.732,14.999z M49.383,16.313
		c-0.01-0.052-0.053-0.09-0.104-0.098c-1.026-0.152-2.109-0.277-3.233-0.371c-0.063-0.012-0.108-0.07-0.067-0.211
		c3.451-3.647,4.762-8.286,3.018-11.917c0.006-0.068,0.068-0.119,0.141-0.111c11.871,1.447,20.538,6,20.538,11.395
		c0,6.558-12.813,11.874-28.616,11.874c-15.805,0-28.615-5.316-28.615-11.874c0-5.686,9.628-10.438,22.489-11.602
		c0.062,0.002,0.114,0.051,0.118,0.149l-2.792,15.445c-0.023,0.116-0.033,0.234-0.033,0.356c0,1.035,0.834,1.875,1.867,1.875
		l0.099,0.005c2.49-0.13,5.166-0.911,7.695-2.378c0.729-0.423,1.415-0.885,2.063-1.379c0.041-0.033,0.096-0.036,0.139-0.013
		c0.843,0.563,1.325,1.222,1.325,1.927c0,0.958-0.895,1.833-2.364,2.495c-1.711,0.77-4.197,1.255-6.968,1.255
		c-2.347,0-4.491-0.349-6.155-0.929c-0.066-0.013-0.132,0.034-0.144,0.101l-0.237,1.311c-0.008,0.063,0.033,0.123,0.097,0.139
		c3.386,0.791,7.277,1.241,11.419,1.241c5.154,0,9.333-1.679,9.333-3.749c0-0.806-0.633-1.552-1.707-2.163
		c-0.941-0.463-1.535-1.064-1.39-1.467c0.152-0.418,1.052-0.485,2.121-0.196c0.063,0.009,0.121-0.028,0.142-0.138L49.383,16.313
		L49.383,16.313z M41.058,6.858c0,0.08-0.002,0.161-0.008,0.241c0.136,2.752-1.558,6.435-4.652,9.543
		c-0.634,0.637-1.291,1.214-1.958,1.729c-0.027,0.017-0.061,0.023-0.094,0.017c-0.063-0.015-0.106-0.076-0.095-0.152L37.284,1.46
		c-0.002-0.064-0.055-0.116-0.117-0.119C20.447,2.131,7.466,7.944,7.466,14.999c0,7.594,15.038,13.748,33.592,13.748
		c18.553,0,33.594-6.154,33.594-13.748S59.609,1.25,41.058,1.25c-0.587,0-1.173,0.006-1.76,0.019c-0.059,0-0.106,0.041-0.12,0.096
		l-0.354,1.957c-0.008,0.053,0.016,0.103,0.059,0.128C40.167,4.042,41.058,5.347,41.058,6.858L41.058,6.858z"/>
	<polygon fill="#005AA1" points="6.27,37.497 6.27,55.866 16.423,55.866 16.423,60 0,60 0,37.497 	"/>
	<path fill="#005AA1" d="M30.8,50.882l-2.928-8.194l-2.928,8.194H30.8L30.8,50.882z M31.855,37.506l8.512,22.488h-6.521
		l-1.874-5.311h-8.201l-1.874,5.311h-5.231L25.1,37.506H31.855L31.855,37.506z"/>
	<path fill="#005AA1" d="M47.313,55.854h2.812c1.681,0,3.903-0.295,5.351-2.229c1.444-1.934,1.483-4.195,1.483-5.113
		c0-1.181-0.155-3.572-1.835-5.246c-1.563-1.508-3.594-1.639-5.115-1.639h-2.695V55.854L47.313,55.854z M41.065,37.497h9.175
		c2.654,0,6.678,0.263,9.764,2.917c2.498,2.131,3.668,5.605,3.668,8.293c0,1.968-0.624,5.999-4.061,8.721
		c-2.732,2.163-5.817,2.559-8.707,2.559h-9.839V37.497L41.065,37.497z"/>
	<path fill="#005AA1" d="M75.434,50.871l-2.929-8.195l-2.93,8.195H75.434L75.434,50.871z M76.488,37.497L85,59.984h-6.521
		l-1.873-5.312h-8.201l-1.875,5.312h-5.23l8.434-22.487H76.488L76.488,37.497z"/>
</g>
</svg>
