<?xml version="1.0" encoding="utf-8"?>
<!-- Generator: Adobe Illustrator 16.0.0, SVG Export Plug-In . SVG Version: 6.00 Build 0)  -->
<!DOCTYPE svg PUBLIC "-//W3C//DTD SVG 1.1//EN" "http://www.w3.org/Graphics/SVG/1.1/DTD/svg11.dtd">
<svg version="1.1" id="Layer_1" xmlns="http://www.w3.org/2000/svg" xmlns:xlink="http://www.w3.org/1999/xlink" x="0px" y="0px"
	 width="90px" height="102px" viewBox="0 0 90 102" enable-background="new 0 0 90 102" xml:space="preserve">
<g>
	<path d="M45.977,39.296c0.09,0.029,0.174,0.061,0.256,0.087c0.551,0.176,0.901,0.211,0.797-0.374c0,0,0.311-0.286-0.358-0.357
		c-0.169-0.019-0.313-0.045-0.438-0.067c-0.361-0.063-0.553-0.1-0.731,0.186C45.261,39.153,45.283,39.057,45.977,39.296z"/>
	<path d="M41.004,58.178c0.027,0,0.057,0.002,0.086,0.002c1.52,0.021,1.446-0.072,1.446-0.072l-0.288-0.555
		c0,0-0.681-0.271-1.244-1.308c-0.21-0.386-0.403-0.872-0.54-1.494l-0.458-0.022l0.025,1.254c0,0-0.869,0.58-0.46,1.594
		C39.571,57.575,39.572,58.133,41.004,58.178z"/>
	<path d="M59.604,68.465c0.172,0.229,0.385,0.408,0.617,0.362c0.334-0.067,0.154-0.511,0.154-0.511s-0.109-1.422-0.199-2.332
		c-0.088-0.909-0.398-0.777-0.398-0.777c-0.057,0.016-0.114,0.057-0.174,0.115c-0.226,0.224-0.475,0.73-0.735,1.24
		c-0.332,0.645,0.333,1.265,0.53,1.598C59.46,68.262,59.527,68.367,59.604,68.465z"/>
	<path d="M34.824,73.092l-0.266-0.289c0,0-0.11,0.01-0.248,0.076c-0.299,0.145-0.736,0.555-0.523,1.709c0,0,0.254,0.053,0.523-0.145
		c0.137-0.098,0.28-0.264,0.392-0.531C35.041,73.113,34.824,73.092,34.824,73.092z"/>
	<path d="M46.23,59.925C46,59.201,45.499,57.98,44.707,58.3c-0.966,0.384-0.797,0.288-1.062,0.843
		c-0.266,0.559-0.339,1.037-1.062,1.256c-0.589,0.179-1.146,0.066-1.58-0.191c-0.098-0.057-0.19-0.122-0.275-0.193
		c-0.458-0.387-1.036-0.508-1.397,0.289s-0.361,1.182-0.94,1.352s-1.012-0.336-1.012-0.336s-0.29-0.604-0.626-0.195
		c-0.339,0.411-0.604,0.629-0.604,1.329c0,0.698-0.145,0.94-0.145,0.94s-1.302,3.256-1.469,4.944c0,0-0.12,1.138,0.241,1.378
		c0.361,0.239,0.554-0.121,0.892-0.605c0.336-0.479,1.808-2.629,1.808-2.629s-0.049-0.556,0.675-0.65
		c0.429-0.059,1.767-0.198,2.854-0.068c0.744,0.088,1.371,0.309,1.509,0.768c0,0,0.289,0.508-0.796,0.654
		c-0.314,0.039-0.546,0.043-0.713,0.049c-0.408,0.011-0.444,0.025-0.444,0.627c0,0.842,0.409,2.145,0.409,2.145L41.004,70
		l5.229-0.214l0.596-0.024c0,0-0.244-0.793-0.596-1.426c-0.078-0.139-0.16-0.271-0.248-0.385c-0.482-0.627-1.809-2.436-0.651-3.838
		c0.347-0.416,0.647-0.729,0.899-0.979c0.595-0.59,0.91-0.83,0.858-1.289c-0.071-0.652-0.603-1.037-0.745-1.546
		C46.318,60.212,46.282,60.079,46.23,59.925z"/>
	<path d="M50.538,53.736c0.53-0.096,0.796-0.866,0.554-1.592c-0.24-0.724-0.527-1.398-1.542-1.81
		c-0.261-0.105-0.466-0.184-0.63-0.239c-0.477-0.159-0.602-0.124-0.684,0.011c0.013,0.059-0.229,0.229,0.133,0.373
		c0.361,0.144,0.24,0.072,0.191,0.266c-0.047,0.192-0.481,0.169-0.844,0.169c-0.361,0-1.06-0.242-1.06,0.434
		c0,0.674,0.048,0.581,0.649,0.604c0.604,0.023,0.94-0.12,0.94-0.12s0.241-0.17,0.651,0.435l0.02,0.029
		C49.333,52.902,50.018,53.833,50.538,53.736z"/>
	<path d="M41.162,72.197c-0.069,0.107-0.12,0.201-0.158,0.281c-0.126,0.271-0.094,0.414,0,0.502
		c0.076,0.074,0.193,0.113,0.304,0.158c0.288,0.121,1.373-0.676,0.844-1.328C42.151,71.813,41.646,71.449,41.162,72.197z"/>
	<path d="M36.415,23.289c-0.003-0.433-0.105-0.809-0.283-1.136c-0.176-0.319-0.423-0.594-0.721-0.834
		c-0.504-0.405-1.156-0.633-1.889-0.605c-0.029,0-0.059,0.002-0.088,0.005c-0.083,0.007-0.166,0.014-0.246,0.024l-2.605,0.352
		l0.007,10.856c0.957-0.126,1.966-0.205,2.933-0.36c0.238-0.038,0.474-0.081,0.704-0.13c0.384-0.082,0.739-0.251,1.054-0.483
		c0.327-0.241,0.623-0.563,0.852-0.938c0.291-0.479,0.472-1.046,0.475-1.653c0.003-0.821-0.133-1.504-0.475-2.035
		c-0.037-0.058-0.076-0.113-0.117-0.166c-0.118-0.152-0.252-0.285-0.401-0.403c0.218-0.276,0.39-0.593,0.519-0.928
		C36.324,24.351,36.419,23.803,36.415,23.289z M32.293,22.493c0.405-0.056,0.821-0.141,1.229-0.166l0.018-0.004
		c0.332-0.02,0.617,0.069,0.824,0.237c0.253,0.202,0.383,0.515,0.405,0.832c0.039,0.597-0.24,1.277-0.684,1.64
		c-0.058,0.046-0.333,0.188-0.397,0.187c-0.054,0.007-0.107,0.014-0.166,0.02c-0.273,0.032-0.582,0.074-0.889,0.113
		c-0.117,0.016-0.236,0.032-0.358,0.046L32.293,22.493z M33.83,29.898l-0.308,0.039l-1.275,0.172l0.019-3.089
		c0.189-0.024,0.386-0.05,0.583-0.076c0.216-0.028,0.43-0.056,0.674-0.087c0.095-0.01,0.193-0.021,0.3-0.032
		c0.447,0.025,0.727,0.136,0.876,0.328c0.189,0.245,0.265,0.662,0.262,1.223C34.956,28.982,34.497,29.811,33.83,29.898z"/>
	<polygon points="25.07,28.122 22.935,22.362 21.206,22.679 21.211,33.19 22.889,32.864 22.876,26.915 25.157,33.3 27.236,26.757 
		27.253,32.304 28.874,32.034 28.876,21.424 27.129,21.723 	"/>
	<polygon points="9.133,26.05 7.43,26.476 7.415,37.237 12.49,35.377 12.509,33.583 9.13,34.861 	"/>
	<polygon points="65.802,22.191 65.82,27.11 62.881,26.551 62.885,21.742 61.51,21.531 61.21,21.485 61.218,32.506 61.51,32.553 
		62.868,32.764 62.871,28.198 65.764,28.734 65.762,33.188 67.413,33.469 67.402,22.45 	"/>
	<polygon points="81.191,26.241 81.202,37.088 82.846,37.539 82.835,26.742 	"/>
	<path d="M19.803,18.279c0.57,0.646,1.404,0.869,2.226,0.774c1.011-0.119,1.789-0.496,2.335-1.217
		c0.509-0.671,0.837-1.603,0.844-2.861L25.182,7.34l-1.703,0.31l0.007,7.316c-0.004,0.892-0.15,1.499-0.434,1.874
		c-0.32,0.422-1.541,0.886-2.017,0.345c-0.182-0.205-0.304-0.556-0.36-1.04c-0.022-0.192-0.032-0.407-0.031-0.642l0.009-7.196
		l-1.638,0.37l-0.023,6.816c-0.003,0.298,0.013,0.579,0.044,0.843C19.129,17.158,19.389,17.809,19.803,18.279z"/>
	<polygon points="66.285,7.873 66.29,19.172 67.941,19.402 67.938,8.103 	"/>
	<polygon points="77.703,31.728 74.918,24.312 72.995,23.854 73.012,34.582 74.631,35.033 74.639,28.253 77.471,35.926 
		79.328,36.454 79.341,25.599 77.699,25.062 	"/>
	<polygon points="69.391,33.89 71.034,34.241 71.051,23.16 69.383,22.808 	"/>
	<path d="M45.789,31.57l1.628,0.008l0.003-4.565l1.298,0.007l0.22,0.637l1.371,3.948l1.748,0.012l-1.693-4.883
		c0.38-0.18,0.701-0.441,0.964-0.751c0.504-0.6,0.766-1.381,0.766-2.16c-0.007-1.129-0.329-1.923-0.932-2.476
		c-0.572-0.521-1.445-0.805-2.224-0.85c-0.063-0.004-0.129-0.007-0.191-0.007l-2.939-0.017L45.789,31.57z M47.449,22.13l1.232,0.009
		c0.088,0.007,0.174,0.015,0.256,0.024c0.494,0.062,0.871,0.187,1.11,0.405c0.345,0.314,0.396,0.851,0.397,1.282
		c-0.004,0.389-0.137,0.779-0.381,1.07c-0.222,0.264-0.643,0.498-0.998,0.446h-0.131l-1.509-0.01L47.449,22.13z"/>
	<path d="M61.51,18.284c0.197,0.015,0.393,0.023,0.582,0.023c0.604,0.003,1.188-0.236,1.641-0.661
		c0.436-0.409,0.748-0.988,0.836-1.687c0.014-0.109,0.021-0.236,0.021-0.379c0.003-0.909-0.149-1.679-0.552-2.316
		c-0.133-0.209-0.521-0.466-0.365-0.652c0.359-0.435,0.609-1.004,0.697-1.604c0.035-0.242,0.037-0.476,0.029-0.719
		c-0.102-1.569-1.324-2.947-2.89-3.196c-0.041-0.006-0.083-0.012-0.124-0.017l-2.844-0.325l0.039,11.136
		C59.525,18.004,60.54,18.214,61.51,18.284z M60.281,8.607l0.914,0.109c0.109,0.012,0.214,0.036,0.313,0.069
		c0.468,0.151,0.851,0.504,1.065,0.944c0.101,0.208,0.162,0.433,0.179,0.665c0.009,0.127,0.001,0.253-0.017,0.376
		c-0.045,0.305-0.162,0.583-0.332,0.785c-0.129,0.155-0.311,0.281-0.521,0.251c-0.134-0.02-0.257-0.037-0.375-0.053
		c-0.245-0.036-0.462-0.063-0.679-0.09c-0.189-0.024-0.381-0.049-0.566-0.073L60.281,8.607z M60.255,13.257
		c0.127,0.017,0.25,0.033,0.373,0.048c0.308,0.038,0.615,0.079,0.882,0.117l0.083,0.012c0.521,0.164,0.855,0.399,1.052,0.707
		c0.276,0.443,0.349,1.104,0.285,1.614c-0.037,0.296-0.158,0.531-0.324,0.689c-0.158,0.146-0.36,0.236-0.576,0.207l-0.52-0.065
		l-1.271-0.158L60.255,13.257z"/>
	<polygon points="28.524,17.757 30.179,17.643 30.163,8.195 32.098,7.931 32.093,6.288 26.579,7.051 26.549,8.693 28.51,8.396 	"/>
	<polygon points="74.852,20.771 74.824,19.136 71.73,18.554 71.718,8.992 70.003,8.647 70.006,19.94 	"/>
	<path d="M53.717,17.515h0.033c0.865-0.006,1.499-0.375,1.979-0.887c0.812-0.871,1.179-2.063,1.321-3.219
		c0.205-1.641,0.079-3.768-0.378-4.881c-0.521-1.266-1.383-2.4-2.889-2.409c-0.012-0.001-0.021,0-0.033,0
		c-1.754,0.01-2.777,1.646-3.137,3.187c-0.07,0.292-0.123,0.601-0.163,0.917c-0.205,1.64-0.08,3.766,0.378,4.879
		C51.35,16.367,52.213,17.505,53.717,17.515z M52.088,10.425c0.035-0.279,0.078-0.531,0.128-0.747
		c0.043-0.183,0.095-0.368,0.169-0.541c0.148-0.346,0.338-0.733,0.596-1.008c0.192-0.208,0.44-0.358,0.771-0.363h0.022
		c0.34,0.002,0.596,0.158,0.791,0.371c0.254,0.279,0.438,0.669,0.582,1.016c0.357,0.872,0.441,2.645,0.267,4.053
		c-0.108,0.869-0.507,2.644-1.662,2.66c-0.008,0-0.015,0-0.022,0c-0.754-0.004-1.127-0.792-1.373-1.388
		C51.997,13.607,51.912,11.836,52.088,10.425z"/>
	<path d="M55.298,23.724c0.294-0.828,1.382-1.43,2.095-0.646c0.184,0.2,0.361,0.925,0.36,1.215l1.646,0.011
		c0-0.013,0-0.223-0.004-0.223c-0.035-0.881-0.313-1.598-0.781-2.113c-0.565-0.621-1.37-0.896-2.19-0.89
		c-1.456,0.009-2.245,0.893-2.672,2.08l-0.005,0.016c-0.354,0.99-0.423,2.181-0.445,3.142c-0.031,1.55,0.117,2.742,0.45,3.622
		c0.081,0.216,0.174,0.414,0.276,0.594c1.138,1.97,4.164,2.015,5.133-0.118c0.482-1.066,0.421-2.841,0.43-4.033l-2.895,0.009
		l-0.01,1.653l1.23,0.009c0.01,0.664-0.063,1.253-0.257,1.682c-0.413,0.907-1.745,0.772-2.207-0.026
		c-0.371-0.645-0.541-1.734-0.505-3.355C54.966,25.518,55.021,24.497,55.298,23.724z"/>
	<path d="M33.522,15.636c0.154,0.279,0.342,0.556,0.576,0.802c0.477,0.501,1.117,0.852,1.999,0.815h0.034
		c0.865-0.045,1.5-0.442,1.979-0.978c0.424-0.476,0.7-1.041,0.905-1.532l0,0c0.1-0.237,0.185-0.515,0.255-0.824
		c0.068-0.296,0.122-0.606,0.161-0.923c0.206-1.648,0.082-3.769-0.378-4.86c-0.198-0.476-0.469-1.02-0.889-1.461
		c-0.478-0.503-1.118-0.853-1.999-0.817L36.131,5.86c-0.864,0.044-1.5,0.441-1.978,0.976c-0.261,0.291-0.465,0.616-0.632,0.938
		c-0.104,0.204-0.195,0.406-0.275,0.598l0,0c-0.098,0.235-0.184,0.515-0.255,0.821c-0.068,0.295-0.121,0.607-0.162,0.923
		c-0.205,1.65-0.079,3.77,0.379,4.861C33.296,15.188,33.399,15.412,33.522,15.636z M34.47,10.242
		c0.034-0.281,0.077-0.534,0.128-0.753c0.048-0.207,0.104-0.393,0.169-0.548l0,0l0.001-0.001c0.146-0.352,0.335-0.746,0.594-1.035
		c0.192-0.217,0.443-0.378,0.771-0.397l0.023-0.002c0.34-0.015,0.594,0.129,0.789,0.337C37.2,8.11,37.384,8.489,37.528,8.83
		c0.357,0.854,0.442,2.621,0.267,4.039c-0.035,0.28-0.078,0.536-0.13,0.753c-0.046,0.208-0.103,0.392-0.167,0.548l0,0
		c-0.148,0.353-0.337,0.749-0.595,1.036c-0.192,0.217-0.443,0.378-0.771,0.398l-0.024,0.001c-0.341,0.014-0.594-0.129-0.79-0.334
		c-0.255-0.269-0.439-0.649-0.581-0.99C34.378,13.428,34.294,11.659,34.47,10.242z"/>
	<path d="M39.075,21.292c-0.811,0.888-1.177,2.08-1.322,3.25c-0.205,1.646-0.08,3.77,0.377,4.87c0.199,0.479,0.47,1.031,0.889,1.48
		c0.479,0.513,1.12,0.874,2.002,0.857h0.033c0.865-0.025,1.498-0.41,1.978-0.936c0.574-0.629,0.967-1.496,1.161-2.331
		c0.068-0.293,0.121-0.605,0.16-0.919c0.207-1.646,0.082-3.77-0.378-4.87c-0.198-0.479-0.467-1.029-0.889-1.48
		c-0.477-0.514-1.117-0.874-1.999-0.858l-0.033,0.002C40.188,20.383,39.553,20.768,39.075,21.292z M39.393,24.705
		c0.034-0.28,0.078-0.534,0.127-0.752c0.128-0.549,0.382-1.148,0.763-1.567c0.194-0.213,0.443-0.369,0.771-0.382h0.023
		c0.339-0.007,0.593,0.142,0.791,0.353c0.253,0.272,0.437,0.657,0.58,1.001c0.357,0.862,0.442,2.63,0.267,4.044
		c-0.034,0.28-0.078,0.534-0.128,0.753c-0.127,0.545-0.391,1.159-0.762,1.566c-0.194,0.213-0.443,0.368-0.771,0.382l-0.023,0.001
		c-0.34,0.006-0.595-0.143-0.791-0.353c-0.254-0.273-0.439-0.658-0.582-1C39.299,27.888,39.215,26.12,39.393,24.705z"/>
	<polygon points="78.025,21.736 78.02,10.473 76.37,10.147 76.374,21.411 	"/>
	<polygon points="42.591,17.132 42.591,11.161 44.808,17.756 46.925,11.383 46.927,17.156 48.613,17.166 48.607,6.252 46.896,6.242 
		44.799,12.55 42.67,6.217 41.054,6.207 40.933,6.207 40.903,17.121 41.054,17.123 	"/>
	<path d="M51.459,66.252c-0.078-0.098-0.146-0.208-0.203-0.316c-0.105-0.203-0.18-0.408-0.224-0.56
		c-0.095-0.317-0.286-0.379-0.416,0.03c-0.111,0.357-0.378,0.846-0.067,1.355c0.137,0.225,0.419,0.403,0.707,0.502
		c0.372,0.131,0.75,0.123,0.825-0.102C52.213,66.762,51.814,66.695,51.459,66.252z"/>
	<path d="M66.535,62.87c-0.405,0.455-2.797,0.312-3.729-0.55c-0.933-0.861-2.033-2.299-2.988-1.891c0,0-0.074-0.104-0.215-0.268
		c-0.504-0.564-1.856-1.842-3.85-1.768c-2.561,0.094-2.176,0-2.176,0s-0.025-1.174-1.338-1.195c-0.4-0.008-0.727-0.014-0.985-0.023
		c-0.594-0.025-0.827-0.082-0.761-0.265c0.096-0.265,0.048-0.433,0.048-0.433l0.713-0.017l0.267-0.007c0,0,0.24-0.049,0.217,0.287
		l0.453-0.023c0,0,0.072-0.695-0.621-0.908c-0.107-0.033-0.213-0.058-0.314-0.072c-0.555-0.082-1,0.072-1,0.072
		s-0.383-0.098-0.311-0.48c0.072-0.381,0.238-0.43,0.766-0.264c0.163,0.053,0.355,0.074,0.545,0.07
		c0.416-0.009,0.816-0.143,0.864-0.355c0.071-0.313,0.167-0.553,0.167-0.553s0.622,0.648,0.886,1.725c0,0,0.382,0.79,0.813,0.861
		c0,0,0.334,0.047,0.07-1.029c-0.252-1.035-1.633-3.973-2.801-5.666c-0.047-0.068-0.093-0.134-0.139-0.196
		c-0.703-0.973-1.588-2.1-2.197-2.863c-0.429-0.537-0.72-0.895-0.72-0.895s-0.095-0.6,0.313-0.48c0,0,0.153,0.181,0.406,0.473
		c0.535,0.623,1.505,1.758,2.336,2.797c0.361,0.453,0.698,0.888,0.96,1.255c1.147,1.604,1.65,1.748,2.464,1.819
		c0.813,0.07,1.051-0.287,0.813-1.341c-0.239-1.053-0.598-1.89-0.598-1.89s-0.383-0.479-0.742-0.479
		c-0.356,0-0.405-0.263,0.217-0.526c0.622-0.262,1.22-0.479,1.576-0.358c0,0,2.104,2.728,2.82,4.021
		c0.719,1.292,0.909,2.272,0.623,3.542c-0.287,1.27-0.264,1.938,0.022,2.919c0.065,0.226,0.13,0.44,0.192,0.649
		c0.201,0.701,0.345,1.293,0.215,1.623l1.338-0.047c0,0,0.023-1.651-0.215-2.895c-0.238-1.245-0.455-1.75-0.312-3.018
		c0.144-1.27,0.168-2.416-0.67-3.565c-0.101-0.141-0.224-0.308-0.356-0.494c-0.979-1.352-2.653-3.695-2.653-3.695
		s1.171-1.22,0.046-3.613c-1.122-2.393-4.016-2.346-4.922-2.369c-0.174-0.006-0.457,0.007-0.818,0.025
		c-0.605,0.03-1.434,0.082-2.336,0.118c-0.872,0.037-1.813,0.061-2.688,0.035c-0.545-0.015-1.063-0.048-1.521-0.107
		c-1.843-0.237-3.561-0.405-3.706-0.854c-0.013-0.042-0.013-0.084,0-0.13c0.033-0.11,0.147-0.234,0.359-0.38
		c1.267-0.862,1.65-0.719,2.104-0.286c0.38,0.357,1.311,0.952,2.765,1.125c0.285,0.032,0.591,0.049,0.916,0.046
		c0.844-0.01,1.41-0.033,1.771-0.086c0.491-0.071,0.605-0.195,0.523-0.416c-0.12-0.323-0.19-0.476-0.523-0.473
		c-0.063,0-0.134,0.006-0.218,0.017c-0.524,0.073-1.363-0.19-1.313-0.598c0.047-0.406,0.118-0.478,0.453-0.12
		c0.336,0.359,0.336,0.264,0.885,0.264c0.07,0,0.135,0,0.193,0c0.395-0.005,0.535-0.003,0.932,0.287
		c0.307,0.228,0.961,0.257,1.404,0.164c0.215-0.044,0.381-0.118,0.436-0.21c0,0,0.328-0.459-0.436-0.909
		c-0.109-0.064-0.242-0.13-0.402-0.194c-0.393-0.154-1.08-0.383-1.934-0.582c-0.79-0.185-1.72-0.346-2.688-0.4
		c-1.375-0.08-2.825,0.053-4.055,0.624c-0.469,0.217-0.853,0.426-1.173,0.622c-1.758,1.091-1.479,1.898-1.338,2.467
		c0.089,0.357,0.466,0.818,1.338,1.157c0.757,0.298,1.893,0.502,3.538,0.469c0.572-0.012,1.138-0.024,1.688-0.039
		c0.957-0.025,1.865-0.052,2.688-0.07c0.905-0.02,1.704-0.027,2.336-0.011c0.511,0.014,0.914,0.043,1.177,0.098
		c1.051,0.215,2.629,0.143,3.084,1.578c0.452,1.436,0.478,2.084-1.508,1.699c-0.973-0.187-1.882-0.408-2.753-0.672
		c-0.805-0.242-1.577-0.518-2.336-0.833c-0.097-0.04-0.192-0.081-0.289-0.123c-1.202-0.515-1.774-0.45-2.399-0.1
		c-0.246,0.14-0.5,0.322-0.803,0.531c-1.076,0.742-1.219,1.029-1.578,1.437c-0.358,0.407-0.693,0.646-1.458,1.03
		c-0.233,0.115-0.755,0.364-1.388,0.71c-1.441,0.787-3.459,2.081-3.991,3.479c0,0-0.31,1.41-0.143,2.654
		c0.166,1.246-0.025,1.676-0.455,2.348c-0.431,0.67-1.22,1.745-1.672,2.633c-0.198,0.383-0.325,0.614-0.433,0.883
		c-0.14,0.351-0.243,0.759-0.405,1.629c-0.287,1.531,0.023,2.346,0.048,2.562c0.023,0.216-0.118,1.46-0.525,2.035
		c-0.406,0.573-0.479,1.771-0.36,2.81c0.104,0.92,0.313,1.908,0.156,2.611c-0.107,0.729-0.442,1.16-0.777,1.734
		c-0.333,0.572-0.144,2.082-0.047,2.849c0,0-2.152,1.411-2.104,3.087c0,0-0.67,0.336-1.148,1.483
		c-0.477,1.149-0.096,1.245,0.097,1.747c0.19,0.503,0.549,0.359,0.549-0.145c0-0.503,0.048-1.004,0.048-1.004l0.335,0.023
		L30.32,81.3l-0.095,0.937c0,0,1.814,0.095,2.676-0.264c0,0,0.192-0.072,0.192-0.506c0-0.43-0.048-1.195,0.216-1.554
		c0.263-0.358,0.549-0.24,0.573-1.197c0.023-0.956-0.096-1.676-0.047-2.083c0.047-0.404-0.193-0.287,0.428-0.764l0.048-0.037
		c0.628-0.473,1.671-1.083,1.555-3.676c0,0,1.53-3.088,2.559-4.426c0,0,0.094-0.336,0.406-0.19c0.31,0.142,0.143,0.118,0.238,0.789
		c0.097,0.669,0.216,3.11,0.216,3.11s0.216,0.168,0.094,0.408c-0.118,0.237-0.118,1.004-0.118,1.241
		c0,0.241-0.095,0.576-0.788,1.078c-0.693,0.503-2.295,1.556-2.702,2.228c-0.407,0.67-0.501,1.363-0.479,2.201
		c0.023,0.838,0.24,0.719,0.526,0.647c0.287-0.074,0.479-0.074,0.479-0.313c0-0.238,0.214-0.357,0.381-0.097
		c0.167,0.265,0.072,0.049,0.049,0.575c-0.023,0.527,0,0.623,0.763,0.479c0.768-0.144,1.603-0.144,2.13-1.531
		c0.398-1.055,0.854-2.44,1.385-3.36c0.167-0.291,0.343-0.535,0.527-0.708c0.764-0.717,1.242-0.717,1.937-2.563
		c0,0,0.214-0.523,0.933-0.717c0,0,0.31-0.145,0.094,0.357c-0.214,0.504-0.334,0.936-1.146,2.012
		c-0.814,1.076-1.985,1.748-1.34,2.967c0,0,0.357,0.264,0.645-0.382c0.289-0.647,0.384-0.265,0.503-0.048
		c0.119,0.215-0.071,0.238-0.214,0.501c-0.145,0.265-0.289,0.601,0.668,0.528c0.957-0.073,1.481-0.24,1.77-0.264
		c0.287-0.025,1.005-0.097,0.813-0.935c-0.19-0.839-0.479-1.269-0.168-1.412c0.063-0.026,0.135-0.048,0.207-0.069
		c0.295-0.08,0.621-0.164,0.486-0.814c-0.168-0.813-0.263-1.51,0.238-1.725c0.502-0.216,0.6-0.168,0.6-0.168
		s0.142,1.676,0.739,2.657c0.152,0.252,0.368,0.438,0.624,0.578c0.637,0.347,1.523,0.396,2.336,0.401
		c0.133,0.002,0.26,0.002,0.387,0.002c1.219,0,2.533-0.12,2.748-1.893c0.217-1.771,0.407-3.589,1.556-4.595
		c1.147-1.005,1.481-1.103,1.481-1.103s0.838,1.438,1.387,2.107c0.551,0.669,0.406,0.836,0.406,1.578
		c0,0.743-0.311,1.533-0.07,1.844c0.238,0.313,0.117,0.622-0.12,1.196c-0.238,0.573-0.646,1.675,0.43,2.226
		c0.052,0.025,0.099,0.053,0.146,0.071c0.904,0.457,0.646,0.224,0.716-0.144c0.073-0.383,0-0.67,0.384-0.43
		c0.382,0.237,0.145,0.646,0.145,0.646s1.027,0.431,1.289-0.503c0.264-0.934,0.239-1.174-0.022-1.676
		c-0.265-0.502-0.552-2.369-0.622-4.856c-0.071-2.438-0.094-5.379-1.889-6.487c-0.039-0.025-0.08-0.049-0.119-0.07
		c0,0-0.67-0.623-0.98,0.479s-0.145,2.012-0.813,2.416c-0.668,0.408-3.656,2.298-3.872,4.573c-0.216,2.272-0.358,2.896-1.386,3.134
		c-0.438,0.104-0.838,0.191-1.176,0.24c-0.455,0.068-0.799,0.064-0.978-0.072c-0.312-0.238-0.574-0.527-0.119-0.479
		c0.454,0.049,0.813-0.287,0.551-0.693s-1.006-0.67-1.173-0.145c-0.165,0.524-0.238,0.719-0.454,0.287
		c-0.051-0.104-0.11-0.244-0.164-0.406c-0.161-0.496-0.272-1.223-0.002-1.963l0.002-0.008c0.361-0.984,1.525-2.912,0.906-3.391
		c-0.408-0.316-0.704-0.133-0.906,0.15c-0.104,0.147-0.185,0.324-0.243,0.472c-0.164,0.43-0.548,1.147-0.785,1.172
		c-0.239,0.024-0.289-0.979-0.121-1.696c0.121-0.521,0.711-1.806,1.149-2.621c0.171-0.315,0.316-0.561,0.404-0.66
		c0.31-0.359,0.502-1.172,0.022-1.842c-0.115-0.164-0.266-0.334-0.428-0.5c-0.501-0.512-1.136-1-1.388-1.271
		c-0.335-0.358-0.455-2.01-0.455-2.01s0.479-0.264,1.052-0.047c0.35,0.127,0.563,0.275,0.791,0.31
		c0.149,0.021,0.303-0.007,0.499-0.12c0.333-0.189,1.151-0.424,1.837-0.447c0.348-0.012,0.663,0.031,0.864,0.161l0.121,0.454
		c0,0-0.445,0.003-0.985,0.066c-0.775,0.095-1.753,0.311-1.908,0.818c-0.264,0.86-0.43,2.178,1.338,3.52
		c0.18,0.135,0.371,0.256,0.57,0.365c1.789,0.98,4.346,0.963,5.527,0.017c1.314-1.052,0.668-1.269,0.094-0.957
		c-0.572,0.312-3.466-0.072-4.255-0.454c-0.788-0.384-0.502-0.646-0.453-0.98l0.718-0.074c0,0,0.406,0,0.455-0.286
		c0.047-0.287,0.047-0.358,0.047-0.358l0.692,0.146c0,0,0.144,0.645,1.123,0.861c0.979,0.213,1.194,0.143,1.194,0.143
		s0.287-0.217-0.022-0.479c-0.312-0.265-1.22-0.601-1.22-0.934c0,0,0.98-0.241,1.984,0.262c1.004,0.504,1.338,0.646,1.506,0.526
		l0.024,1.317c0,0-0.098,0.404,0.286,0.453c0.219,0.028,0.4,0.039,0.646,0.176c0.181,0.103,0.396,0.271,0.691,0.566
		c0.693,0.694,2.391,1.771,4.088,1.484c1.698-0.287,2.51-1.317,2.678-1.581c0.027-0.043,0.043-0.093,0.047-0.146v-0.063
		C67.088,62.75,66.848,62.521,66.535,62.87z M45.499,38.77c0.179-0.285,0.37-0.249,0.731-0.186c0.125,0.022,0.271,0.049,0.438,0.067
		c0.669,0.071,0.358,0.357,0.358,0.357c0.104,0.585-0.246,0.55-0.797,0.374c-0.082-0.026-0.166-0.058-0.256-0.087
		C45.283,39.057,45.261,39.153,45.499,38.77z M58.867,66.563c0.262-0.508,0.511-1.017,0.736-1.238
		c0.059-0.061,0.117-0.102,0.174-0.116c0,0,0.311-0.132,0.397,0.776c0.089,0.912,0.199,2.332,0.199,2.332s0.179,0.443-0.155,0.512
		c-0.232,0.046-0.443-0.135-0.615-0.362c-0.076-0.098-0.145-0.204-0.205-0.305C59.2,67.827,58.535,67.207,58.867,66.563z
		 M40.031,55.98l-0.025-1.254l0.458,0.023c0.137,0.622,0.33,1.109,0.54,1.494c0.563,1.035,1.244,1.307,1.244,1.307l0.288,0.555
		c0,0,0.073,0.096-1.446,0.072c-0.029,0-0.059,0-0.086,0c-1.432-0.046-1.433-0.604-1.433-0.604
		C39.162,56.563,40.031,55.98,40.031,55.98z M34.702,73.912c-0.111,0.27-0.255,0.434-0.392,0.531
		c-0.27,0.197-0.523,0.145-0.523,0.145c-0.213-1.154,0.225-1.564,0.523-1.709c0.138-0.066,0.248-0.076,0.248-0.076l0.266,0.289
		C34.824,73.092,35.041,73.113,34.702,73.912z M41.308,73.141c-0.11-0.047-0.228-0.086-0.304-0.158c-0.094-0.09-0.126-0.23,0-0.502
		c0.038-0.08,0.089-0.174,0.158-0.281c0.483-0.749,0.989-0.387,0.989-0.387C42.681,72.464,41.596,73.262,41.308,73.141z
		 M47.091,61.846c0.052,0.459-0.265,0.7-0.858,1.291c-0.252,0.248-0.555,0.561-0.899,0.979c-1.156,1.4,0.169,3.21,0.651,3.837
		c0.088,0.112,0.17,0.245,0.248,0.385c0.352,0.632,0.596,1.425,0.596,1.425l-0.596,0.025L41.004,70l-0.035,0.001
		c0,0-0.409-1.304-0.409-2.146c0-0.601,0.036-0.615,0.444-0.627c0.167-0.004,0.398-0.008,0.713-0.049
		c1.085-0.146,0.796-0.652,0.796-0.652c-0.138-0.461-0.765-0.68-1.509-0.77c-1.087-0.129-2.425,0.012-2.854,0.069
		c-0.724,0.096-0.675,0.649-0.675,0.649s-1.472,2.149-1.808,2.631c-0.338,0.482-0.53,0.845-0.892,0.604
		c-0.361-0.241-0.241-1.378-0.241-1.378c0.167-1.688,1.469-4.945,1.469-4.945s0.145-0.24,0.145-0.939c0-0.7,0.266-0.918,0.604-1.329
		c0.336-0.409,0.626,0.194,0.626,0.194s0.433,0.506,1.012,0.338c0.579-0.17,0.579-0.555,0.94-1.354
		c0.361-0.796,0.939-0.675,1.397-0.287c0.085,0.07,0.178,0.137,0.275,0.192c0.435,0.259,0.991,0.37,1.58,0.19
		c0.723-0.217,0.796-0.697,1.062-1.254c0.265-0.556,0.096-0.459,1.062-0.844c0.792-0.318,1.293,0.9,1.524,1.625
		c0.051,0.154,0.086,0.287,0.112,0.376C46.488,60.809,47.02,61.193,47.091,61.846z M48.92,52.296l-0.02-0.028
		c-0.41-0.604-0.651-0.436-0.651-0.436s-0.338,0.145-0.94,0.12c-0.603-0.022-0.649,0.071-0.649-0.604
		c0-0.676,0.698-0.434,1.06-0.434c0.362,0,0.797,0.023,0.844-0.169c0.049-0.193,0.17-0.122-0.191-0.266
		c-0.361-0.145-0.12-0.314-0.133-0.373c0.082-0.135,0.207-0.17,0.684-0.011c0.164,0.056,0.369,0.134,0.63,0.239
		c1.015,0.41,1.302,1.086,1.542,1.811c0.242,0.725-0.023,1.494-0.554,1.592C50.018,53.833,49.333,52.902,48.92,52.296z"/>
	<path d="M89.035,11.334c-0.891-2.001-2.496-3.699-5.348-4.915C73.697,2.155,59.316,0.017,45.001,0
		c-1.72-0.003-3.437,0.025-5.145,0.085c-3.109,0.107-6.182,0.316-9.17,0.623C21.447,1.654,12.88,3.559,6.313,6.419l0,0l0,0
		l-0.01,0.005c-2.837,1.236-4.44,2.931-5.33,4.926c-0.86,1.927-1.009,4.054-0.967,6.293C0.403,38.639,4.958,54.641,11.777,67.49
		C18.595,80.338,27.666,90.012,37.1,98.365C39.836,100.787,42.39,102,45,102h0.001c2.61,0,5.164-1.213,7.899-3.635
		c9.435-8.354,18.504-18.027,25.322-30.875c6.818-12.85,11.375-28.852,11.771-49.848C90.036,15.405,89.895,13.269,89.035,11.334z
		 M87.38,17.603C86.994,38.12,82.555,53.736,75.908,66.26c-6.648,12.526-15.514,21.979-24.74,30.146
		c-2.232,1.978-4.23,2.967-6.167,2.967H45c-1.938,0-3.934-0.989-6.167-2.967c-9.228-8.17-18.092-17.62-24.738-30.146
		C7.448,53.734,3.008,38.119,2.621,17.603c-0.036-1.914,0.075-3.696,0.739-5.187c0.634-1.418,1.824-2.645,3.979-3.586l0,0l0,0
		l0.01-0.006c6.311-2.751,14.613-4.588,23.604-5.512c2.949-0.302,5.96-0.507,8.985-0.611c1.683-0.058,3.373-0.086,5.063-0.084
		C58.99,2.633,72.988,4.703,82.662,8.83c2.163,0.923,3.352,2.149,3.984,3.572C87.309,13.894,87.417,15.687,87.38,17.603z"/>
	<path d="M16.773,14.668L15.524,9.58l-0.876,0.179l-0.961,0.196l-2.654,11.517l1.801-0.481l0.754-3.268l1.061-0.242l1.034-0.237
		l0.678,2.808l0.413-0.107l1.216-0.32L16.773,14.668z M14.648,15.785l-0.647,0.148l0.647-2.807l0.018-0.085l0.628,2.594
		L14.648,15.785z"/>
	<path d="M17.641,23.591l-0.867,0.18l-0.933,0.196l-1.192,5.332l-1.318,5.884l1.318-0.341l0.477-0.122l0.663-2.967l0.985-0.224
		l0.957-0.215l0.595,2.578l1.601-0.414L17.641,23.591z M16.773,29.837l-0.585,0.133l0.585-2.611l0.021-0.094l0.563,2.441
		L16.773,29.837z"/>
</g>
</svg>
