<?xml version="1.0" encoding="utf-8"?>
<!-- Generator: Adobe Illustrator 16.0.0, SVG Export Plug-In . SVG Version: 6.00 Build 0)  -->
<!DOCTYPE svg PUBLIC "-//W3C//DTD SVG 1.1//EN" "http://www.w3.org/Graphics/SVG/1.1/DTD/svg11.dtd">
<svg version="1.1" id="Layer_1" xmlns="http://www.w3.org/2000/svg" xmlns:xlink="http://www.w3.org/1999/xlink" x="0px" y="0px"
	 width="110px" height="60px" viewBox="0 0 110 60" enable-background="new 0 0 110 60" xml:space="preserve">
<g>
	<path fill="#14552B" d="M49.393,35.787c-0.403,0-0.806,0.111-1.226,0.339c-0.258,0.146-0.517,0.321-0.775,0.532
		c-0.581,0.5-1.049,1.064-1.388,1.729c-0.063,0.127-0.112,0.258-0.161,0.387c-0.339,0.822-0.403,1.518-0.177,2.099
		c0.08,0.226,0.192,0.403,0.338,0.549c0.242,0.21,0.549,0.323,0.937,0.323c0.387,0,0.807-0.113,1.227-0.34
		c0.242-0.129,0.499-0.307,0.757-0.516c0.695-0.582,1.211-1.275,1.551-2.115c0.354-0.84,0.42-1.551,0.193-2.131
		C50.441,36.077,50.006,35.787,49.393,35.787z"/>
	<path fill="#14552B" d="M34.79,34.867h-0.774h-0.242L32.5,37.966h0.838c0.242,0,0.469-0.032,0.679-0.112
		c0.58-0.227,1.033-0.742,1.37-1.551c0.162-0.387,0.194-0.727,0.082-1.017C35.354,35.012,35.129,34.867,34.79,34.867z"/>
	<path fill="#14552B" d="M70.645,22.292c0.258-0.403,0.5-0.872,0.709-1.421c0.404-0.969,0.453-1.679,0.179-2.13
		c-0.146-0.274-0.451-0.452-0.888-0.565c-0.34-0.08-0.76-0.13-1.258-0.13l-2.453,6.07c1.098,0,1.984-0.227,2.662-0.711
		C69.982,23.148,70.32,22.775,70.645,22.292z"/>
	<path fill="#14552B" d="M89.813,34.867h-0.773h-0.227l-1.273,3.099h0.839c0.24,0,0.451-0.032,0.661-0.112
		c0.581-0.227,1.049-0.742,1.372-1.551c0.161-0.387,0.192-0.727,0.08-1.017C90.395,35.012,90.169,34.867,89.813,34.867z"/>
	<path fill="#14552B" d="M89.039,9.814c-2.34-1.065-4.891-2.034-7.584-2.857c-3.372-1.049-7.003-1.904-10.813-2.519
		c-2.582-0.435-5.26-0.758-8.002-0.968c-2.5-0.194-5.035-0.29-7.633-0.29c-2.323,0-4.598,0.08-6.841,0.227
		c-0.727,0.064-1.453,0.112-2.163,0.177c-1.888,0.178-3.759,0.404-5.582,0.678c-2.195,0.34-4.342,0.743-6.406,1.227
		c-1.099,0.243-2.179,0.518-3.228,0.808c-4.033,1.113-7.762,2.502-11.086,4.101C9.537,15.303,3.163,22.275,3.163,30.008
		c0,7.717,6.374,14.705,16.539,19.598c3.324,1.613,7.053,2.984,11.086,4.1c1.049,0.291,2.129,0.564,3.228,0.822
		c2.064,0.47,4.211,0.871,6.406,1.211c1.823,0.275,3.694,0.5,5.582,0.679c0.71,0.065,1.437,0.129,2.163,0.179
		c2.243,0.145,4.518,0.227,6.841,0.227c2.6,0,5.133-0.098,7.633-0.291c2.743-0.211,5.422-0.533,8.004-0.953
		c3.809-0.629,7.438-1.484,10.812-2.533c2.694-0.824,5.244-1.775,7.584-2.842c10.894-4.924,17.799-12.154,17.799-20.193
		C106.839,21.971,99.932,14.737,89.039,9.814z M80.438,18.693h1.019h6.858v2.84l-6.858,2.356l-0.354,0.13l-0.437-0.855l0.791-0.291
		l3.84-1.34h-3.84h-1.019V18.693z M70.482,13.204c0.049,0,0.113,0,0.16,0c1.438,0.016,2.615,0.178,3.534,0.501
		c0.97,0.339,1.679,0.838,2.146,1.5c0.452,0.662,0.661,1.485,0.63,2.454c-0.032,0.968-0.322,2.099-0.84,3.406
		c-0.612,1.501-1.37,2.824-2.307,3.971c-0.791,0.969-1.839,1.791-3.164,2.454c-0.226,0.112-0.451,0.226-0.693,0.322
		c-1.661,0.711-3.711,1.082-6.18,1.082h-1.129h-2.39l2.39-5.908l3.952-9.782H70.482z M51.958,13.204h4.101l1.387,8.232l1.033-2.954
		l2.146-5.278h2.019h2.387l-2.387,5.908l-3.953,9.782h-4.502l-1.032-8.314l-3.39,8.314h-1.597h-2.163h-0.371l0.371-0.953
		l2.163-5.326L51.958,13.204z M40.422,14.512l0.919-1.308h4.663h0.388l-0.388,4.278l-1.016,11.412h-4.196l0.049-2.535h-0.419h-4.003
		l-1.29,2.535h-1.113h-3.228h-0.484l0.484-0.694l3.228-4.585L40.422,14.512z M26.964,13.204h3.824h0.484l-0.484,1.194L26.56,24.729
		h3.921l-1.646,4.165h-8.214L26.964,13.204z M23.641,39.307h-3.938h-3.937v-2.842l3.937-1.355l3.276-1.131l0.436,0.855l-3.712,1.309
		l-0.919,0.322h0.919h3.938V39.307z M35.806,40.145l0.969,6.394h-2.759h-2.679l-0.243-5.147l-0.306,0.741l-1.807,4.406h-4.793
		l6.454-15.69h0.146h3.228h2.565c1.227,0,2.194,0.194,2.888,0.565c0.437,0.226,0.76,0.549,0.953,0.952
		c0.113,0.242,0.192,0.5,0.226,0.791c0.08,0.564,0,1.227-0.226,2c-0.097,0.341-0.227,0.695-0.371,1.066
		C39.227,38.207,37.824,39.516,35.806,40.145z M55.444,38.725c-0.614,1.485-1.502,2.856-2.68,4.115
		c-1.161,1.26-2.452,2.244-3.889,2.987c-0.242,0.129-0.467,0.241-0.709,0.339c-0.743,0.322-1.453,0.531-2.163,0.662
		c-0.402,0.064-0.807,0.096-1.21,0.096c-1.291,0-2.355-0.371-3.162-1.097c-0.565-0.501-0.969-1.13-1.21-1.89
		c-0.113-0.338-0.178-0.711-0.227-1.099c-0.08-0.838,0-1.71,0.227-2.63c0.129-0.484,0.29-0.984,0.499-1.484
		c0.452-1.099,1.065-2.164,1.873-3.164c0.79-1.002,1.661-1.89,2.646-2.646c0.193-0.146,0.371-0.291,0.564-0.438
		c0.71-0.483,1.42-0.889,2.163-1.211c0.097-0.049,0.193-0.08,0.291-0.129c1.048-0.418,2.081-0.63,3.097-0.63
		c1.033,0,1.905,0.228,2.598,0.646c0.694,0.42,1.21,1.017,1.566,1.761c0.355,0.741,0.5,1.612,0.468,2.631
		C56.139,36.561,55.896,37.627,55.444,38.725z M61.495,46.537h-4.502l1.291-15.689h4.356h0.903l-0.903,5.617l-0.018,0.096
		l-0.871,3.713h0.096l0.793-1.307l1.387-2.309l3.906-5.813h2.709h2.469l-2.469,3.342l-8.002,10.799L61.495,46.537z M77.323,46.537
		h-6.681h-2.469l2.469-6.021l3.986-9.67h6.825h2.243l-1.76,4.295h-0.483h-3.808l-0.612,1.5h3.87l-1.66,4.021h-3.858l-0.677,1.646
		h4.357L77.323,46.537z M95.074,36.223c-0.823,1.984-2.227,3.293-4.229,3.922l0.969,6.394h-2.775h-2.663l-0.241-5.147l-2.13,5.147
		h-2.55h-2.242l2.242-5.455l4.211-10.235h3.373h2.582c1.227,0,2.178,0.194,2.872,0.565c0.692,0.371,1.082,0.952,1.192,1.743
		C95.783,33.963,95.591,34.979,95.074,36.223z"/>
	<path fill="#14552B" d="M55.008,0C24.705,0,0,13.479,0,30.008C0,46.521,24.705,60,55.008,60C85.295,60,110,46.521,110,30.008
		C110,13.479,85.295,0,55.008,0z M89.039,51.863c-2.355,1.05-4.891,1.986-7.584,2.81c-3.389,1.032-7.003,1.872-10.813,2.486
		c-2.582,0.435-5.26,0.758-8.002,0.968c-2.502,0.178-5.035,0.291-7.634,0.291c-2.323,0-4.598-0.082-6.841-0.242
		c-0.727-0.049-1.438-0.098-2.163-0.162c-1.888-0.177-3.759-0.402-5.582-0.678c-2.195-0.339-4.325-0.742-6.406-1.21
		c-1.099-0.259-2.162-0.517-3.228-0.808c-4.018-1.098-7.729-2.453-11.086-4.021c-11.099-5.214-18.12-12.832-18.12-21.29
		c0-8.475,7.021-16.094,18.121-21.291c3.356-1.582,7.068-2.938,11.086-4.035c1.065-0.275,2.129-0.55,3.228-0.809
		c2.081-0.467,4.211-0.87,6.406-1.21c1.823-0.273,3.694-0.5,5.582-0.662c0.726-0.064,1.437-0.129,2.163-0.177
		c2.243-0.162,4.518-0.242,6.841-0.242c2.6,0,5.133,0.112,7.633,0.307c2.743,0.21,5.422,0.533,8.004,0.952
		c3.809,0.613,7.422,1.453,10.812,2.502c2.694,0.808,5.228,1.743,7.584,2.793c11.827,5.213,19.381,13.091,19.381,21.872
		C108.42,38.771,100.866,46.648,89.039,51.863z"/>
	<polygon fill="#14552B" points="41.599,22.486 42.067,17.966 41.97,17.966 40.422,20.355 39.131,22.356 40.422,22.421 	"/>
</g>
</svg>
