<?xml version="1.0" encoding="utf-8"?>
<!-- Generator: Adobe Illustrator 17.0.0, SVG Export Plug-In . SVG Version: 6.00 Build 0)  -->
<!DOCTYPE svg PUBLIC "-//W3C//DTD SVG 1.1//EN" "http://www.w3.org/Graphics/SVG/1.1/DTD/svg11.dtd">
<svg version="1.1" id="Layer_1" xmlns="http://www.w3.org/2000/svg" xmlns:xlink="http://www.w3.org/1999/xlink" x="0px" y="0px"
	 width="300px" height="131.163px" viewBox="0 0 300 131.163" enable-background="new 0 0 300 131.163" xml:space="preserve">
<g>
	<path fill-rule="evenodd" clip-rule="evenodd" d="M5.557,123.61c-0.349,4.482-0.661,4.727-5.557,4.972v1.549h12.005v-1.549
		c-1.614,0-4.26-0.065-4.26-1.936c0-0.775,0.065-1.743,0.129-2.066l0.081-0.97H5.557L5.557,123.61z M17.746,123.61l2.778,6.521
		h1.485l2.86-6.521H17.746L17.746,123.61z M34.45,123.61l0.016,0.26c0.065,0.452,0.194,1.807,0.194,2.259
		c0,1.097-0.516,1.614-1.355,1.936c-0.968,0.387-2.517,0.452-3.614,0.516v1.549h14.78v-1.549c-4.558,0.193-4.646-1.084-4.901-4.972
		H34.45L34.45,123.61z M59.294,123.61c-0.266,0.668-0.496,1.261-0.69,1.745c-1.033,2.195-2.001,2.776-4.518,3.292v1.484H66.35
		v-1.549c-0.775-0.065-1.42-0.129-1.936-0.194c-1.355-0.258-2.84-0.581-2.84-2.259c0-0.797,0.175-1.681,0.407-2.522L59.294,123.61
		L59.294,123.61z M76.514,123.61c0.382,1.121,0.743,2.291,0.743,3.1c0,1.678-2.066,1.807-4.647,1.872v1.549h14.845v-1.549
		c-2.001-0.065-2.84-0.258-3.485-0.839c-0.71-0.646-1.226-2.259-1.549-3.098l-0.384-1.035H76.514L76.514,123.61z M98.209,123.61
		l0.799,6.908h1.42c0.065-0.452,0.194-0.646,0.774-0.646c0.258,0,0.516,0,0.839,0.129c1.807,0.517,2.84,0.775,3.679,0.968
		c0.839,0.129,1.42,0.194,2.323,0.194c5.321,0,8.855-3.412,9.411-7.557l-4.279,0.003c0.021,0.211,0.032,0.426,0.032,0.648
		c0,3.937-3.744,5.163-5.68,5.163c-1.344,0-5.234-0.694-7.397-5.807L98.209,123.61L98.209,123.61z M135.281,123.61v1.164
		c0,2.776-0.323,4.002-4.905,3.808v1.549h25.365l0.608-6.521h-1.818c-1.288,4.207-2.824,4.649-5.632,4.649h-5.293
		c-2.84,0-2.969,0-2.969-2.84v-1.809H135.281L135.281,123.61z M173.425,123.61v1.164c0,2.776-0.387,4.002-4.97,3.808v1.549h15.748
		v-1.549h-2.194c-2.84,0-3.227-0.775-3.227-4.712v-0.26H173.425L173.425,123.61z M186.638,123.61c0.279,0.483,0.51,0.87,0.663,1.099
		c2.904,4.453,6.454,6.132,10.908,5.938v-1.549c-2.461-0.492-3.69-1.336-5.812-5.494L186.638,123.61L186.638,123.61z
		 M210.458,123.61c-0.269,0.668-0.511,1.261-0.753,1.745c-1.033,2.195-2.001,2.776-4.518,3.292v1.484h12.328v-1.549
		c-0.774-0.065-1.42-0.129-2.001-0.194c-1.291-0.258-2.84-0.581-2.84-2.259c0-0.797,0.175-1.681,0.413-2.522L210.458,123.61
		L210.458,123.61z M227.637,123.61c0.405,1.121,0.721,2.291,0.721,3.1c0,1.678-2.001,1.807-4.647,1.872v1.549h14.845v-1.549
		c-1.936-0.065-2.84-0.258-3.421-0.839c-0.71-0.646-1.226-2.259-1.549-3.098l-0.386-1.035H227.637L227.637,123.61z M255.595,123.61
		v1.099c0,1.872-0.194,2.711-0.839,3.163c-0.387,0.258-0.904,0.387-1.678,0.516c-0.775,0.065-1.743,0.129-3.227,0.194v1.549h16.716
		v-1.549c-1.355-0.065-2.323-0.129-3.098-0.194c-0.775-0.129-1.291-0.258-1.678-0.516c-0.71-0.516-0.904-1.42-0.904-3.485v-0.777
		L255.595,123.61L255.595,123.61z M289.288,123.61c-0.084,1.539-0.276,3.226-0.712,3.939c-0.387,0.71-0.517,0.775-4.195,1.033v1.549
		H300v-1.549c-4.389-0.258-5.357-0.775-5.357-4.518v-0.454H289.288L289.288,123.61z"/>
	<path fill-rule="evenodd" clip-rule="evenodd" d="M7.955,123.61l1.597-19.232l8.194,19.232h7.123l8.435-19.232l1.146,19.231
		l5.119,0c-0.001-0.021-0.003-0.041-0.004-0.062l-1.162-17.685c-0.129-2.323-0.064-3.356,0.452-3.873
		c0.258-0.258,0.646-0.387,1.226-0.516c0.645-0.065,1.42-0.065,2.646-0.065V99.86H32.658l-9.875,22.59l-9.746-22.59H2.84v1.549
		c3.937,0.258,4.453,0.258,4.26,3.163l-1.484,18.266c-0.02,0.271-0.04,0.529-0.059,0.775L7.955,123.61L7.955,123.61z M61.98,123.61
		c0.256-0.931,0.582-1.807,0.82-2.451l1.549-3.937h9.875l2.065,5.744c0.074,0.212,0.15,0.429,0.225,0.648l5.523-0.005l-9.168-24.718
		h-5.357l0.774,2.13l-8.713,21.88c-0.097,0.242-0.19,0.476-0.278,0.701L61.98,123.61L61.98,123.61z M100.13,123.61
		c-0.122-0.284-0.238-0.585-0.348-0.901h-1.678l0.104,0.901H100.13L100.13,123.61z M117.455,123.61
		c0.051-0.383,0.077-0.769,0.077-1.16c0-2.582-1.033-4.518-2.388-6.067c-1.097-1.226-2.388-2.13-3.808-3.033
		c-1.743-1.162-3.227-2.13-4.389-2.904c-1.162-0.775-2.065-1.484-2.711-2.065c-1.291-1.162-1.678-2.065-1.678-3.485
		c0-2.194,1.936-4.195,4.583-4.195c3.421,0,5.809,2.388,7.293,6.261h1.614l-0.71-7.229h-1.485c-0.387,0.516-0.645,0.645-0.839,0.645
		c-0.258,0-1.678-0.645-2.065-0.774c-1.291-0.452-2.84-0.71-4.453-0.71c-4.195,0-8.326,3.292-8.326,7.81
		c0,2.711,1.162,5.486,7.358,9.294c4.659,2.844,7.333,4.497,7.649,7.617L117.455,123.61L117.455,123.61z M140.638,123.61v-7.937
		h6.841c3.421,0,3.873,0.194,4.066,4.002h1.614v-9.617h-1.614c-0.387,3.743-1.097,3.743-3.55,3.743h-7.358v-12.005h7.422
		c3.292,0,4.324,0.323,5.163,4.97h1.549l-0.323-6.906h-24.074v1.549c4.002-0.064,4.905,0.452,4.905,3.873v18.328H140.638
		L140.638,123.61z M156.349,123.61l0.102-1.095h-1.614c-0.101,0.389-0.202,0.751-0.306,1.09L156.349,123.61L156.349,123.61z
		 M178.782,123.61v-6.387h4.195c0.621,0.932,2.53,4.439,3.661,6.39l5.759-0.003c-0.104-0.21-0.211-0.422-0.32-0.643
		c-1.226-2.646-2.001-4.066-2.582-4.97c-0.452-0.645-0.968-1.162-1.549-1.743c0.517-0.193,1.162-0.387,1.807-0.71
		c3.033-1.42,4.712-3.679,4.712-7.229c0-8.842-11.23-8.842-13.619-8.842c-5.292,0-9.359,0.452-12.392,0.775v1.549
		c4.518,0.193,4.97,0.258,4.97,3.356v18.457H178.782L178.782,123.61z M213.088,123.61c0.264-0.931,0.606-1.807,0.877-2.451
		l1.549-3.937h9.875l2.001,5.744c0.085,0.212,0.168,0.429,0.247,0.648l5.562-0.005l-9.23-24.718h-5.357l0.775,2.13l-8.649,21.88
		c-0.097,0.242-0.19,0.476-0.28,0.701L213.088,123.61L213.088,123.61z M260.887,123.61v-21.813h5.615
		c2.582,0,3.55,0.064,4.647,5.099h1.614l-0.775-8.003h-1.226c-0.323,0.775-0.516,0.968-2.775,0.968h-19.298
		c-0.516,0-0.903,0-1.291,0c-0.839-0.065-1.291-0.129-1.743-0.968h-1.226l-0.645,8.003h1.484c0.581-1.743,0.839-2.711,1.097-3.356
		c0.258-0.645,0.517-0.968,0.904-1.226c0.516-0.387,1.355-0.516,3.292-0.516h5.034v21.813H260.887L260.887,123.61z M294.643,123.61
		v-16.263c0-5.034,0.065-5.744,5.164-5.938V99.86h-15.619v1.549c4.389,0.323,5.163,0.839,5.163,4.518v15.232
		c0,0.573-0.01,1.483-0.062,2.451L294.643,123.61L294.643,123.61z M220.613,104.249l3.873,10.779h-8.068L220.613,104.249
		L220.613,104.249z M181.687,101.215c3.034,0,7.229,1.614,7.229,7.229c0,3.55-1.355,5.293-2.904,6.132
		c-1.355,0.71-2.775,0.839-4.26,0.839h-2.969v-14.07C179.492,101.344,180.59,101.215,181.687,101.215L181.687,101.215z
		 M69.448,104.249l3.872,10.779h-8.068L69.448,104.249L69.448,104.249z"/>
	<path fill-rule="evenodd" clip-rule="evenodd" d="M169.725,55.185l-4.78-0.001c0,2.834,1.832,4.102,4.78,3.468V55.185
		L169.725,55.185z M169.915,44.698c0.022-0.669,0.365-9.788,2.507-16.96c2.346-7.864,7.061-12.533,6.743-13.01
		c-0.29-0.436-4.19,0.36-7.115,2.375c-3.121,2.147-6.184,5.693-5.958,5.959c0.138,0.162,1.191-0.715,3.092-1.424
		c2.019-0.754,2.904-0.613,2.904-0.613s-3.351,5.546-5.012,11.56c-1.392,5.033-2.116,11.549-2.155,12.114H169.915L169.915,44.698z
		 M130.085,44.698c-0.022-0.669-0.365-9.788-2.507-16.96c-2.346-7.864-7.061-12.533-6.743-13.01c0.29-0.436,4.19,0.36,7.115,2.375
		c3.121,2.147,6.184,5.693,5.958,5.959c-0.138,0.162-1.191-0.715-3.091-1.424c-2.019-0.754-2.904-0.613-2.904-0.613
		s3.351,5.546,5.012,11.56c1.392,5.033,2.116,11.549,2.155,12.114H130.085L130.085,44.698z M147.22,9.522
		c1.905-3.764,2.271-9.429,2.751-9.522c0.479,0.091,0.845,5.756,2.75,9.52c1.798,3.552,5.658,6.562,5.438,6.914
		c-0.275,0.441-2.412-0.663-3.488-1.165c-1.723-0.807-3.121-1.434-3.121-1.434s-0.688,9.028,1.507,17.323
		c1.799,6.803,6.103,13.004,6.494,13.543h-5.49l-0.503-0.858c-1.492-2.621-2.558-4.907-3.594-8.825
		c-1.036,3.918-2.091,6.205-3.583,8.826l-0.503,0.857h-5.49c0.391-0.539,4.695-6.739,6.494-13.542
		c2.194-8.295,1.507-17.323,1.507-17.323s-1.398,0.627-3.121,1.434c-1.076,0.502-3.213,1.606-3.488,1.165
		C141.562,16.084,145.422,13.073,147.22,9.522L147.22,9.522z M130.276,55.185l4.78-0.001c0,2.834-1.832,4.102-4.78,3.468V55.185
		L130.276,55.185z M156.942,57.36c-2.206,2.014-2.192,5.635-2.192,5.635l-4.751-0.002l-4.751,0.004c0,0,0.015-3.622-2.192-5.635
		c-1.545-1.411-3.429-1.706-3.429-1.706c-1.233-0.247-1.233-0.385-1.233-0.474h10.728h2.913h9.548c0,0.002,0,0.226-1.227,0.476
		C160.355,55.658,158.482,55.953,156.942,57.36L156.942,57.36z M127.911,45.93h44.048v1.656h-44.048V45.93L127.911,45.93z
		 M127.967,52.14h44.049v1.656h-44.049V52.14L127.967,52.14z M130.088,49.01H169.9v1.657h-39.812V49.01L130.088,49.01z
		 M144.924,68.947h10.133V75.8h-10.133V68.947L144.924,68.947z M143.294,64.353h13.394v3.302h-13.394V64.353L143.294,64.353z"/>
</g>
</svg>
