<?xml version="1.0" encoding="utf-8"?>
<!-- Generator: Adobe Illustrator 16.0.0, SVG Export Plug-In . SVG Version: 6.00 Build 0)  -->
<!DOCTYPE svg PUBLIC "-//W3C//DTD SVG 1.1//EN" "http://www.w3.org/Graphics/SVG/1.1/DTD/svg11.dtd">
<svg version="1.1" id="Layer_1" xmlns="http://www.w3.org/2000/svg" xmlns:xlink="http://www.w3.org/1999/xlink" x="0px" y="0px"
	 width="78px" height="80px" viewBox="0 0 78 80" enable-background="new 0 0 78 80" xml:space="preserve">
<path fill="#A0B2B0" d="M15.83,49.607c-2.109-1.289-2.78-2.924-5.984-4.234c-3.193-4.152-4.432-9.319-4.432-14.489
	c0-3.773,0.662-7.548,1.702-10.932l0,0l3.22,6.363l0,0c-0.192,1.415-0.277,2.947-0.277,4.583c0,21.084,14.085,25.338,28.94,25.292
	c14.856,0.047,28.94-4.207,28.94-25.292c0-2.164-0.146-4.15-0.428-5.973l0,0l2.303-4.707l0,0c1.211,2.995,1.869,6.837,1.793,10.7
	c-0.125,6.231-2.162,12.529-6.869,15.495l0,0l-0.764,1.125l-0.813,1.024l-0.87,0.953l-0.92,0.885L60.4,51.213l-1.019,0.745
	l-1.058,0.683l-1.102,0.617l-1.14,0.563l-1.175,0.5l-1.206,0.447l-1.236,0.396l-1.263,0.345l-1.29,0.297l-1.312,0.254l-1.33,0.211
	l-1.35,0.172l-1.363,0.133l-1.377,0.1l-1.389,0.066l-1.396,0.035h-2.798l-1.396-0.035l-1.387-0.066l-1.378-0.1l-1.363-0.133
	l-1.348-0.172l-1.334-0.211l-1.309-0.254l-1.29-0.297l-1.264-0.345l-1.236-0.396l-1.206-0.447l-1.173-0.5l-1.139-0.563l-1.103-0.617
	l-1.06-0.683l-1.017-0.745L16.624,50.4L15.83,49.607L15.83,49.607L15.83,49.607L15.83,49.607z M7.13,11.637L6.688,11.2l0,0
	c-3.794,4.567-6.179,10.917-6.179,19.698c0,26.584,21.85,30.896,38.49,30.896c16.644,0,38.492-4.312,38.492-30.896
	c0-8.781-2.388-15.131-6.181-19.698l0,0l-0.439,0.423l0,0c-0.081,2.324-0.484,4.731-0.82,7.005
	c1.659,3.556,2.446,7.779,2.559,12.271C72.854,44.104,66.093,57.979,39,58.882c-17.031-0.134-27.733-5.349-32.108-16.251
	c-2.895-1.824-4.31-5.191-5.65-8.456l0,0l-0.069-0.88L1.11,30.899l0.063-2.396l0.185-2.267l0.299-2.142l0.41-2.021l0.515-1.9
	l0.617-1.786l0.711-1.675l0.8-1.57l0.888-1.465l0.828-1.144l0,0c0.316,2.238,0.709,5.211,1.406,5.782
	c8.619,7.186,23.789,6.259,31.089,20.745c7.933-16.063,21.938-14.034,30.56-21.222l0,0l0.801-6.885l0,0
	c-10.051,10.792-23.715,7.131-31.359,23.27C30.681,18.381,17.207,22.291,7.13,11.637L7.13,11.637L7.13,11.637L7.13,11.637
	L7.13,11.637z M13.884,15.494c5.17-7.944,14.963-9.922,25.115-9.889c9.981-0.031,19.614,1.877,24.875,9.58l0,0l6.218-4.678
	l-0.001-0.002l0.369-0.278l0,0C62.654,1.802,49.743,0,38.999,0c-10.97,0-24.2,1.876-31.945,10.768l0,0l0.147,0.119l-0.002,0.002
	l0.214,0.171l0.106,0.087l0.001-0.001l0,0c1.672,1.627,3.521,3.333,5.395,4.306C13.219,15.585,13.562,15.637,13.884,15.494
	L13.884,15.494L13.884,15.494L13.884,15.494L13.884,15.494z M69.521,10.119l-2.805,1.747l0,0
	c-8.314-7.263-17.172-9.037-27.719-8.965c-10.654-0.072-20.003,1.811-28.207,9.563l0,0l-2.876-1.751L8.723,9.86l1.184-1.089
	l1.245-1.006l1.306-0.927l1.36-0.848l1.409-0.769l1.453-0.699l1.496-0.63l1.529-0.563l1.56-0.5l1.585-0.441l1.605-0.384l1.62-0.328
	l1.633-0.28l1.637-0.232l1.638-0.187l1.632-0.146l1.625-0.106l1.608-0.074l1.588-0.041l1.563-0.014l1.563,0.014l1.59,0.041
	l1.611,0.074l1.623,0.106l1.631,0.146l1.639,0.187l1.638,0.232l1.631,0.28l1.622,0.328L55.15,2.39l1.586,0.441l1.56,0.5l1.531,0.563
	l1.493,0.63l1.453,0.699l1.41,0.769l1.359,0.848l1.305,0.927l1.245,1.004l1.185,1.091L69.521,10.119L69.521,10.119L69.521,10.119
	L69.521,10.119z M38.918,43.951c-3.557-7.582-7.443-11.006-13.381-13.452l0,0l-14.86-4.975l-2.054-5.625l0,0
	c3.659,2.785,9.041,4.673,14.179,6.643c7.916,3.004,12.222,6.822,16.116,14.638l0,0V43.951L38.918,43.951L38.918,43.951
	L38.918,43.951z M38.918,43.951c3.559-7.582,7.445-11.494,13.383-13.94l0,0l14.696-5.219l2.045-5.445l0,0
	c-3.66,2.783-9.44,4.9-14.58,6.868c-7.917,3.005-11.647,7.149-15.544,14.965l0,0V43.951L38.918,43.951L38.918,43.951L38.918,43.951z
	 M64.816,20.107l0.908-0.474l0.885-0.502l0.855-0.54l0.828-0.582l0.615-0.483l0.574-4.933l-0.732,0.671l-1.014,0.841l-1.025,0.771
	l-1.043,0.71l-1.051,0.652l-1.063,0.605l-1.068,0.562l-1.072,0.526l-2.15,0.969l0,0c-1.771,0.748-3.552,1.473-5.326,2.23l0,0
	l-2.069,0.95l-1.017,0.51l-0.935,0.507l0,0c-2.431,2.057-3.647,4.053-4.146,6.16l0,0l0.66-0.535l1.01-0.74l1.022-0.683l1.034-0.63
	l1.044-0.582l1.05-0.54l1.055-0.503l1.056-0.471l2.11-0.859l0,0c2.047-0.786,4.108-1.529,6.144-2.338l0,0l0.976-0.403l0.953-0.422
	L64.816,20.107L64.816,20.107L64.816,20.107L64.816,20.107z M47.059,24.943l-0.11,0.076l-0.929,0.735l-0.906,0.8l-0.887,0.868
	l-0.25,0.272l0,0c-0.848,1.587-1.223,3.038-1.188,4.442l0,0l0.723-0.794l0.953-0.944l0.424-0.38l0,0
	C45.126,28.348,45.848,26.675,47.059,24.943L47.059,24.943L47.059,24.943L47.059,24.943L47.059,24.943z M25.582,22.445l-0.011-0.003
	l-2.088-0.906l0,0c-1.771-0.718-3.559-1.409-5.334-2.126l0,0l-2.151-0.93l-1.072-0.507L13.86,17.43l-1.059-0.59l-1.052-0.635
	l-1.039-0.693l-1.027-0.755L8.67,13.934l-0.995-0.897L6.989,12.35l0,0c0.127,0.863,0.256,1.721,0.394,2.577l0,0l0.159,0.876
	l0.177,0.79l0.19,0.646l0.186,0.439l0.166,0.217l0.756,0.596l0.838,0.588l0.874,0.556l0.902,0.521l0.938,0.496l0.964,0.469
	l0.987,0.45l2.043,0.856l0,0c2.147,0.849,4.31,1.659,6.451,2.521l0,0l2.188,0.94l1.087,0.506l1.083,0.54l1.071,0.574l1.059,0.615
	l0.568,0.36l0,0C28.816,26.415,27.23,24.427,25.582,22.445L25.582,22.445L25.582,22.445L25.582,22.445L25.582,22.445z"/>
<path fill="#007FC4" d="M30.098,76.389h-4.303l-0.163-0.004l-0.16-0.033l-0.15-0.063L25.187,76.2l-0.119-0.109l-0.095-0.13
	l-0.075-0.145l-0.042-0.156l-0.013-0.161l0.013-0.16l0.042-0.153l0.075-0.146l0.095-0.129l0.119-0.11l0.135-0.089l0.15-0.063
	l0.16-0.031l0.163-0.008l4.303,0.004V76.389L30.098,76.389L30.098,76.389L30.098,76.389z M45.195,66.544h-9.749v3.925h4.92
	L45.195,66.544L45.195,66.544L45.195,66.544L45.195,66.544z M38.601,80h9.749v-4.014h-4.521L38.601,80L38.601,80L38.601,80
	L38.601,80z M53.859,76.007v-5.479h3.41l0.281,0.007l0.286,0.026l0.279,0.045l0.276,0.058l0.188,0.063l0.172,0.092l0.152,0.119
	l0.137,0.142l0.111,0.194l0.096,0.23l0.079,0.254l0.058,0.277l0.045,0.294l0.047,0.306l0.014,0.324v0.337l-0.014,0.323l-0.031,0.309
	l-0.029,0.307l-0.059,0.293l-0.073,0.277l-0.074,0.25l-0.103,0.219l-0.121,0.179l-0.115,0.146l-0.122,0.116l-0.166,0.089
	L58.4,75.872l-0.193,0.058l-0.21,0.043l-0.229,0.021l-0.246,0.009l-0.25,0.002L53.859,76.007L53.859,76.007L53.859,76.007
	L53.859,76.007z M73.463,74.598v1.795h-4.195l-0.188-0.006l-0.183-0.043l-0.166-0.078l-0.147-0.111l-0.123-0.139l-0.092-0.16
	l-0.056-0.178l-0.021-0.183l0.021-0.183l0.056-0.178l0.091-0.162l0.12-0.14l0.151-0.108l0.166-0.078l0.181-0.045l0.188-0.004H73.463
	L73.463,74.598L73.463,74.598L73.463,74.598z M49.266,80h10.338l0.392-0.021l0.386-0.057l0.381-0.092l0.367-0.123l0.355-0.159
	l0.339-0.188l0.321-0.223l0.313-0.261l0.288-0.288l0.261-0.314l0.185-0.274l0.166-0.286l0.141-0.297l0.115-0.307l0.098-0.318
	l0.077,0.285l0.101,0.279l0.119,0.268l0.141,0.264l0.153,0.252l0.175,0.24l0.188,0.227l0.208,0.213l0.218,0.197l0.235,0.182
	l0.247,0.164l0.258,0.15l0.268,0.129l0.274,0.109l0.282,0.093l0.291,0.069l0.289,0.052l0.297,0.028L67.828,80H78v-9.115
	l-0.008-0.313l-0.032-0.311l-0.056-0.305l-0.075-0.303l-0.101-0.297l-0.121-0.285l-0.142-0.277l-0.161-0.266l-0.181-0.256
	l-0.2-0.238l-0.214-0.225L76.477,67.6l-0.248-0.193l-0.262-0.172l-0.27-0.152l-0.284-0.132l-0.289-0.113l-0.304-0.09l-0.303-0.069
	l-0.311-0.047l-0.313-0.023h-9.371v3.639h7.557l0.193,0.009l0.187,0.073l0.149,0.124l0.101,0.169l0.037,0.191l-0.024,0.192
	l-0.092,0.175l-0.143,0.135l-0.176,0.084l-0.195,0.021h-4.313l-0.312,0.012l-0.312,0.031l-0.31,0.057l-0.302,0.078l-0.295,0.1
	L65.99,71.82l-0.275,0.143l-0.267,0.162l-0.253,0.18l-0.241,0.199l-0.224,0.219l-0.205,0.231l-0.189,0.243l-0.172,0.264l-0.039-1.07
	l-0.023-0.31l-0.021-0.323l-0.024-0.402l-0.045-0.399l-0.063-0.399l-0.081-0.394l-0.089-0.323l-0.107-0.316L63.55,69.21
	l-0.133-0.308l-0.167-0.278l-0.186-0.263l-0.205-0.248l-0.219-0.223l-0.236-0.207l-0.246-0.19l-0.262-0.175l-0.271-0.153
	l-0.284-0.14l-0.291-0.114l-0.304-0.108l-0.314-0.084l-0.318-0.07L59.794,66.6h-0.362H47.01l-12.362,9.774v-5.505l-0.016-0.354
	l-0.047-0.347l-0.072-0.347l-0.102-0.338l-0.131-0.328l-0.153-0.316l-0.18-0.304l-0.204-0.289l-0.227-0.269l-0.247-0.254L33,67.493
	l-0.288-0.207L32.41,67.1l-0.314-0.158l-0.328-0.137l-0.337-0.107l-0.347-0.08l-0.349-0.055l-0.356-0.022l-0.356,0.005h-8.916v3.699
	h8.244l0.124,0.003l0.123,0.026l0.112,0.052l0.1,0.075l0.083,0.093l0.062,0.106l0.041,0.114l0.01,0.123l-0.01,0.127l-0.041,0.114
	l-0.062,0.107l-0.083,0.092l-0.1,0.076l-0.112,0.051l-0.123,0.027l-0.124,0.002l-4.994,0.006l-0.349,0.014l-0.342,0.044
	l-0.343,0.065l-0.335,0.1l-0.323,0.119l-0.314,0.146l-0.302,0.174L21.765,72.3l-0.271,0.216l-0.247,0.239l-0.233,0.255l-0.209,0.278
	l-0.189,0.29l-0.162,0.306v-2.838l-0.008-0.502l-0.066-0.495l-0.123-0.484l-0.179-0.469l-0.23-0.445l-0.282-0.412l-0.33-0.383
	l-0.371-0.338l-0.407-0.297l-0.437-0.244l-0.468-0.197l-0.482-0.141l-0.497-0.084l-0.503-0.027H0v13.449h4.591v-9.391h3.364v9.391
	h4.472v-9.391h2.165l0.212,0.02l0.202,0.058l0.194,0.09l0.171,0.124l0.146,0.154l0.116,0.177l0.081,0.19l0.048,0.205l0.007,0.215
	v8.158h4.684v-2.386l0.16,0.306l0.185,0.289l0.206,0.279l0.23,0.256l0.254,0.237l0.27,0.218l0.288,0.194l0.302,0.17l0.314,0.142
	l0.324,0.119l0.339,0.092l0.343,0.063l0.342,0.033l0.349,0.008L36.642,80l12.624-9.932V80L49.266,80L49.266,80L49.266,80z"/>
</svg>
