<?xml version="1.0" encoding="utf-8"?>
<!-- Generator: Adobe Illustrator 16.0.0, SVG Export Plug-In . SVG Version: 6.00 Build 0)  -->
<!DOCTYPE svg PUBLIC "-//W3C//DTD SVG 1.1//EN" "http://www.w3.org/Graphics/SVG/1.1/DTD/svg11.dtd">
<svg version="1.1" id="Layer_1" xmlns="http://www.w3.org/2000/svg" xmlns:xlink="http://www.w3.org/1999/xlink" x="0px" y="0px"
	 width="164px" height="90px" viewBox="0 0 164 90" enable-background="new 0 0 164 90" xml:space="preserve">
<g>
	<g>
		<rect x="105.302" y="81.66" width="6.117" height="1.422"/>
		<path d="M3.698,73.064L3.157,87.268v0.256c0,1.195,0.371,1.451,2.277,1.594v0.655
			C4.04,89.658,3.499,89.63,2.731,89.63s-1.309,0.028-2.732,0.143v-0.655c1.906-0.143,2.191-0.37,2.248-1.85l0.57-13.435V73.69
			c0-1.281-0.4-1.538-2.277-1.649v-0.684c1.053,0.085,1.48,0.113,2.248,0.113c0.996,0,1.564-0.028,2.59-0.143L10.47,85.16
			l5.18-13.832c1.223,0.114,1.791,0.143,2.617,0.143c0.684,0,1.109-0.028,2.162-0.113v0.684c-1.877,0.111-2.275,0.368-2.275,1.621
			v0.171l0.313,13.435c0,1.479,0.256,1.707,2.219,1.85v0.655c-1.707-0.171-2.361-0.229-3.414-0.229
			c-1.023,0-1.678,0.058-3.414,0.229v-0.655c1.85-0.114,2.275-0.428,2.275-1.707v-0.143l-0.256-14.175L11.38,85.304l-0.34,0.91
			l-0.371,0.997L10.3,88.263l-0.285,0.911H9.589l-0.285-0.883l-0.398-1.08l-0.369-1.055l-0.342-0.968L3.698,73.064z"/>
		<path d="M27.2,77.164c0.029,0,0.086,0,0.113,0c1.766,0,2.676,1.536,2.846,4.753H27.2v0.995h5.15
			c-0.059-4.212-1.793-6.461-5.008-6.461c-0.057,0-0.086,0-0.143,0V77.164L27.2,77.164z M27.2,89.972v-0.94
			c0.199,0.029,0.398,0.058,0.598,0.058c1.936,0,3.158-1.252,3.471-3.585h1.109C32.009,88.319,30.274,90,27.599,90
			C27.456,90,27.313,89.972,27.2,89.972z M24.241,81.917c0.285-3.074,1.281-4.696,2.959-4.753v-0.713
			c-3.186,0.058-5.207,2.704-5.207,6.859c0,4.071,1.906,6.49,5.207,6.661v-0.94c-2.049-0.284-2.986-2.22-3.016-6.119H27.2v-0.995
			H24.241z"/>
		<path d="M33.972,77.446v-0.482c1.564-0.142,2.477-0.313,3.613-0.626c0.143,0.997,0.199,1.452,0.258,2.276v0.285
			c0.596-1.564,1.762-2.448,3.186-2.448c1.365,0,2.391,0.884,2.391,2.221c0,0.769-0.484,1.31-1.168,1.31
			c-0.625,0-1.109-0.398-1.109-0.939c0-0.058,0.029-0.171,0.057-0.285l0.057-0.256v-0.257c0-0.37-0.34-0.655-0.824-0.655
			c-1.422,0-2.334,1.737-2.334,4.441v5.722c0,1.166,0.285,1.394,1.936,1.479v0.542c-1.48-0.143-2.076-0.171-3.016-0.171
			c-0.996,0-1.564,0.028-3.072,0.171V89.23c1.678-0.085,1.963-0.313,1.963-1.479v-8.511v-0.456c-0.029-1.168-0.17-1.309-1.566-1.339
			H33.972z"/>
		<path d="M53.86,76.195v4.525h-0.598c-0.484-2.391-1.508-3.53-3.158-3.53c-2.049,0-3.271,2.222-3.271,6.12
			c0,3.843,1.08,5.778,3.186,5.778c1.68,0,2.703-1.225,3.016-3.615h1.139C53.804,88.405,52.267,90,49.792,90
			c-3.158,0-5.32-2.704-5.32-6.689c0-4.069,2.189-6.859,5.406-6.859c1.166,0,1.904,0.285,2.787,1.138l0.74-1.394H53.86z"/>
		<path d="M61.315,77.164c0.027,0,0.084,0,0.113,0c1.764,0,2.674,1.536,2.846,4.753h-2.959v0.995h5.15
			c-0.059-4.212-1.793-6.461-5.008-6.461c-0.059,0-0.086,0-0.143,0V77.164L61.315,77.164z M61.315,89.972v-0.94
			c0.199,0.029,0.398,0.058,0.596,0.058c1.936,0,3.16-1.252,3.473-3.585h1.109C66.124,88.319,64.388,90,61.685,90
			C61.571,90,61.429,89.972,61.315,89.972z M58.356,81.917c0.283-3.074,1.279-4.696,2.959-4.753v-0.713
			c-3.215,0.058-5.207,2.704-5.207,6.859c0,4.071,1.906,6.49,5.207,6.661v-0.94c-2.078-0.284-2.988-2.22-3.016-6.119h3.016v-0.995
			H58.356z"/>
		<path d="M74.034,89.26h-0.029V90c1.451-0.059,2.447-0.77,3.158-2.22c0.113,1.023,0.113,1.138,0.398,2.191
			c1.109-0.37,1.594-0.484,3.186-0.684l0.428-0.028v-0.484c-1.85-0.057-1.992-0.199-1.992-1.85V71.129
			c-1.365,0.37-2.617,0.57-4.154,0.741v0.483c1.736,0,1.963,0.171,1.963,1.594v4.781c-0.938-1.508-1.707-2.049-2.986-2.105v0.74
			c1.992,0.055,3.016,2.134,3.016,6.118C77.021,87.268,75.997,89.26,74.034,89.26z M74.005,89.26
			c-1.936-0.029-2.988-2.078-2.988-5.978c0-3.956,0.969-5.919,2.932-5.919c0.027,0,0.057,0,0.057,0v-0.74
			c-0.086,0-0.199-0.029-0.313-0.029c-2.902,0-4.98,2.79-4.98,6.717c0,3.929,2.078,6.689,5.066,6.689c0.084,0,0.17,0,0.227,0V89.26z
			"/>
		<path d="M87.378,77.164c0.027,0,0.057,0,0.113,0c1.764,0,2.674,1.536,2.846,4.753h-2.959v0.995h5.148
			c-0.057-4.212-1.791-6.461-5.008-6.461c-0.057,0-0.113,0-0.141,0V77.164L87.378,77.164z M87.378,89.972v-0.94
			c0.199,0.029,0.398,0.058,0.598,0.058c1.934,0,3.158-1.252,3.471-3.585h1.109C92.187,88.319,90.45,90,87.747,90
			C87.634,90,87.491,89.972,87.378,89.972z M84.419,81.917c0.256-3.074,1.281-4.696,2.959-4.753v-0.713
			c-3.215,0.058-5.18,2.704-5.18,6.859c0,4.071,1.879,6.49,5.18,6.661v-0.94c-2.078-0.284-2.988-2.22-3.018-6.119h3.018v-0.995
			H84.419z"/>
		<path d="M94.831,90v-4.556l0.598-0.028c0.514,2.477,1.65,3.701,3.559,3.701c1.621,0,2.816-1.081,2.816-2.477
			c0-0.911-0.514-1.564-1.85-2.162l-1.053-0.456l-1.252-0.569c-1.992-0.938-2.619-1.707-2.619-3.303c0-2.162,1.68-3.613,4.098-3.613
			c1.082,0,1.85,0.228,2.789,0.853l0.455-1.108h0.512v4.239h-0.625c-0.256-2.19-1.168-3.243-2.875-3.243
			c-1.451,0-2.588,0.995-2.588,2.277c0,1.108,0.426,1.45,2.902,2.562l1.166,0.483c2.076,0.91,2.816,1.765,2.816,3.387
			c0,2.305-1.85,3.955-4.41,3.955c-1.252,0-2.248-0.34-3.271-1.166L95.315,90H94.831z"/>
		<path d="M119.528,80.606c1.053,0.057,1.707,0.313,2.248,0.854c0.627,0.627,0.996,1.793,0.996,3.103
			c0,2.533-1.168,4.013-3.244,4.24v0.854c1.48-0.057,2.418-0.342,3.387-0.939c1.365-0.854,2.275-2.533,2.275-4.27
			c0-1.48-0.625-2.817-1.678-3.644c-0.598-0.427-1.195-0.684-2.162-0.854c1.963-0.738,2.986-2.134,2.986-4.069
			c0-1.424-0.598-2.675-1.621-3.473c-0.826-0.597-1.764-0.91-3.188-0.967v0.911c1.65,0.283,2.391,1.423,2.391,3.586
			c0,1.281-0.314,2.162-0.91,2.874c-0.371,0.456-0.826,0.684-1.48,0.826V80.606z M118.874,80.578c0.229,0,0.455,0,0.654,0.028V79.64
			c-0.398,0.056-0.824,0.086-1.393,0.086h-1.85v-7.429h2.332c0.313,0,0.627,0,0.91,0.057v-0.911c-0.199,0-0.398,0-0.598,0h-7.197
			v0.684c1.963,0.114,2.248,0.312,2.248,1.793v13.263c0,1.479-0.229,1.679-2.248,1.85v0.655h6.914c0.313,0,0.598,0,0.881-0.028
			v-0.854c-0.199,0.028-0.369,0.028-0.568,0.028h-0.996c-1.451,0-1.678-0.228-1.678-1.422v-6.832H118.874z"/>
		<path d="M132.616,77.164c0.029,0,0.057,0,0.115,0c1.764,0,2.674,1.536,2.844,4.753h-2.959v0.995h5.15
			c-0.057-4.212-1.793-6.461-5.008-6.461c-0.057,0-0.113,0-0.143,0V77.164L132.616,77.164z M132.616,89.972v-0.94
			c0.199,0.029,0.398,0.058,0.6,0.058c1.934,0,3.158-1.252,3.469-3.585h1.111C137.425,88.319,135.69,90,132.987,90
			C132.874,90,132.731,89.972,132.616,89.972z M129.657,81.917c0.256-3.074,1.281-4.696,2.959-4.753v-0.713
			c-3.215,0.058-5.205,2.704-5.205,6.859c0,4.071,1.904,6.49,5.205,6.661v-0.94c-2.076-0.284-2.986-2.22-3.016-6.119h3.016v-0.995
			H129.657z"/>
		<path d="M139.19,77.563v-0.456c1.592-0.228,2.531-0.455,3.611-0.825c0.143,0.626,0.229,1.336,0.285,2.391
			c0.996-1.481,2.105-2.135,3.699-2.135c1.621,0,3.045,0.826,3.613,2.163c0.256,0.684,0.398,1.422,0.398,2.476v6.576
			c0,1.166,0.285,1.394,1.936,1.479v0.542c-1.451-0.143-1.992-0.171-2.959-0.171c-1.025,0-1.564,0.028-2.988,0.171V89.23
			c1.48-0.057,1.82-0.341,1.82-1.422v-6.718c0-2.391-0.711-3.329-2.445-3.329c-1.879,0-2.846,1.166-2.846,3.414v6.633
			c0,1.081,0.342,1.365,1.764,1.422v0.542c-1.422-0.143-1.963-0.171-2.959-0.171c-0.939,0-1.508,0.028-2.93,0.171V89.23
			c1.648-0.085,1.934-0.313,1.934-1.479v-8.454v-0.427c-0.029-1.109-0.199-1.282-1.564-1.282
			C139.474,77.589,139.333,77.563,139.19,77.563z"/>
		<path d="M153.813,89.687l7.398-12.21h-3.357c-1.793,0-2.219,0.397-3.217,2.845h-0.539l0.625-3.557h9.275v0.229
			l-7.283,11.981h3.188c1.848,0,2.617-0.74,3.443-3.217h0.568l-0.711,3.929H153.813z"/>
	</g>
	<g>
		<path d="M93.864,3.103C90.052,1.11,85.755,0,81.204,0c-4.582,0-8.906,1.11-12.691,3.103
			C59.778,7.685,53.831,16.82,53.831,27.352c0,10.53,5.947,19.694,14.682,24.278c3.785,1.964,8.109,3.103,12.691,3.103
			c4.551,0,8.848-1.139,12.66-3.131c8.707-4.556,14.654-13.72,14.654-24.25C108.519,16.82,102.571,7.685,93.864,3.103z
			 M56.563,27.352c0-8.965,4.779-16.792,11.949-21.119c3.5-2.106,7.57-3.357,11.951-3.5l-3.102,22.399l-8.85,6.915l-8.99,7.031
			C57.644,35.605,56.563,31.593,56.563,27.352z M93.864,48.471C90.138,50.719,85.812,52,81.204,52
			c-4.639,0-8.992-1.281-12.691-3.529c-3.328-1.992-6.117-4.753-8.164-8.027l8.164-3.356l12.635-5.181l12.717,5.15l8.195,3.33
			C100.011,43.688,97.194,46.479,93.864,48.471z M93.864,31.99l-8.791-6.858L81.942,2.732c4.324,0.143,8.422,1.394,11.922,3.5
			c7.143,4.327,11.922,12.183,11.922,21.119c0,4.241-1.053,8.197-2.93,11.67L93.864,31.99z"/>
	</g>
</g>
</svg>
