<?xml version="1.0" encoding="utf-8"?>
<!-- Generator: Adobe Illustrator 16.0.0, SVG Export Plug-In . SVG Version: 6.00 Build 0)  -->
<!DOCTYPE svg PUBLIC "-//W3C//DTD SVG 1.1//EN" "http://www.w3.org/Graphics/SVG/1.1/DTD/svg11.dtd">
<svg version="1.1" id="Layer_1" xmlns="http://www.w3.org/2000/svg" xmlns:xlink="http://www.w3.org/1999/xlink" x="0px" y="0px"
	 width="142px" height="60px" viewBox="0 0 142 60" enable-background="new 0 0 142 60" xml:space="preserve">
<g>
	<path d="M71.086,5.191c-13.657,0-24.729,11.108-24.729,24.808c0,13.702,11.072,24.81,24.729,24.81
		c13.659,0,24.73-11.106,24.73-24.81C95.816,16.3,84.745,5.191,71.086,5.191z M71.086,52.963c-12.642,0-22.89-10.281-22.89-22.964
		c0-12.68,10.248-22.962,22.89-22.962c12.643,0,22.893,10.282,22.893,22.962C93.979,42.682,83.729,52.963,71.086,52.963z"/>
	<path d="M141.988,15.182H97.098C91.951,6.115,82.23,0,71.086,0c-11.145,0-20.864,6.115-26.01,15.182h-1.815H0.011H0
		c0,0,1.339,1.892,3.845,4.937h0.012c1.124,1.365,2.484,2.965,4.063,4.73H7.91c1.468,1.641,3.125,3.424,4.959,5.297h0.01
		c1.496,1.527,3.107,3.113,4.832,4.73h-0.012c1.858,1.744,3.843,3.521,5.947,5.299h0.011c1.879,1.587,3.853,3.173,5.916,4.731
		h-0.011c2.319,1.752,4.753,3.471,7.289,5.121h0.011h7.971h3.988C54.295,56.148,62.242,60,71.086,60
		c8.846,0,16.793-3.852,22.268-9.973h11.785h0.012C127.689,35.374,142,15.182,142,15.182H141.988z M100.555,24.849
		c-0.281-1.627-0.691-3.207-1.223-4.73h37.825c-1.15,1.385-2.521,2.982-4.101,4.73H100.555z M99.229,40.175h17.932
		c-1.985,1.654-3.988,3.231-6.003,4.731h-14.11C97.904,43.404,98.637,41.822,99.229,40.175z M4.854,20.118h37.987
		c-0.53,1.523-0.941,3.104-1.222,4.73H8.952C7.376,23.103,6.005,21.503,4.854,20.118z M13.957,30.146h27.224
		c0.007,1.609,0.142,3.191,0.393,4.73H18.836C17.187,33.346,15.558,31.766,13.957,30.146z M24.852,40.175h18.093
		c0.592,1.647,1.323,3.229,2.183,4.731H30.854C28.84,43.406,26.837,41.829,24.852,40.175z M71.086,55.963
		c-14.293,0-25.88-11.623-25.88-25.964c0-14.338,11.587-25.962,25.88-25.962c14.295,0,25.881,11.624,25.881,25.962
		C96.967,44.34,85.381,55.963,71.086,55.963z M123.175,34.876H100.6c0.252-1.539,0.385-3.121,0.393-4.73h27.063
		C126.453,31.766,124.824,33.346,123.175,34.876z"/>
	<rect x="67.957" y="23.651" width="3.129" height="12.844"/>
	<path d="M61.999,23.651h-0.315l-3.629,8.46l-3.327-8.46h-3.532v12.844h2.683c0,0,0-5.175,0-7.73l3.065,7.73h1.84L62,28.94v7.555
		h3.153V23.651h-3.077H61.999z"/>
	<polygon points="82.18,31.458 82.18,31.464 76.193,23.651 73.85,23.651 73.85,36.495 76.534,36.495 76.534,28.749 82.482,36.495 
		84.9,36.495 84.9,23.651 82.18,23.651 	"/>
	<rect x="87.711" y="23.651" width="3.128" height="12.844"/>
</g>
</svg>
