<?xml version="1.0" encoding="utf-8"?>
<!-- Generator: Adobe Illustrator 16.0.0, SVG Export Plug-In . SVG Version: 6.00 Build 0)  -->
<!DOCTYPE svg PUBLIC "-//W3C//DTD SVG 1.1//EN" "http://www.w3.org/Graphics/SVG/1.1/DTD/svg11.dtd">
<svg version="1.1" id="Layer_1" xmlns="http://www.w3.org/2000/svg" xmlns:xlink="http://www.w3.org/1999/xlink" x="0px" y="0px"
	 width="82px" height="90px" viewBox="0 0 82 90" enable-background="new 0 0 82 90" xml:space="preserve">
<g>
	<polygon fill="#EA0104" points="40.946,47.609 27.297,23.859 40.946,0 54.698,23.859 	"/>
	<polygon fill="#EA0104" points="54.698,71.374 40.946,47.609 68.357,47.609 82,71.374 	"/>
	<polygon fill="#EA0104" points="27.297,71.374 0,71.374 13.653,47.609 40.946,47.609 	"/>
</g>
<g>
	<polygon points="12.647,89.697 12.647,82.242 10.099,87.659 7.666,82.242 7.666,89.697 5.639,89.697 5.639,78.262 7.875,78.262 
		10.099,83.471 12.446,78.262 14.678,78.262 14.678,89.697 	"/>
	<rect x="16.503" y="78.262" width="2.028" height="11.438"/>
	<polygon points="23.922,80.001 23.922,89.697 21.887,89.697 21.887,80.001 19.454,80.001 19.454,78.262 26.355,78.262 
		26.355,80.001 	"/>
	<path d="M30.109,90c-2.639,0-3.55-1.734-3.651-3.875h1.932c0,1.02,0.51,2.036,1.72,2.036c1.025,0,1.629-0.502,1.629-1.324
		c0-0.712-0.505-1.022-2.642-2.25c-1.522-0.912-2.537-1.836-2.537-3.465c0-1.737,1.116-2.963,3.455-2.963
		c2.54,0,3.454,1.635,3.558,3.577h-2.031c0-0.924-0.509-1.842-1.526-1.842c-0.918,0-1.424,0.404-1.424,1.127
		c0,0.813,0.611,1.221,2.232,2.037c1.826,1.021,2.946,1.84,2.946,3.676C33.77,88.884,32.046,90,30.109,90"/>
	<path d="M38.584,89.898c-1.83,0-3.959-0.715-3.959-3.777v-7.859h2.027v7.859c0,1.229,0.606,1.938,1.932,1.938
		c1.112,0,1.724-0.709,1.724-1.938v-7.859h2.034v7.859C42.342,89.086,40.308,89.898,38.584,89.898"/>
	<path d="M47.218,84.691h-0.813v-1.836h0.813c1.013,0,1.624-0.403,1.624-1.428c0-1.023-0.705-1.428-1.624-1.428h-1.53v7.957h1.629
		c1.115,0,1.83-0.51,1.83-1.736C49.146,85.105,48.432,84.691,47.218,84.691 M47.824,89.697h-4.157V78.262h3.75
		c2.131,0,3.456,1.023,3.456,2.86c0,1.528-1.124,2.444-1.629,2.553c0.714,0.205,2.039,1.019,2.039,2.854
		C51.283,88.37,49.855,89.697,47.824,89.697"/>
	<polygon points="70.374,89.697 70.374,84.691 66.206,84.691 66.206,89.697 64.08,89.697 64.08,78.262 66.206,78.262 66.206,82.751 
		70.271,82.751 70.271,78.262 72.4,78.262 72.4,89.697 	"/>
	<rect x="52.398" y="78.262" width="2.026" height="11.438"/>
	<rect x="74.334" y="78.262" width="2.025" height="11.438"/>
	<path d="M59.398,89.798c-2.639,0-3.553-1.637-3.656-3.879h1.933c0,1.019,0.509,2.142,1.724,2.142c1.022,0,1.625-0.511,1.625-1.324
		c0-0.717-0.5-1.125-2.635-2.346c-1.525-0.822-2.543-1.74-2.543-3.369c0-1.735,1.12-2.967,3.454-2.967
		c2.54,0,3.459,1.639,3.554,3.573H60.93c-0.106-1.021-0.611-1.834-1.63-1.834c-0.812,0-1.419,0.408-1.419,1.124
		c0,0.71,0.607,1.12,2.239,2.036c1.817,1.026,2.94,1.737,2.94,3.68C63.063,88.675,61.335,89.798,59.398,89.798"/>
</g>
</svg>
