<?xml version="1.0" encoding="utf-8"?>
<!-- Generator: Adobe Illustrator 16.0.0, SVG Export Plug-In . SVG Version: 6.00 Build 0)  -->
<!DOCTYPE svg PUBLIC "-//W3C//DTD SVG 1.1//EN" "http://www.w3.org/Graphics/SVG/1.1/DTD/svg11.dtd">
<svg version="1.1" id="Layer_1" xmlns="http://www.w3.org/2000/svg" xmlns:xlink="http://www.w3.org/1999/xlink" x="0px" y="0px"
	 width="140px" height="20px" viewBox="0 0 140 20" enable-background="new 0 0 140 20" xml:space="preserve">
<path fill="#BC0232" d="M28.353,0h4.884c0.267,0,0.482,0.217,0.482,0.484v18.862c0,0.268-0.216,0.484-0.482,0.484h-4.884
	c-0.267,0-0.483-0.217-0.483-0.484V0.484C27.869,0.217,28.086,0,28.353,0 M0.482,0.161h7.34c0.269,0,1.335,0.112,1.96,1.081
	l9.176,14.283V0.646c0-0.268,0.215-0.484,0.483-0.484h4.183c0.267,0,0.483,0.217,0.483,0.484v18.862
	c0,0.268-0.217,0.484-0.483,0.484L16.475,20c-0.268,0-1.715-0.006-2.366-1.188L5.213,4.902v14.605c0,0.267-0.216,0.484-0.482,0.484
	H0.482C0.216,19.992,0,19.773,0,19.508V0.646C0,0.378,0.216,0.161,0.482,0.161z M116.311,0.161l7.405-0.003
	c0.267,0,1.335,0.115,1.958,1.084l9.178,14.283V0.646c0-0.268,0.217-0.484,0.481-0.484h4.185c0.267,0,0.482,0.217,0.482,0.484
	v18.862c0,0.268-0.217,0.484-0.482,0.484l-7.149-0.004c-0.269,0-1.714,0.006-2.367-1.178l-8.896-13.909v14.605
	c0,0.267-0.217,0.483-0.481,0.483h-4.313c-0.268,0-0.482-0.217-0.482-0.483V0.646C115.827,0.378,116.043,0.161,116.311,0.161z
	 M95.623,11.904h8.01l-3.27-7.304h-1.473L95.623,11.904z M105.441,15.945H93.813l-1.58,3.529c-0.119,0.27-0.435,0.485-0.698,0.485
	h-4.886c-0.268,0-0.385-0.217-0.266-0.485l8.442-18.861c0.12-0.268,0.435-0.484,0.7-0.484h8.203c0.268,0,0.578,0.217,0.698,0.484
	l8.443,18.861c0.12,0.27,0.001,0.485-0.265,0.485h-4.885c-0.268,0-0.58-0.217-0.701-0.485L105.441,15.945z M58.591,4.526H44.1
	c-0.355,0-0.644,0.29-0.644,0.646v1.12c0,0.351,0.278,0.636,0.626,0.646c0,0.003,11.963,1.13,12.023,1.177
	c2.123,0.437,3.719,2.452,3.719,4.713v2.162c0,2.723-1.389,5.003-6.086,5.003H38.217c-0.225,0-0.409-0.185-0.409-0.41v-3.612
	c0-0.227,0.185-0.41,0.409-0.41h15.258c0.348-0.008,0.626-0.295,0.626-0.646v-1.521c0-0.357-0.287-0.647-0.643-0.647L42.363,11.79
	c-0.029-0.001-0.057-0.007-0.084-0.017c-2.485-0.098-4.472-1.895-4.472-4.416V5.165c0-2.725,2.168-4.942,4.864-5.005L58.59,0.161
	c0.228,0,0.41,0.184,0.41,0.409v3.548C59.001,4.344,58.818,4.526,58.591,4.526z M83.682,4.526H69.188
	c-0.354,0-0.643,0.29-0.643,0.646v1.12c0,0.351,0.279,0.636,0.626,0.646c0,0.003,11.963,1.13,12.022,1.177
	c2.123,0.437,3.719,2.452,3.719,4.713v2.162c0,2.723-1.389,5.003-6.085,5.003H63.306c-0.225,0-0.408-0.185-0.408-0.41v-3.612
	c0-0.227,0.184-0.41,0.408-0.41h15.258c0.349-0.008,0.627-0.295,0.627-0.646v-1.521c0-0.357-0.289-0.647-0.646-0.647L67.453,11.79
	c-0.029-0.001-0.058-0.007-0.085-0.017c-2.484-0.098-4.471-1.895-4.471-4.416V5.165c0-2.725,2.168-4.942,4.864-5.005L83.68,0.161
	c0.227,0,0.409,0.184,0.409,0.409v3.548C84.09,4.344,83.906,4.526,83.682,4.526z"/>
</svg>
