<?xml version="1.0" encoding="utf-8"?>
<!-- Generator: Adobe Illustrator 16.0.0, SVG Export Plug-In . SVG Version: 6.00 Build 0)  -->
<!DOCTYPE svg PUBLIC "-//W3C//DTD SVG 1.1//EN" "http://www.w3.org/Graphics/SVG/1.1/DTD/svg11.dtd">
<svg version="1.1" id="Layer_1" xmlns="http://www.w3.org/2000/svg" xmlns:xlink="http://www.w3.org/1999/xlink" x="0px" y="0px"
	 width="94px" height="90px" viewBox="0 0 94 90" enable-background="new 0 0 94 90" xml:space="preserve">
<path fill="#FDD01D" d="M43.724,83.91h-9.967c-0.127,0-0.19,0.125-0.19,0.251v5.101c0,0.188-0.188,0.377-0.378,0.377h-5.993
	c-0.188,0-0.379-0.188-0.379-0.377V71.445c0-0.125,0.127-0.252,0.253-0.252h16.654c3.406,0,5.928,1.89,5.928,6.357
	C49.652,82.085,47.13,83.91,43.724,83.91L43.724,83.91z M41.073,79.943c1.325,0,2.334-0.629,2.334-2.393
	c0-1.697-1.009-2.392-2.334-2.392h-7.316c-0.127,0-0.19,0.127-0.19,0.252v4.344c0,0.126,0.063,0.188,0.19,0.188H41.073
	L41.073,79.943z M73.939,71.572c0-0.189,0.188-0.379,0.379-0.379h5.992c0.188,0,0.379,0.188,0.379,0.379v13.849
	c0,0.126,0.063,0.253,0.188,0.253H93.62c0.188,0,0.379,0.124,0.379,0.377v3.211c0,0.188-0.188,0.377-0.379,0.377H74.191
	c-0.127,0-0.252-0.125-0.252-0.252V71.572L73.939,71.572z M71.73,71.193c0.254,0,0.379,0.188,0.379,0.379v3.273
	c0,0.188-0.125,0.313-0.379,0.313H57.979c-0.125,0-0.252,0.127-0.252,0.252v2.833c0,0.126,0.127,0.188,0.252,0.188h10.726
	c0.188,0,0.377,0.188,0.377,0.379v3.209c0,0.252-0.188,0.377-0.377,0.377H57.979c-0.125,0-0.252,0.127-0.252,0.252v2.771
	c0,0.126,0.127,0.253,0.252,0.253H71.73c0.254,0,0.379,0.124,0.379,0.377v3.21c0,0.189-0.125,0.377-0.379,0.377H51.229
	c-0.125,0-0.188-0.125-0.188-0.25V71.445c0-0.125,0.063-0.252,0.188-0.252H71.73L71.73,71.193z M19.248,89.576
	c-4.857,0.564-9.085,0.564-13.563,0c-2.019-0.314-4.605-1.447-5.235-4.029c-0.63-2.518-0.567-7.554,0-10.324
	c0.63-2.58,3.217-3.775,5.235-4.027c4.479-0.504,8.706-0.504,13.563,0c2.018,0.252,4.604,1.447,5.235,4.027
	c0.568,2.771,0.694,7.807,0,10.324C23.853,88.129,21.266,89.262,19.248,89.576L19.248,89.576z M16.22,85.357
	c1.01-0.125,2.082-0.881,2.396-2.139c0.19-0.695,0.19-4.849,0-5.668c-0.314-1.32-1.387-1.888-2.396-2.014
	c-2.522-0.251-5.173-0.251-7.443,0c-1.01,0.126-2.019,0.691-2.396,2.014c-0.127,0.819-0.127,4.973,0,5.668
	c0.378,1.258,1.387,2.014,2.396,2.139C11.047,85.609,13.697,85.674,16.22,85.357L16.22,85.357z"/>
<path fill="#DDDDDD" d="M73.814,29.713c0.062-0.441,0.062-0.882,0.062-1.323C73.876,12.717,61.134,0,45.427,0
	c-13.373,0-24.603,9.254-27.63,21.655L8.208,21.78v5.099l8.831,0.379c-0.061,0.377-0.061,0.755-0.061,1.131
	c0,15.675,12.742,28.39,28.449,28.39c13.373,0,24.538-9.19,27.628-21.527l9.59-0.126V30.09L73.814,29.713z M45.427,53.506
	c-13.878,0-25.17-11.267-25.17-25.116c0-0.314,0-0.629,0-1.006l18.736,0.817l-9.714,7.49l40.374-0.439
	C66.686,45.764,56.971,53.506,45.427,53.506z M70.598,29.585l-18.736-0.818l9.968-7.554l-40.626,0.442
	c2.966-10.639,12.68-18.382,24.224-18.382c13.878,0,25.171,11.269,25.171,25.116C70.598,28.83,70.598,29.208,70.598,29.585z"/>
</svg>
