<?xml version="1.0" encoding="utf-8"?>
<!-- Generator: Adobe Illustrator 16.0.0, SVG Export Plug-In . SVG Version: 6.00 Build 0)  -->
<!DOCTYPE svg PUBLIC "-//W3C//DTD SVG 1.1//EN" "http://www.w3.org/Graphics/SVG/1.1/DTD/svg11.dtd">
<svg version="1.1" id="Layer_1" xmlns="http://www.w3.org/2000/svg" xmlns:xlink="http://www.w3.org/1999/xlink" x="0px" y="0px"
	 width="111px" height="90px" viewBox="0 0 111 90" enable-background="new 0 0 111 90" xml:space="preserve">
<g>
	<path fill="#00529C" d="M55.59,9.431c0,0,0.117-0.056,0.169-0.079C55.732,9.363,55.685,9.387,55.59,9.431z"/>
	<path fill="#00529C" d="M22.918,0v64.891h64.93V0H22.918z M79.132,24.061c-0.272,0.207-1.631-0.676-1.631-0.676
		c-0.81-0.515-2.666-2.098-3.249-4.063c-0.415-1.405-0.016-3.396,0.982-4.936c0.076-0.147,0.254-0.373-0.551-0.767
		c-1.225-0.598-2.301,0.225-2.797,1.098c-0.818,1.438-0.703,2.599,0.065,5.203c0.546,1.842,1.862,5.074,2.573,6.844
		c0.854,2.126,1.172,2.939,1.66,5.371c0.353,1.754-0.306,3.621-1.072,4.543c-2.051,2.464-5.854,2.561-5.854,2.561
		c0.608,1.287,1.541,3.312,1.859,4.303c0.427,1.328,1.562,2.35,4.024,2.021v9.238c-0.08,0.889,0.353,1.963,0.631,2.364
		c0.297,0.433,0.084,1.181-0.186,1.129c-3.865-0.653-4.979-1.146-8.796,0.459c-0.913-0.562-2.792-1.757-5.125-1.757
		c0.845-1.094,0.247-3.688,1.64-4.467c1.379-0.807,2.521-0.314,3.553-0.232c0.935,0.064,1.695-0.396,1.982-1.16
		c0.287-0.766-0.152-3.045-2.734-2.49l-0.569,0.045c0,0-2.836-1.586-4.972-3.15c-1.364-1.001-2.721-2.027-2.741-2.008
		c-3.936,3.581-9.488,9.223-9.985,10.389c-0.556,1.299-0.243,2.094-0.024,2.604c0.268,0.627,0.098,1.371-0.313,1.238
		c-1.848-0.613-6.57-1.754-8.903-0.277c-1.167-1.346-2.939-2.451-4.639-2.87c1.699-2.259,1.252-3.985,3.407-4.455
		c1.769-0.397,3.218,0.813,4.529,0.675c1.927-0.203,2.332-2.373,1.16-3.436c2.437-4.438,4.688-8.591,7.918-11.947l-3.937-4.767
		l-6.223,0.097c0,0-0.307,2.307-3.496,2.327l0.024-1.407c0,0-2.298-0.166-2.909,1.379c-1.094-0.409-1.133-0.724-1.978-2.123
		l-0.665,0.215c-0.141-0.716,0.178-2.364,0.477-3.141c0.287-0.787,1.164-1.699,2.365-1.725c1.338-0.029,3.044-0.059,4.867-0.088
		c2.119-0.152,4.021-0.258,3.783-0.384c-0.436-0.232-4.522-5.678-4.522-5.678c-0.991,0.611-4.452,0.212-5.028-0.196l1.137-0.902
		c-1.34-1.98-2.621-1.573-3.436-1.397c0,0-1.045-1.89,0.639-2.897l-0.918-0.263c0.186-0.351,0.521-0.782,1.049-0.982
		c1.847-0.698,5.529-0.24,6.426,0.415c3.064,2.241,7.406,5.771,10.645,8.592c0.965-0.853,1.575-2.316,1.913-3.284
		c0.187-0.536,0.456-0.858-0.418-0.909h-1.31c-0.377-0.521-0.656-1.145-0.805-1.819h3.199c0.807,0,1.981-0.326,2.578-1.175
		c-1.199,0.093-2.573,0.002-3.492-0.021c-0.538-0.01-2.621-0.139-2.637-0.529c-0.008-0.246,1.773-0.852,3.556-0.6
		c1.47,0.186,2.063-0.161,2.813-0.47c-0.796-2.196-3.642-2.116-4.614-0.481l-1.998-0.005c-0.744,0-1.163-1.462-1.223-1.563
		c-0.178-0.275-0.566-0.91-0.01-1.584c0.189-0.246,2.773-0.644,4.024-0.95c0-0.011,0.606-0.644,0.606-0.644
		c0.169-0.235,5.445-2.115,6.148-2.187c1.721,0.266,3.875,0.766,5.686,1.247c0.396,0.111,1.848,1.817,2.126,2.196
		c1.29,1.931,2.474,4.544,3.438,6.843c-0.059-1.094,0.479-2.523,0.85-3.078c1.968-2.933,4.773-2.49,5.479-2.395
		c2.646,0.359,4.234,2.883,3.924,5.621c-0.1,0.867-0.43,1.689-0.609,2.269c-0.158,0.507-0.293,0.944-0.333,1.427
		C78.104,21.208,79.782,23.567,79.132,24.061z"/>
	<path fill="#00529C" d="M71.503,25.258C71.432,25.076,71.448,25.123,71.503,25.258L71.503,25.258z"/>
	<path fill="#00529C" d="M55.42,8.625c-0.743,0-1.884,0.152-2.665,0.274c-0.09,0.603-0.07,1.01,0.137,1.52
		c0.934-0.316,2.073-0.714,2.698-0.988C56.025,9.227,55.896,8.625,55.42,8.625z"/>
	<path fill="#00529C" d="M68.852,18.471c-0.287,1.532-1.927,6.291-2.166,7.302c-0.064,0.276-1.502-0.511-1.502-0.511
		c-0.516,2.278-0.813,2.86-1.47,5.251c0.92,1.419,2.74,4.115,3.765,5.606l-0.002,0.008c3.282,0.771,4.957-0.568,5.592-1.416
		c0.541-0.724,0.682-1.98,0.418-3.365c-0.324-1.733-0.689-2.826-1.701-5.377c-0.742-1.875-1.61-3.655-2.35-5.833
		C69.102,19.148,68.852,18.471,68.852,18.471z"/>
	<path fill="#00529C" d="M96.559,81.344c0,5.221-3.127,8.528-8.205,8.652c-5.012,0.125-8.156-2.821-8.273-7.779
		c-0.117-4.936,3.158-8.338,8.126-8.462C93.175,73.635,96.559,76.705,96.559,81.344C96.559,81.344,96.559,76.705,96.559,81.344
		L96.559,81.344z M84.152,82.264c0.091,3.75,1.673,5.861,4.281,5.859c3.428-0.005,4.144-3.961,4.088-6.201
		c-0.086-3.652-1.394-6.24-4.164-6.234C85.591,75.693,84.057,78.176,84.152,82.264C84.152,82.264,84.057,78.176,84.152,82.264
		L84.152,82.264L84.152,82.264z"/>
	<path fill="#00529C" d="M62.359,76.559l0.595-1.818c-1.622-0.743-3.652-0.995-5.417-0.995c-7.262,0-9.649,4.88-9.649,8.176
		c0,4.267,2.843,8.076,8.901,8.076c4.182,0,6.568-1.422,6.568-1.422v-6.542H59.35l-0.002,5.677c0,0-0.053,0.052-0.141,0.09
		c-0.51,0.229-1.529,0.354-2.574,0.207c-2.662-0.375-4.428-2.782-4.428-6.028c0-3.834,3.392-5.912,5.658-6.006
		C60.139,75.877,61.641,76.355,62.359,76.559C62.359,76.559,61.641,76.355,62.359,76.559L62.359,76.559z"/>
	<polygon fill="#00529C" points="111,76.412 105.96,76.412 105.96,89.309 101.878,89.309 101.878,76.412 96.975,76.412 
		96.975,74.318 111,74.318 111,76.412 	"/>
	<path fill="#00529C" d="M0,74.318h7.974c3.027,0,3.714,0.105,4.805,0.576c1.379,0.574,2.396,2.33,2.396,3.776
		c0,4.328-3.121,5.112-6.849,5.112h-4.04v5.521H0V74.318L0,74.318L0,74.318z M4.272,82.082h3.049c2.084,0,3.514-1.303,3.514-2.955
		c0-1.637-1.453-2.957-3.321-2.957l-3.241,0.016L4.272,82.082L4.272,82.082L4.272,82.082L4.272,82.082z"/>
	<path fill="#00529C" d="M38.501,89.996h0.025c2.723,0,4.328-0.723,5.773-2.167c0.865-0.866,1.401-1.919,1.401-4.372v-9.139h-3.985
		c0,0-0.004,7.969-0.004,10.277c0,2.047-1.333,3.36-3.186,3.36h-0.016c-1.857,0-3.248-1.244-3.248-3.526
		c0-2.283-0.004-10.111-0.004-10.111h-3.985v9.051c0,2.537,0.621,3.705,1.487,4.572c1.443,1.445,3.027,2.055,5.75,2.055l0,0H38.501
		L38.501,89.996L38.501,89.996z"/>
	<polygon fill="#00529C" points="21.009,86.895 28.495,86.895 28.495,89.307 16.948,89.307 16.948,74.318 28.495,74.318 
		28.495,76.445 21.009,76.445 21.009,80.204 27.058,80.204 27.058,82.023 21.009,82.023 21.009,86.895 	"/>
	<polygon fill="#00529C" points="70.872,86.949 78.357,86.949 78.357,89.307 66.811,89.307 66.811,74.318 78.357,74.318 
		78.357,76.5 70.872,76.5 70.872,80.26 76.919,80.26 76.919,82.08 70.872,82.08 70.872,86.949 	"/>
</g>
</svg>
