<?xml version="1.0" encoding="utf-8"?>
<!-- Generator: Adobe Illustrator 16.0.0, SVG Export Plug-In . SVG Version: 6.00 Build 0)  -->
<!DOCTYPE svg PUBLIC "-//W3C//DTD SVG 1.1//EN" "http://www.w3.org/Graphics/SVG/1.1/DTD/svg11.dtd">
<svg version="1.1" id="Layer_1" xmlns="http://www.w3.org/2000/svg" xmlns:xlink="http://www.w3.org/1999/xlink" x="0px" y="0px"
	 width="69px" height="90px" viewBox="0 0 69 90" enable-background="new 0 0 69 90" xml:space="preserve">
<path d="M0,4.691l3.813,50.386C4.508,69.498,18.031,81.486,34.501,90c16.47-8.514,29.991-20.502,30.687-34.923L69,4.691
	C54.958,1.478,46.463,0,34.501,0C22.537,0,14.044,1.478,0,4.691z M2.241,16.069c15.354-4.03,24.694-4.407,31.566-4.506v17.104
	h-12.31l0.006,1.457c-0.407-0.083-0.881-0.168-1.104-0.145c0.23-1.573,1.388-2.372,1.505-2.489c0.117-0.117,0.234-0.399-0.039-0.399
	c-2.185,0.195-3.222,2.527-3.375,3.113c-0.197,0.04-1.401,0.322-1.791,0.439c0.233-2.463,1.859-3.61,2.093-3.766
	c0.234-0.156,0.312-0.392,0-0.392c-2.67,0.052-4.136,4.105-4.291,4.77c-0.507,0.195-1.698,0.773-2.09,1.007
	c-0.188-3.118,2.394-5.241,2.55-5.398c0.155-0.156,0.272-0.43-0.078-0.352c-3.315,0.469-4.304,5.868-4.361,6.514
	c-0.078,0.605-0.624,0.371-0.757,0.305c-0.161-0.097-0.351-0.152-0.552-0.152c-0.594,0-1.075,0.483-1.075,1.078
	c0,0.103,0.014,0.171,0.041,0.265c-0.386,0.164-0.704,0.579-0.704,1.025c0,0.596,0.481,1.079,1.076,1.079
	c0.245,0,0.454-0.07,0.635-0.21c0.197,0.225,0.487,0.365,0.81,0.365c0.592,0,1.286-0.452,1.325-1.664
	c3.94-2.58,6.796-3.289,8.503-3.283c1.093,0.003,1.45,0.224,1.678,0.431l-0.004,5.146c-1.188,0.5-2.578,2.027-2.754,2.254
	c-0.204-0.059-0.883-0.08-1.175-0.051c0.171-1.179,1.04-2.388,1.128-2.475c0.088-0.088,0.176-0.3-0.031-0.3
	c-1.637,0.146-2.5,2.678-2.617,3.117c-0.146,0.029-0.877,0.154-1.169,0.243c0.175-1.848,1.048-2.882,1.222-2.999
	c0.178-0.117,0.236-0.293,0-0.293c-2.001,0.039-2.84,3.816-2.956,4.315c-0.38,0.146-1.016,0.623-1.308,0.799
	c-0.143-2.339,0.928-4.192,1.044-4.31c0.117-0.118,0.205-0.322-0.059-0.265c-2.422,0.688-2.359,5.228-2.404,5.711
	c-0.059,0.454-0.38,0.235-0.479,0.187c-0.121-0.072-0.264-0.114-0.413-0.114c-0.446,0-0.807,0.362-0.807,0.809
	c0,0.077,0.01,0.128,0.028,0.198c-0.288,0.123-0.527,0.435-0.527,0.77c0,0.446,0.362,0.809,0.809,0.809
	c0.183,0,0.341-0.053,0.478-0.155c0.146,0.168,0.362,0.272,0.604,0.272c0.446,0,0.965-0.34,0.994-1.248
	c2.114-2.596,5.747-3.809,7.028-3.81c2.167-0.002,2.892,0.599,3.363,0.971l0.002,5.858L4.654,47.709L2.241,16.069z M8.975,66.842
	c-1.785-2.988-3.05-6.18-3.58-9.557l18.354-0.021c1.986,2.873,5.309,5.313,10.059,5.529v4.045L8.975,66.842z M17.25,76.648
	l16.558-0.037v11.367C28.271,85.047,22.301,81.232,17.25,76.648z M22.884,49.865V30.059h11.617h11.615v19.806
	c0,5.387-4.509,11.555-11.615,11.555C27.392,61.419,22.884,55.251,22.884,49.865z M63.625,57.162
	C61.546,70.889,47.33,81.574,35.193,88.001V62.793c2.033-0.094,3.808-0.594,5.326-1.361l-0.037,0.348
	c-0.407,1.195-0.385,1.699-0.407,1.957c-0.07,0.539-0.729,0.592-0.847,0.531c-0.145-0.084-0.311-0.134-0.488-0.134
	c-0.528,0-0.957,0.429-0.957,0.957c0,0.091,0.012,0.152,0.035,0.235c-0.344,0.146-0.495,0.428-0.495,0.824
	c0,0.529,0.343,0.959,0.868,0.959c0.221,0,0.36,0.024,0.522-0.1c0.175,0.198,0.433,0.325,0.718,0.325
	c0.529,0,0.799-0.144,0.832-1.22c3.532-1.875,8.905-3.309,11.285-3.18c2.691,0.146,4.646,2.85,4.854,3.022
	c0.209,0.174,0.383,0.174,0.348-0.104c-0.173-1.11-0.516-2.785-3.139-4.222c0.175-0.729,1.453-0.866,1.693-0.973
	c0.176-0.08,0.24-0.313,0-0.313c-1.758-0.232-3.011,0.557-3.252,0.869c-0.244-0.068-1.431-0.156-1.777-0.121
	c0.195-0.894,0.716-1.545,1.49-2.197c-0.111,0.094,0.209-0.278-0.033-0.278c-1.941,0.174-3.147,2.188-3.287,2.711
	c-0.174,0.034-2.277,0.382-2.625,0.485c0.316-2.047,2.636-3.439,2.844-3.58c0.207-0.139,0.277-0.346,0-0.346
	c-2.917,0.098-5.055,3.873-5.158,4.674c-0.451,0.174-1.145,0.416-1.49,0.625c-0.121-1.361-0.097-1.783,0.274-2.596l0.194-0.404
	c3.388-2.609,5.019-6.629,5.019-9.455V49.05l16.739-0.052L63.625,57.162z M64.293,47.705l-16.82-0.053l0.031-9.565l17.54-0.049
	L64.293,47.705z M65.749,28.78l-18.245-0.001v-0.422H35.193v-9.726l31.309,0.179L65.749,28.78z M67.525,5.907l-0.639,8.618
	c-15.311-3.84-24.412-4.448-32.387-4.448c-7.975,0-17.078,0.608-32.389,4.448L1.474,5.907c5.98-1.476,18.81-4.517,33.027-4.517
	C48.716,1.39,61.546,4.431,67.525,5.907z"/>
<path d="M50.561,69.602c0.14-0.584,1.033-0.867,1.226-0.953c0.146-0.063,0.192-0.25,0-0.25c-1.408-0.187-2.498,0.531-2.693,0.781
	c-0.192-0.056-1.146-0.125-1.426-0.097c0.158-0.714,1.313-1.366,1.937-1.89c-0.092,0.076,0.166-0.223-0.029-0.223
	c-1.705-0.035-3.174,1.795-3.285,2.213c-0.139,0.026-1.523,0.305-1.801,0.389c0.252-1.639,2.285-2.709,2.453-2.819
	c0.166-0.112,0.223-0.278,0-0.278c-2.34,0.078-4.271,2.969-4.354,3.609c-0.358,0.139-1.178,0.42-1.455,0.587
	c-0.176-1.97,2.043-3.735,1.854-3.548c0.111-0.111,0.195-0.307-0.057-0.251c-2.361,0.334-3.313,3.778-3.354,4.235
	c-0.058,0.432-0.584,0.474-0.679,0.427c-0.114-0.068-0.25-0.108-0.393-0.108c-0.424,0-0.768,0.344-0.768,0.768
	c0,0.072,0.012,0.121,0.029,0.188c-0.275,0.116-0.396,0.343-0.396,0.66c0,0.424,0.273,0.767,0.697,0.767
	c0.176,0,0.289,0.021,0.418-0.078c0.141,0.158,0.346,0.258,0.574,0.258c0.424,0,0.641-0.111,0.668-0.975
	c2.832-1.498,6.969-2.516,8.875-2.412c2.157,0.114,3.77,1.672,3.936,1.811s0.307,0.139,0.277-0.084
	C52.676,71.438,52.08,70.497,50.561,69.602z"/>
<path d="M45.898,76.296c0.096-0.399,0.447-0.636,0.578-0.694c0.098-0.043,0.133-0.17,0-0.17c-0.963-0.129-1.449,0.471-1.582,0.643
	c-0.133-0.037-0.588-0.02-0.779-0.002c0.107-0.487,0.68-1.063,1.105-1.422c-0.063,0.054,0.112-0.151-0.019-0.151
	c-1.168-0.024-2.324,1.532-2.4,1.815c-0.213,0.068-0.756,0.154-0.971,0.268c0.174-1.12,0.846-1.831,0.961-1.906
	c0.112-0.076,0.151-0.191,0-0.191c-1.601,0.055-2.14,2.076-2.194,2.514c-0.248,0.096-0.611,0.223-0.802,0.336
	c-0.248-1.428,0.746-2.578,0.617-2.447c0.075-0.076,0.133-0.209-0.039-0.172c-1.457,0.258-1.615,2.67-1.644,2.984
	c-0.039,0.295-0.397,0.322-0.465,0.291c-0.078-0.047-0.17-0.074-0.268-0.074c-0.289,0-0.523,0.234-0.523,0.523
	c0,0.051,0.006,0.084,0.021,0.129c-0.188,0.08-0.271,0.234-0.271,0.451c0,0.291,0.186,0.523,0.477,0.523
	c0.119,0,0.197,0.016,0.285-0.055c0.098,0.109,0.236,0.179,0.395,0.179c0.289,0,0.566-0.121,0.586-0.71
	c1.973-1.205,4.527-1.917,5.832-1.848c1.475,0.08,2.49,0.775,2.605,0.869c0.113,0.097,0.209,0.097,0.188-0.057
	C47.498,77.313,47.02,76.838,45.898,76.296z"/>
<path d="M43.002,48.301c0.479,0.217,1.563,0.174,1.693-0.13c0.13-0.304,0.088-0.912,0-1.043c0.305-0.26,0.521-0.825,0.348-1.086
	s-0.26-0.608-0.174-0.956c-0.305-0.043-0.629-0.303-0.412-0.498c0.217-0.195,0.65-0.652,0.455-1.238
	c0.066-0.369,0.088-0.825-0.543-0.804c-0.021-0.239-0.217-1.021-1.193-0.305c-0.152,0.109-0.326-0.13-0.107-0.195
	c0.218-0.064,1.347-0.434,1.521-0.825c0.173-0.391,0.106-0.586,0.043-0.738c0.086-0.174,0.175-0.521,0.086-0.651
	c-0.086-0.13-0.434-0.108-0.672,0.478c-0.239,0.586-0.174,0.586-0.803,0.695c-0.632,0.109-1.109,0-1.521,0.695
	c-0.132,0.173-0.195,0.368-0.5,0.542c-0.306,0.174-0.479,0.457-0.521,0.695c-0.043,0.239,0.174,0.674,0.131,0.978
	c-0.043,0.305-0.217,0.955,0.586,1.649c0.393,0.436,0.979,1,0.543,1.435c-0.434,0.435-0.824-0.022-1.15-0.239
	s-1.391-0.543-2.086-0.5c-0.692,0.045-2.975-0.521-3.518-0.977c-0.543-0.456-0.211-0.688,0.066-0.825
	c0.194-0.087,0.324-0.174,0.434-0.391c0.109-0.218,0.281-0.261,0.477-0.261c0.197,0,0.394-0.044,0.566-0.456
	c0.174-0.413,0.348-0.261,0.543-0.304c0.195-0.044,0.324-0.457-0.021-0.587c-0.348-0.13-0.545-0.261-0.521-0.392
	c0.021-0.13,0.261-0.412,0.586-0.434c0.324-0.021,0.347-0.239,0.324-0.413c-0.022-0.174,0-0.281,0.219-0.391
	c0.218-0.109,0.195-0.369-0.174-0.479c-0.369-0.107-0.912-0.238-0.912-0.412s0.238-0.478,0.479-0.564
	c0.238-0.087,0.346-0.456-0.197-0.435c-0.543,0.022-0.846,0.087-0.955-0.26c-0.107-0.348-0.131-0.543,0.434-0.761
	c0.24-0.065,0.305-0.391-0.129-0.369c-0.436,0.021-0.934,0.239-1.086,0.087c-0.152-0.152-0.109-0.282-0.021-0.348
	c0.086-0.065,0.107-0.282-0.108-0.282s-1.064,0.325-1.281,0.087c-0.217-0.239-0.564-0.369-0.848-0.195
	c-0.281,0.174-0.281,0.434-0.129,0.586c0.15,0.152-0.045,0.391-0.219,0.239c-0.172-0.152-0.107-0.261-0.107-0.326
	s-0.131-0.282-0.283-0.369c-0.152-0.087-0.152-0.326-0.107-0.478c0.037-0.15-0.136-0.302-0.396-0.15
	c-0.262,0.151-0.5,0.412-0.371,0.803c-0.281,0.021-0.998,0.195-1.02,0.413c-0.021,0.217,0.086,0.455,0.043,0.543
	c-0.043,0.086-0.281,0.086-0.412,0.174c-0.369,0.369-1,0.716-1.152,0.868c-0.152,0.152-0.26,0.305-0.455,0.543
	c-0.195,0.217-0.213,0.467-0.131,0.586c0.238,0.348,0.434,0.109,0.564,0.305c0.13,0.196,0.131,0.238,0.109,0.348
	c-0.021,0.108,0.238,0.348,0.629,0.021c0.393-0.326,0.674-0.674,0.979-0.305c0.305,0.369,0.021,0.587-0.109,0.826
	c-0.26,0.26-0.869,1.063-1.15,1.303c-0.283,0.239-0.5,0.804-0.609,1.325c-0.107,0.521-0.238,0.63-0.346,0.761
	c-0.521-0.196-1.109-0.436-1.434-0.695c-0.217-0.174-0.695-0.392-1,0.043c-0.152,0.174-0.934,1.237-1.129,1.693
	c-0.195,0.456-0.5,0.281-0.5,1.15c0,0.306-0.238,0.436-0.369,0.912c-0.021,0.131-0.369,0.936-0.021,1.088
	c0.348,0.149,0.76-0.045,0.848-0.262c0.086-0.218,0.107-0.892,0.129-1.13c0.109-0.325,0.457-0.717,0.5-0.913
	c0.045-0.195-0.021-0.347,0.109-0.543c0.131-0.193,0.5-0.564,0.629-0.693c0.131-0.131,0.588-0.327,0.826,0.195
	c0.238,0.52,0.65,1.672,1.477,2.02c-0.326,0.174-1.107,0.457-1.52,0.543c-0.414,0.088-0.738,0.152-0.564,1.174
	c0.174,1.021,0.217,1.454,0.15,1.779c-0.064,0.326-0.086,1.021,0.521,1.563l0.543,0.761c0.217,0.194,0.738,0.414,0.781-0.021
	c0.045-0.434,0.174-0.868-0.26-0.912c-0.152-0.021-0.564-0.369-0.521-0.76c0.043-0.393-0.064-0.717-0.238-1.043
	c-0.174-0.325-0.238-0.694-0.152-1.021c0.086-0.324,0.326-0.521,0.869-0.412c0.434,0.151,2.432,0.694,3.041,0.022
	c0.412,0.303,2.865,1.215,4.299,1.063c0.263,0.455,0.806,1.455,1.152,1.736c0.28,0.262,0.391,1.086-0.089,1.52
	c-0.28,0.217-1.02,0.979-1.628,1.151c-0.607,0.175-0.848,0.282-1.129,0.563c-0.283,0.283-0.457,0.283-0.631,0.652
	c-0.174,0.369-0.564,1.021,0.066,1.021c0.629,0,0.803-0.305,0.846-0.479c0.045-0.174,0-0.543,0.24-0.607
	c0.238-0.064,0.977-0.108,1.477-0.717c0.5-0.609,1.498-0.935,1.89-1c0.393-0.064,0.436-0.455,0.393-0.65s-0.065-0.695,0.175-0.955
	c0.346,0.086,1.453,0.325,1.975,1.041c0.088,0.195,0.109,0.305,0.195,0.436c-0.152,0.26-0.455,0.5-0.564,0.76
	c-0.107,0.262-0.238,0.695-0.738,1.087c-0.498,0.392-0.934,0.63-1.172,0.978c-0.24,0.348-0.391,0.717-0.348,1.194
	s0.174,0.237,0.391,0.237s0.717-0.237,0.738-0.563c0.021-0.325-0.131-0.478,0.326-0.673c0.455-0.195,1.26-0.848,1.434-1.26
	c0.174-0.413,0.695-1.217,1.107-1.455c0.412-0.239,0.326-0.588,0.131-0.936c-0.195-0.347-0.869-1.279-0.74-1.889
	c0.131-0.607,0.848-0.979,1.066-1.912c0.217-0.934,0.086-1.367-0.045-1.693C42.307,47.997,42.525,48.084,43.002,48.301z"/>
<path d="M8.484,27.027c0.219,0.25,0.541,0.406,0.898,0.406c0.662,0,1.434-0.504,1.477-1.85C15.246,22.716,19.98,21.5,22.5,21.5
	s4.518,1.607,4.777,1.824c0.262,0.217,0.479,0.217,0.436-0.13c-0.217-1.391-2.086-2.649-2.736-2.997
	c0.217-0.912,1.346-1.911,1.52-2.085c0.174-0.174,0.305-0.391,0-0.391c-1.867,0.129-3.17,1.563-3.475,1.954
	c-0.305-0.087-1.52-0.087-1.955-0.043c0-1.737,1.738-3.215,1.867-3.345c0.131-0.131,0.262-0.348-0.043-0.348
	c-2.432,0.217-3.779,3.388-3.953,4.04c-0.217,0.043-1.605,0.26-2.041,0.391c0.262-2.737,2.215-4.301,2.477-4.475
	c0.26-0.174,0.348-0.434,0-0.434c-3.215,0.086-4.648,4.734-4.779,5.733c-0.564,0.217-2.084,0.955-2.518,1.216
	c-0.348-3.909,2.518-6.211,2.691-6.385s0.305-0.479-0.086-0.391c-3.691,0.521-4.648,6.905-4.713,7.622
	c-0.086,0.674-0.695,0.413-0.842,0.34c-0.18-0.107-0.389-0.169-0.613-0.169c-0.662,0-1.197,0.536-1.197,1.197
	c0,0.114,0.016,0.19,0.045,0.294c-0.43,0.182-0.785,0.645-0.785,1.141c0,0.661,0.537,1.197,1.199,1.197
	C8.049,27.26,8.281,27.183,8.484,27.027z"/>
<path d="M29.223,5.989c0.24-0.405,0.4-0.858,0.4-1.306c0.004-1.563-0.998-1.795-2.139-1.703L21.26,3.395l0.164,5.997l1.494-0.071
	l-0.043-2.397l4.148-0.271c0.816-0.057,1.297,0.493,1.299,1.371v0.882l1.5-0.072l0.002-1.003C29.83,6.885,29.537,6.233,29.223,5.989
	z M27.283,5.341L22.834,5.59l-0.018-0.953L27.32,4.4c0.35,0.009,0.492,0.134,0.508,0.452C27.844,5.169,27.59,5.317,27.283,5.341z"/>
<path d="M8.971,5.646l-6.19,1.391l0.434,6.037l1.498-0.348l-0.195-2.389l5.191-1.173c0.977-0.218,1.236-0.804,1.193-2.193
	C10.859,5.581,9.752,5.473,8.971,5.646z M8.752,7.992L4.43,8.947l-0.043-0.89c0,0,3.736-0.846,4.17-0.933
	c0.436-0.087,0.592,0.131,0.609,0.282C9.188,7.602,9.121,7.906,8.752,7.992z"/>
<path d="M20.35,5.3c0-1.13-1.367-1.542-1.977-1.435l-5.016,0.826c-1.543,0.238-1.521,1.063-1.521,1.629l0.066,2.736
	c0.043,1.563,1.389,1.694,2.215,1.542l4.646-0.738c1.629-0.239,1.674-1.042,1.652-1.651L20.35,5.3z M18.113,8.578l-3.801,0.608
	c-0.521,0.087-0.869,0.108-0.912-0.564l-0.043-1.629c0-0.455-0.021-0.891,0.781-1.043l3.844-0.65
	c0.412-0.065,0.848,0.238,0.848,0.65l0.043,1.782C18.873,8.014,18.742,8.471,18.113,8.578z"/>
<path d="M32.295,2.846c-0.348,0-1.52,0.076-1.51,1.846c0.012,1.771,1.25,1.803,1.51,1.803l4.801-0.002
	c0.287,0,0.521,0.234,0.521,0.523c0,0.288-0.234,0.478-0.521,0.478h-6.125v1.303h6.818c0.436,0,1.574,0.065,1.574-1.813
	S38.084,5.19,37.789,5.19l-4.777,0.001c-0.289,0-0.521-0.234-0.521-0.521c0-0.288,0.232-0.522,0.521-0.522h6.125V2.846H32.295z"/>
<polygon points="51.104,7.297 56.143,8.254 55.969,10.772 57.4,11.033 57.77,4.887 56.359,4.626 56.207,7.016 51.168,6.06 
	51.299,3.801 49.865,3.584 49.496,9.751 50.93,9.947 "/>
<polygon points="65.654,11.445 60.268,10.294 60.334,9.057 65.742,10.208 65.828,8.97 60.42,7.818 60.463,6.689 65.914,7.84 
	66.002,6.603 59.096,5.147 58.748,11.229 65.545,12.684 "/>
<path d="M41.895,8.97l6.342,0.478l0.064-1.346L43.002,7.71c-0.498-0.021-1.043-0.174-0.998-1.086l0.043-1.303
	c0.021-0.521,0.195-0.999,1.021-0.935l5.428,0.435l0.066-1.347l-6.363-0.499c-0.543-0.044-1.586-0.087-1.674,1.694
	c-0.086,1.78-0.131,2.584-0.131,2.584C40.373,7.862,40.742,8.883,41.895,8.97z"/>
<path d="M25.117,34.41c-0.344,0-0.512-0.152-0.578-0.521h-0.512c0.016,0.291,0.051,0.436,0.152,0.596
	c0.178,0.304,0.486,0.455,0.92,0.455c0.313,0,0.512-0.064,0.691-0.225c0.213-0.192,0.326-0.457,0.326-0.757
	c0-0.426-0.162-0.626-0.531-0.795l-0.816-0.378c-0.117-0.056-0.184-0.139-0.184-0.238c0-0.213,0.188-0.365,0.449-0.365
	c0.291,0,0.434,0.144,0.486,0.491h0.521c-0.027-0.66-0.387-1.021-1.018-1.021c-0.572,0-0.951,0.383-0.951,0.96
	c0,0.388,0.156,0.626,0.504,0.787l0.795,0.369c0.166,0.078,0.23,0.156,0.23,0.273C25.604,34.258,25.404,34.41,25.117,34.41z"/>
<polygon points="27.088,34.879 27.623,34.879 27.623,32.286 28.391,32.286 28.391,31.713 26.303,31.713 26.303,32.286 
	27.088,32.286 "/>
<path d="M29.807,34.939c0.834,0,1.047-0.551,1.047-1.272v-1.954H30.32v1.941c0,0.521-0.139,0.713-0.521,0.713
	c-0.361,0-0.504-0.2-0.504-0.713v-1.941H28.76v1.954C28.76,34.396,28.979,34.939,29.807,34.939z"/>
<polygon points="31.922,34.879 32.457,34.879 32.457,32.286 33.225,32.286 33.225,31.713 31.135,31.713 31.135,32.286 
	31.922,32.286 "/>
<path d="M36.691,34.939c0.326,0,0.572-0.143,0.776-0.46l0.054,0.399h0.369v-1.716h-1.078v0.543h0.586
	c-0.068,0.426-0.291,0.661-0.625,0.661c-0.438,0-0.726-0.422-0.726-1.068c0-0.661,0.277-1.073,0.726-1.073
	c0.291,0,0.465,0.152,0.567,0.495h0.55c-0.078-0.674-0.496-1.069-1.121-1.069c-0.771,0-1.273,0.665-1.273,1.673
	C35.496,34.271,35.992,34.939,36.691,34.939z"/>
<path d="M38.932,34.215h0.943l0.178,0.664h0.582l-0.916-3.166h-0.604l-0.926,3.166h0.561L38.932,34.215z M39.404,32.438l0.326,1.234
	h-0.65L39.404,32.438z"/>
<path d="M41.467,33.629h0.492c0.494,0,0.43,0.286,0.443,0.751c0.004,0.282,0.012,0.326,0.063,0.499h0.591
	c-0.082-0.095-0.095-0.173-0.111-0.686c-0.021-0.613-0.053-0.699-0.305-0.835c0.278-0.182,0.368-0.369,0.368-0.733
	c0-0.313-0.096-0.564-0.271-0.73c-0.155-0.143-0.295-0.182-0.663-0.182h-1.144v3.166h0.533v-1.25H41.467z M41.467,32.286h0.51
	c0.369,0,0.48,0.092,0.48,0.399c0,0.309-0.115,0.408-0.48,0.408h-0.51V32.286z"/>
<polygon points="44.094,34.879 44.629,34.879 44.629,32.286 45.398,32.286 45.398,31.713 43.309,31.713 43.309,32.286 
	44.094,32.286 "/>
<polygon points="34.268,34.879 34.803,34.879 34.803,32.286 35.57,32.286 35.57,31.713 33.48,31.713 33.48,32.286 34.268,32.286 "/>
</svg>
