<?xml version="1.0" encoding="utf-8"?>
<!-- Generator: Adobe Illustrator 16.0.0, SVG Export Plug-In . SVG Version: 6.00 Build 0)  -->
<!DOCTYPE svg PUBLIC "-//W3C//DTD SVG 1.1//EN" "http://www.w3.org/Graphics/SVG/1.1/DTD/svg11.dtd">
<svg version="1.1" id="Layer_1" xmlns="http://www.w3.org/2000/svg" xmlns:xlink="http://www.w3.org/1999/xlink" x="0px" y="0px"
	 width="111px" height="90px" viewBox="0 0 111 90" enable-background="new 0 0 111 90" xml:space="preserve">
<g>
	<polygon points="11.751,88.969 98.539,88.969 98.539,90 11.751,90 	"/>
	<path d="M19.129,85.746v-1.158c0.99,0,1.711-0.074,1.711-0.703c0,0,0-12.875,0-13.457c0-0.58-0.116-0.854-1.711-0.854v-1.159
		h13.994v4.31h-2.81c0,0,0-2.07,0-2.609c0-0.54-0.411-0.54-0.702-0.54c0,0-2.447,0-2.978,0c-0.534,0-0.534,0.272-0.534,0.519
		c0,0,0,4.323,0,4.903c0,0.578,0.121,0.797,0.485,0.797h0.994c0.433,0,0.556-0.29,0.556-0.532v-1.23h2.518v5.05h-2.518
		c0,0,0-0.604,0-1.136c0-0.532-0.145-0.639-0.462-0.639c0,0-0.628,0-1.064,0s-0.509,0.131-0.509,0.42v6.064
		c0,0.702,0.485,0.798,0.799,0.798c0,0,2.542,0,3.147,0c0.606,0,0.803-0.532,0.803-1.159V80.48h2.857v5.266H19.129L19.129,85.746z"
		/>
	<path d="M34.867,85.746v-1.158c0.871,0,1.678,0.047,1.678-0.773c0,0,0-12.869,0-13.557c0-0.684-0.44-0.684-1.678-0.684v-1.159
		h6.029l6.369,10.88c0,0,0-8.061,0-8.891s-0.429-0.83-1.682-0.83v-1.159h5.297v1.159c-1.1,0-1.679,0.105-1.679,0.854v15.318H44.48
		l-5.998-10.773c0,0,0,8.068,0,8.793c0,0.728,0.317,0.822,1.678,0.822v1.158H34.867L34.867,85.746z"/>
	<path d="M59.607,77.703l-1.881-6.383l-1.84,6.383H59.607L59.607,77.703z M60.098,79.346h-4.655c0,0-1.212,3.928-1.382,4.68
		c-0.167,0.748,1.554,0.563,1.889,0.563v1.158h-5.068v-1.158c0.477,0,1.056,0.218,1.445-0.968c0,0,3.729-12.145,4.022-13.096
		c0.283-0.95-0.317-0.95-1.868-0.95v-1.159h7.797c0,0,4.406,14.648,4.602,15.327c0.196,0.676,0.512,0.846,1.578,0.846v1.158h-8.801
		v-1.158c0-1.354,1.932-0.161,1.722-0.87L60.098,79.346L60.098,79.346z"/>
	<path d="M74.1,70.236c0-0.662,0.459-0.662,1.734-0.662v-1.159h-8.711v1.159c0.971,0,1.713-0.137,1.713,0.662v11.211
		c0.127,3.43,3.832,4.541,6.998,4.541c3.178,0,5.907-1.039,5.907-4.492c0,0,0-10.559,0-11.211c0-0.653,0.224-0.711,1.7-0.711v-1.159
		h-5.397v1.159c1.086,0.105,1.715-0.329,1.715,0.734c0,0,0,8.09,0,11.477c0,3.383-5.659,2.971-5.659-0.219V70.236L74.1,70.236z"/>
	<path d="M86.465,70.285c0-0.824-0.744-0.711-1.715-0.711v-1.159h8.721v1.159c-1.38,0-1.742-0.086-1.742,0.781
		c0,0,0,12.783,0,13.506c0,0.727,0.559,0.727,0.797,0.727h1.892c1.229,0,1.251-1.042,1.251-1.256v-3.238H98.6v5.652H84.75v-1.158
		c1.165,0,1.715,0.096,1.715-0.604V70.285L86.465,70.285z"/>
	<path d="M99.566,85.746v-1.158c1.308,0,1.717,0.023,1.717-0.533V69.575c-1.09,0-2.249-0.474-2.249,3.464h-2.418v-4.623H111v4.623
		h-2.424c0-2.85,0.294-3.464-2.029-3.464v14.12c0,0.894,0.021,0.894,1.742,0.894v1.158L99.566,85.746L99.566,85.746z"/>
	<path d="M6.973,76.139H8.57c1.705,0,2.251-1.506,2.251-3.27s-0.462-3.295-2.192-3.295H6.971L6.973,76.139L6.973,76.139z
		 M6.973,77.307l-0.002,6.592c0,0.824,1.744-0.192,1.744,0.689v1.158H0v-1.158c1.101,0,1.707,0.184,1.707-0.921
		c0,0,0-12.452,0-13.155c0-0.699-0.172-0.938-1.707-0.938v-1.159c0,0,8.727,0,12.554,0c3.825,0,3.738,4.563,3.738,4.647
		c0,1.279-0.798,4.252-3.171,4.252l4.093,7.272h0.572v1.158h-5.949l-3.997-8.44H6.973V77.307z"/>
	<path d="M76.854,26.979L62.382,1.041C61.99,0.339,61.475,0,60.657,0H49.372c-0.818,0-1.329,0.339-1.721,1.041L33.18,26.979
		c-0.489,0.877-0.654,2.209-0.154,3.103l14.842,26.604c0.285,0.522,0.427,0.779,1.47,0.779h11.352c0.884,0,1.158-0.21,1.539-0.895
		l14.418-25.851C77.279,29.586,77.475,28.094,76.854,26.979z M33.517,27.166L47.99,1.227c0.321-0.577,0.704-0.84,1.382-0.84h11.285
		c0.677,0,1.063,0.26,1.388,0.84l14.473,25.939c0.32,0.577,0.443,1.062,0.439,1.506l-11.686-0.007c0,0-14.328,24.948-14.86,25.864
		c-0.532,0.921-0.918,0.531-0.63-0.191c0.294-0.725,4.408-9.953,4.408-9.953l-9.003-15.717H33.102
		C33.121,28.138,33.275,27.6,33.517,27.166z"/>
	<path d="M60.467,3.053c0.258-0.58-0.519-0.387-0.583-0.258l-14.686,25.87l2.63,0.003l7.283,13.047l7.286-13.05l0,0h2.875
		L56.115,12.88C56.115,12.88,60.111,3.857,60.467,3.053z M55.111,40.922l-6.844-12.256l6.859-12.229l6.83,12.228L55.111,40.922z"/>
</g>
</svg>
