<?xml version="1.0" encoding="utf-8"?>
<!-- Generator: Adobe Illustrator 16.0.0, SVG Export Plug-In . SVG Version: 6.00 Build 0)  -->
<!DOCTYPE svg PUBLIC "-//W3C//DTD SVG 1.1//EN" "http://www.w3.org/Graphics/SVG/1.1/DTD/svg11.dtd">
<svg version="1.1" id="Layer_1" xmlns="http://www.w3.org/2000/svg" xmlns:xlink="http://www.w3.org/1999/xlink" x="0px" y="0px"
	 width="124px" height="70px" viewBox="0 0 124 70" enable-background="new 0 0 124 70" xml:space="preserve">
<path d="M6.34,57.695v-8.637l0.62-0.125l0.836-0.093h0.869l0.713,0.093l0.619,0.203l0.59,0.342l0.573,0.465l0.466,0.56l0.355,0.622
	l0.248,0.684l0.14,0.67l0.031,0.635l-0.046,0.652l-0.156,0.653l-0.264,0.604l-0.371,0.545l-0.511,0.559l-0.682,0.545l-0.808,0.449
	l-0.186,0.076L8.71,57.434l-0.866,0.17l-0.962,0.094H6.34V57.695z M110.995,57.262l0.14-0.064l0.762-0.418l0.681-0.527l0.513-0.591
	l0.403-0.621l0.276-0.621l0.156-0.638l0.063-0.559l-0.016-0.561l-0.125-0.605l-0.156-0.561l-0.246-0.525l-0.355-0.562l-0.513-0.543
	l-0.618-0.451l-0.604-0.278l-0.358-0.078l-0.324-0.063l-0.807-0.062l-0.837,0.03l-0.715,0.093l-0.311,0.063v8.698l0.654-0.03
	l0.619-0.062l0.636-0.125l0.619-0.17L110.995,57.262L110.995,57.262z M110.995,47.258h0.944l0.776,0.045l0.886,0.109l0.91,0.232
	l0.887,0.326l0.789,0.436l0.636,0.498l0.511,0.59l0.452,0.744l0.401,0.855l0.232,0.87l0.124,0.823l-0.032,0.76l-0.139,0.746
	l-0.279,0.762l-0.371,0.698l-0.496,0.621l-0.651,0.592l-0.714,0.513l-0.773,0.402l-0.837,0.313l-0.791,0.248l-0.354,0.076
	l0.572,0.313l0.526,0.389l0.479,0.434l0.403,0.516l5.379,6.616l0.479,0.528l0.527,0.498l0.559,0.449l0.572,0.42l0.449,0.217
	l0.465,0.172l0.48,0.123v0.343h-4.866l-0.589-0.017l-0.574-0.139l-0.527-0.249l-0.447-0.356l-0.498-0.528l-5.502-7.286l-0.821-1.102
	l-0.278-0.328l-0.326-0.279l-0.34-0.248l-0.373-0.217l-0.402-0.124l-0.418-0.079l-0.032,10.952h-5.331v-0.326l0.266-0.248
	l0.185-0.249l0.155-0.295l0.14-0.326l0.125-0.404l0.077-0.371l0.031-0.342V49.991l-0.018-0.312l-0.045-0.295l-0.095-0.296
	l-0.14-0.278l-0.172-0.25l-0.213-0.231l-0.234-0.202l-0.448-0.264l-0.437-0.172l-0.216-0.062v-0.358L110.995,47.258L110.995,47.258z
	 M34.689,67.328l0.435,0.063l0.728,0.014l0.62-0.092l0.682-0.219l0.791-0.435l0.666-0.497l0.513-0.528l0.48-0.668l0.465-0.823
	l0.387-0.822l0.279-0.87l0.187-0.9l0.123-1.009l0.063-0.979l-0.031-0.9l-0.124-1.012l-0.186-0.978l-0.295-1.042l-0.418-1.117
	l-0.543-1.058l-0.605-0.933l-0.682-0.869l-0.821-0.777l-0.806-0.574l-0.868-0.449l-1.022-0.326h-0.016l-0.914-0.109l-0.931,0.109
	l-0.774,0.232l-0.683,0.389L30.69,50.66l-0.542,0.559l-0.45,0.637l-0.466,0.838l-0.387,0.902l-0.264,0.885l-0.187,1.025
	l-0.124,1.166v1.148l0.094,1.134l0.188,1.166l0.309,1.134l0.403,1.104l0.712,1.32l0.62,0.932l0.341,0.451l0.187,0.23l0.201,0.25
	l0.279,0.279l0.604,0.496l0.668,0.42l0.712,0.326l0.743,0.219L34.689,67.328L34.689,67.328z M34.689,46.854l0.774,0.017l1.209,0.142
	l1.054,0.247l1.053,0.373l0.979,0.45l0.914,0.559l0.914,0.685l0.915,0.839l0.744,0.839l0.636,0.901l0.558,0.962l0.498,1.165
	l0.433,1.352l0.249,1.15l0.092,1.104v1.118l-0.154,1.46l-0.248,1.273l-0.389,1.135l-0.604,1.305l-0.667,1.117l-0.667,0.902
	l-0.852,0.916l-0.961,0.854l-0.947,0.652l-0.975,0.529l-1.18,0.481l-1.395,0.388l-1.115,0.172l-0.868,0.045L34.441,70l-1.146-0.063
	l-1.07-0.187l-1.053-0.28l-1.133-0.466l-1.178-0.621l-0.884-0.638l-0.698-0.621l-0.341-0.327l-0.309-0.342l-0.606-0.729
	l-0.526-0.777l-0.542-0.961l-0.418-1.026l-0.372-1.134l-0.28-1.336l-0.123-1.165v-1.212l0.093-1.195l0.232-1.259l0.404-1.32
	l0.449-1.071l0.557-1.025l0.636-0.947l0.744-0.886l0.807-0.822l0.898-0.716l0.976-0.65L30.83,47.6l1.147-0.402l1.053-0.233
	l1.086-0.108h0.573V46.854z M59.226,69.857l1.612,0.018l8.322-20.008l0.188-0.389l0.248-0.357l0.277-0.342l0.311-0.295l0.342-0.264
	l0.65-0.421l0.327-0.188v-0.34h-6.14v0.34l0.141,0.109l0.264,0.264l0.187,0.297l0.106,0.311l0.032,0.373l-0.032,0.373l-0.106,0.403
	l-5.162,12.304l-5.13-12.146l-0.154-0.467l-0.094-0.404l0.015-0.325l0.095-0.327l0.139-0.279l0.202-0.279l0.263-0.203V47.26h-7.563
	v0.354l0.23,0.109l0.574,0.297l0.543,0.388l0.45,0.466l0.356,0.514l0.154,0.232l0.109,0.249L59.226,69.857L59.226,69.857z
	 M78.059,69.207v0.326l15.871,0.015l1.379-4.612l-0.338-0.141l-0.328,0.467l-0.401,0.574l-0.403,0.436l-0.418,0.312L93,66.753
	l-0.48,0.093l-0.293,0.016h-8.806v-7.735h6.884l0.309,0.017l0.297,0.078l0.262,0.123l0.232,0.203l0.17,0.217l0.141,0.2h0.355v-4.286
	h-0.387l-0.047,0.109l-0.154,0.248l-0.217,0.218L91,56.422l-0.293,0.109l-0.296,0.031h-6.99v-6.758h6.929l0.574,0.03l0.542,0.142
	l0.526,0.231l0.48,0.294l0.42,0.404l0.323,0.466l0.154,0.312h0.405l-0.172-4.412H77.082v0.342l0.186,0.031l0.325,0.108l0.325,0.155
	l0.344,0.248l0.293,0.357l0.232,0.42l0.156,0.435l0.076,0.403l0.015,0.404L79.02,66.814l-0.016,0.373l-0.061,0.451l-0.156,0.512
	l-0.217,0.481l-0.219,0.312L78.059,69.207L78.059,69.207z M9.378,47.258H0V47.6l0.217,0.031l0.465,0.154l0.389,0.188l0.294,0.248
	l0.248,0.311l0.202,0.421l0.124,0.418l0.046,0.403v0.219v16.792l-0.061,0.528l-0.095,0.498L1.642,68.29l-0.248,0.452L1.117,69.16
	v0.357h5.145L6.34,58.504l0.217,0.031l0.249,0.063l0.572,0.217l0.511,0.344l0.42,0.389l0.34,0.436l0.141,0.217l0.589,0.777
	l5.642,7.519l0.418,0.403l0.482,0.34l0.479,0.188l0.496,0.078l0.248,0.016h4.914v-0.342l-0.341-0.107l-0.728-0.325l-0.714-0.452
	l-0.821-0.762L17.3,64.953l-1.829-2.313l-2.155-2.675l-0.324-0.354l-0.357-0.326l-0.373-0.311l-0.806-0.529l0.403-0.125l0.836-0.248
	l0.869-0.34l0.775-0.437l0.666-0.498l0.543-0.56l0.48-0.637l0.371-0.729l0.264-0.776l0.14-0.777l0.015-0.822l-0.107-0.823
	l-0.216-0.761l-0.343-0.73l-0.388-0.652l-0.51-0.59l-0.652-0.543l-0.727-0.437l-0.792-0.325l-0.822-0.232l-0.836-0.125l-1.21-0.016
	H9.378V47.258z"/>
<g>
	<path fill="#B3A255" d="M56.696,35.572c0.203-0.02,0.422-0.061,0.644-0.121c0.079-0.039,0.201-0.081,0.301-0.142
		c0.081-0.02,0.18-0.039,0.262-0.061c0.221-0.06,0.422-0.079,0.622-0.1c0.622-0.039,1.186,0.099,1.809,0.361
		c0.12,0.042,0.24,0.101,0.36,0.163c0,0,0,0,0.02,0c-0.02,0-0.02-0.021-0.02-0.042c-0.12-0.16-0.24-0.301-0.36-0.423
		c-0.522-0.602-1.065-0.865-1.809-0.904c-0.181,0-0.38,0-0.622,0.02c-0.101,0.019-0.201,0.019-0.322,0.04
		c-0.08,0.02-0.161,0.041-0.24,0.062c-0.243,0.019-0.442,0.039-0.644,0.039c-0.142,0-0.28,0-0.421-0.02
		c-0.242-0.02-0.502-0.081-0.763-0.141c-0.12-0.042-0.26-0.082-0.401-0.121l0.401,1.006l0.059,0.121
		c0.242,0.121,0.482,0.181,0.703,0.222C56.416,35.553,56.554,35.572,56.696,35.572z"/>
	<path fill="#B3A255" d="M67.622,6.566H67.2h-0.642h-0.584h-0.623h-1.806h-0.344h-0.44h-1.646h-0.422h-0.36h-1.809h-0.622H57.34
		h-0.644h-0.421h-0.763h-6.549l0.041,0.685l0.361,0.04c0.343,7.084,1.627,13.909,4.058,20.551c0.621-0.967,1.324-1.792,2.089-2.455
		c0.239-0.223,0.501-0.423,0.763-0.605c0.141-0.099,0.279-0.199,0.421-0.301c0.202-0.121,0.422-0.262,0.644-0.361
		c0.18-0.12,0.382-0.202,0.563-0.305c0.221-0.078,0.422-0.18,0.622-0.261c0.463-0.161,0.905-0.302,1.366-0.381
		c-0.283,0.905-0.622,1.812-1.064,2.736l0.181,0.101c0.483-0.985,0.844-1.952,1.124-2.898c0.08-0.02,0.142-0.02,0.202-0.04
		c0.041,0,0.08,0,0.12-0.02c-0.04,0.141-0.06,0.281-0.12,0.422c-0.281,1.007-0.663,2.013-1.127,3.061
		c-0.26-0.242-0.48-0.384-0.682-0.402c-0.261-0.063-0.462,0.059-0.622,0.261c-0.322,0.443-0.361,1.308,0,1.852
		c0.16,0.223,0.361,0.383,0.622,0.442c0.02,0,0.02,0,0.041,0.022c0.782,0,0.903-0.806,0.903-1.432
		c0.482,0.786-0.061,1.753-0.944,1.713c-0.041,0-0.101,0-0.161-0.021c-0.02,0.484-0.16,0.844-0.461,1.047
		c-0.14,0.102-0.342,0.18-0.563,0.2c-0.12,0-0.222,0-0.342-0.021c-0.078,0.325-0.18,0.545-0.302,0.686
		c-0.121,0.16-0.262,0.282-0.421,0.363c-0.201,0.121-0.402,0.2-0.665,0.341l0.304,0.442c0.119-0.079,0.239-0.141,0.361-0.22
		c0.141-0.102,0.279-0.183,0.421-0.282c0.224-0.141,0.422-0.301,0.644-0.442c0.18-0.163,0.382-0.323,0.563-0.483
		c0.221-0.181,0.422-0.361,0.622-0.564c0.682-0.664,1.287-1.388,1.809-2.193c0.139-0.181,0.24-0.383,0.36-0.564
		c0.142-0.241,0.281-0.501,0.422-0.763c0.102-0.223,0.221-0.423,0.301-0.646l0.04-2.919c0.1,0,0.201,0,0.304,0v13.405h0.399V22.95
		c0.1,0.021,0.182,0.021,0.262,0.021l0.041,2.938c0.102,0.223,0.198,0.423,0.301,0.625c0.141,0.261,0.28,0.524,0.44,0.785
		c0.103,0.181,0.224,0.361,0.344,0.563c0.519,0.804,1.124,1.53,1.806,2.192c0.201,0.183,0.424,0.383,0.623,0.563
		c0.199,0.163,0.383,0.323,0.584,0.465c0.199,0.16,0.42,0.301,0.642,0.462c0.122,0.081,0.262,0.18,0.422,0.261
		c0.103,0.083,0.224,0.161,0.342,0.221l0.304-0.442c-0.244-0.12-0.465-0.22-0.646-0.321c-0.179-0.102-0.319-0.2-0.422-0.363
		c-0.12-0.16-0.24-0.38-0.319-0.682c-0.121,0-0.223,0-0.322,0c-0.221-0.022-0.422-0.082-0.584-0.183
		c-0.279-0.2-0.438-0.563-0.461-1.046c-0.061,0-0.101,0-0.16,0.021c-0.885,0.02-1.426-0.946-0.942-1.711
		c0,0.623,0.119,1.409,0.924,1.409c0,0,0,0,0.019,0c0.283-0.081,0.482-0.242,0.623-0.465c0.362-0.521,0.319-1.389,0-1.831
		c-0.141-0.201-0.361-0.321-0.623-0.282c-0.2,0.04-0.422,0.161-0.662,0.423c-0.481-1.046-0.842-2.054-1.144-3.06
		c-0.043-0.141-0.081-0.281-0.12-0.422c0.039,0,0.077,0,0.12,0.02c0.078,0.02,0.181,0.02,0.261,0.042
		c0.279,0.944,0.643,1.891,1.123,2.876l0.183-0.102c-0.423-0.924-0.784-1.809-1.063-2.715c0.439,0.101,0.883,0.242,1.305,0.402
		c0.22,0.08,0.422,0.181,0.621,0.281c0.201,0.082,0.383,0.182,0.584,0.282c0.222,0.122,0.422,0.242,0.643,0.383
		c0.143,0.099,0.281,0.2,0.422,0.282c0.264,0.2,0.503,0.402,0.764,0.603c0.758,0.687,1.461,1.492,2.063,2.416
		c2.431-6.682,3.797-13.404,4.078-20.489h0.359l0.063-0.806h-6.569H67.622z M58.906,28.104c-0.142,0.082-0.262,0.101-0.382,0.082
		c-0.663-0.082-0.864-1.671-0.06-1.671c-0.483,0.482-0.242,1.108,0.06,1.186c0.182,0.061,0.401-0.078,0.504-0.543
		C59.167,27.5,59.167,27.802,58.906,28.104z M64.852,27.2c0.121,0.461,0.319,0.602,0.502,0.542c0.301-0.081,0.541-0.706,0.061-1.169
		c0.361,0,0.523,0.302,0.523,0.646c0,0.643-0.283,0.946-0.584,1.006C64.973,28.285,64.589,27.883,64.852,27.2z M53.684,26.191
		c0-0.02-0.021-0.059-0.021-0.099c-2.088-6.181-3.251-12.32-3.513-18.801h1.987c0.162,4.369,0.664,8.516,1.526,12.682
		c0.343,1.629,0.723,3.259,1.186,4.91L53.684,26.191z M56.194,23.896l-1.044,0.745c-0.643-2.133-1.125-4.187-1.487-6.218
		c-0.662-3.626-0.983-7.207-1.201-11.133h1.201h1.608c-0.242,4.33,0.14,8.717,0.923,12.983c0.202,1.065,0.423,2.113,0.644,3.139
		L56.194,23.896z M58.706,22.648l-1.588,0.623c-0.381-1.689-0.684-3.34-0.924-4.991c-0.502-3.622-0.663-7.225-0.642-10.989h0.642
		h1.95c-0.343,4.408-0.141,8.816,0.562,13.164c0.099,0.664,0.24,1.348,0.359,2.033L58.706,22.648z M60.333,26.373
		c-0.202-0.081-0.401-0.523-0.081-0.746c-0.041,0.202-0.02,0.402,0.081,0.442c0.08,0.022,0.158,0,0.259-0.118
		C60.592,26.332,60.472,26.432,60.333,26.373z M60.693,25.184c-0.179-0.102-0.341-0.462-0.039-0.623
		c-0.102,0.162-0.062,0.322,0.039,0.381c0.061,0.042,0.161,0.042,0.261-0.079C60.954,25.205,60.815,25.266,60.693,25.184z
		 M61.115,23.999c-0.122,0.22-0.502-0.062-0.241-0.445h0.04c-0.04,0.162-0.06,0.223,0.021,0.363c0.08-0.021,0.121-0.021,0.18-0.06
		c0.02-0.021,0.02-0.021,0.039-0.043C61.154,23.896,61.134,23.956,61.115,23.999z M62.762,24.036c-0.02-0.059-0.039-0.1-0.039-0.16
		c0.02,0.001,0.039,0.02,0.039,0.02c0.264,0.141,0.281-0.061,0.223-0.301c0.199,0.1,0.14,0.583-0.183,0.523
		C62.802,24.077,62.782,24.056,62.762,24.036z M63.203,25.224c-0.141,0.063-0.26,0.022-0.26-0.301c0.1,0.081,0.18,0.081,0.26,0.061
		c0.102-0.042,0.143-0.203,0.041-0.363C63.525,24.762,63.387,25.125,63.203,25.224z M63.547,26.111
		c0.161-0.061,0.098-0.261,0.098-0.442c0.323,0.16,0.102,0.642-0.098,0.744c-0.12,0.081-0.262-0.02-0.262-0.423l0.119,0.142
		C63.465,26.132,63.525,26.132,63.547,26.111z M63.807,22.328c-0.101-0.363-0.183-0.727-0.261-1.107
		c-0.383-1.912-0.504-3.865-0.504-6l-0.2,0.082l-0.041,0.019c0,0.544,0.02,1.068,0.041,1.572c0.08,1.89,0.262,3.601,0.704,5.333
		c0,0.02,0.019,0.06,0.019,0.06h-0.019c-0.101,0-0.222-0.021-0.323-0.021c-0.16-0.684-0.279-1.369-0.381-2.073
		c-0.221-1.549-0.279-3.118-0.261-4.809l-0.261,0.06l0.1,6.783c-0.08-0.02-0.162-0.02-0.262-0.02v-6.886h-0.2H61.76v6.886
		c-0.103,0-0.204,0.02-0.283,0.02l0.079-6.823l-0.26-0.039c0.021,1.589-0.021,3.078-0.221,4.547
		c-0.101,0.806-0.24,1.592-0.421,2.354c-0.103,0.021-0.183,0.021-0.28,0.021c0.421-1.651,0.601-3.299,0.701-5.091
		c0.04-0.606,0.06-1.229,0.06-1.893l-0.06-0.021l-0.183-0.062c0,2.154-0.118,4.146-0.54,6.118c-0.061,0.324-0.142,0.646-0.222,0.989
		c-0.261,0.02-0.523,0.059-0.783,0.099c-0.282-1.308-0.48-2.637-0.642-3.964c-0.422-3.705-0.422-7.429-0.302-11.172h0.302h1.646
		h0.723h0.884h0.884h0.704h1.668v0.001h0.28c0.262,3.583,0.141,7.146-0.28,10.707c-0.163,1.49-0.401,2.98-0.685,4.45
		C64.289,22.406,64.048,22.367,63.807,22.328z M65.214,22.688l-0.401-0.16c0.16-0.764,0.299-1.509,0.401-2.273
		c0.681-4.288,0.781-8.536,0.542-12.923h1.946h0.623c0.103,3.744-0.103,7.426-0.623,11.092c-0.24,1.628-0.541,3.279-0.903,4.889
		L65.214,22.688z M73.748,7.332c-0.262,6.502-1.426,12.641-3.516,18.818c-0.02,0.021-0.02,0.063-0.041,0.102l-1.164-1.31
		c0.461-1.629,0.863-3.239,1.205-4.828c0.885-4.188,1.387-8.354,1.508-12.782H73.748z M70.232,7.353h1.186
		c-0.202,4.006-0.501,7.668-1.186,11.372c-0.381,1.972-0.842,3.923-1.485,5.979l-1.045-0.766l-0.662-0.464
		c0.242-1.068,0.463-2.135,0.662-3.219c0.763-4.248,1.146-8.594,0.905-12.902H70.232z"/>
	<path fill="#B3A255" d="M67.621,34.484c-0.141,0.018-0.28,0.039-0.422,0.039c-0.16,0-0.319,0-0.482-0.021
		c-0.059,0-0.098-0.018-0.158-0.039c-0.201-0.039-0.402-0.06-0.584-0.101c-0.22-0.021-0.423-0.021-0.623,0
		c-0.703,0.02-1.266,0.301-1.806,0.885c-0.12,0.142-0.241,0.282-0.344,0.444c-0.019,0-0.019,0.02-0.039,0.02
		c0.019,0,0.019,0,0.039,0c0.103-0.061,0.224-0.1,0.344-0.16c0.62-0.262,1.185-0.403,1.806-0.363c0.201,0.02,0.424,0.06,0.623,0.101
		c0.102,0.019,0.182,0.041,0.262,0.08c0.121,0.042,0.222,0.081,0.322,0.12c0.221,0.062,0.42,0.101,0.642,0.123
		c0.142,0,0.262-0.021,0.422-0.041c0.2-0.039,0.442-0.099,0.703-0.201l0.06-0.161l0.401-0.986c-0.14,0.04-0.261,0.082-0.401,0.121
		C68.125,34.425,67.885,34.464,67.621,34.484z"/>
	<path fill="#B3A255" d="M67.622,30.419c-0.14-0.121-0.261-0.224-0.401-0.344l-0.021,0.02l-0.062,0.043
		c0,0.101,0.022,0.198,0.062,0.301c0.06,0.22,0.2,0.403,0.422,0.504c0.121,0.059,0.282,0.079,0.46,0.079
		c0.082,0.102,0.204,0.181,0.303,0.262c0.383,0.321,0.783,0.646,1.167,0.967l0.079-0.102c-0.441-0.341-0.845-0.685-1.246-1.045
		C68.125,30.881,67.863,30.658,67.622,30.419z"/>
	<path fill="#B3A255" d="M67.623,29.835c-0.021-0.022-0.04-0.042-0.081-0.061l-0.117,0.14c0.06,0.063,0.117,0.102,0.198,0.161
		c0.24,0.223,0.502,0.446,0.762,0.645c0.444,0.363,0.905,0.725,1.346,1.106l0.103-0.241c-0.504-0.36-0.983-0.743-1.446-1.127
		C68.126,30.258,67.865,30.035,67.623,29.835z"/>
	<path fill="#B3A255" d="M67.621,28.909c-0.141-0.121-0.28-0.222-0.422-0.343c-0.221-0.181-0.441-0.361-0.643-0.541
		c-0.039-0.022-0.06-0.043-0.08-0.062l-0.203,0.422c0.103,0.082,0.185,0.16,0.283,0.242c0.2,0.181,0.422,0.363,0.643,0.524
		c0.142,0.121,0.281,0.239,0.422,0.341c0.242,0.223,0.504,0.422,0.764,0.646c0.502,0.402,1.025,0.824,1.529,1.228l0.238-0.484
		c-0.602-0.462-1.185-0.904-1.769-1.369C68.124,29.313,67.863,29.111,67.621,28.909z"/>
	<path fill="#B3A255" d="M68.607,29.453l0.279,0.18c0.04-0.443-0.119-1.068-0.502-1.229c-0.16-0.078-0.34-0.078-0.563,0.021v0.362
		l0.424,0.342c-0.021-0.2-0.082-0.302-0.282-0.38c0.181,0.019,0.304,0.059,0.421,0.141C68.546,29.01,68.607,29.19,68.607,29.453z"/>
	<polygon fill="#B3A255" points="65.354,5.523 63.547,5.3 63.203,5.26 62.762,5.198 62.521,5.178 62.521,5.279 62.762,5.299 
		63.203,5.338 63.547,5.38 65.354,5.58 65.975,5.661 66.559,5.72 67.2,5.782 67.622,5.842 68.385,5.924 71.559,6.284 68.385,5.882 
		67.622,5.803 67.2,5.741 66.559,5.664 65.975,5.602 	"/>
	<path fill="#B3A255" d="M67.201,35.874c-0.221-0.019-0.422-0.06-0.643-0.121c-0.08,0-0.142-0.019-0.221-0.04
		c-0.121-0.063-0.242-0.102-0.363-0.141c-0.199-0.063-0.422-0.101-0.621-0.101c-0.644-0.041-1.205,0.16-1.807,0.483
		c-0.12,0.079-0.242,0.142-0.344,0.22c-0.1,0.063-0.178,0.102-0.26,0.16c-0.061,0.043-0.123,0.082-0.182,0.104
		c-0.662,0.342-1.042,0.201-1.646-0.121c-0.101-0.06-0.201-0.102-0.3-0.162c-0.041-0.039-0.082-0.059-0.122-0.08
		c-0.12-0.08-0.24-0.161-0.36-0.221c-0.604-0.322-1.187-0.442-1.809-0.382c-0.2,0.019-0.401,0.06-0.622,0.101
		c-0.181,0.039-0.362,0.101-0.563,0.16c-0.04,0.02-0.062,0.02-0.101,0.039c-0.2,0.022-0.382,0.043-0.543,0.043
		c-0.142,0-0.28,0-0.421-0.021c-0.122-0.022-0.242-0.042-0.382-0.062l0.382,0.845l0.26,0.584c0.04,0,0.101-0.021,0.161-0.021
		c0.224-0.02,0.422-0.041,0.644-0.08c0.18-0.041,0.382-0.101,0.563-0.142c0.221-0.062,0.422-0.121,0.622-0.162
		c0.362-0.079,0.723-0.142,1.124-0.142c0.243,0.023,0.463,0.082,0.685,0.142c0.12,0.041,0.24,0.081,0.36,0.101
		c0.142,0.063,0.281,0.104,0.422,0.143c0.281,0.081,0.562,0.161,0.863,0.202c0.28-0.022,0.543-0.062,0.784-0.142
		c0.16-0.041,0.299-0.061,0.44-0.121c0.103-0.021,0.224-0.062,0.344-0.102c0.54-0.141,1.083-0.262,1.806-0.081
		c0.221,0.081,0.424,0.14,0.623,0.203c0.199,0.06,0.383,0.101,0.584,0.14c0.2,0.062,0.401,0.103,0.642,0.103
		c0.082,0.021,0.18,0.021,0.282,0.04l0.14-0.281l0.522-1.146c-0.181,0.039-0.362,0.059-0.522,0.08
		C67.462,35.895,67.342,35.895,67.201,35.874z"/>
	<path fill="#B3A255" d="M63.202,29.09c0.103,0.141,0.224,0.282,0.344,0.423c0.562,0.644,1.144,1.228,1.806,1.771
		c0.201,0.161,0.424,0.321,0.623,0.462s0.383,0.282,0.584,0.403c0.2,0.141,0.42,0.261,0.642,0.402
		c0.082,0.04,0.161,0.082,0.243,0.142l0.179-0.243l0.181-0.261c-0.06-0.04-0.121-0.08-0.181-0.099
		c-0.14-0.082-0.28-0.181-0.422-0.264c-0.222-0.14-0.442-0.3-0.642-0.441c-0.201-0.141-0.385-0.302-0.584-0.465
		c-0.199-0.18-0.423-0.36-0.623-0.54c-0.662-0.646-1.287-1.33-1.806-2.054c-0.12-0.181-0.241-0.363-0.344-0.524
		c-0.16-0.243-0.3-0.483-0.44-0.725c-0.16-0.301-0.3-0.624-0.441-0.927v1.754c0.159,0.22,0.3,0.423,0.441,0.623
		C62.902,28.73,63.042,28.909,63.202,29.09z"/>
	<path fill="#B3A255" d="M62.76,29.594c0.081,0.079,0.161,0.181,0.264,0.301c0.06,0.059,0.119,0.121,0.179,0.2
		c0.103,0.121,0.224,0.263,0.344,0.383c0.562,0.606,1.144,1.148,1.806,1.631c0.2,0.142,0.424,0.282,0.623,0.423
		c0.182,0.122,0.383,0.242,0.584,0.342c0,0.021,0.02,0.021,0.02,0.021l0.443,0.26l0.179-0.181l0.04-0.06
		c-0.02-0.02-0.02-0.02-0.04-0.041c-0.222-0.12-0.441-0.24-0.644-0.362c-0.201-0.121-0.384-0.242-0.584-0.383
		c-0.199-0.141-0.422-0.302-0.621-0.443c-0.623-0.483-1.205-1.027-1.769-1.67c-0.019,0-0.019-0.019-0.038-0.039
		c-0.12-0.141-0.242-0.282-0.344-0.445c-0.16-0.18-0.299-0.38-0.441-0.583c-0.139-0.199-0.281-0.403-0.44-0.622
		C62.32,29.01,62.44,29.211,62.76,29.594z"/>
	<path fill="#B3A255" d="M66.559,28.949h0.02l-0.02-0.04l-0.402-0.343l-0.182,0.202l-0.22,0.223c0.021,0.26,0.099,0.481,0.22,0.662
		c0.16,0.223,0.362,0.383,0.584,0.383c0.2,0.021,0.44-0.101,0.642-0.402c0.019-0.02,0.019-0.039,0.04-0.059l-0.04-0.063
		l-0.202-0.179c-0.18,0.058-0.322,0.1-0.439,0.121c-0.303,0.039-0.402-0.121-0.402-0.666C66.255,28.929,66.416,29.051,66.559,28.949
		z"/>
	<path fill="#B3A255" d="M66.479,27.742l0.08,0.06l0.383,0.242c-0.061-0.161-0.183-0.302-0.342-0.344c0.281,0,0.5,0.121,0.601,0.344
		c0.019,0.079,0.04,0.18,0.04,0.282l0.301,0.2c0.041-0.423-0.059-0.904-0.341-1.127c-0.16-0.102-0.382-0.161-0.642-0.08
		L66.479,27.742z"/>
	<polygon fill="#B3A255" points="67.4,27.238 67.503,27.259 67.2,25.951 66.9,24.703 66.799,24.703 67.2,26.332 	"/>
	<path fill="#B3A255" d="M62.76,31.182c0.061,0.063,0.122,0.121,0.182,0.184c0.082,0.079,0.16,0.16,0.261,0.239
		c0.103,0.102,0.224,0.222,0.344,0.305c0.581,0.501,1.163,0.904,1.806,1.326c0.201,0.122,0.404,0.262,0.604,0.403
		c0.019,0,0.019-0.02,0.019-0.02c0.224-0.039,0.402-0.082,0.584-0.161c0.1-0.042,0.18-0.1,0.279-0.16
		c-0.098-0.062-0.179-0.101-0.279-0.163c-0.201-0.122-0.384-0.221-0.586-0.342c-0.199-0.14-0.422-0.281-0.621-0.422
		c-0.644-0.462-1.244-0.966-1.807-1.529c-0.12-0.122-0.242-0.242-0.344-0.384c-0.16-0.14-0.299-0.301-0.441-0.481
		c-0.139-0.184-0.281-0.344-0.44-0.544C62.32,30.458,62.257,30.579,62.76,31.182z"/>
	<polygon fill="#B3A255" points="65.916,24.14 65.775,24.14 65.975,25.165 66.157,26.112 66.275,26.112 65.975,24.52 	"/>
	<path fill="#B3A255" d="M63.203,4.656c0.122,0.019,0.242,0.058,0.344,0.079c0.641,0.161,1.184,0.261,1.807,0.18
		c0.199-0.018,0.422-0.078,0.621-0.16l-0.401-0.241l0.343-0.484l-0.563,0.02l-0.885,0.063c-0.302-0.082-0.621-0.203-0.922-0.263
		c-0.12-0.042-0.242-0.061-0.344-0.082c-0.141-0.02-0.28-0.02-0.441,0c-0.139,0.021-0.281,0.04-0.44,0.103v0.844l0.44-0.039
		L63.203,4.656z"/>
	<path fill="#B3A255" d="M65.354,33.78l0.24-0.063c-0.08-0.06-0.16-0.099-0.24-0.16c-0.623-0.382-1.244-0.805-1.807-1.288
		c-0.12-0.102-0.242-0.2-0.344-0.302c-0.16-0.142-0.301-0.282-0.441-0.442c-0.14-0.16-0.3-0.344-0.44-0.504v0.604
		c0.159,0.143,0.301,0.304,0.44,0.444c0.143,0.141,0.281,0.262,0.441,0.403c0.102,0.099,0.224,0.199,0.344,0.28
		c0.461,0.382,0.941,0.745,1.465,1.108L65.354,33.78z"/>
	<path fill="#B3A255" d="M63.547,34.684l0.219-0.199c-0.078-0.04-0.16-0.06-0.219-0.102c-0.12-0.06-0.242-0.141-0.344-0.2
		c-0.16-0.102-0.301-0.202-0.441-0.321c-0.14-0.102-0.281-0.223-0.44-0.363v0.563l0.44,0.262l0.441,0.262l0.262,0.161L63.547,34.684
		z"/>
	<path fill="#B3A255" d="M64.75,33.939c-0.422-0.301-0.823-0.582-1.203-0.864c-0.12-0.102-0.242-0.181-0.344-0.282
		c-0.16-0.14-0.301-0.262-0.441-0.402c-0.14-0.141-0.281-0.301-0.44-0.462v1.187c0.159,0.141,0.301,0.262,0.44,0.383
		c0.143,0.101,0.281,0.22,0.441,0.301c0.102,0.081,0.224,0.16,0.344,0.241c0.141,0.103,0.279,0.181,0.441,0.282
		C64.27,34.1,64.391,34.041,64.75,33.939z"/>
	<path fill="#B3A255" d="M62.762,34.708c-0.139-0.082-0.281-0.184-0.44-0.344v1.689c0.14-0.199,0.282-0.402,0.44-0.603
		c0.141-0.161,0.281-0.321,0.441-0.482c0-0.021,0.02-0.021,0.02-0.021c0-0.021-0.02-0.021-0.02-0.021
		C63.025,34.848,62.902,34.785,62.762,34.708z"/>
	<path fill="#B3A255" d="M61.114,35.39c0.16,0.2,0.32,0.403,0.462,0.624l-0.021-1.691c-0.139,0.141-0.28,0.262-0.44,0.341
		c-0.122,0.082-0.261,0.142-0.423,0.222c-0.02,0-0.02,0-0.02,0c0,0.02,0,0.02,0.02,0.02C60.834,35.066,60.973,35.227,61.114,35.39z"
		/>
	<path fill="#B3A255" d="M60.413,34.706c0.101-0.043,0.178-0.082,0.28-0.122c0.142-0.082,0.281-0.16,0.422-0.242
		c0.16-0.101,0.3-0.199,0.44-0.341v-0.563c-0.139,0.142-0.28,0.279-0.44,0.38c-0.14,0.121-0.28,0.223-0.422,0.324
		c-0.12,0.059-0.221,0.118-0.36,0.18c-0.061,0.04-0.142,0.081-0.222,0.121l0.222,0.2L60.413,34.706z"/>
	<path fill="#B3A255" d="M60.333,34.003c0.12-0.081,0.24-0.162,0.36-0.222c0.142-0.122,0.281-0.222,0.422-0.322
		c0.16-0.12,0.3-0.241,0.44-0.363v-1.228c-0.139,0.179-0.28,0.321-0.44,0.483c-0.14,0.141-0.28,0.262-0.422,0.403
		c-0.12,0.1-0.24,0.181-0.36,0.283c-0.362,0.302-0.765,0.563-1.206,0.885c0.342,0.081,0.481,0.16,0.764,0.341
		C60.052,34.184,60.191,34.082,60.333,34.003z"/>
	<path fill="#B3A255" d="M60.693,32.431c0.142-0.14,0.281-0.262,0.422-0.403c0.16-0.141,0.3-0.301,0.44-0.462v-0.604
		c-0.139,0.18-0.28,0.361-0.44,0.522c-0.14,0.162-0.28,0.304-0.422,0.444c-0.12,0.099-0.24,0.2-0.36,0.302
		c-0.565,0.481-1.166,0.904-1.809,1.287c-0.08,0.063-0.161,0.102-0.22,0.141l0.22,0.06l0.343,0.081
		c0.541-0.34,1.024-0.683,1.466-1.064C60.453,32.633,60.573,32.532,60.693,32.431z"/>
	<path fill="#B3A255" d="M61.115,29.954c-0.14,0.163-0.28,0.323-0.422,0.485c-0.12,0.14-0.24,0.242-0.36,0.363
		c-0.543,0.583-1.147,1.065-1.809,1.529c-0.2,0.141-0.401,0.282-0.622,0.403c-0.181,0.119-0.383,0.239-0.563,0.36
		c-0.1,0.04-0.201,0.101-0.281,0.161c0.08,0.061,0.18,0.102,0.281,0.141c0.161,0.081,0.341,0.141,0.563,0.184c0.019,0,0.04,0,0.04,0
		c0.202-0.142,0.401-0.264,0.582-0.384c0.643-0.423,1.225-0.826,1.809-1.31c0.12-0.098,0.24-0.201,0.36-0.321
		c0.081-0.081,0.161-0.161,0.261-0.242c0.06-0.079,0.121-0.141,0.161-0.2c0.522-0.583,0.44-0.724,0.44-1.732
		C61.416,29.574,61.275,29.774,61.115,29.954z"/>
	<path fill="#B3A255" d="M57.902,32.472c0.221-0.142,0.422-0.284,0.622-0.426c0.643-0.481,1.225-0.986,1.809-1.608
		c0.12-0.121,0.24-0.243,0.36-0.383c0.06-0.059,0.101-0.122,0.161-0.2c0.1-0.121,0.18-0.223,0.261-0.302
		c0.32-0.383,0.44-0.585,0.44-1.247l-0.44,0.602l-0.422,0.582l-0.08,0.102c-0.081,0.121-0.179,0.219-0.28,0.34
		c-0.543,0.646-1.147,1.209-1.809,1.713c-0.2,0.161-0.401,0.301-0.622,0.443c-0.181,0.141-0.383,0.261-0.563,0.383
		c-0.222,0.118-0.42,0.262-0.644,0.381c-0.02,0-0.039,0.02-0.06,0.02l0.06,0.062l0.183,0.16c0.16-0.082,0.301-0.181,0.461-0.262
		C57.519,32.711,57.721,32.59,57.902,32.472z"/>
	<path fill="#B3A255" d="M60.693,27.762c-0.12,0.161-0.221,0.342-0.36,0.502c-0.522,0.727-1.147,1.431-1.809,2.054
		c-0.2,0.203-0.401,0.383-0.622,0.563c-0.181,0.14-0.383,0.3-0.563,0.442c-0.222,0.161-0.42,0.323-0.644,0.465
		c-0.142,0.079-0.28,0.18-0.421,0.259c-0.059,0.043-0.141,0.082-0.201,0.121l0.201,0.242l0.182,0.223
		c0.078-0.042,0.16-0.082,0.239-0.141c0.224-0.121,0.422-0.242,0.644-0.384c0.18-0.14,0.382-0.26,0.563-0.402
		c0.221-0.16,0.422-0.302,0.622-0.462c0.663-0.543,1.266-1.106,1.809-1.772c0.12-0.12,0.24-0.26,0.36-0.402
		c0.142-0.2,0.281-0.383,0.422-0.583c0.16-0.202,0.3-0.402,0.44-0.625v-1.77c-0.12,0.321-0.28,0.642-0.44,0.944
		C60.975,27.277,60.835,27.52,60.693,27.762z"/>
	<polygon fill="#B3A255" points="56.275,5.783 56.696,5.742 57.34,5.682 57.902,5.601 58.524,5.541 60.333,5.338 60.693,5.299 
		61.115,5.259 61.356,5.22 61.356,5.118 61.115,5.157 60.694,5.219 60.334,5.258 58.525,5.481 57.903,5.559 57.34,5.62 
		56.696,5.701 56.275,5.741 55.512,5.842 52.32,6.226 55.512,5.883 	"/>
	<polygon fill="#B3A255" points="61.798,6.226 62.06,6.226 62.06,3.526 62.24,3.406 62.24,3.287 61.638,3.287 61.638,3.406 
		61.798,3.526 	"/>
	<path fill="#B3A255" d="M57.339,29.433c-0.12,0-0.262-0.042-0.42-0.141l-0.224,0.18l-0.06,0.04c0.021,0.042,0.04,0.062,0.06,0.082
		c0.183,0.261,0.422,0.382,0.644,0.402c0.202,0,0.403-0.121,0.563-0.344c0.059-0.078,0.1-0.16,0.16-0.262l0.082-0.442l-0.242-0.239
		l-0.162-0.183l-0.402,0.363h-0.019l0.019,0.019l0.02,0.04c0.201,0,0.242-0.058,0.383-0.199
		C57.741,29.171,57.62,29.454,57.339,29.433z"/>
	<polygon fill="#B3A255" points="57.902,25.124 58.103,24.097 57.981,24.097 57.902,24.44 57.601,26.091 57.742,26.091 	"/>
	<path fill="#B3A255" d="M56.275,29.453c0.141-0.102,0.279-0.224,0.421-0.344c0.224-0.181,0.422-0.36,0.644-0.544
		c0.079-0.079,0.18-0.161,0.262-0.239l-0.183-0.423c-0.039,0.019-0.059,0.059-0.079,0.078c-0.222,0.184-0.42,0.364-0.644,0.524
		c-0.142,0.121-0.28,0.243-0.421,0.363c-0.262,0.201-0.502,0.404-0.763,0.603c-0.582,0.462-1.166,0.909-1.768,1.351l0.22,0.501
		c0.522-0.423,1.045-0.826,1.548-1.248C55.773,29.875,56.013,29.652,56.275,29.453z"/>
	<path fill="#B3A255" d="M56.335,28.487l0.301-0.18c0-0.121,0.021-0.223,0.06-0.305c0.082-0.219,0.302-0.361,0.582-0.361
		c-0.18,0.101-0.219,0.161-0.32,0.361l0.382-0.26l0.079-0.042l-0.079-0.423c-0.281-0.078-0.502-0.039-0.645,0.083
		C56.396,27.56,56.294,28.045,56.335,28.487z"/>
	<path fill="#B3A255" d="M55.814,30.983c0.181,0,0.319-0.021,0.461-0.102c0.201-0.079,0.342-0.261,0.421-0.482
		c0.02-0.101,0.041-0.183,0.061-0.304l-0.061-0.02l-0.039-0.039c-0.122,0.121-0.261,0.223-0.382,0.345
		c-0.262,0.22-0.502,0.442-0.763,0.661c-0.402,0.363-0.824,0.704-1.226,1.067l0.04,0.08c0.402-0.321,0.804-0.623,1.186-0.964
		C55.61,31.143,55.712,31.061,55.814,30.983z"/>
	<polygon fill="#B3A255" points="57.078,24.642 56.998,24.642 56.696,25.889 56.375,27.219 56.496,27.199 56.696,26.332 	"/>
	<path fill="#B3A255" d="M56.275,30.035c0.061-0.059,0.121-0.121,0.182-0.18l-0.121-0.141c-0.02,0.02-0.041,0.039-0.061,0.06
		c-0.261,0.222-0.502,0.421-0.763,0.645c-0.484,0.383-0.945,0.744-1.427,1.127l0.081,0.242c0.442-0.384,0.904-0.747,1.346-1.13
		C55.773,30.458,56.013,30.258,56.275,30.035z"/>
	<path fill="#B3A255" d="M55.632,29.089l0.442-0.36v-0.344c-0.221-0.101-0.401-0.101-0.562-0.021
		c-0.382,0.161-0.563,0.744-0.522,1.209l0.281-0.161c0-0.262,0.081-0.465,0.242-0.586c0.098-0.06,0.239-0.118,0.401-0.118
		C55.713,28.787,55.673,28.869,55.632,29.089z"/>
	<path fill="#B3A255" d="M63.244,12.203h-0.08c0,0.442-0.102,0.724-0.321,1.088c-0.021,0.02-0.041,0.039-0.041,0.059
		s0.021,0.04,0.041,0.06c0.241,0.203,0.421,0.524,0.563,0.806c0.059,0.06,0.098,0.1,0.141,0.12c0.141,0.039,0.119-0.22,0-0.786
		C63.465,13.209,63.363,12.767,63.244,12.203z"/>
	<path fill="#B3A255" d="M63.546,10.612c-0.12,0.164-0.262,0.305-0.403,0.443l0.242,0.323c0.061-0.063,0.1-0.102,0.162-0.161
		c0.16-0.141,0.279-0.301,0.401-0.483l-0.183-0.384C63.686,10.432,63.624,10.533,63.546,10.612z"/>
	<path fill="#B3A255" d="M60.833,10.813h0.24h0.161c-0.02,0.161-0.082,0.302-0.161,0.462c-0.02,0.021-0.02,0.039-0.041,0.082h0.041
		h0.543v-0.544h0.199v0.764l-0.742,0.082l-0.362,0.039V11.8h0.362h0.884h0.884h0.36v-0.102l-0.36-0.039l-0.725-0.063v-0.783h0.203
		v0.544h0.521h0.041c-0.02-0.043-0.041-0.062-0.041-0.082c-0.061-0.16-0.119-0.301-0.142-0.462h0.142h0.221
		c0.203-0.202,0.366-0.401,0.486-0.604c0.279-0.501,0.38-1.006,0.279-1.529c-0.08,0.242-0.16,0.523-0.279,0.786
		c-0.16,0.343-0.344,0.664-0.604,0.927h-0.102h-0.341L62.32,10.29v0.103h-0.203V9.989h-0.159h-0.142v0.403h-0.199v-0.121
		l-0.202,0.121h-0.341h-0.121c-0.28-0.263-0.463-0.584-0.602-0.927c-0.08-0.263-0.142-0.524-0.183-0.786
		c-0.078,0.543-0.059,1.087,0.183,1.571C60.47,10.45,60.612,10.652,60.833,10.813z"/>
	<path fill="#B3A255" d="M61.979,13.694c-0.02,0-0.02,0-0.02,0c-0.362-0.262-0.684-0.081-0.884,0.2c-0.24,0.341-0.301,0.846,0,1.006
		c0.02,0.02,0.02,0.02,0.04,0.02c0.061-0.422,0.423-1.006,0.844-1.025c0.581-0.021,0.721,0.421,0.884,0.743
		c0.041,0.102,0.101,0.202,0.183,0.262c0.238-0.181,0.119-0.806-0.183-1.147C62.622,13.511,62.322,13.41,61.979,13.694z"/>
	<path fill="#B3A255" d="M62.3,12.748c0.021,0.2,0.06,0.3,0.24,0.442c0.161-0.223,0.242-0.423,0.303-0.626
		c0.041-0.141,0.041-0.281,0.041-0.462h-0.041h-0.884h-0.884h-0.061c0.02,0.14,0.041,0.282,0.061,0.403
		c0.059,0.22,0.141,0.422,0.281,0.646c0.12-0.122,0.199-0.242,0.262-0.403c-0.241-0.082-0.342-0.164-0.483-0.383h0.683
		c0,0.321-0.038,0.504-0.14,0.786c0.082,0.098,0.12,0.179,0.16,0.281h0.121h0.061c0.06-0.121,0.099-0.161,0.181-0.281
		c-0.062-0.263-0.121-0.505-0.141-0.786h0.742C62.643,12.584,62.54,12.666,62.3,12.748z"/>
	<path fill="#B3A255" d="M61.959,14.215h-0.18c-0.161,0.16-0.604,0.704-0.142,0.806h0.322h0.421
		c0.402-0.102,0.041-0.646-0.141-0.806H61.959z"/>
	<path fill="#B3A255" d="M61.135,13.35c-0.02-0.059-0.04-0.101-0.06-0.141c-0.161-0.341-0.24-0.626-0.321-1.048h-0.041
		c-0.039,0.183-0.241,0.786-0.36,1.29c-0.061,0.361-0.101,0.665,0,0.806c0.021,0,0.041,0.02,0.061,0.039
		c0.159-0.062,0.479-0.603,0.661-0.864C61.095,13.39,61.135,13.369,61.135,13.35z"/>
	<path fill="#B3A255" d="M60.472,11.276c0.102-0.121,0.183-0.18,0.282-0.301c-0.162-0.161-0.282-0.282-0.401-0.443
		c-0.061-0.081-0.12-0.16-0.183-0.261l-0.199,0.402c0.14,0.161,0.261,0.321,0.382,0.482C60.394,11.198,60.434,11.236,60.472,11.276z
		"/>
	<path fill="#B3A255" d="M78.282,4.586l-0.169-0.667l-0.248-0.667l-0.333-0.61l-0.417-0.586l-0.497-0.499L76.063,1.14l-0.611-0.334
		l-0.666-0.223l-0.692-0.138l-0.804-0.084l-1.082-0.085l-2.025-0.081V0.194h-0.22l-1.636-0.057H68.02L67.688,0.11l-0.582-0.027h-0.5
		h-0.084l-0.525-0.029h-0.665l-1.804-0.027L63.223,0h-0.027H63h-0.139h-0.888h-0.887h-0.111h-0.249h-0.029h-0.333H59.31
		l-0.777,0.027h-0.665h-0.526h-0.61l-0.5,0.027h-0.055h-0.334h-0.304l-1.775,0.057h-0.082l-1.749,0.055L50.02,0.307l-0.611,0.081
		l-0.583,0.169L48.271,0.78l-0.524,0.333l-0.474,0.36l-0.442,0.418L46.469,2.39l-0.304,0.529l-0.223,0.556l-0.166,0.613
		l-0.083,0.583l0.027,0.61l0.057,1.086l0.11,1.723l0.224,2.14l0.276,2.504l0.36,2.611l0.39,2.528l0.415,2.363l0.444,2.253
		l0.524,2.223l0.584,2.224l0.666,2.251l0.694,2.225l0.692,2.028l0.692,1.778l0.638,1.473l0.778,1.779l0.417,0.694l0.165,0.25
		l0.722,0.778l0.887,0.584l0.084,0.027l0.304,0.112l0.334,0.138l0.276,0.084l0.278,0.055l0.61,0.143l0.138,0.025l0.389,0.027h0.14
		h0.525l1.83,0.027h0.333h0.029h0.249h0.111h0.055h0.832h0.889h0.138h0.194h0.027h0.305h1.805h0.222l0.443-0.027h0.139l0.388-0.054
		l0.25-0.03l0.334-0.082l0.304-0.057l0.278-0.084l0.332-0.111l0.307-0.139l0.275-0.139l0.666-0.502l0.608-0.609l0.306-0.445
		l0.17-0.222l0.385-0.751l0.502-1.141l0.664-1.61l0.693-1.807l0.721-1.947l0.64-1.888l0.582-1.947l0.526-1.973l0.443-1.975
		l0.471-2.085l0.416-2.112l0.39-2.111l0.358-2.113l0.307-2.113l0.195-1.418l0.275-2.39l0.193-1.944l0.14-1.584l0.058-0.696
		L78.282,4.586z M77.034,5.976L76.98,6.837l-0.139,1.53l-0.167,1.584l-0.14,1.25l-0.139,1.112l-0.166,1.166l-0.166,1.251
		l-0.222,1.392l-0.25,1.445l-0.252,1.445l-0.274,1.417l-0.308,1.472l-0.332,1.446l-0.333,1.418l-0.386,1.446l-0.392,1.334
		l-0.387,1.306l-0.418,1.307l-0.443,1.308l-0.83,2.306l-0.75,1.974l-0.307,0.641l-0.306,0.721l-0.387,0.779l-0.417,0.721
		l-0.413,0.502l-0.334,0.25l-0.195,0.166l-0.11,0.057l-0.332,0.165l-0.139,0.085l-0.443,0.167l-0.168,0.056l-0.416,0.084
		l-0.223,0.055h-0.304h-0.333l-0.332,0.029l-0.527,0.026h-1.275h-0.305h-0.027H63h-0.139h-0.888h-0.887h-0.111h-0.249h-0.029
		l-0.333-0.026h-1.108l-0.722-0.029h-0.027l-0.638-0.027l-0.526-0.025h-0.028l-0.582-0.195l-0.388-0.111l-0.167-0.085l-0.334-0.192
		l-0.304-0.168l-0.166-0.084l-0.612-0.664l-0.525-0.947l-0.554-1.276l-0.417-1.001l-0.64-1.529l-0.582-1.557l-0.582-1.724
		l-0.639-1.974l-0.608-2.306l-0.639-2.475l-0.582-2.558l-0.501-2.501l-0.415-2.558l-0.388-2.557l-0.306-2.531l-0.248-2.39
		L46.97,6.754L46.885,5.45V4.92l0.057-0.556l0.165-0.529l0.223-0.472l0.276-0.471L47.968,2.5l0.413-0.36l0.474-0.276l0.498-0.196
		l0.528-0.138l0.526-0.029l1.331-0.111l1.946-0.083h0.442l1.415-0.03h0.304h0.334l0.555-0.027h0.61h0.11h0.416h0.665l1.83-0.026
		h0.333h0.029h0.249h0.111h0.111h0.775h0.888L63,1.25h0.195h0.027h0.305h1.274h0.528l0.666,0.028h0.525h0.584l0.582,0.03h0.25h0.082
		h0.307l1.855,0.082h0.25l1.775,0.082l1.109,0.058l0.722,0.082l0.692,0.195l0.644,0.361l0.552,0.444l0.473,0.585l0.36,0.611
		l0.248,0.694l0.086,0.752L77.034,5.976z"/>
</g>
</svg>
