<?xml version="1.0" encoding="utf-8"?>
<!-- Generator: Adobe Illustrator 17.0.0, SVG Export Plug-In . SVG Version: 6.00 Build 0)  -->
<!DOCTYPE svg PUBLIC "-//W3C//DTD SVG 1.1//EN" "http://www.w3.org/Graphics/SVG/1.1/DTD/svg11.dtd">
<svg version="1.1" id="Layer_1" xmlns="http://www.w3.org/2000/svg" xmlns:xlink="http://www.w3.org/1999/xlink" x="0px" y="0px"
	 width="250px" height="55.797px" viewBox="0 0 250 55.797" enable-background="new 0 0 250 55.797" xml:space="preserve">
<path fill="#C6CACD" d="M250,39.898c-0.181-4.672-2.103-12.511-12.423-13.5c9.101-1.389,10.767-7.465,10.831-12.254
	c0.068-4.873-3.164-13.232-15.27-13.247c-1.736,0.015-47.127,0.015-47.162,0v38.751v0.296l-0.098-0.296l-16.34-38.751h-29.783
	L125.512,36.26L110.369,0.896H80.387L67.433,33.671c-1.317-9.184-10.005-13.689-29.681-13.348
	c-9.905,0.177-13.238-1.194-13.25-5.282c0.012-3.941,3.603-5.442,8.667-5.278c4.929,0.225,9.043,1.009,9.066,7.572h23.406
	C65.658,2.87,48.416,0.129,34.365,0.001C20.401-0.067,2.836,2.87,2.388,17.137C1.987,31.345,13.154,33.891,28.984,33.671
	c14.6-0.175,14.338,4.135,14.449,5.677c-0.038,0.103-0.033,0.186,0,0.3c0.012,1.677-0.916,5.334-10.263,5.175
	c-6.801-0.008-8.881-3.074-9.464-5.175c-0.379-1.164-0.3-2.035-0.3-1.994c-4.701-0.04-23.381-0.04-23.406,0
	c0.025,0.616,0.062,1.29,0.1,1.994c0.98,7.876,7.96,16.544,34.566,16.134c21.257-0.216,23.938-4.457,26.097-5.974
	c-0.72,2.299-1.572,4.585-1.598,4.578h20.028l3.886-8.465h25.699l3.786,8.465h25.697l3.688-8.465h26.598l3.585,8.465h63.298
	C245.835,54.394,249.978,45.525,250,39.898C249.978,39.738,249.974,40.057,250,39.898 M95.526,14.145l8.169,19.243H87.958
	L95.526,14.145z M147.027,33.393l7.673-19.322l8.365,19.322H147.027z M205.7,21.331v-7.684l16.765,0.003
	c2.134,0,3.855,1.723,3.855,3.854c0,2.127-1.852,3.826-3.981,3.826H205.7z M205.7,40.444v-7.579h17.92
	c2.107,0,3.933,1.681,3.933,3.784c0,2.102-1.827,3.801-3.933,3.801L205.7,40.444z"/>
</svg>
