<?xml version="1.0" encoding="utf-8"?>
<!-- Generator: Adobe Illustrator 16.0.0, SVG Export Plug-In . SVG Version: 6.00 Build 0)  -->
<!DOCTYPE svg PUBLIC "-//W3C//DTD SVG 1.1//EN" "http://www.w3.org/Graphics/SVG/1.1/DTD/svg11.dtd">
<svg version="1.1" id="Layer_1" xmlns="http://www.w3.org/2000/svg" xmlns:xlink="http://www.w3.org/1999/xlink" x="0px" y="0px"
	 width="108px" height="80px" viewBox="0 0 108 80" enable-background="new 0 0 108 80" xml:space="preserve">
<g>
	<path fill="#E00019" d="M84.063,2.317c-6.074-1.526-23.539-3.076-42.134-1.908C23.71,1.554,23.33,10.135,22.57,16.237
		c-0.758,6.104,0.572,37.382,0.572,37.382s18.409,2.539,29.984,2.414c11.578-0.125,30.062,1.793,31.886-11.567
		C86.908,30.542,84.063,2.317,84.063,2.317z M29.023,5.749c5.315-3.051,19.169-5.723,52.571-1.525c0,0,0.379,10.681,0.379,11.442
		c0,0-24.867-2.142-29.416-1.781c-3.226,0.257-1.708,1.974,0,2.224c0,0,25.05,4.135,29.416,5.089v4.388
		c0,0-39.285-7.82-57.125-9.155C24.849,16.43,24.674,8.247,29.023,5.749z M81.975,29.589c0,0,0,3.053,0,4.006
		c0,0-44.79-10.109-57.125-11.253l-0.188-2.86C24.66,19.481,68.689,26.347,81.975,29.589z M78.559,49.807
		c-6.519,4.092-31.124,4.006-53.141,1.334c0,0-0.569-10.49,0-15.641c0,0,24.305,1.813,29.605,2.479
		c3.039,0.383,3.039-1.144,1.14-2.287c0,0-23.532-6.486-31.124-7.438l-0.19-2.67c0,0,43.081,6.675,57.125,12.206
		C81.975,37.791,83.109,46.945,78.559,49.807z"/>
	<g>
		<polygon fill="#E00019" points="50.608,69.26 50.608,66.971 28.213,66.971 28.213,79.938 50.608,79.938 50.608,77.65 
			33.528,77.65 33.528,74.6 49.66,74.6 49.66,72.311 33.528,72.311 33.528,69.26 		"/>
		<path fill="#E00019" d="M19.551,72.693c0,0-10.344-0.383-11.862-0.383s-2.563-0.383-2.563-1.908c0-1.045,1.417-1.141,2.657-1.146
			v0.002H22.52v-2.29H5.178c0,0-5.178-0.189-5.178,3.625c0,3.145,1.804,3.91,4.651,3.91c2.847,0,10.058,0.477,11.387,0.477
			c0,0,1.802,0.176,1.802,1.431c0,0.763-0.474,1.239-1.327,1.239H0.19v2.287c0,0,17.71,0,18.725,0s3.955-0.476,3.955-3.623
			C22.87,73.359,21.257,72.883,19.551,72.693z"/>
		<polygon fill="#E00019" points="108,67 84.883,67 84.883,69.708 93.889,69.708 93.889,79.938 98.799,79.938 98.799,69.708 
			108,69.708 		"/>
		<path fill="#E00019" d="M61.302,66.971c-2.462,0-4.839,1.717-4.839,3.719L56.461,80h4.557v-4.925h13.691v4.862h4.555V66.971
			H61.302z M61.018,72.787v-0.953c0-1,0.947-2.384,2.657-2.384h11.034v3.337H61.018z"/>
	</g>
</g>
</svg>
