<?xml version="1.0" encoding="utf-8"?>
<!-- Generator: Adobe Illustrator 16.0.0, SVG Export Plug-In . SVG Version: 6.00 Build 0)  -->
<!DOCTYPE svg PUBLIC "-//W3C//DTD SVG 1.1//EN" "http://www.w3.org/Graphics/SVG/1.1/DTD/svg11.dtd">
<svg version="1.1" id="Layer_1" xmlns="http://www.w3.org/2000/svg" xmlns:xlink="http://www.w3.org/1999/xlink" x="0px" y="0px"
	 width="70px" height="70px" viewBox="0 0 70 70" enable-background="new 0 0 70 70" xml:space="preserve">
<g>
	<path d="M34.999,0L34.999,0c9.642,0,18.392,3.931,24.729,10.272C66.068,16.611,70,25.36,70,34.999V35v0.002
		c0,9.639-3.932,18.389-10.271,24.729C53.389,66.068,44.641,70,35.002,70h-0.003l0,0C25.36,70,16.61,66.068,10.27,59.729
		C3.931,53.391,0,44.641,0,35.003V35l0,0c0-9.639,3.931-18.389,10.271-24.729C16.61,3.931,25.359,0,34.999,0L34.999,0L34.999,0z
		 M35,0.839L35,0.839h-0.002C25.592,0.84,17.052,4.676,10.864,10.865S0.839,25.593,0.839,35l0,0v0.003
		c0,9.406,3.837,17.946,10.025,24.134s14.728,10.025,24.135,10.025l0,0h0.003c9.406-0.001,17.946-3.838,24.135-10.025
		c6.188-6.188,10.024-14.728,10.024-24.135V35v-0.001c0-9.406-3.837-17.945-10.024-24.134C52.948,4.676,44.408,0.84,35,0.839
		L35,0.839z"/>
	<path d="M8.841,14.304l0.454-0.523l1.105-0.04l-0.12-1.095l0.451-0.519l0.65,1.65l-0.814,0.938L8.841,14.304L8.841,14.304
		L8.841,14.304z M21.681,14.198l-2.885-5.92l1.596-0.777l1.311,2.688l0.561-3.603l1.878-0.916l-0.778,3.954l3.854,1.872
		l-2.012,0.982l-3.223-1.716l1.295,2.656L21.681,14.198L21.681,14.198L21.681,14.198z M34.351,9.015
		c0.498,0,0.909-0.183,1.234-0.548c0.324-0.367,0.488-0.828,0.488-1.386c0-0.553-0.166-1.013-0.494-1.382
		c-0.331-0.369-0.74-0.554-1.229-0.554c-0.496,0-0.907,0.185-1.232,0.552c-0.326,0.366-0.488,0.829-0.488,1.384
		c0,0.563,0.16,1.026,0.48,1.389C33.431,8.834,33.845,9.015,34.351,9.015L34.351,9.015L34.351,9.015z M37.866,7.081
		c0,0.475-0.089,0.917-0.263,1.331c-0.172,0.415-0.426,0.784-0.758,1.112c-0.336,0.322-0.721,0.571-1.15,0.748
		c-0.432,0.176-0.88,0.264-1.345,0.264c-0.471,0-0.92-0.088-1.35-0.264c-0.431-0.177-0.809-0.426-1.135-0.748
		c-0.34-0.328-0.596-0.7-0.771-1.118c-0.176-0.415-0.263-0.857-0.263-1.325c0-0.473,0.087-0.915,0.263-1.33
		c0.176-0.415,0.432-0.786,0.771-1.113c0.326-0.324,0.704-0.573,1.135-0.75c0.43-0.174,0.879-0.262,1.35-0.262
		c0.469,0,0.918,0.088,1.352,0.262c0.435,0.177,0.813,0.426,1.144,0.75c0.33,0.323,0.584,0.694,0.758,1.111
		C37.777,6.165,37.866,6.608,37.866,7.081L37.866,7.081L37.866,7.081z M44.895,10.707l0.276,0.117
		c0.647,0.275,1.179,0.344,1.591,0.205c0.409-0.14,0.737-0.499,0.983-1.08c0.246-0.58,0.278-1.067,0.095-1.466
		c-0.184-0.396-0.602-0.733-1.249-1.009l-0.274-0.117L44.895,10.707L44.895,10.707L44.895,10.707z M42.686,11.371l2.569-6.062
		l1.263,0.535c0.938,0.399,1.588,0.728,1.938,0.981c0.353,0.254,0.633,0.548,0.841,0.88c0.27,0.431,0.415,0.896,0.438,1.398
		c0.021,0.503-0.082,1.022-0.31,1.558c-0.227,0.536-0.528,0.972-0.905,1.306c-0.375,0.333-0.813,0.552-1.31,0.657
		c-0.379,0.079-0.772,0.083-1.187,0.012c-0.412-0.073-1.014-0.277-1.801-0.612l-0.279-0.117L42.686,11.371L42.686,11.371
		L42.686,11.371z M51.436,15.924l6.502-2.492l1.443,1.724l-3.579,5.977l-1.146-1.367l0.688-1.015l-1.638-1.954l-1.122,0.495
		L51.436,15.924L51.436,15.924L51.436,15.924z M54.936,16.269l1.146,1.368l1.23-1.91c0.039-0.059,0.101-0.148,0.19-0.271
		c0.089-0.123,0.203-0.277,0.345-0.472c-0.149,0.075-0.291,0.146-0.43,0.21c-0.136,0.067-0.27,0.128-0.396,0.185L54.936,16.269
		L54.936,16.269L54.936,16.269z M13.761,18.9c0.403-0.003,0.748-0.054,1.03-0.151c0.284-0.097,0.51-0.242,0.679-0.438
		c0.157-0.18,0.238-0.372,0.242-0.573c0.004-0.201-0.068-0.365-0.218-0.495c-0.166-0.145-0.336-0.205-0.513-0.183
		c-0.177,0.022-0.467,0.171-0.871,0.443c-0.553,0.372-1.023,0.568-1.408,0.588c-0.386,0.019-0.762-0.132-1.127-0.45
		c-0.476-0.413-0.725-0.911-0.748-1.489c-0.024-0.578,0.184-1.121,0.625-1.628c0.237-0.273,0.5-0.501,0.787-0.684
		c0.287-0.181,0.6-0.316,0.939-0.405l0.605,1.271c-0.264,0.039-0.5,0.11-0.709,0.215c-0.207,0.104-0.379,0.234-0.516,0.394
		c-0.143,0.162-0.218,0.329-0.229,0.499c-0.011,0.169,0.045,0.308,0.167,0.413c0.125,0.109,0.265,0.15,0.415,0.125
		c0.152-0.022,0.374-0.134,0.664-0.33l0.069-0.046c0.629-0.424,1.108-0.644,1.438-0.663c0.225-0.011,0.448,0.027,0.674,0.114
		c0.223,0.087,0.439,0.223,0.646,0.401c0.526,0.46,0.8,1.001,0.819,1.626c0.021,0.625-0.221,1.226-0.722,1.802
		c-0.302,0.348-0.634,0.611-0.997,0.793c-0.365,0.182-0.787,0.295-1.268,0.339L13.761,18.9L13.761,18.9L13.761,18.9z"/>
	<path fill="#00794D" d="M34.918,63.988c1.973,0.916,3.27,2.154,4.361,3.936c0.056-1.917-1.098-3.191-2.59-4.291
		c0.513-0.013,1.023-0.021,1.533-0.033c1.215,0.738,2.508,1.418,4.359,1.703c2.271-0.273,4.042-1.047,5.313-2.316
		c-1.065-0.637-2.246-0.817-3.679,0c-1.563,0.599-2.749,0.604-3.679,0.203c1.352-0.418,2.701-0.84,4.054-1.26
		c0.704-0.205,1.408-0.408,2.112-0.613c0.841,0.297,1.68,0.59,2.521,0.887c0.477,0.545,0.907,0.681,1.293,0.408
		c0.478-0.205,0.545-0.637,0.205-1.295c-0.408-0.318-0.816-0.363-1.228-0.137c-0.591-0.203-1.181-0.408-1.771-0.613
		c0.51-0.215,1.021-0.432,1.531-0.646c1.863,0.433,3.656,0.409,5.52-0.612c1.322-0.938,2.525-2.051,3.576-3.439
		c-1.121-0.333-2.08-0.123-2.93,0.545c-1.324,1.436-3.012,1.996-4.429,2.247c1.556-1.328,3.351-2.759,4.905-4.086
		c0.682,0.09,1.363,0.181,2.045,0.271c0.543,0.137,0.998,0.092,1.361-0.137c0.775-1.297,0.036-1.396-0.921-1.328
		c-0.216,0.193-0.362,0.453-0.577,0.646c-0.318-0.112-1.013,0.012-1.33-0.102c0.455-0.432,1.217-1.17,1.67-1.601
		c2.346-0.573,3.979-2.142,5.416-3.985c-0.455-0.113-0.91-0.229-1.363-0.342c0.113-0.294,0.361-0.544,0.75-0.748
		c0.283-0.146,0.566-0.296,0.852-0.443c0.227-0.955-0.136-1.316-1.09-1.09c-0.182,0.363-0.363,0.727-0.546,1.09
		c-0.296,0.387-0.511,0.535-0.715,0.647c-0.011-0.513-0.022-1.021-0.034-1.534c-0.408,0.229-0.816,0.455-1.227,0.684
		c-0.149-0.738,0.181-1.16,0.578-1.533c-0.146-1.032-0.566-1.248-1.26-0.646c0.178,0.801,0.034,1.284-0.425,1.446
		c-0.222-0.231-0.442-0.466-0.665-0.697c-1.266,1.912-1.47,4.138-1.191,6.507c-0.488,0.578-0.976,1.156-1.465,1.735
		c-0.113-0.658-0.228-1.317-0.341-1.976c0.136-0.16,0.272-0.317,0.408-0.478c-0.183-1.364-1.315-1.364-1.498-0.407
		c-0.115,0.271-0.149,0.574,0.375,1.123c0.091,0.795,0.183,1.59,0.271,2.385c-1.51,1.26-2.985,2.758-4.496,4.02
		c-0.021-0.113-0.078-0.467-0.102-0.579c0.706-1.196,1.383-2.396,2.725-3.133c0.422-0.944,0.683-1.772,0.408-2.589
		c-1.835,1.283-3.34,2.755-4.359,4.496c-0.146,0.804-0.295,1.611-0.442,2.416c-0.565,0.365-1.135,0.728-1.701,1.091
		c0.011-0.488,0.294-0.978,0.306-1.464c1.35-1.723-0.638-2.411-1.123-0.852c0.17,1.01,0.17,1.826-0.205,2.656
		c-1.986,0.781-3.771,1.566-5.756,2.352c-0.013-0.172,0.215-0.648,0.205-0.82c1.135-1.09,2.146-1.53,3.916-1.805
		c0.76-0.625,1.067-1.271,0.92-2.078c-1.625,0.295-3.244,0.742-4.6,1.668c-1.271,0.787-2.099,1.842-2.281,3.17
		c-0.771,0.068-1.543,0.137-2.315,0.205c0.487-0.535,0.976-1.067,1.465-1.602c0.261-0.126,0.521-0.25,0.783-0.375
		c0.331-1.49-0.373-1.467-1.226-1.227c-0.263,0.287-0.363,0.642-0.343,1.021c-0.544,0.591-1.09,1.183-1.842,1.55
		c-0.751-0.814-1.296-1.406-1.841-1.996c0.075-0.389-0.038-0.728-0.341-1.021c-0.854-0.242-1.559-0.266-1.226,1.227
		c0.281,0.269,0.549,0.437,0.783,0.375c0.488,0.532,0.976,1.065,1.464,1.6c-0.771-0.068-1.544-0.135-2.315-0.203
		c-0.183-1.328-1.011-2.387-2.282-3.167c-1.355-0.929-2.973-1.378-4.598-1.669c-0.148,0.805,0.158,1.451,0.919,2.076
		c1.77,0.271,2.781,0.716,3.917,1.805c-0.012,0.171,0.216,0.646,0.204,0.818c-1.986-0.784-3.769-1.566-5.756-2.352
		c-0.375-0.828-0.375-1.646-0.204-2.656c-0.488-1.559-2.474-0.867-1.124,0.852c0.012,0.49,0.294,0.977,0.306,1.465
		c-0.567-0.363-1.135-0.727-1.702-1.09c-0.147-0.807-0.296-1.611-0.442-2.418c-1.021-1.739-2.524-3.21-4.359-4.495
		c-0.275,0.815-0.014,1.644,0.408,2.588c1.342,0.739,2.018,1.938,2.725,3.134c-0.023,0.113-0.08,0.465-0.103,0.579
		c-1.51-1.26-2.986-2.759-4.497-4.021c0.092-0.795,0.183-1.59,0.273-2.383c0.524-0.549,0.489-0.854,0.375-1.125
		c-0.184-0.957-1.318-0.955-1.499,0.408c0.137,0.159,0.272,0.317,0.409,0.479c-0.114,0.658-0.229,1.316-0.341,1.977
		c-0.489-0.582-0.976-1.158-1.466-1.738c0.279-2.369,0.074-4.592-1.191-6.506c-0.221,0.232-0.443,0.467-0.664,0.698
		c-0.459-0.164-0.602-0.647-0.426-1.446c-0.691-0.603-1.112-0.387-1.26,0.646c0.398,0.376,0.729,0.795,0.578,1.534
		c-0.408-0.229-0.816-0.454-1.227-0.682c-0.01,0.51-0.021,1.021-0.033,1.532c-0.203-0.112-0.42-0.261-0.715-0.647
		c-0.182-0.362-0.364-0.727-0.546-1.09c-0.953-0.228-1.315,0.137-1.089,1.09c0.283,0.148,0.567,0.297,0.852,0.443
		c0.387,0.204,0.635,0.454,0.748,0.748c-0.453,0.114-0.907,0.229-1.361,0.342c1.436,1.844,3.07,3.412,5.416,3.984
		c0.453,0.432,1.215,1.169,1.669,1.602c-0.319,0.113-1.011-0.012-1.329,0.103c-0.216-0.192-0.363-0.455-0.579-0.646
		c-0.956-0.072-1.696,0.029-0.92,1.328c0.364,0.225,0.817,0.271,1.362,0.135c0.682-0.09,1.363-0.182,2.044-0.271
		c1.556,1.327,3.35,2.758,4.905,4.087c-1.416-0.253-3.104-0.813-4.428-2.249c-0.849-0.668-1.808-0.877-2.93-0.545
		c1.051,1.393,2.254,2.504,3.576,3.441c1.863,1.021,3.656,1.043,5.518,0.611c0.512,0.215,1.023,0.432,1.533,0.647
		c-0.591,0.204-1.181,0.407-1.77,0.612c-0.41-0.229-0.818-0.183-1.228,0.137c-0.341,0.658-0.272,1.09,0.204,1.295
		c0.386,0.271,0.818,0.135,1.295-0.408c0.84-0.296,1.68-0.592,2.521-0.887c0.703,0.205,1.407,0.408,2.111,0.613
		c1.352,0.42,2.702,0.84,4.054,1.261c-0.929,0.399-2.115,0.394-3.679-0.204c-1.431-0.818-2.611-0.637-3.679,0
		c1.271,1.27,3.042,2.043,5.313,2.314c1.853-0.283,3.146-0.963,4.36-1.701c0.51,0.011,1.021,0.021,1.532,0.031
		c-1.491,1.1-2.644,2.377-2.589,4.293C31.648,65.693,32.944,64.456,34.918,63.988L34.918,63.988L34.918,63.988z"/>
	<path fill="#00794D" d="M52.523,46.662c-0.664-1.605-6.346-5.59-7.084-1.528l-2.047-0.39c4.4-9.37,3.066-27.058-7.231-28.793
		c-1.569-0.258-7.967,1.435-5.041,3.599c1.975,1.462,3.062,2.393,4.056,4.661l-0.866,0.504c-1.635-2.154-3.578-4.38-5.817-5.645
		c-2.397-1.28-7.996,5.036-7.3,5.326c2.24,1.051,5.136,2.407,6.785,3.597l-0.713,1.137c-2.272-1.319-5.904-3.128-7.729-3.018
		c-0.937,0.136-2.961,6.698-1.94,6.953c2.11,0.175,6.064,2.3,7.879,3.224c1.272,1.012,5.16,7.557,3.594,8.49
		c-0.504,0.301-2.072-0.047-3.658-0.834c-7.294-2.963-7.848,0.334-6.477,1.346c1.1,0.686,0.723,1.896,0.777,2.205
		c-0.059,1.831,1.902,3.273,5.686,0.699c7.756,0.104,12.166,0.265,19.934,0.38C46.042,50.855,50.939,48.549,52.523,46.662
		L52.523,46.662L52.523,46.662z M40.498,37.971c0.865,0.863,0.882,2.26,0.035,3.105c-0.846,0.846-2.24,0.83-3.106-0.035
		c-0.864-0.866-0.881-2.262-0.034-3.105C38.238,37.088,39.633,37.104,40.498,37.971L40.498,37.971L40.498,37.971z"/>
	<path d="M35.203,12.014L35.203,12.014c6.388,0,12.186,2.605,16.386,6.806c4.199,4.2,6.804,9.997,6.804,16.382v0.003v0.001
		c0,6.388-2.604,12.185-6.806,16.384c-4.198,4.199-9.996,6.807-16.382,6.807h-0.002h-0.001c-6.386,0-12.184-2.606-16.385-6.807
		c-4.199-4.199-6.804-9.996-6.805-16.382v-0.003v-0.001c0-6.387,2.605-12.184,6.805-16.385
		C23.019,14.619,28.815,12.014,35.203,12.014L35.203,12.014L35.203,12.014z M35.204,12.854L35.204,12.854h-0.002
		c-6.154,0.001-11.742,2.51-15.791,6.559c-4.049,4.049-6.559,9.637-6.559,15.791v0.001v0.003c0,6.153,2.51,11.739,6.559,15.788
		c4.049,4.05,9.637,6.561,15.791,6.561h0.001h0.002c6.154,0,11.74-2.511,15.789-6.56c4.049-4.05,6.561-9.636,6.561-15.791v-0.001
		v-0.003c0-6.152-2.511-11.74-6.56-15.789C46.945,15.364,41.357,12.854,35.204,12.854L35.204,12.854z"/>
</g>
</svg>
