<?xml version="1.0" encoding="utf-8"?>
<!-- Generator: Adobe Illustrator 17.0.0, SVG Export Plug-In . SVG Version: 6.00 Build 0)  -->
<!DOCTYPE svg PUBLIC "-//W3C//DTD SVG 1.1//EN" "http://www.w3.org/Graphics/SVG/1.1/DTD/svg11.dtd">
<svg version="1.1" id="Layer_1" xmlns="http://www.w3.org/2000/svg" xmlns:xlink="http://www.w3.org/1999/xlink" x="0px" y="0px"
	 width="160px" height="31.672px" viewBox="0 0 160 31.672" enable-background="new 0 0 160 31.672" xml:space="preserve">
<g>
	<path fill-rule="evenodd" clip-rule="evenodd" fill="#FFCE44" d="M23.718,2.926c3.451,2.232,8.409,9.194,9.74,13.043
		c-1.331,3.855-6.29,10.808-9.74,13.05V2.926L23.718,2.926z"/>
	<path fill-rule="evenodd" clip-rule="evenodd" fill="#BDBCBC" d="M16.354,7.872c1.799,0,4.094,0.715,5.9,2.005V2.027
		c-1.802-1.12-3.985-1.776-6.546-1.776C7.025,0.251,0,7.289,0,15.97c0,8.692,7.025,15.702,15.709,15.702
		c2.56,0,4.744-0.633,6.546-1.755v-7.872c-1.806,1.289-4.101,2.024-5.9,2.024c-4.889,0-8.48-3.572-8.48-8.099
		C7.874,11.424,11.465,7.872,16.354,7.872L16.354,7.872z"/>
	<path fill-rule="evenodd" clip-rule="evenodd" fill="#BDBCBC" d="M133.156,13.869v16.048h5.487V14.18
		c0.003-2.204,1.806-3.97,3.974-3.97h2.537V4.965l-2.812-0.005C137.377,5.01,133.357,8.913,133.156,13.869L133.156,13.869z"/>
	<path fill-rule="evenodd" clip-rule="evenodd" fill="#BDBCBC" d="M157.465,24.655c-2.178,0-3.953-1.798-3.956-3.973
		c0,0,0-9.95,0-10.498c0.526,0,6.073,0,6.073,0V4.936c0,0-5.546,0-6.073,0c0-0.508,0-4.936,0-4.936h-5.519v20.986
		c0.201,4.963,4.258,8.857,9.196,8.915c0.002,0,2.814-0.005,2.814-0.005v-5.241H157.465L157.465,24.655z"/>
	<path fill-rule="evenodd" clip-rule="evenodd" fill="#BDBCBC" d="M91.471,4.473c-2.731,0-5.324,1.249-7.025,3.336
		c-1.698-2.086-4.313-3.336-7.048-3.336c-4.793,0-8.762,3.741-9.018,8.53l-0.005,16.913h5.531V13.691
		c0-2.267,1.704-4.025,3.879-4.025c1.792,0,3.902,1.221,3.902,4.669v15.581h5.51V14.322c0-3.2,2.013-4.656,3.883-4.656
		c2.314,0,3.901,1.647,3.901,4.025v16.225h5.505V13.018C100.205,8.215,96.261,4.473,91.471,4.473L91.471,4.473z"/>
	<path fill-rule="evenodd" clip-rule="evenodd" fill="#BDBCBC" d="M116.67,4.53c-7.129,0-12.72,5.642-12.72,12.881
		c0,7.557,5.395,13.026,12.819,13.026c2.886,0,5.473-1.068,7.104-2.869v2.346l5.503-0.002V17.51
		C129.376,9.979,124.016,4.53,116.67,4.53L116.67,4.53L116.67,4.53z M124.184,17.491c0,4.493-3.056,7.655-7.44,7.655
		c-4.129,0-7.471-3.455-7.471-7.655c0-4.206,3.342-7.649,7.471-7.649C120.844,9.842,124.184,13.285,124.184,17.491L124.184,17.491z"
		/>
	<path fill-rule="evenodd" clip-rule="evenodd" fill="#BDBCBC" d="M55.542,14.991c-5.335-0.619-6.4-1.577-6.4-3.033
		c0-2.303,3.487-2.601,5.028-2.601c2.638,0,5.244,1.037,7.103,2.63l3.51-3.506c-1.405-1.159-4.763-3.958-11.432-3.958
		c-6.585,0-10.127,3.994-10.127,7.766c0,4.465,3.459,7.009,10.593,7.784c3,0.328,5.265,0.744,5.265,2.831
		c0,3.848-9.645,3.466-13.513-0.819l-3.826,3.852c0.36,0.411,4.85,4.55,11.585,4.55c8.037,0,11.684-3.943,11.684-7.625
		C65.012,18.238,62.009,15.737,55.542,14.991L55.542,14.991z"/>
</g>
</svg>
