<?xml version="1.0" encoding="utf-8"?>
<!-- Generator: Adobe Illustrator 16.0.0, SVG Export Plug-In . SVG Version: 6.00 Build 0)  -->
<!DOCTYPE svg PUBLIC "-//W3C//DTD SVG 1.1//EN" "http://www.w3.org/Graphics/SVG/1.1/DTD/svg11.dtd">
<svg version="1.1" id="Layer_1" xmlns="http://www.w3.org/2000/svg" xmlns:xlink="http://www.w3.org/1999/xlink" x="0px" y="0px"
	 width="129px" height="84px" viewBox="0 0 129 84" enable-background="new 0 0 129 84" xml:space="preserve">
<g>
	<path fill="#015487" d="M13.869,77.139c-0.286-2.646-7.442-5.869-7.442-5.869c-1.86-1.145-1.074-2.574-1.074-2.574
		c1.146-2.508,7.156-0.145,7.156-0.145l1.144-2.72c-3.185-2.401-7.25-1.899-7.25-1.899c-4.998,0.57-5.744,3.95-5.744,3.95
		c-1.142,5.175,2.851,6.401,2.851,6.401c3.639,1.712,4.736,2.414,4.736,2.414c2.98,1.93,0.35,3.201,0.35,3.201
		c-3.244,1.533-7.322-0.57-7.322-0.57l-1.273,2.98c3.379,2.28,8.596,1.316,8.596,1.316C15.216,82.662,13.869,77.139,13.869,77.139
		L13.869,77.139z"/>
	<path fill="#015487" d="M24.539,78.195c-0.23-2.145-6.022-4.75-6.022-4.75c-1.509-0.928-0.87-2.086-0.87-2.086
		c0.928-2.029,5.793-0.118,5.793-0.118l0.925-2.199c-2.578-1.942-5.868-1.538-5.868-1.538c-4.046,0.462-4.649,3.198-4.649,3.198
		c-0.923,4.188,2.308,5.185,2.308,5.185c2.945,1.385,3.832,1.952,3.832,1.952c2.413,1.562,0.283,2.589,0.283,2.589
		c-2.624,1.244-5.928-0.459-5.928-0.459l-1.026,2.414c2.733,1.846,6.954,1.066,6.954,1.066
		C25.629,82.666,24.539,78.195,24.539,78.195L24.539,78.195z"/>
	<path fill="#015487" d="M29.383,67.874l-5.717,15.354l3.293,0.059l1.491-3.354h6.899l1.491,3.047h3.167l-5.964-15.105
		L29.383,67.874L29.383,67.874z M29.567,77.197l2.177-5.348l2.361,5.348H29.567L29.567,77.197z"/>
	<polygon fill="#015487" points="50.635,78.007 44.235,67.999 40.008,67.999 40.008,82.98 43.115,83.041 43.115,73.223 
		49.949,83.479 53.866,83.479 53.866,68.059 50.635,68.059 	"/>
	<path fill="#015487" d="M67.782,74.773h-5.219v2.361h3.542v3.605c-2.422,0.931-4.971-0.063-4.971-0.063
		c-5.034-3.354-2.3-7.521-2.3-7.521c3.107-4.85,10.503-1.863,10.503-1.863v-2.798c-9.012-2.923-12.865,1.987-12.865,1.987
		c-5.094,7.023,1.242,11.625,1.242,11.625c6.215,3.854,12.182,0.496,12.182,0.496V77.07C69.773,74.527,67.782,74.773,67.782,74.773
		L67.782,74.773z"/>
	<path fill="#015487" d="M126.889,74.773h-5.22v2.361h3.54v3.605c-2.425,0.931-4.973-0.063-4.973-0.063
		c-5.031-3.354-2.297-7.521-2.297-7.521c3.106-4.85,10.5-1.863,10.5-1.863v-2.798c-9.01-2.923-12.86,1.987-12.86,1.987
		c-5.099,7.023,1.239,11.625,1.239,11.625C123.034,85.964,129,82.605,129,82.605v-5.533
		C128.877,74.527,126.889,74.773,126.889,74.773L126.889,74.773z"/>
	<polygon fill="#015487" points="81.764,64.578 76.979,72.535 72.193,64.768 68.032,64.768 75.178,76.393 71.2,83.85 74.99,83.85 
		85.99,64.578 	"/>
	<path fill="#015487" d="M89.842,67.661c-4.51,0-8.165,3.657-8.165,8.17S85.332,84,89.842,84s8.17-3.656,8.17-8.169
		S94.352,67.661,89.842,67.661L89.842,67.661z M89.842,80.805c-2.746,0-4.969-2.228-4.969-4.974s2.223-4.974,4.969-4.974
		c2.745,0,4.973,2.228,4.973,4.974S92.587,80.805,89.842,80.805L89.842,80.805z"/>
	<polygon fill="#015487" points="109.852,77.82 103.449,67.936 99.1,67.936 99.1,83.287 102.396,83.229 102.396,73.283 
		109.167,83.413 113.143,83.413 113.143,67.874 109.852,67.874 	"/>
	<path fill="#015487" d="M106.085,18.052C103.706,9.263,92.337,4.833,92.337,4.833c-3.034-1.111-1.821,0.634-1.821,0.634
		s13.08,6.024,13.08,14.41c0,10.384-14.254,13.492-14.254,13.492c12.967-4.127,13.004-12.935,13.004-12.935
		c-0.229-8.806-11.83-14.968-11.83-14.968c-4.474-2.539-6.899-3.174-6.899-3.174c-5.839-1.957-3.943,0.317-3.943,0.317
		s17.611,5.552,17.611,17.799c0,12.512-24.55,16.53-24.55,16.53c23.084-4.286,23.091-16.426,23.091-16.426
		c0-10.936-16.152-17.903-16.152-17.903c-2.427-1.321-6.541-2.388-6.541-2.388c-3.813-0.812-1.649,0.854-1.649,0.854
		c15.469,9.045,15.469,19.041,15.469,19.041C86.951,31.225,76.773,34,76.773,34c-2.959,1.152-8.684,2.072-8.684,2.072
		c-0.926,0.274-1.574,0.911-1.574,1.659c0,0.302,0.073,0.6,0.293,0.835c0.561,0.6,2.438,1.998,2.438,1.998
		c0.677,0.635,1.067,1.42,1.067,2.271c0,2.085-2.396,3.778-5.374,3.817h-0.218c-2.979-0.039-5.378-1.732-5.378-3.817
		c0-0.851,0.396-1.636,1.067-2.271c0,0,1.883-1.398,2.44-1.998c0.221-0.235,0.296-0.533,0.296-0.835
		c0-0.748-0.648-1.385-1.575-1.659c0,0-5.725-0.92-8.683-2.072c0,0-10.182-2.774-10.182-13.884c0,0,0-9.996,15.471-19.041
		c0,0,2.161-1.665-1.648-0.854c0,0-4.115,1.066-6.541,2.388c0,0-16.152,6.968-16.152,17.903c0,0,0.004,12.14,23.091,16.426
		c0,0-24.552-4.019-24.552-16.53C32.377,8.162,49.99,2.61,49.99,2.61s1.896-2.274-3.944-0.317c0,0-2.427,0.635-6.9,3.174
		c0,0-11.604,6.162-11.83,14.968c0,0,0.037,8.808,13.005,12.935c0,0-14.256-3.108-14.256-13.492c0-8.386,13.081-14.41,13.081-14.41
		s1.213-1.745-1.82-0.634c0,0-11.37,4.43-13.749,13.219c0,0-0.721,3.312,0.334,5.729c1.278,2.963,4.616,7.867,13.111,10.615
		c0,0,3.868,1.59,19.339,4.684l0.911,0.207c0,0,0.665,0.293,0.189,0.819l-2.132,1.832c0,0-3.124,2.407,1.336,4.431
		c0,0,2.722,0.927,4.642,2.981c0,0,1.234,1.174,3.323,1.233v0.009h0.14c0.006,0,0.012,0.002,0.017,0.002v-0.002h0.09v0.002
		c0.006,0,0.012-0.002,0.017-0.002h0.095v-0.003c2.119-0.047,3.369-1.239,3.369-1.239c1.92-2.056,4.639-2.981,4.639-2.981
		c4.465-2.024,1.338-4.431,1.338-4.431l-2.13-1.832c-0.478-0.526,0.188-0.819,0.188-0.819L73.3,39.08
		c15.472-3.094,19.339-4.684,19.339-4.684c8.496-2.748,11.834-7.652,13.114-10.615C106.807,21.363,106.085,18.052,106.085,18.052
		L106.085,18.052z"/>
</g>
</svg>
