<?xml version="1.0" encoding="utf-8"?>
<!-- Generator: Adobe Illustrator 16.0.0, SVG Export Plug-In . SVG Version: 6.00 Build 0)  -->
<!DOCTYPE svg PUBLIC "-//W3C//DTD SVG 1.1//EN" "http://www.w3.org/Graphics/SVG/1.1/DTD/svg11.dtd">
<svg version="1.1" id="Layer_1" xmlns="http://www.w3.org/2000/svg" xmlns:xlink="http://www.w3.org/1999/xlink" x="0px" y="0px"
	 width="118px" height="79px" viewBox="0 0 118 79" enable-background="new 0 0 118 79" xml:space="preserve">
<path fill="#E3001B" d="M85.125,36.399c0,0-4.893,1.418-14.37,7.234c-8.515,5.229-11.851,8.74-11.851,8.74l-26.22-18.101
	c0,0,11.033-8.106,20.254-1.898l12.365,8.476l1.508-0.993L32.684,15.979c0,0,4.908-1.418,14.386-7.236
	C55.584,3.514,58.904,0,58.904,0l26.237,18.105c0,0-11.035,8.106-20.256,1.896L52.521,11.53l-1.507,0.988L85.125,36.399"/>
<g>
	<polyline fill="#0059A9" points="64.82,61.098 44.856,61.098 44.856,65.531 54.494,65.531 44.52,74.842 44.52,78.557 64.79,78.557 
		64.79,74.104 54.703,74.104 64.82,64.816 64.82,61.098 	"/>
	<path fill="#0059A9" d="M33.103,79c7.984,0,10.037-2.034,10.037-6.523V61.098h-6.334v10.697c0,1.796-1.54,2.865-3.703,2.865
		c-2.247,0-3.691-1.073-3.691-2.895v-10.67h-6.333v11.379C23.078,76.966,25.132,79,33.103,79"/>
	<path fill="#0059A9" d="M76.4,79c7.986,0,10.039-2.034,10.039-6.523V61.098h-6.334v10.697c0,1.796-1.541,2.865-3.705,2.865
		c-2.246,0-3.688-1.073-3.688-2.895v-10.67h-6.334v11.379C66.378,76.966,68.43,79,76.4,79"/>
	<polyline fill="#0059A9" points="118,61.098 111.41,61.098 111.41,78.557 118,78.557 118,61.098 	"/>
	<polyline fill="#0059A9" points="110.414,61.098 101.723,61.098 94.715,67.12 94.715,61.098 88.107,61.098 88.107,78.557 
		94.715,78.557 94.715,72.363 101.225,78.557 110.094,78.557 100.439,69.6 110.414,61.098 	"/>
	<path fill="#0059A9" d="M7.489,65.924c0-1.352,2.006-1.395,2.679-1.395c0.689,0,2.215,0.271,3.24,1.969h7.456
		c0-3.285-3.11-5.902-10.663-5.902c-8.404,0-9.831,3.678-9.831,5.789c0,3.895,3.031,5.035,9.59,5.735
		c0.563,0.06,3.978-0.103,3.978,1.539c0,1.218-1.926,1.296-2.614,1.296c-0.707,0-2.02-0.113-3.111-2.044H0
		c0,3.831,2.584,6.048,11.309,6.048c8.019,0,10.148-3.271,10.148-5.764c0-2.414-1.649-4.875-8.498-5.746
		C10.106,67.078,7.489,66.923,7.489,65.924"/>
</g>
</svg>
