<?xml version="1.0" encoding="utf-8"?>
<!-- Generator: Adobe Illustrator 17.0.0, SVG Export Plug-In . SVG Version: 6.00 Build 0)  -->
<!DOCTYPE svg PUBLIC "-//W3C//DTD SVG 1.1//EN" "http://www.w3.org/Graphics/SVG/1.1/DTD/svg11.dtd">
<svg version="1.1" id="Layer_1" xmlns="http://www.w3.org/2000/svg" xmlns:xlink="http://www.w3.org/1999/xlink" x="0px" y="0px"
	 width="150px" height="132.174px" viewBox="0 0 150 132.174" enable-background="new 0 0 150 132.174" xml:space="preserve">
<g>
	<polyline fill-rule="evenodd" clip-rule="evenodd" fill="#3F78BA" points="10.728,132.128 10.728,105.5 0,105.5 0,94.434 
		36.505,94.434 36.505,105.5 26.093,105.5 26.093,132.128 10.728,132.128 	"/>
	<polyline fill-rule="evenodd" clip-rule="evenodd" fill="#3F78BA" points="83.565,132.128 83.565,105.5 72.839,105.5 
		72.839,94.434 109.344,94.434 109.344,105.5 98.932,105.5 98.932,132.128 83.565,132.128 	"/>
	<polyline fill-rule="evenodd" clip-rule="evenodd" fill="#3F78BA" points="33.018,132.174 46.818,94.48 62.534,94.477 
		77.198,132.174 62.392,132.174 54.764,109.384 47.163,132.174 33.018,132.174 	"/>
	<polyline fill-rule="evenodd" clip-rule="evenodd" fill="#3F78BA" points="105.822,132.162 119.619,94.477 135.165,94.477 
		150,132.162 135.196,132.162 127.738,109.384 119.965,132.162 105.822,132.162 	"/>
	<path fill-rule="evenodd" clip-rule="evenodd" fill="#3F78BA" d="M56.545,73.358c-22.245-5.073-38.313-19.16-38.313-35.67
		c0-2.067,0.256-4.09,0.737-6.065c10.839-2.944,39.285-7.319,44.489-3.871C66.875,29.763,60.219,56.842,56.545,73.358"/>
	<path fill-rule="evenodd" clip-rule="evenodd" fill="#3F78BA" d="M130.556,31.617c0.488,1.977,0.741,4.004,0.741,6.071
		c0,16.544-16.136,30.656-38.451,35.704c-3.676-16.522-10.325-43.629-6.911-45.64C91.134,24.307,119.699,28.673,130.556,31.617"/>
	<path fill-rule="evenodd" clip-rule="evenodd" fill="#3F78BA" d="M74.765,0c24.389,0,45.249,10.387,53.152,24.86
		c-9.089-1.412-51.192-11.524-50.722-3.179v53.654c-0.803,0.028-1.614,0.04-2.43,0.04c-0.86,0-1.715-0.016-2.569-0.043V21.681
		c0.468-8.335-41.431,1.739-50.58,3.173C29.516,10.384,50.381,0,74.765,0"/>
</g>
</svg>
