<?xml version="1.0" encoding="utf-8"?>
<!-- Generator: Adobe Illustrator 16.0.0, SVG Export Plug-In . SVG Version: 6.00 Build 0)  -->
<!DOCTYPE svg PUBLIC "-//W3C//DTD SVG 1.1//EN" "http://www.w3.org/Graphics/SVG/1.1/DTD/svg11.dtd">
<svg version="1.1" id="Layer_1" xmlns="http://www.w3.org/2000/svg" xmlns:xlink="http://www.w3.org/1999/xlink" x="0px" y="0px"
	 width="114px" height="79px" viewBox="0 0 114 79" enable-background="new 0 0 114 79" xml:space="preserve">
<g>
	<path fill="#E62129" d="M79.012,3.871C73.896,1.584,66.689,0.129,58.145,0.01c-0.016,0-0.028,0-0.047,0
		C57.738,0.004,57.377,0,57.014,0C57.01,0,57.006,0,57,0h-0.004c0,0-0.002,0-0.004,0c-9.113,0-16.781,1.502-22.127,3.921
		c-11.461,4.595-18.43,12.78-18.43,22.12c0,15.133,17.102,26.958,40.564,26.958c23.465,0,40.563-11.825,40.563-26.958
		C97.564,16.666,90.547,8.455,79.012,3.871z M80.49,11.422c0,4.267-6.539,6.991-14.168,8.197
		C65.111,8.694,61.273,3.161,57.047,3.161c-4.229,0-8.07,5.539-9.279,16.476c-7.67-1.2-14.27-3.93-14.27-8.215
		c0-2.486,3.08-4.617,7.604-6.118c4.182-1.292,8.76-2.075,13.418-2.279c0.004,0,0.008,0,0.012,0C55.053,3,55.577,2.986,56.098,2.977
		c0.053,0,0.107-0.002,0.158-0.002c0.246-0.002,0.496-0.004,0.74-0.004c0.006,0,0.012,0,0.018,0c0.232,0,0.467,0.002,0.699,0.004
		c0.072,0,0.145,0.002,0.217,0.002c0.225,0.005,0.449,0.011,0.672,0.017c0.07,0,0.14,0.004,0.207,0.006
		c0.174,0.006,0.349,0.012,0.521,0.02c0.08,0.004,0.162,0.008,0.24,0.012c0.232,0.01,0.469,0.021,0.699,0.034
		c0.026,0.002,0.057,0.004,0.084,0.006c4.25,0.253,8.416,0.986,12.258,2.148C77.277,6.722,80.49,8.888,80.49,11.422z M63.305,26.341
		c0,9.933-3.416,15.07-6.258,15.07c-2.846,0-6.26-5.138-6.26-15.07c0-0.035,0.002-0.065,0.002-0.099
		c1.986,0.168,4.061,0.256,6.203,0.256c2.184,0,4.291-0.09,6.311-0.264C63.303,26.27,63.305,26.304,63.305,26.341z M56.992,20.344
		c-1.891,0-3.848-0.092-5.789-0.275c1.043-7.299,3.842-10.514,5.844-10.514c2,0,4.797,3.213,5.842,10.502
		C60.91,20.25,58.918,20.344,56.992,20.344z M22.068,24.662c0-4.218,1.725-7.935,4.641-11.045
		c0.521,5.828,8.68,10.582,20.678,12.243c-0.008,0.461-0.01,0.92-0.01,1.391c0,14.56,4.195,21.991,8.752,22.864
		C40.281,49.788,22.068,40.584,22.068,24.662z M57.973,50.115c4.553-0.889,8.744-8.318,8.744-22.864
		c0-0.473-0.004-0.941-0.012-1.404c11.947-1.676,20.064-6.427,20.572-12.245c2.924,3.118,4.654,6.837,4.654,11.061
		C91.932,40.547,73.797,49.747,57.973,50.115z"/>
	<g>
		<path fill="#E62129" d="M5.859,63.152H0v-3.521h15.955v3.521h-6.08v15.185H5.859V63.152z"/>
		<path fill="#E62129" d="M44.77,71.273l-7.367-11.643h4.871l4.736,7.797l4.865-7.797h4.816l-7.543,11.65l-0.063,7.055h-4.254
			L44.77,71.273z"/>
		<path fill="#E62129" d="M59.826,62.053c1.795-1.842,4.248-3.021,7.129-3.021c5.77,0,10.07,4.604,10.07,10.156
			c0,2.412-0.949,4.568-2.408,6.283C72.813,77.588,70.145,79,66.955,79c-5.77,0-10.07-4.417-10.07-9.813
			C56.885,66.406,58.025,63.896,59.826,62.053z M66.955,75.229c3.68,0,5.346-2.924,5.346-6.043c0-3.383-1.553-6.353-5.346-6.353
			c-3.982,0-5.344,3.492-5.344,6.353C61.611,72.307,63.273,75.229,66.955,75.229z"/>
		<path fill="#E62129" d="M101.199,59.632h5.361L114,78.337h-4.443l-1.66-4.136h-8.096l-1.648,4.136h-4.432L101.199,59.632z
			 M101.154,70.887h5.422l-2.715-6.738L101.154,70.887z"/>
		<path fill="#E62129" d="M84.148,63.152h-5.859v-3.521h15.955v3.521h-6.08v15.185h-4.016V63.152z"/>
		<path fill="#E62129" d="M19.861,62.053c1.793-1.842,4.248-3.021,7.127-3.021c5.771,0,10.07,4.604,10.07,10.156
			c0,2.412-0.945,4.568-2.406,6.283C32.848,77.588,30.178,79,26.988,79c-5.768,0-10.066-4.417-10.066-9.813
			C16.922,66.406,18.061,63.896,19.861,62.053z M26.988,75.229c3.682,0,5.348-2.924,5.348-6.043c0-3.383-1.557-6.353-5.348-6.353
			c-3.98,0-5.344,3.492-5.344,6.353C21.645,72.307,23.311,75.229,26.988,75.229z"/>
	</g>
</g>
</svg>
