<?xml version="1.0" encoding="utf-8"?>
<!-- Generator: Adobe Illustrator 16.0.0, SVG Export Plug-In . SVG Version: 6.00 Build 0)  -->
<!DOCTYPE svg PUBLIC "-//W3C//DTD SVG 1.1//EN" "http://www.w3.org/Graphics/SVG/1.1/DTD/svg11.dtd">
<svg version="1.1" id="Layer_1" xmlns="http://www.w3.org/2000/svg" xmlns:xlink="http://www.w3.org/1999/xlink" x="0px" y="0px"
	 width="70px" height="70px" viewBox="0 0 70 70" enable-background="new 0 0 70 70" xml:space="preserve">
<g>
	<path fill="#3777BE" d="M41.725,9.635c-2.15-0.573-4.416-0.859-6.71-0.859c-2.265,0-4.473,0.286-6.566,0.832l6.653,18.353
		L41.725,9.635z"/>
	<path fill="#3777BE" d="M8.775,35.015c0,9.864,5.506,18.525,13.649,22.969L10.267,26.297C9.292,29.021,8.775,31.946,8.775,35.015z"
		/>
	<path fill="#3777BE" d="M34.785,42.184l-6.769,17.551l-0.027,0.545c2.235,0.631,4.587,0.945,7.024,0.945
		c2.295,0,4.502-0.285,6.625-0.83l-0.087-0.66L34.785,42.184z"/>
	<path fill="#3777BE" d="M59.563,25.723L47.087,58.271c8.374-4.389,14.138-13.164,14.138-23.257
		C61.225,31.745,60.65,28.62,59.563,25.723z"/>
	<path fill="#3777BE" d="M35.014,0C15.744,0,0,15.715,0,35.015C0,54.257,15.744,70,35.014,70S70,54.257,70,35.015
		C70,15.715,54.284,0,35.014,0z M35.014,65.525c-16.804,0-30.54-13.707-30.54-30.511c0-16.834,13.736-30.569,30.54-30.569
		S65.557,18.18,65.557,35.014C65.557,51.818,51.818,65.525,35.014,65.525z"/>
	<path fill="#3777BE" d="M48.205,12.331L40.52,33.494h-3.412h-4.016H29.68l-7.714-21.249c-2.839,1.635-5.334,3.786-7.398,6.338
		l10.954,28.418l4.015-10.381h3.097h4.331h3.098l4.015,10.381l11.069-28.762C53.195,15.888,50.844,13.88,48.205,12.331z"/>
</g>
</svg>
