<?xml version="1.0" encoding="utf-8"?>
<!-- Generator: Adobe Illustrator 16.0.0, SVG Export Plug-In . SVG Version: 6.00 Build 0)  -->
<!DOCTYPE svg PUBLIC "-//W3C//DTD SVG 1.1//EN" "http://www.w3.org/Graphics/SVG/1.1/DTD/svg11.dtd">
<svg version="1.1" id="Layer_1" xmlns="http://www.w3.org/2000/svg" xmlns:xlink="http://www.w3.org/1999/xlink" x="0px" y="0px"
	 width="93px" height="80px" viewBox="0 0 93 80" enable-background="new 0 0 93 80" xml:space="preserve">
<g>
	<polygon fill="#1462AC" points="18.451,48.898 12.387,48.898 7.457,39.843 4.938,39.843 4.938,38.34 15.871,38.34 15.877,39.829 
		13.13,39.841 16.896,46.257 20.376,39.819 18.37,39.819 18.37,38.34 25.903,38.34 25.898,39.813 23.38,39.829 	"/>
	<path fill="#1462AC" d="M56.253,48.898H43.679l-2.656-0.014v-1.648h2.655l-0.005-7.395h-2.519V38.34h9.959l0.005,1.489
		l-2.481,0.012v7.396c0,0,1.725,0.005,2.615,0.005c0.969,0,3.273-0.654,3.363-3.257c1.328,0,1.638,0,1.638,0V48.898z"/>
	<polygon fill="#1462AC" points="67.061,48.898 60.995,48.898 56.064,39.843 53.548,39.843 53.548,38.34 64.48,38.34 64.484,39.829 
		61.74,39.841 65.506,46.257 68.982,39.819 66.979,39.819 66.979,38.34 74.512,38.34 74.508,39.813 71.988,39.829 	"/>
	<path fill="#1462AC" d="M86.449,32.45c-0.104-0.078-0.229-0.119-0.355-0.119h-3.796c-1.024-3.378-2.54-6.605-4.521-9.595
		l6.486-6.145l4.131,4.785l1.299-0.493l-0.27-20.111L89.414,0l-0.771,0.044L67.878,1.227l-0.394,1.337l5.5,3.992l-5.801,5.61
		c-6.152-4.06-13.313-6.208-20.75-6.208c-16.902,0-31.218,11.135-35.854,26.373h-3.41c-0.114,0-0.227,0.033-0.323,0.096
		c-0.271,0.179-6.675,4.429-6.843,10.622c-0.103,3.814,2.191,7.469,6.816,10.855c0.102,0.076,0.224,0.115,0.35,0.115h3.526
		C15.457,69.059,29.676,80,46.434,80c16.755,0,30.976-10.941,35.739-25.979h3.921c0.12,0,0.238-0.037,0.338-0.105
		c0.264-0.184,6.452-4.549,6.566-10.771C93.066,39.356,90.863,35.759,86.449,32.45z M46.434,7.437
		c7.343,0,14.405,2.173,20.421,6.283l0.498,0.34l0.436-0.419l6.857-6.634l0.635-0.612l-0.715-0.518l-4.532-3.292l17.922-1.021
		l0.233,17.309l-3.313-3.834l-0.506-0.587l-0.563,0.533l-7.498,7.104l-0.459,0.436l0.356,0.52c1.981,2.885,3.502,6.01,4.541,9.287
		H69.837c-3.964-8.907-12.871-15.134-23.205-15.134c-10.335,0-19.241,6.227-23.206,15.134H12.123
		C16.713,17.919,30.356,7.437,46.434,7.437z M68.214,32.331H25.049c3.86-8.069,12.084-13.655,21.583-13.655
		C56.132,18.676,64.354,24.262,68.214,32.331z M46.434,78.521c-15.929,0-29.463-10.295-34.175-24.502h11.63
		c4.167,8.377,12.794,14.147,22.743,14.147c9.949,0,18.575-5.771,22.742-14.147h11.233C75.896,68.229,62.361,78.521,46.434,78.521z
		 M25.551,54.021h42.163c-4.041,7.533-11.976,12.668-21.082,12.668C37.523,66.689,29.59,61.555,25.551,54.021z M85.9,52.837H7.368
		c-4.19-3.11-6.271-6.394-6.182-9.756c0.139-5.11,5.256-8.928,6.166-9.566h78.539c3.986,3.031,5.981,6.262,5.924,9.602
		C91.725,48.241,86.805,52.16,85.9,52.837z"/>
	<path fill="#1462AC" d="M7.519,52.952c-0.052-0.039-0.099-0.077-0.15-0.115h-0.2C7.295,52.837,7.418,52.877,7.519,52.952z"/>
	<path fill="#1462AC" d="M86.094,52.837H85.9c-0.088,0.065-0.141,0.103-0.146,0.104C85.854,52.874,85.973,52.837,86.094,52.837z"/>
	<path fill="#1462AC" d="M7.169,33.515h0.184c0.084-0.06,0.135-0.094,0.141-0.097C7.396,33.48,7.284,33.515,7.169,33.515z"/>
	<path fill="#1462AC" d="M32.676,38.036c-4.28,0-7.75,2.498-7.75,5.575c0,3.08,3.47,5.578,7.75,5.578
		c4.281,0,7.752-2.498,7.752-5.578C40.428,40.534,36.957,38.036,32.676,38.036z M32.565,47.52c-1.115,0-2.021-1.801-2.021-4.021
		c0-2.222,0.905-4.022,2.021-4.022c1.116,0,2.021,1.8,2.021,4.022C34.587,45.719,33.682,47.52,32.565,47.52z"/>
	<path fill="#1462AC" d="M81.314,38.036c-4.281,0-7.75,2.498-7.75,5.575c0,3.08,3.469,5.578,7.75,5.578
		c4.278,0,7.75-2.498,7.75-5.578C89.064,40.534,85.594,38.036,81.314,38.036z M81.203,47.52c-1.116,0-2.02-1.801-2.02-4.021
		c0-2.222,0.902-4.022,2.02-4.022s2.021,1.8,2.021,4.022C83.225,45.719,82.318,47.52,81.203,47.52z"/>
	<path fill="#1462AC" d="M85.738,33.396c0.053,0.039,0.101,0.078,0.152,0.118h0.202C85.966,33.515,85.841,33.473,85.738,33.396z"/>
</g>
</svg>
