<svg width="24" height="24" viewBox="0 0 24 24" fill="none" xmlns="http://www.w3.org/2000/svg">
<path fill-rule="evenodd" clip-rule="evenodd" d="M4.8364 19.126C4.5224 19.126 4.26785 18.8714 4.26785 18.5574C4.26785 18.2434 4.5224 17.9889 4.8364 17.9889C5.1504 17.9889 5.40494 18.2434 5.40494 18.5574C5.40494 18.8714 5.1504 19.126 4.8364 19.126ZM20.9 8.92593C21.565 9.59096 21.565 10.673 20.8999 11.3381L20.0959 12.1421C19.874 12.3641 19.5138 12.364 19.2919 12.1421L18.8899 11.7402L18.0859 12.5442L18.4879 12.9462C18.7099 13.1682 18.7099 13.5281 18.4879 13.7502C18.2659 13.9722 17.9059 13.9722 17.6839 13.7502L17.2819 13.3482L16.4779 14.1522L16.8799 14.5542C17.1019 14.7762 17.1018 15.1363 16.8799 15.3582L13.6638 18.5743C13.4418 18.7963 13.0816 18.7962 12.8598 18.5743L11.2517 16.9662C11.1451 16.8596 11.0852 16.715 11.0852 16.5642V15.1917L10.8497 14.9561L7.64933 18.1565C7.77015 19.0114 7.50263 19.9112 6.84646 20.5675C5.73806 21.6758 3.93462 21.6757 2.82633 20.5675C1.71805 19.4591 1.71805 17.6556 2.82633 16.5473C3.48253 15.8911 4.38234 15.6236 5.23732 15.7444L8.43768 12.5441L8.20218 12.3086H6.8296C6.67884 12.3086 6.53422 12.2487 6.42762 12.1421L4.81953 10.534C4.71289 10.4273 4.65301 10.2828 4.65301 10.132C4.65301 9.98116 4.71293 9.83654 4.81953 9.72993L8.03566 6.51381C8.25767 6.2918 8.61766 6.29176 8.83966 6.51381L9.24169 6.91583L10.0457 6.11182L9.64367 5.7098C9.42162 5.4878 9.42162 5.12784 9.64367 4.9058C9.86567 4.68379 10.2257 4.68379 10.4477 4.9058L10.8497 5.30782L11.6537 4.50378L11.2517 4.10176C11.0297 3.87975 11.0297 3.5198 11.2517 3.29775L12.0557 2.49375C12.7207 1.82872 13.8028 1.82876 14.4678 2.49375L20.9 8.92593ZM6.04242 19.7634C6.70742 19.0984 6.70742 18.0163 6.04242 17.3513C5.37724 16.6862 4.29525 16.6864 3.6303 17.3513C2.9653 18.0164 2.9653 19.0984 3.6303 19.7634C4.29537 20.4284 5.37735 20.4284 6.04242 19.7634ZM7.20797 16.9898L10.0457 14.1521L9.24165 13.3481L6.40397 16.1858C6.56037 16.2892 6.70878 16.4097 6.84643 16.5473C6.98403 16.6849 7.10455 16.8334 7.20797 16.9898ZM13.2617 17.3682L15.6738 14.9561L15.2721 14.5544C15.272 14.5543 15.2718 14.5542 15.2718 14.5541L8.83959 8.12189C8.83959 8.12185 8.83955 8.12181 8.83951 8.12178L8.43761 7.71987L6.02548 10.132L7.06502 11.1715H8.43764C8.5884 11.1715 8.73302 11.2314 8.83963 11.338L12.0557 14.5541C12.1624 14.6608 12.2222 14.8054 12.2222 14.9561V16.3287L13.2617 17.3682ZM15.6739 13.3481L16.4779 12.5441L10.8497 6.9159L10.0457 7.71991L15.6739 13.3481ZM17.2819 11.74L18.0859 10.936C17.773 10.6232 12.7705 5.62071 12.4577 5.30786L11.6537 6.11186L17.2819 11.74ZM20.096 10.534C20.3182 10.3118 20.3182 9.95217 20.096 9.72994L13.6638 3.29775C13.4421 3.07605 13.0815 3.07609 12.8598 3.29775L12.4578 3.69978C12.6395 3.88146 19.2131 10.4551 19.292 10.534L19.694 10.936L20.096 10.534Z" fill="#184460"/>
</svg>
