<svg width="24" height="24" viewBox="0 0 24 24" fill="none" xmlns="http://www.w3.org/2000/svg">
<path fill-rule="evenodd" clip-rule="evenodd" d="M11.1285 19.0869C10.8145 19.0869 10.56 18.8324 10.56 18.5184C10.56 18.2045 10.8145 17.9499 11.1285 17.9499C11.4424 17.9499 11.6969 18.2045 11.6969 18.5184C11.6969 18.8324 11.4424 19.0869 11.1285 19.0869ZM4.87534 12.8338C4.56139 12.8338 4.30688 12.5792 4.30688 12.2653C4.30688 11.9513 4.56139 11.6968 4.87534 11.6968C5.1893 11.6968 5.44381 11.9513 5.44381 12.2653C5.44381 12.5792 5.1893 12.8338 4.87534 12.8338ZM6.70694 17.2553C6.39299 17.2553 6.13848 17.0008 6.13848 16.6868C6.13848 16.3729 6.39299 16.1183 6.70694 16.1183C7.0209 16.1183 7.27541 16.3729 7.27541 16.6868C7.27541 17.0008 7.0209 17.2553 6.70694 17.2553ZM6.70694 8.37432C6.39299 8.37432 6.13848 8.11981 6.13848 7.80586C6.13848 7.4919 6.39299 7.23739 6.70694 7.23739C7.0209 7.23739 7.27541 7.4919 7.27541 7.80586C7.27541 8.11981 7.0209 8.37432 6.70694 8.37432ZM15.55 17.2553C15.236 17.2553 14.9815 17.0008 14.9815 16.6868C14.9815 16.3729 15.236 16.1183 15.55 16.1183C15.864 16.1183 16.1185 16.3729 16.1185 16.6868C16.1185 17.0008 15.864 17.2553 15.55 17.2553ZM11.6969 1.995C17.0305 1.995 21.3988 6.36249 21.3988 11.6968C21.3988 12.0108 21.1442 12.2653 20.8303 12.2653H20.2239C20.2239 17.3014 16.1437 21.3986 11.1285 21.3986C6.101 21.3986 1.99512 17.2931 1.99512 12.2653C1.99512 7.23776 6.10065 3.13193 11.1285 3.13193V2.56346C11.1285 2.24951 11.383 1.995 11.6969 1.995ZM11.1285 20.2617C15.5168 20.2617 19.087 16.6707 19.087 12.2615H17.3816C17.0676 12.2615 16.8131 12.0108 16.8131 11.6968C16.8131 8.85483 14.518 6.54273 11.6969 6.54273C11.383 6.54273 11.1285 6.28821 11.1285 5.97426V4.26886C6.71922 4.26886 3.13205 7.85604 3.13205 12.2653C3.13205 16.6745 6.71922 20.2617 11.1285 20.2617ZM17.9247 11.1284H20.2432C19.9618 6.85781 16.5359 3.43193 12.2654 3.15058V5.43153C15.2642 5.70443 17.6566 8.13272 17.9247 11.1284ZM11.1285 7.67966C13.6361 7.67966 15.6762 9.73674 15.6762 12.2653C15.6762 14.7729 13.6361 16.813 11.1285 16.813C8.62085 16.813 6.58074 14.7729 6.58074 12.2653C6.58074 9.73674 8.62085 7.67966 11.1285 7.67966ZM11.1285 15.6761C13.0092 15.6761 14.5393 14.146 14.5393 12.2653C14.5393 10.3637 13.0092 8.81659 11.1285 8.81659C9.24776 8.81659 7.71767 10.3637 7.71767 12.2653C7.71767 14.146 9.24776 15.6761 11.1285 15.6761ZM11.1285 9.99142C12.3823 9.99142 13.4023 11.0115 13.4023 12.2653C13.4023 13.5191 12.3823 14.5391 11.1285 14.5391C9.87466 14.5391 8.85461 13.5191 8.85461 12.2653C8.85461 11.0115 9.87466 9.99142 11.1285 9.99142ZM11.1285 13.4022C11.7554 13.4022 12.2654 12.8922 12.2654 12.2653C12.2654 11.6384 11.7554 11.1284 11.1285 11.1284C10.5016 11.1284 9.99154 11.6384 9.99154 12.2653C9.99154 12.8922 10.5016 13.4022 11.1285 13.4022Z" fill="#184460"/>
</svg>
