<svg width="24" height="24" viewBox="0 0 24 24" fill="none" xmlns="http://www.w3.org/2000/svg">
<path fill-rule="evenodd" clip-rule="evenodd" d="M21.7351 14.665L21.6353 14.3566L19.731 13.8797C19.7427 13.7069 19.7481 13.5335 19.7481 13.3585C19.7481 11.1382 18.7944 9.01985 17.1318 7.54647L16.3559 8.42181C17.7685 9.67335 18.5783 11.4728 18.5783 13.3585C18.5783 13.436 18.5773 13.5133 18.5741 13.5901L17.3376 13.2805C17.3201 12.0667 16.8881 10.888 16.1158 9.95218L15.2135 10.6969C15.75 11.3465 16.0763 12.1473 16.1521 12.9836L14.8918 12.6682C14.7558 12.0935 14.4527 11.5823 14.0371 11.1889L15.9531 4.50479L15.7364 4.2642C14.8076 3.23207 13.4398 2.63983 11.9842 2.63983C10.5287 2.63983 9.16136 3.23207 8.23254 4.2642L8.01572 4.50479L8.55586 6.38956C8.13198 6.59891 7.72485 6.84848 7.33891 7.13737C6.03466 8.11251 5.05129 9.50224 4.56981 11.0498L5.68681 11.3972C6.21826 9.68782 7.38523 8.3243 8.88299 7.53078L9.23617 8.76372C8.77603 9.03905 8.35504 9.38401 7.99088 9.79158L8.86303 10.5709C9.07665 10.3319 9.3154 10.1202 9.57305 9.93923L9.93142 11.1894C9.51805 11.5808 9.21591 12.0888 9.07908 12.66L7.81764 12.9724C7.86092 12.4894 7.98692 12.0237 8.19399 11.5831L7.13489 11.0861C6.81294 11.7722 6.64336 12.5052 6.63087 13.266L2.33094 14.3304L2.23023 14.6385C1.79827 15.9583 1.96679 17.4388 2.69235 18.7009C3.41792 19.9626 4.61262 20.8532 5.97036 21.1441L6.28728 21.2119L7.654 19.8025C8.92702 20.6586 10.4324 21.1218 11.9842 21.1218C12.52 21.1218 13.0549 21.0673 13.5746 20.9589L13.336 19.8138C12.8946 19.9058 12.4401 19.9521 11.9842 19.9521C10.7092 19.9521 9.50632 19.5841 8.48638 18.9434L9.37147 18.0306C10.1447 18.465 11.0361 18.7126 11.9842 18.7126V17.5429C11.355 17.5429 10.758 17.4033 10.2223 17.153L11.1261 16.2204C11.3978 16.3022 11.6859 16.3462 11.9842 16.3462C12.2798 16.3462 12.5652 16.3034 12.8351 16.2226L17.6602 21.2271L17.9771 21.1601C19.3356 20.8732 20.5331 19.9856 21.2618 18.7259C21.9909 17.4661 22.1632 15.986 21.7351 14.665ZM13.9042 15.6459C14.4294 15.2047 14.8013 14.5862 14.9264 13.8828L20.7061 15.3298C20.917 16.2562 20.7564 17.2638 20.2495 18.1402C19.7423 19.0164 18.9492 19.6577 18.0406 19.9366L13.9042 15.6459ZM9.32317 4.82186C10.0195 4.17537 10.9721 3.80954 11.9842 3.80954C12.9969 3.80954 13.9495 4.17537 14.6453 4.82186L13.0039 10.5496C12.6857 10.4333 12.3422 10.3701 11.9842 10.3701C11.6263 10.3701 11.2828 10.4333 10.9646 10.5496L9.32317 4.82186ZM5.91033 19.9201C5.00253 19.639 4.21099 18.9952 3.7065 18.1176C3.20202 17.24 3.04371 16.2321 3.25733 15.3063L9.0413 13.8747C9.16441 14.5788 9.53451 15.1984 10.0589 15.6409L5.91033 19.9201ZM10.1661 13.3585C10.1661 12.3556 10.9818 11.5398 11.9842 11.5398C12.9871 11.5398 13.8027 12.3556 13.8027 13.3585C13.8027 14.3609 12.9871 15.1765 11.9842 15.1765C10.9818 15.1766 10.1661 14.3609 10.1661 13.3585Z" fill="#184460"/>
</svg>
