<svg width="24" height="24" viewBox="0 0 24 24" fill="none" xmlns="http://www.w3.org/2000/svg">
<path fill-rule="evenodd" clip-rule="evenodd" d="M8.334 4.666V3H16.033V4.666H19.367V19.033H16.033V20.699H8.334V19.033H5V4.666H8.334ZM15.001 4.666H9.367V4.033H15.001V4.666ZM6.03503 6.334H18.334V5.7H6.03503V6.334ZM6.03503 18.001H18.334V17.367H6.03503V18.001ZM15.0009 19.668H9.36694V19.033H15.0009V19.668ZM6.66791 16.334H6.03491V7.367H6.66791V16.334ZM7.69992 16.334H8.74992V7.367H7.69992V16.334ZM11.667 16.334H9.78403V7.367H11.667V16.334ZM12.701 16.334H14.584V7.367H12.701V16.334ZM16.6679 16.334H15.6169V7.367H16.6679V16.334ZM18.3339 16.334H17.6999V7.367H18.3339V16.334Z" fill="#184460"/>
</svg>
