<svg width="24" height="24" viewBox="0 0 24 24" fill="none" xmlns="http://www.w3.org/2000/svg">
<path fill-rule="evenodd" clip-rule="evenodd" d="M19.3915 10.4411H18.7745C18.8329 10.2763 18.865 10.0992 18.865 9.91462C18.865 9.51038 18.7122 9.14131 18.4615 8.86163C18.7122 8.58196 18.865 8.21289 18.865 7.80864C18.865 7.12227 18.4248 6.53706 17.812 6.31972V4.57948C17.812 3.70856 17.1035 3 16.2325 3C15.3616 3 14.6531 3.70856 14.6531 4.57948V6.31972C14.0403 6.53706 13.6001 7.12227 13.6001 7.80864C13.6001 8.21289 13.7529 8.58196 14.0035 8.86163C13.7529 9.14131 13.6001 9.51038 13.6001 9.91462C13.6001 10.0992 13.6322 10.2763 13.6906 10.4411H12.4769V9.91462C12.4769 8.64331 11.571 7.57973 10.3709 7.33512V6.75566C10.3709 5.30411 9.18999 4.12319 7.73845 4.12319H5.63247C4.18093 4.12319 3 5.30411 3 6.75566V18.3385C3 19.7901 4.18093 20.971 5.63247 20.971H7.73845C9.18999 20.971 10.3709 19.7901 10.3709 18.3385V17.7591C11.571 17.5145 12.4769 16.4509 12.4769 15.1796V14.6531H19.3915C20.2624 14.6531 20.971 13.9445 20.971 13.0736V12.0206C20.971 11.1497 20.2624 10.4411 19.3915 10.4411ZM9.31793 6.95674L7.503 7.86421C7.24291 7.99425 7.13751 8.3105 7.26755 8.57059C7.39759 8.83075 7.71388 8.93604 7.97389 8.80604L9.31793 8.13405V10.1157L7.503 11.0232C7.24291 11.1533 7.13751 11.4695 7.26755 11.7296C7.39759 11.9897 7.71388 12.095 7.97389 11.965L9.31793 11.293V13.2747L7.503 14.1821C7.24291 14.3122 7.13751 14.6284 7.26755 14.8885C7.39756 15.1486 7.71377 15.254 7.97389 15.124L9.31793 14.452V16.4337L7.503 17.3411C7.24291 17.4712 7.13751 17.7874 7.26755 18.0475C7.39756 18.3076 7.71377 18.413 7.97389 18.283L9.31793 17.6109V18.3385C9.31793 19.2095 8.60937 19.918 7.73845 19.918H5.63247C4.76154 19.918 4.05299 19.2095 4.05299 18.3385V17.6109L5.39702 18.283C5.65711 18.413 5.97336 18.3076 6.10337 18.0475C6.23341 17.7874 6.12801 17.4712 5.86792 17.3411L4.05299 16.4336V14.4519L5.39702 15.124C5.65711 15.254 5.97336 15.1486 6.10337 14.8885C6.23341 14.6284 6.12801 14.3122 5.86792 14.1821L4.05299 13.2747V11.293L5.39702 11.965C5.65711 12.095 5.97336 11.9896 6.10337 11.7296C6.23341 11.4695 6.12801 11.1532 5.86792 11.0232L4.05299 10.1157V8.13402L5.39702 8.80604C5.65707 8.93608 5.97336 8.83064 6.10337 8.57059C6.23341 8.3105 6.12801 7.99425 5.86792 7.86421L4.05299 6.95674V6.75566C4.05299 5.88473 4.76154 5.17618 5.63247 5.17618H7.73845C8.60937 5.17618 9.31793 5.88473 9.31793 6.75566V6.95674ZM11.4239 15.1796C11.4239 15.8659 10.9837 16.4511 10.3709 16.6685V8.4257C10.9837 8.64303 11.4239 9.22825 11.4239 9.91462V15.1796ZM15.7061 4.57948C15.7061 4.28917 15.9422 4.05299 16.2325 4.05299C16.5229 4.05299 16.759 4.28917 16.759 4.57948V6.22916H15.7061V4.57948ZM15.1796 7.28215H17.2855C17.5758 7.28215 17.812 7.51834 17.812 7.80864C17.812 8.09895 17.5758 8.33514 17.2855 8.33514H15.1796C14.8893 8.33514 14.6531 8.09895 14.6531 7.80864C14.6531 7.51834 14.8893 7.28215 15.1796 7.28215ZM15.1796 9.38813H17.2855C17.5758 9.38813 17.812 9.62431 17.812 9.91462C17.812 10.2049 17.5758 10.4411 17.2855 10.4411H15.1796C14.8893 10.4411 14.6531 10.2049 14.6531 9.91462C14.6531 9.62431 14.8893 9.38813 15.1796 9.38813ZM19.918 13.0736C19.918 13.3639 19.6818 13.6001 19.3915 13.6001H12.4769V11.4941C12.8296 11.4941 19.0369 11.4941 19.3915 11.4941C19.6818 11.4941 19.918 11.7303 19.918 12.0206V13.0736Z" fill="#184460"/>
</svg>
