<svg width="24" height="24" viewBox="0 0 24 24" fill="none" xmlns="http://www.w3.org/2000/svg">
<path fill-rule="evenodd" clip-rule="evenodd" d="M20.971 8.73815H20.269V16.1507H20.971V19.45H3V16.1507H3.63179V8.73815H3V5.43879H4.80289V3H8.433V5.43879H15.5758V3H19.2059V5.43879H20.971V8.73815ZM19.918 18.397V17.2036H4.05299V18.397H19.918ZM4.68478 16.1506H19.216V8.76216H4.68478V16.1506ZM16.6288 4.05299V5.43879H18.1529V4.05299H16.6288ZM5.85588 4.05299V5.43879H7.38001V4.05299H5.85588ZM4.05299 6.49178V7.68516H19.918V6.49178H4.05299ZM13.8341 11.9299H18.0285V12.9829H13.8341V11.9299ZM8.5662 10.3592V11.9299H10.1369V12.9829H8.5662V14.5536H7.51321V12.9829H5.9425V11.9299H7.51321V10.3592H8.5662Z" fill="#184460"/>
</svg>
