<svg width="24" height="24" viewBox="0 0 24 24" fill="none" xmlns="http://www.w3.org/2000/svg">
<path fill-rule="evenodd" clip-rule="evenodd" d="M16.264 19.8626C17.286 19.3076 18.18 18.5676 18.922 17.6616L17.545 15.3696C17.187 15.9596 16.739 16.4846 16.213 16.9346L16.264 19.8626ZM20.936 12.2644C20.938 12.1824 20.94 12.1005 20.94 12.0186C20.94 10.9316 20.745 9.86957 20.361 8.86057L17.684 8.90757C18.019 9.51357 18.251 10.1646 18.376 10.8456L20.936 12.2646V12.2644ZM9.854 18.1126L7.348 19.6176C8.341 20.2306 9.428 20.6366 10.58 20.8246L11.877 18.4836C11.185 18.4696 10.505 18.3446 9.854 18.1126ZM8.667 17.5456C8.076 17.1856 7.55 16.7386 7.102 16.2136L4.174 16.2646C4.73 17.2876 5.469 18.1816 6.375 18.9226L8.667 17.5456ZM7.823 7.10257L7.773 4.17457C6.748 4.72957 5.855 5.46957 5.114 6.37457L6.491 8.66757C6.85 8.07757 7.297 7.55157 7.823 7.10257ZM12.264 3.10057C11.097 3.06557 9.946 3.26257 8.861 3.67457L8.907 6.35157C9.514 6.01757 10.165 5.78557 10.845 5.66057L12.264 3.10057ZM13.456 3.21357L12.159 5.55357C12.854 5.56857 13.533 5.69257 14.183 5.92457L16.689 4.41957C15.694 3.80557 14.608 3.40057 13.456 3.21357ZM17.388 12.0186C17.388 9.05757 14.979 6.64957 12.018 6.64957C9.058 6.64957 6.649 9.05757 6.649 12.0186C6.649 14.9786 9.058 17.3886 12.018 17.3886C14.979 17.3886 17.388 14.9786 17.388 12.0186ZM15.369 6.49157C15.959 6.85057 16.484 7.29757 16.935 7.82357L19.862 7.77257C19.313 6.76157 18.555 5.84657 17.661 5.11457L15.369 6.49157ZM4.419 7.34857C3.805 8.34357 3.4 9.42957 3.212 10.5796L5.553 11.8776C5.568 11.1856 5.693 10.5056 5.924 9.85357L4.419 7.34857ZM3.674 15.1756L6.353 15.1296C6.018 14.5226 5.785 13.8716 5.66 13.1916L3.101 11.7726C3.098 11.8536 3.097 11.9356 3.097 12.0186C3.097 13.1056 3.291 14.1676 3.674 15.1756ZM11.772 20.9356C12.935 20.9626 14.091 20.7736 15.175 20.3616L15.129 17.6836C14.523 18.0186 13.872 18.2516 13.192 18.3766L11.772 20.9356ZM19.617 16.6886C20.231 15.6956 20.636 14.6096 20.824 13.4566L18.484 12.1596C18.469 12.8516 18.344 13.5316 18.112 14.1826L19.617 16.6886ZM2 12.0186C2 6.49457 6.494 1.99957 12.018 1.99957C17.542 1.99957 22.036 6.49457 22.036 12.0186C22.036 17.5426 17.542 22.0356 12.018 22.0356C6.494 22.0356 2 17.5426 2 12.0186ZM13.6294 14.8209L14.8204 13.6289C15.0334 13.4159 15.3824 13.4159 15.5954 13.6289C15.8094 13.8429 15.8094 14.1909 15.5964 14.4049L14.4044 15.5959C14.2994 15.6999 14.1624 15.7559 14.0164 15.7559C13.8714 15.7559 13.7334 15.6999 13.6294 15.5969C13.4154 15.3819 13.4154 15.0339 13.6294 14.8209ZM9.6319 15.5971C9.7359 15.7001 9.8739 15.7561 10.0199 15.7561C10.1649 15.7561 10.3029 15.7001 10.4079 15.5961C10.6209 15.3821 10.6209 15.0341 10.4069 14.8211L9.2159 13.6291C9.0029 13.4161 8.6539 13.4161 8.4399 13.6291C8.2269 13.8431 8.2269 14.1911 8.4409 14.4051L9.6319 15.5971ZM9.2162 10.4073C9.1122 10.5113 8.9742 10.5683 8.8282 10.5683C8.6822 10.5683 8.5442 10.5113 8.4402 10.4073C8.2262 10.1933 8.2262 9.84627 8.4392 9.63127L9.6322 8.44127C9.8362 8.23527 10.1992 8.23327 10.4072 8.44127C10.5112 8.54427 10.5682 8.68227 10.5682 8.82827C10.5682 8.97527 10.5112 9.11227 10.4072 9.21627L9.2162 10.4073ZM11.0577 12.0185C11.0577 11.4895 11.4887 11.0595 12.0177 11.0595C12.5467 11.0595 12.9777 11.4895 12.9777 12.0185C12.9777 12.5475 12.5467 12.9775 12.0177 12.9775C11.4887 12.9775 11.0577 12.5475 11.0577 12.0185ZM9.9617 12.0185C9.9617 13.1525 10.8837 14.0755 12.0177 14.0755C13.1517 14.0755 14.0747 13.1525 14.0747 12.0185C14.0747 10.8845 13.1517 9.96147 12.0177 9.96147C10.8837 9.96147 9.9617 10.8845 9.9617 12.0185ZM15.2084 10.5687C15.0614 10.5687 14.9244 10.5117 14.8204 10.4077L13.6294 9.21667C13.5254 9.11267 13.4674 8.97467 13.4674 8.82867C13.4674 8.68167 13.5254 8.54467 13.6294 8.44067C13.8334 8.23467 14.1974 8.23267 14.4044 8.44067L15.5954 9.63167C15.8094 9.84567 15.8094 10.1937 15.5954 10.4077C15.4924 10.5117 15.3544 10.5687 15.2084 10.5687Z" fill="#184460"/>
</svg>
