<svg width="24" height="24" viewBox="0 0 24 24" fill="none" xmlns="http://www.w3.org/2000/svg">
<path fill-rule="evenodd" clip-rule="evenodd" d="M3.9856 18.1081V19.291H19.9535V18.1081L18.5469 17.488C18.3678 17.4098 18.2532 17.2325 18.2532 17.0379C18.2532 15.9805 17.3931 15.1212 16.3357 15.1212H7.6007C6.54418 15.1212 5.68495 15.9805 5.68495 17.0379C5.68495 17.2334 5.56857 17.4107 5.38945 17.4889L3.9856 18.1081ZM10.8885 1.9856C9.96924 1.9856 9.22186 2.73299 9.22186 3.65222C9.22186 4.36506 10.2502 7.28368 11.214 9.7186H12.7078C13.6789 7.28005 14.7163 4.35869 14.7163 3.65222C14.7163 2.73299 13.968 1.9856 13.0479 1.9856H10.8885ZM12.5478 14.1365H11.3913V10.7042H12.5478V14.1365ZM19.2206 16.7088L20.6436 17.3361C20.8218 17.4152 20.9364 17.5916 20.9364 17.7862V19.7838C20.9364 20.0547 20.7154 20.2757 20.4445 20.2757H3.49189C3.22003 20.2757 3 20.0547 3 19.7838V17.7862C3 17.5916 3.11456 17.4143 3.29277 17.3361L4.71844 16.7088C4.8821 15.2622 6.13775 14.1365 7.6007 14.1365H10.4057V10.3514C10.1529 9.72314 8.23625 4.89968 8.23625 3.65222C8.23625 2.19018 9.42552 1 10.8885 1H13.0479C14.5099 1 15.6992 2.19018 15.6992 3.65222C15.6992 4.85059 13.9089 9.36673 13.5307 10.3078V14.1365H16.3357C17.8223 14.1365 19.0524 15.2385 19.2206 16.7088ZM12.9359 5.85183C12.9359 6.12369 12.7149 6.34463 12.4422 6.34463H11.4938C11.222 6.34463 11.0019 6.12369 11.0019 5.85183C11.0019 5.58088 11.222 5.35994 11.4938 5.35994H12.4422C12.7149 5.35994 12.9359 5.58088 12.9359 5.85183ZM13.4712 3.71105C13.4712 3.43919 13.2503 3.21825 12.9775 3.21825H10.9581C10.6872 3.21825 10.4662 3.43919 10.4662 3.71105C10.4662 3.982 10.6872 4.20385 10.9581 4.20385H12.9775C13.2503 4.20385 13.4712 3.982 13.4712 3.71105ZM8.51266 17.1497H15.4255C15.6965 17.1497 15.9165 17.3707 15.9165 17.6425C15.9165 17.9135 15.6965 18.1344 15.4255 18.1344H8.51266C8.23989 18.1344 8.01894 17.9135 8.01894 17.6425C8.01894 17.3707 8.23989 17.1497 8.51266 17.1497Z" fill="#184460"/>
</svg>
