<svg width="24" height="24" viewBox="0 0 24 24" fill="none" xmlns="http://www.w3.org/2000/svg">
<path fill-rule="evenodd" clip-rule="evenodd" d="M22.3148 4.47474C22.2318 4.1397 21.8929 3.93541 21.5578 4.01853L16.5162 5.26853C16.1811 5.35162 15.9769 5.69053 16.0599 6.02557C16.1432 6.3612 16.4827 6.56478 16.817 6.48178L21.8586 5.23178C22.1936 5.1487 22.3979 4.80978 22.3148 4.47474ZM22.3148 8.22474C22.2318 7.8897 21.8929 7.68532 21.5578 7.76853L16.5162 9.01853C16.1811 9.10161 15.9769 9.44053 16.0599 9.77557C16.1432 10.1112 16.4827 10.3148 16.817 10.2318L21.8586 8.98178C22.1936 8.8987 22.3979 8.55978 22.3148 8.22474ZM21.5578 11.5185C21.8929 11.4354 22.2318 11.6397 22.3148 11.9747C22.3979 12.3097 22.1936 12.6487 21.8586 12.7317L16.817 13.9817C16.4827 14.0647 16.1432 13.8611 16.0599 13.5255C15.9769 13.1905 16.1811 12.8516 16.5162 12.7685L21.5578 11.5185ZM22.3148 15.7247C22.2318 15.3896 21.8929 15.1853 21.5578 15.2685L16.5162 16.5185C16.1811 16.6016 15.9769 16.9405 16.0599 17.2755C16.1432 17.6111 16.4827 17.8147 16.817 17.7317L21.8586 16.4817C22.1936 16.3986 22.3979 16.0597 22.3148 15.7247ZM11.6666 4.00016C12.1464 4.00016 12.6292 4.02474 13.1016 4.07333C14.065 4.17241 14.7916 4.97728 14.7916 5.94549V18.3047C14.7916 19.2729 14.0651 20.0778 13.1017 20.1769C12.6293 20.2254 12.1465 20.2501 11.6666 20.2501C8.85924 20.2501 6.20799 19.4259 4.20116 17.9294C2.13687 16.39 1 14.3287 1 12.1251C1 9.92153 2.13687 7.86016 4.20112 6.32082C6.20791 4.82433 8.8592 4.00016 11.6666 4.00016ZM4.94837 16.9274C6.59295 18.1537 8.73724 18.8741 11.0416 18.9846V5.26562C8.73724 5.3762 6.59295 6.09653 4.94837 7.32291C3.20833 8.62045 2.25 10.3259 2.25 12.1251C2.25 13.9243 3.20833 15.6298 4.94837 16.9274ZM13.5416 18.3047C13.5416 18.6298 13.2974 18.9001 12.9737 18.9334C12.7484 18.9566 12.5204 18.9734 12.2916 18.9845V5.2657C12.5204 5.27683 12.7484 5.29362 12.9737 5.31678C13.2975 5.35008 13.5416 5.62037 13.5416 5.94549V18.3047Z" fill="#184460"/>
</svg>
