<?xml version="1.0" encoding="UTF-8"?>
<svg version="1.1" xmlns="http://www.w3.org/2000/svg" width="1430" height="409">
<path d="M0 0 C1.35774684 0.0033638 2.71549428 0.00649461 4.07324219 0.00939941 C23.41394635 0.05700237 42.61188064 0.37462106 61.875 2.25 C63.22759048 2.37072021 64.58029816 2.49013282 65.93310547 2.60839844 C108.47110073 6.3606221 150.38130082 14.30565766 191.875 24.25 C192.63319031 24.43153625 193.39138062 24.61307251 194.17254639 24.80010986 C198.91470115 25.94031807 203.64714524 27.11434296 208.375 28.3125 C210.24345581 28.78441772 210.24345581 28.78441772 212.1496582 29.26586914 C218.04179548 30.80469971 223.74098934 32.51194002 229.421875 34.7109375 C247.49283938 41.52433965 263.92097037 42.04240805 283.08056641 42.07861328 C297.48357615 42.10723727 311.66259752 42.67055553 326 44.0625 C326.82372101 44.1401358 327.64744202 44.21777161 328.49612427 44.29776001 C334.63019654 44.88181395 340.75315092 45.5500572 346.875 46.25 C348.66754715 46.45477966 348.66754715 46.45477966 350.49630737 46.66369629 C370.10348086 48.92627961 389.62372865 51.58599004 409.13648987 54.56283569 C412.68187448 55.10244421 416.22815468 55.63609755 419.77441406 56.16992188 C420.86357589 56.33390158 420.86357589 56.33390158 421.97474098 56.501194 C423.45675157 56.72431558 424.93876465 56.94742058 426.42078018 57.17050934 C428.66347069 57.50831173 430.90607101 57.8467073 433.14865112 58.1852417 C448.64504261 60.52343127 464.14850281 62.81319345 479.65365601 65.09246826 C483.3219397 65.63171964 486.9900237 66.17231558 490.65805149 66.71330452 C493.41988851 67.12041333 496.18186298 67.52658333 498.94388008 67.93246841 C500.80226892 68.20575666 502.66052953 68.47991652 504.51878357 68.75411987 C512.96183134 69.9923757 521.41431864 71.13968019 529.875 72.25 C529.875 72.91 529.875 73.57 529.875 74.25 C509.00560702 77.01679507 488.13481464 79.77280184 467.26230526 82.51599216 C457.57075266 83.78996959 447.87968827 85.06746572 438.18969727 86.35327148 C429.74336093 87.47404236 421.29618125 88.58818521 412.84792525 89.69439644 C408.37517619 90.2802912 403.90291779 90.86948306 399.43165398 91.46661568 C395.22127382 92.02880101 391.00982028 92.58210196 386.79738617 93.12867737 C385.25344802 93.33058596 383.70992606 93.53570765 382.16687965 93.74432182 C380.05527907 94.02930713 377.94246637 94.30254632 375.82896423 94.57301331 C374.64814742 94.72879632 373.46733061 94.88457933 372.25073147 95.04508305 C365.66772549 95.44469111 360.88238058 94.02142919 355.0625 91.0625 C317.14442621 72.64366061 261.2324823 62.19404729 220.11328125 74.36328125 C210.24934601 77.85740251 200.84335764 82.44524778 191.36352539 86.85400391 C166.74217606 98.30238627 141.70026382 105.01704813 114.875 109.25 C113.72354492 109.43763916 112.57208984 109.62527832 111.38574219 109.81860352 C101.35102828 111.32300718 91.50567371 111.60982659 81.375 111.5625 C80.54184265 111.56034485 79.7086853 111.5581897 78.85028076 111.55596924 C27.31663228 111.34274016 -21.19057016 93.08335452 -64.125 65.25 C-60.66171907 64.06026586 -58.54511801 64.45602485 -55.07421875 65.5078125 C-54.07801514 65.80131592 -53.08181152 66.09481934 -52.05541992 66.3972168 C-50.98525635 66.71988525 -49.91509277 67.04255371 -48.8125 67.375 C-27.4976745 73.54334173 -6.15302836 77.56556828 15.875 80.25 C17.15177612 80.40903809 17.15177612 80.40903809 18.4543457 80.57128906 C42.38368577 83.16025111 68.23986272 82.60456179 91.875 78.25 C92.98633301 78.05132324 94.09766602 77.85264648 95.24267578 77.64794922 C119.47189559 73.22849186 143.82604922 67.51295114 165.875 56.25 C167.04675781 55.651875 168.21851563 55.05375 169.42578125 54.4375 C175.44219693 51.1464692 180.06535703 48.01888792 183.875 42.25 C183.83287621 40.14227625 183.83287621 40.14227625 182.875 38.25 C176.63247406 34.32269533 170.26687381 33.00696851 163.07421875 31.71875 C161.93828781 31.5084314 160.80235687 31.29811279 159.63200378 31.0814209 C147.04516041 28.81622437 134.38368099 27.25234101 121.6875 25.75 C119.2417457 25.4539212 116.79610894 25.15686994 114.35058594 24.85888672 C110.67657158 24.41138669 107.00249277 23.96453725 103.32797241 23.52120972 C95.87964363 22.62205353 88.43594816 21.69330654 80.99609375 20.7265625 C79.64672478 20.55136078 79.64672478 20.55136078 78.27009583 20.37261963 C74.9288486 19.93785577 71.58777673 19.50182975 68.2472229 19.06176758 C42.86726799 15.72174027 18.3562049 15.73146233 -7.125 18.25 C-8.51477051 18.38680176 -8.51477051 18.38680176 -9.93261719 18.52636719 C-56.34469789 23.33809618 -120.20976345 32.94213385 -159.125 60.25 C-158.78813149 62.98647982 -158.56639742 64.76049387 -156.69140625 66.83984375 C-144.86419208 74.79381819 -129.78950744 77.82379607 -116.125 81.25 C-116.125 81.58 -116.125 81.91 -116.125 82.25 C-139.74240449 85.57185316 -163.37341931 88.77301297 -187.0246582 91.84472656 C-191.28484933 92.39818658 -195.54441717 92.95630706 -199.8038702 93.51541519 C-203.16073191 93.95529085 -206.51799216 94.3920637 -209.87536812 94.8279953 C-211.44731538 95.03259246 -213.01912327 95.23826396 -214.59077263 95.44513702 C-226.57498207 97.02081135 -238.54271962 98.37316111 -250.64453125 98.453125 C-251.75127197 98.46371445 -251.75127197 98.46371445 -252.88037109 98.47451782 C-291.94005151 98.76329028 -329.2324281 93.5566494 -362.49609375 71.69140625 C-413.83760764 43.54130428 -491.58333263 45.3834962 -546.125 61.25 C-561.32728318 65.7676252 -575.88503039 71.26882056 -590.125 78.25 C-590.90117676 78.62850098 -591.67735352 79.00700195 -592.47705078 79.39697266 C-617.99970611 91.98516605 -640.90710505 108.38062683 -662.125 127.25 C-662.6710791 127.73291504 -663.2171582 128.21583008 -663.77978516 128.71337891 C-705.79948714 166.04622004 -730.29675251 216.11420573 -739.66357422 271.11474609 C-740.125 273.25 -740.125 273.25 -741.125 274.25 C-743.68919619 274.6551844 -746.23641859 275.00446546 -748.8125 275.3125 C-749.87500977 275.44881836 -749.87500977 275.44881836 -750.95898438 275.58789062 C-755.04091925 276.08918087 -759.00346056 276.3473592 -763.125 276.25 C-762.02318501 232.57806032 -735.30393915 187.62837239 -709.125 154.25 C-708.33480469 153.23292969 -707.54460937 152.21585938 -706.73046875 151.16796875 C-693.53864924 134.90729301 -678.03993085 119.57891555 -661.125 107.25 C-659.06196948 105.60483171 -656.99947883 103.95898623 -654.9375 102.3125 C-603.13083586 62.28800649 -534.24496038 42.47893786 -469.125 45.25 C-467.62356445 45.31380859 -467.62356445 45.31380859 -466.09179688 45.37890625 C-431.63918584 47.05115495 -394.85105122 53.6678543 -363.20703125 67.9609375 C-343.19709318 76.33011312 -310.58015866 69.74682508 -290.125 66.25 C-289.44348877 66.1335614 -288.76197754 66.0171228 -288.05981445 65.89715576 C-244.85846109 58.42909086 -203.15290301 45.56874488 -162.375 29.625 C-131.89799679 17.71575951 -101.40336545 8.80320641 -68.9375 4 C-67.91946289 3.84869629 -66.90142578 3.69739258 -65.85253906 3.54150391 C-43.95737346 0.53355272 -22.07448812 -0.09092873 0 0 Z " fill="#FDB343" transform="translate(804.125,50.75)"/>
<path d="M0 0 C0.92278244 -0.00701431 1.84556488 -0.01402863 2.79631042 -0.02125549 C5.75618429 -0.03865636 8.71585812 -0.04510733 11.67578125 -0.046875 C13.19235321 -0.04788712 13.19235321 -0.04788712 14.73956299 -0.04891968 C29.35841452 -0.03339765 43.61133648 0.31849217 57.98828125 3.203125 C58.97957031 3.39600098 59.97085937 3.58887695 60.9921875 3.78759766 C70.84892304 5.73421132 80.51201131 7.82682313 89.98828125 11.203125 C89.32828125 12.523125 88.66828125 13.843125 87.98828125 15.203125 C88.97828125 15.533125 89.96828125 15.863125 90.98828125 16.203125 C94.45328125 12.243125 94.45328125 12.243125 97.98828125 8.203125 C99.63828125 8.533125 101.28828125 8.863125 102.98828125 9.203125 C102.98828125 14.24562928 101.58578493 15.98218153 98.98828125 20.203125 C142.05022277 37.18671454 180.17929492 38.08367664 225.46722412 32.43292236 C237.72972108 30.90602546 249.99058108 29.53353535 262.30078125 28.453125 C264.24271362 28.28018921 264.24271362 28.28018921 266.22387695 28.10375977 C270.14345164 27.77242565 274.06404392 27.47246518 277.98828125 27.203125 C278.68385132 27.15506714 279.37942139 27.10700928 280.09606934 27.05749512 C296.74924408 25.95745013 313.43122157 25.9577538 330.11328125 25.953125 C330.84455105 25.95268314 331.57582085 25.95224129 332.32925034 25.95178604 C354.33007838 25.9448271 376.16337682 26.09172955 397.98828125 29.203125 C399.23561035 29.38004883 400.48293945 29.55697266 401.76806641 29.73925781 C459.76427951 38.29353303 459.76427951 38.29353303 475.98828125 51.203125 C468.59451002 50.67548013 461.28321105 49.87515229 453.94335938 48.8449707 C434.37659887 46.11547466 414.7587014 44.61173267 395.04974365 43.33917236 C392.33686127 43.16013417 389.62566305 42.95910767 386.9140625 42.76171875 C336.1447687 39.45057458 282.21769208 43.50051851 233.98828125 60.203125 C235.37164673 60.12457275 235.37164673 60.12457275 236.78295898 60.04443359 C240.24454252 59.87275609 243.70154069 59.74811957 247.16577148 59.65380859 C248.65706211 59.603868 250.14787171 59.53587884 251.63745117 59.44873047 C263.98590384 58.74499699 263.98590384 58.74499699 268.96142578 62.36816406 C271.2367617 64.87645864 273.15789491 67.358243 274.98828125 70.203125 C275.64828125 71.193125 276.30828125 72.183125 276.98828125 73.203125 C276.8756197 75.84405541 276.64206426 78.32384975 276.28515625 80.93359375 C276.07979866 82.56946364 275.87473497 84.20537044 275.66992188 85.84130859 C275.55720947 86.7122113 275.44449707 87.58311401 275.32836914 88.48040771 C274.98314007 91.24428493 274.67856662 94.00999612 274.38476562 96.77978516 C273.85988632 101.69585159 273.25678814 106.59804908 272.61572266 111.50024414 C272.36330787 113.51678684 272.13327802 115.53625308 271.92529297 117.55786133 C270.62111363 130.06649328 268.88872482 138.39926034 258.92755127 146.64875793 C254.76001189 149.8595777 252.27797121 151.30834875 247.08984375 151.51953125 C246.06608643 151.56215088 245.0423291 151.60477051 243.98754883 151.64868164 C239.25988427 151.81253023 234.53197875 151.95738159 229.80322266 152.0859375 C225.96038484 152.20398192 222.12202766 152.37537256 218.28125 152.546875 C215.78784215 152.62253504 213.29435162 152.69552529 210.80078125 152.765625 C209.62660645 152.82886963 208.45243164 152.89211426 207.24267578 152.95727539 C199.13802618 153.10744874 199.13802618 153.10744874 195.67333984 150.38232422 C193.94957882 148.39774533 192.46578365 146.37239359 190.98828125 144.203125 C190.65828125 144.203125 190.32828125 144.203125 189.98828125 144.203125 C189.32828125 147.173125 188.66828125 150.143125 187.98828125 153.203125 C178.12147581 153.46544414 168.25463361 153.72633101 158.387743 153.98542786 C153.80535164 154.10580209 149.22297399 154.22665551 144.640625 154.34863281 C140.21213592 154.46649641 135.78361439 154.58306369 131.35506821 154.69876099 C129.67192256 154.74295616 127.98878878 154.78760551 126.30566788 154.83273315 C117.86519567 155.05875196 109.43272424 155.26254061 100.98828125 155.203125 C100.65019439 153.14139887 100.31800764 151.0787047 99.98828125 149.015625 C99.80265625 147.86707031 99.61703125 146.71851563 99.42578125 145.53515625 C98.98828125 142.203125 98.98828125 142.203125 98.98828125 137.203125 C88.75828125 137.863125 78.52828125 138.523125 67.98828125 139.203125 C65.67828125 144.813125 63.36828125 150.423125 60.98828125 156.203125 C47.62328125 156.698125 47.62328125 156.698125 33.98828125 157.203125 C37.35947703 147.08953765 37.35947703 147.08953765 39.4921875 142.421875 C39.97679443 141.35259766 40.46140137 140.28332031 40.96069336 139.18164062 C41.48542236 138.03373047 42.01015137 136.88582031 42.55078125 135.703125 C43.71269624 133.14200523 44.87041246 130.57899938 46.02734375 128.015625 C46.49136848 126.98846375 46.49136848 126.98846375 46.96476746 125.94055176 C51.58881686 115.68218578 56.07839877 105.36386277 60.58377075 95.05297852 C64.95271542 85.05487316 69.35764838 75.08359679 73.98828125 65.203125 C86.67226897 64.34527076 99.2766904 64.08370504 111.98828125 64.203125 C114.01671099 72.51642841 115.18352262 80.92988751 116.37109375 89.39453125 C116.56730763 90.77539535 116.76384014 92.15621421 116.96069336 93.5369873 C117.68206943 98.61265464 118.39731672 103.6891915 119.11328125 108.765625 C121.52640625 125.8121875 121.52640625 125.8121875 123.98828125 143.203125 C127.94828125 116.803125 131.90828125 90.403125 135.98828125 63.203125 C137.30828125 63.203125 138.62828125 63.203125 139.98828125 63.203125 C133.11849422 53.6335384 122.77400706 48.18015158 112.96484375 42.07421875 C111.69398926 41.27999512 111.69398926 41.27999512 110.39746094 40.46972656 C108.74394241 39.4393838 107.08591044 38.41623905 105.42285156 37.40136719 C101.99665268 35.27749928 98.86344973 33.26212493 96.05859375 30.34765625 C95.37539063 29.63996094 94.6921875 28.93226563 93.98828125 28.203125 C93.32828125 28.203125 92.66828125 28.203125 91.98828125 28.203125 C90.6353947 29.79785269 90.6353947 29.79785269 89.30078125 31.90234375 C88.77218506 32.6927002 88.24358887 33.48305664 87.69897461 34.29736328 C86.8521814 35.58102783 86.8521814 35.58102783 85.98828125 36.890625 C81.37300241 43.76996689 76.61420881 50.39821178 71.50390625 56.91796875 C68.06542761 61.35229837 64.87671819 65.96286441 61.65771484 70.55737305 C56.38975282 78.07430456 51.01083891 85.50869269 45.625 92.94140625 C44.00319061 95.18252233 42.38562993 97.42663815 40.76953125 99.671875 C34.5189515 108.35176078 28.22325287 116.99472865 21.83227539 125.57202148 C18.04791332 130.67579476 14.46523144 135.885298 10.98828125 141.203125 C4.67900028 140.58182271 -0.97379444 138.70322874 -6.94921875 136.640625 C-7.91923828 136.31126953 -8.88925781 135.98191406 -9.88867188 135.64257812 C-12.26494259 134.8348802 -14.63914844 134.02161552 -17.01171875 133.203125 C-16.20301145 129.28738677 -14.81544634 127.71307846 -11.88671875 124.953125 C-8.93812103 122.10700619 -6.11081319 119.25708778 -3.44921875 116.140625 C-1.07440273 113.3709204 1.38845942 110.76302634 3.98828125 108.203125 C6.56753185 105.66340314 9.01045514 103.07861186 11.36328125 100.328125 C14.10449574 97.13629991 16.99514013 94.16009523 19.98828125 91.203125 C22.9401115 88.28685897 25.79216984 85.35706665 28.48828125 82.203125 C31.97280232 78.12689281 35.76910106 74.40761627 39.58203125 70.640625 C41.6427747 68.55311865 43.58343751 66.43143277 45.48828125 64.203125 C48.97160667 60.1282915 52.76646833 56.41019508 56.578125 52.64453125 C59.25682657 49.93109773 61.73436243 47.09535477 64.2109375 44.19921875 C66.93195017 41.14331222 69.86916291 38.31380561 72.78125 35.44140625 C75.4784751 32.70599035 77.9902652 29.84472898 80.4765625 26.91796875 C81.98828125 25.203125 81.98828125 25.203125 84.48828125 22.953125 C85.23078125 22.086875 85.23078125 22.086875 85.98828125 21.203125 C85.85186748 18.98454247 85.85186748 18.98454247 84.98828125 17.203125 C84.43462891 17.5539917 83.88097656 17.9048584 83.31054688 18.26635742 C80.3226381 19.47163559 78.92050759 19.02523951 75.83203125 18.19140625 C74.81923096 17.92932373 73.80643066 17.66724121 72.76293945 17.3972168 C71.14198364 16.96082886 71.14198364 16.96082886 69.48828125 16.515625 C61.46192597 14.47205706 53.49923409 12.59298908 45.30078125 11.390625 C44.19283203 11.22397339 44.19283203 11.22397339 43.0625 11.05395508 C19.38619974 7.75715576 -5.34090244 8.01155426 -29.01171875 11.203125 C-29.77838867 11.30496094 -30.54505859 11.40679687 -31.33496094 11.51171875 C-43.13396175 13.13916714 -54.60035418 15.80810442 -66.01171875 19.203125 C-66.77613281 19.42919434 -67.54054688 19.65526367 -68.328125 19.88818359 C-97.62111789 28.79132039 -124.23018577 43.84582063 -147.01171875 64.203125 C-147.92566406 64.99589844 -148.83960938 65.78867188 -149.78125 66.60546875 C-154.97727365 71.16270089 -159.58050646 75.91130537 -164.01171875 81.203125 C-165.22601563 82.56824219 -165.22601563 82.56824219 -166.46484375 83.9609375 C-189.42934153 109.94587041 -205.67700083 143.06232945 -212.01171875 177.203125 C-212.34171875 177.203125 -212.67171875 177.203125 -213.01171875 177.203125 C-212.56294993 169.51819171 -211.32395781 162.45391551 -209.13671875 155.078125 C-208.67978638 153.53656738 -208.67978638 153.53656738 -208.21362305 151.96386719 C-199.2795622 123.0328569 -184.21444586 97.96996189 -164.5546875 75.15625 C-163.10411124 73.47170983 -161.66264508 71.7789734 -160.25 70.0625 C-124.54740883 27.25536298 -66.63817331 5.68984975 -12.66181946 0.4135437 C-8.44109335 0.07841693 -4.23241646 0.02164063 0 0 Z M186.80078125 80.078125 C186.09115234 80.47942627 185.38152344 80.88072754 184.65039062 81.29418945 C177.742129 85.25542583 171.11160582 89.57675472 164.57275391 94.11767578 C163.18268368 95.06994885 161.7651202 95.98182871 160.34375 96.88671875 C159.62832031 97.36238281 158.91289062 97.83804688 158.17578125 98.328125 C157.29986328 98.88886719 157.29986328 98.88886719 156.40625 99.4609375 C152.25753338 104.55825875 152.23502068 113.62856646 151.36328125 119.953125 C151.22921875 120.88511719 151.09515625 121.81710938 150.95703125 122.77734375 C150.41190178 126.65443804 149.98828125 130.27578082 149.98828125 134.203125 C153.50909574 134.23295075 157.0298766 134.25019211 160.55078125 134.265625 C161.52208984 134.27400391 162.49339844 134.28238281 163.49414062 134.29101562 C171.69929603 134.31774252 179.81053564 133.82581024 187.98828125 133.203125 C189.13175054 125.72898135 190.27060907 118.25414568 191.40625 110.77880859 C191.79320599 108.23535209 192.18122101 105.69205648 192.5703125 103.14892578 C193.12908325 99.4955344 193.68405506 95.8415832 194.23828125 92.1875 C194.41327148 91.04883484 194.58826172 89.91016968 194.76855469 88.73699951 C194.9287207 87.67620178 195.08888672 86.61540405 195.25390625 85.52246094 C195.39602539 84.58980408 195.53814453 83.65714722 195.68457031 82.69622803 C196.0688989 79.95993969 196.0688989 79.95993969 195.98828125 76.203125 C192.54840935 76.203125 189.73260577 78.41403294 186.80078125 80.078125 Z M218.98828125 83.203125 C217.88599126 86.17574593 217.88599126 86.17574593 217.4765625 89.55859375 C217.27667725 90.81365723 217.07679199 92.0687207 216.87084961 93.36181641 C216.67969026 94.70459129 216.48968721 96.04753125 216.30078125 97.390625 C216.09576907 98.75458854 215.88946655 100.11835875 215.68188477 101.48193359 C215.27797288 104.1647316 214.88821647 106.84900281 214.51074219 109.53564453 C214.06875605 112.63822199 213.59030624 115.73071332 213.08984375 118.82421875 C212.86590694 120.32513777 212.64427875 121.8264045 212.42578125 123.328125 C212.23886719 124.58882812 212.05195312 125.84953125 211.859375 127.1484375 C211.69907172 130.25164777 211.69907172 130.25164777 213.63891602 132.37451172 C216.58156203 134.66490127 218.01824241 134.65339046 221.70703125 134.515625 C223.35251953 134.45568359 223.35251953 134.45568359 225.03125 134.39453125 C226.17207031 134.33136719 227.31289063 134.26820313 228.48828125 134.203125 C230.19951172 134.15478516 230.19951172 134.15478516 231.9453125 134.10546875 C238.05658625 134.06665786 238.05658625 134.06665786 243.2890625 131.35595703 C245.65410175 128.35956104 245.91918926 125.8446154 246.48828125 122.078125 C246.60010742 121.36108398 246.71193359 120.64404297 246.82714844 119.90527344 C247.07951592 118.27672511 247.32480744 116.64707049 247.56445312 115.01660156 C248.04433222 111.83104469 248.56964282 108.65448738 249.09765625 105.4765625 C249.47877169 103.13556416 249.85898196 100.79441828 250.23828125 98.453125 C250.42583984 97.32245605 250.61339844 96.19178711 250.80664062 95.02685547 C250.97486328 93.95580566 251.14308594 92.88475586 251.31640625 91.78125 C251.47012695 90.82637695 251.62384766 89.87150391 251.78222656 88.88769531 C251.99926047 86.06008295 251.7844499 83.92035652 250.98828125 81.203125 C247.35871114 77.57355489 241.58196695 78.83360984 236.67578125 78.828125 C235.53431641 78.80363281 234.39285156 78.77914062 233.21679688 78.75390625 C232.11400391 78.75003906 231.01121094 78.74617188 229.875 78.7421875 C228.86655029 78.73396973 227.85810059 78.72575195 226.8190918 78.71728516 C223.12776537 79.35081164 221.54667239 80.48174863 218.98828125 83.203125 Z M88.98828125 83.203125 C86.99228146 88.16847783 84.99851052 93.13471733 83.00683594 98.10180664 C82.32841813 99.79281018 81.64938271 101.48356607 80.96972656 103.17407227 C79.99513384 105.59847822 79.02273716 108.02375469 78.05078125 110.44921875 C77.59143188 111.58985023 77.59143188 111.58985023 77.12280273 112.75352478 C75.6403015 115.88641855 75.6403015 115.88641855 74.98828125 119.203125 C82.24828125 119.203125 89.50828125 119.203125 96.98828125 119.203125 C96.4668372 111.12074222 95.81843007 103.07145688 94.98828125 95.015625 C94.90529785 94.19022217 94.82231445 93.36481934 94.73681641 92.5144043 C94.39376273 89.26483006 94.02492284 86.31304977 92.98828125 83.203125 C91.66828125 83.203125 90.34828125 83.203125 88.98828125 83.203125 Z " fill="#000B40" transform="translate(349.01171875,119.796875)"/>
<path d="M0 0 C-0.14284092 2.02104705 -0.28942383 4.04182977 -0.4375 6.0625 C-0.51871094 7.18785156 -0.59992188 8.31320313 -0.68359375 9.47265625 C-1.00060261 13.00671795 -1.48601518 16.48990435 -2 20 C-3.38952881 20.03758423 -3.38952881 20.03758423 -4.80712891 20.07592773 C-8.31485474 20.17228422 -11.82248088 20.27142227 -15.33007812 20.37231445 C-16.83493072 20.41505867 -18.33981332 20.45676191 -19.84472656 20.49731445 C-24.89785592 20.6339311 -29.94889847 20.80227683 -35 21 C-36.02957825 21.03688934 -36.02957825 21.03688934 -37.07995605 21.07452393 C-39.02013479 21.14956913 -40.9593629 21.24808215 -42.8984375 21.34765625 C-44.56011963 21.42705444 -44.56011963 21.42705444 -46.25537109 21.50805664 C-49.25768894 22.0461878 -50.22566012 22.5689556 -52 25 C-52.80868596 27.74084839 -52.86201887 30.10239636 -53 33 C-51.05697591 35.39861651 -51.05697591 35.39861651 -47.48754883 35.1159668 C-45.9771114 35.06812048 -44.46692388 35.01194626 -42.95703125 34.94921875 C-41.30928094 34.90928665 -39.66149194 34.87092581 -38.01367188 34.83398438 C-35.41681404 34.76612949 -32.82191161 34.68788471 -30.22631836 34.58178711 C-15.82845236 34.02215274 -15.82845236 34.02215274 -11.43896484 36.36962891 C-9.64669535 38.13470601 -8.36622186 39.89603997 -7 42 C-6.49114258 42.45536133 -5.98228516 42.91072266 -5.45800781 43.37988281 C-3.99609375 44.69140625 -3.99609375 44.69140625 -2 48 C-1.78697986 52.07334219 -2.39819997 55.92493314 -3.0625 59.9375 C-3.21138672 60.99646484 -3.36027344 62.05542969 -3.51367188 63.14648438 C-5.79802329 78.72867724 -5.79802329 78.72867724 -10.75 82.625 C-11.81734375 83.48351562 -11.81734375 83.48351562 -12.90625 84.359375 C-13.5971875 84.90078125 -14.288125 85.4421875 -15 86 C-16.08483792 86.9566298 -17.16835369 87.91476297 -18.25 88.875 C-22.864644 92.44086127 -27.32036245 92.18933302 -33 92.31640625 C-34.17724136 92.34764587 -34.17724136 92.34764587 -35.37826538 92.3795166 C-37.91874912 92.44530546 -40.45933407 92.50420756 -43 92.5625 C-44.73258698 92.60529274 -46.46517162 92.64818014 -48.19775391 92.69116211 C-59.79943393 92.96973874 -71.39491045 93.13424911 -83 93 C-82.69277348 90.02020106 -82.37948528 87.04126241 -82.0625 84.0625 C-81.97548828 83.21236328 -81.88847656 82.36222656 -81.79882812 81.48632812 C-81.66831055 80.27299805 -81.66831055 80.27299805 -81.53515625 79.03515625 C-81.456604 78.2862915 -81.37805176 77.53742676 -81.29711914 76.76586914 C-81 75 -81 75 -80 74 C-74.03771416 72.94197281 -67.98700382 72.85677881 -61.94921875 72.82421875 C-60.26496098 72.80105506 -58.58071609 72.77693923 -56.89648438 72.75195312 C-54.27847136 72.71667791 -51.66094804 72.68736519 -49.04272461 72.67407227 C-46.49014987 72.65862804 -43.93893463 72.61849739 -41.38671875 72.57421875 C-40.60439377 72.57612717 -39.82206879 72.57803558 -39.01603699 72.58000183 C-35.44277756 72.49943936 -33.39867897 72.30443149 -30.51831055 70.10498047 C-28.81863767 67.74855989 -28.36834345 66.31381954 -28.125 63.4375 C-28.04507812 62.67308594 -27.96515625 61.90867188 -27.8828125 61.12109375 C-27.83675549 58.69458119 -27.83675549 58.69458119 -30 56 C-32.78562442 55.89436024 -35.35363595 55.96604898 -38.12109375 56.1640625 C-39.79609247 56.23619386 -41.47123275 56.30509654 -43.14648438 56.37109375 C-45.7831244 56.48784354 -48.41243572 56.6231646 -51.04467773 56.81591797 C-65.15597224 57.80201165 -65.15597224 57.80201165 -69.92007446 54.78341675 C-74.47934964 50.80741499 -78.56300242 45.98541048 -79.45678711 39.87939453 C-79.29894117 37.07128581 -78.74335068 34.71594955 -78 32 C-77.3054564 28.67216394 -76.65260247 25.3362927 -76 22 C-76.89605957 22.03029297 -77.79211914 22.06058594 -78.71533203 22.09179688 C-82.11110864 22.20547035 -85.50694228 22.31702402 -88.90283203 22.42724609 C-90.35923931 22.47492895 -91.81562095 22.52340289 -93.27197266 22.57275391 C-102.85329025 22.89675982 -112.41196342 23.06825575 -122 23 C-122.10066772 24.33744263 -122.10066772 24.33744263 -122.20336914 25.7019043 C-122.875 34.625 -122.875 34.625 -124 38 C-110.47 37.67 -96.94 37.34 -83 37 C-85 54 -85 54 -86 56 C-99.53 56.33 -113.06 56.66 -127 57 C-127.66 62.94 -128.32 68.88 -129 75 C-127.68 74.67 -126.36 74.34 -125 74 C-123.5966353 73.89102621 -122.18948751 73.82508152 -120.78222656 73.79467773 C-119.96167786 73.77473251 -119.14112915 73.75478729 -118.29571533 73.73423767 C-117.41953552 73.71752518 -116.54335571 73.70081268 -115.640625 73.68359375 C-114.73624695 73.66281265 -113.8318689 73.64203156 -112.90008545 73.62062073 C-110.01679945 73.5553406 -107.1334239 73.49634048 -104.25 73.4375 C-102.29295956 73.39429429 -100.33592812 73.35067935 -98.37890625 73.30664062 C-93.5860288 73.19968128 -88.79306146 73.09835327 -84 73 C-84.30784377 75.95888673 -84.62105574 78.91703167 -84.9375 81.875 C-85.06801758 83.13763672 -85.06801758 83.13763672 -85.20117188 84.42578125 C-85.33168945 85.63427734 -85.33168945 85.63427734 -85.46484375 86.8671875 C-85.543396 87.61081543 -85.62194824 88.35444336 -85.70288086 89.12060547 C-86 91 -86 91 -87 93 C-102.24677201 93.87433994 -117.48177876 94.28626944 -132.75 94.5625 C-135.01953663 94.60583903 -137.28906794 94.64945729 -139.55859375 94.69335938 C-145.03900681 94.79877944 -150.51947703 94.90046469 -156 95 C-156 91.37 -156 87.74 -156 84 C-157.051875 85.0725 -158.10375 86.145 -159.1875 87.25 C-159.83589844 87.88679688 -160.48429688 88.52359375 -161.15234375 89.1796875 C-162.54486671 90.5516023 -163.90559195 91.95590261 -165.25 93.375 C-169.56639169 95.92559509 -174.05392766 95.69201024 -179 96 C-179.69816833 96.04390869 -180.39633667 96.08781738 -181.11566162 96.13305664 C-186.05731293 96.42931458 -190.9940069 96.61896189 -195.94311523 96.73461914 C-197.69200583 96.78661803 -199.44035621 96.86190034 -201.18725586 96.96020508 C-216.15827848 97.78297357 -216.15827848 97.78297357 -221.47607422 93.76318359 C-225.3503391 90.09166977 -227.67258596 86.19086961 -228.47314453 80.83398438 C-228.329834 77.85348258 -227.96045514 75.0247863 -227.39141846 72.09710693 C-226.9571232 69.77027853 -226.63035562 67.44218003 -226.31591797 65.09619141 C-225.58188259 59.6589554 -224.76419796 54.23630571 -223.9375 48.8125 C-223.51441197 46.01318389 -223.0928697 43.21365081 -222.67372131 40.41374207 C-222.41473717 38.68607445 -222.15331661 36.95876983 -221.8891449 35.23188782 C-221.42088397 32.12567293 -221 29.14635 -221 26 C-235.85 26.33 -250.7 26.66 -266 27 C-266.66 31.95 -267.32 36.9 -268 42 C-254.8 41.67 -241.6 41.34 -228 41 C-229 55 -229 55 -230 60 C-231.09989258 60.02505615 -232.19978516 60.0501123 -233.33300781 60.07592773 C-237.41824765 60.17018206 -241.50332461 60.27035865 -245.58837891 60.37231445 C-247.35559272 60.41559514 -249.1228465 60.45727505 -250.89013672 60.49731445 C-253.4320886 60.55518351 -255.97384059 60.61882981 -258.515625 60.68359375 C-259.69865204 60.70866249 -259.69865204 60.70866249 -260.90557861 60.73423767 C-264.47571118 60.83040294 -267.51394061 61.12848515 -271 62 C-271.99 67.61 -272.98 73.22 -274 79 C-272.02 78.505 -272.02 78.505 -270 78 C-268.5966353 77.89102621 -267.18948751 77.82508152 -265.78222656 77.79467773 C-264.96167786 77.77473251 -264.14112915 77.75478729 -263.29571533 77.73423767 C-262.41953552 77.71752518 -261.54335571 77.70081268 -260.640625 77.68359375 C-259.73624695 77.66281265 -258.8318689 77.64203156 -257.90008545 77.62062073 C-255.01679945 77.5553406 -252.1334239 77.49634048 -249.25 77.4375 C-247.29295956 77.39429429 -245.33592812 77.35067935 -243.37890625 77.30664062 C-238.5860288 77.19968128 -233.79306146 77.09835327 -229 77 C-228.95018703 83.89909632 -229.76521363 90.20867494 -231 97 C-246.60160303 97.84212905 -262.19160537 98.27877851 -277.8125 98.5625 C-280.07747917 98.60584811 -282.34245319 98.64946653 -284.60742188 98.69335938 C-290.07155934 98.79867499 -295.53574992 98.90070821 -301 99 C-298.77211532 81.19291763 -296.20660658 63.44234458 -293.55615234 45.69433594 C-292.97916486 41.82939117 -292.40804929 37.96360125 -291.83820915 34.09759712 C-291.3949538 31.0964658 -290.94796556 28.09589953 -290.49988174 25.09548569 C-290.28722905 23.66747711 -290.0759224 22.2392674 -289.8659935 20.81085587 C-289.57588031 18.83963124 -289.28003784 16.86925233 -288.98388672 14.89892578 C-288.81750702 13.7802713 -288.65112732 12.66161682 -288.47970581 11.50906372 C-288 9 -288 9 -287 8 C-284.70226961 7.7621012 -282.43403399 7.59508962 -280.12890625 7.47265625 C-279.01546593 7.41066795 -279.01546593 7.41066795 -277.87953186 7.34742737 C-266.24245216 6.75220369 -254.58649933 6.63304675 -242.9375 6.4375 C-240.50975996 6.39419673 -238.0820255 6.3505792 -235.65429688 6.30664062 C-229.76958927 6.20080877 -223.88482277 6.09921287 -218 6 C-218.33 10.29 -218.66 14.58 -219 19 C-217.7315625 17.73542969 -217.7315625 17.73542969 -216.4375 16.4453125 C-215.29241309 15.33776942 -214.14653733 14.23104153 -213 13.125 C-212.44699219 12.56941406 -211.89398437 12.01382813 -211.32421875 11.44140625 C-210.48310547 10.63896484 -210.48310547 10.63896484 -209.625 9.8203125 C-208.87089844 9.08192139 -208.87089844 9.08192139 -208.1015625 8.32861328 C-200.26001298 3.37116527 -188.94309875 4.17483337 -180.00146484 3.81762695 C-178.08620145 3.73098331 -176.17184969 3.62099548 -174.25927734 3.48754883 C-157.4345334 2.32378195 -157.4345334 2.32378195 -152.48730469 6.47509766 C-149.94965726 9.06414756 -147.9617437 11.9536772 -146 15 C-145.67 15 -145.34 15 -145 15 C-144.34 11.37 -143.68 7.74 -143 4 C-131.77135707 3.2666017 -120.55523646 2.77259415 -109.30615234 2.49731445 C-106.86935891 2.43736121 -104.43273931 2.37230459 -101.99609375 2.30664062 C-92.32809262 2.05487357 -82.6713486 1.94317339 -73 2 C-73.33 5.96 -73.66 9.92 -74 14 C-72.98679687 13.07767578 -72.98679687 13.07767578 -71.953125 12.13671875 C-71.06109375 11.32847656 -70.1690625 10.52023438 -69.25 9.6875 C-68.36828125 8.88699219 -67.4865625 8.08648437 -66.578125 7.26171875 C-65.72734375 6.51535156 -64.8765625 5.76898438 -64 5 C-63.43168457 4.47180664 -62.86336914 3.94361328 -62.27783203 3.39941406 C-59.13657207 1.46954245 -56.64985186 1.5017852 -52.9765625 1.34765625 C-52.28035797 1.31535416 -51.58415344 1.28305206 -50.86685181 1.24977112 C-48.57821516 1.14954289 -46.28967493 1.07246859 -44 1 C-43.21782104 0.97282898 -42.43564209 0.94565796 -41.62976074 0.91766357 C-36.71616962 0.74936252 -31.80226838 0.61433972 -26.88720703 0.49731445 C-24.34269062 0.43673073 -21.79830314 0.37203741 -19.25390625 0.30664062 C-17.61458915 0.26539334 -15.97526641 0.22436931 -14.3359375 0.18359375 C-13.21087296 0.15548866 -13.21087296 0.15548866 -12.06307983 0.1268158 C-8.04104041 0.03151019 -4.02314135 -0.01862199 0 0 Z M-195 26 C-197.52718256 29.79077384 -197.87312354 33.41962941 -198.5078125 37.83203125 C-198.63815887 38.70139816 -198.76850525 39.57076508 -198.90280151 40.46647644 C-199.17693299 42.30597351 -199.44735821 44.14602615 -199.71435547 45.98657227 C-200.12210897 48.79260481 -200.54250148 51.59652091 -200.96484375 54.40039062 C-201.22992172 56.18999249 -201.49426845 57.97970285 -201.7578125 59.76953125 C-201.88278107 60.60410355 -202.00774963 61.43867584 -202.13650513 62.29853821 C-203.61282639 69.82006179 -203.61282639 69.82006179 -201.8515625 76.859375 C-197.83846283 79.33157986 -192.54356661 78.22548718 -188 78 C-187.12601563 77.9690625 -186.25203125 77.938125 -185.3515625 77.90625 C-181.88676591 77.67603096 -179.53308405 77.30652333 -176.5 75.5625 C-174.2030771 72.04688659 -174.2030771 72.04688659 -174 63 C-166.41 62.67 -158.82 62.34 -151 62 C-150.505 58.803125 -150.01 55.60625 -149.5 52.3125 C-149.34337891 51.31387939 -149.18675781 50.31525879 -149.02539062 49.28637695 C-148.90357422 48.48675537 -148.78175781 47.68713379 -148.65625 46.86328125 C-148.53056641 46.05157471 -148.40488281 45.23986816 -148.27539062 44.40356445 C-147.90514067 41.57529818 -147.90514067 41.57529818 -148 37 C-158.89 36.505 -158.89 36.505 -170 36 C-169.67 33.03 -169.34 30.06 -169 27 C-169.73367148 24.33487544 -169.73367148 24.33487544 -172 23 C-174.74225185 22.61644715 -177.01904802 22.48525592 -179.75 22.5625 C-180.4409375 22.55541016 -181.131875 22.54832031 -181.84375 22.54101562 C-186.89451202 22.60272606 -190.53398175 23.61550533 -195 26 Z " fill="#FEFEFE" transform="translate(1054,168)"/>
<path d="M0 0 C22.55308817 -1.40612559 22.55308817 -1.40612559 28.18608093 2.72573853 C31.99903792 6.53622958 33.96833608 10.31971887 34.2297821 15.76089478 C34.08311919 25.20944358 32.33813963 34.65374766 31.03153992 43.99380493 C30.67906778 46.55040714 30.33887487 49.10873255 30.0110321 51.66860962 C29.53480209 55.38344243 29.02088538 59.09135568 28.49858093 62.79995728 C28.29028908 64.50496399 28.29028908 64.50496399 28.07778931 66.24441528 C26.93598073 73.93133728 24.66954412 78.0204644 19.06498718 83.33120728 C18.38476501 84.15491821 17.70454285 84.97862915 17.00370789 85.82730103 C12.57008975 90.54257873 8.62705151 92.03809402 2.23295593 92.33120728 C-0.76294249 92.40296381 -3.75137079 92.37527864 -6.74751282 92.33120728 C-8.32157153 92.33128889 -9.89563262 92.33423461 -11.46968079 92.33999634 C-13.80753689 92.34598898 -16.14469177 92.34698726 -18.48249817 92.32955933 C-22.79962142 92.29905829 -27.05275717 92.41817691 -31.36079407 92.75308228 C-43.2394511 93.58592295 -43.2394511 93.58592295 -48.06001282 90.01870728 C-50.4413881 87.22059131 -52.23722384 84.58151986 -53.93501282 81.33120728 C-54.30528091 80.72447174 -54.67554901 80.11773621 -55.05703735 79.49261475 C-56.19639002 76.68774664 -55.89711257 74.93578892 -55.44355774 71.95181274 C-55.28646835 70.87744965 -55.12937897 69.80308655 -54.9675293 68.69616699 C-54.69426567 66.96476974 -54.69426567 66.96476974 -54.41548157 65.19839478 C-54.23745499 64.01021149 -54.05942841 62.8220282 -53.87600708 61.59783936 C-53.49751881 59.08700496 -53.11297687 56.57707676 -52.72285461 54.06802368 C-52.12405922 50.21615483 -51.54253585 46.36199352 -50.96430969 42.50698853 C-50.59486819 40.07063858 -50.22445845 37.63443521 -49.85298157 35.19839478 C-49.67687851 34.04008148 -49.50077545 32.88176819 -49.31933594 31.68835449 C-49.15279007 30.62029572 -48.9862442 29.55223694 -48.81465149 28.45181274 C-48.59575508 27.03761551 -48.59575508 27.03761551 -48.37243652 25.59484863 C-47.93501282 23.33120728 -47.93501282 23.33120728 -46.93501282 21.33120728 C-57.33001282 21.82620728 -57.33001282 21.82620728 -67.93501282 22.33120728 C-68.06263 24.20929077 -68.19024719 26.08737427 -68.32173157 28.02236938 C-68.8468116 34.82490309 -69.72701579 41.52892974 -70.74751282 48.27261353 C-70.92129456 49.44331894 -71.09507629 50.61402435 -71.27412415 51.82020569 C-71.6384309 54.26828534 -72.00490784 56.71604297 -72.37348938 59.16348267 C-72.93815957 62.91461131 -73.4957169 66.66674686 -74.05220032 70.4190979 C-74.4085596 72.80783121 -74.76531609 75.1965053 -75.12251282 77.58511353 C-75.28920471 78.70487076 -75.45589661 79.82462799 -75.62763977 80.97831726 C-75.86293396 82.536605 -75.86293396 82.536605 -76.10298157 84.12637329 C-76.23986389 85.03758438 -76.37674622 85.94879547 -76.51777649 86.88761902 C-76.88792738 89.05544648 -77.40162809 91.19766835 -77.93501282 93.33120728 C-85.85501282 93.66120728 -93.77501282 93.99120728 -101.93501282 94.33120728 C-100.81001282 81.95620728 -100.81001282 81.95620728 -99.99531555 76.4828186 C-99.81520432 75.26238358 -99.63509308 74.04194855 -99.44952393 72.78453064 C-99.2578212 71.50700424 -99.06611847 70.22947784 -98.86860657 68.91323853 C-98.66798475 67.56136494 -98.46763676 66.2094507 -98.26754761 64.85749817 C-97.7458447 61.33746201 -97.22047951 57.81798241 -96.69429016 54.2986145 C-96.15573582 50.69197571 -95.6207291 47.08481082 -95.08540344 43.47769165 C-94.03870035 36.42835134 -92.98811859 29.37959418 -91.93501282 22.33120728 C-94.87232971 22.7170639 -94.87232971 22.7170639 -97.80964661 23.10292053 C-101.02241348 23.44800557 -104.20656259 23.42475007 -107.43501282 23.39370728 C-108.66220032 23.38468384 -109.88938782 23.3756604 -111.15376282 23.36636353 C-112.07157532 23.35476196 -112.98938782 23.3431604 -113.93501282 23.33120728 C-114.0935675 24.59706665 -114.25212219 25.86292603 -114.41548157 27.16714478 C-114.91359623 31.11012335 -115.43759309 35.04899586 -115.97016907 38.98745728 C-116.59120697 43.60198038 -117.1553646 48.21823277 -117.67221069 52.84521484 C-118.0190153 55.88230502 -118.39898268 58.91478345 -118.78404236 61.94723511 C-118.96641324 63.44004256 -119.13527141 64.93456978 -119.2898407 66.43051147 C-120.21131619 75.25738062 -121.4412735 81.54242586 -128.63496399 87.49917603 C-129.3939801 88.10374634 -130.15299622 88.70831665 -130.93501282 89.33120728 C-131.44201721 89.93835571 -131.94902161 90.54550415 -132.47138977 91.17105103 C-135.71512819 94.91766487 -138.73553104 95.67476969 -143.65037537 96.04013062 C-147.51719197 96.20765654 -151.37773595 96.21410559 -155.24751282 96.20620728 C-156.79767657 96.22437389 -158.34781165 96.24518887 -159.89790344 96.26870728 C-163.00299236 96.31132958 -166.10603632 96.3228963 -169.21138 96.31289673 C-172.44761599 96.3077118 -175.66762301 96.38909268 -178.90083313 96.5272522 C-179.70900986 96.55243927 -180.51718658 96.57762634 -181.34985352 96.60357666 C-182.88310982 96.65227653 -184.4159093 96.72160687 -185.947052 96.81567383 C-189.98188331 96.91310405 -192.36636125 96.37994596 -195.36592102 93.78189087 C-200.08846192 88.71912161 -202.25265541 85.18552888 -202.12171936 78.164505 C-201.71769537 72.03338474 -200.71181944 65.97051092 -199.78266907 59.90151978 C-199.5603644 58.41948784 -199.33856618 56.93737985 -199.11724854 55.4552002 C-198.65469701 52.36669521 -198.18783007 49.27888617 -197.71748352 46.19155884 C-197.11478356 42.23480036 -196.52029472 38.27686387 -195.92865849 34.31843758 C-195.47196501 31.26580754 -195.01235374 28.213623 -194.55171013 25.16158676 C-194.33144973 23.70162586 -194.11177622 22.2415763 -193.8927021 20.78143692 C-193.58673179 18.74697789 -193.27717004 16.71309884 -192.96650696 14.67935181 C-192.79107864 13.52291168 -192.61565033 12.36647156 -192.43490601 11.17498779 C-191.93501282 8.33120728 -191.93501282 8.33120728 -190.93501282 5.33120728 C-183.01501282 5.33120728 -175.09501282 5.33120728 -166.93501282 5.33120728 C-167.89462994 12.07161953 -168.85469747 18.81196464 -169.81587219 25.55215454 C-170.14197634 27.83987823 -170.467828 30.12763792 -170.79341125 32.41543579 C-171.26440848 35.72469696 -171.73616523 39.03384842 -172.20845032 42.34292603 C-172.36035324 43.40769165 -172.51225616 44.47245728 -172.66876221 45.56948853 C-173.59660633 52.04664036 -174.56004514 58.51536584 -175.60664368 64.97451782 C-176.21613191 69.3487854 -176.34799058 73.09227398 -174.93501282 77.33120728 C-170.85064001 77.2793706 -166.76838811 77.18430018 -162.68501282 77.08120728 C-161.52614563 77.06702759 -160.36727844 77.0528479 -159.17329407 77.03823853 C-158.058255 77.00601196 -156.94321594 76.9737854 -155.79438782 76.94058228 C-154.7679718 76.91963501 -153.74155579 76.89868774 -152.68403625 76.87710571 C-149.15942828 76.17719244 -148.17891056 75.11233244 -145.93501282 72.33120728 C-144.99112879 69.30074457 -144.99112879 69.30074457 -144.57881165 65.85025024 C-144.48229813 65.20914307 -144.38578461 64.56803589 -144.28634644 63.90750122 C-143.9726329 61.79808836 -143.68240464 59.68613736 -143.39204407 57.57339478 C-143.17750472 56.10393945 -142.96139177 54.63471309 -142.74377441 53.16571045 C-142.17571649 49.30513546 -141.62705647 45.44205783 -141.08302307 41.57803345 C-140.31161839 36.12473424 -139.51396641 30.6752022 -138.71911621 25.22528076 C-138.29599943 22.32377085 -137.88028439 19.42134711 -137.47036743 16.51794434 C-137.28128304 15.1964173 -137.09217215 13.87489407 -136.9030304 12.55337524 C-136.7396669 11.39739838 -136.57630341 10.24142151 -136.4079895 9.05041504 C-135.93501282 6.33120728 -135.93501282 6.33120728 -134.93501282 4.33120728 C-122.73601022 3.58840542 -110.55095988 3.09184819 -98.33345032 2.79605103 C-96.63281158 2.75287552 -94.93217895 2.70945938 -93.23155212 2.66581726 C-88.82268405 2.55330411 -84.41374267 2.44399015 -80.004776 2.3354187 C-75.47886708 2.22337552 -70.95303784 2.10820141 -66.42720032 1.99331665 C-57.59654484 1.76960623 -48.76580915 1.54928666 -39.93501282 1.33120728 C-39.93501282 3.97120728 -39.93501282 6.61120728 -39.93501282 9.33120728 C-39.15517029 8.48235962 -39.15517029 8.48235962 -38.35957336 7.61636353 C-33.33281696 2.59567342 -29.91116043 0.42324702 -22.77705383 0.2694397 C-21.27743103 0.30001465 -21.27743103 0.30001465 -19.74751282 0.33120728 C-18.68395569 0.32903198 -17.62039856 0.32685669 -16.52461243 0.32461548 C-14.22324446 0.32113132 -11.92182475 0.33113839 -9.62055969 0.35317993 C-6.40129687 0.33398719 -3.21246194 0.20107649 0 0 Z M-7.81001282 18.58120728 C-8.80388 18.59538696 -9.79774719 18.60956665 -10.82173157 18.62417603 C-12.2661261 18.67251587 -12.2661261 18.67251587 -13.73970032 18.72183228 C-14.61610168 18.74277954 -15.49250305 18.76372681 -16.39546204 18.78530884 C-19.95318872 19.55007301 -21.47862478 20.62789602 -23.93501282 23.33120728 C-24.96711357 26.24159578 -25.34877809 29.17051365 -25.73579407 32.22573853 C-25.8618956 33.09131882 -25.98799713 33.95689911 -26.11791992 34.84870911 C-26.51468342 37.61128205 -26.88081766 40.37700077 -27.24751282 43.14370728 C-27.51191981 44.99358476 -27.77817651 46.84319887 -28.04634094 48.6925354 C-28.29863563 50.47420447 -28.54933878 52.25609977 -28.79829407 54.03823853 C-28.97163017 55.27764946 -28.97163017 55.27764946 -29.14846802 56.542099 C-30.63882077 65.30442549 -30.63882077 65.30442549 -27.93501282 73.33120728 C-23.70501803 74.03206375 -19.40368471 73.84039927 -15.12251282 73.83120728 C-13.33877258 73.87374634 -13.33877258 73.87374634 -11.51899719 73.91714478 C-10.37108704 73.9197229 -9.22317688 73.92230103 -8.04048157 73.92495728 C-6.99013733 73.93204712 -5.93979309 73.93913696 -4.85762024 73.94644165 C-0.773549 73.086709 0.58887999 71.67089004 3.06498718 68.33120728 C4.05379515 65.46182185 4.4711183 62.59548244 4.86576843 59.59292603 C4.99186996 58.7533284 5.1179715 57.91373077 5.24789429 57.0486908 C5.51015284 55.27748717 5.76255269 53.50479901 6.00566101 51.73086548 C6.37525551 49.03498541 6.77289826 46.34447873 7.17631531 43.6534729 C7.4286182 41.92519761 7.67932151 40.19668791 7.92826843 38.46792603 C8.04382584 37.67182419 8.15938324 36.87572235 8.27844238 36.05549622 C9.82899682 27.37031799 9.82899682 27.37031799 7.75248718 19.33120728 C3.80636966 16.99276726 -3.29080093 18.44743395 -7.81001282 18.58120728 Z " fill="#FDB443" transform="translate(1351.9350128173828,159.66879272460938)"/>
<path d="M0 0 C11.77129305 -0.74618747 11.77129305 -0.74618747 16.6796875 2.59765625 C19.02139797 5.11133608 20.81541439 7.51570608 22.5546875 10.46875 C23.5446875 11.95375 23.5446875 11.95375 24.5546875 13.46875 C24.44202595 16.10968041 24.20847051 18.58947475 23.8515625 21.19921875 C23.64620491 22.83508864 23.44114122 24.47099544 23.23632812 26.10693359 C23.12361572 26.9778363 23.01090332 27.84873901 22.89477539 28.74603271 C22.54954632 31.50990993 22.24497287 34.27562112 21.95117188 37.04541016 C21.42629257 41.96147659 20.82319439 46.86367408 20.18212891 51.76586914 C19.92971412 53.78241184 19.69968427 55.80187808 19.49169922 57.82348633 C18.18751988 70.33211828 16.45513107 78.66488534 6.49395752 86.91438293 C2.32641814 90.1252027 -0.15562254 91.57397375 -5.34375 91.78515625 C-6.87938599 91.84908569 -6.87938599 91.84908569 -8.44604492 91.91430664 C-13.17370948 92.07815523 -17.901615 92.22300659 -22.63037109 92.3515625 C-26.47320891 92.46960692 -30.31156609 92.64099756 -34.15234375 92.8125 C-36.6457516 92.88816004 -39.13924213 92.96115029 -41.6328125 93.03125 C-43.39407471 93.12611694 -43.39407471 93.12611694 -45.19091797 93.22290039 C-53.29556757 93.37307374 -53.29556757 93.37307374 -56.76025391 90.64794922 C-58.48401493 88.66337033 -59.9678101 86.63801859 -61.4453125 84.46875 C-61.7753125 84.46875 -62.1053125 84.46875 -62.4453125 84.46875 C-63.1053125 87.43875 -63.7653125 90.40875 -64.4453125 93.46875 C-74.31211794 93.73106914 -84.17896014 93.99195601 -94.04585075 94.25105286 C-98.62824211 94.37142709 -103.21061976 94.49228051 -107.79296875 94.61425781 C-112.22145783 94.73212141 -116.64997936 94.84868869 -121.07852554 94.96438599 C-122.76167119 95.00858116 -124.44480497 95.05323051 -126.12792587 95.09835815 C-134.56839808 95.32437696 -143.00086951 95.52816561 -151.4453125 95.46875 C-151.78339936 93.40702387 -152.11558611 91.3443297 -152.4453125 89.28125 C-152.6309375 88.13269531 -152.8165625 86.98414063 -153.0078125 85.80078125 C-153.4453125 82.46875 -153.4453125 82.46875 -153.4453125 77.46875 C-163.6753125 78.12875 -173.9053125 78.78875 -184.4453125 79.46875 C-186.7553125 85.07875 -189.0653125 90.68875 -191.4453125 96.46875 C-204.8103125 96.96375 -204.8103125 96.96375 -218.4453125 97.46875 C-215.07411672 87.35516265 -215.07411672 87.35516265 -212.94140625 82.6875 C-212.45679932 81.61822266 -211.97219238 80.54894531 -211.47290039 79.44726562 C-210.94817139 78.29935547 -210.42344238 77.15144531 -209.8828125 75.96875 C-208.72089751 73.40763023 -207.56318129 70.84462438 -206.40625 68.28125 C-206.09690018 67.59647583 -205.78755035 66.91170166 -205.46882629 66.20617676 C-200.84477689 55.94781078 -196.35519498 45.62948777 -191.849823 35.31860352 C-187.48087833 25.32049816 -183.07594537 15.34922179 -178.4453125 5.46875 C-165.76132478 4.61089576 -153.15690335 4.34933004 -140.4453125 4.46875 C-138.41688276 12.78205341 -137.25007113 21.19551251 -136.0625 29.66015625 C-135.86628612 31.04102035 -135.66975361 32.42183921 -135.47290039 33.8026123 C-134.75152432 38.87827964 -134.03627703 43.9548165 -133.3203125 49.03125 C-131.7115625 60.395625 -130.1028125 71.76 -128.4453125 83.46875 C-124.4853125 57.06875 -120.5253125 30.66875 -116.4453125 3.46875 C-108.8553125 3.79875 -101.2653125 4.12875 -93.4453125 4.46875 C-93.6309375 8.3359375 -93.6309375 8.3359375 -93.8203125 12.28125 C-93.87131104 13.46231323 -93.87131104 13.46231323 -93.92333984 14.66723633 C-94.19661111 19.7536678 -94.97293086 24.62412645 -95.93261719 29.62329102 C-96.79319059 34.3994734 -97.32043848 39.21248433 -97.8828125 44.03125 C-99.11123647 54.2349014 -100.64415588 64.35161492 -102.4453125 74.46875 C-101.82712646 74.43845703 -101.20894043 74.40816406 -100.57202148 74.37695312 C-88.52157659 73.79540033 -76.51127436 73.29719604 -64.4453125 73.46875 C-64.40647949 72.87151123 -64.36764648 72.27427246 -64.32763672 71.65893555 C-63.57896971 61.53208676 -62.3566702 51.46383599 -60.98339844 41.40454102 C-60.70760683 39.31931523 -60.45015467 37.23158319 -60.2109375 35.1418457 C-57.94500415 15.49195491 -57.94500415 15.49195491 -50.9375 9.79296875 C-49.12042413 8.66264572 -47.29058293 7.55243441 -45.4453125 6.46875 C-44.82350098 5.75726807 -44.20168945 5.04578613 -43.56103516 4.31274414 C-40.51057635 1.65406478 -38.10262391 1.83138465 -34.1015625 1.640625 C-33.02501907 1.58171082 -33.02501907 1.58171082 -31.92672729 1.52160645 C-29.60004918 1.40010497 -27.27346469 1.30723113 -24.9453125 1.21875 C-23.34844916 1.14989685 -21.75160662 1.08055969 -20.15478516 1.01074219 C-17.01139835 0.87707329 -13.86783245 0.75726899 -10.72363281 0.64453125 C-7.1413778 0.50947848 -3.57447292 0.27576842 0 0 Z M-33.4453125 23.46875 C-34.54760249 26.44137093 -34.54760249 26.44137093 -34.95703125 29.82421875 C-35.1569165 31.07928223 -35.35680176 32.3343457 -35.56274414 33.62744141 C-35.75390349 34.97021629 -35.94390654 36.31315625 -36.1328125 37.65625 C-36.33782468 39.02021354 -36.5441272 40.38398375 -36.75170898 41.74755859 C-37.15562087 44.4303566 -37.54537728 47.11462781 -37.92285156 49.80126953 C-38.3648377 52.90384699 -38.84328751 55.99633832 -39.34375 59.08984375 C-39.56768681 60.59076277 -39.789315 62.0920295 -40.0078125 63.59375 C-40.19472656 64.85445312 -40.38164063 66.11515625 -40.57421875 67.4140625 C-40.73452203 70.51727277 -40.73452203 70.51727277 -38.79467773 72.64013672 C-35.85203172 74.93052627 -34.41535134 74.91901546 -30.7265625 74.78125 C-29.08107422 74.72130859 -29.08107422 74.72130859 -27.40234375 74.66015625 C-26.26152344 74.59699219 -25.12070312 74.53382813 -23.9453125 74.46875 C-22.23408203 74.42041016 -22.23408203 74.42041016 -20.48828125 74.37109375 C-14.3770075 74.33228286 -14.3770075 74.33228286 -9.14453125 71.62158203 C-6.779492 68.62518604 -6.51440449 66.1102404 -5.9453125 62.34375 C-5.83348633 61.62670898 -5.72166016 60.90966797 -5.60644531 60.17089844 C-5.35407783 58.54235011 -5.10878631 56.91269549 -4.86914062 55.28222656 C-4.38926153 52.09666969 -3.86395093 48.92011238 -3.3359375 45.7421875 C-2.95482206 43.40118916 -2.57461179 41.06004328 -2.1953125 38.71875 C-2.00775391 37.58808105 -1.82019531 36.45741211 -1.62695312 35.29248047 C-1.45873047 34.22143066 -1.29050781 33.15038086 -1.1171875 32.046875 C-0.9634668 31.09200195 -0.80974609 30.13712891 -0.65136719 29.15332031 C-0.43433328 26.32570795 -0.64914385 24.18598152 -1.4453125 21.46875 C-5.07488261 17.83917989 -10.8516268 19.09923484 -15.7578125 19.09375 C-16.89927734 19.06925781 -18.04074219 19.04476562 -19.21679688 19.01953125 C-20.31958984 19.01566406 -21.42238281 19.01179688 -22.55859375 19.0078125 C-23.56704346 18.99959473 -24.57549316 18.99137695 -25.61450195 18.98291016 C-29.30582838 19.61643664 -30.88692136 20.74737363 -33.4453125 23.46875 Z M-163.4453125 23.46875 C-165.44131229 28.43410283 -167.43508323 33.40034233 -169.42675781 38.36743164 C-170.10517562 40.05843518 -170.78421104 41.74919107 -171.46386719 43.43969727 C-172.43845991 45.86410322 -173.41085659 48.28937969 -174.3828125 50.71484375 C-174.84216187 51.85547523 -174.84216187 51.85547523 -175.31079102 53.01914978 C-176.79329225 56.15204355 -176.79329225 56.15204355 -177.4453125 59.46875 C-170.1853125 59.46875 -162.9253125 59.46875 -155.4453125 59.46875 C-155.96675655 51.38636722 -156.61516368 43.33708188 -157.4453125 35.28125 C-157.5282959 34.45584717 -157.6112793 33.63044434 -157.69677734 32.7800293 C-158.03983102 29.53045506 -158.40867091 26.57867477 -159.4453125 23.46875 C-160.7653125 23.46875 -162.0853125 23.46875 -163.4453125 23.46875 Z " fill="#FEFEFE" transform="translate(601.4453125,179.53125)"/>
<path d="M0 0 C0.78632812 0.00451172 1.57265625 0.00902344 2.3828125 0.01367188 C4.25524426 0.02508914 6.12763501 0.0429962 8 0.0625 C8 0.3925 8 0.7225 8 1.0625 C6.89915573 1.28339798 5.79831146 1.50429596 4.66410828 1.73188782 C-87.77655344 20.28517696 -180.08695688 39.3061148 -438.28515625 97.86328125 C-439.06548029 98.04845621 -439.84580433 98.23363117 -440.64977455 98.4244175 C-442.19129187 98.79023907 -443.73280756 99.15606748 -445.27432156 99.52190304 C-513.23225991 115.64857532 -580.87153863 127.35187012 -651 126.0625 C-652.24990723 126.04316406 -653.49981445 126.02382813 -654.78759766 126.00390625 C-736.53011834 124.60782653 -817.59525225 108.87538436 -964 49.0625 C-963.01 48.5675 -963.01 48.5675 -962 48.0625 C-959.86710733 48.78878509 -957.77113076 49.62381523 -955.6953125 50.5 C-954.33652404 51.06402441 -952.97745991 51.62738503 -951.61816406 52.19018555 C-950.52526062 52.64667984 -950.52526062 52.64667984 -949.41027832 53.11239624 C-902.82291552 72.48107802 -854.57088893 86.527702 -805.18572998 96.61584473 C-803.18713518 97.02425881 -801.18946473 97.43718957 -799.19189453 97.85058594 C-779.67411313 101.84783644 -759.95715854 104.40674805 -740.18945312 106.79754639 C-738.16507786 107.04252333 -736.14111319 107.29088687 -734.1171875 107.53955078 C-685.20273498 113.44738294 -635.09059171 114.11342999 -586 110.0625 C-585.22841553 109.99933594 -584.45683105 109.93617188 -583.66186523 109.87109375 C-475.93765443 100.95146351 -367.99422076 73.62457413 -243.87965393 36.94303894 C-239.58853025 35.64252816 -235.29482395 34.35073204 -231 33.0625 C-230.13886597 32.80318695 -229.27773193 32.5438739 -228.39050293 32.27670288 C-215.37225473 28.37736198 -202.33591746 25.22780666 -189 22.625 C-188.04655701 22.43651489 -187.09311401 22.24802979 -186.11077881 22.05383301 C-164.17469033 17.72924724 -142.13089475 14.22242886 -120 11.0625 C-119.18305664 10.9447522 -118.36611328 10.82700439 -117.52441406 10.70568848 C-78.97019985 5.15675319 -38.99934246 -0.45106001 0 0 Z " fill="#FDB343" transform="translate(1317,260.9375)"/>
<path d="M0 0 C30.66666667 2.83333333 30.66666667 2.83333333 37 6 C37.97268579 10.49416861 38.33151836 14.6983577 35.95117188 18.81298828 C34.55926646 20.72913755 33.08325436 22.48902848 31.5 24.25 C30.74348145 25.12724731 30.74348145 25.12724731 29.97167969 26.0222168 C28.38497623 27.66261874 26.99656865 28.89222462 25 30 C21.92913211 29.99035329 19.9036144 29.72638359 17 29 C15.3284072 28.66770966 13.65508206 28.34406068 11.98046875 28.02734375 C11.0584668 27.84953369 10.13646484 27.67172363 9.18652344 27.48852539 C-14.65093779 23.10875089 -40.23907054 23.11968634 -64 28 C-64.73766602 28.14453613 -65.47533203 28.28907227 -66.23535156 28.43798828 C-81.06001394 31.39571478 -95.46395209 36.25797358 -109 43 C-109.67756348 43.3295166 -110.35512695 43.6590332 -111.05322266 43.99853516 C-127.16410069 51.87964391 -141.01382753 61.6093134 -154 74 C-154.72058594 74.64582031 -155.44117188 75.29164063 -156.18359375 75.95703125 C-179.49952374 97.69362908 -191.53818745 129.15805152 -192.6875 160.4375 C-192.790625 164.253125 -192.89375 168.06875 -193 172 C-206.86 173.65 -220.72 175.3 -235 177 C-235 150.30580893 -235 150.30580893 -232 145 C-227.98226401 141.74418434 -222.79301532 140.77394462 -217.87451172 139.54345703 C-210.93895088 137.53270444 -206.86911733 131.95748468 -203.12890625 126.1484375 C-200.23987599 120.65028303 -200.21144693 114.68108044 -201.9375 108.8125 C-204.8648637 104.82064041 -208.58861057 103.09009227 -213 101 C-211.31647006 90.99366714 -201.02359377 80.02359377 -194 73 C-191.49609375 72.875 -191.49609375 72.875 -188.4375 73 C-177.72437014 73.12753726 -168.0863975 70.6576102 -160.00390625 63.14453125 C-156.61715466 59.07555632 -155.11364303 55.32765417 -154.8046875 50.0390625 C-155.07691544 47.19700283 -156.45507055 45.35097959 -158 43 C-157.15617711 39.70079084 -155.72824838 38.81104502 -152.91015625 36.8515625 C-151.63435727 36.09782575 -150.3513534 35.35619016 -149.0625 34.625 C-148.3924292 34.23650879 -147.7223584 33.84801758 -147.03198242 33.44775391 C-145.6720028 32.66260769 -144.30913131 31.88244844 -142.94335938 31.10742188 C-141.18584635 30.1059044 -139.44349271 29.07789852 -137.703125 28.046875 C-136.27226562 27.21929687 -136.27226562 27.21929687 -134.8125 26.375 C-133.97332031 25.88773438 -133.13414062 25.40046875 -132.26953125 24.8984375 C-129.61572171 23.84787606 -128.61770868 23.96812314 -126 25 C-125.030625 25.495 -124.06125 25.99 -123.0625 26.5 C-114.45643103 30.71521745 -106.86542998 29.08044306 -98.09765625 26.19140625 C-91.35175264 23.59682794 -87.77363074 20.58879016 -84.62890625 14.0625 C-83.88814302 11.63316467 -83.95810243 9.52738606 -84 7 C-80.06451086 6.17755754 -76.12630061 5.36892111 -72.1875 4.5625 C-71.08728516 4.33240234 -69.98707031 4.10230469 -68.85351562 3.86523438 C-61.90938688 2.45182764 -55.07203283 1.46838775 -48 1 C-47.62875 1.9075 -47.2575 2.815 -46.875 3.75 C-44.13872077 8.49288401 -40.87871139 10.24851544 -35.875 12.25 C-25.4763 14.26265161 -15.17965386 13.41075635 -5.984375 7.76171875 C-3.11467115 5.51192666 -1.50639521 3.26155294 0 0 Z " fill="#FDB343" transform="translate(380,138)"/>
<path d="M0 0 C-0.14139481 2.25028329 -0.28828003 4.50022206 -0.4375 6.75 C-0.55931641 8.62945312 -0.55931641 8.62945312 -0.68359375 10.546875 C-1 14 -1 14 -2 18 C-5.3 18 -8.6 18 -12 18 C-12.10812012 18.99443115 -12.21624023 19.9888623 -12.32763672 21.01342773 C-13.60072849 32.41991789 -15.29676578 43.73331732 -17.125 55.0625 C-17.40526589 56.81570441 -17.68521531 58.56895943 -17.96484375 60.32226562 C-18.63960087 64.54876658 -19.31857203 68.77456967 -20 73 C-16.7 73 -13.4 73 -10 73 C-10.30887453 75.43800966 -10.62194662 77.87535367 -10.9375 80.3125 C-11.02451172 81.00279297 -11.11152344 81.69308594 -11.20117188 82.40429688 C-11.59210135 85.40142288 -12.0415004 88.12450119 -13 91 C-43.33290997 92.19388403 -43.33290997 92.19388403 -56 92 C-55.69112547 89.56199034 -55.37805338 87.12464633 -55.0625 84.6875 C-54.97548828 83.99720703 -54.88847656 83.30691406 -54.79882812 82.59570312 C-54.40789865 79.59857712 -53.9584996 76.87549881 -53 74 C-48.05 73.505 -48.05 73.505 -43 73 C-42.87044922 71.64261719 -42.87044922 71.64261719 -42.73828125 70.2578125 C-41.61261971 59.12767595 -40.05468903 48.0671992 -38.4375 37 C-38.32572418 36.22722717 -38.21394836 35.45445435 -38.0987854 34.65826416 C-37.77682613 32.43824299 -37.44984861 30.21902388 -37.12109375 28 C-36.9295874 26.700625 -36.73808105 25.40125 -36.54077148 24.0625 C-36 21 -36 21 -35 19 C-36.65 19.33 -38.3 19.66 -40 20 C-40.10957031 20.90242432 -40.21914063 21.80484863 -40.33203125 22.73461914 C-40.75932555 26.11454312 -41.21758924 29.48730236 -41.69677734 32.86010742 C-41.8969732 34.31418701 -42.08505545 35.76999216 -42.26025391 37.22729492 C-43.91676485 50.88649108 -43.91676485 50.88649108 -49.0078125 55.28515625 C-50.33592545 56.19393942 -51.66646313 57.09919466 -53 58 C-53.9851794 59.10156676 -54.94811848 60.22394899 -55.875 61.375 C-61.60900241 66.24178308 -70.87674351 64.9959884 -78 65 C-79.8736994 65.01412749 -81.74739731 65.02845397 -83.62109375 65.04296875 C-88.41474255 65.06736391 -93.20652608 65.04503264 -98 65 C-98.12117187 66.09957031 -98.24234375 67.19914062 -98.3671875 68.33203125 C-99.29956985 76.61747723 -100.33962141 84.82175226 -102 93 C-110.02436617 93.71441098 -117.94494233 94.11582794 -126 94 C-124.75131822 82.04033972 -123.21903471 70.1587065 -121.3984375 58.2734375 C-121.15436442 56.66253252 -120.9106067 55.05157973 -120.66714478 53.44058228 C-120.03570941 49.26791389 -119.40008931 45.09589427 -118.76348877 40.92401123 C-118.1105485 36.63984088 -117.46171526 32.35504862 -116.8125 28.0703125 C-115.54560584 19.71293989 -114.27427455 11.35625047 -113 3 C-107.91623736 2.70815775 -102.83224501 2.42293441 -97.74749756 2.14874268 C-95.91965645 2.04978791 -94.09189606 1.9493303 -92.26422119 1.84735107 C-86.58680687 1.53380031 -80.90989115 1.27040661 -75.2277832 1.05786133 C-73.26387705 0.97677886 -71.30056001 0.8801044 -69.33813477 0.76879883 C-66.45089155 0.60764262 -63.56579085 0.49974989 -60.67578125 0.40234375 C-59.80593094 0.34231674 -58.93608063 0.28228973 -58.03987122 0.22044373 C-54.12136819 0.13753898 -51.90883541 0.23140704 -48.84432983 2.82302856 C-47.09298537 4.81272282 -45.50295961 6.81829313 -44 9 C-43.34 6.36 -42.68 3.72 -42 1 C-27.98555763 0.14879743 -14.03921478 -0.13088769 0 0 Z M-92 22 C-92.50610903 25.22823979 -93.00379907 28.45772365 -93.5 31.6875 C-93.64308594 32.59951172 -93.78617188 33.51152344 -93.93359375 34.45117188 C-94.06894531 35.33740234 -94.20429687 36.22363281 -94.34375 37.13671875 C-94.46943359 37.94842529 -94.59511719 38.76013184 -94.72460938 39.59643555 C-95.00977723 42.08533405 -95.04674739 44.49706689 -95 47 C-91.08225095 46.94814481 -87.16670995 46.85307131 -83.25 46.75 C-82.13882813 46.73582031 -81.02765625 46.72164062 -79.8828125 46.70703125 C-78.81289063 46.67480469 -77.74296875 46.64257812 -76.640625 46.609375 C-75.65610352 46.58842773 -74.67158203 46.56748047 -73.65722656 46.54589844 C-70.26859714 45.8497412 -69.09769134 44.71273218 -67 42 C-65.89340961 39.09081107 -65.53109088 36.07160092 -65.0625 33 C-64.91232422 32.19304687 -64.76214844 31.38609375 -64.60742188 30.5546875 C-64.05714774 27.16924461 -63.75147832 24.74100502 -64.8515625 21.4609375 C-68.41520629 19.03765972 -72.11534178 19.50462867 -76.3125 19.625 C-77.15490234 19.62628906 -77.99730469 19.62757813 -78.86523438 19.62890625 C-83.61775199 19.69579078 -87.53954574 20.18089141 -92 22 Z " fill="#FEFEFE" transform="translate(764,176)"/>
<path d="M0 0 C-3.16419607 2.10946405 -5.91606905 3.11207194 -9.515625 4.328125 C-10.18115891 4.55332321 -10.84669281 4.77852142 -11.53239441 5.01054382 C-13.76939493 5.76380207 -16.00919847 6.50812826 -18.25 7.25 C-19.03674103 7.51088409 -19.82348206 7.77176819 -20.63406372 8.04055786 C-86.61807695 29.85263229 -154.2796557 46.47779419 -223 57 C-223.7935791 57.12183655 -224.5871582 57.2436731 -225.40478516 57.36920166 C-262.74260506 63.0668679 -300.33432496 66.6131818 -338 69.3125 C-339.05823975 69.38887695 -340.11647949 69.46525391 -341.20678711 69.54394531 C-348.8078182 70.03951585 -356.38470639 70.06970359 -364 70 C-364 69.67 -364 69.34 -364 69 C-363.31652496 68.92562714 -362.63304993 68.85125427 -361.92886353 68.77462769 C-274.99346887 59.29777237 -189.25935423 45.98081213 -97 18 C-98.0082785 18.04347565 -98.0082785 18.04347565 -99.03692627 18.08782959 C-127.93045087 19.2767975 -156.83660454 19.24550266 -185.75 19.25 C-187.05308357 19.25044186 -188.35616714 19.25088371 -189.6987381 19.25133896 C-227.38437513 19.25803144 -264.92657258 19.09255579 -302.52264404 16.25970459 C-306.27633054 15.97936239 -310.03083929 15.71267637 -313.78564453 15.44775391 C-347.27384977 13.07460545 -380.66899591 10.04130303 -414 6 C-414 5.67 -414 5.34 -414 5 C-410.516778 4.23390987 -407.16520549 3.80789036 -403.60571289 3.61108398 C-402.55013687 3.55109726 -401.49456085 3.49111053 -400.40699768 3.42930603 C-398.70699867 3.33861595 -398.70699867 3.33861595 -396.97265625 3.24609375 C-395.2018998 3.14833397 -395.2018998 3.14833397 -393.39537048 3.04859924 C-390.89478134 2.91154946 -388.39409096 2.77633647 -385.89331055 2.64282227 C-382.10758618 2.43991651 -378.32235683 2.22917274 -374.53710938 2.01757812 C-372.09898423 1.8849398 -369.66083386 1.75276408 -367.22265625 1.62109375 C-366.10754166 1.55860947 -364.99242706 1.49612518 -363.84352112 1.43174744 C-351.48158321 0.78357336 -339.26998077 0.90883346 -326.92578125 1.8046875 C-324.40750751 1.97742544 -321.88919517 2.1496013 -319.37084961 2.32128906 C-317.40412796 2.45718445 -317.40412796 2.45718445 -315.39767456 2.5958252 C-247.66998706 7.24932244 -179.85127854 8.30119919 -112 6 C-111.12539124 5.97077454 -110.25078247 5.94154907 -109.34967041 5.91143799 C-82.71649468 5.00914369 -56.16139813 3.34861922 -29.59082031 1.32104492 C-28.43568939 1.23409866 -27.28055847 1.1471524 -26.09042358 1.05757141 C-23.93846564 0.8950394 -21.7867639 0.72905828 -19.63540649 0.5587616 C-13.07722501 0.06400925 -6.57605832 -0.09332383 0 0 Z " fill="#FDB343" transform="translate(1052,284)"/>
<path d="M0 0 C0.92634247 0.00098694 1.85268494 0.00197388 2.80709839 0.00299072 C5.07745687 0.00555217 7.3478088 0.00913978 9.61816406 0.01367188 C11.18685294 11.00936339 12.75180241 22.00557998 14.3119812 33.00248241 C15.03655258 38.108771 15.76241038 43.21486981 16.49121094 48.32055664 C17.1945033 53.24788166 17.89441273 58.17567641 18.59197998 63.10381508 C18.85869947 64.98384028 19.12663714 66.86369307 19.39581299 68.74336815 C19.77263629 71.37623613 20.14512261 74.00968397 20.51660156 76.64331055 C20.62881042 77.42014694 20.74101929 78.19698334 20.85662842 78.99736023 C21.37392649 82.69676891 21.74831737 86.27652401 21.61816406 90.01367188 C13.59635669 90.66096469 5.66703082 91.1356244 -2.38183594 91.01367188 C-3.37183594 82.10367188 -3.37183594 82.10367188 -4.38183594 73.01367188 C-19.72683594 73.50867188 -19.72683594 73.50867188 -35.38183594 74.01367188 C-36.37183594 76.98367187 -37.36183594 79.95367187 -38.38183594 83.01367188 C-39.70183594 85.98367187 -41.02183594 88.95367187 -42.38183594 92.01367188 C-50.96183594 92.34367187 -59.54183594 92.67367187 -68.38183594 93.01367188 C-68.71183594 92.35367188 -69.04183594 91.69367188 -69.38183594 91.01367188 C-68.26123984 88.17626263 -67.06883129 85.44652001 -65.78027344 82.68554688 C-65.39218002 81.83708191 -65.00408661 80.98861694 -64.60423279 80.11444092 C-63.76590575 78.28334204 -62.92410577 76.45383009 -62.07925415 74.62573242 C-59.86339976 69.8300412 -57.67271373 65.02287002 -55.47949219 60.21679688 C-54.82139809 58.77723633 -54.82139809 58.77723633 -54.15000916 57.30859375 C-50.39748175 49.08623873 -46.76186492 40.81770873 -43.19433594 32.51367188 C-42.67895264 31.31564941 -42.16356934 30.11762695 -41.63256836 28.88330078 C-40.66497999 26.63355894 -39.69760038 24.38372729 -38.73046875 22.13378906 C-35.67577229 15.06662383 -32.53252024 8.03846044 -29.38183594 1.01367188 C-26.63214888 0.83948355 -23.8823187 0.67444259 -21.13183594 0.51367188 C-20.39320312 0.46597656 -19.65457031 0.41828125 -18.89355469 0.36914062 C-12.59339179 0.01059477 -6.30803426 -0.01280791 0 0 Z M-13.38183594 19.01367188 C-16.91836223 25.78099672 -19.80435904 32.73693111 -22.63183594 39.82617188 C-23.32019531 41.52290039 -23.32019531 41.52290039 -24.02246094 43.25390625 C-24.45558594 44.33607422 -24.88871094 45.41824219 -25.33496094 46.53320312 C-25.92519043 48.00430542 -25.92519043 48.00430542 -26.52734375 49.50512695 C-27.54305566 52.04528596 -27.54305566 52.04528596 -27.38183594 55.01367188 C-20.45183594 55.01367188 -13.52183594 55.01367188 -6.38183594 55.01367188 C-7.00030213 42.95358116 -8.02527677 31.01197671 -9.38183594 19.01367188 C-10.70183594 19.01367188 -12.02183594 19.01367188 -13.38183594 19.01367188 Z " fill="#FDB343" transform="translate(1128.3818359375,165.986328125)"/>
<path d="M0 0 C11.34404827 5.46590751 22.22212757 11.4905919 33 18 C31.36603143 22.63257022 28.91797651 26.58047364 26.375 30.75 C18.76964901 43.50634165 12.75733961 56.40354179 8.52075195 70.6652832 C8.26253662 71.47698975 8.00432129 72.28869629 7.73828125 73.125 C7.52212158 73.84945312 7.30596191 74.57390625 7.08325195 75.3203125 C6 77 6 77 3.95996094 77.81591797 C-0.17268121 78.07292986 -4.01986797 77.46988994 -8.09765625 76.8203125 C-8.96893661 76.68809296 -9.84021698 76.55587341 -10.73789978 76.41964722 C-13.51406279 75.99609912 -16.28818633 75.56047895 -19.0625 75.125 C-20.93282919 74.83910012 -22.80327097 74.55393579 -24.67382812 74.26953125 C-26.46103729 73.99544159 -28.24815018 73.72072324 -30.03515625 73.4453125 C-30.87377701 73.31609406 -31.71239777 73.18687561 -32.57643127 73.05374146 C-33.36082077 72.93046478 -34.14521027 72.80718811 -34.95336914 72.68017578 C-35.98331749 72.51909836 -35.98331749 72.51909836 -37.03407288 72.35476685 C-39.05090423 71.99081394 -41.01792451 71.5190231 -43 71 C-35.99422532 46.47978861 -19.70981849 23.57845517 -3.15234375 4.546875 C-1.00798965 2.2124376 -1.00798965 2.2124376 0 0 Z " fill="#FDB444" transform="translate(128,195)"/>
<path d="M0 0 C2.5 2.3125 2.5 2.3125 5 5 C5 8.43671236 4.41295746 9.22924863 2.5078125 11.9921875 C1.972771 12.77287598 1.43772949 13.55356445 0.88647461 14.35791016 C0.01454468 15.60386963 0.01454468 15.60386963 -0.875 16.875 C-1.76529907 18.16156494 -1.76529907 18.16156494 -2.67358398 19.47412109 C-6.77756382 25.36313615 -11.05652139 31.06575955 -15.484375 36.71484375 C-18.92285364 41.14917337 -22.11156306 45.75973941 -25.33056641 50.35424805 C-30.59852843 57.87117956 -35.97744234 65.30556769 -41.36328125 72.73828125 C-42.98509064 74.97939733 -44.60265132 77.22351315 -46.21875 79.46875 C-52.46932975 88.14863578 -58.76502838 96.79160365 -65.15600586 105.36889648 C-68.94036793 110.47266976 -72.52304981 115.682173 -76 121 C-82.30928097 120.37869771 -87.96207569 118.50010374 -93.9375 116.4375 C-94.90751953 116.10814453 -95.87753906 115.77878906 -96.87695312 115.43945312 C-99.25322384 114.6317552 -101.62742969 113.81849052 -104 113 C-103.1912927 109.08426177 -101.80372759 107.50995346 -98.875 104.75 C-95.92640228 101.90388119 -93.09909444 99.05396278 -90.4375 95.9375 C-88.06268398 93.1677954 -85.59982183 90.55990134 -83 88 C-80.4207494 85.46027814 -77.97782611 82.87548686 -75.625 80.125 C-72.88378551 76.93317491 -69.99314112 73.95697023 -67 71 C-64.04816975 68.08373397 -61.19611141 65.15394165 -58.5 62 C-55.01547893 57.92376781 -51.21918019 54.20449127 -47.40625 50.4375 C-45.34550655 48.34999365 -43.40484374 46.22830777 -41.5 44 C-38.01667458 39.9251665 -34.22181292 36.20707008 -30.41015625 32.44140625 C-27.73145468 29.72797273 -25.25391882 26.89222977 -22.77734375 23.99609375 C-20.0551104 20.9388163 -17.11648524 18.10809769 -14.203125 15.234375 C-11.53150907 12.5248638 -9.05098396 9.68354774 -6.57421875 6.796875 C-4.48662489 4.41401353 -2.27363401 2.20473601 0 0 Z " fill="#FDB343" transform="translate(436,140)"/>
<path d="M0 0 C4.72206587 1.56886968 8.19194445 2.78791667 11 7 C14.77104328 30.1963011 -0.48500159 58.80535365 -13.16796875 77.1328125 C-15.02142737 79.53478015 -16.92610118 81.78726276 -19 84 C-19.59554687 84.63679688 -20.19109375 85.27359375 -20.8046875 85.9296875 C-23.89878193 88.91376968 -25.36590307 89.92602202 -29.75 90.4375 C-33 90 -33 90 -36 89 C-36 88.34 -36 87.68 -36 87 C-36.763125 87.103125 -37.52625 87.20625 -38.3125 87.3125 C-39.199375 87.209375 -40.08625 87.10625 -41 87 C-45.07530293 81.55655965 -44.62546645 76.52785678 -44 70 C-40.10933326 45.82403311 -28.76438306 18.29413516 -10 2 C-6.19155883 -0.53896078 -4.5377371 -0.43913585 0 0 Z M-11 29 C-12.82786726 31.59567058 -14.39739538 34.25267779 -16 37 C-18.97 36.67 -21.94 36.34 -25 36 C-24.67 36.66 -24.34 37.32 -24 38 C-20.97065509 38.65772428 -20.97065509 38.65772428 -18 39 C-18 39.99 -18 40.98 -18 42 C-18.7425 41.67 -19.485 41.34 -20.25 41 C-23.13883312 39.77217129 -23.13883312 39.77217129 -27 40 C-27.33 41.32 -27.66 42.64 -28 44 C-27.030625 44.45375 -26.06125 44.9075 -25.0625 45.375 C-22 47 -22 47 -21 49 C-25.455 48.01 -25.455 48.01 -30 47 C-30 47.66 -30 48.32 -30 49 C-27.69 49.66 -25.38 50.32 -23 51 C-23.33 55.62 -23.66 60.24 -24 65 C-14.37238189 60.18619094 -10.40420609 45.65329908 -7.12890625 35.91015625 C-5.99981651 32.29077136 -5.4269409 28.76395022 -5 25 C-7.40391622 25 -9.38566693 27.53242448 -11 29 Z M-34 64 C-33 66 -33 66 -33 66 Z " fill="#FDB343" transform="translate(256,201)"/>
<path d="M0 0 C8.36177031 2.85474483 16.70785897 5.74632501 24.875 9.125 C25.98617187 9.58132812 27.09734375 10.03765625 28.2421875 10.5078125 C32.22608428 12.66340538 33.58685437 14.76056312 35 19 C36.80402346 35.7516464 29.88603202 50.68973701 22 65 C21.40960938 66.0828125 20.81921875 67.165625 20.2109375 68.28125 C14.27512327 78.79766973 8.14535308 89.42732346 -3 95 C-10.9635061 95.089241 -18.20497514 92.54758165 -25.625 89.9375 C-26.72457031 89.56044922 -27.82414063 89.18339844 -28.95703125 88.79492188 C-31.641502 87.87286453 -34.32216296 86.9411123 -37 86 C-34.56465811 83.55656727 -32.12951702 81.12270034 -29.625 78.75 C-12.7919804 61.11540804 1.18848464 31.72918492 1 7 C0.70057297 4.66207378 0.37361068 2.3272238 0 0 Z M5 5 C5.08774334 6.94602578 5.08774334 6.94602578 6 9 C8.37038411 10.39168242 8.37038411 10.39168242 11.34765625 11.359375 C12.42724609 11.75253906 13.50683594 12.14570313 14.61914062 12.55078125 C15.75544922 12.94652344 16.89175781 13.34226563 18.0625 13.75 C19.20267578 14.16121094 20.34285156 14.57242188 21.51757812 14.99609375 C24.34025862 16.01178631 27.16743326 17.01228502 30 18 C28.99012118 15.28552586 28.31867869 14.18289932 25.76928711 12.71972656 C24.8644458 12.36362305 23.95960449 12.00751953 23.02734375 11.640625 C21.55491211 11.05087891 21.55491211 11.05087891 20.05273438 10.44921875 C19.02470703 10.05347656 17.99667969 9.65773437 16.9375 9.25 C15.90560547 8.83878906 14.87371094 8.42757812 13.81054688 8.00390625 C9.52907883 5.9774142 9.52907883 5.9774142 5 5 Z M4 11 C4 13.64 4 16.28 4 19 C13.23315789 22.95207137 22.58051242 26.52148365 32 30 C32.41725678 26.62599422 32.41725678 26.62599422 32 23 C28.7469041 20.62272356 25.22446532 19.18149781 21.48046875 17.73828125 C20.45888672 17.34189453 19.43730469 16.94550781 18.38476562 16.53710938 C17.32966797 16.13298828 16.27457031 15.72886719 15.1875 15.3125 C14.11306641 14.89677734 13.03863281 14.48105469 11.93164062 14.05273438 C9.28931817 13.03103636 6.64543283 12.01361111 4 11 Z M1 27 C1.33 27.99 1.66 28.98 2 30 C4.55355864 31.26531437 4.55355864 31.26531437 7.71484375 32.26171875 C8.87564453 32.65810547 10.03644531 33.05449219 11.23242188 33.46289062 C12.45509766 33.86701172 13.67777344 34.27113281 14.9375 34.6875 C16.15630859 35.10322266 17.37511719 35.51894531 18.63085938 35.94726562 C24.19587563 38.09523428 24.19587563 38.09523428 30 39 C30 38.34 30 37.68 30 37 C26.19295001 35.57169148 22.38433843 34.14763945 18.57421875 32.72753906 C17.27788194 32.24368589 15.9819803 31.75866515 14.68652344 31.27246094 C12.82601495 30.57441411 10.96381135 29.88089053 9.1015625 29.1875 C7.98088379 28.76855469 6.86020508 28.34960938 5.70556641 27.91796875 C3.16051637 26.89290031 3.16051637 26.89290031 1 27 Z M-4.87109375 52.21875 C-6.12886506 54.20333033 -6.74327197 55.66144108 -7 58 C-5.10614087 60.97791641 -5.10614087 60.97791641 -2 63 C4.45826467 63.37989792 10.06549521 59.90926139 15 56 C17.02588774 53.48120653 18.59758715 50.90816138 20 48 C17.33798552 44.77331578 15.88229585 43.14982382 11.6875 42.4375 C4.40353035 43.54861401 -0.19025586 46.60684626 -4.87109375 52.21875 Z M-2 72 C-2 72.33 -2 72.66 -2 73 C0.31 73 2.62 73 5 73 C5 72.67 5 72.34 5 72 C2.69 72 0.38 72 -2 72 Z " fill="#FDB343" transform="translate(282,212)"/>
<path d="M0 0 C0.92278244 -0.00701431 1.84556488 -0.01402863 2.79631042 -0.02125549 C5.75618429 -0.03865636 8.71585812 -0.04510733 11.67578125 -0.046875 C13.19235321 -0.04788712 13.19235321 -0.04788712 14.73956299 -0.04891968 C29.35841452 -0.03339765 43.61133648 0.31849217 57.98828125 3.203125 C58.97957031 3.39600098 59.97085937 3.58887695 60.9921875 3.78759766 C70.84892304 5.73421132 80.51201131 7.82682313 89.98828125 11.203125 C84.36328125 18.078125 84.36328125 18.078125 80.98828125 19.203125 C78.67016602 18.81347656 78.67016602 18.81347656 75.9296875 18.09375 C74.91366455 17.83489014 73.8976416 17.57603027 72.85083008 17.30932617 C71.76181396 17.02677979 70.67279785 16.7442334 69.55078125 16.453125 C61.50536273 14.44538974 53.50708289 12.60252266 45.30078125 11.390625 C44.562229 11.27944336 43.82367676 11.16826172 43.06274414 11.05371094 C19.38518107 7.75971409 -5.33981998 8.01140831 -29.01171875 11.203125 C-29.77838867 11.30496094 -30.54505859 11.40679687 -31.33496094 11.51171875 C-43.13396175 13.13916714 -54.60035418 15.80810442 -66.01171875 19.203125 C-66.77613281 19.42919434 -67.54054688 19.65526367 -68.328125 19.88818359 C-97.62111789 28.79132039 -124.23018577 43.84582063 -147.01171875 64.203125 C-147.92566406 64.99589844 -148.83960938 65.78867188 -149.78125 66.60546875 C-154.97727365 71.16270089 -159.58050646 75.91130537 -164.01171875 81.203125 C-165.22601563 82.56824219 -165.22601563 82.56824219 -166.46484375 83.9609375 C-189.42934153 109.94587041 -205.67700083 143.06232945 -212.01171875 177.203125 C-212.34171875 177.203125 -212.67171875 177.203125 -213.01171875 177.203125 C-212.56294993 169.51819171 -211.32395781 162.45391551 -209.13671875 155.078125 C-208.67978638 153.53656738 -208.67978638 153.53656738 -208.21362305 151.96386719 C-199.2795622 123.0328569 -184.21444586 97.96996189 -164.5546875 75.15625 C-163.10411124 73.47170983 -161.66264508 71.7789734 -160.25 70.0625 C-124.54740883 27.25536298 -66.63817331 5.68984975 -12.66181946 0.4135437 C-8.44109335 0.07841693 -4.23241646 0.02164063 0 0 Z " fill="#FDB343" transform="translate(349.01171875,119.796875)"/>
<path d="M0 0 C2.32405645 1.69022287 3.99054461 3.66980243 5.76953125 5.9140625 C8.20717966 8.90404816 10.97639376 11.59491147 13.9375 14.0625 C15.0625 15.5 15.0625 15.5 14.83618164 17.4206543 C13.90141697 19.93292654 12.98035473 20.67023061 10.80859375 22.20703125 C10.12667969 22.70348145 9.44476563 23.19993164 8.7421875 23.71142578 C8.00226563 24.23978027 7.26234375 24.76813477 6.5 25.3125 C-6.44785101 34.89423949 -18.25866654 45.56800307 -27.9375 58.5 C-33.94366103 56.21411894 -39.47732274 53.10765303 -45.125 50.0625 C-46.23037109 49.47662109 -47.33574219 48.89074219 -48.47460938 48.28710938 C-49.52841797 47.71927734 -50.58222656 47.15144531 -51.66796875 46.56640625 C-52.63114014 46.05021729 -53.59431152 45.53402832 -54.58666992 45.00219727 C-56.9375 43.5 -56.9375 43.5 -58.9375 40.5 C-50.01683687 30.94214664 -13.82032452 -3.56653536 0 0 Z " fill="#FDB445" transform="translate(202.9375,138.5)"/>
<path d="M0 0 C7.08418813 0.59831797 13.49386291 3.05153795 20.171875 5.3828125 C21.4804775 5.83465141 22.78926907 6.28594302 24.09823608 6.73672485 C27.59561837 7.94292854 31.09025474 9.15690634 34.58438873 10.3724823 C38.20167991 11.62943717 41.82145497 12.87919885 45.44091797 14.12988281 C53.96401001 17.07682755 62.4825121 20.03690365 71 23 C72.2108728 23.42108032 73.42174561 23.84216064 74.66931152 24.27600098 C83.59151081 27.37911421 92.51287508 30.48460027 101.42871094 33.60595703 C102.24973297 33.89336761 103.070755 34.1807782 103.91665649 34.47689819 C105.4107804 35.00020674 106.90475363 35.52394583 108.39852905 36.04824829 C112.25480008 37.39955573 116.11998296 38.7184574 120 40 C119.67 40.66 119.34 41.32 119 42 C107.25845351 45.39957674 96.18642422 40.40111677 85.21875 36.5703125 C83.23222951 35.89647555 81.24495032 35.22487162 79.25695801 34.5553894 C74.0566908 32.79797449 68.86653084 31.01245746 63.67822266 29.22009277 C57.36023987 27.04315993 51.03113352 24.89883471 44.70337677 22.75051689 C39.78423973 21.0798943 34.86701235 19.40426291 29.95495605 17.71292114 C29.0530957 17.40350586 28.15123535 17.09409058 27.2220459 16.77529907 C25.54354944 16.19922499 23.86587383 15.62075109 22.18920898 15.03936768 C14.88821669 12.31229649 14.88821669 12.31229649 7.375 13.1875 C3.3074889 15.30008443 3.3074889 15.30008443 1 19 C0.54424154 21.76303565 0.32326018 24.27172606 1 27 C4.22561904 31.39702806 8.76302901 32.77566907 13.6875 34.625 C15.46765582 35.31456769 17.24759274 36.00470068 19.02734375 36.6953125 C19.98108887 37.06172852 20.93483398 37.42814453 21.91748047 37.80566406 C27.54811549 39.98727871 33.14646083 42.24992092 38.75 44.5 C40.91132887 45.36490692 43.07277629 46.22951769 45.234375 47.09375 C46.82291667 47.72916667 48.41145833 48.36458333 50 49 C50 49.33 50 49.66 50 50 C35.4769059 53.80054611 24.93019509 49.67823834 11.375 44.3125 C9.38009699 43.55480022 7.3840063 42.80021978 5.38671875 42.04882812 C-9.58969964 36.36576679 -9.58969964 36.36576679 -16 33 C-14.37849908 28.4996846 -12.084915 24.55213547 -9.6875 20.4375 C-5.87690687 13.80132333 -2.7028211 7.17130422 0 0 Z " fill="#FDB343" transform="translate(315,257)"/>
<path d="M0 0 C4.42412768 1.11751192 8.71299563 2.57825679 13.02734375 4.05859375 C14.30090748 4.48641104 15.57480555 4.91323419 16.84901428 5.33912659 C20.20500432 6.46416748 23.55579731 7.60398553 26.90582275 8.74664307 C29.56633833 9.65133186 32.23038556 10.54531363 34.89470482 11.43872643 C51.67832181 17.06767336 68.37263726 22.92336383 85 29 C85 29.33 85 29.66 85 30 C81.02155118 30.55908084 77.04204511 31.10992204 73.06152344 31.65405273 C71.06389007 31.92871549 69.06708426 32.20937632 67.0703125 32.49023438 C63.71958119 32.94639829 60.36955271 33.3604704 57.01052856 33.74765015 C55.05591762 33.99298155 53.11027312 34.30671212 51.16577148 34.62231445 C38.81096974 36.1824024 29.32261528 32.08111974 18.0625 27.3125 C16.2375099 26.56805984 14.41134018 25.82650474 12.58398438 25.08789062 C8.46863959 23.41424111 4.36230941 21.72278902 0.27835083 19.9737854 C-1.31196405 19.29407208 -2.90796955 18.62758721 -4.50808716 17.97128296 C-5.31567474 17.63166534 -6.12326233 17.29204773 -6.95532227 16.94213867 C-7.68364761 16.6411174 -8.41197296 16.34009613 -9.16236877 16.029953 C-11 15 -11 15 -13 12 C-13.56045628 7.67648012 -13.4786058 5.70295227 -11 2.0625 C-7.18889479 -0.55763483 -4.43969592 -0.57497459 0 0 Z " fill="#FDB343" transform="translate(330,271)"/>
<path d="M0 0 C4.17708809 1.26170109 7.67196937 2.82311609 11.375 5.125 C12.68597656 5.93324219 12.68597656 5.93324219 14.0234375 6.7578125 C15.00183594 7.37269531 15.00183594 7.37269531 16 8 C14.36603143 12.63257022 11.91797651 16.58047364 9.375 20.75 C1.76964901 33.50634165 -4.24266039 46.40354179 -8.47924805 60.6652832 C-10.38710439 66.66267872 -10.38710439 66.66267872 -13.09375 68.15234375 C-17.39510615 67.92686944 -21.5725108 67.3055257 -25.8125 66.5625 C-26.69615234 66.41490234 -27.57980469 66.26730469 -28.49023438 66.11523438 C-30.66162119 65.75138037 -32.83128869 65.37942112 -35 65 C-32.96832776 57.2775125 -30.03708789 50.24100305 -26.5625 43.0625 C-26.0375293 41.97437012 -25.51255859 40.88624023 -24.97167969 39.76513672 C-18.02091761 25.64213205 -9.55180238 12.5016237 0 0 Z " fill="#FEFCF8" transform="translate(145,205)"/>
<path d="M0 0 C6.94242648 0.97370643 13.88407232 1.95283594 20.82519531 2.93579102 C23.18797342 3.26973249 25.55092926 3.60241889 27.9140625 3.93383789 C31.30515986 4.40964413 34.69559838 4.88991834 38.0859375 5.37109375 C39.67817642 5.5930265 39.67817642 5.5930265 41.30258179 5.81944275 C42.28344757 5.95951248 43.26431335 6.09958221 44.27490234 6.24389648 C45.14094086 6.36603012 46.00697937 6.48816376 46.89926147 6.61399841 C49 7 49 7 51 8 C50.85870713 10.41700987 50.71213513 12.83350429 50.5625 15.25 C50.52318359 15.93191406 50.48386719 16.61382812 50.44335938 17.31640625 C50.2321883 20.66265563 49.87661968 23.76804986 49 27 C8.74769186 32.5566411 8.74769186 32.5566411 -7 34 C-6.13939189 25.40676376 -4.68851238 17.27565656 -2.41796875 8.95703125 C-2.18541382 8.09001587 -1.95285889 7.22300049 -1.71325684 6.32971191 C-1.1463834 4.21867235 -0.5737935 2.10916916 0 0 Z " fill="#FDB444" transform="translate(76,290)"/>
<path d="M0 0 C1.484375 2.3984375 1.484375 2.3984375 2.75 5.375 C3.17796875 6.35210937 3.6059375 7.32921875 4.046875 8.3359375 C5 11 5 11 5 14 C4.44763672 14.20044922 3.89527344 14.40089844 3.32617188 14.60742188 C-10.05661118 19.49707169 -22.6816114 25.04436237 -35.25390625 31.73046875 C-38 33 -38 33 -41 33 C-42.61328125 31.49609375 -42.61328125 31.49609375 -44.3125 29.4375 C-44.91835937 28.71175781 -45.52421875 27.98601562 -46.1484375 27.23828125 C-46.75945312 26.49964844 -47.37046875 25.76101562 -48 25 C-49.64215365 23.14630254 -51.28645482 21.29458075 -52.93359375 19.4453125 C-54 18 -54 18 -54 16 C-40.2213411 10.24643853 -26.33847763 5.18645968 -12 1 C-11.24912109 0.77795898 -10.49824219 0.55591797 -9.72460938 0.32714844 C-6.11615115 -0.67075852 -3.54387101 -1.32153767 0 0 Z " fill="#FEFBF6" transform="translate(274,113)"/>
<path d="M0 0 C1.54296875 1.390625 1.54296875 1.390625 3.1875 3.25 C4.01314453 4.15492188 4.01314453 4.15492188 4.85546875 5.078125 C6 7 6 7 5.77490234 8.95092773 C4.83538602 11.43528833 3.89942139 12.18327457 1.74609375 13.70703125 C1.06417969 14.20348145 0.38226563 14.69993164 -0.3203125 15.21142578 C-1.43019531 16.00395752 -1.43019531 16.00395752 -2.5625 16.8125 C-15.51035101 26.39423949 -27.32116654 37.06800307 -37 50 C-40.43931834 48.6926925 -43.61300905 47.18963666 -46.8125 45.375 C-47.99779297 44.70597656 -47.99779297 44.70597656 -49.20703125 44.0234375 C-49.79871094 43.68570313 -50.39039063 43.34796875 -51 43 C-51 40 -51 40 -49.70581055 38.33349609 C-48.80536011 37.43751709 -48.80536011 37.43751709 -47.88671875 36.5234375 C-47.22164307 35.85731445 -46.55656738 35.19119141 -45.87133789 34.50488281 C-45.15067139 33.80202148 -44.43000488 33.09916016 -43.6875 32.375 C-42.95200928 31.65151367 -42.21651855 30.92802734 -41.45874023 30.18261719 C-10.47988202 0 -10.47988202 0 0 0 Z " fill="#FEFCFA" transform="translate(212,147)"/>
<path d="M0 0 C1.87239463 0.00502635 3.74479058 0.00958724 5.6171875 0.01367188 C10.16149123 0.02458457 14.70573081 0.04178629 19.25 0.0625 C19.63063221 2.3885857 19.96269945 4.72305264 20.25 7.0625 C18.62571145 8.68678855 16.73852233 8.32388368 14.4921875 8.45703125 C12.98132568 8.55661133 12.98132568 8.55661133 11.43994141 8.65820312 C10.34601074 8.72974609 9.25208008 8.80128906 8.125 8.875 C-3.44415725 9.70839268 -14.70504531 11.37065772 -26.08886719 13.5546875 C-30.63670785 14.42253232 -35.19386904 15.23948523 -39.75 16.0625 C-44.75 6.4375 -44.75 6.4375 -44.75 3.0625 C-43.00123994 2.74313424 -41.25088083 2.43252651 -39.5 2.125 C-38.52546875 1.95097656 -37.5509375 1.77695313 -36.546875 1.59765625 C-24.37016177 -0.11860889 -12.26782245 -0.05762093 0 0 Z " fill="#FEF8EE" transform="translate(332.75,105.9375)"/>
<path d="M0 0 C7.9139974 -0.32156197 17.78923525 -0.60538237 25 3 C24.85870713 5.41700987 24.71213513 7.83350429 24.5625 10.25 C24.52318359 10.93191406 24.48386719 11.61382812 24.44335938 12.31640625 C24.2321883 15.66265563 23.87661968 18.76804986 23 22 C19.62601911 22.50704109 16.25067379 23.00436536 12.875 23.5 C11.92367187 23.64308594 10.97234375 23.78617187 9.9921875 23.93359375 C5.28805294 24.61961337 0.7695743 25.19271007 -4 25 C-3.24595285 16.55467195 -1.62171958 8.31258777 0 0 Z " fill="#FEFBF7" transform="translate(102,295)"/>
<path d="M0 0 C4.875 1.75 4.875 1.75 6 4 C8.69767988 29.55088225 -5.36566611 58.9000303 -20.87109375 78.53125 C-24.63232617 82.89289933 -27.7217317 86.31222089 -33.3125 88 C-34.199375 88 -35.08625 88 -36 88 C-36.66 87.34 -37.32 86.68 -38 86 C-37.46632812 85.65710938 -36.93265625 85.31421875 -36.3828125 84.9609375 C-16.32530496 70.87210002 -4.41880384 40.46019358 -0.27978516 17.08886719 C0.48046555 11.41285931 0.29901226 5.70615058 0 0 Z " fill="#FDB343" transform="translate(268,206)"/>
<path d="M0 0 C4.875 1.875 4.875 1.875 6 3 C8.65158252 29.44869657 -4.25382298 56.98212857 -20.125 77.5 C-27.88339979 86.8040185 -27.88339979 86.8040185 -33.375 87.3125 C-34.24125 87.209375 -35.1075 87.10625 -36 87 C-36 86.01 -36 85.02 -36 84 C-34.6015625 82.88671875 -34.6015625 82.88671875 -32.625 81.6875 C-17.49730117 70.80945508 -9.68103379 49.04310138 -4 32 C-3.37738281 30.14761719 -3.37738281 30.14761719 -2.7421875 28.2578125 C0.15361353 18.67939371 0.4358426 9.8912056 0 0 Z " fill="#FDB343" transform="translate(275,209)"/>
<path d="M0 0 C1.25 3.0625 1.25 3.0625 2 6 C0.906875 6.31710938 -0.18625 6.63421875 -1.3125 6.9609375 C-25.87424009 13.35175389 -25.87424009 13.35175389 -47 26 C-48.17260611 24.71372289 -49.3379283 23.42080217 -50.5 22.125 C-51.1496875 21.40570313 -51.799375 20.68640625 -52.46875 19.9453125 C-54 18 -54 18 -54 16 C-40.2213411 10.24643853 -26.33847763 5.18645968 -12 1 C-11.24912109 0.77795898 -10.49824219 0.55591797 -9.72460938 0.32714844 C-3.50049624 -1.39410907 -3.50049624 -1.39410907 0 0 Z " fill="#FDB445" transform="translate(274,113)"/>
<path d="M0 0 C9.90242479 0.46534277 19.3944896 1.51689578 29.125 3.5 C31.02608521 3.88333496 31.02608521 3.88333496 32.96557617 4.27441406 C42.56533361 6.27043195 51.95031883 8.84596694 61.3125 11.75 C63.1989624 12.33297852 63.1989624 12.33297852 65.12353516 12.92773438 C71.64743097 15.0199086 71.64743097 15.0199086 74 16 C74.495 16.99 74.495 16.99 75 18 C73.93265625 17.75765625 72.8653125 17.5153125 71.765625 17.265625 C43.64914595 10.80880992 43.64914595 10.80880992 15.01171875 7.765625 C14.18559082 7.72977295 13.35946289 7.6939209 12.50830078 7.65698242 C10.90952737 7.59522106 9.3101138 7.54789587 7.71044922 7.5168457 C5.53515625 7.44140625 5.53515625 7.44140625 2 7 C0 4 0 4 0 0 Z " fill="#FEECD2" transform="translate(364,107)"/>
<path d="M0 0 C1.87239463 0.00502635 3.74479058 0.00958724 5.6171875 0.01367188 C10.16149123 0.02458457 14.70573081 0.04178629 19.25 0.0625 C19.25 1.0525 19.25 2.0425 19.25 3.0625 C18.57646484 3.08231934 17.90292969 3.10213867 17.20898438 3.12255859 C4.86612489 3.50327733 -7.36209232 3.90823402 -19.58789062 5.74023438 C-22.18685548 6.12761396 -24.78853435 6.49359144 -27.390625 6.859375 C-32.51222937 7.58143447 -37.63169349 8.31744896 -42.75 9.0625 C-44.75 6.0625 -44.75 6.0625 -44.75 3.0625 C-43.00123994 2.74313424 -41.25088083 2.43252651 -39.5 2.125 C-38.52546875 1.95097656 -37.5509375 1.77695313 -36.546875 1.59765625 C-24.37016177 -0.11860889 -12.26782245 -0.05762093 0 0 Z " fill="#FDB546" transform="translate(332.75,105.9375)"/>
<path d="M0 0 C10.18802854 0.45087752 19.87402457 1.66434653 29.875 3.75 C30.84315643 3.94725677 30.84315643 3.94725677 31.83087158 4.14849854 C42.06445135 6.2341526 52.0868074 8.7149831 62 12 C57.99969055 13.57773019 54.53910824 12.36147323 50.5625 11.3125 C43.74191141 9.61110208 36.90563842 8.1277133 30 6.8125 C29.14092041 6.64596924 28.28184082 6.47943848 27.39672852 6.30786133 C19.9308837 4.8991159 12.5514504 3.84112088 4.9375 3.9375 C3.99777344 3.94652344 3.05804688 3.95554687 2.08984375 3.96484375 C1.40019531 3.97644531 0.71054687 3.98804687 0 4 C0 2.68 0 1.36 0 0 Z " fill="#FDB74C" transform="translate(364,107)"/>
<path d="M0 0 C0.721875 0.268125 1.44375 0.53625 2.1875 0.8125 C2.1875 4.94893553 2.03517359 5.51052433 -0.3125 8.5625 C-0.7765625 9.17609375 -1.240625 9.7896875 -1.71875 10.421875 C-2.0796875 10.88078125 -2.440625 11.3396875 -2.8125 11.8125 C-7.5625 10.9375 -7.5625 10.9375 -9.8125 9.8125 C-8.27204671 4.91105772 -5.72485196 -0.3816568 0 0 Z " fill="#FAB143" transform="translate(449.8125,128.1875)"/>
<path d="M0 0 C6.40353322 -0.2361959 11.84629161 0.176679 18 2 C18 2.33 18 2.66 18 3 C12.27959989 3.8320582 6.77759884 4.12036664 1 4 C0.67 2.68 0.34 1.36 0 0 Z " fill="#FEFBF6" transform="translate(365,110)"/>
<path d="M0 0 C0.33 0 0.66 0 1 0 C1 1.98 1 3.96 1 6 C0.67 6 0.34 6 0 6 C0 4.02 0 2.04 0 0 Z " fill="#FEB142" transform="translate(135,297)"/>
<path d="M0 0 C1 4 1 4 1 4 Z " fill="#FFB342" transform="translate(134,303)"/>
</svg>
